<?xml version="1.0" encoding="utf-8"?>
<!-- Generator: Adobe Illustrator 15.0.2, SVG Export Plug-In . SVG Version: 6.00 Build 0)  -->
<!DOCTYPE svg PUBLIC "-//W3C//DTD SVG 1.1//EN" "http://www.w3.org/Graphics/SVG/1.1/DTD/svg11.dtd">
<svg version="1.1" id="Layer_1" xmlns="http://www.w3.org/2000/svg" xmlns:xlink="http://www.w3.org/1999/xlink" x="0px" y="0px"
	 width="75px" height="75px" viewBox="0 0 75 75" enable-background="new 0 0 75 75" xml:space="preserve">
<path d="M70.905,14.739C66.759,5.232,53.357,1.625,44.267,0.521c-7.495-0.909-16.453-0.834-23.979,1.891
	c-2.564,0.679-4.996,1.561-7.082,2.455C4.929,8.412,2.336,15.884,1.143,24.28c-1.406,9.895-1.601,19.871-0.102,29.762
	c1.276,8.427,4.973,14.164,12.789,17.394c8.535,3.526,18.912,3.719,27.986,3.505c8.469-0.199,18.169-0.899,24.948-6.595
	c6.717-5.643,7.589-17.909,8.075-25.947C75.394,33.19,74.612,23.242,70.905,14.739z"/>
<path fill="#FFFFFF" d="M67.433,34.619c-0.079-0.856-1.008-1.763-1.82-1.116c-0.617,0.492-0.842,1.08-1.321,1.695
	c-0.439,0.563-1.046,0.972-1.597,1.396c-0.74,0.57-1.637,0.882-2.456,1.305c-2.114-2.967-4.245-5.869-6.684-8.285
	c2.058-0.718,3.82-2.216,4.264-4.61c0.217-1.177-1.062-2.099-1.926-1.198c-1.675,1.744-3.094,3.057-5.375,3.213
	c-2.721-1.962-5.858-3.29-9.718-3.538c-0.734-0.047-1.46-0.042-2.185-0.007c0.133-0.389,0.272-0.774,0.377-1.187
	c0.377-1.467,1.618-2.502,1.649-4.017c0.016-0.741-0.634-1.526-1.364-1.457c-1.944,0.188-2.791,2.33-3.305,4.127
	c-0.294,1.025-0.269,1.961-0.046,2.863c-3.53,0.654-6.907,2.188-10.033,4.296c-0.259-0.56-0.495-1.133-0.748-1.652
	c-0.555-1.135-0.439-2.465-0.827-3.652c-0.535-1.638-2.485-1.563-3.045,0c-0.653,1.823,0.11,3.856,0.979,5.458
	c0.366,0.676,0.805,1.174,1.305,1.56c-2.046,1.62-3.968,3.453-5.727,5.401c-0.936-0.613-1.963-0.693-2.977-1.279
	c-1.002-0.579-1.313-1.91-1.807-2.914c-0.836-1.699-3.196-0.834-3.244,0.937c-0.059,2.252,1.19,4.161,2.866,5.396
	c0.73,0.538,1.63,0.891,2.534,0.996c-1.158,1.485-2.233,2.997-3.19,4.494c-0.121,0.19-0.153,0.395-0.139,0.593
	c-0.199,0.33-0.242,0.755,0.032,1.184c5.568,8.695,14.067,13.174,23.838,13.911c10.371,0.78,19.658-4.478,28.421-9.65
	c1.558-0.919,1.577-2.575,0.874-3.797c-0.055-0.458-0.223-0.921-0.554-1.35c-0.999-1.291-1.96-2.625-2.914-3.964
	c0.873-0.168,1.741-0.478,2.444-0.766C65.504,38.401,67.607,36.494,67.433,34.619z M37.22,54.331
	c-8.965,0.316-16.488-4.491-22.938-10.649c8.481-6.458,15.153-14.47,26.517-14.756c8.577-0.215,14.085,9.877,18.991,16.587
	C53.584,51.215,45.344,54.042,37.22,54.331z"/>
<path fill="#FFFFFF" d="M37.676,36.096c-3.229,0-5.923,2.874-5.923,6.319c0,3.446,2.694,6.321,5.923,6.321
	c3.228,0,5.922-2.875,5.922-6.321C43.599,38.97,40.904,36.096,37.676,36.096z"/>
</svg>
