<?xml version="1.0" encoding="utf-8"?>
<!-- Generator: Adobe Illustrator 15.0.2, SVG Export Plug-In . SVG Version: 6.00 Build 0)  -->
<!DOCTYPE svg PUBLIC "-//W3C//DTD SVG 1.1//EN" "http://www.w3.org/Graphics/SVG/1.1/DTD/svg11.dtd">
<svg version="1.1" id="Layer_1" xmlns="http://www.w3.org/2000/svg" xmlns:xlink="http://www.w3.org/1999/xlink" x="0px" y="0px"
	 width="75px" height="75px" viewBox="0 0 75 75" enable-background="new 0 0 75 75" xml:space="preserve">
<path d="M70.904,14.738C66.759,5.232,53.356,1.625,44.267,0.521c-7.494-0.909-16.453-0.833-23.979,1.892
	c-2.564,0.68-4.996,1.561-7.082,2.454C4.929,8.413,2.336,15.884,1.143,24.28c-1.406,9.896-1.601,19.872-0.102,29.762
	c1.276,8.427,4.973,14.164,12.789,17.394c8.535,3.526,18.912,3.719,27.985,3.505c8.469-0.199,18.169-0.899,24.949-6.595
	c6.717-5.643,7.59-17.908,8.074-25.947C75.394,33.191,74.612,23.242,70.904,14.738z"/>
<path fill="#FFFFFF" d="M47.679,40.919c-0.227,5.75-0.417,12.12-1.62,17.883c3.21-0.034,6.831-0.002,9.702,1.124
	c1.351-7.758,1.502-15.373,1.454-23.403c-0.039-6.437,0.51-13.127-0.021-19.629c-0.271-0.823-0.595-1.607-0.989-2.331
	c-6.539,1.578-13.382,1.666-20.098,1.835c-5.832,0.146-11.496,0.22-17.207-0.152c0.79,15.053-0.562,30.752,3.702,45.322
	c0.655-0.283,1.291-0.513,1.822-0.688c2.463-0.816,5.133-1.647,7.782-1.855c-2.1-6.107-1.391-13.131-2.202-19.407
	c-0.446-3.45-1.017-6.846-1.177-10.323c-0.039-0.853,0.302-1.511,0.862-2.029c0.734-0.393,1.466-0.787,2.2-1.176
	c1.976-0.646,4.402-0.818,5.669-1.064C47.651,23.062,47.942,34.261,47.679,40.919z"/>
</svg>
