<?xml version="1.0" encoding="utf-8"?>
<!-- Generator: Adobe Illustrator 15.0.2, SVG Export Plug-In . SVG Version: 6.00 Build 0)  -->
<!DOCTYPE svg PUBLIC "-//W3C//DTD SVG 1.1//EN" "http://www.w3.org/Graphics/SVG/1.1/DTD/svg11.dtd">
<svg version="1.1" id="Layer_1" xmlns="http://www.w3.org/2000/svg" xmlns:xlink="http://www.w3.org/1999/xlink" x="0px" y="0px"
	 width="75px" height="75px" viewBox="0 0 75 75" enable-background="new 0 0 75 75" xml:space="preserve">
<path d="M70.904,14.739C66.759,5.232,53.356,1.625,44.267,0.521c-7.494-0.909-16.453-0.834-23.979,1.891
	c-2.564,0.679-4.996,1.561-7.082,2.455C4.929,8.412,2.336,15.884,1.143,24.28c-1.406,9.896-1.601,19.871-0.102,29.762
	c1.276,8.427,4.973,14.164,12.789,17.394c8.535,3.526,18.912,3.719,27.985,3.505c8.469-0.199,18.169-0.899,24.949-6.595
	c6.717-5.643,7.59-17.909,8.074-25.947C75.394,33.191,74.612,23.242,70.904,14.739z"/>
<path fill="#FFFFFF" d="M52.513,14.371c-4.48-2.643-10.626-3.425-16.503-2.784c-3.524-0.589-8.081,0.808-10.629,2.062
	c-5.238,2.577-9.916,5.775-11.904,11.508c-2.918,8.417-2.223,18.506,1.324,26.352c0.787,1.883,3.64,6.875,5.23,7.782
	c2.371,1.35,5.108,0.643,5.125-2.156c0.003-0.497-0.095-0.959-0.25-1.398c-0.018-0.052-0.019-0.103-0.04-0.155
	c-4.425-10.56,6.737-13.964,13.512-18.577c2.079-1.415,3.708-3.076,5.006-4.944c0.03,0.394,0.057,0.79,0.074,1.186
	c0.12,2.803-1.01,4.771-0.307,7.576c0.172,0.682,1.013,1.264,1.705,0.983c4.597-1.862,7.109-5.687,8.132-10.199
	c4.787,7.972,2.251,16.456-1.196,25.138c-0.555,1.398,1.145,3.611,2.407,3.254c8.091-2.287,9.754-13.328,10.393-20.61
	C65.498,29.04,61.58,19.719,52.513,14.371z"/>
</svg>
