<?xml version="1.0" encoding="utf-8"?>
<!-- Generator: Adobe Illustrator 15.0.2, SVG Export Plug-In . SVG Version: 6.00 Build 0)  -->
<!DOCTYPE svg PUBLIC "-//W3C//DTD SVG 1.1//EN" "http://www.w3.org/Graphics/SVG/1.1/DTD/svg11.dtd">
<svg version="1.1" id="Layer_1" xmlns="http://www.w3.org/2000/svg" xmlns:xlink="http://www.w3.org/1999/xlink" x="0px" y="0px"
	 width="75px" height="75px" viewBox="0 0 75 75" enable-background="new 0 0 75 75" xml:space="preserve">
<path fill="#E6E6E6" d="M70.905,14.738C66.759,5.232,53.357,1.625,44.267,0.521c-7.494-0.91-16.453-0.833-23.979,1.891
	c-2.564,0.68-4.996,1.561-7.082,2.454C4.929,8.413,2.337,15.884,1.144,24.28c-1.406,9.896-1.601,19.873-0.102,29.762
	c1.276,8.426,4.973,14.163,12.789,17.393c8.535,3.527,18.912,3.72,27.984,3.506c8.47-0.2,18.17-0.9,24.95-6.595
	c6.717-5.643,7.59-17.908,8.074-25.948C75.395,33.191,74.612,23.242,70.905,14.738z"/>
</svg>
