<?xml version="1.0" encoding="utf-8"?>
<!-- Generator: Adobe Illustrator 15.0.2, SVG Export Plug-In . SVG Version: 6.00 Build 0)  -->
<!DOCTYPE svg PUBLIC "-//W3C//DTD SVG 1.1//EN" "http://www.w3.org/Graphics/SVG/1.1/DTD/svg11.dtd">
<svg version="1.1" id="Layer_1" xmlns="http://www.w3.org/2000/svg" xmlns:xlink="http://www.w3.org/1999/xlink" x="0px" y="0px"
	 width="75px" height="75px" viewBox="0 0 75 75" enable-background="new 0 0 75 75" xml:space="preserve">
<path d="M70.904,14.739C66.759,5.232,53.356,1.625,44.267,0.521c-7.494-0.909-16.453-0.834-23.979,1.891
	c-2.564,0.679-4.996,1.561-7.082,2.455C4.929,8.412,2.336,15.884,1.143,24.28c-1.406,9.895-1.601,19.871-0.102,29.762
	c1.276,8.427,4.973,14.164,12.789,17.394c8.535,3.526,18.912,3.719,27.985,3.505c8.469-0.199,18.169-0.899,24.949-6.595
	c6.717-5.643,7.59-17.909,8.074-25.947C75.394,33.19,74.612,23.242,70.904,14.739z"/>
<path fill="#FFFFFF" d="M66.315,37.709c-0.098-1.642-0.213-3.279-0.326-4.917c-0.577-2.102-1.187-4.195-1.784-6.233
	c-0.997-3.414-3.658-7.281-7.784-8.601c-7.26-2.325-11.369,4.89-14.289,9.114c-1.002,1.449-2.075,2.772-3.514,3.946
	c-1.899,1.548-4.25-2.601-5.137-3.705c-2.712-3.376-5.232-6.217-9.931-7.553c-4.585-1.304-7.688,2.392-9.523,5.19
	c-0.901,1.374-1.83,2.779-2.732,4.207c-0.539,2.035-0.944,4.059-1.18,6.083c-0.104,1.74-0.117,3.484-0.097,5.231
	c0.387-0.017,0.771-0.033,1.144-0.051c6.848-0.341,13.699-0.646,20.561-0.679c11.373-0.058,23.121-0.262,34.646,0.142
	C66.374,39.165,66.359,38.438,66.315,37.709z"/>
<path fill="#FFFFFF" d="M36.497,44.082c-8.713-0.081-17.59,0.766-26.316,0.364c1.242,4.518,3.148,8.807,7.498,11.079
	c2.41,1.081,5.05,1.872,7.756,2.436c3.714,0.646,7.536,0.737,11.313,0.687c12.542-0.166,26.044-1.443,29.948-13.988
	C56.627,44.548,46.564,44.177,36.497,44.082z"/>
</svg>
