<?xml version="1.0" encoding="utf-8"?>
<!-- Generator: Adobe Illustrator 15.0.2, SVG Export Plug-In . SVG Version: 6.00 Build 0)  -->
<!DOCTYPE svg PUBLIC "-//W3C//DTD SVG 1.1//EN" "http://www.w3.org/Graphics/SVG/1.1/DTD/svg11.dtd">
<svg version="1.1" id="Layer_1" xmlns="http://www.w3.org/2000/svg" xmlns:xlink="http://www.w3.org/1999/xlink" x="0px" y="0px"
	 width="75px" height="75px" viewBox="0 0 75 75" enable-background="new 0 0 75 75" xml:space="preserve">
<path d="M70.905,14.738C66.759,5.232,53.357,1.625,44.267,0.521c-7.495-0.909-16.453-0.833-23.979,1.892
	c-2.564,0.68-4.996,1.561-7.082,2.454C4.929,8.413,2.336,15.884,1.143,24.28c-1.406,9.896-1.601,19.871-0.102,29.762
	c1.276,8.427,4.973,14.163,12.789,17.394c8.535,3.526,18.912,3.719,27.986,3.505c8.469-0.199,18.169-0.899,24.948-6.595
	c6.717-5.643,7.589-17.909,8.075-25.948C75.394,33.191,74.612,23.242,70.905,14.738z"/>
<path fill="#FFFFFF" d="M56.791,16.798c-0.034-0.02-0.065-0.048-0.101-0.067c-0.012-0.042-0.024-0.084-0.037-0.126
	c-0.17-0.243-0.34-0.483-0.508-0.725c-0.069-0.038-0.142-0.07-0.216-0.086c-0.184-0.039-0.364-0.08-0.546-0.12
	c-2.672-1.797-6.709-1.993-9.842-2.4c-0.232,4.236-3.294,9.602-7.815,9.12c-3.912-0.417-6.726-4.603-6.516-8.45
	c-2.357-0.344-4.886-0.194-7.254-0.16c-1.327,0.02-3.143-0.191-3.917,0.829c-0.496,0.057-0.842,0.346-1.001,0.737
	c-0.277,0.228-0.563,0.554-0.924,1.059c-1.048,1.466-2.09,2.938-3.114,4.423c-1.328,1.595-3.221,3.511-4.346,5.468
	c-0.459,0.384-0.871,0.791-1.255,1.274c-0.063,0.079-0.095,0.163-0.13,0.247c-0.21,0.23-0.424,0.456-0.629,0.69
	c-0.131,0.149-0.2,0.311-0.241,0.474c1.174,0.639,2.277,1.483,3.367,2.188c2.251,1.456,4.532,2.885,7.038,3.842
	c0.338,0.129,0.6,0.319,0.808,0.542c1.273-0.772,2.357-1.951,3.326-3.263c-1.81,9.42-2.906,18.912-2.677,28.557
	c0.015,0.625,0.471,1.013,1.054,1.069c3.817,0.367,7.623,0.672,11.421,0.827c0.619,0.045,1.24,0.068,1.863,0.065
	c7.396,0.203,14.764-0.218,22.123-1.921c0.731-0.169,1.249-1.066,1.004-1.796c-2.752-8.247-2.373-17.956-2.654-26.82
	c0.79,0.831,1.697,1.654,2.635,2.091c0.15,0.197,0.308,0.387,0.454,0.588l0.031-0.024c0.001,0.002,0.004,0.003,0.006,0.005
	c1.289-1.428,2.62-2.81,3.916-4.234c1.165-1.28,1.901-2.762,2.807-4.146C61.931,23.692,59.243,20.277,56.791,16.798z"/>
</svg>
