<!DOCTYPE svg PUBLIC "-//W3C//DTD SVG 1.1//EN" "http://www.w3.org/Graphics/SVG/1.1/DTD/svg11.dtd"><svg version="1.1" id="Layer_1" xmlns="http://www.w3.org/2000/svg" xmlns:xlink="http://www.w3.org/1999/xlink" x="0px" y="0px" width="600px" height="600px" viewBox="0 0 600 600" enable-background="new 0 0 600 600" xml:space="preserve">
<path fill="#E6E6E6" d="M423.801,420.873c-3.123-7.451-7.406-14.242-11.883-20.92c-0.45-5.402-4.109-10.451-6.722-15.02
	c-3.103-5.428-6.061-10.932-9.16-16.355c-2.008-3.512-4.122-7.002-6.369-10.406c-0.726-1.404-1.466-2.801-2.231-4.188
	c-0.639-1.156-1.3-2.305-1.977-3.447c-1.476-7.727-4.284-15.164-7.242-22.449c-3.982-9.816-7.964-19.648-12.066-29.413
	c-0.281-0.67-0.655-1.23-1.091-1.694c8.987-5.386,17.46-11.864,24.782-19.078c1.072-1.056,2.045-2.162,2.967-3.292
	c0.111-0.267,0.226-0.531,0.325-0.807c1.227-3.325,2.337-6.708,3.101-10.173c1.571-7.154,2.25-14.434,2.172-21.758
	c-0.084-7.896-0.628-15.782-1.226-23.665c-1.823-4.474-4.151-8.715-7.062-12.489c-0.062-0.276-0.123-0.554-0.186-0.827
	c-1.564-7.039-4.754-13.344-9.145-19.003c-0.056-0.071-0.117-0.137-0.172-0.208c-2.382-8.318-10.63-14.582-16.632-20.457
	c-7.003-6.855-13.012-12.084-22.597-14.933c-4.52-1.344-9.216-2.105-13.947-2.625c-6.475-2.355-13.062-4.392-19.86-5.283
	c-6.486-2.721-13.351-4.15-20.609-2.809c-5.467,1.01-9.317,4.636-13.401,7.917c-0.292,0.096-0.584,0.192-0.875,0.289
	c-17.29,3.257-32.859,9.624-46.644,21.301c-6.962,5.897-12.92,13.156-17.393,21.1c-3.657,6.496-5.297,12.704-4.642,19.477
	c-1.574,4.415-2.755,9.008-3.465,13.748c-0.814,5.435-1.266,10.739-0.802,16.22c0.108,1.279,0.242,2.556,0.386,3.832
	c-1.83,1.036-3.233,2.718-3.632,5.045c-0.43,2.508-0.475,5.374,0.213,7.876c0.152,0.553,0.367,1.036,0.607,1.492
	c1.43,9.652,4.692,18.406,11.236,26.507c7.347,9.096,18.076,14.842,28.69,19.21c0.029,0.012,0.059,0.021,0.088,0.034
	c-1.368,0.86-2.382,2.319-2.494,4.378c-1.26,23.15-11.254,45.09-21.069,65.748c-3.721,7.83-7.92,15.43-11.858,23.164
	c-4.726,5.562-9.113,12.045-11.521,18.898c-0.37,1.057-0.744,2.119-1.105,3.189c-1.89,2.854-3.418,5.809-4.408,8.906
	c-4.625,10.516-7.223,23.104,0.622,31.096c5.346,5.445,14.127,4.84,20.079,0.922c6.616-4.354,10.705-11.771,14.03-18.732
	c3.462-7.25,6.529-14.717,9.364-22.326c-0.266,4.227-0.333,8.461-0.304,12.701c-0.825,0.812-1.383,1.956-1.44,3.434
	c-0.021,0.555-0.054,1.106-0.089,1.66c-1.322,1.071-2.226,2.727-2.209,4.34c0.041,3.852,0.214,7.693,1.275,11.414
	c0.036,0.125,0.092,0.229,0.134,0.346c-1.11,8.152-1.98,16.33-2.131,24.566c-0.069,3.785-0.267,10.729,1.221,16.338
	c-0.004,2.68,0.061,5.361,0.214,8.039c-2.464,23.736,0.102,50.547,17.639,66.23c4.001,2.695,11.005,0.191,11.8-4.799
	c1.661-10.43,1.964-20.826,1.845-31.367c-0.104-9.206-0.607-18.639,0.803-27.771c1.703-11.031,9.644-18.137,17.381-25.342
	c4.017-1.4,8.021-2.859,12.045-4.232c8.378-1.752,16.831-2.855,25.435-2.727c8.824,0.133,17.578,1.938,25.438,5.922
	c2.105,3.946,4.421,7.826,7.822,11.338c4.146,4.283,8.866,7.029,12.71,10.969c2.49,6.656,3.105,13.746,3.396,20.898
	c0.011,0.025,0.021,0.051,0.031,0.076c2.307,6.102,2.979,12.654,3.536,19.111c0.618,7.158,0.756,14.504,2.789,21.449
	c0.697,2.391,1.55,4.764,2.753,6.949c4.089,2.664,10.11,0.869,11.726-4.354c5.771-18.686,7.737-37.979,7.438-57.504
	c-0.301-19.527-4.116-38.236-7.354-57.389c-2.857-16.92-4.251-34.367-7.313-51.297c1.521,3.188,3.157,6.314,4.947,9.377
	c2.388,4.08,4.561,9.1,7.975,12.58l0.041,0.062c0.067,0.867,0.29,1.764,0.712,2.676c0.535,1.156,1.127,2.27,1.745,3.361
	c1.65,3.66,4.318,7.914,7.593,11.631c0.331,0.527,0.67,1.156,0.698,1.443c0.433,4.371,4.512,6.305,7.824,5.709
	c4.146,2.297,8.594,3.025,12.854,0.865c1.464-0.549,2.82-1.479,3.841-2.801C428.681,436.451,426.613,427.584,423.801,420.873z
	 M360.48,346.246c-0.004-0.553,0.016-1.105,0.002-1.658c0.062,0.049,0.134,0.082,0.196,0.127c0.034,0.525,0.095,1.059,0.163,1.596
	C360.725,346.285,360.601,346.27,360.48,346.246z M367.413,367.807c-0.74-1.881-1.55-3.738-2.396-5.586
	c0.257,0.266,0.506,0.533,0.747,0.807c0.543,1.488,1.104,2.973,1.688,4.441C367.436,367.582,367.428,367.695,367.413,367.807z"></path>

<path fill="#4D4D4D" d="M413.708,464.292c-3.141-3.694-6.352-7.384-9.028-11.42c0.266-0.886,0.196-1.864-0.388-2.796
	c-1.461-2.331-2.215-4.354-5.254-4.843c-0.128-0.021-0.256-0.026-0.383-0.036c-0.202-1.07-0.357-2.144-0.468-3.197
	c-0.348-3.305-3.261-4.586-5.562-3.819c-3.258-7.314-6.845-14.552-9.512-21.983c0.033-0.728,0.046-1.454-0.006-2.194
	c-0.162-2.301-1.75-4.022-4.111-4.111c-0.333-0.013-0.667-0.021-1-0.034c-2.786-0.104-4.598,2.717-4,5.251
	c2.297,9.741,6.573,19.222,10.038,28.843c-1.533,1.031-2.509,2.912-1.997,5.422c1.474,7.227,2.797,14.381,5.498,21.163
	c0.186,2.44,0.259,4.888,0.241,7.299c-0.036,1.391-0.088,2.78-0.114,4.171c-0.133,7.016,9.954,6.681,10.668,0
	c0.174-1.633,0.267-3.244,0.293-4.838c1.161-1.021,1.99-2.469,2.123-4.162c0.199-2.535,0.178-5.019-0.012-7.464
	c2.562,2.271,5.61,4.069,9.241,5.156C413.902,471.866,416.055,467.054,413.708,464.292z"></path>
<path fill="#4D4D4D" d="M422.718,326.131c0.294-0.093,0.528-0.244,0.732-0.418c0.255,0.059,0.501,0.13,0.759,0.182
	c3.225,0.645,5.394-3.733,2.305-5.483c-4.975-2.818-10.194-6.253-13.314-11.163c-2.634-4.146-2.691-9.75-2.479-14.507
	c0.256-5.677,1.765-11.291,3.194-16.761c1.421-5.428,4.561-12.759,3.183-18.305c-0.252-1.014-0.855-1.893-1.648-2.58
	c1.027-2.847,1.717-5.856,2.383-8.708c1.554-6.658,2.492-13.422,3.294-20.208c1.378-11.66,3.756-18.859,1.625-30.429
	c-1.82-9.889-3.824-20.941-10-28.75c-2.498-4.424-10.2-11.956-12.5-14.25c-2.116-2.111-5.003-3.306-7.413-4.948
	c5.528-2.864,10.53-6.552,15.389-10.581c2.499-2.072,1.268-7.091-2.009-7.61c-6.977-1.107-13.776-1.556-20.854-1.582
	c-1.974-0.007-4.826,0.103-7.409,0.751c-0.545-0.69-1.2-1.317-1.967-1.845c-5.497-3.788-12.229-6.105-18.361-8.676
	c-6.762-2.835-13.639-5.4-20.362-8.321c-9.457-4.109-18.265-9.391-27.604-13.722c-7.549-3.499-15.731-7.036-24.243-6.345
	c-5.666,0.46-10.078,2.997-13.376,6.765c0.096-4.891,0.858-9.765,2.329-14.433c1.527-4.851-5.99-8.11-8.263-3.483
	c-3.556,7.238-10.298,12.322-13.302,19.896c-0.759,1.914-1.299,3.83-1.549,5.782c-0.261-0.19-0.522-0.38-0.783-0.567
	c-0.421-0.559-0.989-1.07-1.73-1.501c-1.685-0.98-3.263-2.109-4.948-3.089c-2.04-1.188-3.926-1.032-5.357-0.148
	c-1.001-0.667-2.27-1.017-3.728-0.809c-4.718,0.671-9.405,1.751-14.038,2.861c-1.216,0.292-2.087,0.93-2.679,1.735
	c-2.402,0.278-4.771,0.451-6.982,0.525c-1.893,0.063-3.147,1.587-3.464,3.209c-2.57-0.382-4.475,3.08-1.813,4.574
	c2.162,1.172,4.369,2.189,6.529,3.287c1.333,0.949,2.562,1.927,3.938,2.75c0.522,1.083,1.052,2.162,1.589,3.238
	c-0.419,0.185-0.839,0.368-1.257,0.555c-3.055,1.368-5.902,3.106-8.587,5.074c-3.604,1.193-6.872,3.29-9.764,5.718
	c-7.265,6.1-11.154,15.838-13.755,24.685c-2.991,10.175-5.251,20.952-6.225,31.518c-0.369,4.009-0.56,7.92-0.278,11.883
	c-0.496,2.478-0.824,5.018-1.457,7.447c-0.916,3.513-2.218,6.927-3.5,10.318c-2.016,5.333-3.842,10.429-4.776,15.907
	c-3.104,2.726-6.902,5.253-10.428,5.862c-1.503,0.259-2.051,1.416-1.906,2.572c-0.146,1.156,0.403,2.312,1.906,2.572
	c3.067,0.529,5.945,0.087,8.628-1.028c1.274,1.56,3.002,2.111,4.878,2.086c-0.476,2.273-0.792,4.626-0.876,7.122
	c-0.296,8.78,1.616,17.625,3.984,26.03c3.991,14.165,9.612,28.157,15.165,41.92c-0.987,1.244-1.583,2.854-1.528,4.799
	c0.248,8.693,6.001,16.161,6.854,24.818c0.379,3.85-1.75,8.39-3.273,11.834c-1.875,4.241-4.025,8.354-7.042,11.887
	c-0.554,0.647-0.873,1.345-1.004,2.038c-1.916,1.388-4.781,3.865-6.5,4.234c-2.021,0.435-1.421,3.322,0.465,3.438
	c1.882,0.113,3.438,1.283,5.367,1.283c1.578,0,3.347-0.489,4.759-1.166c1.229-0.588,0.414,0.368,1.53-0.368
	c-0.72,0.87,0.576,0.132-0.064,1.055c-3.573,3.03-7.329,7.609-7.413,12.398c-0.287,0.837-0.496,1.704-0.599,2.613
	c-0.598,5.256,0.946,10.385,5.743,13.155c2.541,1.472,6.938-0.344,6.489-3.724c-0.336-2.529-0.678-5.158-0.906-7.808
	c0.207-0.384,0.377-0.78,0.457-1.217c0.079-0.426,0.12-0.815,0.149-1.196c0.101-0.227,0.2-0.456,0.302-0.682
	c0.631-0.271,1.231-0.682,1.757-1.272c4.237-4.786,8.226-10.081,11.994-15.248c3.681-5.048,6.452-11.179,6.034-17.509
	c1.53-2.873,2.516-6.062,2.938-9.396c2.449-3.479,4.612-7.23,6.735-10.544c4.222-6.584,6.578-13.592,7.115-21.287
	c0.018-0.041,0.033-0.077,0.049-0.118c0.044-0.053,0.085-0.104,0.13-0.154l-0.025-0.021c0.023-0.031,0.048-0.064,0.071-0.102
	c-0.017,0.044-0.028,0.072-0.046,0.119c0.613-0.688,1.032-1.506,1.282-2.377c1.029-2.369,1.316-4.901,0.59-7.232
	c2.21-2.38,2.978-6.604,0.568-9.464c-7.479-8.876-19.062-12.292-26.856-20.602c-5.698-6.074-7.69-14.819-10.062-23.092
	c3.298-6.242,1.831-15.044,1.625-21.842c-0.019-0.633-0.05-1.265-0.076-1.897c0.711-5.716,1.333-11.403,1.503-17.166
	c0.209-0.53,0.423-1.058,0.622-1.592c14.686,4.104,31.701,1.118,46.645-0.017c19.254-1.463,39.48-4.084,57.521-11.279
	c1.522-0.607,3.024-1.256,4.518-1.928c0.645,2.34,3.296,3.938,6.229,2.643c4.491-1.985,8.64-5.556,12.645-8.396
	c4.177-2.963,8.146-6.156,11.858-9.681c3.632-3.445,6.523-6.646,8.993-11.077c1.146-2.055,2.48-4.559,3.465-7.172
	c0.791-1.02,1.561-2.057,2.312-3.104c0.286,2.594,0.605,5.195,0.752,7.767c0.022,0.982,0.051,1.965,0.077,2.944
	c-0.006,0.421,0.062,0.791,0.16,1.138c-0.296,2.149-0.646,4.256-0.968,6.233c-0.612,3.759-1.396,7.349-2.429,10.915
	c-0.613,2.001-1.267,3.977-1.945,5.915c-1.299,3.699,4.45,5.175,5.809,1.601c0.701-1.847,1.377-3.733,2.01-5.643
	c2.163-5.909,4.608-8.462,6.909-14.326c4.402,8.974,12.557,13.185,22.146,15.908c1.7,0.483,3.179-0.238,4.045-1.421
	c0.587,17.317,3.585,34.418,4.735,51.682c0.111,1.676,0.853,2.936,1.887,3.779c0.263,1.074,0.562,2.135,0.897,3.184
	c-2.452,3.855-4.146,8.849-5.818,12.535c-1.012,2.228-2.099,4.443-3.194,6.659c-4.431,5.128-9.247,10.035-12.744,15.787
	c-4.216-1.334-9.582,3.544-6.406,7.764c1.382,1.836,2.469,3.784,3.412,5.796c0.102,0.388,0.235,0.772,0.369,1.159
	c-0.279,0.58-0.384,1.304-0.197,2.179c3.402,15.938,12.367,30.2,16.772,45.892c0.804,2.863,2.748,4.254,4.883,4.555
	c2.215,5.326,4.371,10.682,6.182,16.152c0.751,2.269,2.479,3.422,4.332,3.688c0.647,1.979,1.24,3.98,1.786,6.003
	c1.34,4.964,7.79,3.363,8.337-1.128c1.097-8.99,7.308-14.688,9.082-23.502c1.609-7.988,2.695-16.596-1.334-23.666
	c-1.198-2.104-6.91-6.258-8.504-8.086c0.625-0.041,0.914-1.953,1.5-2C419.51,328.465,422.271,328.68,422.718,326.131z"></path>
<path fill="#4D4D4D" d="M220.132,441.209c-1.226,3.933-2.879,7.612-4.909,11.194c-1.08,1.901-2.287,3.771-3.898,5.261
	c-1.342,1.239-3.161,1.632-4.637,2.669c-2.779,1.953-3.432,4.904-2.726,7.428c-0.125,0.643-0.207,1.312-0.195,2.048
	c0.058,3.843,0.678,7.569,1.673,11.271c0.984,3.662,2.057,7.277,2.639,11.031c0.187,1.203,1.794,2.23,1.811,3.232
	c0.039,2.325-1.496,3.974-3.085,5.458c-3.261,3.058,0.889,7.975,4.62,5.988c3.163-1.681,5.31-3.908,6.793-6.477
	c0.534,0.258,1.129,0.411,1.783,0.411c1.01,0,1.993-0.412,2.764-1.066c1.936-1.188,2.705-3.843,1.558-6.055
	c-0.006-0.015-0.01-0.021-0.016-0.03c-0.003-0.047-0.015-0.123-0.042-0.244c-0.051-0.229-0.146-0.46-0.191-0.69
	c-0.01-0.049-0.073-0.085-0.073-0.122c0-0.008,0-0.012,0-0.019c0-1.786-1.138-3.325-2.762-3.868
	c0.145-1.959,0.221-3.954,0.245-5.945c0.071-5.837,0.694-11.339,1.689-17.093c0.619-3.577,1.459-7.091,1.718-10.718
	c0.236-3.31,0.199-6.403,0.59-9.619c0.138-0.823,0.27-1.646,0.386-2.466C226.614,439.051,221.282,437.521,220.132,441.209z"></path>

<path fill="#1A1A1A" d="M282.84,470.354c-2.979-0.143-6.059,0.515-9.068,1.736c-2.522,0.256-5.071,0.346-7.707,0.394
	c-4.866,0.088-9.838,1.229-14.631,2.008c-5.414,0.879-11.441,1.371-15.609,5.045c-1.807-0.01-3.608,0.021-5.412,0.178
	c-0.652-0.233-1.368-0.262-2.105,0.043c-0.478,0.232-0.981,0.387-1.511,0.461c-3.232,0.773-3.698,5.248-1.299,6.982
	c-0.534,2.108-0.552,4.387-0.217,6.562c-0.532,0.947-1.023,1.939-1.461,2.992c-1.129,2.717,1.714,6.162,4.52,5.935
	c9.498-0.771,18.474-4.437,28-4.902c1.558-0.076,3.365-1.084,3.649-2.779c0.396-2.358,1.758-4.545,3.418-6.516
	c0.478-0.193,0.947-0.392,1.396-0.584c1.171-0.506,2.128-1.312,3.021-2.211c0.922-0.931,1.331-1.904,1.546-3.041
	c1.609-1.363,3.339-2.609,5.185-3.607c2.993-0.967,6.008-1.881,9.122-2.512C287.303,475.799,286.244,470.516,282.84,470.354z"></path>
<path fill="#1A1A1A" d="M384.902,483.518c-0.207-0.87-0.527,0.67-0.277-4.205c-0.347-2.41,0-0.938-0.125-2.125
	c0.562-2.562-1.095-7.02-3.66-7c-14.504,0.115-28.975-5.334-43.504-2.327c-0.414,0.086-0.782,0.262-1.11,0.487
	c-1.117-0.229-2.328-0.28-3.341-0.422c-0.307-0.043-0.606-0.059-0.91-0.09c-0.023-0.004-0.047-0.01-0.069-0.014
	c-0.025-0.004-0.047-0.011-0.072-0.013c-2.181-0.209-4.305,0.189-6.487,0.189c-0.002,0-0.345,0-0.345,0v0.012
	c0,0.017-0.033,0.029-0.136,0.045c-0.988,0.164-0.936,1.519-0.298,2.041c-0.81,0.785-0.849,2.439,0.315,2.968
	c9.705,4.395,21.246,8.303,26.521,18.161c5.604,10.478,18.776,10.582,29.427,10.021c1.042-0.057,1.913-0.404,2.597-0.953
	c1.681,0.512,3.715-0.533,3.916-2.793C387.77,492.691,385.997,488.137,384.902,483.518z"></path>

<path fill="#808080" d="M423.327,420.625c-3.116-10.477-8.493-19.711-14.48-28.635c-3.349-6.086-7.075-12.072-10.836-18.068
	c-0.075-0.287-0.18-0.58-0.325-0.877c-3.757-7.654-7.983-15.148-12.393-22.553c-4.304-9.607-7.924-19.549-11.807-29.359
	c-0.436-1.1-1.195-1.76-2.039-2.064c-0.582-4.291-0.813-8.643-0.569-13.067c0.195-3.545-3.692-6.367-7.011-5.34
	c-7.025,2.175-13.309,6.19-19.927,9.308c-3.592,1.691-7.434,2.739-11.399,2.874c-4.162,0.142-6.632-1.196-10.576,0.72
	c-9.034,4.388-11.973,16.599-13.293,26.637c-1.426,0.182-1.809,0.28-3.297,0.426c-0.042,0.004-0.583,0.121-0.625,0.125
	c-5.925-6.358-11.056-13.397-13.625-21.5c-0.933-2.939-3.79-4.473-6.785-4.723c-13.16-1.1-28.68-1.146-40.749-7.088
	c-3.982-1.959-7.917-0.203-9.463,3.852c-7.304,19.148-9.798,39.516-19.492,57.771c-9.205,17.332-19.707,33.821-27.523,51.887
	c-0.404,0.932-0.581,1.846-0.583,2.717c-1.861,0.887-3.173,2.969-2.852,5.129c-0.87,1.342-0.988,3.053,0.315,4.75
	c0.264,0.344,0.537,0.67,0.808,1l-0.021,0.021c0.033,0.026,0.068,0.053,0.102,0.079c2.887,3.5,6.163,6.285,9.746,9.064
	c0.001,0.002,0.002,0.004,0.004,0.004c0.224,0.197,0.45,0.367,0.677,0.523c0.129,0.1,0.255,0.196,0.385,0.297
	c0.007-0.013,0.013-0.021,0.02-0.033l0.023,0.012c3.832,2.793,9.943,5.726,14.763,6.363c3.059,0.403,3.719-3.265,4.063-5.843
	c0.709-0.535,1.401-1.146,2.011-1.818c2.597-0.111,5.06-1.998,5.109-5.209c0.036-2.32,0.065-4.69-0.032-7.055
	c5.121-7.816,8.726-17.209,12.526-25.334c0.162-0.347,0.327-0.697,0.49-1.047c-1.696,6.149-2.693,12.414-3.412,18.727
	c-0.741,4.988-1.401,9.996-2.158,14.988c-0.201,1.321-0.038,2.522,0.375,3.574c-0.483,3.188-0.912,6.387-1.296,9.592
	c-1.238,6.287-2.236,12.615-2.902,18.981c-0.634,0.941-0.993,2.101-1.047,3.572c-0.151,4.078,4.401,6.102,7.695,4.416
	c9.611-4.918,20.39-2.732,30.828-4.545c0.518-0.039,1.607-0.709,2.125-0.75c3.125-0.5,1.108-0.629,3.466-0.418
	c8.437,0.754,17.328-0.766,25.646-2.049c6.315-0.974,12.593-2.267,18.685-4.166c22.237,0.541,44.416,2.711,66.669,2.824
	c5.854,0.03,7.498-6.509,4.937-10.187c0.543-1.883,0.424-3.938-0.54-5.775c-2.924-7.618-5.567-15.297-7.97-23.062
	c1.301-5.902-1.315-13.348-2.557-18.764c-0.223-0.972-0.464-1.937-0.691-2.906c1.062-8.963,2.036-27.475-6.809-31.725
	c-0.382-2.396-0.777-4.791-1.204-7.185c-1.34-7.502-2.755-15.01-4.661-22.392c0.644-0.934,1.223-1.891,1.762-2.872
	c6.589,29.696,13.371,59.401,32.036,84.299c0.274,0.367,0.584,0.682,0.917,0.961c-0.796,2.893,1.025,6.049,4.78,6.402
	c6.499,0.608,13.118-1.29,15.784-5.737c2.223-0.877,3.738-2.784,5.827-3.905C422.951,425.393,423.968,422.781,423.327,420.625z"></path>

<g>
	<path fill="#1A1A1A" d="M423.163,406.209c-4.354-8.998-9.647-17.508-14.821-26.045c-6.675-11.016-12.323-22.676-18.068-34.195
		c-7.579-15.195-14.788-30.41-18.365-47.083c5.307-3.607,10.229-7.754,14.488-12.512c8.616-9.622,12.323-21.681,13.7-34.318
		c1.584-14.538-0.715-29.608-4.881-43.54c-3.786-12.662-9.725-26.516-19.356-35.847c-2.726-2.64-7.691,0.871-5.398,4.166
		c13.619,19.575,21.781,41.418,22.042,65.493c0.116,10.798-1.616,22.225-7.124,31.662c-5.175,8.865-13.824,15.376-22.499,20.53
		c-18.053,10.727-40.441,17.032-61.447,17.256c-20.624,0.221-41.908-2.006-61.425-8.931c-18.381-6.521-35.912-19.696-38.407-40.287
		c-1.278-10.546,0.13-21.12,1.06-31.621c0.625-7.068,2.922-15.557-0.481-22.065c-0.591-1.13-2.3-0.809-2.627,0.343
		c-2.232,7.844-3.524,16.325-4.705,24.51c-1.56,10.814-2.579,21.583-0.999,32.452c2.96,20.365,20.157,34.565,38.075,42.176
		c-6.567,22.816-13.621,46.576-25.089,67.484c-8.674,15.812-18.322,31.035-25.067,47.836c-5.168,12.873-9.756,29.578,2.661,39.662
		c8.357,6.789,17.976,5.875,25.903-1.01c5.7-4.947,9.731-11.91,13.024-18.959c-2.392,15.482-3.315,31.02-2.899,46.678
		c0.427,16.064,1.99,32.576,6.394,48.08c0.088,0.309,0.186,0.621,0.278,0.934c1.946-0.383,3.894-0.744,5.847-1.092
		c-0.515-2.232-0.962-4.475-1.241-6.73c-0.137-0.668-0.257-1.355-0.367-2.047c-0.128-0.67-0.249-1.346-0.354-2.025
		c-3.084-13.184-3.937-26.875-4.151-40.367c-0.245-15.398,1.384-30.393,3.051-45.684c0.769-7.051,1.672-14.066,2.654-21.068
		c2.686-8.141,4.942-16.432,7.002-24.729c3.243-13.061,5.641-26.098,7.072-39.477c0.92-8.596,2.421-17.584,1.795-26.248
		c-0.233-3.229-4.739-3.211-5,0c-0.851,10.479-2.698,20.814-4.953,31.072c-3.44,15.654-6.532,31.389-10.891,46.826
		c-3.961,14.027-8.635,28.33-16.361,40.789c-4.136,6.672-11.081,15.242-19.383,11.244c-9.81-4.725-9.703-14.648-7.208-23.992
		c3.624-13.572,10.888-26.197,17.817-38.305c6.196-10.826,12.52-21.279,17.458-32.762c7.374-17.148,14.464-35.773,15.913-54.537
		c18.371,7.039,38.378,9.604,57.929,10.332c20.947,0.779,41.149-3.383,60.372-11.703c4.333-1.875,8.605-4.021,12.712-6.454
		c4.708,26.616,17.62,52.239,30.732,75.567c8.06,14.34,18.437,27.264,24.331,42.795c2.127,5.604,4.82,14.037,0.649,19.414
		c-2.971,3.828-9.704,5.881-13.994,3.797c-4.979-2.42-8.774-7.521-11.845-11.947c-4.644-6.691-8.348-14.037-11.753-21.416
		c-6.929-15.02-12.276-30.824-16.742-46.734c-1.86-6.627-3.509-13.32-4.851-20.072c-0.531-2.67-0.986-5.354-1.355-8.051
		c-0.29-2.113-1.438-4.203-1.895-6.328c-0.356-1.662-3.039-1.691-3.375,0c-2.537,12.783,2.379,26.979,5.718,39.299
		c1.858,6.855,3.914,13.68,6.184,20.432c2.729,26.465,8.467,52.533,12.82,78.762c4.628,27.883,9.206,56.408,2.769,84.443
		c-1.034,4.504-5.738,21.914-12.935,12.596c-2.579-3.34-2.64-8.588-2.798-12.59c-0.199-5.041,0.126-10.102,0.363-15.133
		c0.976-20.656-8.709-43.875-24.867-56.836c-20.366-16.336-51.502-15.779-72.273-0.607c-11.505,8.402-17.736,19.145-19.38,33.361
		c-0.845,7.305-0.447,14.984-0.459,22.598c2.242-0.23,4.486-0.436,6.729-0.592c-0.076-2.055-0.188-4.109-0.323-6.158
		c-0.882-13.418-0.973-27.004,8.108-37.893c7.24-8.68,18.27-12.104,28.976-14.236c10.63-2.117,21.176-0.918,31.281,2.738
		c20.622,7.461,34.548,33.715,35.415,54.77c0.384,9.297-1.01,18.672,1.259,27.828c1.666,6.721,8.573,13.586,15.977,10.496
		c8.469-3.535,9.771-16.455,11.369-24.191c3.69-17.863,2.419-36.975,1.12-55.023c-1.938-26.941-8.469-53.164-13.624-79.623
		c0.935,2.117,1.896,4.223,2.887,6.312c5.307,11.189,12.634,26.344,24.966,31.203c5.557,2.189,11.771,0.566,16.828-2.223
		c5.909-3.26,8.457-9.617,8.388-16.096C431.141,423.492,427.124,414.395,423.163,406.209z"></path>
	<path fill="#1A1A1A" d="M259.09,542.25c-0.115-2.881-0.161-5.869-0.5-8.75c-1.932,0.396-4.771,1.654-6.706,1.951
		c0.531,4.338,0.581,8.049,0.831,11.924c0.034,0.531,0.054,1.225,0.056,2.006c0.435,2.518,0.191,5.445,0.009,7.703
		c-0.161,1.986-0.639,4.543-2.324,5.883c-0.469,0.479-1.115,0.82-1.802,0.982c-2.66,1.51-6.459-1.125-8.111-2.979
		c-3.825-4.291-4.924-11.176-6.068-16.531c-0.54-2.527-1.193-5.057-1.756-7.598c-1.612-0.342-4.28,0.416-5.899,0.92
		c1.993,8.107,3.265,16.42,7.205,23.895c3.387,6.426,12.128,11.682,18.86,6.672C260.585,562.598,259.422,550.533,259.09,542.25z"></path>
</g>

<path fill="#1A1A1A" d="M245.836,229.902c-0.366-0.132-0.688-0.143-0.972-0.079c-1.134-0.526-2.473-0.738-4.01-0.497
	c-6.248,0.981-6.635,9.387-3.823,13.585c3.304,4.932,10.342,4.159,13.177-0.811C252.824,237.513,250.755,231.683,245.836,229.902z
	 M246.987,239.15c-0.811,1.788-3.915,2.75-5.229,0.999c-1.085-1.447-1.391-4.399-0.112-5.844c0.801-0.905,1.741-1.263,2.77-1.175
	c0.135,0.104,0.282,0.199,0.456,0.272C247.034,234.305,247.939,237.05,246.987,239.15z"></path>
<path fill="#1A1A1A" d="M369.747,230.9c-0.402-0.296-0.889-0.385-1.368-0.325c-2.281-0.935-4.787-0.753-6.521,1.548
	c-1.957,2.598-2.312,6.095-0.939,9.032c1.612,3.453,6.325,4.048,9.178,1.841C373.87,240.078,373.452,233.619,369.747,230.9z
	 M367.578,240.272c-1.584,0.865-2.784-0.277-3.111-1.43c-0.386-1.359-0.113-2.869,0.586-4.028c0.231-0.385,0.455-0.578,1-0.712
	c0.064-0.016,0.227,0.021,0.428,0.088c0.219,0.365,0.522,0.695,0.893,0.966C369.224,236.517,369.938,238.983,367.578,240.272z"></path>

<path fill="#1A1A1A" d="M388.349,199.734c-4.211-0.59-8.13-1.161-11.837-3.396c-4.349-2.622-7.234-7.429-9.154-11.988
	c-0.891-2.117-3.973-2.524-4.715,0c-2.204,7.495-6.158,13.951-10.996,19.831c0.96-4.526,1.783-9.083,2.437-13.654
	c1.024-7.166,0.8-14.359,1.586-21.526c0.189-1.729-2.315-2.166-3.109-0.842c-3.377,5.631-6.222,11.12-10.716,16.006
	c-4.544,4.94-9.97,8.956-15.69,12.42c-12.83,7.768-27.62,12.27-42.136,15.668c-15.199,3.558-30.625,4.977-46.181,5.714
	c-12.954,0.613-25.913,0.9-38.836-0.466c-1.69-0.179-2.037,2.595-0.399,2.946c29.054,6.236,59.527,4.564,88.382-1.945
	c15.142-3.416,29.933-9.034,42.931-17.61c8.616-5.686,18.24-14.11,23.093-24.032c-0.186,4.911-1.352,9.855-2.416,14.596
	c-1.589,7.08-3.897,13.947-6,20.881c-0.731,2.413,2.442,4.191,4.176,2.431c6.907-7.015,12.948-14.698,16.682-23.719
	c4.967,7.706,13.451,13.745,22.9,11.218C389.517,201.954,389.688,199.922,388.349,199.734z"></path>
<path fill="#1A1A1A" d="M438.153,315.928c-34.021,6.512-21.896-45.863-17.976-63.772c2.794-12.766,6.412-25.164,6.771-38.323
	c0.524-19.167-3.714-40.861-15.756-56.247c-3.729-4.765-8.522-8.861-14.06-11.095c2.006-0.866,3.969-1.835,5.884-3.125
	c4.186-2.819,7.589-6.799,10.35-10.982c1.686-2.554-1.48-4.721-3.751-3.751c-11.142,4.763-23.355,1.034-34.104-3.148
	c-14.729-5.729-28.511-13.823-42.437-21.218c-12.444-6.608-38.674-22.675-54.376-15.137c1.314-4.039,2.715-8.051,3.469-12.256
	c0.536-2.992-2.118-4.901-4.828-3.711c-13.919,6.113-22.993,16.651-25.926,30.931c-4.536-4.829-12.02-5.001-19.136-4.229
	c-10.247,1.112-19.789,5.237-29.903,6.875c-1.517,0.246-2.109,2.247-1.401,3.445c3.054,5.169,7.489,8.836,12.515,11.718
	c-9.187,2.192-17.377,6.731-23.414,14.56c-7.706,9.993-11.036,22.471-12.892,34.757c-2.041,13.516-1.65,27.249-4.066,40.732
	c-2.588,14.449-10.933,25.052-22.417,33.829c-2.104,1.608-1.326,4.466,1.298,4.792c5.891,0.733,11.702,0.318,17.274-1.358
	c-2.574,12.883-1.625,25.549,2.49,38.259c4.241,13.102,11.007,25.254,15.196,38.372c3.32,10.398,4.668,21.472,2.782,32.269
	c-2.077,11.887-9.716,19.679-21.472,22.235c-2.783,0.604-2.467,4.531,0,5.303c4.802,1.503,9.996,2.546,15.037,2.063
	c-1.932,4.215-3.607,8.621-3.993,13.16c-0.544,6.401,2.4,12.082,5.96,17.135c1.485,2.106,4.985,0.034,3.454-2.02
	c-2.986-4.003-6.238-8.712-6.555-13.836c-0.403-6.517,3.571-11.75,7.693-16.289c1.809-1.992,0.038-4.969-2.566-4.408
	c-2.661,0.573-5.194,0.772-7.699,0.684c6.302-3.361,11.312-8.616,14.306-15.6c4.399-10.262,3.759-21.877,1.693-32.615
	c-2.536-13.184-8.895-25.326-14.154-37.56c-7.126-16.577-10.466-32.857-5.865-50.655c0.625-2.418-1.858-3.993-3.931-3.021
	c-4.106,1.925-8.467,2.824-12.902,2.996c7.632-6.875,13.713-14.886,17.574-24.675c4.707-11.936,4.802-25.388,5.708-38.011
	c0.876-12.223,2.62-24.907,7.944-36.069c5.984-12.545,17.261-20.12,31.026-21.556c2.054-0.214,3.609-3.368,1.199-4.426
	c-5.902-2.59-11.256-5.656-15.28-10.546c12.679-3.815,38.008-15.463,42.61,0.278c0.47,1.606,1.995,2.036,3.254,1.668
	c1.079,0.05,2.215-0.493,2.568-1.702c1.925-6.607,3.958-13.123,7.957-18.801c2.813-3.995,6.688-7.092,10.886-9.613
	c-1.565,5.543-3.542,10.97-4.268,16.766c-0.384,3.067,4.403,4.157,5.729,1.552c4.89-9.616,15.548-7.701,24.22-4.928
	c13.737,4.392,26.471,12.05,39.066,18.924c13.191,7.199,26.489,14.571,40.744,19.474c7.469,2.568,16.612,4.732,24.645,2.938
	c-3.732,4.133-9.159,7.165-14.329,7.804c-2.113,0.261-3.171,2.904-1.129,4.167c8.254,5.101,14.99,10.592,20.133,18.994
	c5.322,8.697,8.13,18.816,9.706,28.813c2.382,15.102,0.253,29.358-3.166,44.007c-3.39,14.521-6.538,29.229-7.317,44.159
	c-0.627,12.009,0.247,26.854,10.773,34.629c1.867,1.379,3.95,2.282,6.142,2.83c-4.823,1.389-9.849,2.355-14.375,4.526
	c-2.038,0.978-1.262,3.858,0.584,4.467c14.096,4.653,10.628,20.222,8.5,31.389c-2.271,11.919-8.212,24.956-6.851,37.255
	c0.14,1.26,1.94,1.313,2,0c0.882-19.415,28.591-58.13,4.539-70.811c2.76-0.541,5.547-0.838,8.448-1.426
	c5.062-1.024,9.287-3.257,13.266-6.511C443.951,319.045,440.965,315.39,438.153,315.928z"></path>
<path fill="#1A1A1A" d="M220.276,496.276c-3.992,3.256-7.298,7.764-12.158,8.89c2.557-5.152,3.015-10.646,1.8-16.694
	c-1.707-8.501-5.477-16.093-2.809-24.891c0.708-2.336-2.962-3.969-3.998-1.686c-3.091,6.815-2.856,13.119-0.971,20.228
	c2.279,8.591,4.889,16.067-1.156,23.861c-1.181,1.523-1.085,4.312,1.258,4.765c9.066,1.753,17.425-3.716,21.862-11.519
	C225.55,496.688,222.344,494.59,220.276,496.276z"></path>
<path fill="#1A1A1A" d="M420.776,466.224c-5.519-6.089-13.042-11.306-13.464-20.224c-0.141-2.965-4.724-2.99-4.625,0
	c0.289,8.754,5.698,14.227,11.166,20.061c-5.099,0.018-9.922-1.792-14.35-4.633c-2.489-1.597-5.697,1.582-4.076,4.076
	c3.634,5.589,2.016,10.002-1.842,14.896c-2.464,3.126-6.27,6.23-5.898,10.6c0.12,1.409,1.399,2.745,2.928,2.229
	c5.118-1.727,8.748-8.401,11.133-12.925c1.813-3.438,2.385-6.983,1.836-10.426c5.155,1.692,10.64,2.006,16.084,0.544
	C421.564,469.913,422.021,467.597,420.776,466.224z"></path>

<path fill="#1A1A1A" d="M256.84,496.562c-10.521,0.652-20.943,1.164-31.38,2.744c-4.239,0.641-2.392,6.951,1.761,6.389
	c9.842-1.336,19.767-1.961,29.62-3.258C260.477,501.959,260.708,496.324,256.84,496.562z"></path>
<path fill="#1A1A1A" d="M387.009,496.486c-9.776,2.291-20.21,0.604-30.169,1.326c-3.479,0.252-3.443,5.072,0,5.375
	c10.78,0.951,21.175,1.879,31.831-0.674C392.592,501.574,390.928,495.568,387.009,496.486z"></path>

<path fill="#1A1A1A" d="M336.822,288.812c-2.555-3.183-7.583-3.173-11.734-3.681c-5.672-0.694-11.432-0.998-17.158-0.848
	c-10.635,0.281-21.51,1.893-31.554,4.922c-4.365,1.317-2.568,7.252,1.928,6.028c9.609-2.615,19.574-3.691,29.625-3.869
	c4.866-0.085,9.7-0.043,14.555,0.302c4.257,0.303,9.353,2.279,13.308,0.537C337.111,291.623,337.679,289.879,336.822,288.812z"></path>

<path fill="#1A1A1A" d="M209.739,449.555c-4.671-1.42-9.197-2.52-13.455-5.025c-4.177-2.457-7.706-5.977-10.867-9.605
	c-2.488-2.855-6.666,1.328-4.154,4.154c6.542,7.359,18.219,17.752,28.834,13.217C211.37,451.752,210.855,449.893,209.739,449.555z"></path>
<path fill="#1A1A1A" d="M424.958,422.615c-4.14,0.602-7.622,5.176-11.158,7.398c-4.292,2.695-9.148,4.629-13.958,6.18
	c-2.344,0.754-1.354,3.998,0.996,3.615c5.575-0.906,10.468-2.908,15.356-5.699c3.576-2.043,9.769-5.381,10.531-9.727
	C426.929,423.227,426.086,422.449,424.958,422.615z"></path>
<path fill="#1A1A1A" d="M318.786,317.602c-0.238-1.086-1.764-1.471-2.507-0.662c-2.743,2.988-3.512,7.664-5.121,11.359
	c-1.268,2.912-2.584,5.791-3.797,8.721c-6.741-6.34-11.096-14.828-17.607-21.434c-1.816-1.843-4.589,0.951-2.828,2.828
	c6.613,7.049,10.827,16.071,17.905,22.676c-0.099,0.273-0.169,0.57-0.179,0.91c-0.123,4.314-0.246,8.629-0.368,12.943
	c-0.112,3.943,6.225,3.943,6.112,0c-0.117-4.123-0.235-8.246-0.353-12.369c0.238-0.257,0.448-0.562,0.599-0.939
	c1.767-4.404,3.708-8.736,5.546-13.111C317.646,325.051,319.618,321.387,318.786,317.602z"></path>
<path fill="#1A1A1A" d="M383.34,465.125c-27.6-0.998-55.169-0.076-82.732,1.443c-13.216,0.729-26.644,1.488-39.752,3.338
	c-12.703,1.793-27.857,3.424-38.799,10.609c-0.472,0.309-0.285,1.021,0.284,1.047c12.646,0.574,25.742-3.863,38.178-5.848
	c14.006-2.236,27.766-4.193,41.947-4.93c26.947-1.398,53.944,1.117,80.875,2.09C388.34,473.057,388.322,465.305,383.34,465.125z"></path>
</svg>