<!DOCTYPE svg PUBLIC "-//W3C//DTD SVG 1.1//EN" "http://www.w3.org/Graphics/SVG/1.1/DTD/svg11.dtd"><svg version="1.1" id="Layer_1" xmlns="http://www.w3.org/2000/svg" xmlns:xlink="http://www.w3.org/1999/xlink" x="0px" y="0px" width="600px" height="600px" viewBox="0 0 600 600" enable-background="new 0 0 600 600" xml:space="preserve">
<path fill="#E6E6E6" d="M423.801,420.873c-3.123-7.451-7.406-14.242-11.883-20.92c-0.45-5.402-4.109-10.451-6.722-15.02
	c-3.103-5.428-6.061-10.932-9.16-16.355c-2.008-3.512-4.122-7.002-6.369-10.406c-0.726-1.404-1.466-2.801-2.231-4.188
	c-0.639-1.156-1.3-2.305-1.977-3.447c-1.476-7.727-4.284-15.164-7.242-22.449c-3.982-9.816-7.964-19.648-12.066-29.413
	c-0.281-0.67-0.655-1.23-1.091-1.694c8.987-5.386,17.46-11.864,24.782-19.078c1.072-1.056,2.045-2.162,2.967-3.292
	c0.111-0.267,0.226-0.531,0.325-0.807c1.227-3.325,2.337-6.708,3.101-10.173c1.571-7.154,2.25-14.434,2.172-21.758
	c-0.084-7.896-0.628-15.782-1.226-23.665c-1.823-4.474-4.151-8.715-7.062-12.489c-0.062-0.276-0.123-0.554-0.186-0.827
	c-1.564-7.039-4.754-13.344-9.145-19.003c-0.056-0.071-0.117-0.137-0.172-0.208c-2.382-8.318-10.63-14.582-16.632-20.457
	c-7.003-6.855-13.012-12.084-22.597-14.933c-4.52-1.344-9.216-2.105-13.947-2.625c-6.475-2.355-13.062-4.392-19.86-5.283
	c-6.486-2.721-13.351-4.15-20.609-2.809c-5.467,1.01-9.317,4.636-13.401,7.917c-0.292,0.096-0.584,0.192-0.875,0.289
	c-17.29,3.257-32.859,9.624-46.644,21.301c-6.962,5.897-12.92,13.156-17.393,21.1c-3.657,6.496-5.297,12.704-4.642,19.477
	c-1.574,4.415-2.755,9.008-3.465,13.748c-0.814,5.435-1.266,10.739-0.802,16.22c0.108,1.279,0.242,2.556,0.386,3.832
	c-1.83,1.036-3.233,2.718-3.632,5.045c-0.43,2.508-0.475,5.374,0.213,7.876c0.152,0.553,0.367,1.036,0.607,1.492
	c1.43,9.652,4.692,18.406,11.236,26.507c7.347,9.096,18.076,14.842,28.69,19.21c0.029,0.012,0.059,0.021,0.088,0.034
	c-1.368,0.86-2.382,2.319-2.494,4.378c-1.26,23.15-11.254,45.09-21.069,65.748c-3.721,7.83-7.92,15.43-11.858,23.164
	c-4.726,5.562-9.113,12.045-11.521,18.898c-0.37,1.057-0.744,2.119-1.105,3.189c-1.89,2.854-3.418,5.809-4.408,8.906
	c-4.625,10.516-7.223,23.104,0.622,31.096c5.346,5.445,14.127,4.84,20.079,0.922c6.616-4.354,10.705-11.771,14.03-18.732
	c3.462-7.25,6.529-14.717,9.364-22.326c-0.266,4.227-0.333,8.461-0.304,12.701c-0.825,0.812-1.383,1.956-1.44,3.434
	c-0.021,0.555-0.054,1.106-0.089,1.66c-1.322,1.071-2.226,2.727-2.209,4.34c0.041,3.852,0.214,7.693,1.275,11.414
	c0.036,0.125,0.092,0.229,0.134,0.346c-1.11,8.152-1.98,16.33-2.131,24.566c-0.069,3.785-0.267,10.729,1.221,16.338
	c-0.004,2.68,0.061,5.361,0.214,8.039c-2.464,23.736,0.102,50.547,17.639,66.23c4.001,2.695,11.005,0.191,11.8-4.799
	c1.661-10.43,1.964-20.826,1.845-31.367c-0.104-9.206-0.607-18.639,0.803-27.771c1.703-11.031,9.644-18.137,17.381-25.342
	c4.017-1.4,8.021-2.859,12.045-4.232c8.378-1.752,16.831-2.855,25.435-2.727c8.824,0.133,17.578,1.938,25.438,5.922
	c2.105,3.946,4.421,7.826,7.822,11.338c4.146,4.283,8.866,7.029,12.71,10.969c2.49,6.656,3.105,13.746,3.396,20.898
	c0.011,0.025,0.021,0.051,0.031,0.076c2.307,6.102,2.979,12.654,3.536,19.111c0.618,7.158,0.756,14.504,2.789,21.449
	c0.697,2.391,1.55,4.764,2.753,6.949c4.089,2.664,10.11,0.869,11.726-4.354c5.771-18.686,7.737-37.979,7.438-57.504
	c-0.301-19.527-4.116-38.236-7.354-57.389c-2.857-16.92-4.251-34.367-7.313-51.297c1.521,3.188,3.157,6.314,4.947,9.377
	c2.388,4.08,4.561,9.1,7.975,12.58l0.041,0.062c0.067,0.867,0.29,1.764,0.712,2.676c0.535,1.156,1.127,2.27,1.745,3.361
	c1.65,3.66,4.318,7.914,7.593,11.631c0.331,0.527,0.67,1.156,0.698,1.443c0.433,4.371,4.512,6.305,7.824,5.709
	c4.146,2.297,8.594,3.025,12.854,0.865c1.464-0.549,2.82-1.479,3.841-2.801C428.681,436.451,426.613,427.584,423.801,420.873z
	 M360.48,346.246c-0.004-0.553,0.016-1.105,0.002-1.658c0.062,0.049,0.134,0.082,0.196,0.127c0.034,0.525,0.095,1.059,0.163,1.596
	C360.725,346.285,360.601,346.27,360.48,346.246z M367.413,367.807c-0.74-1.881-1.55-3.738-2.396-5.586
	c0.257,0.266,0.506,0.533,0.747,0.807c0.543,1.488,1.104,2.973,1.688,4.441C367.436,367.582,367.428,367.695,367.413,367.807z"></path>

<path fill="#3d2929" d="M426.322,210.317c-1.777-0.546-3.607-0.834-5.462-0.992c-0.25-0.241-0.508-0.471-0.781-0.665
	c-2.279-1.609-3.961-2.79-5.84-4.834c-1.214-1.32-2.529-2.557-3.867-3.775c-0.782-3.301-3.555-5.759-5.347-8.646
	c-2.396-3.861-3.911-8.265-5.411-12.529c-1.605-4.565-3.153-9.151-4.786-13.706c2.501,1.991,5.292,3.241,9.479,2.506
	c4.697-0.824,4.896-7.474,1.262-9.646c-4.624-2.763-7.194-7.548-11.675-10.785c-2.473-1.787-5.19-3.147-7.966-4.413
	c2.343-1.054,4.609-2.481,6.798-4.447c4.783-4.297-1.264-10.561-6.305-8.143c-0.022-0.039-0.046-0.078-0.068-0.117
	c-0.229,0.173-0.47,0.321-0.706,0.476c-4.427-1.457-10.191-0.05-15.01,1.084c-2.782-1.421-6.053-2.113-8.945-3.149
	c-5.099-1.826-9.715-4.566-13.894-7.995c-8.093-6.638-17.043-11.421-26.747-15.239c-10.896-4.287-22.433-6.879-34.156-7.104
	c-12.564-0.241-23.972,4.518-35.632,8.56c-0.056,0.02-0.1,0.048-0.154,0.068c1.518-2.331,2.622-4.906,3.676-7.547
	c0.516-1.073,0.954-2.175,1.304-3.281c0.983-3.113-3.748-4.327-4.829-1.331c-1.238,3.455-3.811,5.706-5.982,8.359
	c-1.19,1.12-2.449,2.151-3.702,3.143c-3.679-0.959-7.47,1.323-10.771,2.795c-4.193,1.869-7.688,4.845-10.83,8.155
	c-7.003,3.43-14.05,6.905-20.058,11.929c-4.752,3.974-10.028,9.062-10.948,15.325c-4.07,5.116-7.295,10.952-8.473,17.428
	c-0.826,4.541-0.494,8.753,0.709,12.741c-2.835-0.959-5.249,0.983-5.778,3.344c-4.235,3.625,2.532,9.212,8.371,12.435
	c-0.171,0.414-0.357,0.827-0.521,1.242c-0.577,1.458-1.009,3.083-1.243,4.758c-0.607,1.095-1.126,2.237-1.598,3.276
	c-0.532,1.173-1.104,2.368-1.288,3.647c-0.061,0.425-1.128,0.171-1.15,0.588c-0.805,0.341-1.002,0.78-2,0.833
	c-3.68,0.196-3.379,6.32,0.344,6.208c3.174-0.096,5.999-1.28,8.331-3.139c0.202,0.26,0.409,0.513,0.624,0.754
	c-2.317,9.693-4.549,19.232-8.942,28.399c-0.833,1.737-0.895,3.383-0.455,4.79c-1.704,2.716-3.519,5.373-5.328,8.032
	c-0.259,0.133-0.519,0.265-0.789,0.385c-4.413,1.959-0.594,8.42,3.785,6.476c0.349-0.155,0.69-0.324,1.028-0.497
	c0.377,0.231,0.817,0.403,1.343,0.476c2.224,0.309,4.309,0.406,6.408,0.351c0.034,0.107,0.069,0.211,0.107,0.317
	c-0.205,1.916-0.562,3.808-1.009,5.684c-0.197,0.584-0.369,1.169-0.52,1.755c-6.291,0.96-9.762,18.267-4.911,22.46
	c0.075,0.064,0.152,0.119,0.229,0.18c0.09,2.285,0.466,4.603,1.26,6.97c2.077,6.194,6.924,10.976,11.799,15.083
	c3.854,3.246,9.327,6.687,11.174,11.603c1.191,3.882,4.838,4.909,7.795,3.94c3.104,4.154,7.318,7.059,14.071,7.342
	c2.037,0.084,4.477-1.217,5.382-3.088c3.365-6.953,5.714-14.01,5.714-21.812c0-3.038-2-5.207-4.72-6.199
	c-17.517-6.395-32.797-19.192-33.104-39.134c-0.019-1.221-0.361-2.309-0.921-3.233c0.724-1.134,1.156-2.485,1.3-3.937
	c0.632-6.368,0.612-12.855,0.992-19.275c0.431,0.088,0.914,0.066,1.45-0.132c1.718-0.633,3.38-1.348,5.013-2.11
	c1.136,0.48,2.482,0.559,3.87-0.03c6.765-2.872,14.681-2.899,21.875-3.452c8.367-0.642,16.796-0.607,25.18-0.906
	c16.884-0.602,33.747-2.583,49.67-8.506c13.999-5.207,24.789-13.804,34.59-24.868c0.792-0.894,1.664-1.892,2.571-2.96
	c-0.886,3.391-1.849,7.919-1,10.847c-2.187,4.104-4.406,8.188-6.765,12.198c-1.931,3.283,2.609,6.845,5.278,4.073
	c6.503-6.756,12.134-14.618,16.589-22.852c0.595-1.099,1.275-2.348,1.974-3.697c1.561,3.155,3.688,5.93,6.361,8.5
	c5.099,4.899,20.382,18.652,27.543,10.744c1.059-1.168,1.664-2.985,1.416-4.615c0.869,0.957,1.767,1.827,2.679,2.576
	c0.216,0.957,0.347,1.928,0.481,2.774c0.707,4.415,1.363,8.879,1.899,13.327c0.854,7.071,0.347,15.545,2.251,22.785
	c-0.345,1.738-0.567,3.494-0.739,5.262c-0.944,0.51-1.701,1.444-2.019,2.908c-1.488,6.902-3.749,13.565-7.598,19.514
	c-3.96,6.121-8.99,11.511-13.158,17.49c-2.225-1.454-5.548-1.012-7.034,1.526c-0.717,1.222-0.842,2.747-0.384,4.079l-0.029-0.072
	c0.348,0.845,0.613,1.724,0.941,2.578c0.299,0.778,0.602,1.565,0.991,2.305c0.361,0.681,0.945,1.38,1.63,1.914
	c0.078,2.373,0.604,4.74,1.614,6.987c2.509,5.572,10.277,11.393,16.213,11.861c3.713,0.293,6.187-4.422,4.264-7.43
	c-0.444-0.695-0.997-1.312-1.604-1.884c0.034-0.104,0.073-0.203,0.103-0.312c1.057-3.951-0.906-7.533-0.688-11.58
	c0.21-3.92,1.276-7.772,1.529-11.706c5.225-6.108,9.306-12.633,11.3-19.882c0.899-0.253,1.753-0.695,2.439-1.309
	c0.037,0.011,0.075,0.028,0.112,0.038c0.339,0.416,0.74,0.78,1.178,1.101c-0.115,0.304-0.229,0.608-0.348,0.912
	c-0.92,2.39,1.403,4.899,3.731,4.899c2.551,0,4.315-2.438,3.74-4.859c1.673-0.663,3.104-2.018,3.805-4.203
	c5.682-17.711,2.751-38.758-8.586-53.571c-0.37-0.897-0.768-1.806-1.217-2.722c1.071,0.263,2.146,0.509,3.22,0.768
	c0.458,0.149,0.927,0.268,1.402,0.363c0.445,0.116,0.892,0.224,1.334,0.352c1.141,0.332,2.121,0.351,3.055,0.252
	c2.201,0.27,4.438,0.463,6.565,0.271C428.357,214.862,429.062,211.159,426.322,210.317z M197.412,229.378
	c0.019-0.298,0.038-0.596,0.056-0.895c0.173,0.168,0.353,0.331,0.56,0.467C197.823,229.093,197.616,229.235,197.412,229.378z
	 M202.153,224.348c-0.676-1.099-2.237-1.73-3.315-0.516c-0.324,0.365-0.773,0.66-1.189,0.976c0.045-1.27,0.063-2.539,0.065-3.808
	c1.582,1.292,3.561,2.227,5.744,2.886C203.025,224.047,202.59,224.2,202.153,224.348z"></path>

<path fill="#7a0a26" d="M287.539,470.449c-4.374-2.693-10.197,0.828-15.034,0.875c-5.924,0.057-12.027,1.521-17.88,2.598
	c-0.412,0.021-0.833,0.072-1.267,0.203c-5.154,1.225-10.521,3.777-15.271,4.029c-1.806,0.096-3.191,0.899-4.125,2.026
	c-1.596,0.004-3.148,0.011-4.622,0.066c-3.163,0.119-5.714,2.527-5.753,5.752c-0.148,12.307,4.203,24.109,4.259,36.357
	c-0.151,0.497-0.234,1.043-0.216,1.643c0.025,0.834,0.05,1.668,0.075,2.5c0.149,5.006,5.864,6.229,8.704,3.656
	c2.69-0.006,5.265-0.929,8.015-2.215c1.64-0.076,3.279-0.154,4.918-0.228c2.572-0.113,4.707-2.059,4.714-4.715
	c0.006-2.152-0.28-5.027-0.481-8.1c0.785-0.81,1.302-1.939,1.33-3.4c0.029-1.523-0.006-2.992-0.012-4.416
	c0.251-3.426,1.15-6.617,2.682-9.949c0.548-0.641,0.834-1.328,0.902-2.018c0.129-0.144,0.246-0.285,0.385-0.426
	c3.856-3.91,8.261-6.72,11.084-11.584c0.446-0.771,0.628-1.517,0.62-2.209c0.059-0.062,0.13-0.117,0.184-0.181
	c0.993-0.196,1.977-0.422,2.932-0.721c4.592-1.432,12.541-1.301,14.712-6.299C288.916,472.49,288.739,471.189,287.539,470.449z"></path>
<path fill="#7a0a26" d="M390.257,517.369c-1.928-8.935-3.561-17.555-4.018-26.697c-0.182-3.625-0.306-7.266-1.61-10.496
	c-0.025-1.385-0.084-2.772-0.216-4.176c-0.181-1.93-1.135-3.277-2.99-3.928c-4.057-1.422-8.279-1.457-12.511-1.248
	c-2.054-0.32-4.062-0.57-5.857-0.892c-5.481-0.979-14.785-3.102-19.882,0.482c-0.101-0.061-0.192-0.125-0.295-0.184
	c-3.152-1.826-7.156-2.88-10.782-2.834c-1.312,0.016-7.803,1.117-8.971,1.728c-1.663,0.869-0.744,1.695-2.25,2.625
	c-0.851,0.524,3.229,1.833,4.198,1.593c1.123-0.276,2.604,0.834,3.699,1.133c1.559,0.429,3.087,0.878,4.624,1.39
	c3.315,1.102,6.442,3.896,8.962,6.213c5.066,4.66,10.095,12.041,12.521,18.438c2.698,7.117,4.131,16.824,10.851,21.478
	c5.15,3.565,10.596-0.262,15.516,2.305C386.136,526.852,391.409,522.709,390.257,517.369z"></path>

<path fill="#430ef0" d="M382.632,457.322c-0.164-0.25-0.313-0.502-0.469-0.752c1.394-1.848,1.932-4.223,0.854-6.824
	c-0.919-2.221-1.898-4.43-2.894-6.637c-0.085-6.662-1.612-14.125-4.146-20.684c-0.168-0.643-0.326-1.287-0.522-1.924
	c-0.216-0.701-0.572-1.234-1-1.648c-0.443-0.941-0.91-1.854-1.396-2.73c-0.009-0.084-0.021-0.168-0.026-0.252
	c-0.188-1.908-0.424-3.816-0.676-5.723c0.022-4.271-0.899-9.076-1.878-13.08c-1.51-10.771-4.306-21.627-7.834-31.941
	c-0.007-0.162-0.016-0.322-0.021-0.484c-0.11-2.99-0.057-6.037,0.024-9.104c1.312-0.105,2.607-0.719,3.696-2.029
	c2.969-3.574,9.188-5.455,13.116-8.02c3.418-2.229,3.299-7.424-0.323-9.152c0.239-3.994-1.795-8.771-2.769-12.304
	c-1.119-4.062-2.996-8.304-5.523-11.847c-0.478-3.338-1.163-6.625-2.622-9.459c-1.522-2.958-4.769-2.733-6.729-0.979
	c-3.157-0.936-5.496-0.249-9.371,3.251c-0.093,0.308-0.125-0.625-1.5,1.25c-2.75,2-6.454,3.129-7.875,4.375
	c-5.375,2.125-6.232,1.653-11.792,3.979c-0.356,0.147-8.891,0.838-9.208,1.021c-6.522-1.062-4.305-0.062-7.124,6.999
	c-1.737,4.352-3.443,10.043-4.875,14.5c-0.668,2.08-1.372,2.769-2.25,4.625c-0.052,0.072-0.2,2.299-0.25,2.375
	c-2.021,3.104-3.337,4.751-4.629,8.468c-1.176,0.004-2.438,0.39-3.597,0.423c-0.12,0.004-0.241,0-0.361,0.002
	c-3.539-8.141-7.337-16.72-12.306-24.199c-1.9-4.049-3.987-8.086-7.146-11.186c-0.952-0.934-1.985-1.279-2.954-1.23
	c-1.699-0.729-3.564-1.146-5.416-1.562c-6.125-1.379-12.588-1.376-18.768-2.531c-1.669-0.574-3.422-0.968-5.29-1.354
	c-0.424-0.146-0.832-0.244-1.23-0.318c-1.502-2.104-3.479-3.834-6.12-4.913c-2.628-1.074-5.321,0.764-6.777,2.758
	c-2.897,3.969-2.465,8.274-1.534,12.61c-1.426,6.25-2.699,12.541-4.019,18.813c-0.652,0.752-1.059,1.779-1.022,3.104
	c-0.135,1.076-0.246,2.141-0.32,3.213c-1.348,1.355-2.045,3.482-1.049,5.408c1.623,3.139,5.153,5.229,9.055,6.729
	c2.236,2.75,6.031,4.023,9.249,3.277c-0.028,0.24-0.056,0.48-0.085,0.719c-1.596,8.604-3.799,17.104-4.156,25.898
	c-1.291,4.893-2.709,9.742-3.599,14.699c-1.566,8.719-3.367,17.395-4.897,26.119c-1.636,9.324-2.3,18.803-3.633,28.164
	c-1.612,2.307-2.036,5.408-1.37,8.113c-0.547,2.729-1.193,5.439-1.982,8.129c-1.797,6.131,7.927,10.514,10.509,4.432
	c0.147-0.35,0.275-0.699,0.416-1.047c4.439-1.193,9.32-0.826,13.786-2.312c0.808-0.268,1.502-0.676,2.085-1.18
	c14.479-1.438,28.886-3.402,43.399-4.727c1.829-0.166,3.656-0.324,5.482-0.486c8.479-0.037,17.03-1.197,25.701-1.379
	c8.201-0.176,16.354,1.209,24.54,1.49c9.041,0.312,18.083-0.012,27.125,0.021C381.661,468.307,385.694,462.01,382.632,457.322z"></path>

<path fill="rgba(26,26,26,0.5)"  d="M380.666,439c-1.588-12.568-3.653-25.121-6.02-37.568
	c-2.431-12.787-5.257-26.231-11.288-37.865c-0.544-1.049-1.229-1.791-1.989-2.274c-0.492-3.226-0.991-6.449-1.487-9.674
	c-1.99-12.95-1.543-26.207-4.479-39.013c-0.689-3.006-3.735-4.106-6.457-3.666c-6.27,1.017-17.9,1.61-19.73,9.604
	c-0.938,4.094-0.316,8.704-0.432,12.87c-0.068,2.524,0.461,5.144,0.518,7.685c0.041,1.81-0.063,3.613-0.167,5.42
	c-2.774,2.174-5.791,3.86-8.859,5.592c-2.412,1.359-3.21,4.598-1.825,6.961c0.146,0.248,0.313,0.457,0.482,0.666
	c0.628,1.281,1.828,2.246,3.598,2.334c-0.748,0.992-1.163,2.254-0.929,3.602c0.265,1.51,0.488,2.992,0.616,4.475
	c-0.024,0.556-0.05,1.109-0.072,1.664c-0.323,0.621-0.521,1.345-0.503,2.191c0.263,11.611,1.669,22.857,3.132,34.375
	c0.744,5.875,1.3,11.752,1.334,17.676c0.031,5.4-0.828,10.57-1.17,15.869c-0.904,2.75,0.154,6.353,3.475,7.267
	c0.155,0.043,0.311,0.086,0.465,0.129c1.774,0.487,3.523,0.03,4.867-1.041c12.15-4.097,24.747-2.498,37.284-4.164
	c0.186,0.217,0.353,0.448,0.548,0.655C374.448,446.055,381.249,443.619,380.666,439z"></path>
<path fill="rgba(26,26,26,0.5)"  d="M282.775,356.775c0.743-4.58-1.814-7.965-6.436-8.449
	c-4.867-0.51-5.414-1.637-6.27-6.393c-0.788-4.388-0.643-8.996-0.778-13.435c-0.04-1.291-0.452-2.415-1.103-3.347
	c1.08-0.866,1.802-2.112,1.65-3.653c-0.091-0.931-0.209-1.856-0.359-2.778c-0.334-2.052-2.679-3.574-4.641-3.533
	c-1.6,0.033-4.018-1.701-5.633-2.197c-2.306-0.707-4.852-0.338-6.863,0.896c-2.12-0.507-4.457,0.424-5.085,2.891
	c-0.007,0.031-0.015,0.062-0.023,0.093c-0.352,1.383-0.023,2.685,0.779,3.713c-0.271,1.158-0.471,2.368-0.72,3.608
	c-4.813,8.037-3.797,18.752-2.371,27.716c0.097,0.61,0.266,1.155,0.481,1.651c-0.474,3-0.982,5.992-1.45,8.972
	c-0.906,5.774-1.658,11.577-2.042,17.413c-4.051,4.812-6.446,10.343-8.295,16.65c-1.051,3.584-1.776,7.156-2.367,10.84
	c-0.725,4.517-2.341,9.128-0.884,13.628c0.142,0.438,0.325,0.846,0.525,1.237c-0.512,2.597-0.999,5.199-1.509,7.799
	c-1.662,8.472-4.405,16.431-3.761,24.994c-0.396,0.938-0.735,1.886-0.502,1.525c-1.874,2.881,1.191,6.188,4.212,5.479
	c5.596-1.311,11.009-3.258,16.455-5.084c0.465,0.201,0.979,0.354,1.554,0.425c4.296,0.534,8.472,0.35,12.777-0.048
	c4.132-0.381,8.98-0.7,12.499-3.141c0.28-0.195,0.527-0.404,0.758-0.619c1.761,0.74,3.829,0.588,5.223-0.873
	c2.586-2.711,1.643-5.194,0.646-8.481c-0.287-0.945-0.581-1.89-0.876-2.832c0.038-0.088,0.086-0.16,0.121-0.248
	c2.65-6.621,1.521-15.185,0.419-22.051c-1.142-7.117-2.929-14.14-4.529-21.164c0.298-1.474,0.603-2.941,0.905-4.408
	C277.81,381.318,280.771,369.129,282.775,356.775z"></path>

<g>
	<path fill="#1A1A1A" d="M423.163,406.209c-4.354-8.998-9.647-17.508-14.821-26.045c-6.675-11.016-12.323-22.676-18.068-34.195
		c-7.579-15.195-14.788-30.41-18.365-47.083c5.307-3.607,10.229-7.754,14.488-12.512c8.616-9.622,12.323-21.681,13.7-34.318
		c1.584-14.538-0.715-29.608-4.881-43.54c-3.786-12.662-9.725-26.516-19.356-35.847c-2.726-2.64-7.691,0.871-5.398,4.166
		c13.619,19.575,21.781,41.418,22.042,65.493c0.116,10.798-1.616,22.225-7.124,31.662c-5.175,8.865-13.824,15.376-22.499,20.53
		c-18.053,10.727-40.441,17.032-61.447,17.256c-20.624,0.221-41.908-2.006-61.425-8.931c-18.381-6.521-35.912-19.696-38.407-40.287
		c-1.278-10.546,0.13-21.12,1.06-31.621c0.625-7.068,2.922-15.557-0.481-22.065c-0.591-1.13-2.3-0.809-2.627,0.343
		c-2.232,7.844-3.524,16.325-4.705,24.51c-1.56,10.814-2.579,21.583-0.999,32.452c2.96,20.365,20.157,34.565,38.075,42.176
		c-6.567,22.816-13.621,46.576-25.089,67.484c-8.674,15.812-18.322,31.035-25.067,47.836c-5.168,12.873-9.756,29.578,2.661,39.662
		c8.357,6.789,17.976,5.875,25.903-1.01c5.7-4.947,9.731-11.91,13.024-18.959c-2.392,15.482-3.315,31.02-2.899,46.678
		c0.427,16.064,1.99,32.576,6.394,48.08c0.088,0.309,0.186,0.621,0.278,0.934c1.946-0.383,3.894-0.744,5.847-1.092
		c-0.515-2.232-0.962-4.475-1.241-6.73c-0.137-0.668-0.257-1.355-0.367-2.047c-0.128-0.67-0.249-1.346-0.354-2.025
		c-3.084-13.184-3.937-26.875-4.151-40.367c-0.245-15.398,1.384-30.393,3.051-45.684c0.769-7.051,1.672-14.066,2.654-21.068
		c2.686-8.141,4.942-16.432,7.002-24.729c3.243-13.061,5.641-26.098,7.072-39.477c0.92-8.596,2.421-17.584,1.795-26.248
		c-0.233-3.229-4.739-3.211-5,0c-0.851,10.479-2.698,20.814-4.953,31.072c-3.44,15.654-6.532,31.389-10.891,46.826
		c-3.961,14.027-8.635,28.33-16.361,40.789c-4.136,6.672-11.081,15.242-19.383,11.244c-9.81-4.725-9.703-14.648-7.208-23.992
		c3.624-13.572,10.888-26.197,17.817-38.305c6.196-10.826,12.52-21.279,17.458-32.762c7.374-17.148,14.464-35.773,15.913-54.537
		c18.371,7.039,38.378,9.604,57.929,10.332c20.947,0.779,41.149-3.383,60.372-11.703c4.333-1.875,8.605-4.021,12.712-6.454
		c4.708,26.616,17.62,52.239,30.732,75.567c8.06,14.34,18.437,27.264,24.331,42.795c2.127,5.604,4.82,14.037,0.649,19.414
		c-2.971,3.828-9.704,5.881-13.994,3.797c-4.979-2.42-8.774-7.521-11.845-11.947c-4.644-6.691-8.348-14.037-11.753-21.416
		c-6.929-15.02-12.276-30.824-16.742-46.734c-1.86-6.627-3.509-13.32-4.851-20.072c-0.531-2.67-0.986-5.354-1.355-8.051
		c-0.29-2.113-1.438-4.203-1.895-6.328c-0.356-1.662-3.039-1.691-3.375,0c-2.537,12.783,2.379,26.979,5.718,39.299
		c1.858,6.855,3.914,13.68,6.184,20.432c2.729,26.465,8.467,52.533,12.82,78.762c4.628,27.883,9.206,56.408,2.769,84.443
		c-1.034,4.504-5.738,21.914-12.935,12.596c-2.579-3.34-2.64-8.588-2.798-12.59c-0.199-5.041,0.126-10.102,0.363-15.133
		c0.976-20.656-8.709-43.875-24.867-56.836c-20.366-16.336-51.502-15.779-72.273-0.607c-11.505,8.402-17.736,19.145-19.38,33.361
		c-0.845,7.305-0.447,14.984-0.459,22.598c2.242-0.23,4.486-0.436,6.729-0.592c-0.076-2.055-0.188-4.109-0.323-6.158
		c-0.882-13.418-0.973-27.004,8.108-37.893c7.24-8.68,18.27-12.104,28.976-14.236c10.63-2.117,21.176-0.918,31.281,2.738
		c20.622,7.461,34.548,33.715,35.415,54.77c0.384,9.297-1.01,18.672,1.259,27.828c1.666,6.721,8.573,13.586,15.977,10.496
		c8.469-3.535,9.771-16.455,11.369-24.191c3.69-17.863,2.419-36.975,1.12-55.023c-1.938-26.941-8.469-53.164-13.624-79.623
		c0.935,2.117,1.896,4.223,2.887,6.312c5.307,11.189,12.634,26.344,24.966,31.203c5.557,2.189,11.771,0.566,16.828-2.223
		c5.909-3.26,8.457-9.617,8.388-16.096C431.141,423.492,427.124,414.395,423.163,406.209z"></path>
	<path fill="#1A1A1A" d="M259.09,542.25c-0.115-2.881-0.161-5.869-0.5-8.75c-1.932,0.396-4.771,1.654-6.706,1.951
		c0.531,4.338,0.581,8.049,0.831,11.924c0.034,0.531,0.054,1.225,0.056,2.006c0.435,2.518,0.191,5.445,0.009,7.703
		c-0.161,1.986-0.639,4.543-2.324,5.883c-0.469,0.479-1.115,0.82-1.802,0.982c-2.66,1.51-6.459-1.125-8.111-2.979
		c-3.825-4.291-4.924-11.176-6.068-16.531c-0.54-2.527-1.193-5.057-1.756-7.598c-1.612-0.342-4.28,0.416-5.899,0.92
		c1.993,8.107,3.265,16.42,7.205,23.895c3.387,6.426,12.128,11.682,18.86,6.672C260.585,562.598,259.422,550.533,259.09,542.25z"></path>
</g>

<path fill="#1A1A1A" d="M245.836,229.902c-0.366-0.132-0.688-0.143-0.972-0.079c-1.134-0.526-2.473-0.738-4.01-0.497
	c-6.248,0.981-6.635,9.387-3.823,13.585c3.304,4.932,10.342,4.159,13.177-0.811C252.824,237.513,250.755,231.683,245.836,229.902z
	 M246.987,239.15c-0.811,1.788-3.915,2.75-5.229,0.999c-1.085-1.447-1.391-4.399-0.112-5.844c0.801-0.905,1.741-1.263,2.77-1.175
	c0.135,0.104,0.282,0.199,0.456,0.272C247.034,234.305,247.939,237.05,246.987,239.15z"></path>
<path fill="#1A1A1A" d="M369.747,230.9c-0.402-0.296-0.889-0.385-1.368-0.325c-2.281-0.935-4.787-0.753-6.521,1.548
	c-1.957,2.598-2.312,6.095-0.939,9.032c1.612,3.453,6.325,4.048,9.178,1.841C373.87,240.078,373.452,233.619,369.747,230.9z
	 M367.578,240.272c-1.584,0.865-2.784-0.277-3.111-1.43c-0.386-1.359-0.113-2.869,0.586-4.028c0.231-0.385,0.455-0.578,1-0.712
	c0.064-0.016,0.227,0.021,0.428,0.088c0.219,0.365,0.522,0.695,0.893,0.966C369.224,236.517,369.938,238.983,367.578,240.272z"></path>

<path fill="#1A1A1A" d="M432.457,209.157c-13.58-3.988-23.055-18.249-29.222-31.484c-0.124-0.199-0.246-0.399-0.369-0.598
	c-0.439-1.024-0.925-2.065-1.436-3.102c-0.562-1.523-1.079-3.062-1.533-4.619c0.112-0.036,0.233-0.048,0.37,0.003
	c1.572,0.591,3.306,0.722,5.05,0.536c3.341-0.824,6.509-2.728,8.955-5.292c1.883-1.974,1.106-5.421-1.622-6.146
	c-9.088-2.412-14.083-11.054-21.726-15.95c1.751-1.024,3.373-2.216,4.911-4.039c2.567-3.042,3.687-6.575,4.098-10.466
	c0.284-2.695-2.945-4.932-5.394-4.108c-8.27,2.781-16.563,3.736-25.012,1.262c-8.266-2.421-15.556-6.977-22.784-11.539
	c-5.746-3.627-11.384-7.688-17.704-10.265c-5.435-2.216-11.105-3.721-16.851-4.887c-12.572-2.552-25.852-3.433-38.561-1.438
	c-5.417,0.85-11.161,2.488-16.104,5.286c1.091-4.806,1.182-9.915,0.764-14.977c-0.151-1.831-2.62-2.786-3.63-0.983
	c-11.395,20.325-36.788,22.947-53.8,36.546c-13.684,10.938-25.803,32.792-20.979,50.886c-1.57-0.765-3.225-1.372-4.983-1.796
	c-1.217-0.293-2.774,0.61-2.643,2.013c0.771,8.212,2.367,15.436,10.633,17.283c-2.208,6.025-7.871,12.137-13.733,14.157
	c-1.281,0.441-2.072,2.259-0.866,3.281c3.977,3.371,9.393,4.589,13.999,2.772c-1.489,8.09-3.867,15.809-7.746,23.112
	c-3.978,7.489-9.322,14.295-14.416,21.042c-1.248,1.652,0.021,4.54,1.996,4.906c4.44,0.822,8.859,0.988,13.25,0.581
	c-5.954,10.757-6.562,25.028-1.86,35.991c3.016,7.034,7.995,11.427,13.842,16.079c5.71,4.543,12.29,10,8.184,17.822
	c-1.546,2.945,1.524,5.939,4.446,4.446c3.778-1.93,6.336-4.78,8.057-8.165c3.107,5.564,9.223,8.611,17.034,7.344
	c3.255-0.528,2.154-5.168-0.731-5.402c-7.516-0.608-13.775-3.229-13.458-11.916c0.109-2.984-4.112-3.305-4.994-0.676
	c-0.764,2.277-1.658,4.611-2.853,6.73c-1.794-8.264-11.036-14.139-17.776-20.306c-11.984-10.966-10.84-33.947,0.926-44.571
	c2.688-2.427-0.128-6.875-3.456-5.937c-4.539,1.279-9.096,2.059-13.726,1.981c9.139-13.493,15.478-27.111,17.211-43.889
	c0.057-0.547-0.146-0.981-0.478-1.291c0.232-0.202,0.465-0.4,0.688-0.625c0.827-0.833-0.29-2.397-1.288-1.669
	c-3.322,2.423-7.766,2.469-11.361,0.699c6.723-3.391,11.123-9.9,12.806-17.347c0.257-1.138-0.504-1.925-1.576-2.069
	c-6.228-0.835-7.661-6.135-8.283-11.402c2.242,0.9,4.27,2.164,6.122,3.864c1.771,1.625,4.485-0.422,3.319-2.561
	c-5.547-10.166-1.136-23.489,3.655-33.103c4.931-9.895,12.164-17.441,21.68-22.991c8.412-4.906,17.647-8.219,26.181-12.901
	c6.684-3.667,12.268-8.634,16.571-14.714c-0.373,4.528-1.377,8.995-3.463,12.958c-1.472,1.572-2.75,3.336-3.745,5.336
	c-1.111,2.233,1.714,4.714,3.572,2.756c1.684-1.776,3.031-3.699,4.117-5.725c6.281-6.164,16.519-7.759,25.023-8.453
	c12.753-1.04,25.859,0.575,38.182,3.893c4.759,1.281,9.484,2.913,13.774,5.364c7.111,4.064,13.263,10.067,19.923,14.834
	c11.824,8.464,24.324,12.167,37.568,9.087c-1.595,2.43-3.889,4.472-6.345,5.522c-2.609,1.117-1.349,4.582,0.701,5.368
	c5.428,2.082,9.097,6.867,12.991,10.957c2.303,2.417,4.783,4.576,7.553,6.26c-2.15,0.682-4.454,0.492-6.663-1.072
	c-2.04-1.444-5.569,0.456-5.268,3.023c0.396,3.361,1.63,6.102,3.092,9.131c0.143,0.295,0.312,0.539,0.496,0.757
	c5.623,14.725,14.858,31.763,29.543,38.363c-5.066,2.023-11.883,1.105-16.13-1.483c-3.36-1.847-6.291,3.164-3,5.132
	c8.223,4.611,11.505,17.179,13.598,25.635c1.342,5.418,1.738,10.189,0.355,15.683c-1.289,5.12-3.847,9.971-6.883,14.417
	c-0.415-2.475-1.009-4.912-2.043-7.305c-1.118-2.588-5.574-1.903-6.055,0.792c-2.994,16.813-28.873,40.126-13.956,55.652
	c-4.704,1.211-9.813,1.396-12.637-2.732c-1.861-2.722-6.338-0.098-4.426,2.587c5.341,7.495,17.136,6.681,25.13,4.702
	c3.084-0.764,3.17-4.705,0.825-6.309c-9.688-6.624-5.599-16.757-1.129-25.403c2.622-5.072,5.932-10.107,8.561-15.376
	c0.062,0.59,0.128,1.177,0.205,1.759c0.322,2.446,3.562,4.86,5.613,2.325c9.438-11.668,16.131-24.938,12.969-40.133
	c-1.475-7.083-4.038-16.127-8.593-23.062c6.015,0.243,12.154-1.503,16.05-5.713C435.268,212.454,434.639,209.798,432.457,209.157z"></path>
<path fill="#1A1A1A" d="M389.673,211.605c-7.037-0.591-14.395-1.963-19.769-6.849c-5.163-4.694-7.39-11.759-8.772-18.376
	c-0.88-4.208-6.723-2.845-7.046,0.954c-0.575,6.755-4.343,13.628-7.991,19.17c-2.535,3.851-6.456,9.397-11.103,12.198
	c3.997-11.863,8.037-23.861,13.309-35.166c0.033-0.071,0.048-0.139,0.075-0.209c0.075-0.174,0.158-0.343,0.231-0.518
	c-0.019-0.005-0.038-0.01-0.057-0.016c0.721-3.161-3.502-5.429-5.506-2.33c-14.227,22-39.116,35.482-63.76,42.429
	c-12.603,3.553-25.554,4.482-38.582,4.985c-14.284,0.551-28.954,0.402-41.788,7.494c-1.593,0.881-0.427,2.995,1.156,2.742
	c28.383-4.529,57.334-0.359,85.252-8.52c17.458-5.103,36.581-13.875,50.002-27.371c-2.624,6.778-5.34,13.525-7.811,20.332
	c-0.614,1.693,1.006,3.88,2.824,3.708c8.512-0.806,14.752-8.236,19.553-14.621c2.828-3.761,5.668-7.983,7.819-12.464
	c5.715,12.298,16.655,20.444,31.961,18.552C393.549,217.251,393.676,211.941,389.673,211.605z"></path>

<path fill="#1A1A1A" d="M251.542,524.607c-6.979,1.391-13.462,3.814-20.703,3.705c-3.517-0.053-3.394,5.07,0,5.375
	c7.195,0.646,15.603-0.551,22.297-3.295C256.665,528.947,255.413,523.836,251.542,524.607z"></path>
<path fill="#1A1A1A" d="M387.84,521.125c-6.831,0.463-13.666,0.693-20.5,0.125c-3.639-0.301-4.472,5.768-0.864,6.385
	c7.163,1.225,14.156,0.85,21.364,0.24C392.13,527.514,392.205,520.83,387.84,521.125z"></path>

<path fill="#1A1A1A" d="M336.822,288.812c-2.555-3.183-7.583-3.173-11.734-3.681c-5.672-0.694-11.432-0.998-17.158-0.848
	c-10.635,0.281-21.51,1.893-31.554,4.922c-4.365,1.317-2.568,7.252,1.928,6.028c9.609-2.615,19.574-3.691,29.625-3.869
	c4.866-0.085,9.7-0.043,14.555,0.302c4.257,0.303,9.353,2.279,13.308,0.537C337.111,291.623,337.679,289.879,336.822,288.812z"></path>

<path fill="#1A1A1A" d="M383.34,465.125c-27.6-0.998-55.169-0.076-82.732,1.443c-13.215,0.729-26.644,1.487-39.751,3.338
	c-12.703,1.793-27.857,3.424-38.799,10.608c-0.472,0.31-0.285,1.021,0.284,1.048c12.646,0.573,25.742-3.863,38.178-5.849
	c14.006-2.235,27.766-4.192,41.947-4.93c26.947-1.398,53.944,1.117,80.875,2.09C388.34,473.057,388.322,465.305,383.34,465.125z"></path>
<path fill="#1A1A1A" d="M284.741,372.885c1.181-7.098,4.098-13.594,4.349-20.885c0.06-1.717-1.198-3.109-2.753-3.615
	c-6.393-2.084-10.714-5.281-13.212-11.576c-2.4-6.047-2.043-12.513-1.223-18.809c0.231-1.771-2.651-2.09-3.069-0.415
	c-1.86,7.472-4.191,15.478-2.146,23.13c1.843,6.898,8.324,11.254,14.701,13.824c-0.666,5.568-2.721,10.855-3.904,16.346
	c-1.52,7.049-2.076,14.457-2.999,21.609c-1.063,8.234-1.165,15.781-0.301,23.955c0.832,7.858,1.802,15.705,2.606,23.567
	c0.335,3.273,0.652,6.552,0.857,9.837c0.035,0.561-0.019,1.268-0.006,1.94c-17.785,1.896-35.848,4.644-52.883,10.096
	c-2.675,0.857-1.538,5.068,1.163,4.22c17.895-5.621,36.168-6.853,54.567-9.759c1.375-0.219,1.886-1.522,1.701-2.717
	c1.012-2.653,0.194-7.471,0.118-9.024c-0.418-8.439-1.078-16.867-1.57-25.304c-0.486-8.338-0.25-15.616,0.976-23.938
	C282.814,387.887,283.501,380.344,284.741,372.885z"></path>
<path fill="#1A1A1A" d="M378.46,443.678c-8.356-2.787-17.731-2.248-26.37-1.489c-7.858,0.688-15.65,1.979-23.126,4.469
	c-1.354-2.474-1.129-6.498-1.391-9.238c-0.479-5-0.823-10.004-1.193-15.014c-0.886-12.011-1.884-24.008-2.396-36.041
	c-0.48-11.316-0.104-23.529-2.891-34.554c-0.057-0.223-0.148-0.412-0.258-0.584c5.949-3.438,10.879-6.627,13.252-13.643
	c2.561-7.564,0.136-16.139-1.935-23.498c-1.198-4.261-7.869-2.438-6.629,1.828c3.349,11.518,6.554,27.227-7.685,32.779
	c-1.587,0.617-1.549,2.281-0.744,3.154c-0.036,0.159-0.06,0.327-0.055,0.512c0.365,12.563-0.588,25.146-0.073,37.742
	c0.521,12.7,1.595,25.374,2.416,38.059c0.433,6.666-0.264,16.272,3.324,22.17c0.227,0.373,0.492,0.658,0.771,0.904
	c0.334,1.129,1.425,2.024,3.04,1.735c7.989-1.428,16.118-2.539,24.188-3.397c8.384-0.894,17.696-1.613,25.823,1.098
	C380.98,452.154,382.872,445.15,378.46,443.678z"></path>
<path fill="#1A1A1A" d="M249.177,315.725c0.152-2.162,0.323-4.373-0.557-6.266c-0.496-1.066-1.892-1.203-2.822-0.738
	c-0.843,0.42-1.411,1.004-1.806,1.688c-0.168,0.146-0.322,0.318-0.434,0.551c-0.753,1.557-0.833,3.25-0.657,4.986
	c-0.339,3.861-0.381,7.803-0.454,11.671c-0.092,4.935,0.015,9.927-0.366,14.846c-0.361,4.655-3.012,10.2-0.362,14.485
	c0.652,1.055,2.045,1.211,2.945,0.379c3.039-2.812,2.62-7.084,2.552-10.979c-0.041-2.312,0.193-4.617,0.483-6.921
	c0.362-0.321,0.613-0.797,0.64-1.428c0.207-4.897,0.618-9.784,0.753-14.687C249.153,321.133,249.473,318.292,249.177,315.725z"></path>
<path fill="#1A1A1A" d="M359.791,323.088c-0.049-0.293-0.106-0.582-0.156-0.875c-0.724-4.82-1.299-9.641-1.106-14.463
	c0.023-0.624-0.144-1.132-0.426-1.531c-0.005-0.406-0.015-0.812-0.013-1.219c0.014-3.551-5.616-3.541-5.5,0
	c0.018,0.518,0.06,1.029,0.085,1.545c-1.854,3.469,0.243,11.441,0.66,13.975c0.696,4.238,1.391,8.52,2.171,12.781
	c0.046,1.69,0.118,3.336,0.688,5.016c0.073,0.218,0.217,0.394,0.386,0.533c0.406,1.965,0.838,3.92,1.309,5.857
	c0.704,2.898,5.521,2.332,5.268-0.713C362.571,336.994,360.944,330.01,359.791,323.088z"></path>
<path fill="#1A1A1A" d="M243.489,358.852c-2.633-2.449-6.355-3.043-9.638-4.309c-3.844-1.482-7.56-3.309-11.363-4.893
	c-2.546-1.062-4.379,3.313-1.878,4.455c3.756,1.713,7.432,3.592,11.204,5.27c3.422,1.523,7.204,3.43,10.958,2.193
	C243.884,361.201,244.427,359.725,243.489,358.852z"></path>
<path fill="#1A1A1A" d="M382.84,343.25c-3.029-0.244-5.729,2.029-8.318,3.408c-3.778,2.01-7.768,3.645-11.847,4.932
	c-3.06,0.965-1.786,5.709,1.33,4.822c3.709-1.059,7.269-2.453,10.798-3.996c3.294-1.441,8.017-2.629,9.979-5.779
	C385.749,345.086,384.459,343.381,382.84,343.25z"></path>
<path fill="#1A1A1A" d="M311.695,317.955c-2.683,5.502-4.89,11.189-7.045,16.914c-1.743,4.629-3.795,9.105-5.741,13.631
	c-7.254-8.389-11.136-20.4-14.399-30.598c-0.882-2.754-5.24-1.568-4.339,1.195c4.096,12.575,9.404,25.092,17.242,35.819
	c1.273,1.744,3.601,1.856,4.854,0c6.81-10.082,9.408-22.981,14.718-33.871C318.708,317.512,313.427,314.404,311.695,317.955z"></path>

<path fill="rgba(26,26,26,0.5)"  d="M380.666,439c-1.588-12.568-3.653-25.121-6.02-37.568
	c-2.431-12.787-5.257-26.231-11.288-37.865c-0.544-1.049-1.229-1.791-1.989-2.274c-0.492-3.226-0.991-6.449-1.487-9.674
	c-1.99-12.95-1.543-26.207-4.479-39.013c-0.689-3.006-3.735-4.106-6.457-3.666c-6.27,1.017-17.9,1.61-19.73,9.604
	c-0.938,4.094-0.316,8.704-0.432,12.87c-0.068,2.524,0.461,5.144,0.518,7.685c0.041,1.81-0.063,3.613-0.167,5.42
	c-2.774,2.174-5.791,3.86-8.859,5.592c-2.412,1.359-3.21,4.598-1.825,6.961c0.146,0.248,0.313,0.457,0.482,0.666
	c0.628,1.281,1.828,2.246,3.598,2.334c-0.748,0.992-1.163,2.254-0.929,3.602c0.265,1.51,0.488,2.992,0.616,4.475
	c-0.024,0.556-0.05,1.109-0.072,1.664c-0.323,0.621-0.521,1.345-0.503,2.191c0.263,11.611,1.669,22.857,3.132,34.375
	c0.744,5.875,1.3,11.752,1.334,17.676c0.031,5.4-0.828,10.57-1.17,15.869c-0.904,2.75,0.154,6.353,3.475,7.267
	c0.155,0.043,0.311,0.086,0.465,0.129c1.774,0.487,3.523,0.03,4.867-1.041c12.15-4.097,24.747-2.498,37.284-4.164
	c0.186,0.217,0.353,0.448,0.548,0.655C374.448,446.055,381.249,443.619,380.666,439z"></path>
<path fill="rgba(26,26,26,0.5)"  d="M282.775,356.775c0.743-4.58-1.814-7.965-6.436-8.449
	c-4.867-0.51-5.414-1.637-6.27-6.393c-0.788-4.388-0.643-8.996-0.778-13.435c-0.04-1.291-0.452-2.415-1.103-3.347
	c1.08-0.866,1.802-2.112,1.65-3.653c-0.091-0.931-0.209-1.856-0.359-2.778c-0.334-2.052-2.679-3.574-4.641-3.533
	c-1.6,0.033-4.018-1.701-5.633-2.197c-2.306-0.707-4.852-0.338-6.863,0.896c-2.12-0.507-4.457,0.424-5.085,2.891
	c-0.007,0.031-0.015,0.062-0.023,0.093c-0.352,1.383-0.023,2.685,0.779,3.713c-0.271,1.158-0.471,2.368-0.72,3.608
	c-4.813,8.037-3.797,18.752-2.371,27.716c0.097,0.61,0.266,1.155,0.481,1.651c-0.474,3-0.982,5.992-1.45,8.972
	c-0.906,5.774-1.658,11.577-2.042,17.413c-4.051,4.812-6.446,10.343-8.295,16.65c-1.051,3.584-1.776,7.156-2.367,10.84
	c-0.725,4.517-2.341,9.128-0.884,13.628c0.142,0.438,0.325,0.846,0.525,1.237c-0.512,2.597-0.999,5.199-1.509,7.799
	c-1.662,8.472-4.405,16.431-3.761,24.994c-0.396,0.938-0.735,1.886-0.502,1.525c-1.874,2.881,1.191,6.188,4.212,5.479
	c5.596-1.311,11.009-3.258,16.455-5.084c0.465,0.201,0.979,0.354,1.554,0.425c4.296,0.534,8.472,0.35,12.777-0.048
	c4.132-0.381,8.98-0.7,12.499-3.141c0.28-0.195,0.527-0.404,0.758-0.619c1.761,0.74,3.829,0.588,5.223-0.873
	c2.586-2.711,1.643-5.194,0.646-8.481c-0.287-0.945-0.581-1.89-0.876-2.832c0.038-0.088,0.086-0.16,0.121-0.248
	c2.65-6.621,1.521-15.185,0.419-22.051c-1.142-7.117-2.929-14.14-4.529-21.164c0.298-1.474,0.603-2.941,0.905-4.408
	C277.81,381.318,280.771,369.129,282.775,356.775z"></path>
</svg>