<!DOCTYPE svg PUBLIC "-//W3C//DTD SVG 1.1//EN" "http://www.w3.org/Graphics/SVG/1.1/DTD/svg11.dtd"><svg version="1.1" id="Layer_1" xmlns="http://www.w3.org/2000/svg" xmlns:xlink="http://www.w3.org/1999/xlink" x="0px" y="0px" width="600px" height="600px" viewBox="0 0 600 600" enable-background="new 0 0 600 600" xml:space="preserve">
<path fill="#990e6d" d="M423.801,420.873c-3.123-7.451-7.406-14.242-11.883-20.92c-0.45-5.402-4.109-10.451-6.722-15.02
	c-3.103-5.428-6.061-10.932-9.16-16.355c-2.008-3.512-4.122-7.002-6.369-10.406c-0.726-1.404-1.466-2.801-2.231-4.188
	c-0.639-1.156-1.3-2.305-1.977-3.447c-1.476-7.727-4.284-15.164-7.242-22.449c-3.982-9.816-7.964-19.648-12.066-29.413
	c-0.281-0.67-0.655-1.23-1.091-1.694c8.987-5.386,17.46-11.864,24.782-19.078c1.072-1.056,2.045-2.162,2.967-3.292
	c0.111-0.267,0.226-0.531,0.325-0.807c1.227-3.325,2.337-6.708,3.101-10.173c1.571-7.154,2.25-14.434,2.172-21.758
	c-0.084-7.896-0.628-15.782-1.226-23.665c-1.823-4.474-4.151-8.715-7.062-12.489c-0.062-0.276-0.123-0.554-0.186-0.827
	c-1.564-7.039-4.754-13.344-9.145-19.003c-0.056-0.071-0.117-0.137-0.172-0.208c-2.382-8.318-10.63-14.582-16.632-20.457
	c-7.003-6.855-13.012-12.084-22.597-14.933c-4.52-1.344-9.216-2.105-13.947-2.625c-6.475-2.355-13.062-4.392-19.86-5.283
	c-6.486-2.721-13.351-4.15-20.609-2.809c-5.467,1.01-9.317,4.636-13.401,7.917c-0.292,0.096-0.584,0.192-0.875,0.289
	c-17.29,3.257-32.859,9.624-46.644,21.301c-6.962,5.897-12.92,13.156-17.393,21.1c-3.657,6.496-5.297,12.704-4.642,19.477
	c-1.574,4.415-2.755,9.008-3.465,13.748c-0.814,5.435-1.266,10.739-0.802,16.22c0.108,1.279,0.242,2.556,0.386,3.832
	c-1.83,1.036-3.233,2.718-3.632,5.045c-0.43,2.508-0.475,5.374,0.213,7.876c0.152,0.553,0.367,1.036,0.607,1.492
	c1.43,9.652,4.692,18.406,11.236,26.507c7.347,9.096,18.076,14.842,28.69,19.21c0.029,0.012,0.059,0.021,0.088,0.034
	c-1.368,0.86-2.382,2.319-2.494,4.378c-1.26,23.15-11.254,45.09-21.069,65.748c-3.721,7.83-7.92,15.43-11.858,23.164
	c-4.726,5.562-9.113,12.045-11.521,18.898c-0.37,1.057-0.744,2.119-1.105,3.189c-1.89,2.854-3.418,5.809-4.408,8.906
	c-4.625,10.516-7.223,23.104,0.622,31.096c5.346,5.445,14.127,4.84,20.079,0.922c6.616-4.354,10.705-11.771,14.03-18.732
	c3.462-7.25,6.529-14.717,9.364-22.326c-0.266,4.227-0.333,8.461-0.304,12.701c-0.825,0.812-1.383,1.956-1.44,3.434
	c-0.021,0.555-0.054,1.106-0.089,1.66c-1.322,1.071-2.226,2.727-2.209,4.34c0.041,3.852,0.214,7.693,1.275,11.414
	c0.036,0.125,0.092,0.229,0.134,0.346c-1.11,8.152-1.98,16.33-2.131,24.566c-0.069,3.785-0.267,10.729,1.221,16.338
	c-0.004,2.68,0.061,5.361,0.214,8.039c-2.464,23.736,0.102,50.547,17.639,66.23c4.001,2.695,11.005,0.191,11.8-4.799
	c1.661-10.43,1.964-20.826,1.845-31.367c-0.104-9.206-0.607-18.639,0.803-27.771c1.703-11.031,9.644-18.137,17.381-25.342
	c4.017-1.4,8.021-2.859,12.045-4.232c8.378-1.752,16.831-2.855,25.435-2.727c8.824,0.133,17.578,1.938,25.438,5.922
	c2.105,3.946,4.421,7.826,7.822,11.338c4.146,4.283,8.866,7.029,12.71,10.969c2.49,6.656,3.105,13.746,3.396,20.898
	c0.011,0.025,0.021,0.051,0.031,0.076c2.307,6.102,2.979,12.654,3.536,19.111c0.618,7.158,0.756,14.504,2.789,21.449
	c0.697,2.391,1.55,4.764,2.753,6.949c4.089,2.664,10.11,0.869,11.726-4.354c5.771-18.686,7.737-37.979,7.438-57.504
	c-0.301-19.527-4.116-38.236-7.354-57.389c-2.857-16.92-4.251-34.367-7.313-51.297c1.521,3.188,3.157,6.314,4.947,9.377
	c2.388,4.08,4.561,9.1,7.975,12.58l0.041,0.062c0.067,0.867,0.29,1.764,0.712,2.676c0.535,1.156,1.127,2.27,1.745,3.361
	c1.65,3.66,4.318,7.914,7.593,11.631c0.331,0.527,0.67,1.156,0.698,1.443c0.433,4.371,4.512,6.305,7.824,5.709
	c4.146,2.297,8.594,3.025,12.854,0.865c1.464-0.549,2.82-1.479,3.841-2.801C428.681,436.451,426.613,427.584,423.801,420.873z
	 M360.48,346.246c-0.004-0.553,0.016-1.105,0.002-1.658c0.062,0.049,0.134,0.082,0.196,0.127c0.034,0.525,0.095,1.059,0.163,1.596
	C360.725,346.285,360.601,346.27,360.48,346.246z M367.413,367.807c-0.74-1.881-1.55-3.738-2.396-5.586
	c0.257,0.266,0.506,0.533,0.747,0.807c0.543,1.488,1.104,2.973,1.688,4.441C367.436,367.582,367.428,367.695,367.413,367.807z"></path>

<path fill="#ff0000" d="M413.708,464.292c-3.141-3.694-6.352-7.384-9.028-11.42c0.266-0.886,0.196-1.864-0.388-2.796
	c-1.461-2.331-2.215-4.354-5.254-4.843c-0.128-0.021-0.256-0.026-0.383-0.036c-0.202-1.07-0.357-2.144-0.468-3.197
	c-0.348-3.305-3.261-4.586-5.562-3.819c-3.258-7.314-6.845-14.552-9.512-21.983c0.033-0.728,0.046-1.454-0.006-2.194
	c-0.162-2.301-1.75-4.022-4.111-4.111c-0.333-0.013-0.667-0.021-1-0.034c-2.786-0.104-4.598,2.717-4,5.251
	c2.297,9.741,6.573,19.222,10.038,28.843c-1.533,1.031-2.509,2.912-1.997,5.422c1.474,7.227,2.797,14.381,5.498,21.163
	c0.186,2.44,0.259,4.888,0.241,7.299c-0.036,1.391-0.088,2.78-0.114,4.171c-0.133,7.016,9.954,6.681,10.668,0
	c0.174-1.633,0.267-3.244,0.293-4.838c1.161-1.021,1.99-2.469,2.123-4.162c0.199-2.535,0.178-5.019-0.012-7.464
	c2.562,2.271,5.61,4.069,9.241,5.156C413.902,471.866,416.055,467.054,413.708,464.292z"></path>
<path fill="#ff0000" d="M422.718,326.131c0.294-0.093,0.528-0.244,0.732-0.418c0.255,0.059,0.501,0.13,0.759,0.182
	c3.225,0.645,5.394-3.733,2.305-5.483c-4.975-2.818-10.194-6.253-13.314-11.163c-2.634-4.146-2.691-9.75-2.479-14.507
	c0.256-5.677,1.765-11.291,3.194-16.761c1.421-5.428,4.561-12.759,3.183-18.305c-0.252-1.014-0.855-1.893-1.648-2.58
	c1.027-2.847,1.717-5.856,2.383-8.708c1.554-6.658,2.492-13.422,3.294-20.208c1.378-11.66,3.756-18.859,1.625-30.429
	c-1.82-9.889-3.824-20.941-10-28.75c-2.498-4.424-10.2-11.956-12.5-14.25c-2.116-2.111-5.003-3.306-7.413-4.948
	c5.528-2.864,10.53-6.552,15.389-10.581c2.499-2.072,1.268-7.091-2.009-7.61c-6.977-1.107-13.776-1.556-20.854-1.582
	c-1.974-0.007-4.826,0.103-7.409,0.751c-0.545-0.69-1.2-1.317-1.967-1.845c-5.497-3.788-12.229-6.105-18.361-8.676
	c-6.762-2.835-13.639-5.4-20.362-8.321c-9.457-4.109-18.265-9.391-27.604-13.722c-7.549-3.499-15.731-7.036-24.243-6.345
	c-5.666,0.46-10.078,2.997-13.376,6.765c0.096-4.891,0.858-9.765,2.329-14.433c1.527-4.851-5.99-8.11-8.263-3.483
	c-3.556,7.238-10.298,12.322-13.302,19.896c-0.759,1.914-1.299,3.83-1.549,5.782c-0.261-0.19-0.522-0.38-0.783-0.567
	c-0.421-0.559-0.989-1.07-1.73-1.501c-1.685-0.98-3.263-2.109-4.948-3.089c-2.04-1.188-3.926-1.032-5.357-0.148
	c-1.001-0.667-2.27-1.017-3.728-0.809c-4.718,0.671-9.405,1.751-14.038,2.861c-1.216,0.292-2.087,0.93-2.679,1.735
	c-2.402,0.278-4.771,0.451-6.982,0.525c-1.893,0.063-3.147,1.587-3.464,3.209c-2.57-0.382-4.475,3.08-1.813,4.574
	c2.162,1.172,4.369,2.189,6.529,3.287c1.333,0.949,2.562,1.927,3.938,2.75c0.522,1.083,1.052,2.162,1.589,3.238
	c-0.419,0.185-0.839,0.368-1.257,0.555c-3.055,1.368-5.902,3.106-8.587,5.074c-3.604,1.193-6.872,3.29-9.764,5.718
	c-7.265,6.1-11.154,15.838-13.755,24.685c-2.991,10.175-5.251,20.952-6.225,31.518c-0.369,4.009-0.56,7.92-0.278,11.883
	c-0.496,2.478-0.824,5.018-1.457,7.447c-0.916,3.513-2.218,6.927-3.5,10.318c-2.016,5.333-3.842,10.429-4.776,15.907
	c-3.104,2.726-6.902,5.253-10.428,5.862c-1.503,0.259-2.051,1.416-1.906,2.572c-0.146,1.156,0.403,2.312,1.906,2.572
	c3.067,0.529,5.945,0.087,8.628-1.028c1.274,1.56,3.002,2.111,4.878,2.086c-0.476,2.273-0.792,4.626-0.876,7.122
	c-0.296,8.78,1.616,17.625,3.984,26.03c3.991,14.165,9.612,28.157,15.165,41.92c-0.987,1.244-1.583,2.854-1.528,4.799
	c0.248,8.693,6.001,16.161,6.854,24.818c0.379,3.85-1.75,8.39-3.273,11.834c-1.875,4.241-4.025,8.354-7.042,11.887
	c-0.554,0.647-0.873,1.345-1.004,2.038c-1.916,1.388-4.781,3.865-6.5,4.234c-2.021,0.435-1.421,3.322,0.465,3.438
	c1.882,0.113,3.438,1.283,5.367,1.283c1.578,0,3.347-0.489,4.759-1.166c1.229-0.588,0.414,0.368,1.53-0.368
	c-0.72,0.87,0.576,0.132-0.064,1.055c-3.573,3.03-7.329,7.609-7.413,12.398c-0.287,0.837-0.496,1.704-0.599,2.613
	c-0.598,5.256,0.946,10.385,5.743,13.155c2.541,1.472,6.938-0.344,6.489-3.724c-0.336-2.529-0.678-5.158-0.906-7.808
	c0.207-0.384,0.377-0.78,0.457-1.217c0.079-0.426,0.12-0.815,0.149-1.196c0.101-0.227,0.2-0.456,0.302-0.682
	c0.631-0.271,1.231-0.682,1.757-1.272c4.237-4.786,8.226-10.081,11.994-15.248c3.681-5.048,6.452-11.179,6.034-17.509
	c1.53-2.873,2.516-6.062,2.938-9.396c2.449-3.479,4.612-7.23,6.735-10.544c4.222-6.584,6.578-13.592,7.115-21.287
	c0.018-0.041,0.033-0.077,0.049-0.118c0.044-0.053,0.085-0.104,0.13-0.154l-0.025-0.021c0.023-0.031,0.048-0.064,0.071-0.102
	c-0.017,0.044-0.028,0.072-0.046,0.119c0.613-0.688,1.032-1.506,1.282-2.377c1.029-2.369,1.316-4.901,0.59-7.232
	c2.21-2.38,2.978-6.604,0.568-9.464c-7.479-8.876-19.062-12.292-26.856-20.602c-5.698-6.074-7.69-14.819-10.062-23.092
	c3.298-6.242,1.831-15.044,1.625-21.842c-0.019-0.633-0.05-1.265-0.076-1.897c0.711-5.716,1.333-11.403,1.503-17.166
	c0.209-0.53,0.423-1.058,0.622-1.592c14.686,4.104,31.701,1.118,46.645-0.017c19.254-1.463,39.48-4.084,57.521-11.279
	c1.522-0.607,3.024-1.256,4.518-1.928c0.645,2.34,3.296,3.938,6.229,2.643c4.491-1.985,8.64-5.556,12.645-8.396
	c4.177-2.963,8.146-6.156,11.858-9.681c3.632-3.445,6.523-6.646,8.993-11.077c1.146-2.055,2.48-4.559,3.465-7.172
	c0.791-1.02,1.561-2.057,2.312-3.104c0.286,2.594,0.605,5.195,0.752,7.767c0.022,0.982,0.051,1.965,0.077,2.944
	c-0.006,0.421,0.062,0.791,0.16,1.138c-0.296,2.149-0.646,4.256-0.968,6.233c-0.612,3.759-1.396,7.349-2.429,10.915
	c-0.613,2.001-1.267,3.977-1.945,5.915c-1.299,3.699,4.45,5.175,5.809,1.601c0.701-1.847,1.377-3.733,2.01-5.643
	c2.163-5.909,4.608-8.462,6.909-14.326c4.402,8.974,12.557,13.185,22.146,15.908c1.7,0.483,3.179-0.238,4.045-1.421
	c0.587,17.317,3.585,34.418,4.735,51.682c0.111,1.676,0.853,2.936,1.887,3.779c0.263,1.074,0.562,2.135,0.897,3.184
	c-2.452,3.855-4.146,8.849-5.818,12.535c-1.012,2.228-2.099,4.443-3.194,6.659c-4.431,5.128-9.247,10.035-12.744,15.787
	c-4.216-1.334-9.582,3.544-6.406,7.764c1.382,1.836,2.469,3.784,3.412,5.796c0.102,0.388,0.235,0.772,0.369,1.159
	c-0.279,0.58-0.384,1.304-0.197,2.179c3.402,15.938,12.367,30.2,16.772,45.892c0.804,2.863,2.748,4.254,4.883,4.555
	c2.215,5.326,4.371,10.682,6.182,16.152c0.751,2.269,2.479,3.422,4.332,3.688c0.647,1.979,1.24,3.98,1.786,6.003
	c1.34,4.964,7.79,3.363,8.337-1.128c1.097-8.99,7.308-14.688,9.082-23.502c1.609-7.988,2.695-16.596-1.334-23.666
	c-1.198-2.104-6.91-6.258-8.504-8.086c0.625-0.041,0.914-1.953,1.5-2C419.51,328.465,422.271,328.68,422.718,326.131z"></path>
<path fill="#ff0000" d="M220.132,441.209c-1.226,3.933-2.879,7.612-4.909,11.194c-1.08,1.901-2.287,3.771-3.898,5.261
	c-1.342,1.239-3.161,1.632-4.637,2.669c-2.779,1.953-3.432,4.904-2.726,7.428c-0.125,0.643-0.207,1.312-0.195,2.048
	c0.058,3.843,0.678,7.569,1.673,11.271c0.984,3.662,2.057,7.277,2.639,11.031c0.187,1.203,1.794,2.23,1.811,3.232
	c0.039,2.325-1.496,3.974-3.085,5.458c-3.261,3.058,0.889,7.975,4.62,5.988c3.163-1.681,5.31-3.908,6.793-6.477
	c0.534,0.258,1.129,0.411,1.783,0.411c1.01,0,1.993-0.412,2.764-1.066c1.936-1.188,2.705-3.843,1.558-6.055
	c-0.006-0.015-0.01-0.021-0.016-0.03c-0.003-0.047-0.015-0.123-0.042-0.244c-0.051-0.229-0.146-0.46-0.191-0.69
	c-0.01-0.049-0.073-0.085-0.073-0.122c0-0.008,0-0.012,0-0.019c0-1.786-1.138-3.325-2.762-3.868
	c0.145-1.959,0.221-3.954,0.245-5.945c0.071-5.837,0.694-11.339,1.689-17.093c0.619-3.577,1.459-7.091,1.718-10.718
	c0.236-3.31,0.199-6.403,0.59-9.619c0.138-0.823,0.27-1.646,0.386-2.466C226.614,439.051,221.282,437.521,220.132,441.209z"></path>

<path fill="#1dd9f2" d="M286.286,471.381c-2.606-1.455-5.865,0.146-8.506,0.977c-0.499,0.156-0.994,0.328-1.489,0.502
	c-3.551-0.23-6.896,0.334-9.979,1.514c-0.974-1.105-2.465-1.756-4.051-1.281c-6.581,1.965-13.235,3.758-19.976,5.092
	c-0.628-0.168-1.303-0.182-1.995,0.018c-0.812,0.23-1.663,0.484-2.495,0.795c-2.306,0.381-4.622,0.699-6.949,0.947
	c-0.676-0.305-1.265-0.369-1.92-0.654c-1.743-0.762-4.154-0.293-4.621,1.879c-0.455,2.113-0.728,4.568-0.438,6.791
	c-0.792,1.018-1.237,2.365-1.107,4.045c0.735,9.52,3.006,18.601,5.814,27.693c0.666,2.152,1.279,4.453,1.913,6.797
	c0.109,2.502,0.19,5.004,0.195,7.51c0.005,2.365,0.979,4.058,2.385,5.113c-0.089,0.736-0.034,1.535,0.194,2.381
	c0.017,0.371,0.057,0.75,0.138,1.143c0.301,1.464,0.629,2.918,0.951,4.375c0.296,1.555,0.589,3.105,1.003,4.641
	c0.147,0.547,0.347,1.03,0.58,1.471c-0.066,0.781,0.039,1.633,0.367,2.543c0.338,0.939,0.724,1.818,1.133,2.676
	c0.25,0.846,0.626,1.545,1.096,2.113c0.709,1.258,1.481,2.488,2.323,3.754c2.843,4.275,10.373,4.203,11.61-1.518
	c1.632-7.547,1.183-15.023,0.314-22.514c2.017-0.256,3.875-1.805,3.875-4.178h0.028c0.202-6.381-1.162-12.932-1.254-19.358
	c-0.09-6.173,0.286-12.343,1.927-18.312c2.521-9.17,9.325-14.438,16.683-19.244c1.99-0.814,4.025-1.51,6.088-2.141
	c2.531-0.771,5.149-0.808,6.832-2.998C287.574,473.146,287.096,471.834,286.286,471.381z"></path>
<path fill="#1dd9f2" d="M389.338,523.592c0.132-3.531-0.217-6.961-0.852-10.334c0.312-3.537-0.732-7.725-1.461-10.975
	c3.739-3.197,2.726-10.15,2.252-14.502c-0.644-5.896-2.18-11.795-4.094-17.395c-1.71-5.002-7.568-5.195-10.407-2.407
	c-4.7-1.519-9.983-1.896-14.54-2.06c-6.325-0.229-15.104-0.238-20.549,3.557c-0.396,0.275-0.721,0.582-0.984,0.908
	c-3.03-0.525-6.15-0.877-9.37-1.15c-0.652-0.07-4.485-0.525-5.164-0.568c-2.172-0.142-3.959,2.389-1.833,2.834
	c9.489,1.996,21.907,9.826,28.53,16.681c3.29,3.406,5.976,7.139,8.28,11.27c2.437,4.367,2.297,9.012,4.688,13.385
	c0.229,0.42,0.53,3.334,0.834,3.666c0.106,0.816,0.707,2.521,0.833,3.334c0.326,3.973,0.643,5.376,1.167,9.333
	c-0.447,3.498,0.529,6.36,0.436,9.909c-0.34,1.574-0.727,3.133-0.984,4.762c-0.168,1.051,0.064,2.053,0.535,2.92
	c-0.011,0.082-0.015,0.162-0.022,0.242c-0.206,1.762-0.956,3.093,0.201,3.833c-0.036,0.748,0.652,0.587,0.666,1.333
	c-2.459-0.167-0.335,1.624-0.333,1.667c-0.44,3.144,0.201,5.569-0.218,8.681c-0.526,3.906,2.355,8.32,6.876,6.877
	c9.115-2.911,13.024-11.93,14.746-20.663C390.038,541.281,391.04,531.57,389.338,523.592z"></path>

<path fill="#00ff00" d="M400.01,377.201c0.355-1.664,0.145-3.451-0.912-5.15c-1.506-2.428-3.011-4.854-4.503-7.287
	c-1.387-3.688-3.598-7.162-6.106-10.338c-0.303-0.535-0.615-1.064-0.912-1.604c-3.606-6.537-5.993-13.383-8.566-20.354
	c-2.352-6.369-6.312-12.242-8.393-18.638c-0.885-2.722,0.872-5.728-1.174-8.435c-0.197-0.26-0.401-0.508-0.61-0.746
	c0.281-0.942,0.23-1.938-0.352-2.933c-0.995-1.699-3.622-2.66-5.35-1.402c-0.532,0.388-0.989,0.793-1.399,1.243
	c-1.803-0.35-3.852,0.637-4.757,2.183c-0.15,0.259-0.267,0.528-0.357,0.803c-5.321-0.423-9.326,1.479-14.342,3.438
	c-2.862,1.119-5.304,1.117-8.171,1.906c-2.787,0.768-4.22,2.816-5.868,4.957c-2.345,3.043-0.896,7.41,1.286,9.971
	c1.23,1.443,1.775,3.576,2.106,5.605c-0.597,0.426-1.147,1.002-1.622,1.752c-0.423,0.672-3.505,3.165-3.383,3.076
	c-1.5,1.103-2.309,1.117-3.75,2.5c-2.118,2.031-2.685,4.658-3.875,7.375c-0.747,0.414-1.108,2.239-1.589,3.286
	c-0.226,0.403-2.601,3.813-2.786,4.214c-1.899,3.717-2.311,4.134-4.716,7.611c-1.413-0.782-2.762-1.526-3.871-2.272
	c-5.452-3.67-11.262-6.688-16.81-10.192c-0.6-0.406-1.188-0.604-1.745-0.646c0.374-1.629,0.839-3.223,1.393-4.773
	c0.115-0.289,0.226-0.594,0.329-0.924c1.255-3.238-3.089-5.494-5.505-3.662c-0.085-0.014-0.168-0.026-0.272-0.041
	c-0.994-0.219-2.022-0.971-2.906-1.443c-0.062-0.033-0.124-0.062-0.187-0.096c0.29-0.401,0.555-0.846,0.758-1.375
	c1.42-3.721,2.664-7.879,2.643-11.944c0.14-0.562,0.273-1.121,0.395-1.683c1.192-5.554-5.956-7.433-8.342-2.813
	c-0.602-0.115-1.22-0.136-1.785-0.052c-0.049,0.009-0.092,0.029-0.139,0.039c-2.879-1.057-5.804-1.725-8.689-1.979
	c-0.849-1.8-2.602-3.125-5.334-3.065c-1.439,0.031-4.966,0.865-7.565,0.834c-1.354-2.504-4.028-4.185-8.435-4.129
	c-0.658,0.008-1.302,0.144-1.92,0.361c-0.302-0.332-0.607-0.678-0.922-1.037c-4.436-5.059-12.755,1.512-9.236,7.127
	c1.538,2.452-0.776,7.482-1.578,9.971c-1.476,4.578-3.021,9.14-4.672,13.658c-2.743,7.51-5.795,14.904-8.954,22.252
	c-0.25,0.289-0.477,0.609-0.667,0.967c-2.048,3.83-3.383,7.953-5.008,11.966c-0.984,1.323-2.022,2.586-2.977,3.786
	c-1.497,1.88-1.993,4.06-1.536,5.984c-1.511,1.547-1.416,4.072,0.671,5.523c1.315,0.916,2.301,2.174,3.505,3.217
	c1.887,1.637,4.396,2.65,6.546,3.912c4.449,2.613,8.911,5.035,13.953,6.301c0.761,0.191,1.533,0.219,2.288,0.123
	c-0.801,4.228-1.399,8.541-1.674,12.863c-0.396,2.705-0.813,5.404-1.284,8.092c-0.404,0.682-0.717,1.467-0.884,2.391
	c-1.705,9.453-4.812,18.824-3.973,28.525c0.126,1.455,0.571,2.689,1.232,3.699c-0.305,3.098-0.428,6.654,0.279,9.543
	c-0.611,1.307-1.261,2.592-1.99,3.828c-1.977,3.354,1.917,7.09,5.23,5.229c6.495-3.645,14.487-3.768,21.704-4.795
	c8.219-1.17,16.128-3.592,24.493-3.299c4.013,0.857,8.369,0.812,12.297,1.014c8.595,0.443,17.157-0.459,25.709-1.315
	c8.484-0.851,16.725-2.994,25.191-3.859c6.328-0.647,12.686-0.197,19.031-0.393c4.975-0.152,9.646-0.187,14.294,1.19
	c0.964,0.65,2.021,0.99,3.087,1.066c0.156,0.045,0.307,0.072,0.457,0.102c0.155,0.209,0.322,0.414,0.509,0.623
	c1.19,1.33,2.702,1.541,4.356,1.256c2.066-0.354,2.735-2.95,1.861-4.577c-0.142-0.267-0.305-0.515-0.479-0.753
	c1.161-1.801,1.373-4.112-0.22-6.403c-0.724-1.037-1.21-2.213-1.549-3.457c0.485-3.859,0.128-7.416-1.19-11.262
	c-0.129-0.378-0.276-0.728-0.435-1.062c-0.714-13.883-4.325-27.305-7.769-40.729c0.787-1.14,1.188-2.503,0.988-3.912
	c0.812-0.496,1.604-1.091,2.358-1.742c2.25,1.387,5.468,1.121,7.615-0.75c4.243-3.691,9.146-7.6,14.853-8.455
	C402.61,386.008,402.597,380.451,400.01,377.201z"></path>

<path fill="rgba(26,26,26,0.5)"  d="M330.75,451.875c-0.065-0.646,0.342-2.48,0.25-3.125
	c-0.049-1.297-0.928-3.816-1.125-5.125c0.981-2.351-1.122-4.534-1.532-7.678c-0.541-4.154-1.21-8.273-1.855-12.412
	c-0.425-2.707,0.025-5.19-0.361-7.91c-0.1-1.789,0.216-3.719,0.125-5.5c-0.219-4.285,0-8.731-0.125-13
	c0.29-4.643-1.042-9.098-1.096-13.648c0.593-0.898,0.966-2.055,0.998-3.477c0.229-10.193-1.072-20.314-1.132-30.5
	c-0.029-5.373-7.233-5.9-8.949-1.211c-0.68,1.852-1.555,3.602-2.537,5.293c-0.838,0.135-1.631,0.516-2.251,1.236
	c-1.946,2.264-3.377,4.709-4.624,7.344c-1.691-1.098-3.455-2.146-4.989-3.354c-2.35-1.848-6.076-5.012-7.861-8.031
	c-0.251-0.852-0.602-1.658-1.1-2.373c-2.372-3.412-7.059-0.514-5.47,3.193c0.792,1.359,0.509,3.398,0.206,5.105
	c-0.094,0.195-0.189,0.396-0.261,0.613c-0.943,2.91-1.373,5.834-1.096,8.875c-1.116,0.928-1.877,2.352-1.884,4.307
	c-0.053,14.609-1.133,29.229-0.936,43.836c0.194,14.334,2,28.893-0.281,43.154c-0.296,1.852,0.199,3.488,1.122,4.734
	c-1.572,2.568-0.296,6.664,3.328,6.41c0.69-0.049,1.301-0.18,1.851-0.375c3.332,0.344,6.549,0.387,9.634-0.533
	c0.472,0.816,1.444-0.009,2.328,0.273c3.608,1.143,7.375,2.841,10.189-0.026c0.291-0.297,0.518-0.607,0.684-0.926
	c0.36-0.211,2.857,0.872,3.127,0.577c4.294,0.385,6.412-0.562,10.713-0.581c2.703,0.062,5.883,1.159,5.787-0.919
	c0.193-0.586-1.627-4.413-1.709-5.063C330.683,457.48,331.467,455.723,330.75,451.875z"></path>
<path fill="rgba(26,26,26,0.25)"  d="M278.901,315.535c-1.398-0.637-3.116-0.559-4.302,0.725
	c-0.83,0.9-2.064,1.786-2.791,2.709c-0.822,1.045-1.599,2.021-2.552,2.948c-2.453,2.39-1.639,6.179,1.025,7.96
	c2.428,1.623,4.55,3.064,7.324,4.098c2.913,1.086,5.817-1.672,5.874-4.475c0.051-2.479-0.099-5.561,1.191-7.76
	C287.076,317.641,282.322,313.947,278.901,315.535z"></path>
<path fill="rgba(26,26,26,0.25)"  d="M339.75,317.875c-1.058-1.055-4.364-3.053-5.375-2.75
	c-0.276-0.391-6.168,0.631-6.625,0.625c-6.255-0.076,0.736,9.332,2.192,12.825c1.042,2.502,4.575,4.391,6.758,1.784
	C340.103,326.291,343.886,322.004,339.75,317.875z"></path>
<path fill="rgba(26,26,26,0.25)"  d="M396.458,373.986c-7.572,1.465-17.4,5.006-22.347,11.285
	c-0.742,0.941-0.975,1.824-0.872,2.59c-0.557,0.445-1.099,0.914-1.611,1.428c-4.795,4.787,2.646,12.229,7.424,7.424
	c6.655-6.695,18.633-5.775,23.277-15.088C404.438,377.4,401.028,373.104,396.458,373.986z"></path>
<path fill="rgba(26,26,26,0.25)"  d="M235.105,397.5c-0.408-5.781-3.688-10.199-8.327-13.486
	c-4.185-2.965-9.634-6.193-14.938-6.076c-2.974,0.066-4.958,2.076-5.663,4.443c-0.908,0.475-1.632,1.291-1.905,2.498
	c-2.229,9.836,16.451,16.658,23.536,18.182C231.235,403.797,235.383,401.438,235.105,397.5z"></path>

<g>
	<path fill="#1A1A1A" d="M423.163,406.209c-4.354-8.998-9.647-17.508-14.821-26.045c-6.675-11.016-12.323-22.676-18.068-34.195
		c-7.579-15.195-14.788-30.41-18.365-47.083c5.307-3.607,10.229-7.754,14.488-12.512c8.616-9.622,12.323-21.681,13.7-34.318
		c1.584-14.538-0.715-29.608-4.881-43.54c-3.786-12.662-9.725-26.516-19.356-35.847c-2.726-2.64-7.691,0.871-5.398,4.166
		c13.619,19.575,21.781,41.418,22.042,65.493c0.116,10.798-1.616,22.225-7.124,31.662c-5.175,8.865-13.824,15.376-22.499,20.53
		c-18.053,10.727-40.441,17.032-61.447,17.256c-20.624,0.221-41.908-2.006-61.425-8.931c-18.381-6.521-35.912-19.696-38.407-40.287
		c-1.278-10.546,0.13-21.12,1.06-31.621c0.625-7.068,2.922-15.557-0.481-22.065c-0.591-1.13-2.3-0.809-2.627,0.343
		c-2.232,7.844-3.524,16.325-4.705,24.51c-1.56,10.814-2.579,21.583-0.999,32.452c2.96,20.365,20.157,34.565,38.075,42.176
		c-6.567,22.816-13.621,46.576-25.089,67.484c-8.674,15.812-18.322,31.035-25.067,47.836c-5.168,12.873-9.756,29.578,2.661,39.662
		c8.357,6.789,17.976,5.875,25.903-1.01c5.7-4.947,9.731-11.91,13.024-18.959c-2.392,15.482-3.315,31.02-2.899,46.678
		c0.427,16.064,1.99,32.576,6.394,48.08c0.088,0.309,0.186,0.621,0.278,0.934c1.946-0.383,3.894-0.744,5.847-1.092
		c-0.515-2.232-0.962-4.475-1.241-6.73c-0.137-0.668-0.257-1.355-0.367-2.047c-0.128-0.67-0.249-1.346-0.354-2.025
		c-3.084-13.184-3.937-26.875-4.151-40.367c-0.245-15.398,1.384-30.393,3.051-45.684c0.769-7.051,1.672-14.066,2.654-21.068
		c2.686-8.141,4.942-16.432,7.002-24.729c3.243-13.061,5.641-26.098,7.072-39.477c0.92-8.596,2.421-17.584,1.795-26.248
		c-0.233-3.229-4.739-3.211-5,0c-0.851,10.479-2.698,20.814-4.953,31.072c-3.44,15.654-6.532,31.389-10.891,46.826
		c-3.961,14.027-8.635,28.33-16.361,40.789c-4.136,6.672-11.081,15.242-19.383,11.244c-9.81-4.725-9.703-14.648-7.208-23.992
		c3.624-13.572,10.888-26.197,17.817-38.305c6.196-10.826,12.52-21.279,17.458-32.762c7.374-17.148,14.464-35.773,15.913-54.537
		c18.371,7.039,38.378,9.604,57.929,10.332c20.947,0.779,41.149-3.383,60.372-11.703c4.333-1.875,8.605-4.021,12.712-6.454
		c4.708,26.616,17.62,52.239,30.732,75.567c8.06,14.34,18.437,27.264,24.331,42.795c2.127,5.604,4.82,14.037,0.649,19.414
		c-2.971,3.828-9.704,5.881-13.994,3.797c-4.979-2.42-8.774-7.521-11.845-11.947c-4.644-6.691-8.348-14.037-11.753-21.416
		c-6.929-15.02-12.276-30.824-16.742-46.734c-1.86-6.627-3.509-13.32-4.851-20.072c-0.531-2.67-0.986-5.354-1.355-8.051
		c-0.29-2.113-1.438-4.203-1.895-6.328c-0.356-1.662-3.039-1.691-3.375,0c-2.537,12.783,2.379,26.979,5.718,39.299
		c1.858,6.855,3.914,13.68,6.184,20.432c2.729,26.465,8.467,52.533,12.82,78.762c4.628,27.883,9.206,56.408,2.769,84.443
		c-1.034,4.504-5.738,21.914-12.935,12.596c-2.579-3.34-2.64-8.588-2.798-12.59c-0.199-5.041,0.126-10.102,0.363-15.133
		c0.976-20.656-8.709-43.875-24.867-56.836c-20.366-16.336-51.502-15.779-72.273-0.607c-11.505,8.402-17.736,19.145-19.38,33.361
		c-0.845,7.305-0.447,14.984-0.459,22.598c2.242-0.23,4.486-0.436,6.729-0.592c-0.076-2.055-0.188-4.109-0.323-6.158
		c-0.882-13.418-0.973-27.004,8.108-37.893c7.24-8.68,18.27-12.104,28.976-14.236c10.63-2.117,21.176-0.918,31.281,2.738
		c20.622,7.461,34.548,33.715,35.415,54.77c0.384,9.297-1.01,18.672,1.259,27.828c1.666,6.721,8.573,13.586,15.977,10.496
		c8.469-3.535,9.771-16.455,11.369-24.191c3.69-17.863,2.419-36.975,1.12-55.023c-1.938-26.941-8.469-53.164-13.624-79.623
		c0.935,2.117,1.896,4.223,2.887,6.312c5.307,11.189,12.634,26.344,24.966,31.203c5.557,2.189,11.771,0.566,16.828-2.223
		c5.909-3.26,8.457-9.617,8.388-16.096C431.141,423.492,427.124,414.395,423.163,406.209z"></path>
	<path fill="#1A1A1A" d="M259.09,542.25c-0.115-2.881-0.161-5.869-0.5-8.75c-1.932,0.396-4.771,1.654-6.706,1.951
		c0.531,4.338,0.581,8.049,0.831,11.924c0.034,0.531,0.054,1.225,0.056,2.006c0.435,2.518,0.191,5.445,0.009,7.703
		c-0.161,1.986-0.639,4.543-2.324,5.883c-0.469,0.479-1.115,0.82-1.802,0.982c-2.66,1.51-6.459-1.125-8.111-2.979
		c-3.825-4.291-4.924-11.176-6.068-16.531c-0.54-2.527-1.193-5.057-1.756-7.598c-1.612-0.342-4.28,0.416-5.899,0.92
		c1.993,8.107,3.265,16.42,7.205,23.895c3.387,6.426,12.128,11.682,18.86,6.672C260.585,562.598,259.422,550.533,259.09,542.25z"></path>
</g>

<path fill="#1A1A1A" d="M368.34,231.438c-3.034,0-5.561,2.53-5.562,5.562c0,0.102-0.003,0.203-0.004,0.305
	c-0.068,0.314-0.129,0.639-0.158,1.169c-0.08,1.42,0.576,3.067,1.641,4.021c-0.006-0.008-0.013-0.016-0.019-0.024
	c0.288,0.369,0.693,0.664,1.108,0.864c0.861,0.5,1.791,0.751,2.788,0.754c1.519,0,2.801-0.616,3.905-1.618
	c1.539-1.395,1.862-3.516,1.863-5.472C373.904,233.968,371.37,231.438,368.34,231.438z"></path>
<path fill="#1A1A1A" d="M250.533,240.125c-0.079-1.503-0.512-2.865-1.472-4.001c-0.371-0.564-0.827-1.081-1.258-1.586
	c-1.038-1.222-2.91-1.849-4.463-1.849c-1.667,0-3.285,0.67-4.463,1.849c-2.366,2.365-2.521,6.584,0,8.927
	c0.012,0.011,0.021,0.024,0.032,0.035c1.14,1.926,3.167,3.081,5.411,3.125c1.121-0.003,2.166-0.286,3.135-0.848
	c0.933-0.552,1.676-1.295,2.228-2.229c0.739-1.722,0.669-1.26,0.855-3.151C250.546,240.306,250.538,240.215,250.533,240.125z"></path>

<path fill="#1A1A1A" d="M388.349,199.734c-4.211-0.59-8.13-1.161-11.837-3.396c-4.349-2.622-7.234-7.429-9.154-11.988
	c-0.891-2.117-3.973-2.524-4.715,0c-2.204,7.495-6.158,13.951-10.996,19.831c0.96-4.526,1.783-9.083,2.437-13.654
	c1.024-7.166,0.8-14.359,1.586-21.526c0.189-1.729-2.315-2.166-3.109-0.842c-3.377,5.631-6.222,11.12-10.716,16.006
	c-4.544,4.94-9.97,8.956-15.69,12.42c-12.83,7.768-27.62,12.27-42.136,15.668c-15.199,3.558-30.625,4.977-46.181,5.714
	c-12.954,0.613-25.913,0.9-38.836-0.466c-1.69-0.179-2.037,2.595-0.399,2.946c29.054,6.236,59.527,4.564,88.382-1.945
	c15.142-3.416,29.933-9.034,42.931-17.61c8.616-5.686,18.24-14.11,23.093-24.032c-0.186,4.911-1.352,9.855-2.416,14.596
	c-1.589,7.08-3.897,13.947-6,20.881c-0.731,2.413,2.442,4.191,4.176,2.431c6.907-7.015,12.948-14.698,16.682-23.719
	c4.967,7.706,13.451,13.745,22.9,11.218C389.517,201.954,389.688,199.922,388.349,199.734z"></path>
<path fill="#1A1A1A" d="M438.153,315.928c-34.021,6.512-21.896-45.863-17.976-63.772c2.794-12.766,6.412-25.164,6.771-38.323
	c0.524-19.167-3.714-40.861-15.756-56.247c-3.729-4.765-8.522-8.861-14.06-11.095c2.006-0.866,3.969-1.835,5.884-3.125
	c4.186-2.819,7.589-6.799,10.35-10.982c1.686-2.554-1.48-4.721-3.751-3.751c-11.142,4.763-23.355,1.034-34.104-3.148
	c-14.729-5.729-28.511-13.823-42.437-21.218c-12.444-6.608-38.674-22.675-54.376-15.137c1.314-4.039,2.715-8.051,3.469-12.256
	c0.536-2.992-2.118-4.901-4.828-3.711c-13.919,6.113-22.993,16.651-25.926,30.931c-4.536-4.829-12.02-5.001-19.136-4.229
	c-10.247,1.112-19.789,5.237-29.903,6.875c-1.517,0.246-2.109,2.247-1.401,3.445c3.054,5.169,7.489,8.836,12.515,11.718
	c-9.187,2.192-17.377,6.731-23.414,14.56c-7.706,9.993-11.036,22.471-12.892,34.757c-2.041,13.516-1.65,27.249-4.066,40.732
	c-2.588,14.449-10.933,25.052-22.417,33.829c-2.104,1.608-1.326,4.466,1.298,4.792c5.891,0.733,11.702,0.318,17.274-1.358
	c-2.574,12.883-1.625,25.549,2.49,38.259c4.241,13.102,11.007,25.254,15.196,38.372c3.32,10.398,4.668,21.472,2.782,32.269
	c-2.077,11.887-9.716,19.679-21.472,22.235c-2.783,0.604-2.467,4.531,0,5.303c4.802,1.503,9.996,2.546,15.037,2.063
	c-1.932,4.215-3.607,8.621-3.993,13.16c-0.544,6.401,2.4,12.082,5.96,17.135c1.485,2.106,4.985,0.034,3.454-2.02
	c-2.986-4.003-6.238-8.712-6.555-13.836c-0.403-6.517,3.571-11.75,7.693-16.289c1.809-1.992,0.038-4.969-2.566-4.408
	c-2.661,0.573-5.194,0.772-7.699,0.684c6.302-3.361,11.312-8.616,14.306-15.6c4.399-10.262,3.759-21.877,1.693-32.615
	c-2.536-13.184-8.895-25.326-14.154-37.56c-7.126-16.577-10.466-32.857-5.865-50.655c0.625-2.418-1.858-3.993-3.931-3.021
	c-4.106,1.925-8.467,2.824-12.902,2.996c7.632-6.875,13.713-14.886,17.574-24.675c4.707-11.936,4.802-25.388,5.708-38.011
	c0.876-12.223,2.62-24.907,7.944-36.069c5.984-12.545,17.261-20.12,31.026-21.556c2.054-0.214,3.609-3.368,1.199-4.426
	c-5.902-2.59-11.256-5.656-15.28-10.546c12.679-3.815,38.008-15.463,42.61,0.278c0.47,1.606,1.995,2.036,3.254,1.668
	c1.079,0.05,2.215-0.493,2.568-1.702c1.925-6.607,3.958-13.123,7.957-18.801c2.813-3.995,6.688-7.092,10.886-9.613
	c-1.565,5.543-3.542,10.97-4.268,16.766c-0.384,3.067,4.403,4.157,5.729,1.552c4.89-9.616,15.548-7.701,24.22-4.928
	c13.737,4.392,26.471,12.05,39.066,18.924c13.191,7.199,26.489,14.571,40.744,19.474c7.469,2.568,16.612,4.732,24.645,2.938
	c-3.732,4.133-9.159,7.165-14.329,7.804c-2.113,0.261-3.171,2.904-1.129,4.167c8.254,5.101,14.99,10.592,20.133,18.994
	c5.322,8.697,8.13,18.816,9.706,28.813c2.382,15.102,0.253,29.358-3.166,44.007c-3.39,14.521-6.538,29.229-7.317,44.159
	c-0.627,12.009,0.247,26.854,10.773,34.629c1.867,1.379,3.95,2.282,6.142,2.83c-4.823,1.389-9.849,2.355-14.375,4.526
	c-2.038,0.978-1.262,3.858,0.584,4.467c14.096,4.653,10.628,20.222,8.5,31.389c-2.271,11.919-8.212,24.956-6.851,37.255
	c0.14,1.26,1.94,1.313,2,0c0.882-19.415,28.591-58.13,4.539-70.811c2.76-0.541,5.547-0.838,8.448-1.426
	c5.062-1.024,9.287-3.257,13.266-6.511C443.951,319.045,440.965,315.39,438.153,315.928z"></path>
<path fill="#1A1A1A" d="M220.276,496.276c-3.992,3.256-7.298,7.764-12.158,8.89c2.557-5.152,3.015-10.646,1.8-16.694
	c-1.707-8.501-5.477-16.093-2.809-24.891c0.708-2.336-2.962-3.969-3.998-1.686c-3.091,6.815-2.856,13.119-0.971,20.228
	c2.279,8.591,4.889,16.067-1.156,23.861c-1.181,1.523-1.085,4.312,1.258,4.765c9.066,1.753,17.425-3.716,21.862-11.519
	C225.55,496.688,222.344,494.59,220.276,496.276z"></path>
<path fill="#1A1A1A" d="M420.776,466.224c-5.519-6.089-13.042-11.306-13.464-20.224c-0.141-2.965-4.724-2.99-4.625,0
	c0.289,8.754,5.698,14.227,11.166,20.061c-5.099,0.018-9.922-1.792-14.35-4.633c-2.489-1.597-5.697,1.582-4.076,4.076
	c3.634,5.589,2.016,10.002-1.842,14.896c-2.464,3.126-6.27,6.23-5.898,10.6c0.12,1.409,1.399,2.745,2.928,2.229
	c5.118-1.727,8.748-8.401,11.133-12.925c1.813-3.438,2.385-6.983,1.836-10.426c5.155,1.692,10.64,2.006,16.084,0.544
	C421.564,469.913,422.021,467.597,420.776,466.224z"></path>

<path fill="#1A1A1A" d="M327.642,275.423c-9.846,15.755-33.91,16.953-47.843,6.119c-2.041-1.587-4.82,0.949-2.917,2.917
	c15.838,16.375,44.78,14.921,56.156-5.881C334.977,275.033,329.775,272.008,327.642,275.423z"></path>

<path fill="#1A1A1A" d="M235.309,385.699c-3.042-3.596-8.543-4.711-12.606-6.883c-1.435-0.768-2.893-1.488-4.343-2.225
	c-0.464-0.232-0.927-0.475-1.39-0.711c-0.185-0.24-0.433-0.449-0.764-0.6c-0.538-0.24-1.139-0.607-1.727-0.707
	c-1.917-0.322-3.962,1.588-2.712,3.527c1.36,2.115,5.108,3.346,7.198,4.533c1.667,0.949,3.247,1.852,4.994,2.66
	c2.972,1.375,5.878,3.637,9.1,4.266C235.389,390.02,236.828,387.496,235.309,385.699z"></path>
<path fill="#1A1A1A" d="M231.75,401.924c-3.448-2.824-7.643-4.709-11.566-6.801c-4.951-2.639-9.801-5.443-14.839-7.982
	c-3.789-1.91-7.083,3.594-3.344,5.721c4.013,2.283,8.035,4.947,12.317,6.693c5.048,2.059,9.497,5.361,14.574,7.279
	C231.595,407.854,233.995,403.762,231.75,401.924z"></path>
<path fill="#1A1A1A" d="M394.731,370.582c-8.329,4.002-16.022,8.625-23.404,14.158c-0.634,0.475-0.259,1.385,0.529,1.258
	c9.438-1.529,17.679-5.494,26.092-9.912C401.618,374.16,398.396,368.82,394.731,370.582z"></path>
<path fill="#1A1A1A" d="M402.826,380.744c-9.444,5.338-19.911,8.842-27.454,16.955c-1.722,1.852,0.563,5.189,2.802,3.633
	c8.672-6.043,18.762-9.75,27.68-15.406C409.11,383.859,406.209,378.832,402.826,380.744z"></path>
<path fill="#1A1A1A" d="M343.961,319.701c-3.32-1.938-6.303-4.252-9.094-6.895c-1.579-1.494-3.93,0.844-2.387,2.387
	c2.432,2.433,5.057,4.6,7.851,6.576c-1.812,2.438-4.202,5.656-6.784,7.477c-1.379-4.318-3.273-8.455-4.438-12.859
	c-1.172-4.438-8.096-2.543-6.87,1.895c1.119,4.057,2.656,7.979,4.472,11.77c-2.705,1.619-5.123,3.645-7.459,5.76
	c-1.721,0.377-3.184,2.273-2.114,4.344c0.312,0.602,0.608,1.209,0.896,1.822c-3.924,5.354-7.799,10.746-11.55,16.227
	c-5.123-4.822-10.264-9.781-16.479-13.068c0.725-1.826,1.688-3.393,2.997-4.471c0.688-0.566,0.698-1.393,0.356-2.07
	c0.344-0.922,0.213-1.957-0.744-2.736c-1.252-1.02-2.697-1.428-4.115-2.146c-1.104-0.562-2.151-1.237-3.103-2.03
	c0.921-4.781,2.462-9.453,2.655-14.342c0.104-2.658-4.131-3.271-4.665-0.631c-1.051,5.188-2.373,10.508-3.023,15.827
	c-0.076,0.21-0.132,0.427-0.153,0.647c-3.768-2.522-7.346-5.336-11.318-7.522c1.354-2.198,3.135-4.005,5.412-5.442
	c2.799-1.771,0.132-6.285-2.587-4.426c-3.646,2.496-6.296,5.645-8.091,9.682c-0.487,1.1-0.409,2.654,0.852,3.25
	c6.005,2.838,10.939,7.357,16.667,10.666c1.301,0.754,2.812,0.092,3.354-1.148c0.178,0.125,0.354,0.254,0.533,0.375
	c0.917,0.617,1.99,1.287,3.111,1.715c-3.215,4.412-4.197,11.18-5.157,15.996c-2.099,10.52-2.703,21.344-3.32,32.033
	c-0.551,9.553-1.032,19.135-1.215,28.699c-0.169,8.887-0.692,17.752-0.361,26.643c0.335,8.971-0.041,18.252,1.24,27.137
	c0.02,0.139,0.06,0.264,0.1,0.391c1.941-0.025,3.886-0.014,5.828,0c0.039-0.125,0.079-0.252,0.099-0.391
	c1.073-7.67,0.439-15.639,0.324-23.367c-0.134-8.867-0.702-17.709-1.002-26.571c-0.317-9.399,0.236-18.88,0.601-28.278
	c0.394-10.15,1.141-20.242,2.131-30.352c0.354-3.615,0.464-9.381,1.685-14.258c5.471,4.934,10.787,10.045,16.216,15.027
	c1.069,0.98,2.608,0.752,3.402-0.439c3.612-5.416,7.362-10.729,11.245-15.949c5.946,16.496,4.37,35.568,4.418,52.688
	c0.03,10.978,1.606,21.75,2.891,32.627c1.523,12.906,2.18,25.697,2.449,38.676c0.275-0.016,0.552-0.032,0.826-0.041
	c1.479-0.096,2.96-0.157,4.441-0.203c0.886-12.752-1.162-25.799-2.701-38.432c-1.44-11.824-1.967-23.703-1.812-35.604
	c0.248-18.938,1.827-39.366-6.957-56.731c1.803-1.74,3.629-3.459,5.454-5.174c0.064,0.119,0.127,0.24,0.192,0.357
	c1.099,1.981,3.886,1.787,5.028,0c1.48-2.318,4.043-4.186,5.835-6.301c1.667-1.969,3.159-4.09,4.615-6.216
	C345.222,321.438,344.803,320.193,343.961,319.701z"></path>
<path fill="#1A1A1A" d="M383.34,465.125c-27.6-0.998-55.169-0.076-82.732,1.443c-13.214,0.729-26.644,1.486-39.75,3.338
	c-12.703,1.793-27.857,3.424-38.799,10.607c-0.472,0.311-0.285,1.021,0.284,1.049c12.646,0.572,25.742-3.863,38.178-5.85
	c14.006-2.234,27.766-4.191,41.947-4.93c26.947-1.398,53.944,1.117,80.875,2.09C388.34,473.057,388.322,465.305,383.34,465.125z"></path>

<path fill="rgba(26,26,26,0.5)"  d="M330.75,451.875c-0.065-0.646,0.342-2.48,0.25-3.125
	c-0.049-1.297-0.928-3.816-1.125-5.125c0.981-2.351-1.122-4.534-1.532-7.678c-0.541-4.154-1.21-8.273-1.855-12.412
	c-0.425-2.707,0.025-5.19-0.361-7.91c-0.1-1.789,0.216-3.719,0.125-5.5c-0.219-4.285,0-8.731-0.125-13
	c0.29-4.643-1.042-9.098-1.096-13.648c0.593-0.898,0.966-2.055,0.998-3.477c0.229-10.193-1.072-20.314-1.132-30.5
	c-0.029-5.373-7.233-5.9-8.949-1.211c-0.68,1.852-1.555,3.602-2.537,5.293c-0.838,0.135-1.631,0.516-2.251,1.236
	c-1.946,2.264-3.377,4.709-4.624,7.344c-1.691-1.098-3.455-2.146-4.989-3.354c-2.35-1.848-6.076-5.012-7.861-8.031
	c-0.251-0.852-0.602-1.658-1.1-2.373c-2.372-3.412-7.059-0.514-5.47,3.193c0.792,1.359,0.509,3.398,0.206,5.105
	c-0.094,0.195-0.189,0.396-0.261,0.613c-0.943,2.91-1.373,5.834-1.096,8.875c-1.116,0.928-1.877,2.352-1.884,4.307
	c-0.053,14.609-1.133,29.229-0.936,43.836c0.194,14.334,2,28.893-0.281,43.154c-0.296,1.852,0.199,3.488,1.122,4.734
	c-1.572,2.568-0.296,6.664,3.328,6.41c0.69-0.049,1.301-0.18,1.851-0.375c3.332,0.344,6.549,0.387,9.634-0.533
	c0.472,0.816,1.444-0.009,2.328,0.273c3.608,1.143,7.375,2.841,10.189-0.026c0.291-0.297,0.518-0.607,0.684-0.926
	c0.36-0.211,2.857,0.872,3.127,0.577c4.294,0.385,6.412-0.562,10.713-0.581c2.703,0.062,5.883,1.159,5.787-0.919
	c0.193-0.586-1.627-4.413-1.709-5.063C330.683,457.48,331.467,455.723,330.75,451.875z"></path>
<path fill="rgba(26,26,26,0.25)"  d="M278.901,315.535c-1.398-0.637-3.116-0.559-4.302,0.725
	c-0.83,0.9-2.064,1.786-2.791,2.709c-0.822,1.045-1.599,2.021-2.552,2.948c-2.453,2.39-1.639,6.179,1.025,7.96
	c2.428,1.623,4.55,3.064,7.324,4.098c2.913,1.086,5.817-1.672,5.874-4.475c0.051-2.479-0.099-5.561,1.191-7.76
	C287.076,317.641,282.322,313.947,278.901,315.535z"></path>
<path fill="rgba(26,26,26,0.25)"  d="M339.75,317.875c-1.058-1.055-4.364-3.053-5.375-2.75
	c-0.276-0.391-6.168,0.631-6.625,0.625c-6.255-0.076,0.736,9.332,2.192,12.825c1.042,2.502,4.575,4.391,6.758,1.784
	C340.103,326.291,343.886,322.004,339.75,317.875z"></path>
<path fill="rgba(26,26,26,0.25)"  d="M396.458,373.986c-7.572,1.465-17.4,5.006-22.347,11.285
	c-0.742,0.941-0.975,1.824-0.872,2.59c-0.557,0.445-1.099,0.914-1.611,1.428c-4.795,4.787,2.646,12.229,7.424,7.424
	c6.655-6.695,18.633-5.775,23.277-15.088C404.438,377.4,401.028,373.104,396.458,373.986z"></path>
<path fill="rgba(26,26,26,0.25)"  d="M235.105,397.5c-0.408-5.781-3.688-10.199-8.327-13.486
	c-4.185-2.965-9.634-6.193-14.938-6.076c-2.974,0.066-4.958,2.076-5.663,4.443c-0.908,0.475-1.632,1.291-1.905,2.498
	c-2.229,9.836,16.451,16.658,23.536,18.182C231.235,403.797,235.383,401.438,235.105,397.5z"></path>
</svg>