<!DOCTYPE svg PUBLIC "-//W3C//DTD SVG 1.1//EN" "http://www.w3.org/Graphics/SVG/1.1/DTD/svg11.dtd"><svg version="1.1" id="Layer_1" xmlns="http://www.w3.org/2000/svg" xmlns:xlink="http://www.w3.org/1999/xlink" x="0px" y="0px" width="600px" height="600px" viewBox="0 0 600 600" enable-background="new 0 0 600 600" xml:space="preserve">
<path fill="#babaff" d="M423.801,420.873c-3.123-7.451-7.406-14.242-11.883-20.92c-0.45-5.402-4.109-10.451-6.722-15.02
	c-3.103-5.428-6.061-10.932-9.16-16.355c-2.008-3.512-4.122-7.002-6.369-10.406c-0.726-1.404-1.466-2.801-2.231-4.188
	c-0.639-1.156-1.3-2.305-1.977-3.447c-1.476-7.727-4.284-15.164-7.242-22.449c-3.982-9.816-7.964-19.648-12.066-29.413
	c-0.281-0.67-0.655-1.23-1.091-1.694c8.987-5.386,17.46-11.864,24.782-19.078c1.072-1.056,2.045-2.162,2.967-3.292
	c0.111-0.267,0.226-0.531,0.325-0.807c1.227-3.325,2.337-6.708,3.101-10.173c1.571-7.154,2.25-14.434,2.172-21.758
	c-0.084-7.896-0.628-15.782-1.226-23.665c-1.823-4.474-4.151-8.715-7.062-12.489c-0.062-0.276-0.123-0.554-0.186-0.827
	c-1.564-7.039-4.754-13.344-9.145-19.003c-0.056-0.071-0.117-0.137-0.172-0.208c-2.382-8.318-10.63-14.582-16.632-20.457
	c-7.003-6.855-13.012-12.084-22.597-14.933c-4.52-1.344-9.216-2.105-13.947-2.625c-6.475-2.355-13.062-4.392-19.86-5.283
	c-6.486-2.721-13.351-4.15-20.609-2.809c-5.467,1.01-9.317,4.636-13.401,7.917c-0.292,0.096-0.584,0.192-0.875,0.289
	c-17.29,3.257-32.859,9.624-46.644,21.301c-6.962,5.897-12.92,13.156-17.393,21.1c-3.657,6.496-5.297,12.704-4.642,19.477
	c-1.574,4.415-2.755,9.008-3.465,13.748c-0.814,5.435-1.266,10.739-0.802,16.22c0.108,1.279,0.242,2.556,0.386,3.832
	c-1.83,1.036-3.233,2.718-3.632,5.045c-0.43,2.508-0.475,5.374,0.213,7.876c0.152,0.553,0.367,1.036,0.607,1.492
	c1.43,9.652,4.692,18.406,11.236,26.507c7.347,9.096,18.076,14.842,28.69,19.21c0.029,0.012,0.059,0.021,0.088,0.034
	c-1.368,0.86-2.382,2.319-2.494,4.378c-1.26,23.15-11.254,45.09-21.069,65.748c-3.721,7.83-7.92,15.43-11.858,23.164
	c-4.726,5.562-9.113,12.045-11.521,18.898c-0.37,1.057-0.744,2.119-1.105,3.189c-1.89,2.854-3.418,5.809-4.408,8.906
	c-4.625,10.516-7.223,23.104,0.622,31.096c5.346,5.445,14.127,4.84,20.079,0.922c6.616-4.354,10.705-11.771,14.03-18.732
	c3.462-7.25,6.529-14.717,9.364-22.326c-0.266,4.227-0.333,8.461-0.304,12.701c-0.825,0.812-1.383,1.956-1.44,3.434
	c-0.021,0.555-0.054,1.106-0.089,1.66c-1.322,1.071-2.226,2.727-2.209,4.34c0.041,3.852,0.214,7.693,1.275,11.414
	c0.036,0.125,0.092,0.229,0.134,0.346c-1.11,8.152-1.98,16.33-2.131,24.566c-0.069,3.785-0.267,10.729,1.221,16.338
	c-0.004,2.68,0.061,5.361,0.214,8.039c-2.464,23.736,0.102,50.547,17.639,66.23c4.001,2.695,11.005,0.191,11.8-4.799
	c1.661-10.43,1.964-20.826,1.845-31.367c-0.104-9.206-0.607-18.639,0.803-27.771c1.703-11.031,9.644-18.137,17.381-25.342
	c4.017-1.4,8.021-2.859,12.045-4.232c8.378-1.752,16.831-2.855,25.435-2.727c8.824,0.133,17.578,1.938,25.438,5.922
	c2.105,3.946,4.421,7.826,7.822,11.338c4.146,4.283,8.866,7.029,12.71,10.969c2.49,6.656,3.105,13.746,3.396,20.898
	c0.011,0.025,0.021,0.051,0.031,0.076c2.307,6.102,2.979,12.654,3.536,19.111c0.618,7.158,0.756,14.504,2.789,21.449
	c0.697,2.391,1.55,4.764,2.753,6.949c4.089,2.664,10.11,0.869,11.726-4.354c5.771-18.686,7.737-37.979,7.438-57.504
	c-0.301-19.527-4.116-38.236-7.354-57.389c-2.857-16.92-4.251-34.367-7.313-51.297c1.521,3.188,3.157,6.314,4.947,9.377
	c2.388,4.08,4.561,9.1,7.975,12.58l0.041,0.062c0.067,0.867,0.29,1.764,0.712,2.676c0.535,1.156,1.127,2.27,1.745,3.361
	c1.65,3.66,4.318,7.914,7.593,11.631c0.331,0.527,0.67,1.156,0.698,1.443c0.433,4.371,4.512,6.305,7.824,5.709
	c4.146,2.297,8.594,3.025,12.854,0.865c1.464-0.549,2.82-1.479,3.841-2.801C428.681,436.451,426.613,427.584,423.801,420.873z
	 M360.48,346.246c-0.004-0.553,0.016-1.105,0.002-1.658c0.062,0.049,0.134,0.082,0.196,0.127c0.034,0.525,0.095,1.059,0.163,1.596
	C360.725,346.285,360.601,346.27,360.48,346.246z M367.413,367.807c-0.74-1.881-1.55-3.738-2.396-5.586
	c0.257,0.266,0.506,0.533,0.747,0.807c0.543,1.488,1.104,2.973,1.688,4.441C367.436,367.582,367.428,367.695,367.413,367.807z"></path>

<path fill="#ffc4ef" d="M410.844,233.494c-0.034-4.506-0.615-9.005-1.219-13.462c-0.581-4.289-2.299-8.448-4.548-12.339
	c2.165-0.449,3.624-2.792,3.762-4.878c0.265-4.011-3.869-8.186-6.224-11.089c-0.69-0.852-1.399-1.703-2.105-2.562
	c-0.633-0.864-1.304-1.704-2.006-2.518c-1.188-1.555-2.299-3.162-3.199-4.881c-0.408-0.778-0.908-1.378-1.464-1.829
	c0.479-1.634,0.524-3.417,0.017-4.779c-0.608-1.628-1.319-3.194-2.111-4.71c1.111-0.956,1.341-0.856,1.004-2.697
	c-0.078-0.425-0.55,0.582-0.125-1.5c2.517,1.569,5.565,1.464,8.686,2.154c4.865,1.076,6.938-6.354,2.062-7.474
	c-4.336-0.995-7.719-3.241-10.841-6.075c-0.031-0.217-0.061-0.43-0.094-0.651c-0.489-3.231-2.545-5.908-4.465-8.431
	c-4.389-5.769-10.286-10.28-15.734-15.003c-0.37-0.321-0.754-0.54-1.141-0.701c-4.762-7.161-9.543-14.28-15.103-20.915
	c-6.938-8.278-16.303-17.209-27.972-16.302c-3.127,0.243-6.17,0.903-8.864,2.077c0.017-0.021,0.034-0.039,0.051-0.06
	c3.954-4.92-2.722-11.971-7.071-7.071c-6.338,7.14-15.365,9.981-24.51,11.592c-10.895,1.919-22.119,2.049-33.123,3.003
	c-12.024,1.043-24.209,3.043-34.087,8.512c-0.984,0.096-1.982,0.596-2.866,1.642c-0.056,0.066-0.106,0.134-0.162,0.2
	c-4.364,2.9-8.171,6.611-11.171,11.387c0.592-3.518-4.276-6.187-6.161-2.522c-2.596,5.05-5.122,10.157-7.314,15.396
	c-3.112,4.253-4.772,11.044-5.99,15.176c-2.333,7.917-2.511,16.308-2.014,24.485c0.04,0.657,0.231,1.21,0.511,1.68
	c-1.06-0.492-2.131-1.105-3.24-1.875c-2.831-1.964-6.109,1.797-4.534,4.534c2.195,3.812,4.929,6.812,8.343,9.107
	c-0.764,2.593-1.693,5.157-2.098,7.815c-1.892,1.249-3.698,2.686-4.687,4.531c-1.251,2.337,0.501,4.445,2.665,4.49
	c-0.009,0.035-0.019,0.07-0.028,0.104c0.242-0.032,0.487-0.084,0.731-0.127c0.286-0.004,0.564-0.058,0.827-0.161
	c1.124-0.255,2.26-0.625,3.384-1.055c0.121,1.596,1.012,3.111,2.674,3.71c-0.131,0.836-0.254,1.674-0.411,2.508
	c-1.292,6.863-3.775,17.247-11.168,20.039c-5.77,2.179-3.516,11.275,2.592,9.401c1.853-0.568,3.532-1.357,5.071-2.31
	c-0.287,1.872-0.538,3.75-0.718,5.643c-0.111,1.165-0.154,2.263-0.12,3.321c-4.303,4.188-0.38,13.404,3.711,16.554
	c1.018,0.784,2.082,0.931,3.053,0.681c0.729,1.156,1.489,2.277,2.514,3.271c1.003,0.972,2.971,0.328,2.881-1.193
	c-0.231-3.888-1.241-7.7-1.722-11.589c-0.195-1.578,1.239-3.121,1.186-4.764c-0.068-2.094-0.124-4.185-0.192-6.279
	c-0.214-6.532,0.675-13.087,1.484-19.593c1,0.626,2.205,0.96,3.48,0.783c21.254-2.952,39.095-13.53,55.229-27.188
	c7.511-6.358,14.406-13.413,20.164-21.407c0.238-0.331,0.485-0.685,0.733-1.043c0.187,0.16,0.385,0.305,0.591,0.44
	c-0.581,1.449-1.101,2.924-1.495,4.451c-0.206,0.795-0.235,1.545-0.148,2.249c-2.475,5.307-4.017,10.969-5.26,16.744
	c-0.792,3.684-1.482,7.386-2.327,11.059c-0.99,4.305-0.506,8.293-2.089,12.548c-1.367,3.675,4.738,6.254,6.343,2.674
	c0.376-0.637,0.745-1.275,1.118-1.913c3.412-4.782,10.609-7.892,15.441-10.377c6.364-3.273,12.888-6.226,19.269-9.465
	c7.818-3.969,14.262-9.546,20.776-15.348c7.587-6.757,15.472-14.702,19.734-24.063c0.137-0.3,0.266-0.609,0.39-0.923
	c0.448,3.603,0.871,7.222,0.965,10.844c-0.457,2.779-0.562,5.693-0.565,8.827c-0.004,3.771,3.826,4.583,6.116,2.861
	c0.596,1.418,1.395,2.751,2.467,3.935c5.304,5.859,13.804,9.296,20.78,12.643c2.635,1.264,5.871,0.617,7.827-1.22
	c0.937,1.34,2.022,2.538,3.341,3.502c0.53,0.389,1.086,0.655,1.65,0.819c2.141,5.45,2.267,11.083,2.834,17.136
	c0.653,6.971-1.566,17.013,2.419,23.033c2.854,4.311,8.689,4.292,11.549,0C411.298,242.93,410.877,237.892,410.844,233.494z
	 M200.621,211.615c-0.453,0.537-0.484,1.389-0.133,1.958c-0.24,0.188-0.473,0.389-0.709,0.583c0.296-1.422,0.542-2.855,0.767-4.291
	c0.671-0.079,1.34-0.165,2.005-0.259C201.878,210.236,201.235,210.887,200.621,211.615z"></path>

<path fill="#60458a" d="M282.84,470.354c-2.979-0.143-6.059,0.515-9.068,1.736c-2.522,0.256-5.071,0.346-7.707,0.394
	c-4.866,0.088-9.838,1.229-14.631,2.008c-5.414,0.879-11.441,1.371-15.609,5.045c-1.807-0.01-3.608,0.021-5.412,0.178
	c-0.652-0.233-1.368-0.262-2.105,0.043c-0.478,0.232-0.981,0.387-1.511,0.461c-3.232,0.773-3.698,5.248-1.299,6.982
	c-0.534,2.108-0.552,4.387-0.217,6.562c-0.532,0.947-1.023,1.939-1.461,2.992c-1.129,2.717,1.714,6.162,4.52,5.935
	c9.498-0.771,18.474-4.437,28-4.902c1.558-0.076,3.365-1.084,3.649-2.779c0.396-2.358,1.758-4.545,3.418-6.516
	c0.478-0.193,0.947-0.392,1.396-0.584c1.171-0.506,2.128-1.312,3.021-2.211c0.922-0.931,1.331-1.904,1.546-3.041
	c1.609-1.363,3.339-2.609,5.185-3.607c2.993-0.967,6.008-1.881,9.122-2.512C287.303,475.799,286.244,470.516,282.84,470.354z"></path>
<path fill="#60458a" d="M384.902,483.518c-0.207-0.87-0.527,0.67-0.277-4.205c-0.347-2.41,0-0.938-0.125-2.125
	c0.562-2.562-1.095-7.02-3.66-7c-14.504,0.115-28.975-5.334-43.504-2.327c-0.414,0.086-0.782,0.262-1.11,0.487
	c-1.117-0.229-2.328-0.28-3.341-0.422c-0.307-0.043-0.606-0.059-0.91-0.09c-0.023-0.004-0.047-0.01-0.069-0.014
	c-0.025-0.004-0.047-0.011-0.072-0.013c-2.181-0.209-4.305,0.189-6.487,0.189c-0.002,0-0.345,0-0.345,0v0.012
	c0,0.017-0.033,0.029-0.136,0.045c-0.988,0.164-0.936,1.519-0.298,2.041c-0.81,0.785-0.849,2.439,0.315,2.968
	c9.705,4.395,21.246,8.303,26.521,18.161c5.604,10.478,18.776,10.582,29.427,10.021c1.042-0.057,1.913-0.404,2.597-0.953
	c1.681,0.512,3.715-0.533,3.916-2.793C387.77,492.691,385.997,488.137,384.902,483.518z"></path>

<path fill="#7affde" d="M383.49,463.127c0.975-2.258,0.304-5.324-2.039-6.443c0.497-2.443-0.124-4.906-1.053-7.34
	c0.355-0.865,0.544-1.842,0.518-2.922c-0.216-8.67-3.27-17.391-7.074-25.598c-0.567-4.754-1.56-9.492-2.335-13.928
	c-0.43-2.461-0.988-4.877-1.631-7.262c0.39-0.865,0.644-1.855,0.713-2.965c0.6-9.648-3.232-20.484-5.845-29.691
	c-1.956-6.893-4.052-13.746-6.169-20.59c-0.985-6.107-1.806-12.24-2.485-18.389c-0.124-1.118-0.543-1.996-1.122-2.658
	c-0.003-3.193-0.066-6.372-0.318-9.502c-0.443-5.52-6.382-11.914-11.8-6.693c-4.314,4.158-4.574,9.771-4.876,15.423
	c-0.328,6.157-2.721,10.97-6.341,14.589c-1.849,0.847-3.709,1.661-5.62,2.332c-4.437,1.556-8.981,2.721-13.306,4.586
	c-0.878,0.379-1.512,0.967-1.941,1.666c-2.082,0.172-4.171,0.203-6.221,0.092c-8.083-0.438-17.602-2.137-25.019-5.396
	c-0.19-0.084-0.394-0.189-0.589-0.283c0.053-0.708-0.158-1.445-0.714-2.037c-0.884-0.94-1.994-1.627-3.082-2.304
	c-1.099-0.683-1.978-1.344-3.302-1.501c-0.062-0.007-0.118,0.009-0.18,0.007c-0.727-1.185-1.456-2.354-2.175-3.495
	c-0.63-0.999-1.355-1.781-2.136-2.389c-0.2-3.211-1.567-6.277-2.192-9.525c0.052-0.853-0.062-1.742-0.387-2.631
	c-1.116-3.05-3.853-3.771-6.006-2.893c-0.127-0.072-0.254-0.142-0.381-0.213c-1.701-0.951-3.473-1.77-5.154-2.762
	c-4.705-2.775-9.434,3.576-5.738,7.437c0.439,0.458,0.691,1.087,0.846,1.776c0.034,1.234,0.095,2.487,0.197,3.744
	c-0.003,0.147-0.007,0.299-0.008,0.434c-0.005,0.856-0.046,1.712-0.093,2.566c-0.413,0.494-0.72,1.131-0.833,1.963
	c-1.506,11.027-4.115,22.062-4.855,33.168c-0.004,0.064-0.001,0.125-0.003,0.188c-0.751,0.57-1.339,1.393-1.596,2.52
	c-3.451,15.148-7.361,30.25-11.097,45.336c-0.472,1.904-0.003,3.504,0.956,4.674c-1.454,6.076-3.025,12.17-2.634,18.283
	c0.042,0.652,0.188,1.236,0.408,1.756c-0.859,4.562-1.601,9.127-1.296,13.773c-0.805,4.898-0.985,9.705-1.036,14.971
	c-0.008,0.867,0.201,1.639,0.543,2.322c-0.699,1.018-1.423,2.025-2.19,3.025c-3.131,4.078,2.011,8.434,5.936,7.721
	c24.885-4.52,49.986-6.256,75.142-8.533c5.745-0.52,11.497-0.953,17.252-1.35c5.572-0.385,12.993,0.496,18.107-1.99
	c2.326-1.131,6.344-0.635,8.879-0.648c3.233-0.016,6.467-0.012,9.699-0.004c4.609,0.014,9.218,0.064,13.825,0.127
	c-0.187,1.57,0.109,3.043,1.298,4.23c1.117,1.117,3.126,1.842,4.679,1.238c0.932-0.363,1.591-0.598,2.312-1.32
	c0.628-0.627,1.133-1.482,1.381-2.33c0.229-0.783,0.272-1.613,0.376-2.422l-0.091,0.678
	C383.705,464.865,383.752,463.961,383.49,463.127z"></path>

<g>
	<path fill="#1A1A1A" d="M423.163,406.209c-4.354-8.998-9.647-17.508-14.821-26.045c-6.675-11.016-12.323-22.676-18.068-34.195
		c-7.579-15.195-14.788-30.41-18.365-47.083c5.307-3.607,10.229-7.754,14.488-12.512c8.616-9.622,12.323-21.681,13.7-34.318
		c1.584-14.538-0.715-29.608-4.881-43.54c-3.786-12.662-9.725-26.516-19.356-35.847c-2.726-2.64-7.691,0.871-5.398,4.166
		c13.619,19.575,21.781,41.418,22.042,65.493c0.116,10.798-1.616,22.225-7.124,31.662c-5.175,8.865-13.824,15.376-22.499,20.53
		c-18.053,10.727-40.441,17.032-61.447,17.256c-20.624,0.221-41.908-2.006-61.425-8.931c-18.381-6.521-35.912-19.696-38.407-40.287
		c-1.278-10.546,0.13-21.12,1.06-31.621c0.625-7.068,2.922-15.557-0.481-22.065c-0.591-1.13-2.3-0.809-2.627,0.343
		c-2.232,7.844-3.524,16.325-4.705,24.51c-1.56,10.814-2.579,21.583-0.999,32.452c2.96,20.365,20.157,34.565,38.075,42.176
		c-6.567,22.816-13.621,46.576-25.089,67.484c-8.674,15.812-18.322,31.035-25.067,47.836c-5.168,12.873-9.756,29.578,2.661,39.662
		c8.357,6.789,17.976,5.875,25.903-1.01c5.7-4.947,9.731-11.91,13.024-18.959c-2.392,15.482-3.315,31.02-2.899,46.678
		c0.427,16.064,1.99,32.576,6.394,48.08c0.088,0.309,0.186,0.621,0.278,0.934c1.946-0.383,3.894-0.744,5.847-1.092
		c-0.515-2.232-0.962-4.475-1.241-6.73c-0.137-0.668-0.257-1.355-0.367-2.047c-0.128-0.67-0.249-1.346-0.354-2.025
		c-3.084-13.184-3.937-26.875-4.151-40.367c-0.245-15.398,1.384-30.393,3.051-45.684c0.769-7.051,1.672-14.066,2.654-21.068
		c2.686-8.141,4.942-16.432,7.002-24.729c3.243-13.061,5.641-26.098,7.072-39.477c0.92-8.596,2.421-17.584,1.795-26.248
		c-0.233-3.229-4.739-3.211-5,0c-0.851,10.479-2.698,20.814-4.953,31.072c-3.44,15.654-6.532,31.389-10.891,46.826
		c-3.961,14.027-8.635,28.33-16.361,40.789c-4.136,6.672-11.081,15.242-19.383,11.244c-9.81-4.725-9.703-14.648-7.208-23.992
		c3.624-13.572,10.888-26.197,17.817-38.305c6.196-10.826,12.52-21.279,17.458-32.762c7.374-17.148,14.464-35.773,15.913-54.537
		c18.371,7.039,38.378,9.604,57.929,10.332c20.947,0.779,41.149-3.383,60.372-11.703c4.333-1.875,8.605-4.021,12.712-6.454
		c4.708,26.616,17.62,52.239,30.732,75.567c8.06,14.34,18.437,27.264,24.331,42.795c2.127,5.604,4.82,14.037,0.649,19.414
		c-2.971,3.828-9.704,5.881-13.994,3.797c-4.979-2.42-8.774-7.521-11.845-11.947c-4.644-6.691-8.348-14.037-11.753-21.416
		c-6.929-15.02-12.276-30.824-16.742-46.734c-1.86-6.627-3.509-13.32-4.851-20.072c-0.531-2.67-0.986-5.354-1.355-8.051
		c-0.29-2.113-1.438-4.203-1.895-6.328c-0.356-1.662-3.039-1.691-3.375,0c-2.537,12.783,2.379,26.979,5.718,39.299
		c1.858,6.855,3.914,13.68,6.184,20.432c2.729,26.465,8.467,52.533,12.82,78.762c4.628,27.883,9.206,56.408,2.769,84.443
		c-1.034,4.504-5.738,21.914-12.935,12.596c-2.579-3.34-2.64-8.588-2.798-12.59c-0.199-5.041,0.126-10.102,0.363-15.133
		c0.976-20.656-8.709-43.875-24.867-56.836c-20.366-16.336-51.502-15.779-72.273-0.607c-11.505,8.402-17.736,19.145-19.38,33.361
		c-0.845,7.305-0.447,14.984-0.459,22.598c2.242-0.23,4.486-0.436,6.729-0.592c-0.076-2.055-0.188-4.109-0.323-6.158
		c-0.882-13.418-0.973-27.004,8.108-37.893c7.24-8.68,18.27-12.104,28.976-14.236c10.63-2.117,21.176-0.918,31.281,2.738
		c20.622,7.461,34.548,33.715,35.415,54.77c0.384,9.297-1.01,18.672,1.259,27.828c1.666,6.721,8.573,13.586,15.977,10.496
		c8.469-3.535,9.771-16.455,11.369-24.191c3.69-17.863,2.419-36.975,1.12-55.023c-1.938-26.941-8.469-53.164-13.624-79.623
		c0.935,2.117,1.896,4.223,2.887,6.312c5.307,11.189,12.634,26.344,24.966,31.203c5.557,2.189,11.771,0.566,16.828-2.223
		c5.909-3.26,8.457-9.617,8.388-16.096C431.141,423.492,427.124,414.395,423.163,406.209z"></path>
	<path fill="#1A1A1A" d="M259.09,542.25c-0.115-2.881-0.161-5.869-0.5-8.75c-1.932,0.396-4.771,1.654-6.706,1.951
		c0.531,4.338,0.581,8.049,0.831,11.924c0.034,0.531,0.054,1.225,0.056,2.006c0.435,2.518,0.191,5.445,0.009,7.703
		c-0.161,1.986-0.639,4.543-2.324,5.883c-0.469,0.479-1.115,0.82-1.802,0.982c-2.66,1.51-6.459-1.125-8.111-2.979
		c-3.825-4.291-4.924-11.176-6.068-16.531c-0.54-2.527-1.193-5.057-1.756-7.598c-1.612-0.342-4.28,0.416-5.899,0.92
		c1.993,8.107,3.265,16.42,7.205,23.895c3.387,6.426,12.128,11.682,18.86,6.672C260.585,562.598,259.422,550.533,259.09,542.25z"></path>
</g>

<path fill="#1A1A1A" d="M373.573,229.176c-3.676,7.143-15.558,9.681-20.33,2.004c-1.112-1.788-3.757-0.221-2.809,1.641
	c5.354,10.484,22.339,8.768,27.672-0.996C379.734,228.845,375.117,226.175,373.573,229.176z"></path>
<path fill="#1A1A1A" d="M258.897,230.865c-3.672,8.664-13.986,9.291-19.79,2.368c-2.083-2.485-5.545,1.068-3.535,3.535
	c7.958,9.773,23.3,8.181,27.438-4.169C263.812,230.203,259.896,228.51,258.897,230.865z"></path>

<path fill="#1A1A1A" d="M390.34,201.625c-13.679,1.427-23.848-5.861-28.534-18.581c-1.031-2.798-4.919-3.741-6.569-0.858
	c-1.05,1.833-2.062,3.729-3.115,5.605c0.827-8.213,0.568-16.511-0.443-24.791c-0.67-5.489-8.217-5.672-8.676,0
	c-1.737,21.461-20.901,29.704-38.028,37.93c-13.47,6.47-26.981,13.306-35.176,25.206c0.158-17.649,5.986-36.286,15.792-50.236
	c2.828-4.022-3.649-7.601-6.5-3.8c-20.558,27.411-48.341,47.997-82.298,54.911c-2.258,0.46-1.762,4.359,0.548,4.051
	c17.566-2.341,34.823-7.681,49.801-17.303c7.022-4.511,13.459-9.729,19.391-15.472c-4.138,13.472-5.291,27.846-2.462,41.614
	c0.681,3.315,5.77,3.176,6.54,0c4.821-19.876,28.763-26.894,45.146-34.227c11.426-5.114,22.313-12.029,29.051-21.781
	c-0.061,5.431-0.583,10.854-1.676,16.222c-0.679,3.33,3.003,5.454,5.561,3.237c3.789-3.284,6.586-7.381,9.183-11.616
	c6.496,11.596,18.303,18.369,32.465,16.638C394.579,207.857,394.695,201.171,390.34,201.625z"></path>
<path fill="#1A1A1A" d="M417.974,203.206c-9.81-7.362-17.255-18.247-20.439-30.086c-0.064-0.24-0.15-0.456-0.248-0.656
	c5.245-0.056,10.218-2.431,14.33-6.187c1.918-1.751,0.723-4.604-1.421-5.381c-8.387-3.04-14.971-12.362-20.221-19.082
	c-7.814-10.001-15.138-20.294-23.602-29.779c-7.352-8.239-15.498-16.193-25.942-20.265c-5.347-2.084-10.36-2.078-15.098-0.676
	c1.532-3.555,2.318-7.229,2.504-11.094c0.189-3.944-5.028-5.923-7.677-3.18c-17.797,18.432-45.86,19.681-69.674,23.749
	c-13.362,2.282-30.954,5.729-40.99,16.07c0.179-0.964,0.364-1.927,0.56-2.89c0.571-2.818-2.541-4.618-4.708-2.74
	c-10.22,8.859-17.315,21.502-21.882,34.073c-3.341,9.197-4.911,19.556-1.465,28.507c-0.865-0.473-1.722-0.958-2.555-1.482
	c-1.281-0.807-2.75,0.033-3.221,1.311c-2.709,7.355,0.404,14.747,6.287,19.273c-3.534,4.328-8.45,7.167-12.791,10.691
	c-1.974,1.602-1.045,4.597,0.75,5.816c2.44,1.658,4.985,2.449,7.943,2.217c1.084-0.085,2.12-0.386,3.158-0.689
	c1.108-0.324,2.85-0.487,2.394-1.337c0.307,0.573,0.749,0.934,1.242,1.136c-4.055,10.693-6.827,21.509-16.106,29.237
	c-1.754,1.461-0.864,4.896,1.397,5.292c3.446,0.604,6.303,0.766,9.204,0.401c-1.679,4.797-1.381,9.734,1.766,14.628
	c4.055,6.306,10.101,10.478,13.443,17.337c1.465,3.007,5.765,0.805,5.141-2.167c-1.196-5.696-5.937-10.521-9.831-14.582
	c-5.687-5.93-7.063-10.95-2.33-18.18c1.35-2.062-0.905-5.28-3.336-4.34c-2.071,0.801-4.217,1.132-6.386,1.191
	c7.107-8.938,9.516-19.672,14.004-30.562c1.022-2.479-2.26-4.415-4.244-3.465c-1.666-1.851-4.475-1.599-7.306-1.447
	c3.253-3.025,6.122-6.41,8.05-10.505c0.807-1.712,0.088-3.271-1.614-3.969c-5.227-2.141-7.945-6.884-7.263-12.073
	c2.436,1.263,4.968,2.431,7.026,4.197c2.094,1.797,4.904-0.962,3.038-3.038c-8.294-9.228-4.18-24.085-0.106-34.304
	c3.159-7.923,7.731-16.021,13.415-22.797c-0.304,2.527-0.508,5.065-0.542,7.62c-0.041,3.081,4.533,3.676,5.332,0.722
	c5.315-19.661,32.68-21.863,49.383-23.2c20.18-1.616,41.606-3.812,58.695-14.822c-1.329,2.692-3.651,5.192-3.401,8.301
	c0.243,3.028,3.956,5.158,6.327,2.621c15.525-16.611,37.01,9.894,46.33,20.915c7.606,8.994,14.959,18.205,22.872,26.937
	c4.492,4.957,9.236,10.504,15.067,14.096c-3.111,1.727-6.607,2.275-10.219,0.572c-1.217-0.574-2.539-0.466-3.518,0.165
	c-0.311,0.458-0.559,0.942-0.765,1.443c1.894,8.892,5.464,16.847,9.777,24.823c2.617,4.153,5.714,8.008,9.221,11.414
	c-1.536-0.083-3.075-0.283-4.635-0.713c-2.339-0.645-4.54,2.025-3.197,4.158c7.212,11.458,7.635,25.667,3.889,38.44
	c-1.769-3.237-4.405-5.856-7.979-6.556c-1.181-0.231-2.664,0.801-2.152,2.153c0.83,2.193,2.177,3.359,3.56,5.285
	c1.788,2.491,2.785,6.235,2.929,9.25c0.147,3.081,4.331,4.494,5.961,1.615c8.058-14.227,9.642-32.747,2.156-47.407
	c2.628,0.185,5.291,0.04,8.082,0.029C419.82,209.224,420.41,205.035,417.974,203.206z"></path>

<path fill="#1A1A1A" d="M256.84,496.562c-10.521,0.652-20.943,1.164-31.38,2.744c-4.239,0.641-2.392,6.951,1.761,6.389
	c9.842-1.336,19.767-1.961,29.62-3.258C260.477,501.959,260.708,496.324,256.84,496.562z"></path>
<path fill="#1A1A1A" d="M387.009,496.486c-9.776,2.291-20.21,0.604-30.169,1.326c-3.479,0.252-3.443,5.072,0,5.375
	c10.78,0.951,21.175,1.879,31.831-0.674C392.592,501.574,390.928,495.568,387.009,496.486z"></path>

<path fill="#1A1A1A" d="M336.822,288.812c-2.555-3.183-7.583-3.173-11.734-3.681c-5.672-0.694-11.432-0.998-17.158-0.848
	c-10.635,0.281-21.51,1.893-31.554,4.922c-4.365,1.317-2.568,7.252,1.928,6.028c9.609-2.615,19.574-3.691,29.625-3.869
	c4.866-0.085,9.7-0.043,14.555,0.302c4.257,0.303,9.353,2.279,13.308,0.537C337.111,291.623,337.679,289.879,336.822,288.812z"></path>

<path fill="#1A1A1A" d="M249.177,315.725c0.152-2.162,0.323-4.373-0.557-6.266c-0.496-1.066-1.892-1.203-2.822-0.739
	c-0.843,0.421-1.411,1.005-1.806,1.688c-0.168,0.146-0.322,0.318-0.434,0.551c-0.753,1.557-0.833,3.25-0.657,4.986
	c-0.339,3.862-0.381,7.803-0.454,11.671c-0.092,4.935,0.015,9.927-0.366,14.846c-0.361,4.655-3.012,10.2-0.362,14.485
	c0.652,1.055,2.045,1.211,2.945,0.379c3.039-2.812,2.62-7.084,2.552-10.979c-0.041-2.312,0.193-4.617,0.483-6.92
	c0.362-0.322,0.613-0.797,0.64-1.428c0.207-4.898,0.618-9.784,0.753-14.686C249.153,321.133,249.473,318.292,249.177,315.725z"></path>
<path fill="#1A1A1A" d="M359.791,323.088c-0.049-0.293-0.106-0.582-0.156-0.875c-0.724-4.82-1.299-9.641-1.107-14.463
	c0.024-0.624-0.143-1.132-0.425-1.531c-0.005-0.406-0.015-0.812-0.013-1.219c0.014-3.551-5.616-3.541-5.5,0
	c0.017,0.517,0.059,1.029,0.085,1.545c-1.855,3.469,0.243,11.442,0.66,13.975c0.696,4.238,1.391,8.519,2.171,12.781
	c0.046,1.69,0.118,3.336,0.688,5.016c0.074,0.217,0.217,0.393,0.386,0.533c0.406,1.965,0.838,3.92,1.309,5.857
	c0.704,2.898,5.521,2.332,5.267-0.713C362.571,336.994,360.944,330.01,359.791,323.088z"></path>
<path fill="#1A1A1A" d="M344.277,309c-0.647-4.857-7.993-5.23-7.875,0c0.205,9.029-1.189,16.916-7.606,23.66
	c-5.748,6.04-13.839,9.251-21.945,10.506c-19.066,2.951-36.43-7.393-40.221-26.797c-0.588-3.012-5.136-1.725-4.58,1.263
	c3.917,21.071,23.838,33.925,44.79,31.95C327.104,347.674,347.215,331.039,344.277,309z"></path>
<path fill="#1A1A1A" d="M383.34,465.125c-27.6-0.998-55.169-0.076-82.732,1.443c-13.216,0.729-26.644,1.488-39.752,3.338
	c-12.703,1.793-27.857,3.424-38.799,10.609c-0.472,0.309-0.285,1.021,0.284,1.047c12.646,0.574,25.742-3.863,38.178-5.848
	c14.006-2.236,27.766-4.193,41.947-4.93c26.947-1.398,53.944,1.117,80.875,2.09C388.34,473.057,388.322,465.305,383.34,465.125z"></path>
</svg>