<!DOCTYPE svg PUBLIC "-//W3C//DTD SVG 1.1//EN" "http://www.w3.org/Graphics/SVG/1.1/DTD/svg11.dtd"><svg version="1.1" id="Layer_1" xmlns="http://www.w3.org/2000/svg" xmlns:xlink="http://www.w3.org/1999/xlink" x="0px" y="0px" width="600px" height="600px" viewBox="0 0 600 600" enable-background="new 0 0 600 600" xml:space="preserve">
<path fill="#b07154" d="M423.801,420.873c-3.123-7.451-7.406-14.242-11.883-20.92c-0.45-5.402-4.109-10.451-6.722-15.02
	c-3.103-5.428-6.061-10.932-9.16-16.355c-2.008-3.512-4.122-7.002-6.369-10.406c-0.726-1.404-1.466-2.801-2.231-4.188
	c-0.639-1.156-1.3-2.305-1.977-3.447c-1.476-7.727-4.284-15.164-7.242-22.449c-3.982-9.816-7.964-19.648-12.066-29.413
	c-0.281-0.67-0.655-1.23-1.091-1.694c8.987-5.386,17.46-11.864,24.782-19.078c1.072-1.056,2.045-2.162,2.967-3.292
	c0.111-0.267,0.226-0.531,0.325-0.807c1.227-3.325,2.337-6.708,3.101-10.173c1.571-7.154,2.25-14.434,2.172-21.758
	c-0.084-7.896-0.628-15.782-1.226-23.665c-1.823-4.474-4.151-8.715-7.062-12.489c-0.062-0.276-0.123-0.554-0.186-0.827
	c-1.564-7.039-4.754-13.344-9.145-19.003c-0.056-0.071-0.117-0.137-0.172-0.208c-2.382-8.318-10.63-14.582-16.632-20.457
	c-7.003-6.855-13.012-12.084-22.597-14.933c-4.52-1.344-9.216-2.105-13.947-2.625c-6.475-2.355-13.062-4.392-19.86-5.283
	c-6.486-2.721-13.351-4.15-20.609-2.809c-5.467,1.01-9.317,4.636-13.401,7.917c-0.292,0.096-0.584,0.192-0.875,0.289
	c-17.29,3.257-32.859,9.624-46.644,21.301c-6.962,5.897-12.92,13.156-17.393,21.1c-3.657,6.496-5.297,12.704-4.642,19.477
	c-1.574,4.415-2.755,9.008-3.465,13.748c-0.814,5.435-1.266,10.739-0.802,16.22c0.108,1.279,0.242,2.556,0.386,3.832
	c-1.83,1.036-3.233,2.718-3.632,5.045c-0.43,2.508-0.475,5.374,0.213,7.876c0.152,0.553,0.367,1.036,0.607,1.492
	c1.43,9.652,4.692,18.406,11.236,26.507c7.347,9.096,18.076,14.842,28.69,19.21c0.029,0.012,0.059,0.021,0.088,0.034
	c-1.368,0.86-2.382,2.319-2.494,4.378c-1.26,23.15-11.254,45.09-21.069,65.748c-3.721,7.83-7.92,15.43-11.858,23.164
	c-4.726,5.562-9.113,12.045-11.521,18.898c-0.37,1.057-0.744,2.119-1.105,3.189c-1.89,2.854-3.418,5.809-4.408,8.906
	c-4.625,10.516-7.223,23.104,0.622,31.096c5.346,5.445,14.127,4.84,20.079,0.922c6.616-4.354,10.705-11.771,14.03-18.732
	c3.462-7.25,6.529-14.717,9.364-22.326c-0.266,4.227-0.333,8.461-0.304,12.701c-0.825,0.812-1.383,1.956-1.44,3.434
	c-0.021,0.555-0.054,1.106-0.089,1.66c-1.322,1.071-2.226,2.727-2.209,4.34c0.041,3.852,0.214,7.693,1.275,11.414
	c0.036,0.125,0.092,0.229,0.134,0.346c-1.11,8.152-1.98,16.33-2.131,24.566c-0.069,3.785-0.267,10.729,1.221,16.338
	c-0.004,2.68,0.061,5.361,0.214,8.039c-2.464,23.736,0.102,50.547,17.639,66.23c4.001,2.695,11.005,0.191,11.8-4.799
	c1.661-10.43,1.964-20.826,1.845-31.367c-0.104-9.206-0.607-18.639,0.803-27.771c1.703-11.031,9.644-18.137,17.381-25.342
	c4.017-1.4,8.021-2.859,12.045-4.232c8.378-1.752,16.831-2.855,25.435-2.727c8.824,0.133,17.578,1.938,25.438,5.922
	c2.105,3.946,4.421,7.826,7.822,11.338c4.146,4.283,8.866,7.029,12.71,10.969c2.49,6.656,3.105,13.746,3.396,20.898
	c0.011,0.025,0.021,0.051,0.031,0.076c2.307,6.102,2.979,12.654,3.536,19.111c0.618,7.158,0.756,14.504,2.789,21.449
	c0.697,2.391,1.55,4.764,2.753,6.949c4.089,2.664,10.11,0.869,11.726-4.354c5.771-18.686,7.737-37.979,7.438-57.504
	c-0.301-19.527-4.116-38.236-7.354-57.389c-2.857-16.92-4.251-34.367-7.313-51.297c1.521,3.188,3.157,6.314,4.947,9.377
	c2.388,4.08,4.561,9.1,7.975,12.58l0.041,0.062c0.067,0.867,0.29,1.764,0.712,2.676c0.535,1.156,1.127,2.27,1.745,3.361
	c1.65,3.66,4.318,7.914,7.593,11.631c0.331,0.527,0.67,1.156,0.698,1.443c0.433,4.371,4.512,6.305,7.824,5.709
	c4.146,2.297,8.594,3.025,12.854,0.865c1.464-0.549,2.82-1.479,3.841-2.801C428.681,436.451,426.613,427.584,423.801,420.873z
	 M360.48,346.246c-0.004-0.553,0.016-1.105,0.002-1.658c0.062,0.049,0.134,0.082,0.196,0.127c0.034,0.525,0.095,1.059,0.163,1.596
	C360.725,346.285,360.601,346.27,360.48,346.246z M367.413,367.807c-0.74-1.881-1.55-3.738-2.396-5.586
	c0.257,0.266,0.506,0.533,0.747,0.807c0.543,1.488,1.104,2.973,1.688,4.441C367.436,367.582,367.428,367.695,367.413,367.807z"></path>

<path fill="#1a0905" d="M410.844,233.494c-0.034-4.506-0.615-9.005-1.219-13.462c-0.581-4.289-2.299-8.448-4.548-12.339
	c2.165-0.449,3.624-2.792,3.762-4.878c0.265-4.011-3.869-8.186-6.224-11.089c-0.69-0.852-1.399-1.703-2.105-2.562
	c-0.633-0.864-1.304-1.704-2.006-2.518c-1.188-1.555-2.299-3.162-3.199-4.881c-0.408-0.778-0.908-1.378-1.464-1.829
	c0.479-1.634,0.524-3.417,0.017-4.779c-0.608-1.628-1.319-3.194-2.111-4.71c1.111-0.956,1.341-0.856,1.004-2.697
	c-0.078-0.425-0.55,0.582-0.125-1.5c2.517,1.569,5.565,1.464,8.686,2.154c4.865,1.076,6.938-6.354,2.062-7.474
	c-4.336-0.995-7.719-3.241-10.841-6.075c-0.031-0.217-0.061-0.43-0.094-0.651c-0.489-3.231-2.545-5.908-4.465-8.431
	c-4.389-5.769-10.286-10.28-15.734-15.003c-0.37-0.321-0.754-0.54-1.141-0.701c-4.762-7.161-9.543-14.28-15.103-20.915
	c-6.938-8.278-16.303-17.209-27.972-16.302c-3.127,0.243-6.17,0.903-8.864,2.077c0.017-0.021,0.034-0.039,0.051-0.06
	c3.954-4.92-2.722-11.971-7.071-7.071c-6.338,7.14-15.365,9.981-24.51,11.592c-10.895,1.919-22.119,2.049-33.123,3.003
	c-12.024,1.043-24.209,3.043-34.087,8.512c-0.984,0.096-1.982,0.596-2.866,1.642c-0.056,0.066-0.106,0.134-0.162,0.2
	c-4.364,2.9-8.171,6.611-11.171,11.387c0.592-3.518-4.276-6.187-6.161-2.522c-2.596,5.05-5.122,10.157-7.314,15.396
	c-3.112,4.253-4.772,11.044-5.99,15.176c-2.333,7.917-2.511,16.308-2.014,24.485c0.04,0.657,0.231,1.21,0.511,1.68
	c-1.06-0.492-2.131-1.105-3.24-1.875c-2.831-1.964-6.109,1.797-4.534,4.534c2.195,3.812,4.929,6.812,8.343,9.107
	c-0.764,2.593-1.693,5.157-2.098,7.815c-1.892,1.249-3.698,2.686-4.687,4.531c-1.251,2.337,0.501,4.445,2.665,4.49
	c-0.009,0.035-0.019,0.07-0.028,0.104c0.242-0.032,0.487-0.084,0.731-0.127c0.286-0.004,0.564-0.058,0.827-0.161
	c1.124-0.255,2.26-0.625,3.384-1.055c0.121,1.596,1.012,3.111,2.674,3.71c-0.131,0.836-0.254,1.674-0.411,2.508
	c-1.292,6.863-3.775,17.247-11.168,20.039c-5.77,2.179-3.516,11.275,2.592,9.401c1.853-0.568,3.532-1.357,5.071-2.31
	c-0.287,1.872-0.538,3.75-0.718,5.643c-0.111,1.165-0.154,2.263-0.12,3.321c-4.303,4.188-0.38,13.404,3.711,16.554
	c1.018,0.784,2.082,0.931,3.053,0.681c0.729,1.156,1.489,2.277,2.514,3.271c1.003,0.972,2.971,0.328,2.881-1.193
	c-0.231-3.888-1.241-7.7-1.722-11.589c-0.195-1.578,1.239-3.121,1.186-4.764c-0.068-2.094-0.124-4.185-0.192-6.279
	c-0.214-6.532,0.675-13.087,1.484-19.593c1,0.626,2.205,0.96,3.48,0.783c21.254-2.952,39.095-13.53,55.229-27.188
	c7.511-6.358,14.406-13.413,20.164-21.407c0.238-0.331,0.485-0.685,0.733-1.043c0.187,0.16,0.385,0.305,0.591,0.44
	c-0.581,1.449-1.101,2.924-1.495,4.451c-0.206,0.795-0.235,1.545-0.148,2.249c-2.475,5.307-4.017,10.969-5.26,16.744
	c-0.792,3.684-1.482,7.386-2.327,11.059c-0.99,4.305-0.506,8.293-2.089,12.548c-1.367,3.675,4.738,6.254,6.343,2.674
	c0.376-0.637,0.745-1.275,1.118-1.913c3.412-4.782,10.609-7.892,15.441-10.377c6.364-3.273,12.888-6.226,19.269-9.465
	c7.818-3.969,14.262-9.546,20.776-15.348c7.587-6.757,15.472-14.702,19.734-24.063c0.137-0.3,0.266-0.609,0.39-0.923
	c0.448,3.603,0.871,7.222,0.965,10.844c-0.457,2.779-0.562,5.693-0.565,8.827c-0.004,3.771,3.826,4.583,6.116,2.861
	c0.596,1.418,1.395,2.751,2.467,3.935c5.304,5.859,13.804,9.296,20.78,12.643c2.635,1.264,5.871,0.617,7.827-1.22
	c0.937,1.34,2.022,2.538,3.341,3.502c0.53,0.389,1.086,0.655,1.65,0.819c2.141,5.45,2.267,11.083,2.834,17.136
	c0.653,6.971-1.566,17.013,2.419,23.033c2.854,4.311,8.689,4.292,11.549,0C411.298,242.93,410.877,237.892,410.844,233.494z
	 M200.621,211.615c-0.453,0.537-0.484,1.389-0.133,1.958c-0.24,0.188-0.473,0.389-0.709,0.583c0.296-1.422,0.542-2.855,0.767-4.291
	c0.671-0.079,1.34-0.165,2.005-0.259C201.878,210.236,201.235,210.887,200.621,211.615z"></path>

<path fill="#090c30" d="M286.286,471.381c-2.606-1.455-5.865,0.146-8.506,0.977c-0.499,0.156-0.994,0.328-1.489,0.502
	c-3.551-0.23-6.896,0.334-9.979,1.514c-0.974-1.105-2.465-1.756-4.051-1.281c-6.581,1.965-13.235,3.758-19.976,5.092
	c-0.628-0.168-1.303-0.182-1.995,0.018c-0.812,0.23-1.663,0.484-2.495,0.795c-2.306,0.381-4.622,0.699-6.949,0.947
	c-0.676-0.305-1.265-0.369-1.92-0.654c-1.743-0.762-4.154-0.293-4.621,1.879c-0.455,2.113-0.728,4.568-0.438,6.791
	c-0.792,1.018-1.237,2.365-1.107,4.045c0.735,9.52,3.006,18.601,5.814,27.693c0.666,2.152,1.279,4.453,1.913,6.797
	c0.109,2.502,0.19,5.004,0.195,7.51c0.005,2.365,0.979,4.058,2.385,5.113c-0.089,0.736-0.034,1.535,0.194,2.381
	c0.017,0.371,0.057,0.75,0.138,1.143c0.301,1.464,0.629,2.918,0.951,4.375c0.296,1.555,0.589,3.105,1.003,4.641
	c0.147,0.547,0.347,1.03,0.58,1.471c-0.066,0.781,0.039,1.633,0.367,2.543c0.338,0.939,0.724,1.818,1.133,2.676
	c0.25,0.846,0.626,1.545,1.096,2.113c0.709,1.258,1.481,2.488,2.323,3.754c2.843,4.275,10.373,4.203,11.61-1.518
	c1.632-7.547,1.183-15.023,0.314-22.514c2.017-0.256,3.875-1.805,3.875-4.178h0.028c0.202-6.381-1.162-12.932-1.254-19.358
	c-0.09-6.173,0.286-12.343,1.927-18.312c2.521-9.17,9.325-14.438,16.683-19.244c1.99-0.814,4.025-1.51,6.088-2.141
	c2.531-0.771,5.149-0.808,6.832-2.998C287.574,473.146,287.096,471.834,286.286,471.381z"></path>
<path fill="#090c30" d="M389.338,523.592c0.132-3.531-0.217-6.961-0.852-10.334c0.312-3.537-0.732-7.725-1.461-10.975
	c3.739-3.197,2.726-10.15,2.252-14.502c-0.644-5.896-2.18-11.795-4.094-17.395c-1.71-5.002-7.568-5.195-10.407-2.407
	c-4.7-1.519-9.983-1.896-14.54-2.06c-6.325-0.229-15.104-0.238-20.549,3.557c-0.396,0.275-0.721,0.582-0.984,0.908
	c-3.03-0.525-6.15-0.877-9.37-1.15c-0.652-0.07-4.485-0.525-5.164-0.568c-2.172-0.142-3.959,2.389-1.833,2.834
	c9.489,1.996,21.907,9.826,28.53,16.681c3.29,3.406,5.976,7.139,8.28,11.27c2.437,4.367,2.297,9.012,4.688,13.385
	c0.229,0.42,0.53,3.334,0.834,3.666c0.106,0.816,0.707,2.521,0.833,3.334c0.326,3.973,0.643,5.376,1.167,9.333
	c-0.447,3.498,0.529,6.36,0.436,9.909c-0.34,1.574-0.727,3.133-0.984,4.762c-0.168,1.051,0.064,2.053,0.535,2.92
	c-0.011,0.082-0.015,0.162-0.022,0.242c-0.206,1.762-0.956,3.093,0.201,3.833c-0.036,0.748,0.652,0.587,0.666,1.333
	c-2.459-0.167-0.335,1.624-0.333,1.667c-0.44,3.144,0.201,5.569-0.218,8.681c-0.526,3.906,2.355,8.32,6.876,6.877
	c9.115-2.911,13.024-11.93,14.746-20.663C390.038,541.281,391.04,531.57,389.338,523.592z"></path>

<path fill="#403d3d" d="M425.04,423.418c0.497-1.344,0.608-2.832,0.208-4.322c-3.169-11.791-8.132-26.104-18.135-33.869
	c-1.451-1.125-3.062-1.875-4.729-1.943c-3.366-7.529-7.078-14.951-10.467-22.312c-2.473-5.371-5.018-10.687-7.67-15.941
	c-0.947-3.598-1.847-7.209-2.783-10.807c-3.009-11.559-6.507-23.658-13.513-33.502c-3.296-4.63-9.989-4.021-11.882,1.553
	c-0.364,1.074-0.653,2.141-0.896,3.201c-4.888,1.625-9.812,3.144-14.687,4.812c-2.293,0.783-3.75,2.329-4.446,4.104
	c-4.155,0.512-8.315,1.648-11.744,3.16c-0.114,0.051-0.217,0.114-0.329,0.168c-1.709-1.785-5.392-1.607-6.004,1.352
	c-0.35,1.691-0.63,3.391-0.867,5.092c-2.506,4.051-3.898,9.021-5.102,13.365c-0.514,1.856-0.087,3.467,0.844,4.662
	c-0.006,0.006-0.011,0.012-0.016,0.018c-2.726,2.635-5.646,5.025-8.75,7.176c-0.229-0.164-0.459-0.324-0.684-0.482
	c-0.752-1.268-1.765-2.449-2.917-3.459c-0.231-0.354-0.477-0.693-0.744-1.023c-0.985-1.209-1.79-2.463-2.928-3.541
	c-0.133-0.127-0.27-0.225-0.407-0.311c0.646-6.373,0.047-13.437,0.519-17.562c0.369-3.227-2.83-5.309-5.575-5.574
	c-13.773-1.336-27.173-4.207-41-5.205c-1.022-0.074-1.926,0.061-2.713,0.348c-2.3-1.225-4.541-2.562-6.728-3.944
	c-3.566-2.253-7.221,0.8-7.63,4.378c-0.475,4.146-0.66,8.309-0.623,12.473c-0.155,0.504-0.229,1.021-0.228,1.561
	c-0.079,0.123-0.169,0.24-0.238,0.369c-0.824,1.529-1.614,3.078-2.382,4.639c-0.463-0.406-0.992-0.719-1.643-0.715
	c-1.35,0.01-2.076,1.229-1.853,2.453c0.122,0.664,0.555,1.316,0.902,1.886c0.151,0.247,0.376,0.409,0.627,0.507
	c-4.096,8.934-7.476,18.238-10.881,27.514c-0.802,0.482-1.499,1.193-2.009,2.162c-1.266,2.408-2.431,4.869-3.521,7.363
	c-2.87,5.041-6.409,9.74-9.292,14.746c-1.24,2.154-1.125,4.15-0.249,5.695c-1.935,3.979-4.223,7.768-5.716,11.959
	c-0.271,0.762-0.297,1.461-0.145,2.078c-0.363,0.654-0.718,1.329-1.03,2.014c-2.595,3.592-5.442,7.045-8.645,10.305
	c-2.071,2.109-2.554,5.447-1.396,8.057c-2.226,1.609-2.913,4.984-1.716,7.609c0.001,0.004,0.001,0.008,0.002,0.013
	c1.1,3.985,3.914,5.362,6.991,7.644c1.806,1.338,3.719,1.328,5.332,0.543c5.041,3.131,9.748,6.879,15.941,7.805
	c5.221,0.781,9.776-2.953,8.513-8.514c-0.943-4.152-0.687-8.504,0.145-12.805c0.817-0.369,1.571-1.002,2.164-1.961
	c2.979-4.816,5.587-10.236,7.74-15.898c-2.714,18.61-4.854,37.333-4.079,56.137c-0.724,1.675-0.877,3.581-0.493,5.35
	c-0.333,0.528-0.609,1.076-0.864,1.737c-0.124,0.322-0.202,0.642-0.256,0.958c0.709-0.037,0.805,1.996,1.511,1.938
	c1.249,2.062,4.057,1.421,7.123,1.318c5.498-0.185,9.798-1.852,14.482-4.607c3.139-1.848,6.649-3.056,10.2-4.126
	c1.146-0.282,2.296-0.548,3.452-0.788c12.432-2.58,25.758-2.51,38.401-3.51c2.703-0.213,5.4-0.471,8.098-0.736
	c0.374,0.828,1.022,1.539,1.874,1.848c1.67,0.605,3.303,1.048,5.048,1.373c2.063,0.389,4.354,0.998,6.449,0.857
	c2.828-0.189,3.979-2.332,3.713-4.314c4.62,0.412,9.245,0.98,13.834,1.281c4.549,0.297,10.174,0.859,15.098-0.143
	c3.144,5.469,10.943,4.342,13.618-0.957c1.693,0.57,3.545,0.57,5.271,0.059c1.805,0.279,3.604,0.572,5.401,0.896
	c4.633,0.835,7.372-3.881,6.386-7.185c0.555-3.173-1.114-6.196-3.82-8.238c0.467,0.357,0.662,0.485,0.589,0.384
	c0.387,0.366-0.475-0.673-0.646-0.973c-0.506-0.885-0.902-1.837-1.303-2.774c-0.639-10.856-3.578-21.443-6.22-32.06
	c0.105-0.375,0.17-0.771,0.144-1.217c-0.271-4.229-0.404-8.44-0.539-12.646c3.722,9.133,1.472,4.508,6.347,11.883
	c0.626,0.812,8.29,15.041,9.051,15.578c0.415,1.014,0.856,2.045,1.31,3.143c1.388,3.373,5.008,6.76,9.058,5.146
	c0.243-0.1,0.488-0.195,0.731-0.291c0.147,0.602,0.461,1.168,0.88,1.584c0.197,0.195,0.426,0.366,0.664,0.514
	c0.944,0.576,1.988,0.549,2.918,0.146c2.181-0.545,2.95-3.14,3.646-5.007c0.069-0.186,0.101-0.375,0.13-0.562
	c3.893-1.623,7.74-3.357,11.411-5.385c0.108,0.127,0.215,0.258,0.333,0.381c1.15,1.203,2.736,1.484,4.327,1.518
	c2.181,0.043,4-1.852,4-4C427.34,425.404,426.386,424.062,425.04,423.418z"></path>

<path fill="rgba(26,26,26,0.25)"  d="M295.709,329.7c0.427-0.729,0.751-2.017,0.429-2.835
	c-0.43-1.094-0.86-2.186-1.29-3.279c-0.061-0.154-0.143-0.281-0.228-0.404c-0.052-0.605-0.093-1.221-0.094-1.848
	c-0.002-1.096,0.647-3.053-0.358-3.166c-3.503-0.396-8.022,1.871-11.495,1.768c-2.354-0.069-3.658,3.049-1.932,4.664
	c0.469,0.438,0.966,0.82,1.477,1.211c0.702,0.537,1.104,1.802,1.95,1.357c-0.095,2.744,1.978,4.639,3.698,6.309
	c0.553,0.537,1.167,0.836,1.784,0.951c0.177,0.389,0.362,0.776,0.521,1.172c0.307,0.762,1,1.244,1.749,1.437
	c0.118,2.233,3.403,2.216,3.513-0.033c0.022-0.473,0.023-0.932,0.015-1.387c-0.014-1.667-0.22-3.429-0.524-5.082
	C295.237,330.301,295.519,330.025,295.709,329.7z"></path>
<path fill="rgba(26,26,26,0.25)"  d="M330.903,317.668c-0.398-3.211-4.132-4.188-6.034-2.75
	c-1.655-0.805-3.903-0.492-5.315,1.398c-1.789,2.395-2.525,5.123-3.19,7.939c-0.013,0.025-0.021,0.053-0.033,0.076
	c-0.022,0.049-0.044,0.098-0.066,0.146c0.001,0,0.002,0,0.003,0.002c-0.148,0.346-0.298,0.689-0.438,1.033
	c-0.271,0.65-0.325,1.27-0.245,1.848c-0.971,3.133-2.586,5.863-3.888,8.896c-1.258,2.929,1.48,6.733,4.727,4.728
	C325.05,335.643,332.265,328.645,330.903,317.668z"></path>
<path fill="rgba(26,26,26,0.25)"  d="M210.674,441.084c-1.276-0.07-2.516-0.031-3.777,0.215
	c-0.281,0.059-2.822-1.697-3.203-1.904c-0.855-0.463-1.685-0.93-2.524-1.371c0.112-0.471,0.135-0.977,0.057-1.479
	c-0.375-2.412-3.548-4.244-5.573-5.203c-1.13-0.535-2.228-1.028-3.349-1.436c-0.265-1.555-1.413-2.896-3.298-2.705
	c-1.588,0.158-3.039,0.393-4.564,0.881c-2.307,0.736-3.166,3.412-1.771,5.301c-0.216,2.842,1.95,5.73,5.8,7.541
	c2.953,1.387,6.303,1.83,9.003,3.664c4.071,2.764,8.234,6.426,13.199,6.998C217.29,452.348,217.504,441.461,210.674,441.084z"></path>
<path fill="rgba(26,26,26,0.25)"  d="M423.674,421.666c-8.224,0.645-16.266,1.588-24.331,3.381
	c0.007,0.025,0.017,0.053,0.021,0.078c-1.411,0.471-2.264,1.629-2.535,2.895c-0.166,0.07-0.331,0.141-0.498,0.213
	c-2.802,1.211-2.368,4.656-0.502,6.4c-1.179,2.492,0.861,4.65,3.168,4.896c0.104,0.613,0.368,1.207,0.823,1.662
	c1.484,1.484,3.744,1.002,4.856-0.629c0.608-0.889,0.865-1.902,0.985-2.953c0.077-0.678-0.275-1.602-0.508-2.238
	c-0.012-0.027-0.022-0.051-0.032-0.076c2.032-1.578,4.522-2.654,7.172-3.465c4.165-0.439,8.249-1.271,12.321-2.947
	c0.01-0.002,0.021-0.006,0.032-0.008c0.279-0.08,0.529-0.193,0.766-0.324c0.036-0.016,0.073-0.027,0.11-0.047l-0.011-0.02
	C428.391,426.736,427.547,421.361,423.674,421.666z"></path>

<g>
	<path fill="#1A1A1A" d="M423.163,406.209c-4.354-8.998-9.647-17.508-14.821-26.045c-6.675-11.016-12.323-22.676-18.068-34.195
		c-7.579-15.195-14.788-30.41-18.365-47.083c5.307-3.607,10.229-7.754,14.488-12.512c8.616-9.622,12.323-21.681,13.7-34.318
		c1.584-14.538-0.715-29.608-4.881-43.54c-3.786-12.662-9.725-26.516-19.356-35.847c-2.726-2.64-7.691,0.871-5.398,4.166
		c13.619,19.575,21.781,41.418,22.042,65.493c0.116,10.798-1.616,22.225-7.124,31.662c-5.175,8.865-13.824,15.376-22.499,20.53
		c-18.053,10.727-40.441,17.032-61.447,17.256c-20.624,0.221-41.908-2.006-61.425-8.931c-18.381-6.521-35.912-19.696-38.407-40.287
		c-1.278-10.546,0.13-21.12,1.06-31.621c0.625-7.068,2.922-15.557-0.481-22.065c-0.591-1.13-2.3-0.809-2.627,0.343
		c-2.232,7.844-3.524,16.325-4.705,24.51c-1.56,10.814-2.579,21.583-0.999,32.452c2.96,20.365,20.157,34.565,38.075,42.176
		c-6.567,22.816-13.621,46.576-25.089,67.484c-8.674,15.812-18.322,31.035-25.067,47.836c-5.168,12.873-9.756,29.578,2.661,39.662
		c8.357,6.789,17.976,5.875,25.903-1.01c5.7-4.947,9.731-11.91,13.024-18.959c-2.392,15.482-3.315,31.02-2.899,46.678
		c0.427,16.064,1.99,32.576,6.394,48.08c0.088,0.309,0.186,0.621,0.278,0.934c1.946-0.383,3.894-0.744,5.847-1.092
		c-0.515-2.232-0.962-4.475-1.241-6.73c-0.137-0.668-0.257-1.355-0.367-2.047c-0.128-0.67-0.249-1.346-0.354-2.025
		c-3.084-13.184-3.937-26.875-4.151-40.367c-0.245-15.398,1.384-30.393,3.051-45.684c0.769-7.051,1.672-14.066,2.654-21.068
		c2.686-8.141,4.942-16.432,7.002-24.729c3.243-13.061,5.641-26.098,7.072-39.477c0.92-8.596,2.421-17.584,1.795-26.248
		c-0.233-3.229-4.739-3.211-5,0c-0.851,10.479-2.698,20.814-4.953,31.072c-3.44,15.654-6.532,31.389-10.891,46.826
		c-3.961,14.027-8.635,28.33-16.361,40.789c-4.136,6.672-11.081,15.242-19.383,11.244c-9.81-4.725-9.703-14.648-7.208-23.992
		c3.624-13.572,10.888-26.197,17.817-38.305c6.196-10.826,12.52-21.279,17.458-32.762c7.374-17.148,14.464-35.773,15.913-54.537
		c18.371,7.039,38.378,9.604,57.929,10.332c20.947,0.779,41.149-3.383,60.372-11.703c4.333-1.875,8.605-4.021,12.712-6.454
		c4.708,26.616,17.62,52.239,30.732,75.567c8.06,14.34,18.437,27.264,24.331,42.795c2.127,5.604,4.82,14.037,0.649,19.414
		c-2.971,3.828-9.704,5.881-13.994,3.797c-4.979-2.42-8.774-7.521-11.845-11.947c-4.644-6.691-8.348-14.037-11.753-21.416
		c-6.929-15.02-12.276-30.824-16.742-46.734c-1.86-6.627-3.509-13.32-4.851-20.072c-0.531-2.67-0.986-5.354-1.355-8.051
		c-0.29-2.113-1.438-4.203-1.895-6.328c-0.356-1.662-3.039-1.691-3.375,0c-2.537,12.783,2.379,26.979,5.718,39.299
		c1.858,6.855,3.914,13.68,6.184,20.432c2.729,26.465,8.467,52.533,12.82,78.762c4.628,27.883,9.206,56.408,2.769,84.443
		c-1.034,4.504-5.738,21.914-12.935,12.596c-2.579-3.34-2.64-8.588-2.798-12.59c-0.199-5.041,0.126-10.102,0.363-15.133
		c0.976-20.656-8.709-43.875-24.867-56.836c-20.366-16.336-51.502-15.779-72.273-0.607c-11.505,8.402-17.736,19.145-19.38,33.361
		c-0.845,7.305-0.447,14.984-0.459,22.598c2.242-0.23,4.486-0.436,6.729-0.592c-0.076-2.055-0.188-4.109-0.323-6.158
		c-0.882-13.418-0.973-27.004,8.108-37.893c7.24-8.68,18.27-12.104,28.976-14.236c10.63-2.117,21.176-0.918,31.281,2.738
		c20.622,7.461,34.548,33.715,35.415,54.77c0.384,9.297-1.01,18.672,1.259,27.828c1.666,6.721,8.573,13.586,15.977,10.496
		c8.469-3.535,9.771-16.455,11.369-24.191c3.69-17.863,2.419-36.975,1.12-55.023c-1.938-26.941-8.469-53.164-13.624-79.623
		c0.935,2.117,1.896,4.223,2.887,6.312c5.307,11.189,12.634,26.344,24.966,31.203c5.557,2.189,11.771,0.566,16.828-2.223
		c5.909-3.26,8.457-9.617,8.388-16.096C431.141,423.492,427.124,414.395,423.163,406.209z"></path>
	<path fill="#1A1A1A" d="M259.09,542.25c-0.115-2.881-0.161-5.869-0.5-8.75c-1.932,0.396-4.771,1.654-6.706,1.951
		c0.531,4.338,0.581,8.049,0.831,11.924c0.034,0.531,0.054,1.225,0.056,2.006c0.435,2.518,0.191,5.445,0.009,7.703
		c-0.161,1.986-0.639,4.543-2.324,5.883c-0.469,0.479-1.115,0.82-1.802,0.982c-2.66,1.51-6.459-1.125-8.111-2.979
		c-3.825-4.291-4.924-11.176-6.068-16.531c-0.54-2.527-1.193-5.057-1.756-7.598c-1.612-0.342-4.28,0.416-5.899,0.92
		c1.993,8.107,3.265,16.42,7.205,23.895c3.387,6.426,12.128,11.682,18.86,6.672C260.585,562.598,259.422,550.533,259.09,542.25z"></path>
</g>

<path fill="#1A1A1A" d="M245.836,229.902c-0.366-0.132-0.688-0.143-0.972-0.079c-1.134-0.526-2.473-0.738-4.01-0.497
	c-6.248,0.981-6.635,9.387-3.823,13.585c3.304,4.932,10.342,4.159,13.177-0.811C252.824,237.513,250.755,231.683,245.836,229.902z
	 M246.987,239.15c-0.811,1.788-3.915,2.75-5.229,0.999c-1.085-1.447-1.391-4.399-0.112-5.844c0.801-0.905,1.741-1.263,2.77-1.175
	c0.135,0.104,0.282,0.199,0.456,0.272C247.034,234.305,247.939,237.05,246.987,239.15z"></path>
<path fill="#1A1A1A" d="M369.747,230.9c-0.402-0.296-0.889-0.385-1.368-0.325c-2.281-0.935-4.787-0.753-6.521,1.548
	c-1.957,2.598-2.312,6.095-0.939,9.032c1.612,3.453,6.325,4.048,9.178,1.841C373.87,240.078,373.452,233.619,369.747,230.9z
	 M367.578,240.272c-1.584,0.865-2.784-0.277-3.111-1.43c-0.386-1.359-0.113-2.869,0.586-4.028c0.231-0.385,0.455-0.578,1-0.712
	c0.064-0.016,0.227,0.021,0.428,0.088c0.219,0.365,0.522,0.695,0.893,0.966C369.224,236.517,369.938,238.983,367.578,240.272z"></path>

<path fill="#1A1A1A" d="M390.34,201.625c-13.679,1.427-23.848-5.861-28.534-18.581c-1.031-2.798-4.919-3.741-6.569-0.858
	c-1.05,1.833-2.062,3.729-3.115,5.605c0.827-8.213,0.568-16.511-0.443-24.791c-0.67-5.489-8.217-5.672-8.676,0
	c-1.737,21.461-20.901,29.704-38.028,37.93c-13.47,6.47-26.981,13.306-35.176,25.206c0.158-17.649,5.986-36.286,15.792-50.236
	c2.828-4.022-3.649-7.601-6.5-3.8c-20.558,27.411-48.341,47.997-82.298,54.911c-2.258,0.46-1.762,4.359,0.548,4.051
	c17.566-2.341,34.823-7.681,49.801-17.303c7.022-4.511,13.459-9.729,19.391-15.472c-4.138,13.472-5.291,27.846-2.462,41.614
	c0.681,3.315,5.77,3.176,6.54,0c4.821-19.876,28.763-26.894,45.146-34.227c11.426-5.114,22.313-12.029,29.051-21.781
	c-0.061,5.431-0.583,10.854-1.676,16.222c-0.679,3.33,3.003,5.454,5.561,3.237c3.789-3.284,6.586-7.381,9.183-11.616
	c6.496,11.596,18.303,18.369,32.465,16.638C394.579,207.857,394.695,201.171,390.34,201.625z"></path>
<path fill="#1A1A1A" d="M417.974,203.206c-9.81-7.362-17.255-18.247-20.439-30.086c-0.064-0.24-0.15-0.456-0.248-0.656
	c5.245-0.056,10.218-2.431,14.33-6.187c1.918-1.751,0.723-4.604-1.421-5.381c-8.387-3.04-14.971-12.362-20.221-19.082
	c-7.814-10.001-15.138-20.294-23.602-29.779c-7.352-8.239-15.498-16.193-25.942-20.265c-5.347-2.084-10.36-2.078-15.098-0.676
	c1.532-3.555,2.318-7.229,2.504-11.094c0.189-3.944-5.028-5.923-7.677-3.18c-17.797,18.432-45.86,19.681-69.674,23.749
	c-13.362,2.282-30.954,5.729-40.99,16.07c0.179-0.964,0.364-1.927,0.56-2.89c0.571-2.818-2.541-4.618-4.708-2.74
	c-10.22,8.859-17.315,21.502-21.882,34.073c-3.341,9.197-4.911,19.556-1.465,28.507c-0.865-0.473-1.722-0.958-2.555-1.482
	c-1.281-0.807-2.75,0.033-3.221,1.311c-2.709,7.355,0.404,14.747,6.287,19.273c-3.534,4.328-8.45,7.167-12.791,10.691
	c-1.974,1.602-1.045,4.597,0.75,5.816c2.44,1.658,4.985,2.449,7.943,2.217c1.084-0.085,2.12-0.386,3.158-0.689
	c1.108-0.324,2.85-0.487,2.394-1.337c0.307,0.573,0.749,0.934,1.242,1.136c-4.055,10.693-6.827,21.509-16.106,29.237
	c-1.754,1.461-0.864,4.896,1.397,5.292c3.446,0.604,6.303,0.766,9.204,0.401c-1.679,4.797-1.381,9.734,1.766,14.628
	c4.055,6.306,10.101,10.478,13.443,17.337c1.465,3.007,5.765,0.805,5.141-2.167c-1.196-5.696-5.937-10.521-9.831-14.582
	c-5.687-5.93-7.063-10.95-2.33-18.18c1.35-2.062-0.905-5.28-3.336-4.34c-2.071,0.801-4.217,1.132-6.386,1.191
	c7.107-8.938,9.516-19.672,14.004-30.562c1.022-2.479-2.26-4.415-4.244-3.465c-1.666-1.851-4.475-1.599-7.306-1.447
	c3.253-3.025,6.122-6.41,8.05-10.505c0.807-1.712,0.088-3.271-1.614-3.969c-5.227-2.141-7.945-6.884-7.263-12.073
	c2.436,1.263,4.968,2.431,7.026,4.197c2.094,1.797,4.904-0.962,3.038-3.038c-8.294-9.228-4.18-24.085-0.106-34.304
	c3.159-7.923,7.731-16.021,13.415-22.797c-0.304,2.527-0.508,5.065-0.542,7.62c-0.041,3.081,4.533,3.676,5.332,0.722
	c5.315-19.661,32.68-21.863,49.383-23.2c20.18-1.616,41.606-3.812,58.695-14.822c-1.329,2.692-3.651,5.192-3.401,8.301
	c0.243,3.028,3.956,5.158,6.327,2.621c15.525-16.611,37.01,9.894,46.33,20.915c7.606,8.994,14.959,18.205,22.872,26.937
	c4.492,4.957,9.236,10.504,15.067,14.096c-3.111,1.727-6.607,2.275-10.219,0.572c-1.217-0.574-2.539-0.466-3.518,0.165
	c-0.311,0.458-0.559,0.942-0.765,1.443c1.894,8.892,5.464,16.847,9.777,24.823c2.617,4.153,5.714,8.008,9.221,11.414
	c-1.536-0.083-3.075-0.283-4.635-0.713c-2.339-0.645-4.54,2.025-3.197,4.158c7.212,11.458,7.635,25.667,3.889,38.44
	c-1.769-3.237-4.405-5.856-7.979-6.556c-1.181-0.231-2.664,0.801-2.152,2.153c0.83,2.193,2.177,3.359,3.56,5.285
	c1.788,2.491,2.785,6.235,2.929,9.25c0.147,3.081,4.331,4.494,5.961,1.615c8.058-14.227,9.642-32.747,2.156-47.407
	c2.628,0.185,5.291,0.04,8.082,0.029C419.82,209.224,420.41,205.035,417.974,203.206z"></path>

<path fill="#1A1A1A" d="M336.822,288.812c-2.555-3.183-7.583-3.173-11.734-3.681c-5.672-0.694-11.432-0.998-17.158-0.848
	c-10.635,0.281-21.51,1.893-31.554,4.922c-4.365,1.317-2.568,7.252,1.928,6.028c9.609-2.615,19.574-3.691,29.625-3.869
	c4.866-0.085,9.7-0.043,14.555,0.302c4.257,0.303,9.353,2.279,13.308,0.537C337.111,291.623,337.679,289.879,336.822,288.812z"></path>

<path fill="#1A1A1A" d="M209.854,450.41c-8.889-4.602-17.175-10.867-26.966-13.398c-2.198-0.566-3.765,2.754-1.589,3.771
	c9.192,4.289,16.86,11.219,26.244,15.109C210.702,457.205,212.837,451.953,209.854,450.41z"></path>
<path fill="#1A1A1A" d="M216.413,442.166c-9.755-5.771-19.205-12.133-28.172-19.066c-2.706-2.092-6.54,1.686-3.801,3.803
	c9.382,7.254,18.907,14.188,29.828,18.936C216.716,446.9,218.832,443.598,216.413,442.166z"></path>
<path fill="#1A1A1A" d="M425.34,427c-4.396,0.141-9.064,2.303-13.124,3.926c-3.917,1.568-7.468,3.562-10.774,6.174
	c-2.722,2.148,1.11,5.926,3.801,3.803c3.323-2.623,7.14-4.336,11.071-5.832c3.53-1.346,7.463-2.285,10.44-4.654
	C428.148,429.305,426.967,426.949,425.34,427z"></path>
<path fill="#1A1A1A" d="M425.104,417.229c-5.992-1.402-14.001,0.873-19.773,2.514c-5.578,1.582-11.906,4.262-14.102,10.049
	c-0.629,1.658,1.591,2.494,2.697,1.568c4.038-3.371,9.155-5.148,14.188-6.414c5.58-1.402,11.521-0.775,16.987-2.17
	C427.819,422.08,427.889,417.881,425.104,417.229z"></path>
<path fill="#1A1A1A" d="M313.373,344.764c10.801-4.936,29.409-23.426,13.724-34.059c-1.229-0.833-2.893,0.822-2.052,2.053
	c1.904,2.787,4.05,4.912,4.465,8.445c0.435,3.688-1.659,7.1-3.944,9.75c-3.134,3.633-7.124,6.441-11.322,8.751
	c0.067-7.339,2.621-14.558,4.762-21.521c0.228-0.735-0.928-1.246-1.257-0.531c-3.837,8.336-7.896,15.744-7.452,25.209
	c-1.413,1.541-2.826,3.076-4.257,4.602c-4.146-2.855-7.095-6.838-8.19-11.878c-0.052-0.237-0.14-0.431-0.252-0.59
	c1.449-5.127,1.783-10.237,1.245-15.995c-0.217-2.324-2.429-2.861-3.824-2.002c-6.52-1.873-12.901-1.135-18.167,3.511
	c-0.873,0.771-0.762,2.196,0,2.983c5.77,5.961,11.494,11.799,16.809,18.191c0.377,0.453,1.269,0.342,1.517-0.195
	c0.221-0.479,0.431-0.952,0.631-1.426c1.568,4.303,4.48,7.898,8.202,10.674c-2.307,18.387-0.08,37.397,1.191,55.795
	c1.46,21.117,3.22,42.291,3.392,63.469c0.029,3.547,5.488,3.549,5.5,0c0.07-20.66-1.604-41.209-3.345-61.779
	c-1.587-18.756-2.548-37.562-4.01-56.314c0.368-0.084,0.719-0.264,0.986-0.521C309.745,349.447,312.071,347.291,313.373,344.764z
	 M293.928,338.921c-4.252-5.463-7.866-11.528-12.487-16.679c3.531-2.33,8.243-3.111,12.453-3.314
	c-0.014,0.23-0.009,0.475,0.036,0.737C294.967,325.809,295.473,332.764,293.928,338.921z"></path>
<path fill="#1A1A1A" d="M383.34,465.125c-27.6-0.998-55.169-0.076-82.732,1.443c-13.214,0.729-26.644,1.486-39.75,3.338
	c-12.703,1.793-27.857,3.424-38.799,10.607c-0.472,0.311-0.285,1.021,0.284,1.049c12.646,0.572,25.742-3.863,38.178-5.85
	c14.006-2.234,27.766-4.191,41.947-4.93c26.947-1.398,53.944,1.117,80.875,2.09C388.34,473.057,388.322,465.305,383.34,465.125z"></path>

<path fill="rgba(26,26,26,0.25)"  d="M295.709,329.7c0.427-0.729,0.751-2.017,0.429-2.835
	c-0.43-1.094-0.86-2.186-1.29-3.279c-0.061-0.154-0.143-0.281-0.228-0.404c-0.052-0.605-0.093-1.221-0.094-1.848
	c-0.002-1.096,0.647-3.053-0.358-3.166c-3.503-0.396-8.022,1.871-11.495,1.768c-2.354-0.069-3.658,3.049-1.932,4.664
	c0.469,0.438,0.966,0.82,1.477,1.211c0.702,0.537,1.104,1.802,1.95,1.357c-0.095,2.744,1.978,4.639,3.698,6.309
	c0.553,0.537,1.167,0.836,1.784,0.951c0.177,0.389,0.362,0.776,0.521,1.172c0.307,0.762,1,1.244,1.749,1.437
	c0.118,2.233,3.403,2.216,3.513-0.033c0.022-0.473,0.023-0.932,0.015-1.387c-0.014-1.667-0.22-3.429-0.524-5.082
	C295.237,330.301,295.519,330.025,295.709,329.7z"></path>
<path fill="rgba(26,26,26,0.25)"  d="M330.903,317.668c-0.398-3.211-4.132-4.188-6.034-2.75
	c-1.655-0.805-3.903-0.492-5.315,1.398c-1.789,2.395-2.525,5.123-3.19,7.939c-0.013,0.025-0.021,0.053-0.033,0.076
	c-0.022,0.049-0.044,0.098-0.066,0.146c0.001,0,0.002,0,0.003,0.002c-0.148,0.346-0.298,0.689-0.438,1.033
	c-0.271,0.65-0.325,1.27-0.245,1.848c-0.971,3.133-2.586,5.863-3.888,8.896c-1.258,2.929,1.48,6.733,4.727,4.728
	C325.05,335.643,332.265,328.645,330.903,317.668z"></path>
<path fill="rgba(26,26,26,0.25)"  d="M210.674,441.084c-1.276-0.07-2.516-0.031-3.777,0.215
	c-0.281,0.059-2.822-1.697-3.203-1.904c-0.855-0.463-1.685-0.93-2.524-1.371c0.112-0.471,0.135-0.977,0.057-1.479
	c-0.375-2.412-3.548-4.244-5.573-5.203c-1.13-0.535-2.228-1.028-3.349-1.436c-0.265-1.555-1.413-2.896-3.298-2.705
	c-1.588,0.158-3.039,0.393-4.564,0.881c-2.307,0.736-3.166,3.412-1.771,5.301c-0.216,2.842,1.95,5.73,5.8,7.541
	c2.953,1.387,6.303,1.83,9.003,3.664c4.071,2.764,8.234,6.426,13.199,6.998C217.29,452.348,217.504,441.461,210.674,441.084z"></path>
<path fill="rgba(26,26,26,0.25)"  d="M423.674,421.666c-8.224,0.645-16.266,1.588-24.331,3.381
	c0.007,0.025,0.017,0.053,0.021,0.078c-1.411,0.471-2.264,1.629-2.535,2.895c-0.166,0.07-0.331,0.141-0.498,0.213
	c-2.802,1.211-2.368,4.656-0.502,6.4c-1.179,2.492,0.861,4.65,3.168,4.896c0.104,0.613,0.368,1.207,0.823,1.662
	c1.484,1.484,3.744,1.002,4.856-0.629c0.608-0.889,0.865-1.902,0.985-2.953c0.077-0.678-0.275-1.602-0.508-2.238
	c-0.012-0.027-0.022-0.051-0.032-0.076c2.032-1.578,4.522-2.654,7.172-3.465c4.165-0.439,8.249-1.271,12.321-2.947
	c0.01-0.002,0.021-0.006,0.032-0.008c0.279-0.08,0.529-0.193,0.766-0.324c0.036-0.016,0.073-0.027,0.11-0.047l-0.011-0.02
	C428.391,426.736,427.547,421.361,423.674,421.666z"></path>
</svg>