<!DOCTYPE svg PUBLIC "-//W3C//DTD SVG 1.1//EN" "http://www.w3.org/Graphics/SVG/1.1/DTD/svg11.dtd"><svg version="1.1" id="Layer_1" xmlns="http://www.w3.org/2000/svg" xmlns:xlink="http://www.w3.org/1999/xlink" x="0px" y="0px" width="600px" height="600px" viewBox="0 0 600 600" enable-background="new 0 0 600 600" xml:space="preserve">
<path fill="#b5987e" d="M423.801,420.873c-3.123-7.451-7.406-14.242-11.883-20.92c-0.45-5.402-4.109-10.451-6.722-15.02
	c-3.103-5.428-6.061-10.932-9.16-16.355c-2.008-3.512-4.122-7.002-6.369-10.406c-0.726-1.404-1.466-2.801-2.231-4.188
	c-0.639-1.156-1.3-2.305-1.977-3.447c-1.476-7.727-4.284-15.164-7.242-22.449c-3.982-9.816-7.964-19.648-12.066-29.413
	c-0.281-0.67-0.655-1.23-1.091-1.694c8.987-5.386,17.46-11.864,24.782-19.078c1.072-1.056,2.045-2.162,2.967-3.292
	c0.111-0.267,0.226-0.531,0.325-0.807c1.227-3.325,2.337-6.708,3.101-10.173c1.571-7.154,2.25-14.434,2.172-21.758
	c-0.084-7.896-0.628-15.782-1.226-23.665c-1.823-4.474-4.151-8.715-7.062-12.489c-0.062-0.276-0.123-0.554-0.186-0.827
	c-1.564-7.039-4.754-13.344-9.145-19.003c-0.056-0.071-0.117-0.137-0.172-0.208c-2.382-8.318-10.63-14.582-16.632-20.457
	c-7.003-6.855-13.012-12.084-22.597-14.933c-4.52-1.344-9.216-2.105-13.947-2.625c-6.475-2.355-13.062-4.392-19.86-5.283
	c-6.486-2.721-13.351-4.15-20.609-2.809c-5.467,1.01-9.317,4.636-13.401,7.917c-0.292,0.096-0.584,0.192-0.875,0.289
	c-17.29,3.257-32.859,9.624-46.644,21.301c-6.962,5.897-12.92,13.156-17.393,21.1c-3.657,6.496-5.297,12.704-4.642,19.477
	c-1.574,4.415-2.755,9.008-3.465,13.748c-0.814,5.435-1.266,10.739-0.802,16.22c0.108,1.279,0.242,2.556,0.386,3.832
	c-1.83,1.036-3.233,2.718-3.632,5.045c-0.43,2.508-0.475,5.374,0.213,7.876c0.152,0.553,0.367,1.036,0.607,1.492
	c1.43,9.652,4.692,18.406,11.236,26.507c7.347,9.096,18.076,14.842,28.69,19.21c0.029,0.012,0.059,0.021,0.088,0.034
	c-1.368,0.86-2.382,2.319-2.494,4.378c-1.26,23.15-11.254,45.09-21.069,65.748c-3.721,7.83-7.92,15.43-11.858,23.164
	c-4.726,5.562-9.113,12.045-11.521,18.898c-0.37,1.057-0.744,2.119-1.105,3.189c-1.89,2.854-3.418,5.809-4.408,8.906
	c-4.625,10.516-7.223,23.104,0.622,31.096c5.346,5.445,14.127,4.84,20.079,0.922c6.616-4.354,10.705-11.771,14.03-18.732
	c3.462-7.25,6.529-14.717,9.364-22.326c-0.266,4.227-0.333,8.461-0.304,12.701c-0.825,0.812-1.383,1.956-1.44,3.434
	c-0.021,0.555-0.054,1.106-0.089,1.66c-1.322,1.071-2.226,2.727-2.209,4.34c0.041,3.852,0.214,7.693,1.275,11.414
	c0.036,0.125,0.092,0.229,0.134,0.346c-1.11,8.152-1.98,16.33-2.131,24.566c-0.069,3.785-0.267,10.729,1.221,16.338
	c-0.004,2.68,0.061,5.361,0.214,8.039c-2.464,23.736,0.102,50.547,17.639,66.23c4.001,2.695,11.005,0.191,11.8-4.799
	c1.661-10.43,1.964-20.826,1.845-31.367c-0.104-9.206-0.607-18.639,0.803-27.771c1.703-11.031,9.644-18.137,17.381-25.342
	c4.017-1.4,8.021-2.859,12.045-4.232c8.378-1.752,16.831-2.855,25.435-2.727c8.824,0.133,17.578,1.938,25.438,5.922
	c2.105,3.946,4.421,7.826,7.822,11.338c4.146,4.283,8.866,7.029,12.71,10.969c2.49,6.656,3.105,13.746,3.396,20.898
	c0.011,0.025,0.021,0.051,0.031,0.076c2.307,6.102,2.979,12.654,3.536,19.111c0.618,7.158,0.756,14.504,2.789,21.449
	c0.697,2.391,1.55,4.764,2.753,6.949c4.089,2.664,10.11,0.869,11.726-4.354c5.771-18.686,7.737-37.979,7.438-57.504
	c-0.301-19.527-4.116-38.236-7.354-57.389c-2.857-16.92-4.251-34.367-7.313-51.297c1.521,3.188,3.157,6.314,4.947,9.377
	c2.388,4.08,4.561,9.1,7.975,12.58l0.041,0.062c0.067,0.867,0.29,1.764,0.712,2.676c0.535,1.156,1.127,2.27,1.745,3.361
	c1.65,3.66,4.318,7.914,7.593,11.631c0.331,0.527,0.67,1.156,0.698,1.443c0.433,4.371,4.512,6.305,7.824,5.709
	c4.146,2.297,8.594,3.025,12.854,0.865c1.464-0.549,2.82-1.479,3.841-2.801C428.681,436.451,426.613,427.584,423.801,420.873z
	 M360.48,346.246c-0.004-0.553,0.016-1.105,0.002-1.658c0.062,0.049,0.134,0.082,0.196,0.127c0.034,0.525,0.095,1.059,0.163,1.596
	C360.725,346.285,360.601,346.27,360.48,346.246z M367.413,367.807c-0.74-1.881-1.55-3.738-2.396-5.586
	c0.257,0.266,0.506,0.533,0.747,0.807c0.543,1.488,1.104,2.973,1.688,4.441C367.436,367.582,367.428,367.695,367.413,367.807z"></path>

<path fill="#331c01" d="M410.844,233.494c-0.034-4.506-0.615-9.005-1.219-13.462c-0.581-4.289-2.299-8.448-4.548-12.339
	c2.165-0.449,3.624-2.792,3.762-4.878c0.265-4.011-3.869-8.186-6.224-11.089c-0.69-0.852-1.399-1.703-2.105-2.562
	c-0.633-0.864-1.304-1.704-2.006-2.518c-1.188-1.555-2.299-3.162-3.199-4.881c-0.408-0.778-0.908-1.378-1.464-1.829
	c0.479-1.634,0.524-3.417,0.017-4.779c-0.608-1.628-1.319-3.194-2.111-4.71c1.111-0.956,1.341-0.856,1.004-2.697
	c-0.078-0.425-0.55,0.582-0.125-1.5c2.517,1.569,5.565,1.464,8.686,2.154c4.865,1.076,6.938-6.354,2.062-7.474
	c-4.336-0.995-7.719-3.241-10.841-6.075c-0.031-0.217-0.061-0.43-0.094-0.651c-0.489-3.231-2.545-5.908-4.465-8.431
	c-4.389-5.769-10.286-10.28-15.734-15.003c-0.37-0.321-0.754-0.54-1.141-0.701c-4.762-7.161-9.543-14.28-15.103-20.915
	c-6.938-8.278-16.303-17.209-27.972-16.302c-3.127,0.243-6.17,0.903-8.864,2.077c0.017-0.021,0.034-0.039,0.051-0.06
	c3.954-4.92-2.722-11.971-7.071-7.071c-6.338,7.14-15.365,9.981-24.51,11.592c-10.895,1.919-22.119,2.049-33.123,3.003
	c-12.024,1.043-24.209,3.043-34.087,8.512c-0.984,0.096-1.982,0.596-2.866,1.642c-0.056,0.066-0.106,0.134-0.162,0.2
	c-4.364,2.9-8.171,6.611-11.171,11.387c0.592-3.518-4.276-6.187-6.161-2.522c-2.596,5.05-5.122,10.157-7.314,15.396
	c-3.112,4.253-4.772,11.044-5.99,15.176c-2.333,7.917-2.511,16.308-2.014,24.485c0.04,0.657,0.231,1.21,0.511,1.68
	c-1.06-0.492-2.131-1.105-3.24-1.875c-2.831-1.964-6.109,1.797-4.534,4.534c2.195,3.812,4.929,6.812,8.343,9.107
	c-0.764,2.593-1.693,5.157-2.098,7.815c-1.892,1.249-3.698,2.686-4.687,4.531c-1.251,2.337,0.501,4.445,2.665,4.49
	c-0.009,0.035-0.019,0.07-0.028,0.104c0.242-0.032,0.487-0.084,0.731-0.127c0.286-0.004,0.564-0.058,0.827-0.161
	c1.124-0.255,2.26-0.625,3.384-1.055c0.121,1.596,1.012,3.111,2.674,3.71c-0.131,0.836-0.254,1.674-0.411,2.508
	c-1.292,6.863-3.775,17.247-11.168,20.039c-5.77,2.179-3.516,11.275,2.592,9.401c1.853-0.568,3.532-1.357,5.071-2.31
	c-0.287,1.872-0.538,3.75-0.718,5.643c-0.111,1.165-0.154,2.263-0.12,3.321c-4.303,4.188-0.38,13.404,3.711,16.554
	c1.018,0.784,2.082,0.931,3.053,0.681c0.729,1.156,1.489,2.277,2.514,3.271c1.003,0.972,2.971,0.328,2.881-1.193
	c-0.231-3.888-1.241-7.7-1.722-11.589c-0.195-1.578,1.239-3.121,1.186-4.764c-0.068-2.094-0.124-4.185-0.192-6.279
	c-0.214-6.532,0.675-13.087,1.484-19.593c1,0.626,2.205,0.96,3.48,0.783c21.254-2.952,39.095-13.53,55.229-27.188
	c7.511-6.358,14.406-13.413,20.164-21.407c0.238-0.331,0.485-0.685,0.733-1.043c0.187,0.16,0.385,0.305,0.591,0.44
	c-0.581,1.449-1.101,2.924-1.495,4.451c-0.206,0.795-0.235,1.545-0.148,2.249c-2.475,5.307-4.017,10.969-5.26,16.744
	c-0.792,3.684-1.482,7.386-2.327,11.059c-0.99,4.305-0.506,8.293-2.089,12.548c-1.367,3.675,4.738,6.254,6.343,2.674
	c0.376-0.637,0.745-1.275,1.118-1.913c3.412-4.782,10.609-7.892,15.441-10.377c6.364-3.273,12.888-6.226,19.269-9.465
	c7.818-3.969,14.262-9.546,20.776-15.348c7.587-6.757,15.472-14.702,19.734-24.063c0.137-0.3,0.266-0.609,0.39-0.923
	c0.448,3.603,0.871,7.222,0.965,10.844c-0.457,2.779-0.562,5.693-0.565,8.827c-0.004,3.771,3.826,4.583,6.116,2.861
	c0.596,1.418,1.395,2.751,2.467,3.935c5.304,5.859,13.804,9.296,20.78,12.643c2.635,1.264,5.871,0.617,7.827-1.22
	c0.937,1.34,2.022,2.538,3.341,3.502c0.53,0.389,1.086,0.655,1.65,0.819c2.141,5.45,2.267,11.083,2.834,17.136
	c0.653,6.971-1.566,17.013,2.419,23.033c2.854,4.311,8.689,4.292,11.549,0C411.298,242.93,410.877,237.892,410.844,233.494z
	 M200.621,211.615c-0.453,0.537-0.484,1.389-0.133,1.958c-0.24,0.188-0.473,0.389-0.709,0.583c0.296-1.422,0.542-2.855,0.767-4.291
	c0.671-0.079,1.34-0.165,2.005-0.259C201.878,210.236,201.235,210.887,200.621,211.615z"></path>

<path fill="#001a04" d="M286.286,471.381c-2.606-1.455-5.865,0.146-8.506,0.977c-0.499,0.156-0.994,0.328-1.489,0.502
	c-3.551-0.23-6.896,0.334-9.979,1.514c-0.974-1.105-2.465-1.756-4.051-1.281c-6.581,1.965-13.235,3.758-19.976,5.092
	c-0.628-0.168-1.303-0.182-1.995,0.018c-0.812,0.23-1.663,0.484-2.495,0.795c-2.306,0.381-4.622,0.699-6.949,0.947
	c-0.676-0.305-1.265-0.369-1.92-0.654c-1.743-0.762-4.154-0.293-4.621,1.879c-0.455,2.113-0.728,4.568-0.438,6.791
	c-0.792,1.018-1.237,2.365-1.107,4.045c0.735,9.52,3.006,18.601,5.814,27.693c0.666,2.152,1.279,4.453,1.913,6.797
	c0.109,2.502,0.19,5.004,0.195,7.51c0.005,2.365,0.979,4.058,2.385,5.113c-0.089,0.736-0.034,1.535,0.194,2.381
	c0.017,0.371,0.057,0.75,0.138,1.143c0.301,1.464,0.629,2.918,0.951,4.375c0.296,1.555,0.589,3.105,1.003,4.641
	c0.147,0.547,0.347,1.03,0.58,1.471c-0.066,0.781,0.039,1.633,0.367,2.543c0.338,0.939,0.724,1.818,1.133,2.676
	c0.25,0.846,0.626,1.545,1.096,2.113c0.709,1.258,1.481,2.488,2.323,3.754c2.843,4.275,10.373,4.203,11.61-1.518
	c1.632-7.547,1.183-15.023,0.314-22.514c2.017-0.256,3.875-1.805,3.875-4.178h0.028c0.202-6.381-1.162-12.932-1.254-19.358
	c-0.09-6.173,0.286-12.343,1.927-18.312c2.521-9.17,9.325-14.438,16.683-19.244c1.99-0.814,4.025-1.51,6.088-2.141
	c2.531-0.771,5.149-0.808,6.832-2.998C287.574,473.146,287.096,471.834,286.286,471.381z"></path>
<path fill="#001a04" d="M389.338,523.592c0.132-3.531-0.217-6.961-0.852-10.334c0.312-3.537-0.732-7.725-1.461-10.975
	c3.739-3.197,2.726-10.15,2.252-14.502c-0.644-5.896-2.18-11.795-4.094-17.395c-1.71-5.002-7.568-5.195-10.407-2.407
	c-4.7-1.519-9.983-1.896-14.54-2.06c-6.325-0.229-15.104-0.238-20.549,3.557c-0.396,0.275-0.721,0.582-0.984,0.908
	c-3.03-0.525-6.15-0.877-9.37-1.15c-0.652-0.07-4.485-0.525-5.164-0.568c-2.172-0.142-3.959,2.389-1.833,2.834
	c9.489,1.996,21.907,9.826,28.53,16.681c3.29,3.406,5.976,7.139,8.28,11.27c2.437,4.367,2.297,9.012,4.688,13.385
	c0.229,0.42,0.53,3.334,0.834,3.666c0.106,0.816,0.707,2.521,0.833,3.334c0.326,3.973,0.643,5.376,1.167,9.333
	c-0.447,3.498,0.529,6.36,0.436,9.909c-0.34,1.574-0.727,3.133-0.984,4.762c-0.168,1.051,0.064,2.053,0.535,2.92
	c-0.011,0.082-0.015,0.162-0.022,0.242c-0.206,1.762-0.956,3.093,0.201,3.833c-0.036,0.748,0.652,0.587,0.666,1.333
	c-2.459-0.167-0.335,1.624-0.333,1.667c-0.44,3.144,0.201,5.569-0.218,8.681c-0.526,3.906,2.355,8.32,6.876,6.877
	c9.115-2.911,13.024-11.93,14.746-20.663C390.038,541.281,391.04,531.57,389.338,523.592z"></path>

<path fill="#3d3d3d" d="M400.01,377.201c0.355-1.664,0.145-3.451-0.912-5.15c-1.506-2.428-3.011-4.854-4.503-7.287
	c-1.387-3.688-3.598-7.162-6.106-10.338c-0.303-0.535-0.615-1.064-0.912-1.604c-3.606-6.537-5.993-13.383-8.566-20.354
	c-2.352-6.369-6.312-12.242-8.393-18.638c-0.885-2.722,0.872-5.728-1.174-8.435c-0.197-0.26-0.401-0.508-0.61-0.746
	c0.281-0.942,0.23-1.938-0.352-2.933c-0.995-1.699-3.622-2.66-5.35-1.402c-0.532,0.388-0.989,0.793-1.399,1.243
	c-1.803-0.35-3.852,0.637-4.757,2.183c-0.15,0.259-0.267,0.528-0.357,0.803c-5.321-0.423-9.326,1.479-14.342,3.438
	c-2.862,1.119-5.304,1.117-8.171,1.906c-2.787,0.768-4.22,2.816-5.868,4.957c-2.345,3.043-0.896,7.41,1.286,9.971
	c1.23,1.443,1.775,3.576,2.106,5.605c-0.597,0.426-1.147,1.002-1.622,1.752c-0.423,0.672-3.505,3.165-3.383,3.076
	c-1.5,1.103-2.309,1.117-3.75,2.5c-2.118,2.031-2.685,4.658-3.875,7.375c-0.747,0.414-1.108,2.239-1.589,3.286
	c-0.226,0.403-2.601,3.813-2.786,4.214c-1.899,3.717-2.311,4.134-4.716,7.611c-1.413-0.782-2.762-1.526-3.871-2.272
	c-5.452-3.67-11.262-6.688-16.81-10.192c-0.6-0.406-1.188-0.604-1.745-0.646c0.374-1.629,0.839-3.223,1.393-4.773
	c0.115-0.289,0.226-0.594,0.329-0.924c1.255-3.238-3.089-5.494-5.505-3.662c-0.085-0.014-0.168-0.026-0.272-0.041
	c-0.994-0.219-2.022-0.971-2.906-1.443c-0.062-0.033-0.124-0.062-0.187-0.096c0.29-0.401,0.555-0.846,0.758-1.375
	c1.42-3.721,2.664-7.879,2.643-11.944c0.14-0.562,0.273-1.121,0.395-1.683c1.192-5.554-5.956-7.433-8.342-2.813
	c-0.602-0.115-1.22-0.136-1.785-0.052c-0.049,0.009-0.092,0.029-0.139,0.039c-2.879-1.057-5.804-1.725-8.689-1.979
	c-0.849-1.8-2.602-3.125-5.334-3.065c-1.439,0.031-4.966,0.865-7.565,0.834c-1.354-2.504-4.028-4.185-8.435-4.129
	c-0.658,0.008-1.302,0.144-1.92,0.361c-0.302-0.332-0.607-0.678-0.922-1.037c-4.436-5.059-12.755,1.512-9.236,7.127
	c1.538,2.452-0.776,7.482-1.578,9.971c-1.476,4.578-3.021,9.14-4.672,13.658c-2.743,7.51-5.795,14.904-8.954,22.252
	c-0.25,0.289-0.477,0.609-0.667,0.967c-2.048,3.83-3.383,7.953-5.008,11.966c-0.984,1.323-2.022,2.586-2.977,3.786
	c-1.497,1.88-1.993,4.06-1.536,5.984c-1.511,1.547-1.416,4.072,0.671,5.523c1.315,0.916,2.301,2.174,3.505,3.217
	c1.887,1.637,4.396,2.65,6.546,3.912c4.449,2.613,8.911,5.035,13.953,6.301c0.761,0.191,1.533,0.219,2.288,0.123
	c-0.801,4.228-1.399,8.541-1.674,12.863c-0.396,2.705-0.813,5.404-1.284,8.092c-0.404,0.682-0.717,1.467-0.884,2.391
	c-1.705,9.453-4.812,18.824-3.973,28.525c0.126,1.455,0.571,2.689,1.232,3.699c-0.305,3.098-0.428,6.654,0.279,9.543
	c-0.611,1.307-1.261,2.592-1.99,3.828c-1.977,3.354,1.917,7.09,5.23,5.229c6.495-3.645,14.487-3.768,21.704-4.795
	c8.219-1.17,16.128-3.592,24.493-3.299c4.013,0.857,8.369,0.812,12.297,1.014c8.595,0.443,17.157-0.459,25.709-1.315
	c8.484-0.851,16.725-2.994,25.191-3.859c6.328-0.647,12.686-0.197,19.031-0.393c4.975-0.152,9.646-0.187,14.294,1.19
	c0.964,0.65,2.021,0.99,3.087,1.066c0.156,0.045,0.307,0.072,0.457,0.102c0.155,0.209,0.322,0.414,0.509,0.623
	c1.19,1.33,2.702,1.541,4.356,1.256c2.066-0.354,2.735-2.95,1.861-4.577c-0.142-0.267-0.305-0.515-0.479-0.753
	c1.161-1.801,1.373-4.112-0.22-6.403c-0.724-1.037-1.21-2.213-1.549-3.457c0.485-3.859,0.128-7.416-1.19-11.262
	c-0.129-0.378-0.276-0.728-0.435-1.062c-0.714-13.883-4.325-27.305-7.769-40.729c0.787-1.14,1.188-2.503,0.988-3.912
	c0.812-0.496,1.604-1.091,2.358-1.742c2.25,1.387,5.468,1.121,7.615-0.75c4.243-3.691,9.146-7.6,14.853-8.455
	C402.61,386.008,402.597,380.451,400.01,377.201z"></path>

<path fill="rgba(26,26,26,0.5)"  d="M330.75,451.875c-0.065-0.646,0.342-2.48,0.25-3.125
	c-0.049-1.297-0.928-3.816-1.125-5.125c0.981-2.351-1.122-4.534-1.532-7.678c-0.541-4.154-1.21-8.273-1.855-12.412
	c-0.425-2.707,0.025-5.19-0.361-7.91c-0.1-1.789,0.216-3.719,0.125-5.5c-0.219-4.285,0-8.731-0.125-13
	c0.29-4.643-1.042-9.098-1.096-13.648c0.593-0.898,0.966-2.055,0.998-3.477c0.229-10.193-1.072-20.314-1.132-30.5
	c-0.029-5.373-7.233-5.9-8.949-1.211c-0.68,1.852-1.555,3.602-2.537,5.293c-0.838,0.135-1.631,0.516-2.251,1.236
	c-1.946,2.264-3.377,4.709-4.624,7.344c-1.691-1.098-3.455-2.146-4.989-3.354c-2.35-1.848-6.076-5.012-7.861-8.031
	c-0.251-0.852-0.602-1.658-1.1-2.373c-2.372-3.412-7.059-0.514-5.47,3.193c0.792,1.359,0.509,3.398,0.206,5.105
	c-0.094,0.195-0.189,0.396-0.261,0.613c-0.943,2.91-1.373,5.834-1.096,8.875c-1.116,0.928-1.877,2.352-1.884,4.307
	c-0.053,14.609-1.133,29.229-0.936,43.836c0.194,14.334,2,28.893-0.281,43.154c-0.296,1.852,0.199,3.488,1.122,4.734
	c-1.572,2.568-0.296,6.664,3.328,6.41c0.69-0.049,1.301-0.18,1.851-0.375c3.332,0.344,6.549,0.387,9.634-0.533
	c0.472,0.816,1.444-0.009,2.328,0.273c3.608,1.143,7.375,2.841,10.189-0.026c0.291-0.297,0.518-0.607,0.684-0.926
	c0.36-0.211,2.857,0.872,3.127,0.577c4.294,0.385,6.412-0.562,10.713-0.581c2.703,0.062,5.883,1.159,5.787-0.919
	c0.193-0.586-1.627-4.413-1.709-5.063C330.683,457.48,331.467,455.723,330.75,451.875z"></path>
<path fill="rgba(26,26,26,0.25)"  d="M278.901,315.535c-1.398-0.637-3.116-0.559-4.302,0.725
	c-0.83,0.9-2.064,1.786-2.791,2.709c-0.822,1.045-1.599,2.021-2.552,2.948c-2.453,2.39-1.639,6.179,1.025,7.96
	c2.428,1.623,4.55,3.064,7.324,4.098c2.913,1.086,5.817-1.672,5.874-4.475c0.051-2.479-0.099-5.561,1.191-7.76
	C287.076,317.641,282.322,313.947,278.901,315.535z"></path>
<path fill="rgba(26,26,26,0.25)"  d="M339.75,317.875c-1.058-1.055-4.364-3.053-5.375-2.75
	c-0.276-0.391-6.168,0.631-6.625,0.625c-6.255-0.076,0.736,9.332,2.192,12.825c1.042,2.502,4.575,4.391,6.758,1.784
	C340.103,326.291,343.886,322.004,339.75,317.875z"></path>
<path fill="rgba(26,26,26,0.25)"  d="M396.458,373.986c-7.572,1.465-17.4,5.006-22.347,11.285
	c-0.742,0.941-0.975,1.824-0.872,2.59c-0.557,0.445-1.099,0.914-1.611,1.428c-4.795,4.787,2.646,12.229,7.424,7.424
	c6.655-6.695,18.633-5.775,23.277-15.088C404.438,377.4,401.028,373.104,396.458,373.986z"></path>
<path fill="rgba(26,26,26,0.25)"  d="M235.105,397.5c-0.408-5.781-3.688-10.199-8.327-13.486
	c-4.185-2.965-9.634-6.193-14.938-6.076c-2.974,0.066-4.958,2.076-5.663,4.443c-0.908,0.475-1.632,1.291-1.905,2.498
	c-2.229,9.836,16.451,16.658,23.536,18.182C231.235,403.797,235.383,401.438,235.105,397.5z"></path>

<g>
	<path fill="#1A1A1A" d="M423.163,406.209c-4.354-8.998-9.647-17.508-14.821-26.045c-6.675-11.016-12.323-22.676-18.068-34.195
		c-7.579-15.195-14.788-30.41-18.365-47.083c5.307-3.607,10.229-7.754,14.488-12.512c8.616-9.622,12.323-21.681,13.7-34.318
		c1.584-14.538-0.715-29.608-4.881-43.54c-3.786-12.662-9.725-26.516-19.356-35.847c-2.726-2.64-7.691,0.871-5.398,4.166
		c13.619,19.575,21.781,41.418,22.042,65.493c0.116,10.798-1.616,22.225-7.124,31.662c-5.175,8.865-13.824,15.376-22.499,20.53
		c-18.053,10.727-40.441,17.032-61.447,17.256c-20.624,0.221-41.908-2.006-61.425-8.931c-18.381-6.521-35.912-19.696-38.407-40.287
		c-1.278-10.546,0.13-21.12,1.06-31.621c0.625-7.068,2.922-15.557-0.481-22.065c-0.591-1.13-2.3-0.809-2.627,0.343
		c-2.232,7.844-3.524,16.325-4.705,24.51c-1.56,10.814-2.579,21.583-0.999,32.452c2.96,20.365,20.157,34.565,38.075,42.176
		c-6.567,22.816-13.621,46.576-25.089,67.484c-8.674,15.812-18.322,31.035-25.067,47.836c-5.168,12.873-9.756,29.578,2.661,39.662
		c8.357,6.789,17.976,5.875,25.903-1.01c5.7-4.947,9.731-11.91,13.024-18.959c-2.392,15.482-3.315,31.02-2.899,46.678
		c0.427,16.064,1.99,32.576,6.394,48.08c0.088,0.309,0.186,0.621,0.278,0.934c1.946-0.383,3.894-0.744,5.847-1.092
		c-0.515-2.232-0.962-4.475-1.241-6.73c-0.137-0.668-0.257-1.355-0.367-2.047c-0.128-0.67-0.249-1.346-0.354-2.025
		c-3.084-13.184-3.937-26.875-4.151-40.367c-0.245-15.398,1.384-30.393,3.051-45.684c0.769-7.051,1.672-14.066,2.654-21.068
		c2.686-8.141,4.942-16.432,7.002-24.729c3.243-13.061,5.641-26.098,7.072-39.477c0.92-8.596,2.421-17.584,1.795-26.248
		c-0.233-3.229-4.739-3.211-5,0c-0.851,10.479-2.698,20.814-4.953,31.072c-3.44,15.654-6.532,31.389-10.891,46.826
		c-3.961,14.027-8.635,28.33-16.361,40.789c-4.136,6.672-11.081,15.242-19.383,11.244c-9.81-4.725-9.703-14.648-7.208-23.992
		c3.624-13.572,10.888-26.197,17.817-38.305c6.196-10.826,12.52-21.279,17.458-32.762c7.374-17.148,14.464-35.773,15.913-54.537
		c18.371,7.039,38.378,9.604,57.929,10.332c20.947,0.779,41.149-3.383,60.372-11.703c4.333-1.875,8.605-4.021,12.712-6.454
		c4.708,26.616,17.62,52.239,30.732,75.567c8.06,14.34,18.437,27.264,24.331,42.795c2.127,5.604,4.82,14.037,0.649,19.414
		c-2.971,3.828-9.704,5.881-13.994,3.797c-4.979-2.42-8.774-7.521-11.845-11.947c-4.644-6.691-8.348-14.037-11.753-21.416
		c-6.929-15.02-12.276-30.824-16.742-46.734c-1.86-6.627-3.509-13.32-4.851-20.072c-0.531-2.67-0.986-5.354-1.355-8.051
		c-0.29-2.113-1.438-4.203-1.895-6.328c-0.356-1.662-3.039-1.691-3.375,0c-2.537,12.783,2.379,26.979,5.718,39.299
		c1.858,6.855,3.914,13.68,6.184,20.432c2.729,26.465,8.467,52.533,12.82,78.762c4.628,27.883,9.206,56.408,2.769,84.443
		c-1.034,4.504-5.738,21.914-12.935,12.596c-2.579-3.34-2.64-8.588-2.798-12.59c-0.199-5.041,0.126-10.102,0.363-15.133
		c0.976-20.656-8.709-43.875-24.867-56.836c-20.366-16.336-51.502-15.779-72.273-0.607c-11.505,8.402-17.736,19.145-19.38,33.361
		c-0.845,7.305-0.447,14.984-0.459,22.598c2.242-0.23,4.486-0.436,6.729-0.592c-0.076-2.055-0.188-4.109-0.323-6.158
		c-0.882-13.418-0.973-27.004,8.108-37.893c7.24-8.68,18.27-12.104,28.976-14.236c10.63-2.117,21.176-0.918,31.281,2.738
		c20.622,7.461,34.548,33.715,35.415,54.77c0.384,9.297-1.01,18.672,1.259,27.828c1.666,6.721,8.573,13.586,15.977,10.496
		c8.469-3.535,9.771-16.455,11.369-24.191c3.69-17.863,2.419-36.975,1.12-55.023c-1.938-26.941-8.469-53.164-13.624-79.623
		c0.935,2.117,1.896,4.223,2.887,6.312c5.307,11.189,12.634,26.344,24.966,31.203c5.557,2.189,11.771,0.566,16.828-2.223
		c5.909-3.26,8.457-9.617,8.388-16.096C431.141,423.492,427.124,414.395,423.163,406.209z"></path>
	<path fill="#1A1A1A" d="M259.09,542.25c-0.115-2.881-0.161-5.869-0.5-8.75c-1.932,0.396-4.771,1.654-6.706,1.951
		c0.531,4.338,0.581,8.049,0.831,11.924c0.034,0.531,0.054,1.225,0.056,2.006c0.435,2.518,0.191,5.445,0.009,7.703
		c-0.161,1.986-0.639,4.543-2.324,5.883c-0.469,0.479-1.115,0.82-1.802,0.982c-2.66,1.51-6.459-1.125-8.111-2.979
		c-3.825-4.291-4.924-11.176-6.068-16.531c-0.54-2.527-1.193-5.057-1.756-7.598c-1.612-0.342-4.28,0.416-5.899,0.92
		c1.993,8.107,3.265,16.42,7.205,23.895c3.387,6.426,12.128,11.682,18.86,6.672C260.585,562.598,259.422,550.533,259.09,542.25z"></path>
</g>

<path fill="#1A1A1A" d="M368.34,231.438c-3.034,0-5.561,2.53-5.562,5.562c0,0.102-0.003,0.203-0.004,0.305
	c-0.068,0.314-0.129,0.639-0.158,1.169c-0.08,1.42,0.576,3.067,1.641,4.021c-0.006-0.008-0.013-0.016-0.019-0.024
	c0.288,0.369,0.693,0.664,1.108,0.864c0.861,0.5,1.791,0.751,2.788,0.754c1.519,0,2.801-0.616,3.905-1.618
	c1.539-1.395,1.862-3.516,1.863-5.472C373.904,233.968,371.37,231.438,368.34,231.438z"></path>
<path fill="#1A1A1A" d="M250.533,240.125c-0.079-1.503-0.512-2.865-1.472-4.001c-0.371-0.564-0.827-1.081-1.258-1.586
	c-1.038-1.222-2.91-1.849-4.463-1.849c-1.667,0-3.285,0.67-4.463,1.849c-2.366,2.365-2.521,6.584,0,8.927
	c0.012,0.011,0.021,0.024,0.032,0.035c1.14,1.926,3.167,3.081,5.411,3.125c1.121-0.003,2.166-0.286,3.135-0.848
	c0.933-0.552,1.676-1.295,2.228-2.229c0.739-1.722,0.669-1.26,0.855-3.151C250.546,240.306,250.538,240.215,250.533,240.125z"></path>

<path fill="#1A1A1A" d="M390.34,201.625c-13.679,1.427-23.848-5.861-28.534-18.581c-1.031-2.798-4.919-3.741-6.569-0.858
	c-1.05,1.833-2.062,3.729-3.115,5.605c0.827-8.213,0.568-16.511-0.443-24.791c-0.67-5.489-8.217-5.672-8.676,0
	c-1.737,21.461-20.901,29.704-38.028,37.93c-13.47,6.47-26.981,13.306-35.176,25.206c0.158-17.649,5.986-36.286,15.792-50.236
	c2.828-4.022-3.649-7.601-6.5-3.8c-20.558,27.411-48.341,47.997-82.298,54.911c-2.258,0.46-1.762,4.359,0.548,4.051
	c17.566-2.341,34.823-7.681,49.801-17.303c7.022-4.511,13.459-9.729,19.391-15.472c-4.138,13.472-5.291,27.846-2.462,41.614
	c0.681,3.315,5.77,3.176,6.54,0c4.821-19.876,28.763-26.894,45.146-34.227c11.426-5.114,22.313-12.029,29.051-21.781
	c-0.061,5.431-0.583,10.854-1.676,16.222c-0.679,3.33,3.003,5.454,5.561,3.237c3.789-3.284,6.586-7.381,9.183-11.616
	c6.496,11.596,18.303,18.369,32.465,16.638C394.579,207.857,394.695,201.171,390.34,201.625z"></path>
<path fill="#1A1A1A" d="M417.974,203.206c-9.81-7.362-17.255-18.247-20.439-30.086c-0.064-0.24-0.15-0.456-0.248-0.656
	c5.245-0.056,10.218-2.431,14.33-6.187c1.918-1.751,0.723-4.604-1.421-5.381c-8.387-3.04-14.971-12.362-20.221-19.082
	c-7.814-10.001-15.138-20.294-23.602-29.779c-7.352-8.239-15.498-16.193-25.942-20.265c-5.347-2.084-10.36-2.078-15.098-0.676
	c1.532-3.555,2.318-7.229,2.504-11.094c0.189-3.944-5.028-5.923-7.677-3.18c-17.797,18.432-45.86,19.681-69.674,23.749
	c-13.362,2.282-30.954,5.729-40.99,16.07c0.179-0.964,0.364-1.927,0.56-2.89c0.571-2.818-2.541-4.618-4.708-2.74
	c-10.22,8.859-17.315,21.502-21.882,34.073c-3.341,9.197-4.911,19.556-1.465,28.507c-0.865-0.473-1.722-0.958-2.555-1.482
	c-1.281-0.807-2.75,0.033-3.221,1.311c-2.709,7.355,0.404,14.747,6.287,19.273c-3.534,4.328-8.45,7.167-12.791,10.691
	c-1.974,1.602-1.045,4.597,0.75,5.816c2.44,1.658,4.985,2.449,7.943,2.217c1.084-0.085,2.12-0.386,3.158-0.689
	c1.108-0.324,2.85-0.487,2.394-1.337c0.307,0.573,0.749,0.934,1.242,1.136c-4.055,10.693-6.827,21.509-16.106,29.237
	c-1.754,1.461-0.864,4.896,1.397,5.292c3.446,0.604,6.303,0.766,9.204,0.401c-1.679,4.797-1.381,9.734,1.766,14.628
	c4.055,6.306,10.101,10.478,13.443,17.337c1.465,3.007,5.765,0.805,5.141-2.167c-1.196-5.696-5.937-10.521-9.831-14.582
	c-5.687-5.93-7.063-10.95-2.33-18.18c1.35-2.062-0.905-5.28-3.336-4.34c-2.071,0.801-4.217,1.132-6.386,1.191
	c7.107-8.938,9.516-19.672,14.004-30.562c1.022-2.479-2.26-4.415-4.244-3.465c-1.666-1.851-4.475-1.599-7.306-1.447
	c3.253-3.025,6.122-6.41,8.05-10.505c0.807-1.712,0.088-3.271-1.614-3.969c-5.227-2.141-7.945-6.884-7.263-12.073
	c2.436,1.263,4.968,2.431,7.026,4.197c2.094,1.797,4.904-0.962,3.038-3.038c-8.294-9.228-4.18-24.085-0.106-34.304
	c3.159-7.923,7.731-16.021,13.415-22.797c-0.304,2.527-0.508,5.065-0.542,7.62c-0.041,3.081,4.533,3.676,5.332,0.722
	c5.315-19.661,32.68-21.863,49.383-23.2c20.18-1.616,41.606-3.812,58.695-14.822c-1.329,2.692-3.651,5.192-3.401,8.301
	c0.243,3.028,3.956,5.158,6.327,2.621c15.525-16.611,37.01,9.894,46.33,20.915c7.606,8.994,14.959,18.205,22.872,26.937
	c4.492,4.957,9.236,10.504,15.067,14.096c-3.111,1.727-6.607,2.275-10.219,0.572c-1.217-0.574-2.539-0.466-3.518,0.165
	c-0.311,0.458-0.559,0.942-0.765,1.443c1.894,8.892,5.464,16.847,9.777,24.823c2.617,4.153,5.714,8.008,9.221,11.414
	c-1.536-0.083-3.075-0.283-4.635-0.713c-2.339-0.645-4.54,2.025-3.197,4.158c7.212,11.458,7.635,25.667,3.889,38.44
	c-1.769-3.237-4.405-5.856-7.979-6.556c-1.181-0.231-2.664,0.801-2.152,2.153c0.83,2.193,2.177,3.359,3.56,5.285
	c1.788,2.491,2.785,6.235,2.929,9.25c0.147,3.081,4.331,4.494,5.961,1.615c8.058-14.227,9.642-32.747,2.156-47.407
	c2.628,0.185,5.291,0.04,8.082,0.029C419.82,209.224,420.41,205.035,417.974,203.206z"></path>

<path fill="#1A1A1A" d="M327.642,275.423c-9.846,15.755-33.91,16.953-47.843,6.119c-2.041-1.587-4.82,0.949-2.917,2.917
	c15.838,16.375,44.78,14.921,56.156-5.881C334.977,275.033,329.775,272.008,327.642,275.423z"></path>

<path fill="#1A1A1A" d="M235.309,385.699c-3.042-3.596-8.543-4.711-12.606-6.883c-1.435-0.768-2.893-1.488-4.343-2.225
	c-0.464-0.232-0.927-0.475-1.39-0.711c-0.185-0.24-0.433-0.449-0.764-0.6c-0.538-0.24-1.139-0.607-1.727-0.707
	c-1.917-0.322-3.962,1.588-2.712,3.527c1.36,2.115,5.108,3.346,7.198,4.533c1.667,0.949,3.247,1.852,4.994,2.66
	c2.972,1.375,5.878,3.637,9.1,4.266C235.389,390.02,236.828,387.496,235.309,385.699z"></path>
<path fill="#1A1A1A" d="M231.75,401.924c-3.448-2.824-7.643-4.709-11.566-6.801c-4.951-2.639-9.801-5.443-14.839-7.982
	c-3.789-1.91-7.083,3.594-3.344,5.721c4.013,2.283,8.035,4.947,12.317,6.693c5.048,2.059,9.497,5.361,14.574,7.279
	C231.595,407.854,233.995,403.762,231.75,401.924z"></path>
<path fill="#1A1A1A" d="M394.731,370.582c-8.329,4.002-16.022,8.625-23.404,14.158c-0.634,0.475-0.259,1.385,0.529,1.258
	c9.438-1.529,17.679-5.494,26.092-9.912C401.618,374.16,398.396,368.82,394.731,370.582z"></path>
<path fill="#1A1A1A" d="M402.826,380.744c-9.444,5.338-19.911,8.842-27.454,16.955c-1.722,1.852,0.563,5.189,2.802,3.633
	c8.672-6.043,18.762-9.75,27.68-15.406C409.11,383.859,406.209,378.832,402.826,380.744z"></path>
<path fill="#1A1A1A" d="M343.961,319.701c-3.32-1.938-6.303-4.252-9.094-6.895c-1.579-1.494-3.93,0.844-2.387,2.387
	c2.432,2.433,5.057,4.6,7.851,6.576c-1.812,2.438-4.202,5.656-6.784,7.477c-1.379-4.318-3.273-8.455-4.438-12.859
	c-1.172-4.438-8.096-2.543-6.87,1.895c1.119,4.057,2.656,7.979,4.472,11.77c-2.705,1.619-5.123,3.645-7.459,5.76
	c-1.721,0.377-3.184,2.273-2.114,4.344c0.312,0.602,0.608,1.209,0.896,1.822c-3.924,5.354-7.799,10.746-11.55,16.227
	c-5.123-4.822-10.264-9.781-16.479-13.068c0.725-1.826,1.688-3.393,2.997-4.471c0.688-0.566,0.698-1.393,0.356-2.07
	c0.344-0.922,0.213-1.957-0.744-2.736c-1.252-1.02-2.697-1.428-4.115-2.146c-1.104-0.562-2.151-1.237-3.103-2.03
	c0.921-4.781,2.462-9.453,2.655-14.342c0.104-2.658-4.131-3.271-4.665-0.631c-1.051,5.188-2.373,10.508-3.023,15.827
	c-0.076,0.21-0.132,0.427-0.153,0.647c-3.768-2.522-7.346-5.336-11.318-7.522c1.354-2.198,3.135-4.005,5.412-5.442
	c2.799-1.771,0.132-6.285-2.587-4.426c-3.646,2.496-6.296,5.645-8.091,9.682c-0.487,1.1-0.409,2.654,0.852,3.25
	c6.005,2.838,10.939,7.357,16.667,10.666c1.301,0.754,2.812,0.092,3.354-1.148c0.178,0.125,0.354,0.254,0.533,0.375
	c0.917,0.617,1.99,1.287,3.111,1.715c-3.215,4.412-4.197,11.18-5.157,15.996c-2.099,10.52-2.703,21.344-3.32,32.033
	c-0.551,9.553-1.032,19.135-1.215,28.699c-0.169,8.887-0.692,17.752-0.361,26.643c0.335,8.971-0.041,18.252,1.24,27.137
	c0.02,0.139,0.06,0.264,0.1,0.391c1.941-0.025,3.886-0.014,5.828,0c0.039-0.125,0.079-0.252,0.099-0.391
	c1.073-7.67,0.439-15.639,0.324-23.367c-0.134-8.867-0.702-17.709-1.002-26.571c-0.317-9.399,0.236-18.88,0.601-28.278
	c0.394-10.15,1.141-20.242,2.131-30.352c0.354-3.615,0.464-9.381,1.685-14.258c5.471,4.934,10.787,10.045,16.216,15.027
	c1.069,0.98,2.608,0.752,3.402-0.439c3.612-5.416,7.362-10.729,11.245-15.949c5.946,16.496,4.37,35.568,4.418,52.688
	c0.03,10.978,1.606,21.75,2.891,32.627c1.523,12.906,2.18,25.697,2.449,38.676c0.275-0.016,0.552-0.032,0.826-0.041
	c1.479-0.096,2.96-0.157,4.441-0.203c0.886-12.752-1.162-25.799-2.701-38.432c-1.44-11.824-1.967-23.703-1.812-35.604
	c0.248-18.938,1.827-39.366-6.957-56.731c1.803-1.74,3.629-3.459,5.454-5.174c0.064,0.119,0.127,0.24,0.192,0.357
	c1.099,1.981,3.886,1.787,5.028,0c1.48-2.318,4.043-4.186,5.835-6.301c1.667-1.969,3.159-4.09,4.615-6.216
	C345.222,321.438,344.803,320.193,343.961,319.701z"></path>
<path fill="#1A1A1A" d="M383.34,465.125c-27.6-0.998-55.169-0.076-82.732,1.443c-13.214,0.729-26.644,1.486-39.75,3.338
	c-12.703,1.793-27.857,3.424-38.799,10.607c-0.472,0.311-0.285,1.021,0.284,1.049c12.646,0.572,25.742-3.863,38.178-5.85
	c14.006-2.234,27.766-4.191,41.947-4.93c26.947-1.398,53.944,1.117,80.875,2.09C388.34,473.057,388.322,465.305,383.34,465.125z"></path>

<path fill="rgba(26,26,26,0.5)"  d="M330.75,451.875c-0.065-0.646,0.342-2.48,0.25-3.125
	c-0.049-1.297-0.928-3.816-1.125-5.125c0.981-2.351-1.122-4.534-1.532-7.678c-0.541-4.154-1.21-8.273-1.855-12.412
	c-0.425-2.707,0.025-5.19-0.361-7.91c-0.1-1.789,0.216-3.719,0.125-5.5c-0.219-4.285,0-8.731-0.125-13
	c0.29-4.643-1.042-9.098-1.096-13.648c0.593-0.898,0.966-2.055,0.998-3.477c0.229-10.193-1.072-20.314-1.132-30.5
	c-0.029-5.373-7.233-5.9-8.949-1.211c-0.68,1.852-1.555,3.602-2.537,5.293c-0.838,0.135-1.631,0.516-2.251,1.236
	c-1.946,2.264-3.377,4.709-4.624,7.344c-1.691-1.098-3.455-2.146-4.989-3.354c-2.35-1.848-6.076-5.012-7.861-8.031
	c-0.251-0.852-0.602-1.658-1.1-2.373c-2.372-3.412-7.059-0.514-5.47,3.193c0.792,1.359,0.509,3.398,0.206,5.105
	c-0.094,0.195-0.189,0.396-0.261,0.613c-0.943,2.91-1.373,5.834-1.096,8.875c-1.116,0.928-1.877,2.352-1.884,4.307
	c-0.053,14.609-1.133,29.229-0.936,43.836c0.194,14.334,2,28.893-0.281,43.154c-0.296,1.852,0.199,3.488,1.122,4.734
	c-1.572,2.568-0.296,6.664,3.328,6.41c0.69-0.049,1.301-0.18,1.851-0.375c3.332,0.344,6.549,0.387,9.634-0.533
	c0.472,0.816,1.444-0.009,2.328,0.273c3.608,1.143,7.375,2.841,10.189-0.026c0.291-0.297,0.518-0.607,0.684-0.926
	c0.36-0.211,2.857,0.872,3.127,0.577c4.294,0.385,6.412-0.562,10.713-0.581c2.703,0.062,5.883,1.159,5.787-0.919
	c0.193-0.586-1.627-4.413-1.709-5.063C330.683,457.48,331.467,455.723,330.75,451.875z"></path>
<path fill="rgba(26,26,26,0.25)"  d="M278.901,315.535c-1.398-0.637-3.116-0.559-4.302,0.725
	c-0.83,0.9-2.064,1.786-2.791,2.709c-0.822,1.045-1.599,2.021-2.552,2.948c-2.453,2.39-1.639,6.179,1.025,7.96
	c2.428,1.623,4.55,3.064,7.324,4.098c2.913,1.086,5.817-1.672,5.874-4.475c0.051-2.479-0.099-5.561,1.191-7.76
	C287.076,317.641,282.322,313.947,278.901,315.535z"></path>
<path fill="rgba(26,26,26,0.25)"  d="M339.75,317.875c-1.058-1.055-4.364-3.053-5.375-2.75
	c-0.276-0.391-6.168,0.631-6.625,0.625c-6.255-0.076,0.736,9.332,2.192,12.825c1.042,2.502,4.575,4.391,6.758,1.784
	C340.103,326.291,343.886,322.004,339.75,317.875z"></path>
<path fill="rgba(26,26,26,0.25)"  d="M396.458,373.986c-7.572,1.465-17.4,5.006-22.347,11.285
	c-0.742,0.941-0.975,1.824-0.872,2.59c-0.557,0.445-1.099,0.914-1.611,1.428c-4.795,4.787,2.646,12.229,7.424,7.424
	c6.655-6.695,18.633-5.775,23.277-15.088C404.438,377.4,401.028,373.104,396.458,373.986z"></path>
<path fill="rgba(26,26,26,0.25)"  d="M235.105,397.5c-0.408-5.781-3.688-10.199-8.327-13.486
	c-4.185-2.965-9.634-6.193-14.938-6.076c-2.974,0.066-4.958,2.076-5.663,4.443c-0.908,0.475-1.632,1.291-1.905,2.498
	c-2.229,9.836,16.451,16.658,23.536,18.182C231.235,403.797,235.383,401.438,235.105,397.5z"></path>
</svg>