<!DOCTYPE svg PUBLIC "-//W3C//DTD SVG 1.1//EN" "http://www.w3.org/Graphics/SVG/1.1/DTD/svg11.dtd"><svg version="1.1" id="Layer_1" xmlns="http://www.w3.org/2000/svg" xmlns:xlink="http://www.w3.org/1999/xlink" x="0px" y="0px" width="600px" height="600px" viewBox="0 0 600 600" enable-background="new 0 0 600 600" xml:space="preserve">
<path fill="#ffe9e5" d="M423.801,420.873c-3.123-7.451-7.406-14.242-11.883-20.92c-0.45-5.402-4.109-10.451-6.722-15.02
	c-3.103-5.428-6.061-10.932-9.16-16.355c-2.008-3.512-4.122-7.002-6.369-10.406c-0.726-1.404-1.466-2.801-2.231-4.188
	c-0.639-1.156-1.3-2.305-1.977-3.447c-1.476-7.727-4.284-15.164-7.242-22.449c-3.982-9.816-7.964-19.648-12.066-29.413
	c-0.281-0.67-0.655-1.23-1.091-1.694c8.987-5.386,17.46-11.864,24.782-19.078c1.072-1.056,2.045-2.162,2.967-3.292
	c0.111-0.267,0.226-0.531,0.325-0.807c1.227-3.325,2.337-6.708,3.101-10.173c1.571-7.154,2.25-14.434,2.172-21.758
	c-0.084-7.896-0.628-15.782-1.226-23.665c-1.823-4.474-4.151-8.715-7.062-12.489c-0.062-0.276-0.123-0.554-0.186-0.827
	c-1.564-7.039-4.754-13.344-9.145-19.003c-0.056-0.071-0.117-0.137-0.172-0.208c-2.382-8.318-10.63-14.582-16.632-20.457
	c-7.003-6.855-13.012-12.084-22.597-14.933c-4.52-1.344-9.216-2.105-13.947-2.625c-6.475-2.355-13.062-4.392-19.86-5.283
	c-6.486-2.721-13.351-4.15-20.609-2.809c-5.467,1.01-9.317,4.636-13.401,7.917c-0.292,0.096-0.584,0.192-0.875,0.289
	c-17.29,3.257-32.859,9.624-46.644,21.301c-6.962,5.897-12.92,13.156-17.393,21.1c-3.657,6.496-5.297,12.704-4.642,19.477
	c-1.574,4.415-2.755,9.008-3.465,13.748c-0.814,5.435-1.266,10.739-0.802,16.22c0.108,1.279,0.242,2.556,0.386,3.832
	c-1.83,1.036-3.233,2.718-3.632,5.045c-0.43,2.508-0.475,5.374,0.213,7.876c0.152,0.553,0.367,1.036,0.607,1.492
	c1.43,9.652,4.692,18.406,11.236,26.507c7.347,9.096,18.076,14.842,28.69,19.21c0.029,0.012,0.059,0.021,0.088,0.034
	c-1.368,0.86-2.382,2.319-2.494,4.378c-1.26,23.15-11.254,45.09-21.069,65.748c-3.721,7.83-7.92,15.43-11.858,23.164
	c-4.726,5.562-9.113,12.045-11.521,18.898c-0.37,1.057-0.744,2.119-1.105,3.189c-1.89,2.854-3.418,5.809-4.408,8.906
	c-4.625,10.516-7.223,23.104,0.622,31.096c5.346,5.445,14.127,4.84,20.079,0.922c6.616-4.354,10.705-11.771,14.03-18.732
	c3.462-7.25,6.529-14.717,9.364-22.326c-0.266,4.227-0.333,8.461-0.304,12.701c-0.825,0.812-1.383,1.956-1.44,3.434
	c-0.021,0.555-0.054,1.106-0.089,1.66c-1.322,1.071-2.226,2.727-2.209,4.34c0.041,3.852,0.214,7.693,1.275,11.414
	c0.036,0.125,0.092,0.229,0.134,0.346c-1.11,8.152-1.98,16.33-2.131,24.566c-0.069,3.785-0.267,10.729,1.221,16.338
	c-0.004,2.68,0.061,5.361,0.214,8.039c-2.464,23.736,0.102,50.547,17.639,66.23c4.001,2.695,11.005,0.191,11.8-4.799
	c1.661-10.43,1.964-20.826,1.845-31.367c-0.104-9.206-0.607-18.639,0.803-27.771c1.703-11.031,9.644-18.137,17.381-25.342
	c4.017-1.4,8.021-2.859,12.045-4.232c8.378-1.752,16.831-2.855,25.435-2.727c8.824,0.133,17.578,1.938,25.438,5.922
	c2.105,3.946,4.421,7.826,7.822,11.338c4.146,4.283,8.866,7.029,12.71,10.969c2.49,6.656,3.105,13.746,3.396,20.898
	c0.011,0.025,0.021,0.051,0.031,0.076c2.307,6.102,2.979,12.654,3.536,19.111c0.618,7.158,0.756,14.504,2.789,21.449
	c0.697,2.391,1.55,4.764,2.753,6.949c4.089,2.664,10.11,0.869,11.726-4.354c5.771-18.686,7.737-37.979,7.438-57.504
	c-0.301-19.527-4.116-38.236-7.354-57.389c-2.857-16.92-4.251-34.367-7.313-51.297c1.521,3.188,3.157,6.314,4.947,9.377
	c2.388,4.08,4.561,9.1,7.975,12.58l0.041,0.062c0.067,0.867,0.29,1.764,0.712,2.676c0.535,1.156,1.127,2.27,1.745,3.361
	c1.65,3.66,4.318,7.914,7.593,11.631c0.331,0.527,0.67,1.156,0.698,1.443c0.433,4.371,4.512,6.305,7.824,5.709
	c4.146,2.297,8.594,3.025,12.854,0.865c1.464-0.549,2.82-1.479,3.841-2.801C428.681,436.451,426.613,427.584,423.801,420.873z
	 M360.48,346.246c-0.004-0.553,0.016-1.105,0.002-1.658c0.062,0.049,0.134,0.082,0.196,0.127c0.034,0.525,0.095,1.059,0.163,1.596
	C360.725,346.285,360.601,346.27,360.48,346.246z M367.413,367.807c-0.74-1.881-1.55-3.738-2.396-5.586
	c0.257,0.266,0.506,0.533,0.747,0.807c0.543,1.488,1.104,2.973,1.688,4.441C367.436,367.582,367.428,367.695,367.413,367.807z"></path>

<path fill="#1bd1d1" d="M336.798,148.182c-2.37-3.19-6.803-4.744-9.965-7.349c-4.344-3.574-8.904-9.192-13.333-12.667
	c-7.812-6.127-18.654-9.267-26.37-0.045c-0.659,0.787-0.739-0.156-0.796,0.878c-0.253,0.322-0.251-0.336-0.5,0
	c-0.521-6.82,0.245-10.679,2.305-17.286c1.543-4.946-5.78-6.706-7.594-2.094c-2.7,6.868-4.809,13.437-4.34,20.013
	c-5.91-2.125-12.258-2.431-17.217,2.035c-2.265,2.04-0.463,5.896,2.433,5.874c6.916-0.055,12.91,2.286,18.38,6.41
	c1.473,1.11,4.102,0.979,5.591,0c0.059-0.039,0.104-0.079,0.16-0.118c0.837,0.305-1.155,1.499-0.218,1.166
	c0.487-0.173,2.364,0.576,2.833,0.333c6.183,1.088,11.365,3.754,13.271,9.718c1.229,3.841,0.469,9.946,2.939,13.411
	c-0.175,3.195-0.46,6.401-0.373,9.591c0.194,7.118,4.984,13.901,7.438,20.446c1.972,5.26,9.645,3.266,8.465-2.334
	c-1.279-6.071,2.3-11.378,3.64-17.007c1.285-5.404,1.405-11.19-0.381-16.326c-1.27-3.646-2.138-5.314-4.166-8.667
	c0.114,0.014-0.117-0.843,0-0.833c2.166-1,2.037,1.387,2.833-0.167c7.5,0.167,10.775,2.975,14.4-0.61
	C337.291,151.512,337.748,149.462,336.798,148.182z"></path>

<path fill="#0d454f" d="M388.715,534.805c0.342,0.025,0.685,0.056,1.024,0.09c-0.138-1.573-0.346-3.157-0.621-4.746
	c0.53-0.687,0.99-1.473,1.345-2.375c1.794-4.563,1.173-11.342,1.234-16.154c0.09-7.094-0.581-14.119-1.555-21.141
	c-1.221-8.812-7.405-28.176-19.445-19.005c-6.449-3.71-14.072-4.479-21.697-5.036c-2.101-0.152-3.658,0.698-4.643,2.01
	c-2.111-0.235-4.231-0.078-6.306,0.618c-0.657,0.221-1.22,0.64-1.652,1.163c-3.165-1.366-6.391-2.506-9.52-3.423
	c-4.173-1.223-5.677,4.902-1.762,6.39c3.698,1.403,7.915,3.104,10.869,5.833c2.931,2.709,5.261,5.98,7.829,9.016
	c3.964,4.683,7.298,9.999,10.861,15c2.117,2.971,4.167,5.993,6.074,9.103c0.062,0.104,0.125,0.211,0.191,0.312
	c1.415,2.322,2.75,4.692,3.961,7.132c1.011,2.038,2.015,5.057,2.229,6.986c0.12,1.084,0.034,2.188,0.032,3.275
	c0,0.003,0.003,0.002,0.006,0c-0.041,0.034-0.149,0.134-0.426,0.397c-1.668,1.599-2.19,3.544-1.918,5.379
	C371.367,534.246,381.361,532.274,388.715,534.805z"></path>
<path fill="#0d454f" d="M291.5,472.25c-4.289-4.81-21.382-0.819-26.765,0.352c-6.08,1.324-11.819,2.132-17.994,2.703
	c-9.893,0.917-26.658,1.318-25.806,15.047c0.399,6.43,2.58,12.563,2.93,18.996c0.467,8.552,0.932,16.379,2.179,24.618
	c0.131,0.87,0.307,1.712,0.51,2.534c0.404-0.182,0.855-0.349,1.377-0.498c3.553-1.015,7.231-1.475,10.895-1.907
	c4.683-0.553,10.48-1.668,15.9-1.627c-2.006-5.894-2.057-13.131-1.566-19.711c2.597-7.53,5.616-14.729,9.964-21.476
	c3.913-6.069,9.718-9.353,15.732-12.961c1.143-0.687,1.484-1.691,1.303-2.614c1.848-0.233,3.668-0.529,5.219-1.559
	C285.796,473.871,291.833,472.624,291.5,472.25z"></path>
<path fill="#0d454f"  d="M254.401,536.338c-0.105-0.716-0.32-1.309-0.49-2.003
	c-0.681-2.782-4.586-2.033-4.882,0.366c-0.946,0.035-1.892,0.056-2.839,0.053c-0.316-0.229-0.709-0.388-1.189-0.428
	c-2.852-0.083-5.662-0.095-8.5,0.243c-0.901,0.106-1.543,0.58-1.927,1.188c-0.332-0.104-0.681-0.182-1.073-0.202
	c-1.568-0.083-2.808,1.627-2.358,3.097c0.31,1.01,0.592,1.938,1.317,2.612c0.151,0.567,0.265,1.141,0.316,1.736
	c0.112,1.3,1.921,2.54,2.944,1.22c0.042-0.054,0.087-0.111,0.131-0.168c5.417,0.932,10.666-1.014,16.021-2.003
	c1.147-0.212,2.051-1.741,1.615-2.845c-0.027-0.069-0.058-0.137-0.087-0.205C254.197,538.445,254.57,537.486,254.401,536.338z"></path>
<path fill="#0d454f"  d="M386.18,537.627c-0.265-0.113-0.53-0.218-0.797-0.327
	c0-0.003,0.001-0.006,0.002-0.009c-0.022-0.007-0.047-0.013-0.069-0.02c-2.146-0.884-4.321-1.646-6.546-2.323
	c-2.795-0.852-5.869-0.559-8.77-0.768c-1.564-0.112-2.341,1.216-2.224,2.491c-2.063,1.312-0.887,5.055,1.824,5.097
	c0.941,0.308,1.993,0.381,2.833-0.131c0.342-0.047,0.686-0.092,1.028-0.137c0.271,0.01,0.543,0.039,0.815,0.06
	c0.531,0.181,1.064,0.344,1.583,0.451c0.024,0.01,0.05,0.021,0.075,0.03l0.005-0.017c0.188,0.036,0.376,0.072,0.559,0.093
	c0.326,0.034,0.615-0.021,0.869-0.129c2.205,0.438,4.371,1.093,6.246,1.719C387.16,544.892,389.656,539.12,386.18,537.627z"></path>
<path fill="#0d454f" d="M247.5,529.523c-0.997,0-1.729,0.405-2.208,1H234.5c-3.839,0-3.839,5.953,0,5.953h11
	c1.009,0,1.745-0.416,2.224-1.022C251.327,535.218,251.259,529.523,247.5,529.523z"></path>
<path fill="#0d454f" d="M386.604,533.396c-4.446-4.034-10.335-3.811-15.896-2.766c-3.771,0.708-2.169,6.445,1.582,5.74
	c3.247-0.609,7.435-1.187,10.104,1.234C385.231,540.177,389.454,535.979,386.604,533.396z"></path>

<path fill="#8a2441" d="M383.49,463.127c0.975-2.258,0.304-5.324-2.039-6.443c0.497-2.443-0.124-4.906-1.053-7.34
	c0.355-0.865,0.544-1.842,0.518-2.922c-0.216-8.67-3.27-17.391-7.074-25.598c-0.567-4.754-1.56-9.492-2.335-13.928
	c-0.43-2.461-0.988-4.877-1.631-7.262c0.39-0.865,0.644-1.855,0.713-2.965c0.6-9.648-3.232-20.484-5.845-29.691
	c-1.956-6.893-4.052-13.746-6.169-20.59c-0.985-6.107-1.806-12.24-2.485-18.389c-0.124-1.118-0.543-1.996-1.122-2.658
	c-0.003-3.193-0.066-6.372-0.318-9.502c-0.443-5.52-6.382-11.914-11.8-6.693c-4.314,4.158-4.574,9.771-4.876,15.423
	c-0.328,6.157-2.721,10.97-6.341,14.589c-1.849,0.847-3.709,1.661-5.62,2.332c-4.437,1.556-8.981,2.721-13.306,4.586
	c-0.878,0.379-1.512,0.967-1.941,1.666c-2.082,0.172-4.171,0.203-6.221,0.092c-8.083-0.438-17.602-2.137-25.019-5.396
	c-0.19-0.084-0.394-0.189-0.589-0.283c0.053-0.708-0.158-1.445-0.714-2.037c-0.884-0.94-1.994-1.627-3.082-2.304
	c-1.099-0.683-1.978-1.344-3.302-1.501c-0.062-0.007-0.118,0.009-0.18,0.007c-0.727-1.185-1.456-2.354-2.175-3.495
	c-0.63-0.999-1.355-1.781-2.136-2.389c-0.2-3.211-1.567-6.277-2.192-9.525c0.052-0.853-0.062-1.742-0.387-2.631
	c-1.116-3.05-3.853-3.771-6.006-2.893c-0.127-0.072-0.254-0.142-0.381-0.213c-1.701-0.951-3.473-1.77-5.154-2.762
	c-4.705-2.775-9.434,3.576-5.738,7.437c0.439,0.458,0.691,1.087,0.846,1.776c0.034,1.234,0.095,2.487,0.197,3.744
	c-0.003,0.147-0.007,0.299-0.008,0.434c-0.005,0.856-0.046,1.712-0.093,2.566c-0.413,0.494-0.72,1.131-0.833,1.963
	c-1.506,11.027-4.115,22.062-4.855,33.168c-0.004,0.064-0.001,0.125-0.003,0.188c-0.751,0.57-1.339,1.393-1.596,2.52
	c-3.451,15.148-7.361,30.25-11.097,45.336c-0.472,1.904-0.003,3.504,0.956,4.674c-1.454,6.076-3.025,12.17-2.634,18.283
	c0.042,0.652,0.188,1.236,0.408,1.756c-0.859,4.562-1.601,9.127-1.296,13.773c-0.805,4.898-0.985,9.705-1.036,14.971
	c-0.008,0.867,0.201,1.639,0.543,2.322c-0.699,1.018-1.423,2.025-2.19,3.025c-3.131,4.078,2.011,8.434,5.936,7.721
	c24.885-4.52,49.986-6.256,75.142-8.533c5.745-0.52,11.497-0.953,17.252-1.35c5.572-0.385,12.993,0.496,18.107-1.99
	c2.326-1.131,6.344-0.635,8.879-0.648c3.233-0.016,6.467-0.012,9.699-0.004c4.609,0.014,9.218,0.064,13.825,0.127
	c-0.187,1.57,0.109,3.043,1.298,4.23c1.117,1.117,3.126,1.842,4.679,1.238c0.932-0.363,1.591-0.598,2.312-1.32
	c0.628-0.627,1.133-1.482,1.381-2.33c0.229-0.783,0.272-1.613,0.376-2.422l-0.091,0.678
	C383.705,464.865,383.752,463.961,383.49,463.127z"></path>

<path fill="rgba(26,26,26,0.25)" d="M255.271,534.062c-1.816-1.816-4.094-1.299-6.368-1.142c-1.343,0.093-3.086,0.881-4.761,1.365
	c-0.25-0.154-0.532-0.27-0.851-0.323c-1.859-0.312-3.396-0.375-5.25,0c-1.117,0.226-1.784,1.019-2.026,1.95
	c-0.575-0.083-1.15-0.176-1.724-0.282c-3.613-0.673-5.218,4.609-1.964,5.629c0.052,1.437,0.988,2.739,2.839,2.55
	c1.833-0.188,3.465-0.736,4.973-1.541c2.443,0.159,4.896,0.208,7.361,0.209c0.841,0,1.486-0.295,1.959-0.74
	c0.124,0.025,0.241,0.06,0.374,0.072C253.753,542.176,259.183,537.973,255.271,534.062z"></path>
<path fill="rgba(26,26,26,0.25)" d="M389.703,537.041c-0.409-2.235-2.586-2.573-4.152-1.705c-0.803-0.48-1.825-0.609-2.887-0.074
	c-0.582,0.293-1.275,0.499-2.012,0.651c-0.111-0.088-0.225-0.171-0.342-0.245c-2.309-1.46-4.786-1-7.354-1.372
	c-0.668-0.097-1.266,0.012-1.779,0.248c-1.353-1.796-4.644-1.956-5.215,0.831c-1.36,6.635,6.445,7.635,12.918,6.809
	c1.288,0.927,2.745,1.528,4.348,1.794C387.901,544.754,390.52,541.498,389.703,537.041z"></path>

<g>
	<path fill="#1A1A1A" d="M423.163,406.209c-4.354-8.998-9.647-17.508-14.821-26.045c-6.675-11.016-12.323-22.676-18.068-34.195
		c-7.579-15.195-14.788-30.41-18.365-47.083c5.307-3.607,10.229-7.754,14.488-12.512c8.616-9.622,12.323-21.681,13.7-34.318
		c1.584-14.538-0.715-29.608-4.881-43.54c-3.786-12.662-9.725-26.516-19.356-35.847c-2.726-2.64-7.691,0.871-5.398,4.166
		c13.619,19.575,21.781,41.418,22.042,65.493c0.116,10.798-1.616,22.225-7.124,31.662c-5.175,8.865-13.824,15.376-22.499,20.53
		c-18.053,10.727-40.441,17.032-61.447,17.256c-20.624,0.221-41.908-2.006-61.425-8.931c-18.381-6.521-35.912-19.696-38.407-40.287
		c-1.278-10.546,0.13-21.12,1.06-31.621c0.625-7.068,2.922-15.557-0.481-22.065c-0.591-1.13-2.3-0.809-2.627,0.343
		c-2.232,7.844-3.524,16.325-4.705,24.51c-1.56,10.814-2.579,21.583-0.999,32.452c2.96,20.365,20.157,34.565,38.075,42.176
		c-6.567,22.816-13.621,46.576-25.089,67.484c-8.674,15.812-18.322,31.035-25.067,47.836c-5.168,12.873-9.756,29.578,2.661,39.662
		c8.357,6.789,17.976,5.875,25.903-1.01c5.7-4.947,9.731-11.91,13.024-18.959c-2.392,15.482-3.315,31.02-2.899,46.678
		c0.427,16.064,1.99,32.576,6.394,48.08c0.088,0.309,0.186,0.621,0.278,0.934c1.946-0.383,3.894-0.744,5.847-1.092
		c-0.515-2.232-0.962-4.475-1.241-6.73c-0.137-0.668-0.257-1.355-0.367-2.047c-0.128-0.67-0.249-1.346-0.354-2.025
		c-3.084-13.184-3.937-26.875-4.151-40.367c-0.245-15.398,1.384-30.393,3.051-45.684c0.769-7.051,1.672-14.066,2.654-21.068
		c2.686-8.141,4.942-16.432,7.002-24.729c3.243-13.061,5.641-26.098,7.072-39.477c0.92-8.596,2.421-17.584,1.795-26.248
		c-0.233-3.229-4.739-3.211-5,0c-0.851,10.479-2.698,20.814-4.953,31.072c-3.44,15.654-6.532,31.389-10.891,46.826
		c-3.961,14.027-8.635,28.33-16.361,40.789c-4.136,6.672-11.081,15.242-19.383,11.244c-9.81-4.725-9.703-14.648-7.208-23.992
		c3.624-13.572,10.888-26.197,17.817-38.305c6.196-10.826,12.52-21.279,17.458-32.762c7.374-17.148,14.464-35.773,15.913-54.537
		c18.371,7.039,38.378,9.604,57.929,10.332c20.947,0.779,41.149-3.383,60.372-11.703c4.333-1.875,8.605-4.021,12.712-6.454
		c4.708,26.616,17.62,52.239,30.732,75.567c8.06,14.34,18.437,27.264,24.331,42.795c2.127,5.604,4.82,14.037,0.649,19.414
		c-2.971,3.828-9.704,5.881-13.994,3.797c-4.979-2.42-8.774-7.521-11.845-11.947c-4.644-6.691-8.348-14.037-11.753-21.416
		c-6.929-15.02-12.276-30.824-16.742-46.734c-1.86-6.627-3.509-13.32-4.851-20.072c-0.531-2.67-0.986-5.354-1.355-8.051
		c-0.29-2.113-1.438-4.203-1.895-6.328c-0.356-1.662-3.039-1.691-3.375,0c-2.537,12.783,2.379,26.979,5.718,39.299
		c1.858,6.855,3.914,13.68,6.184,20.432c2.729,26.465,8.467,52.533,12.82,78.762c4.628,27.883,9.206,56.408,2.769,84.443
		c-1.034,4.504-5.738,21.914-12.935,12.596c-2.579-3.34-2.64-8.588-2.798-12.59c-0.199-5.041,0.126-10.102,0.363-15.133
		c0.976-20.656-8.709-43.875-24.867-56.836c-20.366-16.336-51.502-15.779-72.273-0.607c-11.505,8.402-17.736,19.145-19.38,33.361
		c-0.845,7.305-0.447,14.984-0.459,22.598c2.242-0.23,4.486-0.436,6.729-0.592c-0.076-2.055-0.188-4.109-0.323-6.158
		c-0.882-13.418-0.973-27.004,8.108-37.893c7.24-8.68,18.27-12.104,28.976-14.236c10.63-2.117,21.176-0.918,31.281,2.738
		c20.622,7.461,34.548,33.715,35.415,54.77c0.384,9.297-1.01,18.672,1.259,27.828c1.666,6.721,8.573,13.586,15.977,10.496
		c8.469-3.535,9.771-16.455,11.369-24.191c3.69-17.863,2.419-36.975,1.12-55.023c-1.938-26.941-8.469-53.164-13.624-79.623
		c0.935,2.117,1.896,4.223,2.887,6.312c5.307,11.189,12.634,26.344,24.966,31.203c5.557,2.189,11.771,0.566,16.828-2.223
		c5.909-3.26,8.457-9.617,8.388-16.096C431.141,423.492,427.124,414.395,423.163,406.209z"></path>
	<path fill="#1A1A1A" d="M259.09,542.25c-0.115-2.881-0.161-5.869-0.5-8.75c-1.932,0.396-4.771,1.654-6.706,1.951
		c0.531,4.338,0.581,8.049,0.831,11.924c0.034,0.531,0.054,1.225,0.056,2.006c0.435,2.518,0.191,5.445,0.009,7.703
		c-0.161,1.986-0.639,4.543-2.324,5.883c-0.469,0.479-1.115,0.82-1.802,0.982c-2.66,1.51-6.459-1.125-8.111-2.979
		c-3.825-4.291-4.924-11.176-6.068-16.531c-0.54-2.527-1.193-5.057-1.756-7.598c-1.612-0.342-4.28,0.416-5.899,0.92
		c1.993,8.107,3.265,16.42,7.205,23.895c3.387,6.426,12.128,11.682,18.86,6.672C260.585,562.598,259.422,550.533,259.09,542.25z"></path>
</g>

<path fill="#1A1A1A" d="M368.34,231.438c-3.034,0-5.561,2.53-5.562,5.562c0,0.102-0.003,0.203-0.004,0.305
	c-0.068,0.314-0.129,0.639-0.158,1.169c-0.08,1.42,0.576,3.067,1.641,4.021c-0.006-0.008-0.013-0.016-0.019-0.024
	c0.288,0.369,0.693,0.664,1.108,0.864c0.861,0.5,1.791,0.751,2.788,0.754c1.519,0,2.801-0.616,3.905-1.618
	c1.539-1.395,1.862-3.516,1.863-5.472C373.904,233.968,371.37,231.438,368.34,231.438z"></path>
<path fill="#1A1A1A" d="M250.533,240.125c-0.079-1.503-0.512-2.865-1.472-4.001c-0.371-0.564-0.827-1.081-1.258-1.586
	c-1.038-1.222-2.91-1.849-4.463-1.849c-1.667,0-3.285,0.67-4.463,1.849c-2.366,2.365-2.521,6.584,0,8.927
	c0.012,0.011,0.021,0.024,0.032,0.035c1.14,1.926,3.167,3.081,5.411,3.125c1.121-0.003,2.166-0.286,3.135-0.848
	c0.933-0.552,1.676-1.295,2.228-2.229c0.739-1.722,0.669-1.26,0.855-3.151C250.546,240.306,250.538,240.215,250.533,240.125z"></path>

<path fill="#1A1A1A" d="M376.087,173.634c-3.665-6.552-10.222-11.868-16.225-16.166c-4.609-3.3-9.479-6.335-14.862-7.933
	c-0.252-0.503-0.707-0.906-1.39-1.058c-8.842-1.963-13.627-6.955-18.876-13.944c-3.96-5.272-8.264-10.171-14.234-13.159
	c-6.083-3.043-14.66-4.476-20.348-1.519c0.3-5.286,0.588-10.572,0.2-15.855c-0.134-1.819-2.25-3.607-4.031-2.313
	c-6.917,5.026-15.023,16.075-11.651,24.955c-8.818-2.699-21.91,0.508-24.041,9.853c-0.454,1.99,0.923,3.995,3.044,3.997
	c5.708,0.004,12.087-0.492,17.417,1.895c-36.623,8.547-72.007,38.289-73.688,76.948c-0.165,3.788,5.719,3.775,5.875,0
	c1.758-42.635,45.676-68.868,84.396-71.333c5.112-0.326,5.17-8.265,0-8c-3.771,0.193-7.581,0.639-11.395,1.317
	c-2.138-3.092-4.212-4.952-8.075-6.307c-2.884-1.01-6.013-1.112-9.118-1.028c4.353-4.21,13.245-4.901,18.255-3.443
	c0.908,0.264,1.807-0.629,1.539-1.539c-2.223-7.553,0.771-14.639,6.22-19.674c-0.064,6.672-0.79,13.324-0.828,20.006
	c-0.021,3.574,5.182,3.464,5.471,0c0.959-11.521,19.095-3.014,24.031,1.041c8.021,6.588,12.611,15.677,21.42,20.149
	c-5.323,0.972-11.11,0.886-15.889-1.019c-1.462-0.96-3.028-1.768-4.646-2.411c-4.058-1.613-6.242,4.616-2.854,6.772
	c1.192,0.759,2.382,1.369,3.567,1.862c3.231,1.913,5.685,4.272,6.82,8.443c1.456,5.343,0.332,10.94-1.049,16.15
	c-1.76,6.645-4.491,13.501-4.896,20.437c-1.729-4.212-3.482-8.412-5.121-12.658c-1.33-3.449-2.251-7.061-2.589-10.743
	c-0.376-4.098,0.888-8.278-0.275-12.253c-0.667-2.279-3.935-3.49-5.641-1.49c-5.364,6.291-2.79,16.68-0.186,23.709
	c3.177,8.571,8.729,15.374,13.62,22.957c1.1,1.706,4.222,0.624,3.427-1.445c-0.365-0.952-0.748-1.896-1.125-2.844
	c0.311-4.325,2.071-8.606,3.487-12.624c2.095-5.943,4-12.126,5.243-18.305c1.111-5.523,1.998-10.687,0.003-16.145
	c-0.21-0.573-0.455-1.125-0.721-1.664c4.882-0.45,9.777-2.083,14.77-3.641c5.027,2.241,9.878,5.765,14.186,8.958
	c5.564,4.124,11.045,8.721,15.114,14.365C372.862,180.296,378.186,177.386,376.087,173.634z"></path>

<path fill="#1A1A1A" d="M255.532,530.571c-7.79-1.255-17.191,0.287-24.63,2.759c-2.74,0.911-1.565,5.258,1.196,4.34
	c7.773-2.584,15.546-1.894,23.434-3.241C257.44,534.104,257.458,530.882,255.532,530.571z"></path>
<path fill="#1A1A1A" d="M253.885,538.771c-5.093,0.83-10.218,1.138-15.297,2.138c-1.523,0.301-4.265,1.332-5.396,2.464
	c-1.501,1.501,0.833-0.762-0.513,0.584c-0.39,0.391-0.626,1-0.554,1.544c0.137,1.033,1.061,1.713,2.069,1.188
	c0.098-0.054,0.178-0.104,0.267-0.156c2.488,0.387,6.106-0.678,8.268-1.022c4.143-0.661,8.314-1.245,12.387-2.276
	C258.061,542.482,256.764,538.299,253.885,538.771z"></path>
<path fill="#1A1A1A" d="M387.581,542.391c-6.445-1.816-13.458-1.892-20.081-2.703c-2.026-0.245-2.485,3.214-0.481,3.562
	c6.456,1.127,12.936,2.336,19.4,3.361C389.142,547.041,390.356,543.174,387.581,542.391z"></path>
<path fill="#1A1A1A" d="M390.781,535.219c-3.062-2.756-7.895-3.43-11.883-3.871c-4.286-0.474-9.618-1.249-13.277,1.506
	c-0.405,0.308-0.562,1.023,0,1.297c3.403,1.644,7.401,1.208,11.088,1.752c4.155,0.61,8.619,2.851,12.791,2.413
	C390.938,538.162,392.073,536.381,390.781,535.219z"></path>

<path fill="rgba(26,26,26,0.25)" d="M255.271,534.062c-1.816-1.816-4.094-1.299-6.368-1.142c-1.343,0.093-3.086,0.881-4.761,1.365
	c-0.25-0.154-0.532-0.27-0.851-0.323c-1.859-0.312-3.396-0.375-5.25,0c-1.117,0.226-1.784,1.019-2.026,1.95
	c-0.575-0.083-1.15-0.176-1.724-0.282c-3.613-0.673-5.218,4.609-1.964,5.629c0.052,1.437,0.988,2.739,2.839,2.55
	c1.833-0.188,3.465-0.736,4.973-1.541c2.443,0.159,4.896,0.208,7.361,0.209c0.841,0,1.486-0.295,1.959-0.74
	c0.124,0.025,0.241,0.06,0.374,0.072C253.753,542.176,259.183,537.973,255.271,534.062z"></path>
<path fill="rgba(26,26,26,0.25)" d="M389.703,537.041c-0.409-2.235-2.586-2.573-4.152-1.705c-0.803-0.48-1.825-0.609-2.887-0.074
	c-0.582,0.293-1.275,0.499-2.012,0.651c-0.111-0.088-0.225-0.171-0.342-0.245c-2.309-1.46-4.786-1-7.354-1.372
	c-0.668-0.097-1.266,0.012-1.779,0.248c-1.353-1.796-4.644-1.956-5.215,0.831c-1.36,6.635,6.445,7.635,12.918,6.809
	c1.288,0.927,2.745,1.528,4.348,1.794C387.901,544.754,390.52,541.498,389.703,537.041z"></path>

<path fill="#1A1A1A" d="M336.822,288.812c-2.555-3.183-7.583-3.173-11.734-3.681c-5.672-0.694-11.432-0.998-17.158-0.848
	c-10.635,0.281-21.51,1.893-31.554,4.922c-4.365,1.317-2.568,7.252,1.928,6.028c9.609-2.615,19.574-3.691,29.625-3.869
	c4.866-0.085,9.7-0.043,14.555,0.302c4.257,0.303,9.353,2.279,13.308,0.537C337.111,291.623,337.679,289.879,336.822,288.812z"></path>

<path fill="#1A1A1A" d="M249.177,315.725c0.152-2.162,0.323-4.373-0.557-6.266c-0.496-1.066-1.892-1.203-2.822-0.739
	c-0.843,0.421-1.411,1.005-1.806,1.688c-0.168,0.146-0.322,0.318-0.434,0.551c-0.753,1.557-0.833,3.25-0.657,4.986
	c-0.339,3.862-0.381,7.803-0.454,11.671c-0.092,4.935,0.015,9.927-0.366,14.846c-0.361,4.655-3.012,10.2-0.362,14.485
	c0.652,1.055,2.045,1.211,2.945,0.379c3.039-2.812,2.62-7.084,2.552-10.979c-0.041-2.312,0.193-4.617,0.483-6.92
	c0.362-0.322,0.613-0.797,0.64-1.428c0.207-4.898,0.618-9.784,0.753-14.686C249.153,321.133,249.473,318.292,249.177,315.725z"></path>
<path fill="#1A1A1A" d="M359.791,323.088c-0.049-0.293-0.106-0.582-0.156-0.875c-0.724-4.82-1.299-9.641-1.107-14.463
	c0.024-0.624-0.143-1.132-0.425-1.531c-0.005-0.406-0.015-0.812-0.013-1.219c0.014-3.551-5.616-3.541-5.5,0
	c0.017,0.517,0.059,1.029,0.085,1.545c-1.855,3.469,0.243,11.442,0.66,13.975c0.696,4.238,1.391,8.519,2.171,12.781
	c0.046,1.69,0.118,3.336,0.688,5.016c0.074,0.217,0.217,0.393,0.386,0.533c0.406,1.965,0.838,3.92,1.309,5.857
	c0.704,2.898,5.521,2.332,5.267-0.713C362.571,336.994,360.944,330.01,359.791,323.088z"></path>
<path fill="#1A1A1A" d="M344.277,309c-0.647-4.857-7.993-5.23-7.875,0c0.205,9.029-1.189,16.916-7.606,23.66
	c-5.748,6.04-13.839,9.251-21.945,10.506c-19.066,2.951-36.43-7.393-40.221-26.797c-0.588-3.012-5.136-1.725-4.58,1.263
	c3.917,21.071,23.838,33.925,44.79,31.95C327.104,347.674,347.215,331.039,344.277,309z"></path>
<path fill="#1A1A1A" d="M383.34,465.125c-27.6-0.998-55.169-0.076-82.732,1.443c-13.216,0.729-26.644,1.488-39.752,3.338
	c-12.703,1.793-27.857,3.424-38.799,10.609c-0.472,0.309-0.285,1.021,0.284,1.047c12.646,0.574,25.742-3.863,38.178-5.848
	c14.006-2.236,27.766-4.193,41.947-4.93c26.947-1.398,53.944,1.117,80.875,2.09C388.34,473.057,388.322,465.305,383.34,465.125z"></path>
</svg>