<!DOCTYPE svg PUBLIC "-//W3C//DTD SVG 1.1//EN" "http://www.w3.org/Graphics/SVG/1.1/DTD/svg11.dtd"><svg version="1.1" id="Layer_1" xmlns="http://www.w3.org/2000/svg" xmlns:xlink="http://www.w3.org/1999/xlink" x="0px" y="0px" width="600px" height="600px" viewBox="0 0 600 600" enable-background="new 0 0 600 600" xml:space="preserve">
<path fill="#fce2ef" d="M423.801,420.873c-3.123-7.451-7.406-14.242-11.883-20.92c-0.45-5.402-4.109-10.451-6.722-15.02
	c-3.103-5.428-6.061-10.932-9.16-16.355c-2.008-3.512-4.122-7.002-6.369-10.406c-0.726-1.404-1.466-2.801-2.231-4.188
	c-0.639-1.156-1.3-2.305-1.977-3.447c-1.476-7.727-4.284-15.164-7.242-22.449c-3.982-9.816-7.964-19.648-12.066-29.413
	c-0.281-0.67-0.655-1.23-1.091-1.694c8.987-5.386,17.46-11.864,24.782-19.078c1.072-1.056,2.045-2.162,2.967-3.292
	c0.111-0.267,0.226-0.531,0.325-0.807c1.227-3.325,2.337-6.708,3.101-10.173c1.571-7.154,2.25-14.434,2.172-21.758
	c-0.084-7.896-0.628-15.782-1.226-23.665c-1.823-4.474-4.151-8.715-7.062-12.489c-0.062-0.276-0.123-0.554-0.186-0.827
	c-1.564-7.039-4.754-13.344-9.145-19.003c-0.056-0.071-0.117-0.137-0.172-0.208c-2.382-8.318-10.63-14.582-16.632-20.457
	c-7.003-6.855-13.012-12.084-22.597-14.933c-4.52-1.344-9.216-2.105-13.947-2.625c-6.475-2.355-13.062-4.392-19.86-5.283
	c-6.486-2.721-13.351-4.15-20.609-2.809c-5.467,1.01-9.317,4.636-13.401,7.917c-0.292,0.096-0.584,0.192-0.875,0.289
	c-17.29,3.257-32.859,9.624-46.644,21.301c-6.962,5.897-12.92,13.156-17.393,21.1c-3.657,6.496-5.297,12.704-4.642,19.477
	c-1.574,4.415-2.755,9.008-3.465,13.748c-0.814,5.435-1.266,10.739-0.802,16.22c0.108,1.279,0.242,2.556,0.386,3.832
	c-1.83,1.036-3.233,2.718-3.632,5.045c-0.43,2.508-0.475,5.374,0.213,7.876c0.152,0.553,0.367,1.036,0.607,1.492
	c1.43,9.652,4.692,18.406,11.236,26.507c7.347,9.096,18.076,14.842,28.69,19.21c0.029,0.012,0.059,0.021,0.088,0.034
	c-1.368,0.86-2.382,2.319-2.494,4.378c-1.26,23.15-11.254,45.09-21.069,65.748c-3.721,7.83-7.92,15.43-11.858,23.164
	c-4.726,5.562-9.113,12.045-11.521,18.898c-0.37,1.057-0.744,2.119-1.105,3.189c-1.89,2.854-3.418,5.809-4.408,8.906
	c-4.625,10.516-7.223,23.104,0.622,31.096c5.346,5.445,14.127,4.84,20.079,0.922c6.616-4.354,10.705-11.771,14.03-18.732
	c3.462-7.25,6.529-14.717,9.364-22.326c-0.266,4.227-0.333,8.461-0.304,12.701c-0.825,0.812-1.383,1.956-1.44,3.434
	c-0.021,0.555-0.054,1.106-0.089,1.66c-1.322,1.071-2.226,2.727-2.209,4.34c0.041,3.852,0.214,7.693,1.275,11.414
	c0.036,0.125,0.092,0.229,0.134,0.346c-1.11,8.152-1.98,16.33-2.131,24.566c-0.069,3.785-0.267,10.729,1.221,16.338
	c-0.004,2.68,0.061,5.361,0.214,8.039c-2.464,23.736,0.102,50.547,17.639,66.23c4.001,2.695,11.005,0.191,11.8-4.799
	c1.661-10.43,1.964-20.826,1.845-31.367c-0.104-9.206-0.607-18.639,0.803-27.771c1.703-11.031,9.644-18.137,17.381-25.342
	c4.017-1.4,8.021-2.859,12.045-4.232c8.378-1.752,16.831-2.855,25.435-2.727c8.824,0.133,17.578,1.938,25.438,5.922
	c2.105,3.946,4.421,7.826,7.822,11.338c4.146,4.283,8.866,7.029,12.71,10.969c2.49,6.656,3.105,13.746,3.396,20.898
	c0.011,0.025,0.021,0.051,0.031,0.076c2.307,6.102,2.979,12.654,3.536,19.111c0.618,7.158,0.756,14.504,2.789,21.449
	c0.697,2.391,1.55,4.764,2.753,6.949c4.089,2.664,10.11,0.869,11.726-4.354c5.771-18.686,7.737-37.979,7.438-57.504
	c-0.301-19.527-4.116-38.236-7.354-57.389c-2.857-16.92-4.251-34.367-7.313-51.297c1.521,3.188,3.157,6.314,4.947,9.377
	c2.388,4.08,4.561,9.1,7.975,12.58l0.041,0.062c0.067,0.867,0.29,1.764,0.712,2.676c0.535,1.156,1.127,2.27,1.745,3.361
	c1.65,3.66,4.318,7.914,7.593,11.631c0.331,0.527,0.67,1.156,0.698,1.443c0.433,4.371,4.512,6.305,7.824,5.709
	c4.146,2.297,8.594,3.025,12.854,0.865c1.464-0.549,2.82-1.479,3.841-2.801C428.681,436.451,426.613,427.584,423.801,420.873z
	 M360.48,346.246c-0.004-0.553,0.016-1.105,0.002-1.658c0.062,0.049,0.134,0.082,0.196,0.127c0.034,0.525,0.095,1.059,0.163,1.596
	C360.725,346.285,360.601,346.27,360.48,346.246z M367.413,367.807c-0.74-1.881-1.55-3.738-2.396-5.586
	c0.257,0.266,0.506,0.533,0.747,0.807c0.543,1.488,1.104,2.973,1.688,4.441C367.436,367.582,367.428,367.695,367.413,367.807z"></path>

<path fill="#f2df66" d="M420.107,290.805c-0.123-0.101-0.243-0.204-0.362-0.305c-0.197-0.563-0.509-1.104-0.984-1.585
	c-1.596-1.611-3.033-3.291-4.087-5.152c-0.012-0.071-0.029-0.139-0.04-0.21c-0.068-0.474-0.282-0.791-0.562-0.985
	c-0.678-1.492-1.104-3.103-1.158-4.892c-0.035-1.13-0.523-2.057-1.241-2.739c-0.171-1.477-0.338-3.604-1.338-6.604
	c0.916-4.898,0.086-6.459,0.084-11.221c-0.001-1.45-0.077-2.874-0.196-4.284c1.019-0.351,1.964-0.908,2.716-1.563
	c5.277-4.598,3.109-13.791,2.291-19.816c-0.988-7.288-2.431-14.483-4.383-21.574c-1.115-4.053-2.494-8.011-4.163-11.806
	c0.224-0.836,0.24-1.718-0.044-2.511c-3.071-8.572-6.854-16.872-10.854-25.053c3.34,1.357,7.324,1.053,10.165,2.811
	c0.546,0.482,1.089,0.965,1.645,1.435c1.624,2.01,4.422-0.839,2.828-2.828c-2.604-3.252-4.958-6.456-8.048-9.285
	c-0.439-0.402-0.913-0.616-1.387-0.708c-0.452-0.752-0.908-1.421-1.385-1.924c-3.213-3.405-6.005-7.21-8.768-10.981
	c-6.01-8.207-8.064-17.887-16.086-24.275c-8.462-6.738-21.745-9.631-32.589-10.664c-2.175-0.207-4.311-0.132-6.404,0.194
	c4.067-3.188,8.191-7.276,7.789-13.276h-0.053c-0.133-3-4.528-6.208-7.695-3.043c-2.1,2.098-2.959,5.096-4.979,7.293
	c-1.902,2.068-6.741,2.667-9.319,3.746c-6.837,2.859-11.204,3.255-18.5,4c-7.556,0.771-15.882,2.21-23.455,1.728
	c-6.401-0.407-12.76-1.153-19.182-0.864c-20.854,0.939-39.44,8.609-53.529,24.274c-10.274,11.423-23.032,30.688-18.823,47.015
	c-2.848,7.327-3.104,16.23-3.523,23.82c-0.449,8.111-0.362,16.231-1.576,24.279c-0.627,4.159-1.465,8.399-2.606,12.541
	c-2.708,4.575-4.983,9.375-5.936,14.513c-1.338,2.261-2.832,4.434-4.472,6.474c-2.361,2.939-5.265,6.018-6.34,9.676
	c-0.144,0.491,0.259,1.052,0.784,1.028c5.887-0.268,10.861-2.431,14.826-7.318c0.314-0.009,0.361,0.389,0.667,0.333
	c-0.252,3.239,0.122,3.376,0.035,6.62c-0.116,4.35-1.648,11.516,0.63,15.381c0.464,6.688,3.566,14.063,6.5,20
	c2.551,5.162,4.921,6.893,7.755,11.906c2.551,4.512,6.063,8.949,7.729,13.814c1.264,3.689,6.415,2.641,6.483-0.797
	c0.44,0.105,0.892,0.188,1.351,0.25c0.146,1.895,0.798,3.562,2.289,4.688c-0.129,1.887-0.291,3.771-0.45,5.643
	c-0.103,1.215,0.341,2.098,1.047,2.652c-0.031,2.004-0.008,4.023,0.606,5.861c0.412,1.23,2.272,2.088,3.238,0.855
	c4.728-6.035,7.638-12.613,9.652-19.994c1.771-6.484,6.99-14.068,5.187-21.121c0.668-1.003,1.348-2,2.045-2.988
	c2.682-3.807-0.847-10.244-5.587-9.736c-4.498,0.479-8.841-2.282-12.248-4.986c-3.946-3.132-7.685-6.316-10.229-10.714
	c-0.82-1.682-2.015-2.555-3.303-2.826c-1.209-2.95-2.025-6.07-2.75-9.166c-2.273-9.706-2.63-19.449-6.242-28.719
	c0.855-4.095,0.42-3.802,1.096-7.289c0.366-1.89,0.168-2.3,0.667-4.167c1.821,1.44,8.223-3.192,10.833-4
	c5.432-1.68,9.589-2.798,15-4.5c3.472-0.585,7.186-1.463,10.667-2c3.559-0.401,5.81-1.716,9.319-2.42
	c3.003-0.514,6.003-1.047,8.994-1.631c3.986-0.778,8.311-1.445,12.161-3.001c0.729,0.087,1.514,0.045,2.343-0.159
	c18.146-4.481,35.059-12.854,50.065-23.935c3.048-2.25,5.994-4.626,8.858-7.096c-3.394,5.029-6.712,10.061-5.826,16.576
	c0.014,0.087-0.519,1.167-0.5,1.25c-0.295,0.693-0.717,1.8-1,2.5c-1.022,2.534-0.753,4.024-0.426,6.755
	c0.304,2.546,3.347,4.496,5.44,2.254c2.081-2.227,5.028-3.722,7.4-5.652c2.895-2.355,5.616-4.916,8.267-7.539
	c5.309-5.253,9.554-12.172,13.374-18.536c1.07-1.782,2.075-3.599,3.036-5.44c1.19,2.552,2.771,4.921,4.594,6.915
	c3.997,4.371,9.355,7.707,14.689,10.176c4.887,2.262,12.088,5.37,17.431,3.117c2.271,5.914,3.917,12.154,5.417,17.744
	c1.572,5.861,2.794,11.88,3.583,17.898c0.394,2.987,0.521,6.1,1.132,8.994c-0.49,4.417-1.732,8.829-2.909,13.012
	c-1.276,4.534-3.255,9.178-4.276,13.902c-0.446,1.057-0.909,2.103-1.396,3.13c-2.106,4.457-4.146,8.553-7.239,12.428
	c-1.249,1.564-2.649,3.189-4.271,4.378c-0.935,0.685-1.951,1.256-2.905,1.913c-1.306,0.896-2.095,2.504-3.525,3.073
	c-2.785,1.105-4.048,3.276-3.55,6.25c1.466,8.742,4.377,16.18,8.686,23.914c1.991,3.576,3.938,7.177,5.875,10.778
	c2.05,3.81,5.454,10.341,6.163,14.618c0.72,4.344,7.171,2.807,7-1.5c-0.409-10.275,6.128-21.04,8.79-30.638
	c2.937-10.582,0.218-19.907-6.371-28.12c0.101-0.153,0.19-0.312,0.288-0.467c1.354,1.43,3.577,1.975,5.491,1.338
	c2.297,2.161,5.567,3.42,8.482,4.267c0.973,0.282,1.874,0.202,2.661-0.108C419.951,296.681,422.663,292.903,420.107,290.805z"></path>

<path fill="#595453" d="M388.715,534.805c0.342,0.025,0.685,0.056,1.024,0.09c-0.138-1.573-0.346-3.157-0.621-4.746
	c0.53-0.687,0.99-1.473,1.345-2.375c1.794-4.563,1.173-11.342,1.234-16.154c0.09-7.094-0.581-14.119-1.555-21.141
	c-1.221-8.812-7.405-28.176-19.445-19.005c-6.449-3.71-14.072-4.479-21.697-5.036c-2.101-0.152-3.658,0.698-4.643,2.01
	c-2.111-0.235-4.231-0.078-6.306,0.618c-0.657,0.221-1.22,0.64-1.652,1.163c-3.165-1.366-6.391-2.506-9.52-3.423
	c-4.173-1.223-5.677,4.902-1.762,6.39c3.698,1.403,7.915,3.104,10.869,5.833c2.931,2.709,5.261,5.98,7.829,9.016
	c3.964,4.683,7.298,9.999,10.861,15c2.117,2.971,4.167,5.993,6.074,9.103c0.062,0.104,0.125,0.211,0.191,0.312
	c1.415,2.322,2.75,4.692,3.961,7.132c1.011,2.038,2.015,5.057,2.229,6.986c0.12,1.084,0.034,2.188,0.032,3.275
	c0,0.003,0.003,0.002,0.006,0c-0.041,0.034-0.149,0.134-0.426,0.397c-1.668,1.599-2.19,3.544-1.918,5.379
	C371.367,534.246,381.361,532.274,388.715,534.805z"></path>
<path fill="#595453" d="M291.5,472.25c-4.289-4.81-21.382-0.819-26.765,0.352c-6.08,1.324-11.819,2.132-17.994,2.703
	c-9.893,0.917-26.658,1.318-25.806,15.047c0.399,6.43,2.58,12.563,2.93,18.996c0.467,8.552,0.932,16.379,2.179,24.618
	c0.131,0.87,0.307,1.712,0.51,2.534c0.404-0.182,0.855-0.349,1.377-0.498c3.553-1.015,7.231-1.475,10.895-1.907
	c4.683-0.553,10.48-1.668,15.9-1.627c-2.006-5.894-2.057-13.131-1.566-19.711c2.597-7.53,5.616-14.729,9.964-21.476
	c3.913-6.069,9.718-9.353,15.732-12.961c1.143-0.687,1.484-1.691,1.303-2.614c1.848-0.233,3.668-0.529,5.219-1.559
	C285.796,473.871,291.833,472.624,291.5,472.25z"></path>
<path fill="#595453"  d="M254.401,536.338c-0.105-0.716-0.32-1.309-0.49-2.003
	c-0.681-2.782-4.586-2.033-4.882,0.366c-0.946,0.035-1.892,0.056-2.839,0.053c-0.316-0.229-0.709-0.388-1.189-0.428
	c-2.852-0.083-5.662-0.095-8.5,0.243c-0.901,0.106-1.543,0.58-1.927,1.188c-0.332-0.104-0.681-0.182-1.073-0.202
	c-1.568-0.083-2.808,1.627-2.358,3.097c0.31,1.01,0.592,1.938,1.317,2.612c0.151,0.567,0.265,1.141,0.316,1.736
	c0.112,1.3,1.921,2.54,2.944,1.22c0.042-0.054,0.087-0.111,0.131-0.168c5.417,0.932,10.666-1.014,16.021-2.003
	c1.147-0.212,2.051-1.741,1.615-2.845c-0.027-0.069-0.058-0.137-0.087-0.205C254.197,538.445,254.57,537.486,254.401,536.338z"></path>
<path fill="#595453"  d="M386.18,537.627c-0.265-0.113-0.53-0.218-0.797-0.327
	c0-0.003,0.001-0.006,0.002-0.009c-0.022-0.007-0.047-0.013-0.069-0.02c-2.146-0.884-4.321-1.646-6.546-2.323
	c-2.795-0.852-5.869-0.559-8.77-0.768c-1.564-0.112-2.341,1.216-2.224,2.491c-2.063,1.312-0.887,5.055,1.824,5.097
	c0.941,0.308,1.993,0.381,2.833-0.131c0.342-0.047,0.686-0.092,1.028-0.137c0.271,0.01,0.543,0.039,0.815,0.06
	c0.531,0.181,1.064,0.344,1.583,0.451c0.024,0.01,0.05,0.021,0.075,0.03l0.005-0.017c0.188,0.036,0.376,0.072,0.559,0.093
	c0.326,0.034,0.615-0.021,0.869-0.129c2.205,0.438,4.371,1.093,6.246,1.719C387.16,544.892,389.656,539.12,386.18,537.627z"></path>
<path fill="#595453" d="M247.5,529.523c-0.997,0-1.729,0.405-2.208,1H234.5c-3.839,0-3.839,5.953,0,5.953h11
	c1.009,0,1.745-0.416,2.224-1.022C251.327,535.218,251.259,529.523,247.5,529.523z"></path>
<path fill="#595453" d="M386.604,533.396c-4.446-4.034-10.335-3.811-15.896-2.766c-3.771,0.708-2.169,6.445,1.582,5.74
	c3.247-0.609,7.435-1.187,10.104,1.234C385.231,540.177,389.454,535.979,386.604,533.396z"></path>

<path fill="#fafafa" d="M425.04,423.418c0.497-1.344,0.608-2.832,0.208-4.322c-3.169-11.791-8.132-26.104-18.135-33.869
	c-1.451-1.125-3.062-1.875-4.729-1.943c-3.366-7.529-7.078-14.951-10.467-22.312c-2.473-5.371-5.018-10.687-7.67-15.941
	c-0.947-3.598-1.847-7.209-2.783-10.807c-3.009-11.559-6.507-23.658-13.513-33.502c-3.296-4.63-9.989-4.021-11.882,1.553
	c-0.364,1.074-0.653,2.141-0.896,3.201c-4.888,1.625-9.812,3.144-14.687,4.812c-2.293,0.783-3.75,2.329-4.446,4.104
	c-4.155,0.512-8.315,1.648-11.744,3.16c-0.114,0.051-0.217,0.114-0.329,0.168c-1.709-1.785-5.392-1.607-6.004,1.352
	c-0.35,1.691-0.63,3.391-0.867,5.092c-2.506,4.051-3.898,9.021-5.102,13.365c-0.514,1.856-0.087,3.467,0.844,4.662
	c-0.006,0.006-0.011,0.012-0.016,0.018c-2.726,2.635-5.646,5.025-8.75,7.176c-0.229-0.164-0.459-0.324-0.684-0.482
	c-0.752-1.268-1.765-2.449-2.917-3.459c-0.231-0.354-0.477-0.693-0.744-1.023c-0.985-1.209-1.79-2.463-2.928-3.541
	c-0.133-0.127-0.27-0.225-0.407-0.311c0.646-6.373,0.047-13.437,0.519-17.562c0.369-3.227-2.83-5.309-5.575-5.574
	c-13.773-1.336-27.173-4.207-41-5.205c-1.022-0.074-1.926,0.061-2.713,0.348c-2.3-1.225-4.541-2.562-6.728-3.944
	c-3.566-2.253-7.221,0.8-7.63,4.378c-0.475,4.146-0.66,8.309-0.623,12.473c-0.155,0.504-0.229,1.021-0.228,1.561
	c-0.079,0.123-0.169,0.24-0.238,0.369c-0.824,1.529-1.614,3.078-2.382,4.639c-0.463-0.406-0.992-0.719-1.643-0.715
	c-1.35,0.01-2.076,1.229-1.853,2.453c0.122,0.664,0.555,1.316,0.902,1.886c0.151,0.247,0.376,0.409,0.627,0.507
	c-4.096,8.934-7.476,18.238-10.881,27.514c-0.802,0.482-1.499,1.193-2.009,2.162c-1.266,2.408-2.431,4.869-3.521,7.363
	c-2.87,5.041-6.409,9.74-9.292,14.746c-1.24,2.154-1.125,4.15-0.249,5.695c-1.935,3.979-4.223,7.768-5.716,11.959
	c-0.271,0.762-0.297,1.461-0.145,2.078c-0.363,0.654-0.718,1.329-1.03,2.014c-2.595,3.592-5.442,7.045-8.645,10.305
	c-2.071,2.109-2.554,5.447-1.396,8.057c-2.226,1.609-2.913,4.984-1.716,7.609c0.001,0.004,0.001,0.008,0.002,0.013
	c1.1,3.985,3.914,5.362,6.991,7.644c1.806,1.338,3.719,1.328,5.332,0.543c5.041,3.131,9.748,6.879,15.941,7.805
	c5.221,0.781,9.776-2.953,8.513-8.514c-0.943-4.152-0.687-8.504,0.145-12.805c0.817-0.369,1.571-1.002,2.164-1.961
	c2.979-4.816,5.587-10.236,7.74-15.898c-2.714,18.61-4.854,37.333-4.079,56.137c-0.724,1.675-0.877,3.581-0.493,5.35
	c-0.333,0.528-0.609,1.076-0.864,1.737c-0.124,0.322-0.202,0.642-0.256,0.958c0.709-0.037,0.805,1.996,1.511,1.938
	c1.249,2.062,4.057,1.421,7.123,1.318c5.498-0.185,9.798-1.852,14.482-4.607c3.139-1.848,6.649-3.056,10.2-4.126
	c1.146-0.282,2.296-0.548,3.452-0.788c12.432-2.58,25.758-2.51,38.401-3.51c2.703-0.213,5.4-0.471,8.098-0.736
	c0.374,0.828,1.022,1.539,1.874,1.848c1.67,0.605,3.303,1.048,5.048,1.373c2.063,0.389,4.354,0.998,6.449,0.857
	c2.828-0.189,3.979-2.332,3.713-4.314c4.62,0.412,9.245,0.98,13.834,1.281c4.549,0.297,10.174,0.859,15.098-0.143
	c3.144,5.469,10.943,4.342,13.618-0.957c1.693,0.57,3.545,0.57,5.271,0.059c1.805,0.279,3.604,0.572,5.401,0.896
	c4.633,0.835,7.372-3.881,6.386-7.185c0.555-3.173-1.114-6.196-3.82-8.238c0.467,0.357,0.662,0.485,0.589,0.384
	c0.387,0.366-0.475-0.673-0.646-0.973c-0.506-0.885-0.902-1.837-1.303-2.774c-0.639-10.856-3.578-21.443-6.22-32.06
	c0.105-0.375,0.17-0.771,0.144-1.217c-0.271-4.229-0.404-8.44-0.539-12.646c3.722,9.133,1.472,4.508,6.347,11.883
	c0.626,0.812,8.29,15.041,9.051,15.578c0.415,1.014,0.856,2.045,1.31,3.143c1.388,3.373,5.008,6.76,9.058,5.146
	c0.243-0.1,0.488-0.195,0.731-0.291c0.147,0.602,0.461,1.168,0.88,1.584c0.197,0.195,0.426,0.366,0.664,0.514
	c0.944,0.576,1.988,0.549,2.918,0.146c2.181-0.545,2.95-3.14,3.646-5.007c0.069-0.186,0.101-0.375,0.13-0.562
	c3.893-1.623,7.74-3.357,11.411-5.385c0.108,0.127,0.215,0.258,0.333,0.381c1.15,1.203,2.736,1.484,4.327,1.518
	c2.181,0.043,4-1.852,4-4C427.34,425.404,426.386,424.062,425.04,423.418z"></path>

<path fill="rgba(26,26,26,0.25)" d="M255.271,534.062c-1.816-1.816-4.094-1.299-6.368-1.142c-1.343,0.093-3.086,0.881-4.761,1.365
	c-0.25-0.154-0.532-0.27-0.851-0.323c-1.859-0.312-3.396-0.375-5.25,0c-1.117,0.226-1.784,1.019-2.026,1.95
	c-0.575-0.083-1.15-0.176-1.724-0.282c-3.613-0.673-5.218,4.609-1.964,5.629c0.052,1.437,0.988,2.739,2.839,2.55
	c1.833-0.188,3.465-0.736,4.973-1.541c2.443,0.159,4.896,0.208,7.361,0.209c0.841,0,1.486-0.295,1.959-0.74
	c0.124,0.025,0.241,0.06,0.374,0.072C253.753,542.176,259.183,537.973,255.271,534.062z"></path>
<path fill="rgba(26,26,26,0.25)" d="M389.703,537.041c-0.409-2.235-2.586-2.573-4.152-1.705c-0.803-0.48-1.825-0.609-2.887-0.074
	c-0.582,0.293-1.275,0.499-2.012,0.651c-0.111-0.088-0.225-0.171-0.342-0.245c-2.309-1.46-4.786-1-7.354-1.372
	c-0.668-0.097-1.266,0.012-1.779,0.248c-1.353-1.796-4.644-1.956-5.215,0.831c-1.36,6.635,6.445,7.635,12.918,6.809
	c1.288,0.927,2.745,1.528,4.348,1.794C387.901,544.754,390.52,541.498,389.703,537.041z"></path>

<path fill="rgba(26,26,26,0.25)"  d="M295.709,329.7c0.427-0.729,0.751-2.017,0.429-2.835
	c-0.43-1.094-0.86-2.186-1.29-3.279c-0.061-0.154-0.143-0.281-0.228-0.404c-0.052-0.605-0.093-1.221-0.094-1.848
	c-0.002-1.096,0.647-3.053-0.358-3.166c-3.503-0.396-8.022,1.871-11.495,1.768c-2.354-0.069-3.658,3.049-1.932,4.664
	c0.469,0.438,0.966,0.82,1.477,1.211c0.702,0.537,1.104,1.802,1.95,1.357c-0.095,2.744,1.978,4.639,3.698,6.309
	c0.553,0.537,1.167,0.836,1.784,0.951c0.177,0.389,0.362,0.776,0.521,1.172c0.307,0.762,1,1.244,1.749,1.437
	c0.118,2.233,3.403,2.216,3.513-0.033c0.022-0.473,0.023-0.932,0.015-1.387c-0.014-1.667-0.22-3.429-0.524-5.082
	C295.237,330.301,295.519,330.025,295.709,329.7z"></path>
<path fill="rgba(26,26,26,0.25)"  d="M330.903,317.668c-0.398-3.211-4.132-4.188-6.034-2.75
	c-1.655-0.805-3.903-0.492-5.315,1.398c-1.789,2.395-2.525,5.123-3.19,7.939c-0.013,0.025-0.021,0.053-0.033,0.076
	c-0.022,0.049-0.044,0.098-0.066,0.146c0.001,0,0.002,0,0.003,0.002c-0.148,0.346-0.298,0.689-0.438,1.033
	c-0.271,0.65-0.325,1.27-0.245,1.848c-0.971,3.133-2.586,5.863-3.888,8.896c-1.258,2.929,1.48,6.733,4.727,4.728
	C325.05,335.643,332.265,328.645,330.903,317.668z"></path>
<path fill="rgba(26,26,26,0.25)"  d="M210.674,441.084c-1.276-0.07-2.516-0.031-3.777,0.215
	c-0.281,0.059-2.822-1.697-3.203-1.904c-0.855-0.463-1.685-0.93-2.524-1.371c0.112-0.471,0.135-0.977,0.057-1.479
	c-0.375-2.412-3.548-4.244-5.573-5.203c-1.13-0.535-2.228-1.028-3.349-1.436c-0.265-1.555-1.413-2.896-3.298-2.705
	c-1.588,0.158-3.039,0.393-4.564,0.881c-2.307,0.736-3.166,3.412-1.771,5.301c-0.216,2.842,1.95,5.73,5.8,7.541
	c2.953,1.387,6.303,1.83,9.003,3.664c4.071,2.764,8.234,6.426,13.199,6.998C217.29,452.348,217.504,441.461,210.674,441.084z"></path>
<path fill="rgba(26,26,26,0.25)"  d="M423.674,421.666c-8.224,0.645-16.266,1.588-24.331,3.381
	c0.007,0.025,0.017,0.053,0.021,0.078c-1.411,0.471-2.264,1.629-2.535,2.895c-0.166,0.07-0.331,0.141-0.498,0.213
	c-2.802,1.211-2.368,4.656-0.502,6.4c-1.179,2.492,0.861,4.65,3.168,4.896c0.104,0.613,0.368,1.207,0.823,1.662
	c1.484,1.484,3.744,1.002,4.856-0.629c0.608-0.889,0.865-1.902,0.985-2.953c0.077-0.678-0.275-1.602-0.508-2.238
	c-0.012-0.027-0.022-0.051-0.032-0.076c2.032-1.578,4.522-2.654,7.172-3.465c4.165-0.439,8.249-1.271,12.321-2.947
	c0.01-0.002,0.021-0.006,0.032-0.008c0.279-0.08,0.529-0.193,0.766-0.324c0.036-0.016,0.073-0.027,0.11-0.047l-0.011-0.02
	C428.391,426.736,427.547,421.361,423.674,421.666z"></path>

<g>
	<path fill="#1A1A1A" d="M423.163,406.209c-4.354-8.998-9.647-17.508-14.821-26.045c-6.675-11.016-12.323-22.676-18.068-34.195
		c-7.579-15.195-14.788-30.41-18.365-47.083c5.307-3.607,10.229-7.754,14.488-12.512c8.616-9.622,12.323-21.681,13.7-34.318
		c1.584-14.538-0.715-29.608-4.881-43.54c-3.786-12.662-9.725-26.516-19.356-35.847c-2.726-2.64-7.691,0.871-5.398,4.166
		c13.619,19.575,21.781,41.418,22.042,65.493c0.116,10.798-1.616,22.225-7.124,31.662c-5.175,8.865-13.824,15.376-22.499,20.53
		c-18.053,10.727-40.441,17.032-61.447,17.256c-20.624,0.221-41.908-2.006-61.425-8.931c-18.381-6.521-35.912-19.696-38.407-40.287
		c-1.278-10.546,0.13-21.12,1.06-31.621c0.625-7.068,2.922-15.557-0.481-22.065c-0.591-1.13-2.3-0.809-2.627,0.343
		c-2.232,7.844-3.524,16.325-4.705,24.51c-1.56,10.814-2.579,21.583-0.999,32.452c2.96,20.365,20.157,34.565,38.075,42.176
		c-6.567,22.816-13.621,46.576-25.089,67.484c-8.674,15.812-18.322,31.035-25.067,47.836c-5.168,12.873-9.756,29.578,2.661,39.662
		c8.357,6.789,17.976,5.875,25.903-1.01c5.7-4.947,9.731-11.91,13.024-18.959c-2.392,15.482-3.315,31.02-2.899,46.678
		c0.427,16.064,1.99,32.576,6.394,48.08c0.088,0.309,0.186,0.621,0.278,0.934c1.946-0.383,3.894-0.744,5.847-1.092
		c-0.515-2.232-0.962-4.475-1.241-6.73c-0.137-0.668-0.257-1.355-0.367-2.047c-0.128-0.67-0.249-1.346-0.354-2.025
		c-3.084-13.184-3.937-26.875-4.151-40.367c-0.245-15.398,1.384-30.393,3.051-45.684c0.769-7.051,1.672-14.066,2.654-21.068
		c2.686-8.141,4.942-16.432,7.002-24.729c3.243-13.061,5.641-26.098,7.072-39.477c0.92-8.596,2.421-17.584,1.795-26.248
		c-0.233-3.229-4.739-3.211-5,0c-0.851,10.479-2.698,20.814-4.953,31.072c-3.44,15.654-6.532,31.389-10.891,46.826
		c-3.961,14.027-8.635,28.33-16.361,40.789c-4.136,6.672-11.081,15.242-19.383,11.244c-9.81-4.725-9.703-14.648-7.208-23.992
		c3.624-13.572,10.888-26.197,17.817-38.305c6.196-10.826,12.52-21.279,17.458-32.762c7.374-17.148,14.464-35.773,15.913-54.537
		c18.371,7.039,38.378,9.604,57.929,10.332c20.947,0.779,41.149-3.383,60.372-11.703c4.333-1.875,8.605-4.021,12.712-6.454
		c4.708,26.616,17.62,52.239,30.732,75.567c8.06,14.34,18.437,27.264,24.331,42.795c2.127,5.604,4.82,14.037,0.649,19.414
		c-2.971,3.828-9.704,5.881-13.994,3.797c-4.979-2.42-8.774-7.521-11.845-11.947c-4.644-6.691-8.348-14.037-11.753-21.416
		c-6.929-15.02-12.276-30.824-16.742-46.734c-1.86-6.627-3.509-13.32-4.851-20.072c-0.531-2.67-0.986-5.354-1.355-8.051
		c-0.29-2.113-1.438-4.203-1.895-6.328c-0.356-1.662-3.039-1.691-3.375,0c-2.537,12.783,2.379,26.979,5.718,39.299
		c1.858,6.855,3.914,13.68,6.184,20.432c2.729,26.465,8.467,52.533,12.82,78.762c4.628,27.883,9.206,56.408,2.769,84.443
		c-1.034,4.504-5.738,21.914-12.935,12.596c-2.579-3.34-2.64-8.588-2.798-12.59c-0.199-5.041,0.126-10.102,0.363-15.133
		c0.976-20.656-8.709-43.875-24.867-56.836c-20.366-16.336-51.502-15.779-72.273-0.607c-11.505,8.402-17.736,19.145-19.38,33.361
		c-0.845,7.305-0.447,14.984-0.459,22.598c2.242-0.23,4.486-0.436,6.729-0.592c-0.076-2.055-0.188-4.109-0.323-6.158
		c-0.882-13.418-0.973-27.004,8.108-37.893c7.24-8.68,18.27-12.104,28.976-14.236c10.63-2.117,21.176-0.918,31.281,2.738
		c20.622,7.461,34.548,33.715,35.415,54.77c0.384,9.297-1.01,18.672,1.259,27.828c1.666,6.721,8.573,13.586,15.977,10.496
		c8.469-3.535,9.771-16.455,11.369-24.191c3.69-17.863,2.419-36.975,1.12-55.023c-1.938-26.941-8.469-53.164-13.624-79.623
		c0.935,2.117,1.896,4.223,2.887,6.312c5.307,11.189,12.634,26.344,24.966,31.203c5.557,2.189,11.771,0.566,16.828-2.223
		c5.909-3.26,8.457-9.617,8.388-16.096C431.141,423.492,427.124,414.395,423.163,406.209z"></path>
	<path fill="#1A1A1A" d="M259.09,542.25c-0.115-2.881-0.161-5.869-0.5-8.75c-1.932,0.396-4.771,1.654-6.706,1.951
		c0.531,4.338,0.581,8.049,0.831,11.924c0.034,0.531,0.054,1.225,0.056,2.006c0.435,2.518,0.191,5.445,0.009,7.703
		c-0.161,1.986-0.639,4.543-2.324,5.883c-0.469,0.479-1.115,0.82-1.802,0.982c-2.66,1.51-6.459-1.125-8.111-2.979
		c-3.825-4.291-4.924-11.176-6.068-16.531c-0.54-2.527-1.193-5.057-1.756-7.598c-1.612-0.342-4.28,0.416-5.899,0.92
		c1.993,8.107,3.265,16.42,7.205,23.895c3.387,6.426,12.128,11.682,18.86,6.672C260.585,562.598,259.422,550.533,259.09,542.25z"></path>
</g>

<path fill="#1A1A1A" d="M245.836,229.902c-0.366-0.132-0.688-0.143-0.972-0.079c-1.134-0.526-2.473-0.738-4.01-0.497
	c-6.248,0.981-6.635,9.387-3.823,13.585c3.304,4.932,10.342,4.159,13.177-0.811C252.824,237.513,250.755,231.683,245.836,229.902z
	 M246.987,239.15c-0.811,1.788-3.915,2.75-5.229,0.999c-1.085-1.447-1.391-4.399-0.112-5.844c0.801-0.905,1.741-1.263,2.77-1.175
	c0.135,0.104,0.282,0.199,0.456,0.272C247.034,234.305,247.939,237.05,246.987,239.15z"></path>
<path fill="#1A1A1A" d="M369.747,230.9c-0.402-0.296-0.889-0.385-1.368-0.325c-2.281-0.935-4.787-0.753-6.521,1.548
	c-1.957,2.598-2.312,6.095-0.939,9.032c1.612,3.453,6.325,4.048,9.178,1.841C373.87,240.078,373.452,233.619,369.747,230.9z
	 M367.578,240.272c-1.584,0.865-2.784-0.277-3.111-1.43c-0.386-1.359-0.113-2.869,0.586-4.028c0.231-0.385,0.455-0.578,1-0.712
	c0.064-0.016,0.227,0.021,0.428,0.088c0.219,0.365,0.522,0.695,0.893,0.966C369.224,236.517,369.938,238.983,367.578,240.272z"></path>

<path fill="#1A1A1A" d="M385.658,198.682c-5.988-4.763-13.582-4.542-20.074-8.349c-6.658-3.904-10.237-12.93-10.315-20.333
	c-0.036-3.457-4.637-3.789-5.753-0.778c-3.535,9.535-7.993,18.879-13.659,27.327c-4.744,7.073-11.688,14.683-19.586,18.834
	c1.782-7.731,3.871-15.897,6.975-23.491c0.022-0.028,0.048-0.056,0.07-0.084c4.449-5.702,7.646-12.004,11.227-18.244
	c1.001-1.745-1.367-3.615-2.792-2.154c-2.785,2.859-5.165,6.125-7.251,9.642c-5.44,5.764-12.178,10.765-18.214,14.988
	c-9.881,6.913-20.517,12.344-31.83,16.499c-12.993,4.772-26.624,7.824-40.155,10.607c-7.696,1.583-15.343,3.103-22.895,5.292
	c-2.004,0.581-10.538,3.477-10.482,4.896c-0.045-1.147-1.774-1.83-2.33-0.631c-1.257,2.713,0.662,4.064,3.298,4.14
	c2.191,0.063,4.604-0.722,6.716-1.215c3.432-0.803,6.884-1.372,10.374-1.904c17.54-2.674,35.226-5.807,52.173-11.139
	c13.039-4.103,25.673-9.822,37.042-17.434c2.861-1.916,5.773-4.083,8.483-6.454c-2.303,6.773-4.129,13.674-5.898,20.024
	c-0.463,1.663,1.146,3.351,2.838,2.838c16.955-5.137,32.693-19.134,38.878-36.237c1.216,3.834,3.056,7.438,6.322,10.755
	c6.037,6.13,16.688,11.126,25.184,8.874C386.509,204.286,387.926,200.485,385.658,198.682z"></path>
<path fill="#1A1A1A" d="M429.487,292.161c-2.099-3.931-5.568-6.883-7.552-11.035c-2.096-4.387-2.427-9.665-2.535-14.435
	c-0.222-9.67,1.407-19.274,1.905-28.91c0.587-11.365-0.702-23.466-4.591-34.197c-3.445-9.505-8.89-17.747-14.876-25.743
	c5.306,2.109,11.148,2.746,16.503,0.583c1.797-0.726,2.783-3.538,0.601-4.593c-7.382-3.57-13.059-13.324-17.527-19.807
	c-6.054-8.783-12.12-17.628-18.942-25.838c-6.043-7.272-12.907-14.044-21.909-17.416c-4.164-1.56-8.499-1.774-12.829-0.941
	c-1.014,0.195-1.93,0.46-2.781,0.782c3.182-6.386,5.01-13.711,3.166-20.319c-0.772-2.77-4.508-3.907-6.551-1.729
	c-14.075,15.004-32.807,17.815-52.36,19.234c-19.237,1.396-39.065,1.019-57.213,8.458c-16.677,6.837-31.215,19.564-39.793,35.411
	c-4.106,7.586-6.734,15.927-8.451,24.351c-1.459,7.16-2.38,15.56-1.911,23.248c-0.188,0.407-0.311,0.872-0.333,1.403
	c-1.085,25.02-5.346,57.315-27.78,72.67c-2.705,1.851-2.442,6.073,0.921,7.049c6.167,1.789,14.03,1.586,20.611-0.941
	c-2.124,12.654,1.806,24.566,8.268,36.457c5.613,10.33,22.917,22.949,14.917,35.934c-2.026,3.289,3.017,6.148,5.128,2.998
	c2.486-3.713,4.678-7.363,6.156-11.283c1.943,4.732,3.859,9.51,3.613,14.449c-0.058,1.162,1.64,1.314,1.964,0.266
	c1.38-4.463,1.568-7.141,0.332-11.705c-1.274-4.709-3.272-9.086-4.048-13.938c-0.501-3.138-5.082-2.132-5.259,0.712
	c-0.123,1.969-0.506,3.834-1.067,5.629c-2.068-6.352-6.747-12.324-10.792-17.779c-10.542-14.215-17.252-31.461-9.586-48.64
	c1.599-3.584-2.82-7.907-5.839-4.505c-3.294,3.711-8.595,5.547-13.851,5.838c19.073-18.293,23.003-47.676,23.313-73.209
	c0.007-0.6-0.112-1.114-0.316-1.554c0.172-2.557,0.263-5.128,0.52-7.663c0.461-4.544,1.333-8.989,2.138-13.478
	c1.488-8.297,4.096-16.359,8.023-23.823c8.738-16.609,24.922-28.831,42.814-33.994c32.451-9.365,72.06,3.104,99.221-19.902
	c-0.98,5.331-4.022,10.615-6.976,14.615c-2.667,3.612,3.09,6.993,5.911,3.858c3.29-1.014,7.526-1.431,10.622-1.386
	c3.82,0.054,7.409,0.947,10.804,2.691c8.114,4.17,14.342,11.304,19.953,18.321c6.014,7.519,11.354,15.545,17.383,23.053
	c3.412,4.249,6.938,7.847,10.809,11.2c-0.732-0.2-1.434-0.397-2.064-0.558c-3.048-0.778-5.954-1.998-8.59-3.71
	c-3.09-2.008-6.244,1.827-4.747,4.747c0.391,0.761,0.754,1.444,1.151,2.096c0.04,0.151,0.095,0.306,0.172,0.464
	c5.195,10.634,10.034,21.708,12.975,33.207c2.938,11.494,3.614,22.972,2.504,34.775c-0.965,10.249-2.438,20.468-0.869,30.741
	c0.949,6.211,3.686,14.896,8.965,19.744c-5.466,0.879-12.235-3.083-15.739-6.274c-2.938-2.577-7.17,1.541-4.324,4.324
	c0.565,0.553,1.147,1.07,1.739,1.571c9.344,9.265,5.394,21.521,1.291,32.915c-4.14,11.496-10.195,23.443-8.556,36.02
	c0.601,4.605,7.862,4.779,7.375,0c-1.415-13.873,7.083-26.93,11.435-39.607c2.842-8.279,2.765-16.286-0.226-23.385
	c5.702,1.505,10.104-0.315,15.405-2.16C429.578,296.726,430.647,294.335,429.487,292.161z"></path>

<path fill="#1A1A1A" d="M255.532,530.571c-7.79-1.255-17.191,0.287-24.63,2.759c-2.74,0.911-1.565,5.258,1.196,4.34
	c7.773-2.584,15.546-1.894,23.434-3.241C257.44,534.104,257.458,530.882,255.532,530.571z"></path>
<path fill="#1A1A1A" d="M253.885,538.771c-5.093,0.83-10.218,1.138-15.297,2.138c-1.523,0.301-4.265,1.332-5.396,2.464
	c-1.501,1.501,0.833-0.762-0.513,0.584c-0.39,0.391-0.626,1-0.554,1.544c0.137,1.033,1.061,1.713,2.069,1.188
	c0.098-0.054,0.178-0.104,0.267-0.156c2.488,0.387,6.106-0.678,8.268-1.022c4.143-0.661,8.314-1.245,12.387-2.276
	C258.061,542.482,256.764,538.299,253.885,538.771z"></path>
<path fill="#1A1A1A" d="M387.581,542.391c-6.445-1.816-13.458-1.892-20.081-2.703c-2.026-0.245-2.485,3.214-0.481,3.562
	c6.456,1.127,12.936,2.336,19.4,3.361C389.142,547.041,390.356,543.174,387.581,542.391z"></path>
<path fill="#1A1A1A" d="M390.781,535.219c-3.062-2.756-7.895-3.43-11.883-3.871c-4.286-0.474-9.618-1.249-13.277,1.506
	c-0.405,0.308-0.562,1.023,0,1.297c3.403,1.644,7.401,1.208,11.088,1.752c4.155,0.61,8.619,2.851,12.791,2.413
	C390.938,538.162,392.073,536.381,390.781,535.219z"></path>

<path fill="rgba(26,26,26,0.25)" d="M255.271,534.062c-1.816-1.816-4.094-1.299-6.368-1.142c-1.343,0.093-3.086,0.881-4.761,1.365
	c-0.25-0.154-0.532-0.27-0.851-0.323c-1.859-0.312-3.396-0.375-5.25,0c-1.117,0.226-1.784,1.019-2.026,1.95
	c-0.575-0.083-1.15-0.176-1.724-0.282c-3.613-0.673-5.218,4.609-1.964,5.629c0.052,1.437,0.988,2.739,2.839,2.55
	c1.833-0.188,3.465-0.736,4.973-1.541c2.443,0.159,4.896,0.208,7.361,0.209c0.841,0,1.486-0.295,1.959-0.74
	c0.124,0.025,0.241,0.06,0.374,0.072C253.753,542.176,259.183,537.973,255.271,534.062z"></path>
<path fill="rgba(26,26,26,0.25)" d="M389.703,537.041c-0.409-2.235-2.586-2.573-4.152-1.705c-0.803-0.48-1.825-0.609-2.887-0.074
	c-0.582,0.293-1.275,0.499-2.012,0.651c-0.111-0.088-0.225-0.171-0.342-0.245c-2.309-1.46-4.786-1-7.354-1.372
	c-0.668-0.097-1.266,0.012-1.779,0.248c-1.353-1.796-4.644-1.956-5.215,0.831c-1.36,6.635,6.445,7.635,12.918,6.809
	c1.288,0.927,2.745,1.528,4.348,1.794C387.901,544.754,390.52,541.498,389.703,537.041z"></path>

<path fill="#1A1A1A" d="M327.642,275.423c-9.846,15.755-33.91,16.953-47.843,6.119c-2.041-1.587-4.82,0.949-2.917,2.917
	c15.838,16.375,44.78,14.921,56.156-5.881C334.977,275.033,329.775,272.008,327.642,275.423z"></path>

<path fill="#1A1A1A" d="M209.854,450.41c-8.889-4.602-17.175-10.867-26.966-13.398c-2.198-0.566-3.765,2.754-1.589,3.771
	c9.192,4.289,16.86,11.219,26.244,15.109C210.702,457.205,212.837,451.953,209.854,450.41z"></path>
<path fill="#1A1A1A" d="M216.413,442.166c-9.755-5.771-19.205-12.133-28.172-19.066c-2.706-2.092-6.54,1.686-3.801,3.803
	c9.382,7.254,18.907,14.188,29.828,18.936C216.716,446.9,218.832,443.598,216.413,442.166z"></path>
<path fill="#1A1A1A" d="M425.34,427c-4.396,0.141-9.064,2.303-13.124,3.926c-3.917,1.568-7.468,3.562-10.774,6.174
	c-2.722,2.148,1.11,5.926,3.801,3.803c3.323-2.623,7.14-4.336,11.071-5.832c3.53-1.346,7.463-2.285,10.44-4.654
	C428.148,429.305,426.967,426.949,425.34,427z"></path>
<path fill="#1A1A1A" d="M425.104,417.229c-5.992-1.402-14.001,0.873-19.773,2.514c-5.578,1.582-11.906,4.262-14.102,10.049
	c-0.629,1.658,1.591,2.494,2.697,1.568c4.038-3.371,9.155-5.148,14.188-6.414c5.58-1.402,11.521-0.775,16.987-2.17
	C427.819,422.08,427.889,417.881,425.104,417.229z"></path>
<path fill="#1A1A1A" d="M313.373,344.764c10.801-4.936,29.409-23.426,13.724-34.059c-1.229-0.833-2.893,0.822-2.052,2.053
	c1.904,2.787,4.05,4.912,4.465,8.445c0.435,3.688-1.659,7.1-3.944,9.75c-3.134,3.633-7.124,6.441-11.322,8.751
	c0.067-7.339,2.621-14.558,4.762-21.521c0.228-0.735-0.928-1.246-1.257-0.531c-3.837,8.336-7.896,15.744-7.452,25.209
	c-1.413,1.541-2.826,3.076-4.257,4.602c-4.146-2.855-7.095-6.838-8.19-11.878c-0.052-0.237-0.14-0.431-0.252-0.59
	c1.449-5.127,1.783-10.237,1.245-15.995c-0.217-2.324-2.429-2.861-3.824-2.002c-6.52-1.873-12.901-1.135-18.167,3.511
	c-0.873,0.771-0.762,2.196,0,2.983c5.77,5.961,11.494,11.799,16.809,18.191c0.377,0.453,1.269,0.342,1.517-0.195
	c0.221-0.479,0.431-0.952,0.631-1.426c1.568,4.303,4.48,7.898,8.202,10.674c-2.307,18.387-0.08,37.397,1.191,55.795
	c1.46,21.117,3.22,42.291,3.392,63.469c0.029,3.547,5.488,3.549,5.5,0c0.07-20.66-1.604-41.209-3.345-61.779
	c-1.587-18.756-2.548-37.562-4.01-56.314c0.368-0.084,0.719-0.264,0.986-0.521C309.745,349.447,312.071,347.291,313.373,344.764z
	 M293.928,338.921c-4.252-5.463-7.866-11.528-12.487-16.679c3.531-2.33,8.243-3.111,12.453-3.314
	c-0.014,0.23-0.009,0.475,0.036,0.737C294.967,325.809,295.473,332.764,293.928,338.921z"></path>
<path fill="#1A1A1A" d="M383.34,465.125c-27.6-0.998-55.169-0.076-82.732,1.443c-13.214,0.729-26.644,1.486-39.75,3.338
	c-12.703,1.793-27.857,3.424-38.799,10.607c-0.472,0.311-0.285,1.021,0.284,1.049c12.646,0.572,25.742-3.863,38.178-5.85
	c14.006-2.234,27.766-4.191,41.947-4.93c26.947-1.398,53.944,1.117,80.875,2.09C388.34,473.057,388.322,465.305,383.34,465.125z"></path>

<path fill="rgba(26,26,26,0.25)"  d="M295.709,329.7c0.427-0.729,0.751-2.017,0.429-2.835
	c-0.43-1.094-0.86-2.186-1.29-3.279c-0.061-0.154-0.143-0.281-0.228-0.404c-0.052-0.605-0.093-1.221-0.094-1.848
	c-0.002-1.096,0.647-3.053-0.358-3.166c-3.503-0.396-8.022,1.871-11.495,1.768c-2.354-0.069-3.658,3.049-1.932,4.664
	c0.469,0.438,0.966,0.82,1.477,1.211c0.702,0.537,1.104,1.802,1.95,1.357c-0.095,2.744,1.978,4.639,3.698,6.309
	c0.553,0.537,1.167,0.836,1.784,0.951c0.177,0.389,0.362,0.776,0.521,1.172c0.307,0.762,1,1.244,1.749,1.437
	c0.118,2.233,3.403,2.216,3.513-0.033c0.022-0.473,0.023-0.932,0.015-1.387c-0.014-1.667-0.22-3.429-0.524-5.082
	C295.237,330.301,295.519,330.025,295.709,329.7z"></path>
<path fill="rgba(26,26,26,0.25)"  d="M330.903,317.668c-0.398-3.211-4.132-4.188-6.034-2.75
	c-1.655-0.805-3.903-0.492-5.315,1.398c-1.789,2.395-2.525,5.123-3.19,7.939c-0.013,0.025-0.021,0.053-0.033,0.076
	c-0.022,0.049-0.044,0.098-0.066,0.146c0.001,0,0.002,0,0.003,0.002c-0.148,0.346-0.298,0.689-0.438,1.033
	c-0.271,0.65-0.325,1.27-0.245,1.848c-0.971,3.133-2.586,5.863-3.888,8.896c-1.258,2.929,1.48,6.733,4.727,4.728
	C325.05,335.643,332.265,328.645,330.903,317.668z"></path>
<path fill="rgba(26,26,26,0.25)"  d="M210.674,441.084c-1.276-0.07-2.516-0.031-3.777,0.215
	c-0.281,0.059-2.822-1.697-3.203-1.904c-0.855-0.463-1.685-0.93-2.524-1.371c0.112-0.471,0.135-0.977,0.057-1.479
	c-0.375-2.412-3.548-4.244-5.573-5.203c-1.13-0.535-2.228-1.028-3.349-1.436c-0.265-1.555-1.413-2.896-3.298-2.705
	c-1.588,0.158-3.039,0.393-4.564,0.881c-2.307,0.736-3.166,3.412-1.771,5.301c-0.216,2.842,1.95,5.73,5.8,7.541
	c2.953,1.387,6.303,1.83,9.003,3.664c4.071,2.764,8.234,6.426,13.199,6.998C217.29,452.348,217.504,441.461,210.674,441.084z"></path>
<path fill="rgba(26,26,26,0.25)"  d="M423.674,421.666c-8.224,0.645-16.266,1.588-24.331,3.381
	c0.007,0.025,0.017,0.053,0.021,0.078c-1.411,0.471-2.264,1.629-2.535,2.895c-0.166,0.07-0.331,0.141-0.498,0.213
	c-2.802,1.211-2.368,4.656-0.502,6.4c-1.179,2.492,0.861,4.65,3.168,4.896c0.104,0.613,0.368,1.207,0.823,1.662
	c1.484,1.484,3.744,1.002,4.856-0.629c0.608-0.889,0.865-1.902,0.985-2.953c0.077-0.678-0.275-1.602-0.508-2.238
	c-0.012-0.027-0.022-0.051-0.032-0.076c2.032-1.578,4.522-2.654,7.172-3.465c4.165-0.439,8.249-1.271,12.321-2.947
	c0.01-0.002,0.021-0.006,0.032-0.008c0.279-0.08,0.529-0.193,0.766-0.324c0.036-0.016,0.073-0.027,0.11-0.047l-0.011-0.02
	C428.391,426.736,427.547,421.361,423.674,421.666z"></path>
</svg>