<!DOCTYPE svg PUBLIC "-//W3C//DTD SVG 1.1//EN" "http://www.w3.org/Graphics/SVG/1.1/DTD/svg11.dtd"><svg version="1.1" id="Layer_1" xmlns="http://www.w3.org/2000/svg" xmlns:xlink="http://www.w3.org/1999/xlink" x="0px" y="0px" width="600px" height="600px" viewBox="0 0 600 600" enable-background="new 0 0 600 600" xml:space="preserve">
<path fill="#E6E6E6" d="M423.801,420.873c-3.123-7.451-7.406-14.242-11.883-20.92c-0.45-5.402-4.109-10.451-6.722-15.02
	c-3.103-5.428-6.061-10.932-9.16-16.355c-2.008-3.512-4.122-7.002-6.369-10.406c-0.726-1.404-1.466-2.801-2.231-4.188
	c-0.639-1.156-1.3-2.305-1.977-3.447c-1.476-7.727-4.284-15.164-7.242-22.449c-3.982-9.816-7.964-19.648-12.066-29.413
	c-0.281-0.67-0.655-1.23-1.091-1.694c8.987-5.386,17.46-11.864,24.782-19.078c1.072-1.056,2.045-2.162,2.967-3.292
	c0.111-0.267,0.226-0.531,0.325-0.807c1.227-3.325,2.337-6.708,3.101-10.173c1.571-7.154,2.25-14.434,2.172-21.758
	c-0.084-7.896-0.628-15.782-1.226-23.665c-1.823-4.474-4.151-8.715-7.062-12.489c-0.062-0.276-0.123-0.554-0.186-0.827
	c-1.564-7.039-4.754-13.344-9.145-19.003c-0.056-0.071-0.117-0.137-0.172-0.208c-2.382-8.318-10.63-14.582-16.632-20.457
	c-7.003-6.855-13.012-12.084-22.597-14.933c-4.52-1.344-9.216-2.105-13.947-2.625c-6.475-2.355-13.062-4.392-19.86-5.283
	c-6.486-2.721-13.351-4.15-20.609-2.809c-5.467,1.01-9.317,4.636-13.401,7.917c-0.292,0.096-0.584,0.192-0.875,0.289
	c-17.29,3.257-32.859,9.624-46.644,21.301c-6.962,5.897-12.92,13.156-17.393,21.1c-3.657,6.496-5.297,12.704-4.642,19.477
	c-1.574,4.415-2.755,9.008-3.465,13.748c-0.814,5.435-1.266,10.739-0.802,16.22c0.108,1.279,0.242,2.556,0.386,3.832
	c-1.83,1.036-3.233,2.718-3.632,5.045c-0.43,2.508-0.475,5.374,0.213,7.876c0.152,0.553,0.367,1.036,0.607,1.492
	c1.43,9.652,4.692,18.406,11.236,26.507c7.347,9.096,18.076,14.842,28.69,19.21c0.029,0.012,0.059,0.021,0.088,0.034
	c-1.368,0.86-2.382,2.319-2.494,4.378c-1.26,23.15-11.254,45.09-21.069,65.748c-3.721,7.83-7.92,15.43-11.858,23.164
	c-4.726,5.562-9.113,12.045-11.521,18.898c-0.37,1.057-0.744,2.119-1.105,3.189c-1.89,2.854-3.418,5.809-4.408,8.906
	c-4.625,10.516-7.223,23.104,0.622,31.096c5.346,5.445,14.127,4.84,20.079,0.922c6.616-4.354,10.705-11.771,14.03-18.732
	c3.462-7.25,6.529-14.717,9.364-22.326c-0.266,4.227-0.333,8.461-0.304,12.701c-0.825,0.812-1.383,1.956-1.44,3.434
	c-0.021,0.555-0.054,1.106-0.089,1.66c-1.322,1.071-2.226,2.727-2.209,4.34c0.041,3.852,0.214,7.693,1.275,11.414
	c0.036,0.125,0.092,0.229,0.134,0.346c-1.11,8.152-1.98,16.33-2.131,24.566c-0.069,3.785-0.267,10.729,1.221,16.338
	c-0.004,2.68,0.061,5.361,0.214,8.039c-2.464,23.736,0.102,50.547,17.639,66.23c4.001,2.695,11.005,0.191,11.8-4.799
	c1.661-10.43,1.964-20.826,1.845-31.367c-0.104-9.206-0.607-18.639,0.803-27.771c1.703-11.031,9.644-18.137,17.381-25.342
	c4.017-1.4,8.021-2.859,12.045-4.232c8.378-1.752,16.831-2.855,25.435-2.727c8.824,0.133,17.578,1.938,25.438,5.922
	c2.105,3.946,4.421,7.826,7.822,11.338c4.146,4.283,8.866,7.029,12.71,10.969c2.49,6.656,3.105,13.746,3.396,20.898
	c0.011,0.025,0.021,0.051,0.031,0.076c2.307,6.102,2.979,12.654,3.536,19.111c0.618,7.158,0.756,14.504,2.789,21.449
	c0.697,2.391,1.55,4.764,2.753,6.949c4.089,2.664,10.11,0.869,11.726-4.354c5.771-18.686,7.737-37.979,7.438-57.504
	c-0.301-19.527-4.116-38.236-7.354-57.389c-2.857-16.92-4.251-34.367-7.313-51.297c1.521,3.188,3.157,6.314,4.947,9.377
	c2.388,4.08,4.561,9.1,7.975,12.58l0.041,0.062c0.067,0.867,0.29,1.764,0.712,2.676c0.535,1.156,1.127,2.27,1.745,3.361
	c1.65,3.66,4.318,7.914,7.593,11.631c0.331,0.527,0.67,1.156,0.698,1.443c0.433,4.371,4.512,6.305,7.824,5.709
	c4.146,2.297,8.594,3.025,12.854,0.865c1.464-0.549,2.82-1.479,3.841-2.801C428.681,436.451,426.613,427.584,423.801,420.873z
	 M360.48,346.246c-0.004-0.553,0.016-1.105,0.002-1.658c0.062,0.049,0.134,0.082,0.196,0.127c0.034,0.525,0.095,1.059,0.163,1.596
	C360.725,346.285,360.601,346.27,360.48,346.246z M367.413,367.807c-0.74-1.881-1.55-3.738-2.396-5.586
	c0.257,0.266,0.506,0.533,0.747,0.807c0.543,1.488,1.104,2.973,1.688,4.441C367.436,367.582,367.428,367.695,367.413,367.807z"></path>

<path fill="#d627d6" d="M336.798,148.182c-2.37-3.19-6.803-4.744-9.965-7.349c-4.344-3.574-8.904-9.192-13.333-12.667
	c-7.812-6.127-18.654-9.267-26.37-0.045c-0.659,0.787-0.739-0.156-0.796,0.878c-0.253,0.322-0.251-0.336-0.5,0
	c-0.521-6.82,0.245-10.679,2.305-17.286c1.543-4.946-5.78-6.706-7.594-2.094c-2.7,6.868-4.809,13.437-4.34,20.013
	c-5.91-2.125-12.258-2.431-17.217,2.035c-2.265,2.04-0.463,5.896,2.433,5.874c6.916-0.055,12.91,2.286,18.38,6.41
	c1.473,1.11,4.102,0.979,5.591,0c0.059-0.039,0.104-0.079,0.16-0.118c0.837,0.305-1.155,1.499-0.218,1.166
	c0.487-0.173,2.364,0.576,2.833,0.333c6.183,1.088,11.365,3.754,13.271,9.718c1.229,3.841,0.469,9.946,2.939,13.411
	c-0.175,3.195-0.46,6.401-0.373,9.591c0.194,7.118,4.984,13.901,7.438,20.446c1.972,5.26,9.645,3.266,8.465-2.334
	c-1.279-6.071,2.3-11.378,3.64-17.007c1.285-5.404,1.405-11.19-0.381-16.326c-1.27-3.646-2.138-5.314-4.166-8.667
	c0.114,0.014-0.117-0.843,0-0.833c2.166-1,2.037,1.387,2.833-0.167c7.5,0.167,10.775,2.975,14.4-0.61
	C337.291,151.512,337.748,149.462,336.798,148.182z"></path>

<path fill="#3a00db" d="M282.84,470.354c-2.979-0.143-6.059,0.515-9.068,1.736c-2.522,0.256-5.071,0.346-7.707,0.394
	c-4.866,0.088-9.838,1.229-14.631,2.008c-5.414,0.879-11.441,1.371-15.609,5.045c-1.807-0.01-3.608,0.021-5.412,0.178
	c-0.652-0.233-1.368-0.262-2.105,0.043c-0.478,0.232-0.981,0.387-1.511,0.461c-3.232,0.773-3.698,5.248-1.299,6.982
	c-0.534,2.108-0.552,4.387-0.217,6.562c-0.532,0.947-1.023,1.939-1.461,2.992c-1.129,2.717,1.714,6.162,4.52,5.935
	c9.498-0.771,18.474-4.437,28-4.902c1.558-0.076,3.365-1.084,3.649-2.779c0.396-2.358,1.758-4.545,3.418-6.516
	c0.478-0.193,0.947-0.392,1.396-0.584c1.171-0.506,2.128-1.312,3.021-2.211c0.922-0.931,1.331-1.904,1.546-3.041
	c1.609-1.363,3.339-2.609,5.185-3.607c2.993-0.967,6.008-1.881,9.122-2.512C287.303,475.799,286.244,470.516,282.84,470.354z"></path>
<path fill="#3a00db" d="M384.902,483.518c-0.207-0.87-0.527,0.67-0.277-4.205c-0.347-2.41,0-0.938-0.125-2.125
	c0.562-2.562-1.095-7.02-3.66-7c-14.504,0.115-28.975-5.334-43.504-2.327c-0.414,0.086-0.782,0.262-1.11,0.487
	c-1.117-0.229-2.328-0.28-3.341-0.422c-0.307-0.043-0.606-0.059-0.91-0.09c-0.023-0.004-0.047-0.01-0.069-0.014
	c-0.025-0.004-0.047-0.011-0.072-0.013c-2.181-0.209-4.305,0.189-6.487,0.189c-0.002,0-0.345,0-0.345,0v0.012
	c0,0.017-0.033,0.029-0.136,0.045c-0.988,0.164-0.936,1.519-0.298,2.041c-0.81,0.785-0.849,2.439,0.315,2.968
	c9.705,4.395,21.246,8.303,26.521,18.161c5.604,10.478,18.776,10.582,29.427,10.021c1.042-0.057,1.913-0.404,2.597-0.953
	c1.681,0.512,3.715-0.533,3.916-2.793C387.77,492.691,385.997,488.137,384.902,483.518z"></path>

<path fill="#808080" d="M423.327,420.625c-3.116-10.477-8.493-19.711-14.48-28.635c-3.349-6.086-7.075-12.072-10.836-18.068
	c-0.075-0.287-0.18-0.58-0.325-0.877c-3.757-7.654-7.983-15.148-12.393-22.553c-4.304-9.607-7.924-19.549-11.807-29.359
	c-0.436-1.1-1.195-1.76-2.039-2.064c-0.582-4.291-0.813-8.643-0.569-13.067c0.195-3.545-3.692-6.367-7.011-5.34
	c-7.025,2.175-13.309,6.19-19.927,9.308c-3.592,1.691-7.434,2.739-11.399,2.874c-4.162,0.142-6.632-1.196-10.576,0.72
	c-9.034,4.388-11.973,16.599-13.293,26.637c-1.426,0.182-1.809,0.28-3.297,0.426c-0.042,0.004-0.583,0.121-0.625,0.125
	c-5.925-6.358-11.056-13.397-13.625-21.5c-0.933-2.939-3.79-4.473-6.785-4.723c-13.16-1.1-28.68-1.146-40.749-7.088
	c-3.982-1.959-7.917-0.203-9.463,3.852c-7.304,19.148-9.798,39.516-19.492,57.771c-9.205,17.332-19.707,33.821-27.523,51.887
	c-0.404,0.932-0.581,1.846-0.583,2.717c-1.861,0.887-3.173,2.969-2.852,5.129c-0.87,1.342-0.988,3.053,0.315,4.75
	c0.264,0.344,0.537,0.67,0.808,1l-0.021,0.021c0.033,0.026,0.068,0.053,0.102,0.079c2.887,3.5,6.163,6.285,9.746,9.064
	c0.001,0.002,0.002,0.004,0.004,0.004c0.224,0.197,0.45,0.367,0.677,0.523c0.129,0.1,0.255,0.196,0.385,0.297
	c0.007-0.013,0.013-0.021,0.02-0.033l0.023,0.012c3.832,2.793,9.943,5.726,14.763,6.363c3.059,0.403,3.719-3.265,4.063-5.843
	c0.709-0.535,1.401-1.146,2.011-1.818c2.597-0.111,5.06-1.998,5.109-5.209c0.036-2.32,0.065-4.69-0.032-7.055
	c5.121-7.816,8.726-17.209,12.526-25.334c0.162-0.347,0.327-0.697,0.49-1.047c-1.696,6.149-2.693,12.414-3.412,18.727
	c-0.741,4.988-1.401,9.996-2.158,14.988c-0.201,1.321-0.038,2.522,0.375,3.574c-0.483,3.188-0.912,6.387-1.296,9.592
	c-1.238,6.287-2.236,12.615-2.902,18.981c-0.634,0.941-0.993,2.101-1.047,3.572c-0.151,4.078,4.401,6.102,7.695,4.416
	c9.611-4.918,20.39-2.732,30.828-4.545c0.518-0.039,1.607-0.709,2.125-0.75c3.125-0.5,1.108-0.629,3.466-0.418
	c8.437,0.754,17.328-0.766,25.646-2.049c6.315-0.974,12.593-2.267,18.685-4.166c22.237,0.541,44.416,2.711,66.669,2.824
	c5.854,0.03,7.498-6.509,4.937-10.187c0.543-1.883,0.424-3.938-0.54-5.775c-2.924-7.618-5.567-15.297-7.97-23.062
	c1.301-5.902-1.315-13.348-2.557-18.764c-0.223-0.972-0.464-1.937-0.691-2.906c1.062-8.963,2.036-27.475-6.809-31.725
	c-0.382-2.396-0.777-4.791-1.204-7.185c-1.34-7.502-2.755-15.01-4.661-22.392c0.644-0.934,1.223-1.891,1.762-2.872
	c6.589,29.696,13.371,59.401,32.036,84.299c0.274,0.367,0.584,0.682,0.917,0.961c-0.796,2.893,1.025,6.049,4.78,6.402
	c6.499,0.608,13.118-1.29,15.784-5.737c2.223-0.877,3.738-2.784,5.827-3.905C422.951,425.393,423.968,422.781,423.327,420.625z"></path>

<g>
	<path fill="#1A1A1A" d="M423.163,406.209c-4.354-8.998-9.647-17.508-14.821-26.045c-6.675-11.016-12.323-22.676-18.068-34.195
		c-7.579-15.195-14.788-30.41-18.365-47.083c5.307-3.607,10.229-7.754,14.488-12.512c8.616-9.622,12.323-21.681,13.7-34.318
		c1.584-14.538-0.715-29.608-4.881-43.54c-3.786-12.662-9.725-26.516-19.356-35.847c-2.726-2.64-7.691,0.871-5.398,4.166
		c13.619,19.575,21.781,41.418,22.042,65.493c0.116,10.798-1.616,22.225-7.124,31.662c-5.175,8.865-13.824,15.376-22.499,20.53
		c-18.053,10.727-40.441,17.032-61.447,17.256c-20.624,0.221-41.908-2.006-61.425-8.931c-18.381-6.521-35.912-19.696-38.407-40.287
		c-1.278-10.546,0.13-21.12,1.06-31.621c0.625-7.068,2.922-15.557-0.481-22.065c-0.591-1.13-2.3-0.809-2.627,0.343
		c-2.232,7.844-3.524,16.325-4.705,24.51c-1.56,10.814-2.579,21.583-0.999,32.452c2.96,20.365,20.157,34.565,38.075,42.176
		c-6.567,22.816-13.621,46.576-25.089,67.484c-8.674,15.812-18.322,31.035-25.067,47.836c-5.168,12.873-9.756,29.578,2.661,39.662
		c8.357,6.789,17.976,5.875,25.903-1.01c5.7-4.947,9.731-11.91,13.024-18.959c-2.392,15.482-3.315,31.02-2.899,46.678
		c0.427,16.064,1.99,32.576,6.394,48.08c0.088,0.309,0.186,0.621,0.278,0.934c1.946-0.383,3.894-0.744,5.847-1.092
		c-0.515-2.232-0.962-4.475-1.241-6.73c-0.137-0.668-0.257-1.355-0.367-2.047c-0.128-0.67-0.249-1.346-0.354-2.025
		c-3.084-13.184-3.937-26.875-4.151-40.367c-0.245-15.398,1.384-30.393,3.051-45.684c0.769-7.051,1.672-14.066,2.654-21.068
		c2.686-8.141,4.942-16.432,7.002-24.729c3.243-13.061,5.641-26.098,7.072-39.477c0.92-8.596,2.421-17.584,1.795-26.248
		c-0.233-3.229-4.739-3.211-5,0c-0.851,10.479-2.698,20.814-4.953,31.072c-3.44,15.654-6.532,31.389-10.891,46.826
		c-3.961,14.027-8.635,28.33-16.361,40.789c-4.136,6.672-11.081,15.242-19.383,11.244c-9.81-4.725-9.703-14.648-7.208-23.992
		c3.624-13.572,10.888-26.197,17.817-38.305c6.196-10.826,12.52-21.279,17.458-32.762c7.374-17.148,14.464-35.773,15.913-54.537
		c18.371,7.039,38.378,9.604,57.929,10.332c20.947,0.779,41.149-3.383,60.372-11.703c4.333-1.875,8.605-4.021,12.712-6.454
		c4.708,26.616,17.62,52.239,30.732,75.567c8.06,14.34,18.437,27.264,24.331,42.795c2.127,5.604,4.82,14.037,0.649,19.414
		c-2.971,3.828-9.704,5.881-13.994,3.797c-4.979-2.42-8.774-7.521-11.845-11.947c-4.644-6.691-8.348-14.037-11.753-21.416
		c-6.929-15.02-12.276-30.824-16.742-46.734c-1.86-6.627-3.509-13.32-4.851-20.072c-0.531-2.67-0.986-5.354-1.355-8.051
		c-0.29-2.113-1.438-4.203-1.895-6.328c-0.356-1.662-3.039-1.691-3.375,0c-2.537,12.783,2.379,26.979,5.718,39.299
		c1.858,6.855,3.914,13.68,6.184,20.432c2.729,26.465,8.467,52.533,12.82,78.762c4.628,27.883,9.206,56.408,2.769,84.443
		c-1.034,4.504-5.738,21.914-12.935,12.596c-2.579-3.34-2.64-8.588-2.798-12.59c-0.199-5.041,0.126-10.102,0.363-15.133
		c0.976-20.656-8.709-43.875-24.867-56.836c-20.366-16.336-51.502-15.779-72.273-0.607c-11.505,8.402-17.736,19.145-19.38,33.361
		c-0.845,7.305-0.447,14.984-0.459,22.598c2.242-0.23,4.486-0.436,6.729-0.592c-0.076-2.055-0.188-4.109-0.323-6.158
		c-0.882-13.418-0.973-27.004,8.108-37.893c7.24-8.68,18.27-12.104,28.976-14.236c10.63-2.117,21.176-0.918,31.281,2.738
		c20.622,7.461,34.548,33.715,35.415,54.77c0.384,9.297-1.01,18.672,1.259,27.828c1.666,6.721,8.573,13.586,15.977,10.496
		c8.469-3.535,9.771-16.455,11.369-24.191c3.69-17.863,2.419-36.975,1.12-55.023c-1.938-26.941-8.469-53.164-13.624-79.623
		c0.935,2.117,1.896,4.223,2.887,6.312c5.307,11.189,12.634,26.344,24.966,31.203c5.557,2.189,11.771,0.566,16.828-2.223
		c5.909-3.26,8.457-9.617,8.388-16.096C431.141,423.492,427.124,414.395,423.163,406.209z"></path>
	<path fill="#1A1A1A" d="M259.09,542.25c-0.115-2.881-0.161-5.869-0.5-8.75c-1.932,0.396-4.771,1.654-6.706,1.951
		c0.531,4.338,0.581,8.049,0.831,11.924c0.034,0.531,0.054,1.225,0.056,2.006c0.435,2.518,0.191,5.445,0.009,7.703
		c-0.161,1.986-0.639,4.543-2.324,5.883c-0.469,0.479-1.115,0.82-1.802,0.982c-2.66,1.51-6.459-1.125-8.111-2.979
		c-3.825-4.291-4.924-11.176-6.068-16.531c-0.54-2.527-1.193-5.057-1.756-7.598c-1.612-0.342-4.28,0.416-5.899,0.92
		c1.993,8.107,3.265,16.42,7.205,23.895c3.387,6.426,12.128,11.682,18.86,6.672C260.585,562.598,259.422,550.533,259.09,542.25z"></path>
</g>

<path fill="#1A1A1A" d="M245.836,229.902c-0.366-0.132-0.688-0.143-0.972-0.079c-1.134-0.526-2.473-0.738-4.01-0.497
	c-6.248,0.981-6.635,9.387-3.823,13.585c3.304,4.932,10.342,4.159,13.177-0.811C252.824,237.513,250.755,231.683,245.836,229.902z
	 M246.987,239.15c-0.811,1.788-3.915,2.75-5.229,0.999c-1.085-1.447-1.391-4.399-0.112-5.844c0.801-0.905,1.741-1.263,2.77-1.175
	c0.135,0.104,0.282,0.199,0.456,0.272C247.034,234.305,247.939,237.05,246.987,239.15z"></path>
<path fill="#1A1A1A" d="M369.747,230.9c-0.402-0.296-0.889-0.385-1.368-0.325c-2.281-0.935-4.787-0.753-6.521,1.548
	c-1.957,2.598-2.312,6.095-0.939,9.032c1.612,3.453,6.325,4.048,9.178,1.841C373.87,240.078,373.452,233.619,369.747,230.9z
	 M367.578,240.272c-1.584,0.865-2.784-0.277-3.111-1.43c-0.386-1.359-0.113-2.869,0.586-4.028c0.231-0.385,0.455-0.578,1-0.712
	c0.064-0.016,0.227,0.021,0.428,0.088c0.219,0.365,0.522,0.695,0.893,0.966C369.224,236.517,369.938,238.983,367.578,240.272z"></path>

<path fill="#1A1A1A" d="M376.087,173.634c-3.665-6.552-10.222-11.868-16.225-16.166c-4.609-3.3-9.479-6.335-14.862-7.933
	c-0.252-0.503-0.707-0.906-1.39-1.058c-8.842-1.963-13.627-6.955-18.876-13.944c-3.96-5.272-8.264-10.171-14.234-13.159
	c-6.083-3.043-14.66-4.476-20.348-1.519c0.3-5.286,0.588-10.572,0.2-15.855c-0.134-1.819-2.25-3.607-4.031-2.313
	c-6.917,5.026-15.023,16.075-11.651,24.955c-8.818-2.699-21.91,0.508-24.041,9.853c-0.454,1.99,0.923,3.995,3.044,3.997
	c5.708,0.004,12.087-0.492,17.417,1.895c-36.623,8.547-72.007,38.289-73.688,76.948c-0.165,3.788,5.719,3.775,5.875,0
	c1.758-42.635,45.676-68.868,84.396-71.333c5.112-0.326,5.17-8.265,0-8c-3.771,0.193-7.581,0.639-11.395,1.317
	c-2.138-3.092-4.212-4.952-8.075-6.307c-2.884-1.01-6.013-1.112-9.118-1.028c4.353-4.21,13.245-4.901,18.255-3.443
	c0.908,0.264,1.807-0.629,1.539-1.539c-2.223-7.553,0.771-14.639,6.22-19.674c-0.064,6.672-0.79,13.324-0.828,20.006
	c-0.021,3.574,5.182,3.464,5.471,0c0.959-11.521,19.095-3.014,24.031,1.041c8.021,6.588,12.611,15.677,21.42,20.149
	c-5.323,0.972-11.11,0.886-15.889-1.019c-1.462-0.96-3.028-1.768-4.646-2.411c-4.058-1.613-6.242,4.616-2.854,6.772
	c1.192,0.759,2.382,1.369,3.567,1.862c3.231,1.913,5.685,4.272,6.82,8.443c1.456,5.343,0.332,10.94-1.049,16.15
	c-1.76,6.645-4.491,13.501-4.896,20.437c-1.729-4.212-3.482-8.412-5.121-12.658c-1.33-3.449-2.251-7.061-2.589-10.743
	c-0.376-4.098,0.888-8.278-0.275-12.253c-0.667-2.279-3.935-3.49-5.641-1.49c-5.364,6.291-2.79,16.68-0.186,23.709
	c3.177,8.571,8.729,15.374,13.62,22.957c1.1,1.706,4.222,0.624,3.427-1.445c-0.365-0.952-0.748-1.896-1.125-2.844
	c0.311-4.325,2.071-8.606,3.487-12.624c2.095-5.943,4-12.126,5.243-18.305c1.111-5.523,1.998-10.687,0.003-16.145
	c-0.21-0.573-0.455-1.125-0.721-1.664c4.882-0.45,9.777-2.083,14.77-3.641c5.027,2.241,9.878,5.765,14.186,8.958
	c5.564,4.124,11.045,8.721,15.114,14.365C372.862,180.296,378.186,177.386,376.087,173.634z"></path>

<path fill="#1A1A1A" d="M256.84,496.562c-10.521,0.652-20.943,1.164-31.38,2.744c-4.239,0.641-2.392,6.951,1.761,6.389
	c9.842-1.336,19.767-1.961,29.62-3.258C260.477,501.959,260.708,496.324,256.84,496.562z"></path>
<path fill="#1A1A1A" d="M387.009,496.486c-9.776,2.291-20.21,0.604-30.169,1.326c-3.479,0.252-3.443,5.072,0,5.375
	c10.78,0.951,21.175,1.879,31.831-0.674C392.592,501.574,390.928,495.568,387.009,496.486z"></path>

<path fill="#1A1A1A" d="M327.642,275.423c-9.846,15.755-33.91,16.953-47.843,6.119c-2.041-1.587-4.82,0.949-2.917,2.917
	c15.838,16.375,44.78,14.921,56.156-5.881C334.977,275.033,329.775,272.008,327.642,275.423z"></path>

<path fill="#1A1A1A" d="M209.739,449.555c-4.671-1.42-9.197-2.52-13.455-5.025c-4.177-2.457-7.706-5.977-10.867-9.605
	c-2.488-2.855-6.666,1.328-4.154,4.154c6.542,7.359,18.219,17.752,28.834,13.217C211.37,451.752,210.855,449.893,209.739,449.555z"></path>
<path fill="#1A1A1A" d="M424.958,422.615c-4.14,0.602-7.622,5.176-11.158,7.398c-4.292,2.695-9.148,4.629-13.958,6.18
	c-2.344,0.754-1.354,3.998,0.996,3.615c5.575-0.906,10.468-2.908,15.356-5.699c3.576-2.043,9.769-5.381,10.531-9.727
	C426.929,423.227,426.086,422.449,424.958,422.615z"></path>
<path fill="#1A1A1A" d="M318.786,317.602c-0.238-1.086-1.764-1.471-2.507-0.662c-2.743,2.988-3.512,7.664-5.121,11.359
	c-1.268,2.912-2.584,5.791-3.797,8.721c-6.741-6.34-11.096-14.828-17.607-21.434c-1.816-1.843-4.589,0.951-2.828,2.828
	c6.613,7.049,10.827,16.071,17.905,22.676c-0.099,0.273-0.169,0.57-0.179,0.91c-0.123,4.314-0.246,8.629-0.368,12.943
	c-0.112,3.943,6.225,3.943,6.112,0c-0.117-4.123-0.235-8.246-0.353-12.369c0.238-0.257,0.448-0.562,0.599-0.939
	c1.767-4.404,3.708-8.736,5.546-13.111C317.646,325.051,319.618,321.387,318.786,317.602z"></path>
<path fill="#1A1A1A" d="M383.34,465.125c-27.6-0.998-55.169-0.076-82.732,1.443c-13.216,0.729-26.644,1.488-39.752,3.338
	c-12.703,1.793-27.857,3.424-38.799,10.609c-0.472,0.309-0.285,1.021,0.284,1.047c12.646,0.574,25.742-3.863,38.178-5.848
	c14.006-2.236,27.766-4.193,41.947-4.93c26.947-1.398,53.944,1.117,80.875,2.09C388.34,473.057,388.322,465.305,383.34,465.125z"></path>
</svg>