<!DOCTYPE svg PUBLIC "-//W3C//DTD SVG 1.1//EN" "http://www.w3.org/Graphics/SVG/1.1/DTD/svg11.dtd"><svg version="1.1" id="Layer_1" xmlns="http://www.w3.org/2000/svg" xmlns:xlink="http://www.w3.org/1999/xlink" x="0px" y="0px" width="600px" height="600px" viewBox="0 0 600 600" enable-background="new 0 0 600 600" xml:space="preserve">
<path fill="#E6E6E6" d="M423.801,420.873c-3.123-7.451-7.406-14.242-11.883-20.92c-0.45-5.402-4.109-10.451-6.722-15.02
	c-3.103-5.428-6.061-10.932-9.16-16.355c-2.008-3.512-4.122-7.002-6.369-10.406c-0.726-1.404-1.466-2.801-2.231-4.188
	c-0.639-1.156-1.3-2.305-1.977-3.447c-1.476-7.727-4.284-15.164-7.242-22.449c-3.982-9.816-7.964-19.648-12.066-29.413
	c-0.281-0.67-0.655-1.23-1.091-1.694c8.987-5.386,17.46-11.864,24.782-19.078c1.072-1.056,2.045-2.162,2.967-3.292
	c0.111-0.267,0.226-0.531,0.325-0.807c1.227-3.325,2.337-6.708,3.101-10.173c1.571-7.154,2.25-14.434,2.172-21.758
	c-0.084-7.896-0.628-15.782-1.226-23.665c-1.823-4.474-4.151-8.715-7.062-12.489c-0.062-0.276-0.123-0.554-0.186-0.827
	c-1.564-7.039-4.754-13.344-9.145-19.003c-0.056-0.071-0.117-0.137-0.172-0.208c-2.382-8.318-10.63-14.582-16.632-20.457
	c-7.003-6.855-13.012-12.084-22.597-14.933c-4.52-1.344-9.216-2.105-13.947-2.625c-6.475-2.355-13.062-4.392-19.86-5.283
	c-6.486-2.721-13.351-4.15-20.609-2.809c-5.467,1.01-9.317,4.636-13.401,7.917c-0.292,0.096-0.584,0.192-0.875,0.289
	c-17.29,3.257-32.859,9.624-46.644,21.301c-6.962,5.897-12.92,13.156-17.393,21.1c-3.657,6.496-5.297,12.704-4.642,19.477
	c-1.574,4.415-2.755,9.008-3.465,13.748c-0.814,5.435-1.266,10.739-0.802,16.22c0.108,1.279,0.242,2.556,0.386,3.832
	c-1.83,1.036-3.233,2.718-3.632,5.045c-0.43,2.508-0.475,5.374,0.213,7.876c0.152,0.553,0.367,1.036,0.607,1.492
	c1.43,9.652,4.692,18.406,11.236,26.507c7.347,9.096,18.076,14.842,28.69,19.21c0.029,0.012,0.059,0.021,0.088,0.034
	c-1.368,0.86-2.382,2.319-2.494,4.378c-1.26,23.15-11.254,45.09-21.069,65.748c-3.721,7.83-7.92,15.43-11.858,23.164
	c-4.726,5.562-9.113,12.045-11.521,18.898c-0.37,1.057-0.744,2.119-1.105,3.189c-1.89,2.854-3.418,5.809-4.408,8.906
	c-4.625,10.516-7.223,23.104,0.622,31.096c5.346,5.445,14.127,4.84,20.079,0.922c6.616-4.354,10.705-11.771,14.03-18.732
	c3.462-7.25,6.529-14.717,9.364-22.326c-0.266,4.227-0.333,8.461-0.304,12.701c-0.825,0.812-1.383,1.956-1.44,3.434
	c-0.021,0.555-0.054,1.106-0.089,1.66c-1.322,1.071-2.226,2.727-2.209,4.34c0.041,3.852,0.214,7.693,1.275,11.414
	c0.036,0.125,0.092,0.229,0.134,0.346c-1.11,8.152-1.98,16.33-2.131,24.566c-0.069,3.785-0.267,10.729,1.221,16.338
	c-0.004,2.68,0.061,5.361,0.214,8.039c-2.464,23.736,0.102,50.547,17.639,66.23c4.001,2.695,11.005,0.191,11.8-4.799
	c1.661-10.43,1.964-20.826,1.845-31.367c-0.104-9.206-0.607-18.639,0.803-27.771c1.703-11.031,9.644-18.137,17.381-25.342
	c4.017-1.4,8.021-2.859,12.045-4.232c8.378-1.752,16.831-2.855,25.435-2.727c8.824,0.133,17.578,1.938,25.438,5.922
	c2.105,3.946,4.421,7.826,7.822,11.338c4.146,4.283,8.866,7.029,12.71,10.969c2.49,6.656,3.105,13.746,3.396,20.898
	c0.011,0.025,0.021,0.051,0.031,0.076c2.307,6.102,2.979,12.654,3.536,19.111c0.618,7.158,0.756,14.504,2.789,21.449
	c0.697,2.391,1.55,4.764,2.753,6.949c4.089,2.664,10.11,0.869,11.726-4.354c5.771-18.686,7.737-37.979,7.438-57.504
	c-0.301-19.527-4.116-38.236-7.354-57.389c-2.857-16.92-4.251-34.367-7.313-51.297c1.521,3.188,3.157,6.314,4.947,9.377
	c2.388,4.08,4.561,9.1,7.975,12.58l0.041,0.062c0.067,0.867,0.29,1.764,0.712,2.676c0.535,1.156,1.127,2.27,1.745,3.361
	c1.65,3.66,4.318,7.914,7.593,11.631c0.331,0.527,0.67,1.156,0.698,1.443c0.433,4.371,4.512,6.305,7.824,5.709
	c4.146,2.297,8.594,3.025,12.854,0.865c1.464-0.549,2.82-1.479,3.841-2.801C428.681,436.451,426.613,427.584,423.801,420.873z
	 M360.48,346.246c-0.004-0.553,0.016-1.105,0.002-1.658c0.062,0.049,0.134,0.082,0.196,0.127c0.034,0.525,0.095,1.059,0.163,1.596
	C360.725,346.285,360.601,346.27,360.48,346.246z M367.413,367.807c-0.74-1.881-1.55-3.738-2.396-5.586
	c0.257,0.266,0.506,0.533,0.747,0.807c0.543,1.488,1.104,2.973,1.688,4.441C367.436,367.582,367.428,367.695,367.413,367.807z"></path>

<path fill="#3d2b0c" d="M433.542,231.245c1.461-7.088-3.929-12.855-8.772-17.376c-1.882-1.755-3.916-3.43-6.089-4.844
	c1.68-0.538,3.301-1.25,4.812-2.07c0.117,0.012,0.227,0.037,0.349,0.039c0.777,0.012,1.497-0.189,2.175-0.521
	c2.091-0.841,4.58-2.554,5.358-4.682c0.136-0.121,0.271-0.238,0.408-0.349c1.533-1.265,1.341-3.051,0.356-4.316
	c1.183-2.768,1.821-5.767,1.806-8.704c0.797-1.772,0.844-3.854-0.332-5.872c-0.558-1.233-1.25-2.436-2.068-3.583
	c-0.487-0.954-1.163-1.828-1.83-2.649c-1.014-1.249-2.19-2.14-3.532-2.852c-2.68-2.055-5.754-3.618-8.915-4.454
	c7.688-12.083,7.516-30.648-0.06-41.732c-5.134-7.513-12.906-10.362-21.096-10.459c1.396-3.025,2.328-6.154,2.736-8.694
	c0.419-2.599,0.549-5.183,0.446-7.745c4.233-9.155-0.458-22.862-6.192-30.189c-8.208-10.488-20.429-18.026-34.074-17.701
	c-8.381,0.2-18.645,2.455-25.527,7.508c-3.116,1.613-9.405,6.444-12.25,8.25c-7.045,4.472-9.305,7.413-15.5,13
	c-4.902,4.423-7.769,10.474-10.647,16.365c-1.519-4.19-3.411-8.065-5.209-11.143c-7.052-12.072-18.277-19.899-32.368-20.484
	c-20.021-0.831-39.655,22.861-34.038,41.097c-3.856-2.381-8.115-4.095-12.577-4.977c-4.041-0.798-8.119-0.936-12.131-0.511
	c-0.816-0.646-1.916-1.05-2.816-0.98c-8.883,0.687-17.323,3.085-24.164,8.999c-1.207,1.043-2.19,2.165-3.006,3.346
	c-0.271,0.18-0.536,0.401-0.78,0.714c-3.83,4.647-7.081,10.433-8.018,16.491c-1.98,4.652-3.176,9.649-3.443,14.819
	c-0.365,7.065,1.72,14.001,4.898,20.232c1.836,3.599,4.483,7.584,7.809,10.492c-0.789,1.098-1.513,2.267-2.176,3.49
	c-5.619,3.556-11.426,6.001-15.584,11.05c-3.75,1-1.762,2.127-2,2.25c-5.225,2.706-7.809,7.749-6.791,14.038
	c0.206,1.271,0.66,2.473,1.3,3.566c-0.045,2.429,0.362,4.87,1.269,7.278c0.012,0.324,0.047,0.652,0.128,0.983
	c3.867,15.933,19.105,14.726,32.478,14.573c-0.694,1.22-1.401,2.432-2.111,3.64c-0.533,0.093-1.076,0.31-1.613,0.694
	c-0.553,0.396-1.089,0.826-1.608,1.282c-7.065,6.006-11.413,14.792-8.87,23.727c-0.022,0.235-0.038,0.473-0.028,0.723
	c0.007,0.169,0.021,0.34,0.034,0.51c-0.155,0.821-0.297,1.647-0.404,2.49c-0.462,3.614,3.342,6.267,6.697,6.02
	c4.143,3.377,9.601,4.639,15.044,2.532c1.887,0.6,3.994,0.922,6.316,0.893c3.393-0.042,6.384-3.469,5.25-6.892
	c-0.867-2.617-1.313-5.222-1.466-7.818c1.246-4.988,1.617-10.458,1.769-15.079c2.302-9.479,5.898-18.943,5.475-28.588
	c0.002,0.001,0.004,0.003,0.006,0.004c10.684,5.64,21.094,4.669,30.06-0.57c2.963-0.736,5.838-1.777,8.487-3.04
	c6.586-3.141,10.474-9.24,12.889-15.84c1.92-2.573,3.367-6.38,4.409-10.037c0.811-2.029,1.378-4.173,1.738-6.269
	c3.508,6.349,6.932,13.077,12.641,17.634c-1.085,1.874-0.831,4.403,1.519,5.852c6.96,4.29,17.814,1.935,22.447-4.9
	c1.482-0.721,2.881-1.532,4.142-2.41c7.111-4.953,12.702-11.935,17.325-19.253c-0.093,2.091-0.126,4.179,0.045,6.261
	c0.065,0.808,0.298,1.481,0.624,2.051c0.071,2.818,0.207,5.635,0.488,8.449c0.048,0.482,0.137,0.935,0.261,1.358
	c0.237,2.1,0.632,4.169,1.253,6.17c-0.761,0.708-1.229,1.712-1.123,2.972c0.436,5.194,3.522,8.845,8.045,11.237
	c3.323,1.757,10.174,3.975,13.765,1.414c12.668-0.688,22.221-10.862,28.845-22.367c0.266,0.149,0.562,0.225,0.868,0.234
	c0.035,1.601,0.565,3.236,1.646,4.576c3.774,4.685,9.914,5.724,15.593,6.032c1.437,0.078,2.659-0.468,3.598-1.346
	c0.176,2.061,0.498,4.059,0.753,5.754c0.997,6.65,2.396,13.269,4.099,19.773c0.425,1.625,1.218,2.792,2.205,3.579
	c-0.008,2.745,0.116,5.492,0.258,8.248c0.127,2.452,1.229,10.839-1.317,12.54c-5.216,3.484-3.769,10.102,1.612,12.334
	c2.784,1.156,5.805,1.363,8.794,1.5c2.207,0.101,5.138-1.356,6.051-3.471c1.955-4.531,3.053-9.204,1.873-13.817
	c6.214-0.475,12.711-2.016,16.27-7.498c2.464-3.795,2.278-8.191,0.744-12.161C433.388,231.797,433.484,231.527,433.542,231.245z
	 M381.381,185.632c0.598-0.077,1.186-0.219,1.743-0.42c0.74,1.37,1.497,2.716,2.297,4.009
	C383.778,188.394,382.472,187.128,381.381,185.632z"></path>

<path fill="#4d4d80" d="M286.286,471.381c-2.606-1.455-5.865,0.146-8.506,0.977c-0.499,0.156-0.994,0.328-1.489,0.502
	c-3.551-0.23-6.896,0.334-9.979,1.514c-0.974-1.105-2.465-1.756-4.051-1.281c-6.581,1.965-13.235,3.758-19.976,5.092
	c-0.628-0.168-1.303-0.182-1.995,0.018c-0.812,0.23-1.663,0.484-2.495,0.795c-2.306,0.381-4.622,0.699-6.949,0.947
	c-0.676-0.305-1.265-0.369-1.92-0.654c-1.743-0.762-4.154-0.293-4.621,1.879c-0.455,2.113-0.728,4.568-0.438,6.791
	c-0.792,1.018-1.237,2.365-1.107,4.045c0.735,9.52,3.006,18.601,5.814,27.693c0.666,2.152,1.279,4.453,1.913,6.797
	c0.109,2.502,0.19,5.004,0.195,7.51c0.005,2.365,0.979,4.058,2.385,5.113c-0.089,0.736-0.034,1.535,0.194,2.381
	c0.017,0.371,0.057,0.75,0.138,1.143c0.301,1.464,0.629,2.918,0.951,4.375c0.296,1.555,0.589,3.105,1.003,4.641
	c0.147,0.547,0.347,1.03,0.58,1.471c-0.066,0.781,0.039,1.633,0.367,2.543c0.338,0.939,0.724,1.818,1.133,2.676
	c0.25,0.846,0.626,1.545,1.096,2.113c0.709,1.258,1.481,2.488,2.323,3.754c2.843,4.275,10.373,4.203,11.61-1.518
	c1.632-7.547,1.183-15.023,0.314-22.514c2.017-0.256,3.875-1.805,3.875-4.178h0.028c0.202-6.381-1.162-12.932-1.254-19.358
	c-0.09-6.173,0.286-12.343,1.927-18.312c2.521-9.17,9.325-14.438,16.683-19.244c1.99-0.814,4.025-1.51,6.088-2.141
	c2.531-0.771,5.149-0.808,6.832-2.998C287.574,473.146,287.096,471.834,286.286,471.381z"></path>
<path fill="#4d4d80" d="M389.338,523.592c0.132-3.531-0.217-6.961-0.852-10.334c0.312-3.537-0.732-7.725-1.461-10.975
	c3.739-3.197,2.726-10.15,2.252-14.502c-0.644-5.896-2.18-11.795-4.094-17.395c-1.71-5.002-7.568-5.195-10.407-2.407
	c-4.7-1.519-9.983-1.896-14.54-2.06c-6.325-0.229-15.104-0.238-20.549,3.557c-0.396,0.275-0.721,0.582-0.984,0.908
	c-3.03-0.525-6.15-0.877-9.37-1.15c-0.652-0.07-4.485-0.525-5.164-0.568c-2.172-0.142-3.959,2.389-1.833,2.834
	c9.489,1.996,21.907,9.826,28.53,16.681c3.29,3.406,5.976,7.139,8.28,11.27c2.437,4.367,2.297,9.012,4.688,13.385
	c0.229,0.42,0.53,3.334,0.834,3.666c0.106,0.816,0.707,2.521,0.833,3.334c0.326,3.973,0.643,5.376,1.167,9.333
	c-0.447,3.498,0.529,6.36,0.436,9.909c-0.34,1.574-0.727,3.133-0.984,4.762c-0.168,1.051,0.064,2.053,0.535,2.92
	c-0.011,0.082-0.015,0.162-0.022,0.242c-0.206,1.762-0.956,3.093,0.201,3.833c-0.036,0.748,0.652,0.587,0.666,1.333
	c-2.459-0.167-0.335,1.624-0.333,1.667c-0.44,3.144,0.201,5.569-0.218,8.681c-0.526,3.906,2.355,8.32,6.876,6.877
	c9.115-2.911,13.024-11.93,14.746-20.663C390.038,541.281,391.04,531.57,389.338,523.592z"></path>

<path fill="#fffcff" d="M423.327,420.625c-3.116-10.477-8.493-19.711-14.48-28.635c-3.349-6.086-7.075-12.072-10.836-18.068
	c-0.075-0.287-0.18-0.58-0.325-0.877c-3.757-7.654-7.983-15.148-12.393-22.553c-4.304-9.607-7.924-19.549-11.807-29.359
	c-0.436-1.1-1.195-1.76-2.039-2.064c-0.582-4.291-0.813-8.643-0.569-13.067c0.195-3.545-3.692-6.367-7.011-5.34
	c-7.025,2.175-13.309,6.19-19.927,9.308c-3.592,1.691-7.434,2.739-11.399,2.874c-4.162,0.142-6.632-1.196-10.576,0.72
	c-9.034,4.388-11.973,16.599-13.293,26.637c-1.426,0.182-1.809,0.28-3.297,0.426c-0.042,0.004-0.583,0.121-0.625,0.125
	c-5.925-6.358-11.056-13.397-13.625-21.5c-0.933-2.939-3.79-4.473-6.785-4.723c-13.16-1.1-28.68-1.146-40.749-7.088
	c-3.982-1.959-7.917-0.203-9.463,3.852c-7.304,19.148-9.798,39.516-19.492,57.771c-9.205,17.332-19.707,33.821-27.523,51.887
	c-0.404,0.932-0.581,1.846-0.583,2.717c-1.861,0.887-3.173,2.969-2.852,5.129c-0.87,1.342-0.988,3.053,0.315,4.75
	c0.264,0.344,0.537,0.67,0.808,1l-0.021,0.021c0.033,0.026,0.068,0.053,0.102,0.079c2.887,3.5,6.163,6.285,9.746,9.064
	c0.001,0.002,0.002,0.004,0.004,0.004c0.224,0.197,0.45,0.367,0.677,0.523c0.129,0.1,0.255,0.196,0.385,0.297
	c0.007-0.013,0.013-0.021,0.02-0.033l0.023,0.012c3.832,2.793,9.943,5.726,14.763,6.363c3.059,0.403,3.719-3.265,4.063-5.843
	c0.709-0.535,1.401-1.146,2.011-1.818c2.597-0.111,5.06-1.998,5.109-5.209c0.036-2.32,0.065-4.69-0.032-7.055
	c5.121-7.816,8.726-17.209,12.526-25.334c0.162-0.347,0.327-0.697,0.49-1.047c-1.696,6.149-2.693,12.414-3.412,18.727
	c-0.741,4.988-1.401,9.996-2.158,14.988c-0.201,1.321-0.038,2.522,0.375,3.574c-0.483,3.188-0.912,6.387-1.296,9.592
	c-1.238,6.287-2.236,12.615-2.902,18.981c-0.634,0.941-0.993,2.101-1.047,3.572c-0.151,4.078,4.401,6.102,7.695,4.416
	c9.611-4.918,20.39-2.732,30.828-4.545c0.518-0.039,1.607-0.709,2.125-0.75c3.125-0.5,1.108-0.629,3.466-0.418
	c8.437,0.754,17.328-0.766,25.646-2.049c6.315-0.974,12.593-2.267,18.685-4.166c22.237,0.541,44.416,2.711,66.669,2.824
	c5.854,0.03,7.498-6.509,4.937-10.187c0.543-1.883,0.424-3.938-0.54-5.775c-2.924-7.618-5.567-15.297-7.97-23.062
	c1.301-5.902-1.315-13.348-2.557-18.764c-0.223-0.972-0.464-1.937-0.691-2.906c1.062-8.963,2.036-27.475-6.809-31.725
	c-0.382-2.396-0.777-4.791-1.204-7.185c-1.34-7.502-2.755-15.01-4.661-22.392c0.644-0.934,1.223-1.891,1.762-2.872
	c6.589,29.696,13.371,59.401,32.036,84.299c0.274,0.367,0.584,0.682,0.917,0.961c-0.796,2.893,1.025,6.049,4.78,6.402
	c6.499,0.608,13.118-1.29,15.784-5.737c2.223-0.877,3.738-2.784,5.827-3.905C422.951,425.393,423.968,422.781,423.327,420.625z"></path>

<g>
	<path fill="#1A1A1A" d="M423.163,406.209c-4.354-8.998-9.647-17.508-14.821-26.045c-6.675-11.016-12.323-22.676-18.068-34.195
		c-7.579-15.195-14.788-30.41-18.365-47.083c5.307-3.607,10.229-7.754,14.488-12.512c8.616-9.622,12.323-21.681,13.7-34.318
		c1.584-14.538-0.715-29.608-4.881-43.54c-3.786-12.662-9.725-26.516-19.356-35.847c-2.726-2.64-7.691,0.871-5.398,4.166
		c13.619,19.575,21.781,41.418,22.042,65.493c0.116,10.798-1.616,22.225-7.124,31.662c-5.175,8.865-13.824,15.376-22.499,20.53
		c-18.053,10.727-40.441,17.032-61.447,17.256c-20.624,0.221-41.908-2.006-61.425-8.931c-18.381-6.521-35.912-19.696-38.407-40.287
		c-1.278-10.546,0.13-21.12,1.06-31.621c0.625-7.068,2.922-15.557-0.481-22.065c-0.591-1.13-2.3-0.809-2.627,0.343
		c-2.232,7.844-3.524,16.325-4.705,24.51c-1.56,10.814-2.579,21.583-0.999,32.452c2.96,20.365,20.157,34.565,38.075,42.176
		c-6.567,22.816-13.621,46.576-25.089,67.484c-8.674,15.812-18.322,31.035-25.067,47.836c-5.168,12.873-9.756,29.578,2.661,39.662
		c8.357,6.789,17.976,5.875,25.903-1.01c5.7-4.947,9.731-11.91,13.024-18.959c-2.392,15.482-3.315,31.02-2.899,46.678
		c0.427,16.064,1.99,32.576,6.394,48.08c0.088,0.309,0.186,0.621,0.278,0.934c1.946-0.383,3.894-0.744,5.847-1.092
		c-0.515-2.232-0.962-4.475-1.241-6.73c-0.137-0.668-0.257-1.355-0.367-2.047c-0.128-0.67-0.249-1.346-0.354-2.025
		c-3.084-13.184-3.937-26.875-4.151-40.367c-0.245-15.398,1.384-30.393,3.051-45.684c0.769-7.051,1.672-14.066,2.654-21.068
		c2.686-8.141,4.942-16.432,7.002-24.729c3.243-13.061,5.641-26.098,7.072-39.477c0.92-8.596,2.421-17.584,1.795-26.248
		c-0.233-3.229-4.739-3.211-5,0c-0.851,10.479-2.698,20.814-4.953,31.072c-3.44,15.654-6.532,31.389-10.891,46.826
		c-3.961,14.027-8.635,28.33-16.361,40.789c-4.136,6.672-11.081,15.242-19.383,11.244c-9.81-4.725-9.703-14.648-7.208-23.992
		c3.624-13.572,10.888-26.197,17.817-38.305c6.196-10.826,12.52-21.279,17.458-32.762c7.374-17.148,14.464-35.773,15.913-54.537
		c18.371,7.039,38.378,9.604,57.929,10.332c20.947,0.779,41.149-3.383,60.372-11.703c4.333-1.875,8.605-4.021,12.712-6.454
		c4.708,26.616,17.62,52.239,30.732,75.567c8.06,14.34,18.437,27.264,24.331,42.795c2.127,5.604,4.82,14.037,0.649,19.414
		c-2.971,3.828-9.704,5.881-13.994,3.797c-4.979-2.42-8.774-7.521-11.845-11.947c-4.644-6.691-8.348-14.037-11.753-21.416
		c-6.929-15.02-12.276-30.824-16.742-46.734c-1.86-6.627-3.509-13.32-4.851-20.072c-0.531-2.67-0.986-5.354-1.355-8.051
		c-0.29-2.113-1.438-4.203-1.895-6.328c-0.356-1.662-3.039-1.691-3.375,0c-2.537,12.783,2.379,26.979,5.718,39.299
		c1.858,6.855,3.914,13.68,6.184,20.432c2.729,26.465,8.467,52.533,12.82,78.762c4.628,27.883,9.206,56.408,2.769,84.443
		c-1.034,4.504-5.738,21.914-12.935,12.596c-2.579-3.34-2.64-8.588-2.798-12.59c-0.199-5.041,0.126-10.102,0.363-15.133
		c0.976-20.656-8.709-43.875-24.867-56.836c-20.366-16.336-51.502-15.779-72.273-0.607c-11.505,8.402-17.736,19.145-19.38,33.361
		c-0.845,7.305-0.447,14.984-0.459,22.598c2.242-0.23,4.486-0.436,6.729-0.592c-0.076-2.055-0.188-4.109-0.323-6.158
		c-0.882-13.418-0.973-27.004,8.108-37.893c7.24-8.68,18.27-12.104,28.976-14.236c10.63-2.117,21.176-0.918,31.281,2.738
		c20.622,7.461,34.548,33.715,35.415,54.77c0.384,9.297-1.01,18.672,1.259,27.828c1.666,6.721,8.573,13.586,15.977,10.496
		c8.469-3.535,9.771-16.455,11.369-24.191c3.69-17.863,2.419-36.975,1.12-55.023c-1.938-26.941-8.469-53.164-13.624-79.623
		c0.935,2.117,1.896,4.223,2.887,6.312c5.307,11.189,12.634,26.344,24.966,31.203c5.557,2.189,11.771,0.566,16.828-2.223
		c5.909-3.26,8.457-9.617,8.388-16.096C431.141,423.492,427.124,414.395,423.163,406.209z"></path>
	<path fill="#1A1A1A" d="M259.09,542.25c-0.115-2.881-0.161-5.869-0.5-8.75c-1.932,0.396-4.771,1.654-6.706,1.951
		c0.531,4.338,0.581,8.049,0.831,11.924c0.034,0.531,0.054,1.225,0.056,2.006c0.435,2.518,0.191,5.445,0.009,7.703
		c-0.161,1.986-0.639,4.543-2.324,5.883c-0.469,0.479-1.115,0.82-1.802,0.982c-2.66,1.51-6.459-1.125-8.111-2.979
		c-3.825-4.291-4.924-11.176-6.068-16.531c-0.54-2.527-1.193-5.057-1.756-7.598c-1.612-0.342-4.28,0.416-5.899,0.92
		c1.993,8.107,3.265,16.42,7.205,23.895c3.387,6.426,12.128,11.682,18.86,6.672C260.585,562.598,259.422,550.533,259.09,542.25z"></path>
</g>

<path fill="#1A1A1A" d="M368.34,231.438c-3.034,0-5.561,2.53-5.562,5.562c0,0.102-0.003,0.203-0.004,0.305
	c-0.068,0.314-0.129,0.639-0.158,1.169c-0.08,1.42,0.576,3.067,1.641,4.021c-0.006-0.008-0.013-0.016-0.019-0.024
	c0.288,0.369,0.693,0.664,1.108,0.864c0.861,0.5,1.791,0.751,2.788,0.754c1.519,0,2.801-0.616,3.905-1.618
	c1.539-1.395,1.862-3.516,1.863-5.472C373.904,233.968,371.37,231.438,368.34,231.438z"></path>
<path fill="#1A1A1A" d="M250.533,240.125c-0.079-1.503-0.512-2.865-1.472-4.001c-0.371-0.564-0.827-1.081-1.258-1.586
	c-1.038-1.222-2.91-1.849-4.463-1.849c-1.667,0-3.285,0.67-4.463,1.849c-2.366,2.365-2.521,6.584,0,8.927
	c0.012,0.011,0.021,0.024,0.032,0.035c1.14,1.926,3.167,3.081,5.411,3.125c1.121-0.003,2.166-0.286,3.135-0.848
	c0.933-0.552,1.676-1.295,2.228-2.229c0.739-1.722,0.669-1.26,0.855-3.151C250.546,240.306,250.538,240.215,250.533,240.125z"></path>

<path fill="#1A1A1A" d="M422.524,210.056c10.033-3.75,20.191-11.575,19.45-22.967c-0.866-13.321-11.169-20.564-23.366-21.39
	c0.966-2.557,2.207-4.907,4.038-7.103c2.229-2.674,4.007-5.319,5.334-8.56c2.978-7.272,2.618-14.801-0.078-22.126
	c-3.778-10.265-14.254-16.4-24.872-17.263c5.503-11.595,5.973-25.099,1.087-37.342c-5.974-14.968-19.012-26.048-35.452-26.726
	c-15.799-0.652-33.135,7.658-46.444,15.296c-9.905,5.685-21.061,13.726-27.236,24.121c-3.167-8.11-8.437-15.22-16.119-19.911
	c-9.162-5.595-20.584-6.285-30.827-3.823c-18.776,4.514-32.917,21.087-30.663,39.818c-9.279-5.053-19.652-7.436-30.335-5.138
	c-11.062,2.379-20.196,10.184-26.392,19.358c-12.264,18.163-12.329,44.146,4.003,59.409c-12.503,8.205-27.558,17.01-26.621,33.864
	c0.93,16.729,15.452,26.865,30.708,28.107c-8.98,8.659-12.896,21.42-5.775,33.201c3.248,5.373,9.157,9.275,15.419,9.905
	c8.043,0.809,14.59-3.157,19.549-9.197c1.845-2.247-0.937-5.044-3.182-3.182c-8.718,7.232-20.11,9.221-27.04-1.289
	c-7.408-11.235-0.203-23.661,9.924-29.907c1.995-1.231,1.386-5.09-1.293-4.775c-7.399,0.869-14.593,0.057-21.062-3.842
	c-6.647-4.008-10.403-12.815-10.819-20.291c-0.792-14.229,16.64-22.786,26.319-29.844c1.824-1.33,1.813-3.589,0-4.921
	c-17.336-12.737-16.445-36.874-5.748-53.592c5.238-8.187,13.271-14.505,22.723-16.942c11.805-3.043,23.54,1.877,32.963,8.771
	c2.261,1.654,5.624-1.082,4.724-3.631c-6.602-18.707,6.494-34.674,24.451-39.158c8.519-2.126,17.73-1.136,25.329,3.333
	c9.549,5.615,13.739,16.249,15.511,26.674c0.611,3.598,6.586,3.576,7.218,0c2.455-13.918,15.59-23.269,27.007-29.878
	c11.872-6.874,25.878-12.504,39.668-13.633c13.621-1.115,24.152,7.787,29.521,19.639c5.632,12.432,4.264,27.605-3.879,38.496
	c-2.577,3.447,1.653,7.974,5.327,6.93c10.503-2.987,20.632,3.727,24.053,13.745c3.885,11.378-1.471,22.349-6.357,32.507
	c-0.841,1.749,0.214,3.343,2.051,3.574c9.254,1.163,18.466,7.315,18.063,17.537c-0.162,4.117-1.2,8.105-2.62,11.975
	c-2.027,5.525-8.574,7.729-13.869,8.569c-1.769,0.281-1.258,2.56,0,3.087c4.104,1.719,8.091,6.407,10.708,9.95
	c2.513,3.403,4.096,7.645,4.512,11.854c1.051,10.652-9.386,13-17.794,12.519c-3.789-0.217-5.219,4.566-2.923,7.057
	c3.56,3.863,4.658,8.225,0.637,12.098c-3.315,3.193-9.136,2.452-12.311-0.424c-4.581-4.149-11.363,2.554-6.807,6.806
	c7.065,6.592,17.084,6.629,24.433,0.318c5.913-5.079,6.812-11.936,4.218-18.103c9.627-1.876,16.874-8.562,17.665-19.467
	c0.426-5.862-2.1-11.615-5.562-16.204C430.455,213.662,426.871,211.667,422.524,210.056z"></path>
<path fill="#1A1A1A" d="M388.837,201.498c-6.413,5.154-13.186,2.868-15.388-5.079c-0.52-1.875-2.996-2.1-3.998-0.522
	c-9.022,14.201-22.93,27.622-40.336,17.854c-12.169-6.829-8.784-25.252-9.367-36.75c-0.122-2.409-3.169-3.265-4.487-1.215
	c-7.234,11.25-15.543,26.455-30.382,27.664c-13.811,1.125-16.713-13.312-22.699-22.523c-0.979-1.505-3.403-1.345-3.894,0.509
	c-6.49,24.53-29.694,44.847-55.495,33.084c-3.31-1.509-6.22,3.181-2.902,4.965c13.4,7.205,28.052,7.565,40.711-1.388
	c10.156-7.183,16.82-18.349,20.384-30.148c2.04,4.429,3.777,9.013,6.545,13.047c4.067,5.929,10.356,8.117,17.35,7.813
	c13.98-0.606,22.991-12.398,30.193-23.652c-0.135,13.626-0.986,27.864,13.52,34.763c17.862,8.497,33.102-3.029,42.29-17.756
	c4.364,8.205,14.734,10.874,21.293,1.91C393.715,201.968,390.562,200.112,388.837,201.498z"></path>

<path fill="#1A1A1A" d="M327.642,275.423c-9.846,15.755-33.91,16.953-47.843,6.119c-2.041-1.587-4.82,0.949-2.917,2.917
	c15.838,16.375,44.78,14.921,56.156-5.881C334.977,275.033,329.775,272.008,327.642,275.423z"></path>

<path fill="#1A1A1A" d="M209.739,449.555c-4.671-1.42-9.197-2.52-13.455-5.025c-4.177-2.457-7.706-5.977-10.867-9.605
	c-2.488-2.855-6.666,1.328-4.154,4.154c6.542,7.359,18.219,17.752,28.834,13.217C211.37,451.752,210.855,449.893,209.739,449.555z"></path>
<path fill="#1A1A1A" d="M424.958,422.615c-4.14,0.602-7.622,5.176-11.158,7.398c-4.292,2.695-9.148,4.629-13.958,6.18
	c-2.344,0.754-1.354,3.998,0.996,3.615c5.575-0.906,10.468-2.908,15.356-5.699c3.576-2.043,9.769-5.381,10.531-9.727
	C426.929,423.227,426.086,422.449,424.958,422.615z"></path>
<path fill="#1A1A1A" d="M318.786,317.602c-0.238-1.086-1.764-1.471-2.507-0.662c-2.743,2.988-3.512,7.664-5.121,11.359
	c-1.268,2.912-2.584,5.791-3.797,8.721c-6.741-6.34-11.096-14.828-17.607-21.434c-1.816-1.843-4.589,0.951-2.828,2.828
	c6.613,7.049,10.827,16.071,17.905,22.676c-0.099,0.273-0.169,0.57-0.179,0.91c-0.123,4.314-0.246,8.629-0.368,12.943
	c-0.112,3.943,6.225,3.943,6.112,0c-0.117-4.123-0.235-8.246-0.353-12.369c0.238-0.257,0.448-0.562,0.599-0.939
	c1.767-4.404,3.708-8.736,5.546-13.111C317.646,325.051,319.618,321.387,318.786,317.602z"></path>
<path fill="#1A1A1A" d="M383.34,465.125c-27.6-0.998-55.169-0.076-82.732,1.443c-13.216,0.729-26.644,1.488-39.752,3.338
	c-12.703,1.793-27.857,3.424-38.799,10.609c-0.472,0.309-0.285,1.021,0.284,1.047c12.646,0.574,25.742-3.863,38.178-5.848
	c14.006-2.236,27.766-4.193,41.947-4.93c26.947-1.398,53.944,1.117,80.875,2.09C388.34,473.057,388.322,465.305,383.34,465.125z"></path>
</svg>