<!DOCTYPE svg PUBLIC "-//W3C//DTD SVG 1.1//EN" "http://www.w3.org/Graphics/SVG/1.1/DTD/svg11.dtd"><svg version="1.1" id="Layer_1" xmlns="http://www.w3.org/2000/svg" xmlns:xlink="http://www.w3.org/1999/xlink" x="0px" y="0px" width="600px" height="600px" viewBox="0 0 600 600" enable-background="new 0 0 600 600" xml:space="preserve">
<path fill="#ffe3ff" d="M423.801,420.873c-3.123-7.451-7.406-14.242-11.883-20.92c-0.45-5.402-4.109-10.451-6.722-15.02
	c-3.103-5.428-6.061-10.932-9.16-16.355c-2.008-3.512-4.122-7.002-6.369-10.406c-0.726-1.404-1.466-2.801-2.231-4.188
	c-0.639-1.156-1.3-2.305-1.977-3.447c-1.476-7.727-4.284-15.164-7.242-22.449c-3.982-9.816-7.964-19.648-12.066-29.413
	c-0.281-0.67-0.655-1.23-1.091-1.694c8.987-5.386,17.46-11.864,24.782-19.078c1.072-1.056,2.045-2.162,2.967-3.292
	c0.111-0.267,0.226-0.531,0.325-0.807c1.227-3.325,2.337-6.708,3.101-10.173c1.571-7.154,2.25-14.434,2.172-21.758
	c-0.084-7.896-0.628-15.782-1.226-23.665c-1.823-4.474-4.151-8.715-7.062-12.489c-0.062-0.276-0.123-0.554-0.186-0.827
	c-1.564-7.039-4.754-13.344-9.145-19.003c-0.056-0.071-0.117-0.137-0.172-0.208c-2.382-8.318-10.63-14.582-16.632-20.457
	c-7.003-6.855-13.012-12.084-22.597-14.933c-4.52-1.344-9.216-2.105-13.947-2.625c-6.475-2.355-13.062-4.392-19.86-5.283
	c-6.486-2.721-13.351-4.15-20.609-2.809c-5.467,1.01-9.317,4.636-13.401,7.917c-0.292,0.096-0.584,0.192-0.875,0.289
	c-17.29,3.257-32.859,9.624-46.644,21.301c-6.962,5.897-12.92,13.156-17.393,21.1c-3.657,6.496-5.297,12.704-4.642,19.477
	c-1.574,4.415-2.755,9.008-3.465,13.748c-0.814,5.435-1.266,10.739-0.802,16.22c0.108,1.279,0.242,2.556,0.386,3.832
	c-1.83,1.036-3.233,2.718-3.632,5.045c-0.43,2.508-0.475,5.374,0.213,7.876c0.152,0.553,0.367,1.036,0.607,1.492
	c1.43,9.652,4.692,18.406,11.236,26.507c7.347,9.096,18.076,14.842,28.69,19.21c0.029,0.012,0.059,0.021,0.088,0.034
	c-1.368,0.86-2.382,2.319-2.494,4.378c-1.26,23.15-11.254,45.09-21.069,65.748c-3.721,7.83-7.92,15.43-11.858,23.164
	c-4.726,5.562-9.113,12.045-11.521,18.898c-0.37,1.057-0.744,2.119-1.105,3.189c-1.89,2.854-3.418,5.809-4.408,8.906
	c-4.625,10.516-7.223,23.104,0.622,31.096c5.346,5.445,14.127,4.84,20.079,0.922c6.616-4.354,10.705-11.771,14.03-18.732
	c3.462-7.25,6.529-14.717,9.364-22.326c-0.266,4.227-0.333,8.461-0.304,12.701c-0.825,0.812-1.383,1.956-1.44,3.434
	c-0.021,0.555-0.054,1.106-0.089,1.66c-1.322,1.071-2.226,2.727-2.209,4.34c0.041,3.852,0.214,7.693,1.275,11.414
	c0.036,0.125,0.092,0.229,0.134,0.346c-1.11,8.152-1.98,16.33-2.131,24.566c-0.069,3.785-0.267,10.729,1.221,16.338
	c-0.004,2.68,0.061,5.361,0.214,8.039c-2.464,23.736,0.102,50.547,17.639,66.23c4.001,2.695,11.005,0.191,11.8-4.799
	c1.661-10.43,1.964-20.826,1.845-31.367c-0.104-9.206-0.607-18.639,0.803-27.771c1.703-11.031,9.644-18.137,17.381-25.342
	c4.017-1.4,8.021-2.859,12.045-4.232c8.378-1.752,16.831-2.855,25.435-2.727c8.824,0.133,17.578,1.938,25.438,5.922
	c2.105,3.946,4.421,7.826,7.822,11.338c4.146,4.283,8.866,7.029,12.71,10.969c2.49,6.656,3.105,13.746,3.396,20.898
	c0.011,0.025,0.021,0.051,0.031,0.076c2.307,6.102,2.979,12.654,3.536,19.111c0.618,7.158,0.756,14.504,2.789,21.449
	c0.697,2.391,1.55,4.764,2.753,6.949c4.089,2.664,10.11,0.869,11.726-4.354c5.771-18.686,7.737-37.979,7.438-57.504
	c-0.301-19.527-4.116-38.236-7.354-57.389c-2.857-16.92-4.251-34.367-7.313-51.297c1.521,3.188,3.157,6.314,4.947,9.377
	c2.388,4.08,4.561,9.1,7.975,12.58l0.041,0.062c0.067,0.867,0.29,1.764,0.712,2.676c0.535,1.156,1.127,2.27,1.745,3.361
	c1.65,3.66,4.318,7.914,7.593,11.631c0.331,0.527,0.67,1.156,0.698,1.443c0.433,4.371,4.512,6.305,7.824,5.709
	c4.146,2.297,8.594,3.025,12.854,0.865c1.464-0.549,2.82-1.479,3.841-2.801C428.681,436.451,426.613,427.584,423.801,420.873z
	 M360.48,346.246c-0.004-0.553,0.016-1.105,0.002-1.658c0.062,0.049,0.134,0.082,0.196,0.127c0.034,0.525,0.095,1.059,0.163,1.596
	C360.725,346.285,360.601,346.27,360.48,346.246z M367.413,367.807c-0.74-1.881-1.55-3.738-2.396-5.586
	c0.257,0.266,0.506,0.533,0.747,0.807c0.543,1.488,1.104,2.973,1.688,4.441C367.436,367.582,367.428,367.695,367.413,367.807z"></path>

<path fill="#381e07" d="M426.322,210.317c-1.777-0.546-3.607-0.834-5.462-0.992c-0.25-0.241-0.508-0.471-0.781-0.665
	c-2.279-1.609-3.961-2.79-5.84-4.834c-1.214-1.32-2.529-2.557-3.867-3.775c-0.782-3.301-3.555-5.759-5.347-8.646
	c-2.396-3.861-3.911-8.265-5.411-12.529c-1.605-4.565-3.153-9.151-4.786-13.706c2.501,1.991,5.292,3.241,9.479,2.506
	c4.697-0.824,4.896-7.474,1.262-9.646c-4.624-2.763-7.194-7.548-11.675-10.785c-2.473-1.787-5.19-3.147-7.966-4.413
	c2.343-1.054,4.609-2.481,6.798-4.447c4.783-4.297-1.264-10.561-6.305-8.143c-0.022-0.039-0.046-0.078-0.068-0.117
	c-0.229,0.173-0.47,0.321-0.706,0.476c-4.427-1.457-10.191-0.05-15.01,1.084c-2.782-1.421-6.053-2.113-8.945-3.149
	c-5.099-1.826-9.715-4.566-13.894-7.995c-8.093-6.638-17.043-11.421-26.747-15.239c-10.896-4.287-22.433-6.879-34.156-7.104
	c-12.564-0.241-23.972,4.518-35.632,8.56c-0.056,0.02-0.1,0.048-0.154,0.068c1.518-2.331,2.622-4.906,3.676-7.547
	c0.516-1.073,0.954-2.175,1.304-3.281c0.983-3.113-3.748-4.327-4.829-1.331c-1.238,3.455-3.811,5.706-5.982,8.359
	c-1.19,1.12-2.449,2.151-3.702,3.143c-3.679-0.959-7.47,1.323-10.771,2.795c-4.193,1.869-7.688,4.845-10.83,8.155
	c-7.003,3.43-14.05,6.905-20.058,11.929c-4.752,3.974-10.028,9.062-10.948,15.325c-4.07,5.116-7.295,10.952-8.473,17.428
	c-0.826,4.541-0.494,8.753,0.709,12.741c-2.835-0.959-5.249,0.983-5.778,3.344c-4.235,3.625,2.532,9.212,8.371,12.435
	c-0.171,0.414-0.357,0.827-0.521,1.242c-0.577,1.458-1.009,3.083-1.243,4.758c-0.607,1.095-1.126,2.237-1.598,3.276
	c-0.532,1.173-1.104,2.368-1.288,3.647c-0.061,0.425-1.128,0.171-1.15,0.588c-0.805,0.341-1.002,0.78-2,0.833
	c-3.68,0.196-3.379,6.32,0.344,6.208c3.174-0.096,5.999-1.28,8.331-3.139c0.202,0.26,0.409,0.513,0.624,0.754
	c-2.317,9.693-4.549,19.232-8.942,28.399c-0.833,1.737-0.895,3.383-0.455,4.79c-1.704,2.716-3.519,5.373-5.328,8.032
	c-0.259,0.133-0.519,0.265-0.789,0.385c-4.413,1.959-0.594,8.42,3.785,6.476c0.349-0.155,0.69-0.324,1.028-0.497
	c0.377,0.231,0.817,0.403,1.343,0.476c2.224,0.309,4.309,0.406,6.408,0.351c0.034,0.107,0.069,0.211,0.107,0.317
	c-0.205,1.916-0.562,3.808-1.009,5.684c-0.197,0.584-0.369,1.169-0.52,1.755c-6.291,0.96-9.762,18.267-4.911,22.46
	c0.075,0.064,0.152,0.119,0.229,0.18c0.09,2.285,0.466,4.603,1.26,6.97c2.077,6.194,6.924,10.976,11.799,15.083
	c3.854,3.246,9.327,6.687,11.174,11.603c1.191,3.882,4.838,4.909,7.795,3.94c3.104,4.154,7.318,7.059,14.071,7.342
	c2.037,0.084,4.477-1.217,5.382-3.088c3.365-6.953,5.714-14.01,5.714-21.812c0-3.038-2-5.207-4.72-6.199
	c-17.517-6.395-32.797-19.192-33.104-39.134c-0.019-1.221-0.361-2.309-0.921-3.233c0.724-1.134,1.156-2.485,1.3-3.937
	c0.632-6.368,0.612-12.855,0.992-19.275c0.431,0.088,0.914,0.066,1.45-0.132c1.718-0.633,3.38-1.348,5.013-2.11
	c1.136,0.48,2.482,0.559,3.87-0.03c6.765-2.872,14.681-2.899,21.875-3.452c8.367-0.642,16.796-0.607,25.18-0.906
	c16.884-0.602,33.747-2.583,49.67-8.506c13.999-5.207,24.789-13.804,34.59-24.868c0.792-0.894,1.664-1.892,2.571-2.96
	c-0.886,3.391-1.849,7.919-1,10.847c-2.187,4.104-4.406,8.188-6.765,12.198c-1.931,3.283,2.609,6.845,5.278,4.073
	c6.503-6.756,12.134-14.618,16.589-22.852c0.595-1.099,1.275-2.348,1.974-3.697c1.561,3.155,3.688,5.93,6.361,8.5
	c5.099,4.899,20.382,18.652,27.543,10.744c1.059-1.168,1.664-2.985,1.416-4.615c0.869,0.957,1.767,1.827,2.679,2.576
	c0.216,0.957,0.347,1.928,0.481,2.774c0.707,4.415,1.363,8.879,1.899,13.327c0.854,7.071,0.347,15.545,2.251,22.785
	c-0.345,1.738-0.567,3.494-0.739,5.262c-0.944,0.51-1.701,1.444-2.019,2.908c-1.488,6.902-3.749,13.565-7.598,19.514
	c-3.96,6.121-8.99,11.511-13.158,17.49c-2.225-1.454-5.548-1.012-7.034,1.526c-0.717,1.222-0.842,2.747-0.384,4.079l-0.029-0.072
	c0.348,0.845,0.613,1.724,0.941,2.578c0.299,0.778,0.602,1.565,0.991,2.305c0.361,0.681,0.945,1.38,1.63,1.914
	c0.078,2.373,0.604,4.74,1.614,6.987c2.509,5.572,10.277,11.393,16.213,11.861c3.713,0.293,6.187-4.422,4.264-7.43
	c-0.444-0.695-0.997-1.312-1.604-1.884c0.034-0.104,0.073-0.203,0.103-0.312c1.057-3.951-0.906-7.533-0.688-11.58
	c0.21-3.92,1.276-7.772,1.529-11.706c5.225-6.108,9.306-12.633,11.3-19.882c0.899-0.253,1.753-0.695,2.439-1.309
	c0.037,0.011,0.075,0.028,0.112,0.038c0.339,0.416,0.74,0.78,1.178,1.101c-0.115,0.304-0.229,0.608-0.348,0.912
	c-0.92,2.39,1.403,4.899,3.731,4.899c2.551,0,4.315-2.438,3.74-4.859c1.673-0.663,3.104-2.018,3.805-4.203
	c5.682-17.711,2.751-38.758-8.586-53.571c-0.37-0.897-0.768-1.806-1.217-2.722c1.071,0.263,2.146,0.509,3.22,0.768
	c0.458,0.149,0.927,0.268,1.402,0.363c0.445,0.116,0.892,0.224,1.334,0.352c1.141,0.332,2.121,0.351,3.055,0.252
	c2.201,0.27,4.438,0.463,6.565,0.271C428.357,214.862,429.062,211.159,426.322,210.317z M197.412,229.378
	c0.019-0.298,0.038-0.596,0.056-0.895c0.173,0.168,0.353,0.331,0.56,0.467C197.823,229.093,197.616,229.235,197.412,229.378z
	 M202.153,224.348c-0.676-1.099-2.237-1.73-3.315-0.516c-0.324,0.365-0.773,0.66-1.189,0.976c0.045-1.27,0.063-2.539,0.065-3.808
	c1.582,1.292,3.561,2.227,5.744,2.886C203.025,224.047,202.59,224.2,202.153,224.348z"></path>

<path fill="#a9f5bb" d="M282.84,470.354c-2.979-0.143-6.059,0.515-9.068,1.736c-2.522,0.256-5.071,0.346-7.707,0.394
	c-4.866,0.088-9.838,1.229-14.631,2.008c-5.414,0.879-11.441,1.371-15.609,5.045c-1.807-0.01-3.608,0.021-5.412,0.178
	c-0.652-0.233-1.368-0.262-2.105,0.043c-0.478,0.232-0.981,0.387-1.511,0.461c-3.232,0.773-3.698,5.248-1.299,6.982
	c-0.534,2.108-0.552,4.387-0.217,6.562c-0.532,0.947-1.023,1.939-1.461,2.992c-1.129,2.717,1.714,6.162,4.52,5.935
	c9.498-0.771,18.474-4.437,28-4.902c1.558-0.076,3.365-1.084,3.649-2.779c0.396-2.358,1.758-4.545,3.418-6.516
	c0.478-0.193,0.947-0.392,1.396-0.584c1.171-0.506,2.128-1.312,3.021-2.211c0.922-0.931,1.331-1.904,1.546-3.041
	c1.609-1.363,3.339-2.609,5.185-3.607c2.993-0.967,6.008-1.881,9.122-2.512C287.303,475.799,286.244,470.516,282.84,470.354z"></path>
<path fill="#a9f5bb" d="M384.902,483.518c-0.207-0.87-0.527,0.67-0.277-4.205c-0.347-2.41,0-0.938-0.125-2.125
	c0.562-2.562-1.095-7.02-3.66-7c-14.504,0.115-28.975-5.334-43.504-2.327c-0.414,0.086-0.782,0.262-1.11,0.487
	c-1.117-0.229-2.328-0.28-3.341-0.422c-0.307-0.043-0.606-0.059-0.91-0.09c-0.023-0.004-0.047-0.01-0.069-0.014
	c-0.025-0.004-0.047-0.011-0.072-0.013c-2.181-0.209-4.305,0.189-6.487,0.189c-0.002,0-0.345,0-0.345,0v0.012
	c0,0.017-0.033,0.029-0.136,0.045c-0.988,0.164-0.936,1.519-0.298,2.041c-0.81,0.785-0.849,2.439,0.315,2.968
	c9.705,4.395,21.246,8.303,26.521,18.161c5.604,10.478,18.776,10.582,29.427,10.021c1.042-0.057,1.913-0.404,2.597-0.953
	c1.681,0.512,3.715-0.533,3.916-2.793C387.77,492.691,385.997,488.137,384.902,483.518z"></path>

<path fill="#f50303" d="M384.214,461.52c0.03-0.008,0.061-0.018,0.089-0.024c-0.524-1.418-1.158-2.775-1.82-4.107
	c-1.764-4.09-3.185-8.34-4.399-12.67c1.132-4.533,0.657-10.321,0.548-13.375c-0.319-8.928-1.636-17.86-3.119-26.66
	c-1.146-6.805-3.956-13.647-6.504-20.251c0.016-0.541-0.011-1.089-0.092-1.64c-0.554-3.787-2.327-7.194-3.626-10.767
	c-1.526-4.196-2.723-8.561-3.825-12.885c-1.332-5.229-1.89-10.604-2.609-15.938c1.789,0.479,3.771,0.368,5.361-0.425
	c3.812-1.901,7.996-2.887,11.794-4.854c2.777-1.438,4.256-5.959,2.254-8.594c-5.687-7.48-4.557-17.268-7.135-25.926
	c-0.96-3.227-4.147-4.95-7.385-4.193c-6.06,1.417-10.6,4.867-14.187,9.294c-3.128,0.373-4.858,2.974-5.263,5.994
	c-0.03,0.229-0.083,0.44-0.12,0.664c-1.473,0.541-2.762,1.762-3.438,3.792c-0.633,1.895-0.979,3.779-1.072,5.699
	c-3.238,3.927-7.617,7.076-11.569,10.601c-1.014,0.904-1.538,1.995-1.694,3.125c-6.062,0.847-12.225,5.073-17.617,7.308
	c-7.305,3.022-14.816,2.94-22.25,0.442c-11.883-3.993-19.105-14.625-26.003-24.667c0.021-0.716-0.034-1.425-0.233-2.21
	c-0.304-1.2-1.075-2.524-1.149-3.754c-0.082-1.347-1.681-1.722-2.437-0.659c-0.146,0.206-0.269,0.415-0.391,0.624
	c-0.05-0.067-0.099-0.137-0.148-0.204c-0.482-0.656-1.059-1.113-1.676-1.427c-2.231-3.479-8.395-3.206-12.156-3.103
	c-0.584,0.017-1.15,0.131-1.686,0.324c-0.289-0.203-0.575-0.408-0.858-0.613c-4.555-3.285-9.499,2.103-8.603,6.613
	c0.006,0.029,0.01,0.06,0.016,0.088c-1.017,0.789-1.845,1.821-2.286,3.088c-1.375,3.942-2.123,8.088-1.829,12.269
	c0.005,0.076,0.019,0.146,0.026,0.222c-2.887,0.664-4.659,3.627-3.079,6.5c2.066,3.758,6.741,5.062,10.649,5.973
	c2.266,0.527,4.822,0.91,7.228,0.717c-0.001,11.16-1.714,22.5-1.192,33.59c0.051,1.094,0.328,2.07,0.76,2.928
	c-4.13,8.861-6.095,19.146-7.123,28.795c-0.125,0.394-0.238,0.789-0.354,1.185c-0.325,0.406-0.583,0.895-0.748,1.471
	c-3.222,11.312-5.787,23.865-5.097,35.623c-0.448,2.49-1.648,5.842-2,8.334c-0.388,2.082-0.045,3.249-0.333,5.333
	c-0.456,0.494,0.414,0.536,0.496,1.333c-0.032,0.672,0.016,1.34,0.143,2c0.013,0.096,0.039,0.18,0.057,0.271
	c0.057,0.743,0.111,1.485,0.17,2.229c0.008,0.105,0.036,0.189,0.052,0.287c-1.676,1.969-2.402,4.295-1.566,7.084
	c0.607,2.027,3.56,3.34,5.224,1.711c1.597,1.687,4.13,2.438,6.867,0.938c17.557-7.187,38.763-7.993,56.891-9.187
	c7.692-0.508,11.898-2.901,19.589-3.427c1.839,0.358,3.667,0.563,5.301,0.699c6.853,0.565,13.8,0.705,20.627-0.158
	c5.235-0.662,10.4-1.623,15.664-2.06c5.993,2.896,12.329,3.656,19.011,3.101c0.483-0.039,0.936-0.129,1.356-0.254
	C379.636,470.428,385.386,466.555,384.214,461.52z"></path>

<g>
	<path fill="#1A1A1A" d="M423.163,406.209c-4.354-8.998-9.647-17.508-14.821-26.045c-6.675-11.016-12.323-22.676-18.068-34.195
		c-7.579-15.195-14.788-30.41-18.365-47.083c5.307-3.607,10.229-7.754,14.488-12.512c8.616-9.622,12.323-21.681,13.7-34.318
		c1.584-14.538-0.715-29.608-4.881-43.54c-3.786-12.662-9.725-26.516-19.356-35.847c-2.726-2.64-7.691,0.871-5.398,4.166
		c13.619,19.575,21.781,41.418,22.042,65.493c0.116,10.798-1.616,22.225-7.124,31.662c-5.175,8.865-13.824,15.376-22.499,20.53
		c-18.053,10.727-40.441,17.032-61.447,17.256c-20.624,0.221-41.908-2.006-61.425-8.931c-18.381-6.521-35.912-19.696-38.407-40.287
		c-1.278-10.546,0.13-21.12,1.06-31.621c0.625-7.068,2.922-15.557-0.481-22.065c-0.591-1.13-2.3-0.809-2.627,0.343
		c-2.232,7.844-3.524,16.325-4.705,24.51c-1.56,10.814-2.579,21.583-0.999,32.452c2.96,20.365,20.157,34.565,38.075,42.176
		c-6.567,22.816-13.621,46.576-25.089,67.484c-8.674,15.812-18.322,31.035-25.067,47.836c-5.168,12.873-9.756,29.578,2.661,39.662
		c8.357,6.789,17.976,5.875,25.903-1.01c5.7-4.947,9.731-11.91,13.024-18.959c-2.392,15.482-3.315,31.02-2.899,46.678
		c0.427,16.064,1.99,32.576,6.394,48.08c0.088,0.309,0.186,0.621,0.278,0.934c1.946-0.383,3.894-0.744,5.847-1.092
		c-0.515-2.232-0.962-4.475-1.241-6.73c-0.137-0.668-0.257-1.355-0.367-2.047c-0.128-0.67-0.249-1.346-0.354-2.025
		c-3.084-13.184-3.937-26.875-4.151-40.367c-0.245-15.398,1.384-30.393,3.051-45.684c0.769-7.051,1.672-14.066,2.654-21.068
		c2.686-8.141,4.942-16.432,7.002-24.729c3.243-13.061,5.641-26.098,7.072-39.477c0.92-8.596,2.421-17.584,1.795-26.248
		c-0.233-3.229-4.739-3.211-5,0c-0.851,10.479-2.698,20.814-4.953,31.072c-3.44,15.654-6.532,31.389-10.891,46.826
		c-3.961,14.027-8.635,28.33-16.361,40.789c-4.136,6.672-11.081,15.242-19.383,11.244c-9.81-4.725-9.703-14.648-7.208-23.992
		c3.624-13.572,10.888-26.197,17.817-38.305c6.196-10.826,12.52-21.279,17.458-32.762c7.374-17.148,14.464-35.773,15.913-54.537
		c18.371,7.039,38.378,9.604,57.929,10.332c20.947,0.779,41.149-3.383,60.372-11.703c4.333-1.875,8.605-4.021,12.712-6.454
		c4.708,26.616,17.62,52.239,30.732,75.567c8.06,14.34,18.437,27.264,24.331,42.795c2.127,5.604,4.82,14.037,0.649,19.414
		c-2.971,3.828-9.704,5.881-13.994,3.797c-4.979-2.42-8.774-7.521-11.845-11.947c-4.644-6.691-8.348-14.037-11.753-21.416
		c-6.929-15.02-12.276-30.824-16.742-46.734c-1.86-6.627-3.509-13.32-4.851-20.072c-0.531-2.67-0.986-5.354-1.355-8.051
		c-0.29-2.113-1.438-4.203-1.895-6.328c-0.356-1.662-3.039-1.691-3.375,0c-2.537,12.783,2.379,26.979,5.718,39.299
		c1.858,6.855,3.914,13.68,6.184,20.432c2.729,26.465,8.467,52.533,12.82,78.762c4.628,27.883,9.206,56.408,2.769,84.443
		c-1.034,4.504-5.738,21.914-12.935,12.596c-2.579-3.34-2.64-8.588-2.798-12.59c-0.199-5.041,0.126-10.102,0.363-15.133
		c0.976-20.656-8.709-43.875-24.867-56.836c-20.366-16.336-51.502-15.779-72.273-0.607c-11.505,8.402-17.736,19.145-19.38,33.361
		c-0.845,7.305-0.447,14.984-0.459,22.598c2.242-0.23,4.486-0.436,6.729-0.592c-0.076-2.055-0.188-4.109-0.323-6.158
		c-0.882-13.418-0.973-27.004,8.108-37.893c7.24-8.68,18.27-12.104,28.976-14.236c10.63-2.117,21.176-0.918,31.281,2.738
		c20.622,7.461,34.548,33.715,35.415,54.77c0.384,9.297-1.01,18.672,1.259,27.828c1.666,6.721,8.573,13.586,15.977,10.496
		c8.469-3.535,9.771-16.455,11.369-24.191c3.69-17.863,2.419-36.975,1.12-55.023c-1.938-26.941-8.469-53.164-13.624-79.623
		c0.935,2.117,1.896,4.223,2.887,6.312c5.307,11.189,12.634,26.344,24.966,31.203c5.557,2.189,11.771,0.566,16.828-2.223
		c5.909-3.26,8.457-9.617,8.388-16.096C431.141,423.492,427.124,414.395,423.163,406.209z"></path>
	<path fill="#1A1A1A" d="M259.09,542.25c-0.115-2.881-0.161-5.869-0.5-8.75c-1.932,0.396-4.771,1.654-6.706,1.951
		c0.531,4.338,0.581,8.049,0.831,11.924c0.034,0.531,0.054,1.225,0.056,2.006c0.435,2.518,0.191,5.445,0.009,7.703
		c-0.161,1.986-0.639,4.543-2.324,5.883c-0.469,0.479-1.115,0.82-1.802,0.982c-2.66,1.51-6.459-1.125-8.111-2.979
		c-3.825-4.291-4.924-11.176-6.068-16.531c-0.54-2.527-1.193-5.057-1.756-7.598c-1.612-0.342-4.28,0.416-5.899,0.92
		c1.993,8.107,3.265,16.42,7.205,23.895c3.387,6.426,12.128,11.682,18.86,6.672C260.585,562.598,259.422,550.533,259.09,542.25z"></path>
</g>

<path fill="#1A1A1A" d="M245.836,229.902c-0.366-0.132-0.688-0.143-0.972-0.079c-1.134-0.526-2.473-0.738-4.01-0.497
	c-6.248,0.981-6.635,9.387-3.823,13.585c3.304,4.932,10.342,4.159,13.177-0.811C252.824,237.513,250.755,231.683,245.836,229.902z
	 M246.987,239.15c-0.811,1.788-3.915,2.75-5.229,0.999c-1.085-1.447-1.391-4.399-0.112-5.844c0.801-0.905,1.741-1.263,2.77-1.175
	c0.135,0.104,0.282,0.199,0.456,0.272C247.034,234.305,247.939,237.05,246.987,239.15z"></path>
<path fill="#1A1A1A" d="M369.747,230.9c-0.402-0.296-0.889-0.385-1.368-0.325c-2.281-0.935-4.787-0.753-6.521,1.548
	c-1.957,2.598-2.312,6.095-0.939,9.032c1.612,3.453,6.325,4.048,9.178,1.841C373.87,240.078,373.452,233.619,369.747,230.9z
	 M367.578,240.272c-1.584,0.865-2.784-0.277-3.111-1.43c-0.386-1.359-0.113-2.869,0.586-4.028c0.231-0.385,0.455-0.578,1-0.712
	c0.064-0.016,0.227,0.021,0.428,0.088c0.219,0.365,0.522,0.695,0.893,0.966C369.224,236.517,369.938,238.983,367.578,240.272z"></path>

<path fill="#1A1A1A" d="M432.457,209.157c-13.58-3.988-23.055-18.249-29.222-31.484c-0.124-0.199-0.246-0.399-0.369-0.598
	c-0.439-1.024-0.925-2.065-1.436-3.102c-0.562-1.523-1.079-3.062-1.533-4.619c0.112-0.036,0.233-0.048,0.37,0.003
	c1.572,0.591,3.306,0.722,5.05,0.536c3.341-0.824,6.509-2.728,8.955-5.292c1.883-1.974,1.106-5.421-1.622-6.146
	c-9.088-2.412-14.083-11.054-21.726-15.95c1.751-1.024,3.373-2.216,4.911-4.039c2.567-3.042,3.687-6.575,4.098-10.466
	c0.284-2.695-2.945-4.932-5.394-4.108c-8.27,2.781-16.563,3.736-25.012,1.262c-8.266-2.421-15.556-6.977-22.784-11.539
	c-5.746-3.627-11.384-7.688-17.704-10.265c-5.435-2.216-11.105-3.721-16.851-4.887c-12.572-2.552-25.852-3.433-38.561-1.438
	c-5.417,0.85-11.161,2.488-16.104,5.286c1.091-4.806,1.182-9.915,0.764-14.977c-0.151-1.831-2.62-2.786-3.63-0.983
	c-11.395,20.325-36.788,22.947-53.8,36.546c-13.684,10.938-25.803,32.792-20.979,50.886c-1.57-0.765-3.225-1.372-4.983-1.796
	c-1.217-0.293-2.774,0.61-2.643,2.013c0.771,8.212,2.367,15.436,10.633,17.283c-2.208,6.025-7.871,12.137-13.733,14.157
	c-1.281,0.441-2.072,2.259-0.866,3.281c3.977,3.371,9.393,4.589,13.999,2.772c-1.489,8.09-3.867,15.809-7.746,23.112
	c-3.978,7.489-9.322,14.295-14.416,21.042c-1.248,1.652,0.021,4.54,1.996,4.906c4.44,0.822,8.859,0.988,13.25,0.581
	c-5.954,10.757-6.562,25.028-1.86,35.991c3.016,7.034,7.995,11.427,13.842,16.079c5.71,4.543,12.29,10,8.184,17.822
	c-1.546,2.945,1.524,5.939,4.446,4.446c3.778-1.93,6.336-4.78,8.057-8.165c3.107,5.564,9.223,8.611,17.034,7.344
	c3.255-0.528,2.154-5.168-0.731-5.402c-7.516-0.608-13.775-3.229-13.458-11.916c0.109-2.984-4.112-3.305-4.994-0.676
	c-0.764,2.277-1.658,4.611-2.853,6.73c-1.794-8.264-11.036-14.139-17.776-20.306c-11.984-10.966-10.84-33.947,0.926-44.571
	c2.688-2.427-0.128-6.875-3.456-5.937c-4.539,1.279-9.096,2.059-13.726,1.981c9.139-13.493,15.478-27.111,17.211-43.889
	c0.057-0.547-0.146-0.981-0.478-1.291c0.232-0.202,0.465-0.4,0.688-0.625c0.827-0.833-0.29-2.397-1.288-1.669
	c-3.322,2.423-7.766,2.469-11.361,0.699c6.723-3.391,11.123-9.9,12.806-17.347c0.257-1.138-0.504-1.925-1.576-2.069
	c-6.228-0.835-7.661-6.135-8.283-11.402c2.242,0.9,4.27,2.164,6.122,3.864c1.771,1.625,4.485-0.422,3.319-2.561
	c-5.547-10.166-1.136-23.489,3.655-33.103c4.931-9.895,12.164-17.441,21.68-22.991c8.412-4.906,17.647-8.219,26.181-12.901
	c6.684-3.667,12.268-8.634,16.571-14.714c-0.373,4.528-1.377,8.995-3.463,12.958c-1.472,1.572-2.75,3.336-3.745,5.336
	c-1.111,2.233,1.714,4.714,3.572,2.756c1.684-1.776,3.031-3.699,4.117-5.725c6.281-6.164,16.519-7.759,25.023-8.453
	c12.753-1.04,25.859,0.575,38.182,3.893c4.759,1.281,9.484,2.913,13.774,5.364c7.111,4.064,13.263,10.067,19.923,14.834
	c11.824,8.464,24.324,12.167,37.568,9.087c-1.595,2.43-3.889,4.472-6.345,5.522c-2.609,1.117-1.349,4.582,0.701,5.368
	c5.428,2.082,9.097,6.867,12.991,10.957c2.303,2.417,4.783,4.576,7.553,6.26c-2.15,0.682-4.454,0.492-6.663-1.072
	c-2.04-1.444-5.569,0.456-5.268,3.023c0.396,3.361,1.63,6.102,3.092,9.131c0.143,0.295,0.312,0.539,0.496,0.757
	c5.623,14.725,14.858,31.763,29.543,38.363c-5.066,2.023-11.883,1.105-16.13-1.483c-3.36-1.847-6.291,3.164-3,5.132
	c8.223,4.611,11.505,17.179,13.598,25.635c1.342,5.418,1.738,10.189,0.355,15.683c-1.289,5.12-3.847,9.971-6.883,14.417
	c-0.415-2.475-1.009-4.912-2.043-7.305c-1.118-2.588-5.574-1.903-6.055,0.792c-2.994,16.813-28.873,40.126-13.956,55.652
	c-4.704,1.211-9.813,1.396-12.637-2.732c-1.861-2.722-6.338-0.098-4.426,2.587c5.341,7.495,17.136,6.681,25.13,4.702
	c3.084-0.764,3.17-4.705,0.825-6.309c-9.688-6.624-5.599-16.757-1.129-25.403c2.622-5.072,5.932-10.107,8.561-15.376
	c0.062,0.59,0.128,1.177,0.205,1.759c0.322,2.446,3.562,4.86,5.613,2.325c9.438-11.668,16.131-24.938,12.969-40.133
	c-1.475-7.083-4.038-16.127-8.593-23.062c6.015,0.243,12.154-1.503,16.05-5.713C435.268,212.454,434.639,209.798,432.457,209.157z"></path>
<path fill="#1A1A1A" d="M389.673,211.605c-7.037-0.591-14.395-1.963-19.769-6.849c-5.163-4.694-7.39-11.759-8.772-18.376
	c-0.88-4.208-6.723-2.845-7.046,0.954c-0.575,6.755-4.343,13.628-7.991,19.17c-2.535,3.851-6.456,9.397-11.103,12.198
	c3.997-11.863,8.037-23.861,13.309-35.166c0.033-0.071,0.048-0.139,0.075-0.209c0.075-0.174,0.158-0.343,0.231-0.518
	c-0.019-0.005-0.038-0.01-0.057-0.016c0.721-3.161-3.502-5.429-5.506-2.33c-14.227,22-39.116,35.482-63.76,42.429
	c-12.603,3.553-25.554,4.482-38.582,4.985c-14.284,0.551-28.954,0.402-41.788,7.494c-1.593,0.881-0.427,2.995,1.156,2.742
	c28.383-4.529,57.334-0.359,85.252-8.52c17.458-5.103,36.581-13.875,50.002-27.371c-2.624,6.778-5.34,13.525-7.811,20.332
	c-0.614,1.693,1.006,3.88,2.824,3.708c8.512-0.806,14.752-8.236,19.553-14.621c2.828-3.761,5.668-7.983,7.819-12.464
	c5.715,12.298,16.655,20.444,31.961,18.552C393.549,217.251,393.676,211.941,389.673,211.605z"></path>

<path fill="#1A1A1A" d="M256.84,496.562c-10.521,0.652-20.943,1.164-31.38,2.744c-4.239,0.641-2.392,6.951,1.761,6.389
	c9.842-1.336,19.767-1.961,29.62-3.258C260.477,501.959,260.708,496.324,256.84,496.562z"></path>
<path fill="#1A1A1A" d="M387.009,496.486c-9.776,2.291-20.21,0.604-30.169,1.326c-3.479,0.252-3.443,5.072,0,5.375
	c10.78,0.951,21.175,1.879,31.831-0.674C392.592,501.574,390.928,495.568,387.009,496.486z"></path>

<path fill="#1A1A1A" d="M327.642,275.423c-9.846,15.755-33.91,16.953-47.843,6.119c-2.041-1.587-4.82,0.949-2.917,2.917
	c15.838,16.375,44.78,14.921,56.156-5.881C334.977,275.033,329.775,272.008,327.642,275.423z"></path>

<path fill="#1A1A1A" d="M383.34,465.125c-27.6-0.998-55.169-0.076-82.732,1.443c-13.216,0.729-26.644,1.488-39.752,3.338
	c-12.703,1.793-27.857,3.424-38.799,10.609c-0.472,0.309-0.285,1.021,0.284,1.047c12.646,0.574,25.742-3.863,38.178-5.848
	c14.006-2.236,27.766-4.193,41.947-4.93c26.947-1.398,53.944,1.117,80.875,2.09C388.34,473.057,388.322,465.305,383.34,465.125z"></path>
<path fill="#1A1A1A" d="M247.391,344.303c-2.02-2.976-5.388-2.43-8.662-2.596c-4.071-0.207-8.396-0.74-12.423-1.395
	c-1.942-0.314-3.057,2.046-1.349,3.199c3.709,2.504,7.154,3.896,11.541,4.736c3.713,0.711,8.4,1.947,10.894-1.549
	C247.848,346.059,247.827,344.945,247.391,344.303z"></path>
<path fill="#1A1A1A" d="M376.775,333.451c-2.569,1.012-4.633,2.807-7.314,3.742c-3.085,1.076-6.382,1.604-9.621,1.932
	c-3.012,0.307-3.057,5.039,0,4.75c3.698-0.35,7.346-0.941,10.903-2.031c2.892-0.887,7.03-2.391,8.432-5.271
	C379.897,335.088,378.681,332.701,376.775,333.451z"></path>
<path fill="#1A1A1A" d="M341.249,310.286c-4.305,18.076-23.061,34.3-41.669,35.462c-17.568,1.096-32.018-18.902-38.027-33.041
	c-1.132-2.662-5.722-0.729-4.684,1.975c7.395,19.254,20.283,36.225,42.711,35.701c20.677-0.482,41.954-18.881,46.852-38.668
	C347.265,308.348,342.051,306.918,341.249,310.286z"></path>
</svg>