<!DOCTYPE svg PUBLIC "-//W3C//DTD SVG 1.1//EN" "http://www.w3.org/Graphics/SVG/1.1/DTD/svg11.dtd"><svg version="1.1" id="Layer_1" xmlns="http://www.w3.org/2000/svg" xmlns:xlink="http://www.w3.org/1999/xlink" x="0px" y="0px" width="600px" height="600px" viewBox="0 0 600 600" enable-background="new 0 0 600 600" xml:space="preserve">
<path fill="#ffffff" d="M423.801,420.873c-3.123-7.451-7.406-14.242-11.883-20.92c-0.45-5.402-4.109-10.451-6.722-15.02
	c-3.103-5.428-6.061-10.932-9.16-16.355c-2.008-3.512-4.122-7.002-6.369-10.406c-0.726-1.404-1.466-2.801-2.231-4.188
	c-0.639-1.156-1.3-2.305-1.977-3.447c-1.476-7.727-4.284-15.164-7.242-22.449c-3.982-9.816-7.964-19.648-12.066-29.413
	c-0.281-0.67-0.655-1.23-1.091-1.694c8.987-5.386,17.46-11.864,24.782-19.078c1.072-1.056,2.045-2.162,2.967-3.292
	c0.111-0.267,0.226-0.531,0.325-0.807c1.227-3.325,2.337-6.708,3.101-10.173c1.571-7.154,2.25-14.434,2.172-21.758
	c-0.084-7.896-0.628-15.782-1.226-23.665c-1.823-4.474-4.151-8.715-7.062-12.489c-0.062-0.276-0.123-0.554-0.186-0.827
	c-1.564-7.039-4.754-13.344-9.145-19.003c-0.056-0.071-0.117-0.137-0.172-0.208c-2.382-8.318-10.63-14.582-16.632-20.457
	c-7.003-6.855-13.012-12.084-22.597-14.933c-4.52-1.344-9.216-2.105-13.947-2.625c-6.475-2.355-13.062-4.392-19.86-5.283
	c-6.486-2.721-13.351-4.15-20.609-2.809c-5.467,1.01-9.317,4.636-13.401,7.917c-0.292,0.096-0.584,0.192-0.875,0.289
	c-17.29,3.257-32.859,9.624-46.644,21.301c-6.962,5.897-12.92,13.156-17.393,21.1c-3.657,6.496-5.297,12.704-4.642,19.477
	c-1.574,4.415-2.755,9.008-3.465,13.748c-0.814,5.435-1.266,10.739-0.802,16.22c0.108,1.279,0.242,2.556,0.386,3.832
	c-1.83,1.036-3.233,2.718-3.632,5.045c-0.43,2.508-0.475,5.374,0.213,7.876c0.152,0.553,0.367,1.036,0.607,1.492
	c1.43,9.652,4.692,18.406,11.236,26.507c7.347,9.096,18.076,14.842,28.69,19.21c0.029,0.012,0.059,0.021,0.088,0.034
	c-1.368,0.86-2.382,2.319-2.494,4.378c-1.26,23.15-11.254,45.09-21.069,65.748c-3.721,7.83-7.92,15.43-11.858,23.164
	c-4.726,5.562-9.113,12.045-11.521,18.898c-0.37,1.057-0.744,2.119-1.105,3.189c-1.89,2.854-3.418,5.809-4.408,8.906
	c-4.625,10.516-7.223,23.104,0.622,31.096c5.346,5.445,14.127,4.84,20.079,0.922c6.616-4.354,10.705-11.771,14.03-18.732
	c3.462-7.25,6.529-14.717,9.364-22.326c-0.266,4.227-0.333,8.461-0.304,12.701c-0.825,0.812-1.383,1.956-1.44,3.434
	c-0.021,0.555-0.054,1.106-0.089,1.66c-1.322,1.071-2.226,2.727-2.209,4.34c0.041,3.852,0.214,7.693,1.275,11.414
	c0.036,0.125,0.092,0.229,0.134,0.346c-1.11,8.152-1.98,16.33-2.131,24.566c-0.069,3.785-0.267,10.729,1.221,16.338
	c-0.004,2.68,0.061,5.361,0.214,8.039c-2.464,23.736,0.102,50.547,17.639,66.23c4.001,2.695,11.005,0.191,11.8-4.799
	c1.661-10.43,1.964-20.826,1.845-31.367c-0.104-9.206-0.607-18.639,0.803-27.771c1.703-11.031,9.644-18.137,17.381-25.342
	c4.017-1.4,8.021-2.859,12.045-4.232c8.378-1.752,16.831-2.855,25.435-2.727c8.824,0.133,17.578,1.938,25.438,5.922
	c2.105,3.946,4.421,7.826,7.822,11.338c4.146,4.283,8.866,7.029,12.71,10.969c2.49,6.656,3.105,13.746,3.396,20.898
	c0.011,0.025,0.021,0.051,0.031,0.076c2.307,6.102,2.979,12.654,3.536,19.111c0.618,7.158,0.756,14.504,2.789,21.449
	c0.697,2.391,1.55,4.764,2.753,6.949c4.089,2.664,10.11,0.869,11.726-4.354c5.771-18.686,7.737-37.979,7.438-57.504
	c-0.301-19.527-4.116-38.236-7.354-57.389c-2.857-16.92-4.251-34.367-7.313-51.297c1.521,3.188,3.157,6.314,4.947,9.377
	c2.388,4.08,4.561,9.1,7.975,12.58l0.041,0.062c0.067,0.867,0.29,1.764,0.712,2.676c0.535,1.156,1.127,2.27,1.745,3.361
	c1.65,3.66,4.318,7.914,7.593,11.631c0.331,0.527,0.67,1.156,0.698,1.443c0.433,4.371,4.512,6.305,7.824,5.709
	c4.146,2.297,8.594,3.025,12.854,0.865c1.464-0.549,2.82-1.479,3.841-2.801C428.681,436.451,426.613,427.584,423.801,420.873z
	 M360.48,346.246c-0.004-0.553,0.016-1.105,0.002-1.658c0.062,0.049,0.134,0.082,0.196,0.127c0.034,0.525,0.095,1.059,0.163,1.596
	C360.725,346.285,360.601,346.27,360.48,346.246z M367.413,367.807c-0.74-1.881-1.55-3.738-2.396-5.586
	c0.257,0.266,0.506,0.533,0.747,0.807c0.543,1.488,1.104,2.973,1.688,4.441C367.436,367.582,367.428,367.695,367.413,367.807z"></path>

<path fill="#303030" d="M410.844,233.494c-0.034-4.506-0.615-9.005-1.219-13.462c-0.581-4.289-2.299-8.448-4.548-12.339
	c2.165-0.449,3.624-2.792,3.762-4.878c0.265-4.011-3.869-8.186-6.224-11.089c-0.69-0.852-1.399-1.703-2.105-2.562
	c-0.633-0.864-1.304-1.704-2.006-2.518c-1.188-1.555-2.299-3.162-3.199-4.881c-0.408-0.778-0.908-1.378-1.464-1.829
	c0.479-1.634,0.524-3.417,0.017-4.779c-0.608-1.628-1.319-3.194-2.111-4.71c1.111-0.956,1.341-0.856,1.004-2.697
	c-0.078-0.425-0.55,0.582-0.125-1.5c2.517,1.569,5.565,1.464,8.686,2.154c4.865,1.076,6.938-6.354,2.062-7.474
	c-4.336-0.995-7.719-3.241-10.841-6.075c-0.031-0.217-0.061-0.43-0.094-0.651c-0.489-3.231-2.545-5.908-4.465-8.431
	c-4.389-5.769-10.286-10.28-15.734-15.003c-0.37-0.321-0.754-0.54-1.141-0.701c-4.762-7.161-9.543-14.28-15.103-20.915
	c-6.938-8.278-16.303-17.209-27.972-16.302c-3.127,0.243-6.17,0.903-8.864,2.077c0.017-0.021,0.034-0.039,0.051-0.06
	c3.954-4.92-2.722-11.971-7.071-7.071c-6.338,7.14-15.365,9.981-24.51,11.592c-10.895,1.919-22.119,2.049-33.123,3.003
	c-12.024,1.043-24.209,3.043-34.087,8.512c-0.984,0.096-1.982,0.596-2.866,1.642c-0.056,0.066-0.106,0.134-0.162,0.2
	c-4.364,2.9-8.171,6.611-11.171,11.387c0.592-3.518-4.276-6.187-6.161-2.522c-2.596,5.05-5.122,10.157-7.314,15.396
	c-3.112,4.253-4.772,11.044-5.99,15.176c-2.333,7.917-2.511,16.308-2.014,24.485c0.04,0.657,0.231,1.21,0.511,1.68
	c-1.06-0.492-2.131-1.105-3.24-1.875c-2.831-1.964-6.109,1.797-4.534,4.534c2.195,3.812,4.929,6.812,8.343,9.107
	c-0.764,2.593-1.693,5.157-2.098,7.815c-1.892,1.249-3.698,2.686-4.687,4.531c-1.251,2.337,0.501,4.445,2.665,4.49
	c-0.009,0.035-0.019,0.07-0.028,0.104c0.242-0.032,0.487-0.084,0.731-0.127c0.286-0.004,0.564-0.058,0.827-0.161
	c1.124-0.255,2.26-0.625,3.384-1.055c0.121,1.596,1.012,3.111,2.674,3.71c-0.131,0.836-0.254,1.674-0.411,2.508
	c-1.292,6.863-3.775,17.247-11.168,20.039c-5.77,2.179-3.516,11.275,2.592,9.401c1.853-0.568,3.532-1.357,5.071-2.31
	c-0.287,1.872-0.538,3.75-0.718,5.643c-0.111,1.165-0.154,2.263-0.12,3.321c-4.303,4.188-0.38,13.404,3.711,16.554
	c1.018,0.784,2.082,0.931,3.053,0.681c0.729,1.156,1.489,2.277,2.514,3.271c1.003,0.972,2.971,0.328,2.881-1.193
	c-0.231-3.888-1.241-7.7-1.722-11.589c-0.195-1.578,1.239-3.121,1.186-4.764c-0.068-2.094-0.124-4.185-0.192-6.279
	c-0.214-6.532,0.675-13.087,1.484-19.593c1,0.626,2.205,0.96,3.48,0.783c21.254-2.952,39.095-13.53,55.229-27.188
	c7.511-6.358,14.406-13.413,20.164-21.407c0.238-0.331,0.485-0.685,0.733-1.043c0.187,0.16,0.385,0.305,0.591,0.44
	c-0.581,1.449-1.101,2.924-1.495,4.451c-0.206,0.795-0.235,1.545-0.148,2.249c-2.475,5.307-4.017,10.969-5.26,16.744
	c-0.792,3.684-1.482,7.386-2.327,11.059c-0.99,4.305-0.506,8.293-2.089,12.548c-1.367,3.675,4.738,6.254,6.343,2.674
	c0.376-0.637,0.745-1.275,1.118-1.913c3.412-4.782,10.609-7.892,15.441-10.377c6.364-3.273,12.888-6.226,19.269-9.465
	c7.818-3.969,14.262-9.546,20.776-15.348c7.587-6.757,15.472-14.702,19.734-24.063c0.137-0.3,0.266-0.609,0.39-0.923
	c0.448,3.603,0.871,7.222,0.965,10.844c-0.457,2.779-0.562,5.693-0.565,8.827c-0.004,3.771,3.826,4.583,6.116,2.861
	c0.596,1.418,1.395,2.751,2.467,3.935c5.304,5.859,13.804,9.296,20.78,12.643c2.635,1.264,5.871,0.617,7.827-1.22
	c0.937,1.34,2.022,2.538,3.341,3.502c0.53,0.389,1.086,0.655,1.65,0.819c2.141,5.45,2.267,11.083,2.834,17.136
	c0.653,6.971-1.566,17.013,2.419,23.033c2.854,4.311,8.689,4.292,11.549,0C411.298,242.93,410.877,237.892,410.844,233.494z
	 M200.621,211.615c-0.453,0.537-0.484,1.389-0.133,1.958c-0.24,0.188-0.473,0.389-0.709,0.583c0.296-1.422,0.542-2.855,0.767-4.291
	c0.671-0.079,1.34-0.165,2.005-0.259C201.878,210.236,201.235,210.887,200.621,211.615z"></path>

<path fill="#383838" d="M286.286,471.381c-2.606-1.455-5.865,0.146-8.506,0.977c-0.499,0.156-0.994,0.328-1.489,0.502
	c-3.551-0.23-6.896,0.334-9.979,1.514c-0.974-1.105-2.465-1.756-4.051-1.281c-6.581,1.965-13.235,3.758-19.976,5.092
	c-0.628-0.168-1.303-0.182-1.995,0.018c-0.812,0.23-1.663,0.484-2.495,0.795c-2.306,0.381-4.622,0.699-6.949,0.947
	c-0.676-0.305-1.265-0.369-1.92-0.654c-1.743-0.762-4.154-0.293-4.621,1.879c-0.455,2.113-0.728,4.568-0.438,6.791
	c-0.792,1.018-1.237,2.365-1.107,4.045c0.735,9.52,3.006,18.601,5.814,27.693c0.666,2.152,1.279,4.453,1.913,6.797
	c0.109,2.502,0.19,5.004,0.195,7.51c0.005,2.365,0.979,4.058,2.385,5.113c-0.089,0.736-0.034,1.535,0.194,2.381
	c0.017,0.371,0.057,0.75,0.138,1.143c0.301,1.464,0.629,2.918,0.951,4.375c0.296,1.555,0.589,3.105,1.003,4.641
	c0.147,0.547,0.347,1.03,0.58,1.471c-0.066,0.781,0.039,1.633,0.367,2.543c0.338,0.939,0.724,1.818,1.133,2.676
	c0.25,0.846,0.626,1.545,1.096,2.113c0.709,1.258,1.481,2.488,2.323,3.754c2.843,4.275,10.373,4.203,11.61-1.518
	c1.632-7.547,1.183-15.023,0.314-22.514c2.017-0.256,3.875-1.805,3.875-4.178h0.028c0.202-6.381-1.162-12.932-1.254-19.358
	c-0.09-6.173,0.286-12.343,1.927-18.312c2.521-9.17,9.325-14.438,16.683-19.244c1.99-0.814,4.025-1.51,6.088-2.141
	c2.531-0.771,5.149-0.808,6.832-2.998C287.574,473.146,287.096,471.834,286.286,471.381z"></path>
<path fill="#383838" d="M389.338,523.592c0.132-3.531-0.217-6.961-0.852-10.334c0.312-3.537-0.732-7.725-1.461-10.975
	c3.739-3.197,2.726-10.15,2.252-14.502c-0.644-5.896-2.18-11.795-4.094-17.395c-1.71-5.002-7.568-5.195-10.407-2.407
	c-4.7-1.519-9.983-1.896-14.54-2.06c-6.325-0.229-15.104-0.238-20.549,3.557c-0.396,0.275-0.721,0.582-0.984,0.908
	c-3.03-0.525-6.15-0.877-9.37-1.15c-0.652-0.07-4.485-0.525-5.164-0.568c-2.172-0.142-3.959,2.389-1.833,2.834
	c9.489,1.996,21.907,9.826,28.53,16.681c3.29,3.406,5.976,7.139,8.28,11.27c2.437,4.367,2.297,9.012,4.688,13.385
	c0.229,0.42,0.53,3.334,0.834,3.666c0.106,0.816,0.707,2.521,0.833,3.334c0.326,3.973,0.643,5.376,1.167,9.333
	c-0.447,3.498,0.529,6.36,0.436,9.909c-0.34,1.574-0.727,3.133-0.984,4.762c-0.168,1.051,0.064,2.053,0.535,2.92
	c-0.011,0.082-0.015,0.162-0.022,0.242c-0.206,1.762-0.956,3.093,0.201,3.833c-0.036,0.748,0.652,0.587,0.666,1.333
	c-2.459-0.167-0.335,1.624-0.333,1.667c-0.44,3.144,0.201,5.569-0.218,8.681c-0.526,3.906,2.355,8.32,6.876,6.877
	c9.115-2.911,13.024-11.93,14.746-20.663C390.038,541.281,391.04,531.57,389.338,523.592z"></path>

<path fill="#6b6b6b" d="M382.632,457.322c-0.164-0.25-0.313-0.502-0.469-0.752c1.394-1.848,1.932-4.223,0.854-6.824
	c-0.919-2.221-1.898-4.43-2.894-6.637c-0.085-6.662-1.612-14.125-4.146-20.684c-0.168-0.643-0.326-1.287-0.522-1.924
	c-0.216-0.701-0.572-1.234-1-1.648c-0.443-0.941-0.91-1.854-1.396-2.73c-0.009-0.084-0.021-0.168-0.026-0.252
	c-0.188-1.908-0.424-3.816-0.676-5.723c0.022-4.271-0.899-9.076-1.878-13.08c-1.51-10.771-4.306-21.627-7.834-31.941
	c-0.007-0.162-0.016-0.322-0.021-0.484c-0.11-2.99-0.057-6.037,0.024-9.104c1.312-0.105,2.607-0.719,3.696-2.029
	c2.969-3.574,9.188-5.455,13.116-8.02c3.418-2.229,3.299-7.424-0.323-9.152c0.239-3.994-1.795-8.771-2.769-12.304
	c-1.119-4.062-2.996-8.304-5.523-11.847c-0.478-3.338-1.163-6.625-2.622-9.459c-1.522-2.958-4.769-2.733-6.729-0.979
	c-3.157-0.936-5.496-0.249-9.371,3.251c-0.093,0.308-0.125-0.625-1.5,1.25c-2.75,2-6.454,3.129-7.875,4.375
	c-5.375,2.125-6.232,1.653-11.792,3.979c-0.356,0.147-8.891,0.838-9.208,1.021c-6.522-1.062-4.305-0.062-7.124,6.999
	c-1.737,4.352-3.443,10.043-4.875,14.5c-0.668,2.08-1.372,2.769-2.25,4.625c-0.052,0.072-0.2,2.299-0.25,2.375
	c-2.021,3.104-3.337,4.751-4.629,8.468c-1.176,0.004-2.438,0.39-3.597,0.423c-0.12,0.004-0.241,0-0.361,0.002
	c-3.539-8.141-7.337-16.72-12.306-24.199c-1.9-4.049-3.987-8.086-7.146-11.186c-0.952-0.934-1.985-1.279-2.954-1.23
	c-1.699-0.729-3.564-1.146-5.416-1.562c-6.125-1.379-12.588-1.376-18.768-2.531c-1.669-0.574-3.422-0.968-5.29-1.354
	c-0.424-0.146-0.832-0.244-1.23-0.318c-1.502-2.104-3.479-3.834-6.12-4.913c-2.628-1.074-5.321,0.764-6.777,2.758
	c-2.897,3.969-2.465,8.274-1.534,12.61c-1.426,6.25-2.699,12.541-4.019,18.813c-0.652,0.752-1.059,1.779-1.022,3.104
	c-0.135,1.076-0.246,2.141-0.32,3.213c-1.348,1.355-2.045,3.482-1.049,5.408c1.623,3.139,5.153,5.229,9.055,6.729
	c2.236,2.75,6.031,4.023,9.249,3.277c-0.028,0.24-0.056,0.48-0.085,0.719c-1.596,8.604-3.799,17.104-4.156,25.898
	c-1.291,4.893-2.709,9.742-3.599,14.699c-1.566,8.719-3.367,17.395-4.897,26.119c-1.636,9.324-2.3,18.803-3.633,28.164
	c-1.612,2.307-2.036,5.408-1.37,8.113c-0.547,2.729-1.193,5.439-1.982,8.129c-1.797,6.131,7.927,10.514,10.509,4.432
	c0.147-0.35,0.275-0.699,0.416-1.047c4.439-1.193,9.32-0.826,13.786-2.312c0.808-0.268,1.502-0.676,2.085-1.18
	c14.479-1.438,28.886-3.402,43.399-4.727c1.829-0.166,3.656-0.324,5.482-0.486c8.479-0.037,17.03-1.197,25.701-1.379
	c8.201-0.176,16.354,1.209,24.54,1.49c9.041,0.312,18.083-0.012,27.125,0.021C381.661,468.307,385.694,462.01,382.632,457.322z"></path>

<path fill="rgba(26,26,26,0.5)"  d="M380.666,439c-1.588-12.568-3.653-25.121-6.02-37.568
	c-2.431-12.787-5.257-26.231-11.288-37.865c-0.544-1.049-1.229-1.791-1.989-2.274c-0.492-3.226-0.991-6.449-1.487-9.674
	c-1.99-12.95-1.543-26.207-4.479-39.013c-0.689-3.006-3.735-4.106-6.457-3.666c-6.27,1.017-17.9,1.61-19.73,9.604
	c-0.938,4.094-0.316,8.704-0.432,12.87c-0.068,2.524,0.461,5.144,0.518,7.685c0.041,1.81-0.063,3.613-0.167,5.42
	c-2.774,2.174-5.791,3.86-8.859,5.592c-2.412,1.359-3.21,4.598-1.825,6.961c0.146,0.248,0.313,0.457,0.482,0.666
	c0.628,1.281,1.828,2.246,3.598,2.334c-0.748,0.992-1.163,2.254-0.929,3.602c0.265,1.51,0.488,2.992,0.616,4.475
	c-0.024,0.556-0.05,1.109-0.072,1.664c-0.323,0.621-0.521,1.345-0.503,2.191c0.263,11.611,1.669,22.857,3.132,34.375
	c0.744,5.875,1.3,11.752,1.334,17.676c0.031,5.4-0.828,10.57-1.17,15.869c-0.904,2.75,0.154,6.353,3.475,7.267
	c0.155,0.043,0.311,0.086,0.465,0.129c1.774,0.487,3.523,0.03,4.867-1.041c12.15-4.097,24.747-2.498,37.284-4.164
	c0.186,0.217,0.353,0.448,0.548,0.655C374.448,446.055,381.249,443.619,380.666,439z"></path>
<path fill="rgba(26,26,26,0.5)"  d="M282.775,356.775c0.743-4.58-1.814-7.965-6.436-8.449
	c-4.867-0.51-5.414-1.637-6.27-6.393c-0.788-4.388-0.643-8.996-0.778-13.435c-0.04-1.291-0.452-2.415-1.103-3.347
	c1.08-0.866,1.802-2.112,1.65-3.653c-0.091-0.931-0.209-1.856-0.359-2.778c-0.334-2.052-2.679-3.574-4.641-3.533
	c-1.6,0.033-4.018-1.701-5.633-2.197c-2.306-0.707-4.852-0.338-6.863,0.896c-2.12-0.507-4.457,0.424-5.085,2.891
	c-0.007,0.031-0.015,0.062-0.023,0.093c-0.352,1.383-0.023,2.685,0.779,3.713c-0.271,1.158-0.471,2.368-0.72,3.608
	c-4.813,8.037-3.797,18.752-2.371,27.716c0.097,0.61,0.266,1.155,0.481,1.651c-0.474,3-0.982,5.992-1.45,8.972
	c-0.906,5.774-1.658,11.577-2.042,17.413c-4.051,4.812-6.446,10.343-8.295,16.65c-1.051,3.584-1.776,7.156-2.367,10.84
	c-0.725,4.517-2.341,9.128-0.884,13.628c0.142,0.438,0.325,0.846,0.525,1.237c-0.512,2.597-0.999,5.199-1.509,7.799
	c-1.662,8.472-4.405,16.431-3.761,24.994c-0.396,0.938-0.735,1.886-0.502,1.525c-1.874,2.881,1.191,6.188,4.212,5.479
	c5.596-1.311,11.009-3.258,16.455-5.084c0.465,0.201,0.979,0.354,1.554,0.425c4.296,0.534,8.472,0.35,12.777-0.048
	c4.132-0.381,8.98-0.7,12.499-3.141c0.28-0.195,0.527-0.404,0.758-0.619c1.761,0.74,3.829,0.588,5.223-0.873
	c2.586-2.711,1.643-5.194,0.646-8.481c-0.287-0.945-0.581-1.89-0.876-2.832c0.038-0.088,0.086-0.16,0.121-0.248
	c2.65-6.621,1.521-15.185,0.419-22.051c-1.142-7.117-2.929-14.14-4.529-21.164c0.298-1.474,0.603-2.941,0.905-4.408
	C277.81,381.318,280.771,369.129,282.775,356.775z"></path>

<g>
	<path fill="#1A1A1A" d="M423.163,406.209c-4.354-8.998-9.647-17.508-14.821-26.045c-6.675-11.016-12.323-22.676-18.068-34.195
		c-7.579-15.195-14.788-30.41-18.365-47.083c5.307-3.607,10.229-7.754,14.488-12.512c8.616-9.622,12.323-21.681,13.7-34.318
		c1.584-14.538-0.715-29.608-4.881-43.54c-3.786-12.662-9.725-26.516-19.356-35.847c-2.726-2.64-7.691,0.871-5.398,4.166
		c13.619,19.575,21.781,41.418,22.042,65.493c0.116,10.798-1.616,22.225-7.124,31.662c-5.175,8.865-13.824,15.376-22.499,20.53
		c-18.053,10.727-40.441,17.032-61.447,17.256c-20.624,0.221-41.908-2.006-61.425-8.931c-18.381-6.521-35.912-19.696-38.407-40.287
		c-1.278-10.546,0.13-21.12,1.06-31.621c0.625-7.068,2.922-15.557-0.481-22.065c-0.591-1.13-2.3-0.809-2.627,0.343
		c-2.232,7.844-3.524,16.325-4.705,24.51c-1.56,10.814-2.579,21.583-0.999,32.452c2.96,20.365,20.157,34.565,38.075,42.176
		c-6.567,22.816-13.621,46.576-25.089,67.484c-8.674,15.812-18.322,31.035-25.067,47.836c-5.168,12.873-9.756,29.578,2.661,39.662
		c8.357,6.789,17.976,5.875,25.903-1.01c5.7-4.947,9.731-11.91,13.024-18.959c-2.392,15.482-3.315,31.02-2.899,46.678
		c0.427,16.064,1.99,32.576,6.394,48.08c0.088,0.309,0.186,0.621,0.278,0.934c1.946-0.383,3.894-0.744,5.847-1.092
		c-0.515-2.232-0.962-4.475-1.241-6.73c-0.137-0.668-0.257-1.355-0.367-2.047c-0.128-0.67-0.249-1.346-0.354-2.025
		c-3.084-13.184-3.937-26.875-4.151-40.367c-0.245-15.398,1.384-30.393,3.051-45.684c0.769-7.051,1.672-14.066,2.654-21.068
		c2.686-8.141,4.942-16.432,7.002-24.729c3.243-13.061,5.641-26.098,7.072-39.477c0.92-8.596,2.421-17.584,1.795-26.248
		c-0.233-3.229-4.739-3.211-5,0c-0.851,10.479-2.698,20.814-4.953,31.072c-3.44,15.654-6.532,31.389-10.891,46.826
		c-3.961,14.027-8.635,28.33-16.361,40.789c-4.136,6.672-11.081,15.242-19.383,11.244c-9.81-4.725-9.703-14.648-7.208-23.992
		c3.624-13.572,10.888-26.197,17.817-38.305c6.196-10.826,12.52-21.279,17.458-32.762c7.374-17.148,14.464-35.773,15.913-54.537
		c18.371,7.039,38.378,9.604,57.929,10.332c20.947,0.779,41.149-3.383,60.372-11.703c4.333-1.875,8.605-4.021,12.712-6.454
		c4.708,26.616,17.62,52.239,30.732,75.567c8.06,14.34,18.437,27.264,24.331,42.795c2.127,5.604,4.82,14.037,0.649,19.414
		c-2.971,3.828-9.704,5.881-13.994,3.797c-4.979-2.42-8.774-7.521-11.845-11.947c-4.644-6.691-8.348-14.037-11.753-21.416
		c-6.929-15.02-12.276-30.824-16.742-46.734c-1.86-6.627-3.509-13.32-4.851-20.072c-0.531-2.67-0.986-5.354-1.355-8.051
		c-0.29-2.113-1.438-4.203-1.895-6.328c-0.356-1.662-3.039-1.691-3.375,0c-2.537,12.783,2.379,26.979,5.718,39.299
		c1.858,6.855,3.914,13.68,6.184,20.432c2.729,26.465,8.467,52.533,12.82,78.762c4.628,27.883,9.206,56.408,2.769,84.443
		c-1.034,4.504-5.738,21.914-12.935,12.596c-2.579-3.34-2.64-8.588-2.798-12.59c-0.199-5.041,0.126-10.102,0.363-15.133
		c0.976-20.656-8.709-43.875-24.867-56.836c-20.366-16.336-51.502-15.779-72.273-0.607c-11.505,8.402-17.736,19.145-19.38,33.361
		c-0.845,7.305-0.447,14.984-0.459,22.598c2.242-0.23,4.486-0.436,6.729-0.592c-0.076-2.055-0.188-4.109-0.323-6.158
		c-0.882-13.418-0.973-27.004,8.108-37.893c7.24-8.68,18.27-12.104,28.976-14.236c10.63-2.117,21.176-0.918,31.281,2.738
		c20.622,7.461,34.548,33.715,35.415,54.77c0.384,9.297-1.01,18.672,1.259,27.828c1.666,6.721,8.573,13.586,15.977,10.496
		c8.469-3.535,9.771-16.455,11.369-24.191c3.69-17.863,2.419-36.975,1.12-55.023c-1.938-26.941-8.469-53.164-13.624-79.623
		c0.935,2.117,1.896,4.223,2.887,6.312c5.307,11.189,12.634,26.344,24.966,31.203c5.557,2.189,11.771,0.566,16.828-2.223
		c5.909-3.26,8.457-9.617,8.388-16.096C431.141,423.492,427.124,414.395,423.163,406.209z"></path>
	<path fill="#1A1A1A" d="M259.09,542.25c-0.115-2.881-0.161-5.869-0.5-8.75c-1.932,0.396-4.771,1.654-6.706,1.951
		c0.531,4.338,0.581,8.049,0.831,11.924c0.034,0.531,0.054,1.225,0.056,2.006c0.435,2.518,0.191,5.445,0.009,7.703
		c-0.161,1.986-0.639,4.543-2.324,5.883c-0.469,0.479-1.115,0.82-1.802,0.982c-2.66,1.51-6.459-1.125-8.111-2.979
		c-3.825-4.291-4.924-11.176-6.068-16.531c-0.54-2.527-1.193-5.057-1.756-7.598c-1.612-0.342-4.28,0.416-5.899,0.92
		c1.993,8.107,3.265,16.42,7.205,23.895c3.387,6.426,12.128,11.682,18.86,6.672C260.585,562.598,259.422,550.533,259.09,542.25z"></path>
</g>

<path fill="#1A1A1A" d="M373.573,229.176c-3.676,7.143-15.558,9.681-20.33,2.004c-1.112-1.788-3.757-0.221-2.809,1.641
	c5.354,10.484,22.339,8.768,27.672-0.996C379.734,228.845,375.117,226.175,373.573,229.176z"></path>
<path fill="#1A1A1A" d="M258.897,230.865c-3.672,8.664-13.986,9.291-19.79,2.368c-2.083-2.485-5.545,1.068-3.535,3.535
	c7.958,9.773,23.3,8.181,27.438-4.169C263.812,230.203,259.896,228.51,258.897,230.865z"></path>

<path fill="#1A1A1A" d="M390.34,201.625c-13.679,1.427-23.848-5.861-28.534-18.581c-1.031-2.798-4.919-3.741-6.569-0.858
	c-1.05,1.833-2.062,3.729-3.115,5.605c0.827-8.213,0.568-16.511-0.443-24.791c-0.67-5.489-8.217-5.672-8.676,0
	c-1.737,21.461-20.901,29.704-38.028,37.93c-13.47,6.47-26.981,13.306-35.176,25.206c0.158-17.649,5.986-36.286,15.792-50.236
	c2.828-4.022-3.649-7.601-6.5-3.8c-20.558,27.411-48.341,47.997-82.298,54.911c-2.258,0.46-1.762,4.359,0.548,4.051
	c17.566-2.341,34.823-7.681,49.801-17.303c7.022-4.511,13.459-9.729,19.391-15.472c-4.138,13.472-5.291,27.846-2.462,41.614
	c0.681,3.315,5.77,3.176,6.54,0c4.821-19.876,28.763-26.894,45.146-34.227c11.426-5.114,22.313-12.029,29.051-21.781
	c-0.061,5.431-0.583,10.854-1.676,16.222c-0.679,3.33,3.003,5.454,5.561,3.237c3.789-3.284,6.586-7.381,9.183-11.616
	c6.496,11.596,18.303,18.369,32.465,16.638C394.579,207.857,394.695,201.171,390.34,201.625z"></path>
<path fill="#1A1A1A" d="M417.974,203.206c-9.81-7.362-17.255-18.247-20.439-30.086c-0.064-0.24-0.15-0.456-0.248-0.656
	c5.245-0.056,10.218-2.431,14.33-6.187c1.918-1.751,0.723-4.604-1.421-5.381c-8.387-3.04-14.971-12.362-20.221-19.082
	c-7.814-10.001-15.138-20.294-23.602-29.779c-7.352-8.239-15.498-16.193-25.942-20.265c-5.347-2.084-10.36-2.078-15.098-0.676
	c1.532-3.555,2.318-7.229,2.504-11.094c0.189-3.944-5.028-5.923-7.677-3.18c-17.797,18.432-45.86,19.681-69.674,23.749
	c-13.362,2.282-30.954,5.729-40.99,16.07c0.179-0.964,0.364-1.927,0.56-2.89c0.571-2.818-2.541-4.618-4.708-2.74
	c-10.22,8.859-17.315,21.502-21.882,34.073c-3.341,9.197-4.911,19.556-1.465,28.507c-0.865-0.473-1.722-0.958-2.555-1.482
	c-1.281-0.807-2.75,0.033-3.221,1.311c-2.709,7.355,0.404,14.747,6.287,19.273c-3.534,4.328-8.45,7.167-12.791,10.691
	c-1.974,1.602-1.045,4.597,0.75,5.816c2.44,1.658,4.985,2.449,7.943,2.217c1.084-0.085,2.12-0.386,3.158-0.689
	c1.108-0.324,2.85-0.487,2.394-1.337c0.307,0.573,0.749,0.934,1.242,1.136c-4.055,10.693-6.827,21.509-16.106,29.237
	c-1.754,1.461-0.864,4.896,1.397,5.292c3.446,0.604,6.303,0.766,9.204,0.401c-1.679,4.797-1.381,9.734,1.766,14.628
	c4.055,6.306,10.101,10.478,13.443,17.337c1.465,3.007,5.765,0.805,5.141-2.167c-1.196-5.696-5.937-10.521-9.831-14.582
	c-5.687-5.93-7.063-10.95-2.33-18.18c1.35-2.062-0.905-5.28-3.336-4.34c-2.071,0.801-4.217,1.132-6.386,1.191
	c7.107-8.938,9.516-19.672,14.004-30.562c1.022-2.479-2.26-4.415-4.244-3.465c-1.666-1.851-4.475-1.599-7.306-1.447
	c3.253-3.025,6.122-6.41,8.05-10.505c0.807-1.712,0.088-3.271-1.614-3.969c-5.227-2.141-7.945-6.884-7.263-12.073
	c2.436,1.263,4.968,2.431,7.026,4.197c2.094,1.797,4.904-0.962,3.038-3.038c-8.294-9.228-4.18-24.085-0.106-34.304
	c3.159-7.923,7.731-16.021,13.415-22.797c-0.304,2.527-0.508,5.065-0.542,7.62c-0.041,3.081,4.533,3.676,5.332,0.722
	c5.315-19.661,32.68-21.863,49.383-23.2c20.18-1.616,41.606-3.812,58.695-14.822c-1.329,2.692-3.651,5.192-3.401,8.301
	c0.243,3.028,3.956,5.158,6.327,2.621c15.525-16.611,37.01,9.894,46.33,20.915c7.606,8.994,14.959,18.205,22.872,26.937
	c4.492,4.957,9.236,10.504,15.067,14.096c-3.111,1.727-6.607,2.275-10.219,0.572c-1.217-0.574-2.539-0.466-3.518,0.165
	c-0.311,0.458-0.559,0.942-0.765,1.443c1.894,8.892,5.464,16.847,9.777,24.823c2.617,4.153,5.714,8.008,9.221,11.414
	c-1.536-0.083-3.075-0.283-4.635-0.713c-2.339-0.645-4.54,2.025-3.197,4.158c7.212,11.458,7.635,25.667,3.889,38.44
	c-1.769-3.237-4.405-5.856-7.979-6.556c-1.181-0.231-2.664,0.801-2.152,2.153c0.83,2.193,2.177,3.359,3.56,5.285
	c1.788,2.491,2.785,6.235,2.929,9.25c0.147,3.081,4.331,4.494,5.961,1.615c8.058-14.227,9.642-32.747,2.156-47.407
	c2.628,0.185,5.291,0.04,8.082,0.029C419.82,209.224,420.41,205.035,417.974,203.206z"></path>

<path fill="#1A1A1A" d="M329.269,284.348c-18.148,3.89-36.808,4.522-55.269,3.027c-2.127-0.172-2.016,2.981,0,3.25
	c1.843,0.246,3.69,0.466,5.539,0.671c0.03,0.151,0.078,0.305,0.166,0.461c2.002,3.553,4.311,6.89,7.737,9.198
	c0.594,0.4,1.451-0.002,1.625-0.661c0.554-2.1,1.569-3.917,2.635-5.79c0.385-0.676,0.851-1.389,1.221-2.133
	c12.662,0.603,25.345-0.048,37.81-2.72C334.198,288.909,332.728,283.607,329.269,284.348z M289.65,294.128
	c-0.861,1.28-1.596,2.622-2.169,4.04c-1.996-1.804-3.351-4.098-4.524-6.519c2.608,0.25,5.22,0.457,7.833,0.61
	C290.416,292.897,290.047,293.538,289.65,294.128z"></path>

<path fill="#1A1A1A" d="M383.34,465.125c-27.6-0.998-55.169-0.076-82.732,1.443c-13.215,0.729-26.644,1.487-39.751,3.338
	c-12.703,1.793-27.857,3.424-38.799,10.608c-0.472,0.31-0.285,1.021,0.284,1.048c12.646,0.573,25.742-3.863,38.178-5.849
	c14.006-2.235,27.766-4.192,41.947-4.93c26.947-1.398,53.944,1.117,80.875,2.09C388.34,473.057,388.322,465.305,383.34,465.125z"></path>
<path fill="#1A1A1A" d="M284.741,372.885c1.181-7.098,4.098-13.594,4.349-20.885c0.06-1.717-1.198-3.109-2.753-3.615
	c-6.393-2.084-10.714-5.281-13.212-11.576c-2.4-6.047-2.043-12.513-1.223-18.809c0.231-1.771-2.651-2.09-3.069-0.415
	c-1.86,7.472-4.191,15.478-2.146,23.13c1.843,6.898,8.324,11.254,14.701,13.824c-0.666,5.568-2.721,10.855-3.904,16.346
	c-1.52,7.049-2.076,14.457-2.999,21.609c-1.063,8.234-1.165,15.781-0.301,23.955c0.832,7.858,1.802,15.705,2.606,23.567
	c0.335,3.273,0.652,6.552,0.857,9.837c0.035,0.561-0.019,1.268-0.006,1.94c-17.785,1.896-35.848,4.644-52.883,10.096
	c-2.675,0.857-1.538,5.068,1.163,4.22c17.895-5.621,36.168-6.853,54.567-9.759c1.375-0.219,1.886-1.522,1.701-2.717
	c1.012-2.653,0.194-7.471,0.118-9.024c-0.418-8.439-1.078-16.867-1.57-25.304c-0.486-8.338-0.25-15.616,0.976-23.938
	C282.814,387.887,283.501,380.344,284.741,372.885z"></path>
<path fill="#1A1A1A" d="M378.46,443.678c-8.356-2.787-17.731-2.248-26.37-1.489c-7.858,0.688-15.65,1.979-23.126,4.469
	c-1.354-2.474-1.129-6.498-1.391-9.238c-0.479-5-0.823-10.004-1.193-15.014c-0.886-12.011-1.884-24.008-2.396-36.041
	c-0.48-11.316-0.104-23.529-2.891-34.554c-0.057-0.223-0.148-0.412-0.258-0.584c5.949-3.438,10.879-6.627,13.252-13.643
	c2.561-7.564,0.136-16.139-1.935-23.498c-1.198-4.261-7.869-2.438-6.629,1.828c3.349,11.518,6.554,27.227-7.685,32.779
	c-1.587,0.617-1.549,2.281-0.744,3.154c-0.036,0.159-0.06,0.327-0.055,0.512c0.365,12.563-0.588,25.146-0.073,37.742
	c0.521,12.7,1.595,25.374,2.416,38.059c0.433,6.666-0.264,16.272,3.324,22.17c0.227,0.373,0.492,0.658,0.771,0.904
	c0.334,1.129,1.425,2.024,3.04,1.735c7.989-1.428,16.118-2.539,24.188-3.397c8.384-0.894,17.696-1.613,25.823,1.098
	C380.98,452.154,382.872,445.15,378.46,443.678z"></path>
<path fill="#1A1A1A" d="M249.177,315.725c0.152-2.162,0.323-4.373-0.557-6.266c-0.496-1.066-1.892-1.203-2.822-0.738
	c-0.843,0.42-1.411,1.004-1.806,1.688c-0.168,0.146-0.322,0.318-0.434,0.551c-0.753,1.557-0.833,3.25-0.657,4.986
	c-0.339,3.861-0.381,7.803-0.454,11.671c-0.092,4.935,0.015,9.927-0.366,14.846c-0.361,4.655-3.012,10.2-0.362,14.485
	c0.652,1.055,2.045,1.211,2.945,0.379c3.039-2.812,2.62-7.084,2.552-10.979c-0.041-2.312,0.193-4.617,0.483-6.921
	c0.362-0.321,0.613-0.797,0.64-1.428c0.207-4.897,0.618-9.784,0.753-14.687C249.153,321.133,249.473,318.292,249.177,315.725z"></path>
<path fill="#1A1A1A" d="M359.791,323.088c-0.049-0.293-0.106-0.582-0.156-0.875c-0.724-4.82-1.299-9.641-1.106-14.463
	c0.023-0.624-0.144-1.132-0.426-1.531c-0.005-0.406-0.015-0.812-0.013-1.219c0.014-3.551-5.616-3.541-5.5,0
	c0.018,0.518,0.06,1.029,0.085,1.545c-1.854,3.469,0.243,11.441,0.66,13.975c0.696,4.238,1.391,8.52,2.171,12.781
	c0.046,1.69,0.118,3.336,0.688,5.016c0.073,0.218,0.217,0.394,0.386,0.533c0.406,1.965,0.838,3.92,1.309,5.857
	c0.704,2.898,5.521,2.332,5.268-0.713C362.571,336.994,360.944,330.01,359.791,323.088z"></path>
<path fill="#1A1A1A" d="M243.489,358.852c-2.633-2.449-6.355-3.043-9.638-4.309c-3.844-1.482-7.56-3.309-11.363-4.893
	c-2.546-1.062-4.379,3.313-1.878,4.455c3.756,1.713,7.432,3.592,11.204,5.27c3.422,1.523,7.204,3.43,10.958,2.193
	C243.884,361.201,244.427,359.725,243.489,358.852z"></path>
<path fill="#1A1A1A" d="M382.84,343.25c-3.029-0.244-5.729,2.029-8.318,3.408c-3.778,2.01-7.768,3.645-11.847,4.932
	c-3.06,0.965-1.786,5.709,1.33,4.822c3.709-1.059,7.269-2.453,10.798-3.996c3.294-1.441,8.017-2.629,9.979-5.779
	C385.749,345.086,384.459,343.381,382.84,343.25z"></path>
<path fill="#1A1A1A" d="M311.695,317.955c-2.683,5.502-4.89,11.189-7.045,16.914c-1.743,4.629-3.795,9.105-5.741,13.631
	c-7.254-8.389-11.136-20.4-14.399-30.598c-0.882-2.754-5.24-1.568-4.339,1.195c4.096,12.575,9.404,25.092,17.242,35.819
	c1.273,1.744,3.601,1.856,4.854,0c6.81-10.082,9.408-22.981,14.718-33.871C318.708,317.512,313.427,314.404,311.695,317.955z"></path>

<path fill="rgba(26,26,26,0.5)"  d="M380.666,439c-1.588-12.568-3.653-25.121-6.02-37.568
	c-2.431-12.787-5.257-26.231-11.288-37.865c-0.544-1.049-1.229-1.791-1.989-2.274c-0.492-3.226-0.991-6.449-1.487-9.674
	c-1.99-12.95-1.543-26.207-4.479-39.013c-0.689-3.006-3.735-4.106-6.457-3.666c-6.27,1.017-17.9,1.61-19.73,9.604
	c-0.938,4.094-0.316,8.704-0.432,12.87c-0.068,2.524,0.461,5.144,0.518,7.685c0.041,1.81-0.063,3.613-0.167,5.42
	c-2.774,2.174-5.791,3.86-8.859,5.592c-2.412,1.359-3.21,4.598-1.825,6.961c0.146,0.248,0.313,0.457,0.482,0.666
	c0.628,1.281,1.828,2.246,3.598,2.334c-0.748,0.992-1.163,2.254-0.929,3.602c0.265,1.51,0.488,2.992,0.616,4.475
	c-0.024,0.556-0.05,1.109-0.072,1.664c-0.323,0.621-0.521,1.345-0.503,2.191c0.263,11.611,1.669,22.857,3.132,34.375
	c0.744,5.875,1.3,11.752,1.334,17.676c0.031,5.4-0.828,10.57-1.17,15.869c-0.904,2.75,0.154,6.353,3.475,7.267
	c0.155,0.043,0.311,0.086,0.465,0.129c1.774,0.487,3.523,0.03,4.867-1.041c12.15-4.097,24.747-2.498,37.284-4.164
	c0.186,0.217,0.353,0.448,0.548,0.655C374.448,446.055,381.249,443.619,380.666,439z"></path>
<path fill="rgba(26,26,26,0.5)"  d="M282.775,356.775c0.743-4.58-1.814-7.965-6.436-8.449
	c-4.867-0.51-5.414-1.637-6.27-6.393c-0.788-4.388-0.643-8.996-0.778-13.435c-0.04-1.291-0.452-2.415-1.103-3.347
	c1.08-0.866,1.802-2.112,1.65-3.653c-0.091-0.931-0.209-1.856-0.359-2.778c-0.334-2.052-2.679-3.574-4.641-3.533
	c-1.6,0.033-4.018-1.701-5.633-2.197c-2.306-0.707-4.852-0.338-6.863,0.896c-2.12-0.507-4.457,0.424-5.085,2.891
	c-0.007,0.031-0.015,0.062-0.023,0.093c-0.352,1.383-0.023,2.685,0.779,3.713c-0.271,1.158-0.471,2.368-0.72,3.608
	c-4.813,8.037-3.797,18.752-2.371,27.716c0.097,0.61,0.266,1.155,0.481,1.651c-0.474,3-0.982,5.992-1.45,8.972
	c-0.906,5.774-1.658,11.577-2.042,17.413c-4.051,4.812-6.446,10.343-8.295,16.65c-1.051,3.584-1.776,7.156-2.367,10.84
	c-0.725,4.517-2.341,9.128-0.884,13.628c0.142,0.438,0.325,0.846,0.525,1.237c-0.512,2.597-0.999,5.199-1.509,7.799
	c-1.662,8.472-4.405,16.431-3.761,24.994c-0.396,0.938-0.735,1.886-0.502,1.525c-1.874,2.881,1.191,6.188,4.212,5.479
	c5.596-1.311,11.009-3.258,16.455-5.084c0.465,0.201,0.979,0.354,1.554,0.425c4.296,0.534,8.472,0.35,12.777-0.048
	c4.132-0.381,8.98-0.7,12.499-3.141c0.28-0.195,0.527-0.404,0.758-0.619c1.761,0.74,3.829,0.588,5.223-0.873
	c2.586-2.711,1.643-5.194,0.646-8.481c-0.287-0.945-0.581-1.89-0.876-2.832c0.038-0.088,0.086-0.16,0.121-0.248
	c2.65-6.621,1.521-15.185,0.419-22.051c-1.142-7.117-2.929-14.14-4.529-21.164c0.298-1.474,0.603-2.941,0.905-4.408
	C277.81,381.318,280.771,369.129,282.775,356.775z"></path>
</svg>