<!DOCTYPE svg PUBLIC "-//W3C//DTD SVG 1.1//EN" "http://www.w3.org/Graphics/SVG/1.1/DTD/svg11.dtd"><svg version="1.1" id="Layer_1" xmlns="http://www.w3.org/2000/svg" xmlns:xlink="http://www.w3.org/1999/xlink" x="0px" y="0px" width="600px" height="600px" viewBox="0 0 600 600" enable-background="new 0 0 600 600" xml:space="preserve">
<path fill="#E6E6E6" d="M423.801,420.873c-3.123-7.451-7.406-14.242-11.883-20.92c-0.45-5.402-4.109-10.451-6.722-15.02
	c-3.103-5.428-6.061-10.932-9.16-16.355c-2.008-3.512-4.122-7.002-6.369-10.406c-0.726-1.404-1.466-2.801-2.231-4.188
	c-0.639-1.156-1.3-2.305-1.977-3.447c-1.476-7.727-4.284-15.164-7.242-22.449c-3.982-9.816-7.964-19.648-12.066-29.413
	c-0.281-0.67-0.655-1.23-1.091-1.694c8.987-5.386,17.46-11.864,24.782-19.078c1.072-1.056,2.045-2.162,2.967-3.292
	c0.111-0.267,0.226-0.531,0.325-0.807c1.227-3.325,2.337-6.708,3.101-10.173c1.571-7.154,2.25-14.434,2.172-21.758
	c-0.084-7.896-0.628-15.782-1.226-23.665c-1.823-4.474-4.151-8.715-7.062-12.489c-0.062-0.276-0.123-0.554-0.186-0.827
	c-1.564-7.039-4.754-13.344-9.145-19.003c-0.056-0.071-0.117-0.137-0.172-0.208c-2.382-8.318-10.63-14.582-16.632-20.457
	c-7.003-6.855-13.012-12.084-22.597-14.933c-4.52-1.344-9.216-2.105-13.947-2.625c-6.475-2.355-13.062-4.392-19.86-5.283
	c-6.486-2.721-13.351-4.15-20.609-2.809c-5.467,1.01-9.317,4.636-13.401,7.917c-0.292,0.096-0.584,0.192-0.875,0.289
	c-17.29,3.257-32.859,9.624-46.644,21.301c-6.962,5.897-12.92,13.156-17.393,21.1c-3.657,6.496-5.297,12.704-4.642,19.477
	c-1.574,4.415-2.755,9.008-3.465,13.748c-0.814,5.435-1.266,10.739-0.802,16.22c0.108,1.279,0.242,2.556,0.386,3.832
	c-1.83,1.036-3.233,2.718-3.632,5.045c-0.43,2.508-0.475,5.374,0.213,7.876c0.152,0.553,0.367,1.036,0.607,1.492
	c1.43,9.652,4.692,18.406,11.236,26.507c7.347,9.096,18.076,14.842,28.69,19.21c0.029,0.012,0.059,0.021,0.088,0.034
	c-1.368,0.86-2.382,2.319-2.494,4.378c-1.26,23.15-11.254,45.09-21.069,65.748c-3.721,7.83-7.92,15.43-11.858,23.164
	c-4.726,5.562-9.113,12.045-11.521,18.898c-0.37,1.057-0.744,2.119-1.105,3.189c-1.89,2.854-3.418,5.809-4.408,8.906
	c-4.625,10.516-7.223,23.104,0.622,31.096c5.346,5.445,14.127,4.84,20.079,0.922c6.616-4.354,10.705-11.771,14.03-18.732
	c3.462-7.25,6.529-14.717,9.364-22.326c-0.266,4.227-0.333,8.461-0.304,12.701c-0.825,0.812-1.383,1.956-1.44,3.434
	c-0.021,0.555-0.054,1.106-0.089,1.66c-1.322,1.071-2.226,2.727-2.209,4.34c0.041,3.852,0.214,7.693,1.275,11.414
	c0.036,0.125,0.092,0.229,0.134,0.346c-1.11,8.152-1.98,16.33-2.131,24.566c-0.069,3.785-0.267,10.729,1.221,16.338
	c-0.004,2.68,0.061,5.361,0.214,8.039c-2.464,23.736,0.102,50.547,17.639,66.23c4.001,2.695,11.005,0.191,11.8-4.799
	c1.661-10.43,1.964-20.826,1.845-31.367c-0.104-9.206-0.607-18.639,0.803-27.771c1.703-11.031,9.644-18.137,17.381-25.342
	c4.017-1.4,8.021-2.859,12.045-4.232c8.378-1.752,16.831-2.855,25.435-2.727c8.824,0.133,17.578,1.938,25.438,5.922
	c2.105,3.946,4.421,7.826,7.822,11.338c4.146,4.283,8.866,7.029,12.71,10.969c2.49,6.656,3.105,13.746,3.396,20.898
	c0.011,0.025,0.021,0.051,0.031,0.076c2.307,6.102,2.979,12.654,3.536,19.111c0.618,7.158,0.756,14.504,2.789,21.449
	c0.697,2.391,1.55,4.764,2.753,6.949c4.089,2.664,10.11,0.869,11.726-4.354c5.771-18.686,7.737-37.979,7.438-57.504
	c-0.301-19.527-4.116-38.236-7.354-57.389c-2.857-16.92-4.251-34.367-7.313-51.297c1.521,3.188,3.157,6.314,4.947,9.377
	c2.388,4.08,4.561,9.1,7.975,12.58l0.041,0.062c0.067,0.867,0.29,1.764,0.712,2.676c0.535,1.156,1.127,2.27,1.745,3.361
	c1.65,3.66,4.318,7.914,7.593,11.631c0.331,0.527,0.67,1.156,0.698,1.443c0.433,4.371,4.512,6.305,7.824,5.709
	c4.146,2.297,8.594,3.025,12.854,0.865c1.464-0.549,2.82-1.479,3.841-2.801C428.681,436.451,426.613,427.584,423.801,420.873z
	 M360.48,346.246c-0.004-0.553,0.016-1.105,0.002-1.658c0.062,0.049,0.134,0.082,0.196,0.127c0.034,0.525,0.095,1.059,0.163,1.596
	C360.725,346.285,360.601,346.27,360.48,346.246z M367.413,367.807c-0.74-1.881-1.55-3.738-2.396-5.586
	c0.257,0.266,0.506,0.533,0.747,0.807c0.543,1.488,1.104,2.973,1.688,4.441C367.436,367.582,367.428,367.695,367.413,367.807z"></path>

<path fill="#4D4D4D" d="M426.322,210.317c-1.777-0.546-3.607-0.834-5.462-0.992c-0.25-0.241-0.508-0.471-0.781-0.665
	c-2.279-1.609-3.961-2.79-5.84-4.834c-1.214-1.32-2.529-2.557-3.867-3.775c-0.782-3.301-3.555-5.759-5.347-8.646
	c-2.396-3.861-3.911-8.265-5.411-12.529c-1.605-4.565-3.153-9.151-4.786-13.706c2.501,1.991,5.292,3.241,9.479,2.506
	c4.697-0.824,4.896-7.474,1.262-9.646c-4.624-2.763-7.194-7.548-11.675-10.785c-2.473-1.787-5.19-3.147-7.966-4.413
	c2.343-1.054,4.609-2.481,6.798-4.447c4.783-4.297-1.264-10.561-6.305-8.143c-0.022-0.039-0.046-0.078-0.068-0.117
	c-0.229,0.173-0.47,0.321-0.706,0.476c-4.427-1.457-10.191-0.05-15.01,1.084c-2.782-1.421-6.053-2.113-8.945-3.149
	c-5.099-1.826-9.715-4.566-13.894-7.995c-8.093-6.638-17.043-11.421-26.747-15.239c-10.896-4.287-22.433-6.879-34.156-7.104
	c-12.564-0.241-23.972,4.518-35.632,8.56c-0.056,0.02-0.1,0.048-0.154,0.068c1.518-2.331,2.622-4.906,3.676-7.547
	c0.516-1.073,0.954-2.175,1.304-3.281c0.983-3.113-3.748-4.327-4.829-1.331c-1.238,3.455-3.811,5.706-5.982,8.359
	c-1.19,1.12-2.449,2.151-3.702,3.143c-3.679-0.959-7.47,1.323-10.771,2.795c-4.193,1.869-7.688,4.845-10.83,8.155
	c-7.003,3.43-14.05,6.905-20.058,11.929c-4.752,3.974-10.028,9.062-10.948,15.325c-4.07,5.116-7.295,10.952-8.473,17.428
	c-0.826,4.541-0.494,8.753,0.709,12.741c-2.835-0.959-5.249,0.983-5.778,3.344c-4.235,3.625,2.532,9.212,8.371,12.435
	c-0.171,0.414-0.357,0.827-0.521,1.242c-0.577,1.458-1.009,3.083-1.243,4.758c-0.607,1.095-1.126,2.237-1.598,3.276
	c-0.532,1.173-1.104,2.368-1.288,3.647c-0.061,0.425-1.128,0.171-1.15,0.588c-0.805,0.341-1.002,0.78-2,0.833
	c-3.68,0.196-3.379,6.32,0.344,6.208c3.174-0.096,5.999-1.28,8.331-3.139c0.202,0.26,0.409,0.513,0.624,0.754
	c-2.317,9.693-4.549,19.232-8.942,28.399c-0.833,1.737-0.895,3.383-0.455,4.79c-1.704,2.716-3.519,5.373-5.328,8.032
	c-0.259,0.133-0.519,0.265-0.789,0.385c-4.413,1.959-0.594,8.42,3.785,6.476c0.349-0.155,0.69-0.324,1.028-0.497
	c0.377,0.231,0.817,0.403,1.343,0.476c2.224,0.309,4.309,0.406,6.408,0.351c0.034,0.107,0.069,0.211,0.107,0.317
	c-0.205,1.916-0.562,3.808-1.009,5.684c-0.197,0.584-0.369,1.169-0.52,1.755c-6.291,0.96-9.762,18.267-4.911,22.46
	c0.075,0.064,0.152,0.119,0.229,0.18c0.09,2.285,0.466,4.603,1.26,6.97c2.077,6.194,6.924,10.976,11.799,15.083
	c3.854,3.246,9.327,6.687,11.174,11.603c1.191,3.882,4.838,4.909,7.795,3.94c3.104,4.154,7.318,7.059,14.071,7.342
	c2.037,0.084,4.477-1.217,5.382-3.088c3.365-6.953,5.714-14.01,5.714-21.812c0-3.038-2-5.207-4.72-6.199
	c-17.517-6.395-32.797-19.192-33.104-39.134c-0.019-1.221-0.361-2.309-0.921-3.233c0.724-1.134,1.156-2.485,1.3-3.937
	c0.632-6.368,0.612-12.855,0.992-19.275c0.431,0.088,0.914,0.066,1.45-0.132c1.718-0.633,3.38-1.348,5.013-2.11
	c1.136,0.48,2.482,0.559,3.87-0.03c6.765-2.872,14.681-2.899,21.875-3.452c8.367-0.642,16.796-0.607,25.18-0.906
	c16.884-0.602,33.747-2.583,49.67-8.506c13.999-5.207,24.789-13.804,34.59-24.868c0.792-0.894,1.664-1.892,2.571-2.96
	c-0.886,3.391-1.849,7.919-1,10.847c-2.187,4.104-4.406,8.188-6.765,12.198c-1.931,3.283,2.609,6.845,5.278,4.073
	c6.503-6.756,12.134-14.618,16.589-22.852c0.595-1.099,1.275-2.348,1.974-3.697c1.561,3.155,3.688,5.93,6.361,8.5
	c5.099,4.899,20.382,18.652,27.543,10.744c1.059-1.168,1.664-2.985,1.416-4.615c0.869,0.957,1.767,1.827,2.679,2.576
	c0.216,0.957,0.347,1.928,0.481,2.774c0.707,4.415,1.363,8.879,1.899,13.327c0.854,7.071,0.347,15.545,2.251,22.785
	c-0.345,1.738-0.567,3.494-0.739,5.262c-0.944,0.51-1.701,1.444-2.019,2.908c-1.488,6.902-3.749,13.565-7.598,19.514
	c-3.96,6.121-8.99,11.511-13.158,17.49c-2.225-1.454-5.548-1.012-7.034,1.526c-0.717,1.222-0.842,2.747-0.384,4.079l-0.029-0.072
	c0.348,0.845,0.613,1.724,0.941,2.578c0.299,0.778,0.602,1.565,0.991,2.305c0.361,0.681,0.945,1.38,1.63,1.914
	c0.078,2.373,0.604,4.74,1.614,6.987c2.509,5.572,10.277,11.393,16.213,11.861c3.713,0.293,6.187-4.422,4.264-7.43
	c-0.444-0.695-0.997-1.312-1.604-1.884c0.034-0.104,0.073-0.203,0.103-0.312c1.057-3.951-0.906-7.533-0.688-11.58
	c0.21-3.92,1.276-7.772,1.529-11.706c5.225-6.108,9.306-12.633,11.3-19.882c0.899-0.253,1.753-0.695,2.439-1.309
	c0.037,0.011,0.075,0.028,0.112,0.038c0.339,0.416,0.74,0.78,1.178,1.101c-0.115,0.304-0.229,0.608-0.348,0.912
	c-0.92,2.39,1.403,4.899,3.731,4.899c2.551,0,4.315-2.438,3.74-4.859c1.673-0.663,3.104-2.018,3.805-4.203
	c5.682-17.711,2.751-38.758-8.586-53.571c-0.37-0.897-0.768-1.806-1.217-2.722c1.071,0.263,2.146,0.509,3.22,0.768
	c0.458,0.149,0.927,0.268,1.402,0.363c0.445,0.116,0.892,0.224,1.334,0.352c1.141,0.332,2.121,0.351,3.055,0.252
	c2.201,0.27,4.438,0.463,6.565,0.271C428.357,214.862,429.062,211.159,426.322,210.317z M197.412,229.378
	c0.019-0.298,0.038-0.596,0.056-0.895c0.173,0.168,0.353,0.331,0.56,0.467C197.823,229.093,197.616,229.235,197.412,229.378z
	 M202.153,224.348c-0.676-1.099-2.237-1.73-3.315-0.516c-0.324,0.365-0.773,0.66-1.189,0.976c0.045-1.27,0.063-2.539,0.065-3.808
	c1.582,1.292,3.561,2.227,5.744,2.886C203.025,224.047,202.59,224.2,202.153,224.348z"></path>

<path fill="#1A1A1A" d="M286.286,471.381c-2.606-1.455-5.865,0.146-8.506,0.977c-0.499,0.156-0.994,0.328-1.489,0.502
	c-3.551-0.23-6.896,0.334-9.979,1.514c-0.974-1.105-2.465-1.756-4.051-1.281c-6.581,1.965-13.235,3.758-19.976,5.092
	c-0.628-0.168-1.303-0.182-1.995,0.018c-0.812,0.23-1.663,0.484-2.495,0.795c-2.306,0.381-4.622,0.699-6.949,0.947
	c-0.676-0.305-1.265-0.369-1.92-0.654c-1.743-0.762-4.154-0.293-4.621,1.879c-0.455,2.113-0.728,4.568-0.438,6.791
	c-0.792,1.018-1.237,2.365-1.107,4.045c0.735,9.52,3.006,18.601,5.814,27.693c0.666,2.152,1.279,4.453,1.913,6.797
	c0.109,2.502,0.19,5.004,0.195,7.51c0.005,2.365,0.979,4.058,2.385,5.113c-0.089,0.736-0.034,1.535,0.194,2.381
	c0.017,0.371,0.057,0.75,0.138,1.143c0.301,1.464,0.629,2.918,0.951,4.375c0.296,1.555,0.589,3.105,1.003,4.641
	c0.147,0.547,0.347,1.03,0.58,1.471c-0.066,0.781,0.039,1.633,0.367,2.543c0.338,0.939,0.724,1.818,1.133,2.676
	c0.25,0.846,0.626,1.545,1.096,2.113c0.709,1.258,1.481,2.488,2.323,3.754c2.843,4.275,10.373,4.203,11.61-1.518
	c1.632-7.547,1.183-15.023,0.314-22.514c2.017-0.256,3.875-1.805,3.875-4.178h0.028c0.202-6.381-1.162-12.932-1.254-19.358
	c-0.09-6.173,0.286-12.343,1.927-18.312c2.521-9.17,9.325-14.438,16.683-19.244c1.99-0.814,4.025-1.51,6.088-2.141
	c2.531-0.771,5.149-0.808,6.832-2.998C287.574,473.146,287.096,471.834,286.286,471.381z"></path>
<path fill="#1A1A1A" d="M389.338,523.592c0.132-3.531-0.217-6.961-0.852-10.334c0.312-3.537-0.732-7.725-1.461-10.975
	c3.739-3.197,2.726-10.15,2.252-14.502c-0.644-5.896-2.18-11.795-4.094-17.395c-1.71-5.002-7.568-5.195-10.407-2.407
	c-4.7-1.519-9.983-1.896-14.54-2.06c-6.325-0.229-15.104-0.238-20.549,3.557c-0.396,0.275-0.721,0.582-0.984,0.908
	c-3.03-0.525-6.15-0.877-9.37-1.15c-0.652-0.07-4.485-0.525-5.164-0.568c-2.172-0.142-3.959,2.389-1.833,2.834
	c9.489,1.996,21.907,9.826,28.53,16.681c3.29,3.406,5.976,7.139,8.28,11.27c2.437,4.367,2.297,9.012,4.688,13.385
	c0.229,0.42,0.53,3.334,0.834,3.666c0.106,0.816,0.707,2.521,0.833,3.334c0.326,3.973,0.643,5.376,1.167,9.333
	c-0.447,3.498,0.529,6.36,0.436,9.909c-0.34,1.574-0.727,3.133-0.984,4.762c-0.168,1.051,0.064,2.053,0.535,2.92
	c-0.011,0.082-0.015,0.162-0.022,0.242c-0.206,1.762-0.956,3.093,0.201,3.833c-0.036,0.748,0.652,0.587,0.666,1.333
	c-2.459-0.167-0.335,1.624-0.333,1.667c-0.44,3.144,0.201,5.569-0.218,8.681c-0.526,3.906,2.355,8.32,6.876,6.877
	c9.115-2.911,13.024-11.93,14.746-20.663C390.038,541.281,391.04,531.57,389.338,523.592z"></path>

<path fill="#808080" d="M381.558,455.496c-0.349-0.16-0.697-0.305-1.053-0.451c3.846-17.123-2.827-36.088-7.454-52.328
	c-4.338-15.227-7.406-30.855-11.158-46.252c7.241-1.461,13.553-5.098,20.062-8.99c2.229-1.336,3.543-4.793,1.858-7.088
	c-7.933-10.804-8.521-24.35-12.701-36.701c-0.931-2.742-4.555-4.979-7.271-2.957c-12.346,9.179-29.803,6.726-41.932,16.405
	c-0.153,0.021-0.303,0.054-0.451,0.093l0.084-0.107c-0.595,0.109-1.075,0.463-1.454,0.908c-0.146,0.154-0.273,0.33-0.384,0.525
	c8.13-4.219-1.155-1.049-1.204-1.053c-1.072-0.101-1.085,0.93-2.161,0.893c-1.966-0.065-3.604,1.69-3.604,3.605
	c0,1.619,1.042,2.867,2.448,3.367c-3.214,5.75-5.106,12.488-7.563,18.52c-1.736-0.143-3.506-0.379-5.242-0.445
	c-0.247-0.22-0.495-0.438-0.749-0.664c-2.303-2.064-4.142-4.559-5.803-7.147c-3.166-4.938-5.221-10.782-5.733-16.627
	c-0.545-6.214-5.256-4.167-10.09-2.334c-0.867-0.159-0.688-0.255-1.333-0.333c-1.734-0.207-1.642-1.527-3.167-0.5
	c-0.081,0.055-1.259-0.062-1.333,0c-0.04-0.053-2.955,0.549-3,0.5c-2.742-3.001-6.747-0.523-10.501-1.32
	c-1.042-0.221-2.098-0.457-3.163-0.689c-0.08-0.078-0.153-0.172-0.235-0.247c-2.247-2.125-5.785-2.565-8.402-1.146
	c-0.301-0.021-0.602-0.046-0.901-0.056c-0.625-0.021-1.161,0.213-1.569,0.584c-0.023-0.006-0.046-0.013-0.069-0.021
	c-0.025-0.047-0.046-0.094-0.072-0.143c-0.964-1.742-2.806-1.975-4.249-1.297c-0.456-0.188-0.915-0.375-1.342-0.602
	c-0.325-0.273-0.691-0.488-1.085-0.64c-0.082-0.055-0.172-0.102-0.252-0.157c-2.123-1.498-4.173-2.222-4.826,0.062
	c-1.213,4.242-2.811,10.922-2.852,15.334c-0.003,0.354,0.055,0.675,0.139,0.979c-0.839,1.979-1.752,3.926-2.6,5.844
	c-2.055,4.652-3.809,9.424-4.653,14.412c-0.851,0.276-1.506,1.047-1.804,1.934c-3.006,1.359-3.576,6.664,0.511,7.816
	c6.062,1.717,12.174,3.145,18.186,4.969c-1.455,6.979-2.665,14.611-2.077,21.664c-1.752,6.949-3.085,14.047-4.019,21.199
	c-1.268,0.856-2.215,2.26-2.388,4.184c-0.257,2.865-0.526,5.736-0.791,8.605c-1.457,3.112-2.11,7.062-2.693,9.709
	c-1.178,5.346-1.663,10.729-1.862,16.186c-0.053,1.465-1.381,2.562-0.349,3.001c-0.152,1.407,0.039,1.352,0,2.75
	c-0.256,0.379-0.893,1.716-1,2.25c-0.82,4.054-0.843,8.905-1.25,13c-0.809,3.582,0.105,6.812-0.058,10.499
	c-0.162,3.656,5.045,6.078,7.511,3.111c0.997-1.199,2.092-2.23,3.253-3.142c0.759,0.433,1.646,0.646,2.635,0.548
	c13.806-1.396,27.636-2.261,41.488-3.037c13.902-0.777,27.714-2.25,41.588-3.345c9.675-0.762,19.271-2.446,28.924-3.428
	c0.424-0.043,0.858-0.09,1.299-0.139c1.339,2.279,5.27,2.492,7.563,2.783c4.783,0.604,10.511,0.612,14.805-1.812
	c0.154-0.088,0.285-0.205,0.402-0.334c0.238,0.098,0.479,0.187,0.713,0.293C382.534,469.947,389.012,458.932,381.558,455.496z"></path>

<g>
	<path fill="#1A1A1A" d="M423.163,406.209c-4.354-8.998-9.647-17.508-14.821-26.045c-6.675-11.016-12.323-22.676-18.068-34.195
		c-7.579-15.195-14.788-30.41-18.365-47.083c5.307-3.607,10.229-7.754,14.488-12.512c8.616-9.622,12.323-21.681,13.7-34.318
		c1.584-14.538-0.715-29.608-4.881-43.54c-3.786-12.662-9.725-26.516-19.356-35.847c-2.726-2.64-7.691,0.871-5.398,4.166
		c13.619,19.575,21.781,41.418,22.042,65.493c0.116,10.798-1.616,22.225-7.124,31.662c-5.175,8.865-13.824,15.376-22.499,20.53
		c-18.053,10.727-40.441,17.032-61.447,17.256c-20.624,0.221-41.908-2.006-61.425-8.931c-18.381-6.521-35.912-19.696-38.407-40.287
		c-1.278-10.546,0.13-21.12,1.06-31.621c0.625-7.068,2.922-15.557-0.481-22.065c-0.591-1.13-2.3-0.809-2.627,0.343
		c-2.232,7.844-3.524,16.325-4.705,24.51c-1.56,10.814-2.579,21.583-0.999,32.452c2.96,20.365,20.157,34.565,38.075,42.176
		c-6.567,22.816-13.621,46.576-25.089,67.484c-8.674,15.812-18.322,31.035-25.067,47.836c-5.168,12.873-9.756,29.578,2.661,39.662
		c8.357,6.789,17.976,5.875,25.903-1.01c5.7-4.947,9.731-11.91,13.024-18.959c-2.392,15.482-3.315,31.02-2.899,46.678
		c0.427,16.064,1.99,32.576,6.394,48.08c0.088,0.309,0.186,0.621,0.278,0.934c1.946-0.383,3.894-0.744,5.847-1.092
		c-0.515-2.232-0.962-4.475-1.241-6.73c-0.137-0.668-0.257-1.355-0.367-2.047c-0.128-0.67-0.249-1.346-0.354-2.025
		c-3.084-13.184-3.937-26.875-4.151-40.367c-0.245-15.398,1.384-30.393,3.051-45.684c0.769-7.051,1.672-14.066,2.654-21.068
		c2.686-8.141,4.942-16.432,7.002-24.729c3.243-13.061,5.641-26.098,7.072-39.477c0.92-8.596,2.421-17.584,1.795-26.248
		c-0.233-3.229-4.739-3.211-5,0c-0.851,10.479-2.698,20.814-4.953,31.072c-3.44,15.654-6.532,31.389-10.891,46.826
		c-3.961,14.027-8.635,28.33-16.361,40.789c-4.136,6.672-11.081,15.242-19.383,11.244c-9.81-4.725-9.703-14.648-7.208-23.992
		c3.624-13.572,10.888-26.197,17.817-38.305c6.196-10.826,12.52-21.279,17.458-32.762c7.374-17.148,14.464-35.773,15.913-54.537
		c18.371,7.039,38.378,9.604,57.929,10.332c20.947,0.779,41.149-3.383,60.372-11.703c4.333-1.875,8.605-4.021,12.712-6.454
		c4.708,26.616,17.62,52.239,30.732,75.567c8.06,14.34,18.437,27.264,24.331,42.795c2.127,5.604,4.82,14.037,0.649,19.414
		c-2.971,3.828-9.704,5.881-13.994,3.797c-4.979-2.42-8.774-7.521-11.845-11.947c-4.644-6.691-8.348-14.037-11.753-21.416
		c-6.929-15.02-12.276-30.824-16.742-46.734c-1.86-6.627-3.509-13.32-4.851-20.072c-0.531-2.67-0.986-5.354-1.355-8.051
		c-0.29-2.113-1.438-4.203-1.895-6.328c-0.356-1.662-3.039-1.691-3.375,0c-2.537,12.783,2.379,26.979,5.718,39.299
		c1.858,6.855,3.914,13.68,6.184,20.432c2.729,26.465,8.467,52.533,12.82,78.762c4.628,27.883,9.206,56.408,2.769,84.443
		c-1.034,4.504-5.738,21.914-12.935,12.596c-2.579-3.34-2.64-8.588-2.798-12.59c-0.199-5.041,0.126-10.102,0.363-15.133
		c0.976-20.656-8.709-43.875-24.867-56.836c-20.366-16.336-51.502-15.779-72.273-0.607c-11.505,8.402-17.736,19.145-19.38,33.361
		c-0.845,7.305-0.447,14.984-0.459,22.598c2.242-0.23,4.486-0.436,6.729-0.592c-0.076-2.055-0.188-4.109-0.323-6.158
		c-0.882-13.418-0.973-27.004,8.108-37.893c7.24-8.68,18.27-12.104,28.976-14.236c10.63-2.117,21.176-0.918,31.281,2.738
		c20.622,7.461,34.548,33.715,35.415,54.77c0.384,9.297-1.01,18.672,1.259,27.828c1.666,6.721,8.573,13.586,15.977,10.496
		c8.469-3.535,9.771-16.455,11.369-24.191c3.69-17.863,2.419-36.975,1.12-55.023c-1.938-26.941-8.469-53.164-13.624-79.623
		c0.935,2.117,1.896,4.223,2.887,6.312c5.307,11.189,12.634,26.344,24.966,31.203c5.557,2.189,11.771,0.566,16.828-2.223
		c5.909-3.26,8.457-9.617,8.388-16.096C431.141,423.492,427.124,414.395,423.163,406.209z"></path>
	<path fill="#1A1A1A" d="M259.09,542.25c-0.115-2.881-0.161-5.869-0.5-8.75c-1.932,0.396-4.771,1.654-6.706,1.951
		c0.531,4.338,0.581,8.049,0.831,11.924c0.034,0.531,0.054,1.225,0.056,2.006c0.435,2.518,0.191,5.445,0.009,7.703
		c-0.161,1.986-0.639,4.543-2.324,5.883c-0.469,0.479-1.115,0.82-1.802,0.982c-2.66,1.51-6.459-1.125-8.111-2.979
		c-3.825-4.291-4.924-11.176-6.068-16.531c-0.54-2.527-1.193-5.057-1.756-7.598c-1.612-0.342-4.28,0.416-5.899,0.92
		c1.993,8.107,3.265,16.42,7.205,23.895c3.387,6.426,12.128,11.682,18.86,6.672C260.585,562.598,259.422,550.533,259.09,542.25z"></path>
</g>

<path fill="#1A1A1A" d="M368.34,231.438c-3.034,0-5.561,2.53-5.562,5.562c0,0.102-0.003,0.203-0.004,0.305
	c-0.068,0.314-0.129,0.639-0.158,1.169c-0.08,1.42,0.576,3.067,1.641,4.021c-0.006-0.008-0.013-0.016-0.019-0.024
	c0.288,0.369,0.693,0.664,1.108,0.864c0.861,0.5,1.791,0.751,2.788,0.754c1.519,0,2.801-0.616,3.905-1.618
	c1.539-1.395,1.862-3.516,1.863-5.472C373.904,233.968,371.37,231.438,368.34,231.438z"></path>
<path fill="#1A1A1A" d="M250.533,240.125c-0.079-1.503-0.512-2.865-1.472-4.001c-0.371-0.564-0.827-1.081-1.258-1.586
	c-1.038-1.222-2.91-1.849-4.463-1.849c-1.667,0-3.285,0.67-4.463,1.849c-2.366,2.365-2.521,6.584,0,8.927
	c0.012,0.011,0.021,0.024,0.032,0.035c1.14,1.926,3.167,3.081,5.411,3.125c1.121-0.003,2.166-0.286,3.135-0.848
	c0.933-0.552,1.676-1.295,2.228-2.229c0.739-1.722,0.669-1.26,0.855-3.151C250.546,240.306,250.538,240.215,250.533,240.125z"></path>

<path fill="#1A1A1A" d="M432.457,209.157c-13.58-3.988-23.055-18.249-29.222-31.484c-0.124-0.199-0.246-0.399-0.369-0.598
	c-0.439-1.024-0.925-2.065-1.436-3.102c-0.562-1.523-1.079-3.062-1.533-4.619c0.112-0.036,0.233-0.048,0.37,0.003
	c1.572,0.591,3.306,0.722,5.05,0.536c3.341-0.824,6.509-2.728,8.955-5.292c1.883-1.974,1.106-5.421-1.622-6.146
	c-9.088-2.412-14.083-11.054-21.726-15.95c1.751-1.024,3.373-2.216,4.911-4.039c2.567-3.042,3.687-6.575,4.098-10.466
	c0.284-2.695-2.945-4.932-5.394-4.108c-8.27,2.781-16.563,3.736-25.012,1.262c-8.266-2.421-15.556-6.977-22.784-11.539
	c-5.746-3.627-11.384-7.688-17.704-10.265c-5.435-2.216-11.105-3.721-16.851-4.887c-12.572-2.552-25.852-3.433-38.561-1.438
	c-5.417,0.85-11.161,2.488-16.104,5.286c1.091-4.806,1.182-9.915,0.764-14.977c-0.151-1.831-2.62-2.786-3.63-0.983
	c-11.395,20.325-36.788,22.947-53.8,36.546c-13.684,10.938-25.803,32.792-20.979,50.886c-1.57-0.765-3.225-1.372-4.983-1.796
	c-1.217-0.293-2.774,0.61-2.643,2.013c0.771,8.212,2.367,15.436,10.633,17.283c-2.208,6.025-7.871,12.137-13.733,14.157
	c-1.281,0.441-2.072,2.259-0.866,3.281c3.977,3.371,9.393,4.589,13.999,2.772c-1.489,8.09-3.867,15.809-7.746,23.112
	c-3.978,7.489-9.322,14.295-14.416,21.042c-1.248,1.652,0.021,4.54,1.996,4.906c4.44,0.822,8.859,0.988,13.25,0.581
	c-5.954,10.757-6.562,25.028-1.86,35.991c3.016,7.034,7.995,11.427,13.842,16.079c5.71,4.543,12.29,10,8.184,17.822
	c-1.546,2.945,1.524,5.939,4.446,4.446c3.778-1.93,6.336-4.78,8.057-8.165c3.107,5.564,9.223,8.611,17.034,7.344
	c3.255-0.528,2.154-5.168-0.731-5.402c-7.516-0.608-13.775-3.229-13.458-11.916c0.109-2.984-4.112-3.305-4.994-0.676
	c-0.764,2.277-1.658,4.611-2.853,6.73c-1.794-8.264-11.036-14.139-17.776-20.306c-11.984-10.966-10.84-33.947,0.926-44.571
	c2.688-2.427-0.128-6.875-3.456-5.937c-4.539,1.279-9.096,2.059-13.726,1.981c9.139-13.493,15.478-27.111,17.211-43.889
	c0.057-0.547-0.146-0.981-0.478-1.291c0.232-0.202,0.465-0.4,0.688-0.625c0.827-0.833-0.29-2.397-1.288-1.669
	c-3.322,2.423-7.766,2.469-11.361,0.699c6.723-3.391,11.123-9.9,12.806-17.347c0.257-1.138-0.504-1.925-1.576-2.069
	c-6.228-0.835-7.661-6.135-8.283-11.402c2.242,0.9,4.27,2.164,6.122,3.864c1.771,1.625,4.485-0.422,3.319-2.561
	c-5.547-10.166-1.136-23.489,3.655-33.103c4.931-9.895,12.164-17.441,21.68-22.991c8.412-4.906,17.647-8.219,26.181-12.901
	c6.684-3.667,12.268-8.634,16.571-14.714c-0.373,4.528-1.377,8.995-3.463,12.958c-1.472,1.572-2.75,3.336-3.745,5.336
	c-1.111,2.233,1.714,4.714,3.572,2.756c1.684-1.776,3.031-3.699,4.117-5.725c6.281-6.164,16.519-7.759,25.023-8.453
	c12.753-1.04,25.859,0.575,38.182,3.893c4.759,1.281,9.484,2.913,13.774,5.364c7.111,4.064,13.263,10.067,19.923,14.834
	c11.824,8.464,24.324,12.167,37.568,9.087c-1.595,2.43-3.889,4.472-6.345,5.522c-2.609,1.117-1.349,4.582,0.701,5.368
	c5.428,2.082,9.097,6.867,12.991,10.957c2.303,2.417,4.783,4.576,7.553,6.26c-2.15,0.682-4.454,0.492-6.663-1.072
	c-2.04-1.444-5.569,0.456-5.268,3.023c0.396,3.361,1.63,6.102,3.092,9.131c0.143,0.295,0.312,0.539,0.496,0.757
	c5.623,14.725,14.858,31.763,29.543,38.363c-5.066,2.023-11.883,1.105-16.13-1.483c-3.36-1.847-6.291,3.164-3,5.132
	c8.223,4.611,11.505,17.179,13.598,25.635c1.342,5.418,1.738,10.189,0.355,15.683c-1.289,5.12-3.847,9.971-6.883,14.417
	c-0.415-2.475-1.009-4.912-2.043-7.305c-1.118-2.588-5.574-1.903-6.055,0.792c-2.994,16.813-28.873,40.126-13.956,55.652
	c-4.704,1.211-9.813,1.396-12.637-2.732c-1.861-2.722-6.338-0.098-4.426,2.587c5.341,7.495,17.136,6.681,25.13,4.702
	c3.084-0.764,3.17-4.705,0.825-6.309c-9.688-6.624-5.599-16.757-1.129-25.403c2.622-5.072,5.932-10.107,8.561-15.376
	c0.062,0.59,0.128,1.177,0.205,1.759c0.322,2.446,3.562,4.86,5.613,2.325c9.438-11.668,16.131-24.938,12.969-40.133
	c-1.475-7.083-4.038-16.127-8.593-23.062c6.015,0.243,12.154-1.503,16.05-5.713C435.268,212.454,434.639,209.798,432.457,209.157z"></path>
<path fill="#1A1A1A" d="M389.673,211.605c-7.037-0.591-14.395-1.963-19.769-6.849c-5.163-4.694-7.39-11.759-8.772-18.376
	c-0.88-4.208-6.723-2.845-7.046,0.954c-0.575,6.755-4.343,13.628-7.991,19.17c-2.535,3.851-6.456,9.397-11.103,12.198
	c3.997-11.863,8.037-23.861,13.309-35.166c0.033-0.071,0.048-0.139,0.075-0.209c0.075-0.174,0.158-0.343,0.231-0.518
	c-0.019-0.005-0.038-0.01-0.057-0.016c0.721-3.161-3.502-5.429-5.506-2.33c-14.227,22-39.116,35.482-63.76,42.429
	c-12.603,3.553-25.554,4.482-38.582,4.985c-14.284,0.551-28.954,0.402-41.788,7.494c-1.593,0.881-0.427,2.995,1.156,2.742
	c28.383-4.529,57.334-0.359,85.252-8.52c17.458-5.103,36.581-13.875,50.002-27.371c-2.624,6.778-5.34,13.525-7.811,20.332
	c-0.614,1.693,1.006,3.88,2.824,3.708c8.512-0.806,14.752-8.236,19.553-14.621c2.828-3.761,5.668-7.983,7.819-12.464
	c5.715,12.298,16.655,20.444,31.961,18.552C393.549,217.251,393.676,211.941,389.673,211.605z"></path>

<path fill="#1A1A1A" d="M327.642,275.423c-9.846,15.755-33.91,16.953-47.843,6.119c-2.041-1.587-4.82,0.949-2.917,2.917
	c15.838,16.375,44.78,14.921,56.156-5.881C334.977,275.033,329.775,272.008,327.642,275.423z"></path>

<path fill="#1A1A1A" d="M243.34,358.5c-7.79-0.117-15.169-1.898-22.352-4.85c-2.914-1.197-4.148,3.512-1.296,4.701
	c7.57,3.156,15.437,4.982,23.648,5.148C246.565,363.566,246.562,358.549,243.34,358.5z"></path>
<path fill="#1A1A1A" d="M383.425,345.436c-6.791,4.109-12.86,8.402-20.633,10.576c-2.562,0.717-1.483,4.631,1.096,3.979
	c7.941-2.014,16.099-5.623,21.733-11.709C386.995,346.799,385.234,344.34,383.425,345.436z"></path>
<path fill="#1A1A1A" d="M317.905,316.086c-0.417-0.836-1.706-1.188-2.48-0.65c-3.535,2.453-4.127,7.822-5.391,11.68
	c-1.448,4.422-3.214,8.756-5.524,12.793c-6.681-5.652-8.546-15.903-13.281-23.012c-1.55-2.327-5.249-0.229-3.777,2.208
	c5.562,9.21,6.731,21.187,16.456,27.349c1.391,0.881,3.019,0.207,3.885-1.02c3.306-4.678,5.618-9.892,7.71-15.2
	C317.107,326.162,320.037,320.354,317.905,316.086z"></path>
<path fill="#1A1A1A" d="M383.34,465.125c-27.6-0.998-55.169-0.076-82.732,1.443c-13.216,0.729-26.644,1.488-39.752,3.338
	c-12.703,1.793-27.857,3.424-38.799,10.609c-0.472,0.309-0.285,1.021,0.284,1.047c12.646,0.574,25.742-3.863,38.178-5.848
	c14.006-2.236,27.766-4.193,41.947-4.93c26.947-1.398,53.944,1.117,80.875,2.09C388.34,473.057,388.322,465.305,383.34,465.125z"></path>
</svg>