<!DOCTYPE svg PUBLIC "-//W3C//DTD SVG 1.1//EN" "http://www.w3.org/Graphics/SVG/1.1/DTD/svg11.dtd"><svg version="1.1" id="Layer_1" xmlns="http://www.w3.org/2000/svg" xmlns:xlink="http://www.w3.org/1999/xlink" x="0px" y="0px" width="600px" height="600px" viewBox="0 0 600 600" enable-background="new 0 0 600 600" xml:space="preserve">
<path fill="#ffffff" d="M423.801,420.873c-3.123-7.451-7.406-14.242-11.883-20.92c-0.45-5.402-4.109-10.451-6.722-15.02
	c-3.103-5.428-6.061-10.932-9.16-16.355c-2.008-3.512-4.122-7.002-6.369-10.406c-0.726-1.404-1.466-2.801-2.231-4.188
	c-0.639-1.156-1.3-2.305-1.977-3.447c-1.476-7.727-4.284-15.164-7.242-22.449c-3.982-9.816-7.964-19.648-12.066-29.413
	c-0.281-0.67-0.655-1.23-1.091-1.694c8.987-5.386,17.46-11.864,24.782-19.078c1.072-1.056,2.045-2.162,2.967-3.292
	c0.111-0.267,0.226-0.531,0.325-0.807c1.227-3.325,2.337-6.708,3.101-10.173c1.571-7.154,2.25-14.434,2.172-21.758
	c-0.084-7.896-0.628-15.782-1.226-23.665c-1.823-4.474-4.151-8.715-7.062-12.489c-0.062-0.276-0.123-0.554-0.186-0.827
	c-1.564-7.039-4.754-13.344-9.145-19.003c-0.056-0.071-0.117-0.137-0.172-0.208c-2.382-8.318-10.63-14.582-16.632-20.457
	c-7.003-6.855-13.012-12.084-22.597-14.933c-4.52-1.344-9.216-2.105-13.947-2.625c-6.475-2.355-13.062-4.392-19.86-5.283
	c-6.486-2.721-13.351-4.15-20.609-2.809c-5.467,1.01-9.317,4.636-13.401,7.917c-0.292,0.096-0.584,0.192-0.875,0.289
	c-17.29,3.257-32.859,9.624-46.644,21.301c-6.962,5.897-12.92,13.156-17.393,21.1c-3.657,6.496-5.297,12.704-4.642,19.477
	c-1.574,4.415-2.755,9.008-3.465,13.748c-0.814,5.435-1.266,10.739-0.802,16.22c0.108,1.279,0.242,2.556,0.386,3.832
	c-1.83,1.036-3.233,2.718-3.632,5.045c-0.43,2.508-0.475,5.374,0.213,7.876c0.152,0.553,0.367,1.036,0.607,1.492
	c1.43,9.652,4.692,18.406,11.236,26.507c7.347,9.096,18.076,14.842,28.69,19.21c0.029,0.012,0.059,0.021,0.088,0.034
	c-1.368,0.86-2.382,2.319-2.494,4.378c-1.26,23.15-11.254,45.09-21.069,65.748c-3.721,7.83-7.92,15.43-11.858,23.164
	c-4.726,5.562-9.113,12.045-11.521,18.898c-0.37,1.057-0.744,2.119-1.105,3.189c-1.89,2.854-3.418,5.809-4.408,8.906
	c-4.625,10.516-7.223,23.104,0.622,31.096c5.346,5.445,14.127,4.84,20.079,0.922c6.616-4.354,10.705-11.771,14.03-18.732
	c3.462-7.25,6.529-14.717,9.364-22.326c-0.266,4.227-0.333,8.461-0.304,12.701c-0.825,0.812-1.383,1.956-1.44,3.434
	c-0.021,0.555-0.054,1.106-0.089,1.66c-1.322,1.071-2.226,2.727-2.209,4.34c0.041,3.852,0.214,7.693,1.275,11.414
	c0.036,0.125,0.092,0.229,0.134,0.346c-1.11,8.152-1.98,16.33-2.131,24.566c-0.069,3.785-0.267,10.729,1.221,16.338
	c-0.004,2.68,0.061,5.361,0.214,8.039c-2.464,23.736,0.102,50.547,17.639,66.23c4.001,2.695,11.005,0.191,11.8-4.799
	c1.661-10.43,1.964-20.826,1.845-31.367c-0.104-9.206-0.607-18.639,0.803-27.771c1.703-11.031,9.644-18.137,17.381-25.342
	c4.017-1.4,8.021-2.859,12.045-4.232c8.378-1.752,16.831-2.855,25.435-2.727c8.824,0.133,17.578,1.938,25.438,5.922
	c2.105,3.946,4.421,7.826,7.822,11.338c4.146,4.283,8.866,7.029,12.71,10.969c2.49,6.656,3.105,13.746,3.396,20.898
	c0.011,0.025,0.021,0.051,0.031,0.076c2.307,6.102,2.979,12.654,3.536,19.111c0.618,7.158,0.756,14.504,2.789,21.449
	c0.697,2.391,1.55,4.764,2.753,6.949c4.089,2.664,10.11,0.869,11.726-4.354c5.771-18.686,7.737-37.979,7.438-57.504
	c-0.301-19.527-4.116-38.236-7.354-57.389c-2.857-16.92-4.251-34.367-7.313-51.297c1.521,3.188,3.157,6.314,4.947,9.377
	c2.388,4.08,4.561,9.1,7.975,12.58l0.041,0.062c0.067,0.867,0.29,1.764,0.712,2.676c0.535,1.156,1.127,2.27,1.745,3.361
	c1.65,3.66,4.318,7.914,7.593,11.631c0.331,0.527,0.67,1.156,0.698,1.443c0.433,4.371,4.512,6.305,7.824,5.709
	c4.146,2.297,8.594,3.025,12.854,0.865c1.464-0.549,2.82-1.479,3.841-2.801C428.681,436.451,426.613,427.584,423.801,420.873z
	 M360.48,346.246c-0.004-0.553,0.016-1.105,0.002-1.658c0.062,0.049,0.134,0.082,0.196,0.127c0.034,0.525,0.095,1.059,0.163,1.596
	C360.725,346.285,360.601,346.27,360.48,346.246z M367.413,367.807c-0.74-1.881-1.55-3.738-2.396-5.586
	c0.257,0.266,0.506,0.533,0.747,0.807c0.543,1.488,1.104,2.973,1.688,4.441C367.436,367.582,367.428,367.695,367.413,367.807z"></path>

<path fill="#0cb3d1" d="M420.107,290.805c-0.123-0.101-0.243-0.204-0.362-0.305c-0.197-0.563-0.509-1.104-0.984-1.585
	c-1.596-1.611-3.033-3.291-4.087-5.152c-0.012-0.071-0.029-0.139-0.04-0.21c-0.068-0.474-0.282-0.791-0.562-0.985
	c-0.678-1.492-1.104-3.103-1.158-4.892c-0.035-1.13-0.523-2.057-1.241-2.739c-0.171-1.477-0.338-3.604-1.338-6.604
	c0.916-4.898,0.086-6.459,0.084-11.221c-0.001-1.45-0.077-2.874-0.196-4.284c1.019-0.351,1.964-0.908,2.716-1.563
	c5.277-4.598,3.109-13.791,2.291-19.816c-0.988-7.288-2.431-14.483-4.383-21.574c-1.115-4.053-2.494-8.011-4.163-11.806
	c0.224-0.836,0.24-1.718-0.044-2.511c-3.071-8.572-6.854-16.872-10.854-25.053c3.34,1.357,7.324,1.053,10.165,2.811
	c0.546,0.482,1.089,0.965,1.645,1.435c1.624,2.01,4.422-0.839,2.828-2.828c-2.604-3.252-4.958-6.456-8.048-9.285
	c-0.439-0.402-0.913-0.616-1.387-0.708c-0.452-0.752-0.908-1.421-1.385-1.924c-3.213-3.405-6.005-7.21-8.768-10.981
	c-6.01-8.207-8.064-17.887-16.086-24.275c-8.462-6.738-21.745-9.631-32.589-10.664c-2.175-0.207-4.311-0.132-6.404,0.194
	c4.067-3.188,8.191-7.276,7.789-13.276h-0.053c-0.133-3-4.528-6.208-7.695-3.043c-2.1,2.098-2.959,5.096-4.979,7.293
	c-1.902,2.068-6.741,2.667-9.319,3.746c-6.837,2.859-11.204,3.255-18.5,4c-7.556,0.771-15.882,2.21-23.455,1.728
	c-6.401-0.407-12.76-1.153-19.182-0.864c-20.854,0.939-39.44,8.609-53.529,24.274c-10.274,11.423-23.032,30.688-18.823,47.015
	c-2.848,7.327-3.104,16.23-3.523,23.82c-0.449,8.111-0.362,16.231-1.576,24.279c-0.627,4.159-1.465,8.399-2.606,12.541
	c-2.708,4.575-4.983,9.375-5.936,14.513c-1.338,2.261-2.832,4.434-4.472,6.474c-2.361,2.939-5.265,6.018-6.34,9.676
	c-0.144,0.491,0.259,1.052,0.784,1.028c5.887-0.268,10.861-2.431,14.826-7.318c0.314-0.009,0.361,0.389,0.667,0.333
	c-0.252,3.239,0.122,3.376,0.035,6.62c-0.116,4.35-1.648,11.516,0.63,15.381c0.464,6.688,3.566,14.063,6.5,20
	c2.551,5.162,4.921,6.893,7.755,11.906c2.551,4.512,6.063,8.949,7.729,13.814c1.264,3.689,6.415,2.641,6.483-0.797
	c0.44,0.105,0.892,0.188,1.351,0.25c0.146,1.895,0.798,3.562,2.289,4.688c-0.129,1.887-0.291,3.771-0.45,5.643
	c-0.103,1.215,0.341,2.098,1.047,2.652c-0.031,2.004-0.008,4.023,0.606,5.861c0.412,1.23,2.272,2.088,3.238,0.855
	c4.728-6.035,7.638-12.613,9.652-19.994c1.771-6.484,6.99-14.068,5.187-21.121c0.668-1.003,1.348-2,2.045-2.988
	c2.682-3.807-0.847-10.244-5.587-9.736c-4.498,0.479-8.841-2.282-12.248-4.986c-3.946-3.132-7.685-6.316-10.229-10.714
	c-0.82-1.682-2.015-2.555-3.303-2.826c-1.209-2.95-2.025-6.07-2.75-9.166c-2.273-9.706-2.63-19.449-6.242-28.719
	c0.855-4.095,0.42-3.802,1.096-7.289c0.366-1.89,0.168-2.3,0.667-4.167c1.821,1.44,8.223-3.192,10.833-4
	c5.432-1.68,9.589-2.798,15-4.5c3.472-0.585,7.186-1.463,10.667-2c3.559-0.401,5.81-1.716,9.319-2.42
	c3.003-0.514,6.003-1.047,8.994-1.631c3.986-0.778,8.311-1.445,12.161-3.001c0.729,0.087,1.514,0.045,2.343-0.159
	c18.146-4.481,35.059-12.854,50.065-23.935c3.048-2.25,5.994-4.626,8.858-7.096c-3.394,5.029-6.712,10.061-5.826,16.576
	c0.014,0.087-0.519,1.167-0.5,1.25c-0.295,0.693-0.717,1.8-1,2.5c-1.022,2.534-0.753,4.024-0.426,6.755
	c0.304,2.546,3.347,4.496,5.44,2.254c2.081-2.227,5.028-3.722,7.4-5.652c2.895-2.355,5.616-4.916,8.267-7.539
	c5.309-5.253,9.554-12.172,13.374-18.536c1.07-1.782,2.075-3.599,3.036-5.44c1.19,2.552,2.771,4.921,4.594,6.915
	c3.997,4.371,9.355,7.707,14.689,10.176c4.887,2.262,12.088,5.37,17.431,3.117c2.271,5.914,3.917,12.154,5.417,17.744
	c1.572,5.861,2.794,11.88,3.583,17.898c0.394,2.987,0.521,6.1,1.132,8.994c-0.49,4.417-1.732,8.829-2.909,13.012
	c-1.276,4.534-3.255,9.178-4.276,13.902c-0.446,1.057-0.909,2.103-1.396,3.13c-2.106,4.457-4.146,8.553-7.239,12.428
	c-1.249,1.564-2.649,3.189-4.271,4.378c-0.935,0.685-1.951,1.256-2.905,1.913c-1.306,0.896-2.095,2.504-3.525,3.073
	c-2.785,1.105-4.048,3.276-3.55,6.25c1.466,8.742,4.377,16.18,8.686,23.914c1.991,3.576,3.938,7.177,5.875,10.778
	c2.05,3.81,5.454,10.341,6.163,14.618c0.72,4.344,7.171,2.807,7-1.5c-0.409-10.275,6.128-21.04,8.79-30.638
	c2.937-10.582,0.218-19.907-6.371-28.12c0.101-0.153,0.19-0.312,0.288-0.467c1.354,1.43,3.577,1.975,5.491,1.338
	c2.297,2.161,5.567,3.42,8.482,4.267c0.973,0.282,1.874,0.202,2.661-0.108C419.951,296.681,422.663,292.903,420.107,290.805z"></path>

<path fill="#1f3c4a" d="M287.539,470.449c-4.374-2.693-10.197,0.828-15.034,0.875c-5.924,0.057-12.027,1.521-17.88,2.598
	c-0.412,0.021-0.833,0.072-1.267,0.203c-5.154,1.225-10.521,3.777-15.271,4.029c-1.806,0.096-3.191,0.899-4.125,2.026
	c-1.596,0.004-3.148,0.011-4.622,0.066c-3.163,0.119-5.714,2.527-5.753,5.752c-0.148,12.307,4.203,24.109,4.259,36.357
	c-0.151,0.497-0.234,1.043-0.216,1.643c0.025,0.834,0.05,1.668,0.075,2.5c0.149,5.006,5.864,6.229,8.704,3.656
	c2.69-0.006,5.265-0.929,8.015-2.215c1.64-0.076,3.279-0.154,4.918-0.228c2.572-0.113,4.707-2.059,4.714-4.715
	c0.006-2.152-0.28-5.027-0.481-8.1c0.785-0.81,1.302-1.939,1.33-3.4c0.029-1.523-0.006-2.992-0.012-4.416
	c0.251-3.426,1.15-6.617,2.682-9.949c0.548-0.641,0.834-1.328,0.902-2.018c0.129-0.144,0.246-0.285,0.385-0.426
	c3.856-3.91,8.261-6.72,11.084-11.584c0.446-0.771,0.628-1.517,0.62-2.209c0.059-0.062,0.13-0.117,0.184-0.181
	c0.993-0.196,1.977-0.422,2.932-0.721c4.592-1.432,12.541-1.301,14.712-6.299C288.916,472.49,288.739,471.189,287.539,470.449z"></path>
<path fill="#1f3c4a" d="M390.257,517.369c-1.928-8.935-3.561-17.555-4.018-26.697c-0.182-3.625-0.306-7.266-1.61-10.496
	c-0.025-1.385-0.084-2.772-0.216-4.176c-0.181-1.93-1.135-3.277-2.99-3.928c-4.057-1.422-8.279-1.457-12.511-1.248
	c-2.054-0.32-4.062-0.57-5.857-0.892c-5.481-0.979-14.785-3.102-19.882,0.482c-0.101-0.061-0.192-0.125-0.295-0.184
	c-3.152-1.826-7.156-2.88-10.782-2.834c-1.312,0.016-7.803,1.117-8.971,1.728c-1.663,0.869-0.744,1.695-2.25,2.625
	c-0.851,0.524,3.229,1.833,4.198,1.593c1.123-0.276,2.604,0.834,3.699,1.133c1.559,0.429,3.087,0.878,4.624,1.39
	c3.315,1.102,6.442,3.896,8.962,6.213c5.066,4.66,10.095,12.041,12.521,18.438c2.698,7.117,4.131,16.824,10.851,21.478
	c5.15,3.565,10.596-0.262,15.516,2.305C386.136,526.852,391.409,522.709,390.257,517.369z"></path>

<path fill="#751175" d="M384.214,461.52c0.03-0.008,0.061-0.018,0.089-0.024c-0.524-1.418-1.158-2.775-1.82-4.107
	c-1.764-4.09-3.185-8.34-4.399-12.67c1.132-4.533,0.657-10.321,0.548-13.375c-0.319-8.928-1.636-17.86-3.119-26.66
	c-1.146-6.805-3.956-13.647-6.504-20.251c0.016-0.541-0.011-1.089-0.092-1.64c-0.554-3.787-2.327-7.194-3.626-10.767
	c-1.526-4.196-2.723-8.561-3.825-12.885c-1.332-5.229-1.89-10.604-2.609-15.938c1.789,0.479,3.771,0.368,5.361-0.425
	c3.812-1.901,7.996-2.887,11.794-4.854c2.777-1.438,4.256-5.959,2.254-8.594c-5.687-7.48-4.557-17.268-7.135-25.926
	c-0.96-3.227-4.147-4.95-7.385-4.193c-6.06,1.417-10.6,4.867-14.187,9.294c-3.128,0.373-4.858,2.974-5.263,5.994
	c-0.03,0.229-0.083,0.44-0.12,0.664c-1.473,0.541-2.762,1.762-3.438,3.792c-0.633,1.895-0.979,3.779-1.072,5.699
	c-3.238,3.927-7.617,7.076-11.569,10.601c-1.014,0.904-1.538,1.995-1.694,3.125c-6.062,0.847-12.225,5.073-17.617,7.308
	c-7.305,3.022-14.816,2.94-22.25,0.442c-11.883-3.993-19.105-14.625-26.003-24.667c0.021-0.716-0.034-1.425-0.233-2.21
	c-0.304-1.2-1.075-2.524-1.149-3.754c-0.082-1.347-1.681-1.722-2.437-0.659c-0.146,0.206-0.269,0.415-0.391,0.624
	c-0.05-0.067-0.099-0.137-0.148-0.204c-0.482-0.656-1.059-1.113-1.676-1.427c-2.231-3.479-8.395-3.206-12.156-3.103
	c-0.584,0.017-1.15,0.131-1.686,0.324c-0.289-0.203-0.575-0.408-0.858-0.613c-4.555-3.285-9.499,2.103-8.603,6.613
	c0.006,0.029,0.01,0.06,0.016,0.088c-1.017,0.789-1.845,1.821-2.286,3.088c-1.375,3.942-2.123,8.088-1.829,12.269
	c0.005,0.076,0.019,0.146,0.026,0.222c-2.887,0.664-4.659,3.627-3.079,6.5c2.066,3.758,6.741,5.062,10.649,5.973
	c2.266,0.527,4.822,0.91,7.228,0.717c-0.001,11.16-1.714,22.5-1.192,33.59c0.051,1.094,0.328,2.07,0.76,2.928
	c-4.13,8.861-6.095,19.146-7.123,28.795c-0.125,0.394-0.238,0.789-0.354,1.185c-0.325,0.406-0.583,0.895-0.748,1.471
	c-3.222,11.312-5.787,23.865-5.097,35.623c-0.448,2.49-1.648,5.842-2,8.334c-0.388,2.082-0.045,3.249-0.333,5.333
	c-0.456,0.494,0.414,0.536,0.496,1.333c-0.032,0.672,0.016,1.34,0.143,2c0.013,0.096,0.039,0.18,0.057,0.271
	c0.057,0.743,0.111,1.485,0.17,2.229c0.008,0.105,0.036,0.189,0.052,0.287c-1.676,1.969-2.402,4.295-1.566,7.084
	c0.607,2.027,3.56,3.34,5.224,1.711c1.597,1.687,4.13,2.438,6.867,0.938c17.557-7.187,38.763-7.993,56.891-9.187
	c7.692-0.508,11.898-2.901,19.589-3.427c1.839,0.358,3.667,0.563,5.301,0.699c6.853,0.565,13.8,0.705,20.627-0.158
	c5.235-0.662,10.4-1.623,15.664-2.06c5.993,2.896,12.329,3.656,19.011,3.101c0.483-0.039,0.936-0.129,1.356-0.254
	C379.636,470.428,385.386,466.555,384.214,461.52z"></path>

<g>
	<path fill="#1A1A1A" d="M423.163,406.209c-4.354-8.998-9.647-17.508-14.821-26.045c-6.675-11.016-12.323-22.676-18.068-34.195
		c-7.579-15.195-14.788-30.41-18.365-47.083c5.307-3.607,10.229-7.754,14.488-12.512c8.616-9.622,12.323-21.681,13.7-34.318
		c1.584-14.538-0.715-29.608-4.881-43.54c-3.786-12.662-9.725-26.516-19.356-35.847c-2.726-2.64-7.691,0.871-5.398,4.166
		c13.619,19.575,21.781,41.418,22.042,65.493c0.116,10.798-1.616,22.225-7.124,31.662c-5.175,8.865-13.824,15.376-22.499,20.53
		c-18.053,10.727-40.441,17.032-61.447,17.256c-20.624,0.221-41.908-2.006-61.425-8.931c-18.381-6.521-35.912-19.696-38.407-40.287
		c-1.278-10.546,0.13-21.12,1.06-31.621c0.625-7.068,2.922-15.557-0.481-22.065c-0.591-1.13-2.3-0.809-2.627,0.343
		c-2.232,7.844-3.524,16.325-4.705,24.51c-1.56,10.814-2.579,21.583-0.999,32.452c2.96,20.365,20.157,34.565,38.075,42.176
		c-6.567,22.816-13.621,46.576-25.089,67.484c-8.674,15.812-18.322,31.035-25.067,47.836c-5.168,12.873-9.756,29.578,2.661,39.662
		c8.357,6.789,17.976,5.875,25.903-1.01c5.7-4.947,9.731-11.91,13.024-18.959c-2.392,15.482-3.315,31.02-2.899,46.678
		c0.427,16.064,1.99,32.576,6.394,48.08c0.088,0.309,0.186,0.621,0.278,0.934c1.946-0.383,3.894-0.744,5.847-1.092
		c-0.515-2.232-0.962-4.475-1.241-6.73c-0.137-0.668-0.257-1.355-0.367-2.047c-0.128-0.67-0.249-1.346-0.354-2.025
		c-3.084-13.184-3.937-26.875-4.151-40.367c-0.245-15.398,1.384-30.393,3.051-45.684c0.769-7.051,1.672-14.066,2.654-21.068
		c2.686-8.141,4.942-16.432,7.002-24.729c3.243-13.061,5.641-26.098,7.072-39.477c0.92-8.596,2.421-17.584,1.795-26.248
		c-0.233-3.229-4.739-3.211-5,0c-0.851,10.479-2.698,20.814-4.953,31.072c-3.44,15.654-6.532,31.389-10.891,46.826
		c-3.961,14.027-8.635,28.33-16.361,40.789c-4.136,6.672-11.081,15.242-19.383,11.244c-9.81-4.725-9.703-14.648-7.208-23.992
		c3.624-13.572,10.888-26.197,17.817-38.305c6.196-10.826,12.52-21.279,17.458-32.762c7.374-17.148,14.464-35.773,15.913-54.537
		c18.371,7.039,38.378,9.604,57.929,10.332c20.947,0.779,41.149-3.383,60.372-11.703c4.333-1.875,8.605-4.021,12.712-6.454
		c4.708,26.616,17.62,52.239,30.732,75.567c8.06,14.34,18.437,27.264,24.331,42.795c2.127,5.604,4.82,14.037,0.649,19.414
		c-2.971,3.828-9.704,5.881-13.994,3.797c-4.979-2.42-8.774-7.521-11.845-11.947c-4.644-6.691-8.348-14.037-11.753-21.416
		c-6.929-15.02-12.276-30.824-16.742-46.734c-1.86-6.627-3.509-13.32-4.851-20.072c-0.531-2.67-0.986-5.354-1.355-8.051
		c-0.29-2.113-1.438-4.203-1.895-6.328c-0.356-1.662-3.039-1.691-3.375,0c-2.537,12.783,2.379,26.979,5.718,39.299
		c1.858,6.855,3.914,13.68,6.184,20.432c2.729,26.465,8.467,52.533,12.82,78.762c4.628,27.883,9.206,56.408,2.769,84.443
		c-1.034,4.504-5.738,21.914-12.935,12.596c-2.579-3.34-2.64-8.588-2.798-12.59c-0.199-5.041,0.126-10.102,0.363-15.133
		c0.976-20.656-8.709-43.875-24.867-56.836c-20.366-16.336-51.502-15.779-72.273-0.607c-11.505,8.402-17.736,19.145-19.38,33.361
		c-0.845,7.305-0.447,14.984-0.459,22.598c2.242-0.23,4.486-0.436,6.729-0.592c-0.076-2.055-0.188-4.109-0.323-6.158
		c-0.882-13.418-0.973-27.004,8.108-37.893c7.24-8.68,18.27-12.104,28.976-14.236c10.63-2.117,21.176-0.918,31.281,2.738
		c20.622,7.461,34.548,33.715,35.415,54.77c0.384,9.297-1.01,18.672,1.259,27.828c1.666,6.721,8.573,13.586,15.977,10.496
		c8.469-3.535,9.771-16.455,11.369-24.191c3.69-17.863,2.419-36.975,1.12-55.023c-1.938-26.941-8.469-53.164-13.624-79.623
		c0.935,2.117,1.896,4.223,2.887,6.312c5.307,11.189,12.634,26.344,24.966,31.203c5.557,2.189,11.771,0.566,16.828-2.223
		c5.909-3.26,8.457-9.617,8.388-16.096C431.141,423.492,427.124,414.395,423.163,406.209z"></path>
	<path fill="#1A1A1A" d="M259.09,542.25c-0.115-2.881-0.161-5.869-0.5-8.75c-1.932,0.396-4.771,1.654-6.706,1.951
		c0.531,4.338,0.581,8.049,0.831,11.924c0.034,0.531,0.054,1.225,0.056,2.006c0.435,2.518,0.191,5.445,0.009,7.703
		c-0.161,1.986-0.639,4.543-2.324,5.883c-0.469,0.479-1.115,0.82-1.802,0.982c-2.66,1.51-6.459-1.125-8.111-2.979
		c-3.825-4.291-4.924-11.176-6.068-16.531c-0.54-2.527-1.193-5.057-1.756-7.598c-1.612-0.342-4.28,0.416-5.899,0.92
		c1.993,8.107,3.265,16.42,7.205,23.895c3.387,6.426,12.128,11.682,18.86,6.672C260.585,562.598,259.422,550.533,259.09,542.25z"></path>
</g>

<path fill="#1A1A1A" d="M368.34,231.438c-3.034,0-5.561,2.53-5.562,5.562c0,0.102-0.003,0.203-0.004,0.305
	c-0.068,0.314-0.129,0.639-0.158,1.169c-0.08,1.42,0.576,3.067,1.641,4.021c-0.006-0.008-0.013-0.016-0.019-0.024
	c0.288,0.369,0.693,0.664,1.108,0.864c0.861,0.5,1.791,0.751,2.788,0.754c1.519,0,2.801-0.616,3.905-1.618
	c1.539-1.395,1.862-3.516,1.863-5.472C373.904,233.968,371.37,231.438,368.34,231.438z"></path>
<path fill="#1A1A1A" d="M250.533,240.125c-0.079-1.503-0.512-2.865-1.472-4.001c-0.371-0.564-0.827-1.081-1.258-1.586
	c-1.038-1.222-2.91-1.849-4.463-1.849c-1.667,0-3.285,0.67-4.463,1.849c-2.366,2.365-2.521,6.584,0,8.927
	c0.012,0.011,0.021,0.024,0.032,0.035c1.14,1.926,3.167,3.081,5.411,3.125c1.121-0.003,2.166-0.286,3.135-0.848
	c0.933-0.552,1.676-1.295,2.228-2.229c0.739-1.722,0.669-1.26,0.855-3.151C250.546,240.306,250.538,240.215,250.533,240.125z"></path>

<path fill="#1A1A1A" d="M385.658,198.682c-5.988-4.763-13.582-4.542-20.074-8.349c-6.658-3.904-10.237-12.93-10.315-20.333
	c-0.036-3.457-4.637-3.789-5.753-0.778c-3.535,9.535-7.993,18.879-13.659,27.327c-4.744,7.073-11.688,14.683-19.586,18.834
	c1.782-7.731,3.871-15.897,6.975-23.491c0.022-0.028,0.048-0.056,0.07-0.084c4.449-5.702,7.646-12.004,11.227-18.244
	c1.001-1.745-1.367-3.615-2.792-2.154c-2.785,2.859-5.165,6.125-7.251,9.642c-5.44,5.764-12.178,10.765-18.214,14.988
	c-9.881,6.913-20.517,12.344-31.83,16.499c-12.993,4.772-26.624,7.824-40.155,10.607c-7.696,1.583-15.343,3.103-22.895,5.292
	c-2.004,0.581-10.538,3.477-10.482,4.896c-0.045-1.147-1.774-1.83-2.33-0.631c-1.257,2.713,0.662,4.064,3.298,4.14
	c2.191,0.063,4.604-0.722,6.716-1.215c3.432-0.803,6.884-1.372,10.374-1.904c17.54-2.674,35.226-5.807,52.173-11.139
	c13.039-4.103,25.673-9.822,37.042-17.434c2.861-1.916,5.773-4.083,8.483-6.454c-2.303,6.773-4.129,13.674-5.898,20.024
	c-0.463,1.663,1.146,3.351,2.838,2.838c16.955-5.137,32.693-19.134,38.878-36.237c1.216,3.834,3.056,7.438,6.322,10.755
	c6.037,6.13,16.688,11.126,25.184,8.874C386.509,204.286,387.926,200.485,385.658,198.682z"></path>
<path fill="#1A1A1A" d="M429.487,292.161c-2.099-3.931-5.568-6.883-7.552-11.035c-2.096-4.387-2.427-9.665-2.535-14.435
	c-0.222-9.67,1.407-19.274,1.905-28.91c0.587-11.365-0.702-23.466-4.591-34.197c-3.445-9.505-8.89-17.747-14.876-25.743
	c5.306,2.109,11.148,2.746,16.503,0.583c1.797-0.726,2.783-3.538,0.601-4.593c-7.382-3.57-13.059-13.324-17.527-19.807
	c-6.054-8.783-12.12-17.628-18.942-25.838c-6.043-7.272-12.907-14.044-21.909-17.416c-4.164-1.56-8.499-1.774-12.829-0.941
	c-1.014,0.195-1.93,0.46-2.781,0.782c3.182-6.386,5.01-13.711,3.166-20.319c-0.772-2.77-4.508-3.907-6.551-1.729
	c-14.075,15.004-32.807,17.815-52.36,19.234c-19.237,1.396-39.065,1.019-57.213,8.458c-16.677,6.837-31.215,19.564-39.793,35.411
	c-4.106,7.586-6.734,15.927-8.451,24.351c-1.459,7.16-2.38,15.56-1.911,23.248c-0.188,0.407-0.311,0.872-0.333,1.403
	c-1.085,25.02-5.346,57.315-27.78,72.67c-2.705,1.851-2.442,6.073,0.921,7.049c6.167,1.789,14.03,1.586,20.611-0.941
	c-2.124,12.654,1.806,24.566,8.268,36.457c5.613,10.33,22.917,22.949,14.917,35.934c-2.026,3.289,3.017,6.148,5.128,2.998
	c2.486-3.713,4.678-7.363,6.156-11.283c1.943,4.732,3.859,9.51,3.613,14.449c-0.058,1.162,1.64,1.314,1.964,0.266
	c1.38-4.463,1.568-7.141,0.332-11.705c-1.274-4.709-3.272-9.086-4.048-13.938c-0.501-3.138-5.082-2.132-5.259,0.712
	c-0.123,1.969-0.506,3.834-1.067,5.629c-2.068-6.352-6.747-12.324-10.792-17.779c-10.542-14.215-17.252-31.461-9.586-48.64
	c1.599-3.584-2.82-7.907-5.839-4.505c-3.294,3.711-8.595,5.547-13.851,5.838c19.073-18.293,23.003-47.676,23.313-73.209
	c0.007-0.6-0.112-1.114-0.316-1.554c0.172-2.557,0.263-5.128,0.52-7.663c0.461-4.544,1.333-8.989,2.138-13.478
	c1.488-8.297,4.096-16.359,8.023-23.823c8.738-16.609,24.922-28.831,42.814-33.994c32.451-9.365,72.06,3.104,99.221-19.902
	c-0.98,5.331-4.022,10.615-6.976,14.615c-2.667,3.612,3.09,6.993,5.911,3.858c3.29-1.014,7.526-1.431,10.622-1.386
	c3.82,0.054,7.409,0.947,10.804,2.691c8.114,4.17,14.342,11.304,19.953,18.321c6.014,7.519,11.354,15.545,17.383,23.053
	c3.412,4.249,6.938,7.847,10.809,11.2c-0.732-0.2-1.434-0.397-2.064-0.558c-3.048-0.778-5.954-1.998-8.59-3.71
	c-3.09-2.008-6.244,1.827-4.747,4.747c0.391,0.761,0.754,1.444,1.151,2.096c0.04,0.151,0.095,0.306,0.172,0.464
	c5.195,10.634,10.034,21.708,12.975,33.207c2.938,11.494,3.614,22.972,2.504,34.775c-0.965,10.249-2.438,20.468-0.869,30.741
	c0.949,6.211,3.686,14.896,8.965,19.744c-5.466,0.879-12.235-3.083-15.739-6.274c-2.938-2.577-7.17,1.541-4.324,4.324
	c0.565,0.553,1.147,1.07,1.739,1.571c9.344,9.265,5.394,21.521,1.291,32.915c-4.14,11.496-10.195,23.443-8.556,36.02
	c0.601,4.605,7.862,4.779,7.375,0c-1.415-13.873,7.083-26.93,11.435-39.607c2.842-8.279,2.765-16.286-0.226-23.385
	c5.702,1.505,10.104-0.315,15.405-2.16C429.578,296.726,430.647,294.335,429.487,292.161z"></path>

<path fill="#1A1A1A" d="M251.542,524.607c-6.979,1.391-13.462,3.814-20.703,3.705c-3.517-0.053-3.394,5.07,0,5.375
	c7.195,0.646,15.603-0.551,22.297-3.295C256.665,528.947,255.413,523.836,251.542,524.607z"></path>
<path fill="#1A1A1A" d="M387.84,521.125c-6.831,0.463-13.666,0.693-20.5,0.125c-3.639-0.301-4.472,5.768-0.864,6.385
	c7.163,1.225,14.156,0.85,21.364,0.24C392.13,527.514,392.205,520.83,387.84,521.125z"></path>

<path fill="#1A1A1A" d="M327.642,275.423c-9.846,15.755-33.91,16.953-47.843,6.119c-2.041-1.587-4.82,0.949-2.917,2.917
	c15.838,16.375,44.78,14.921,56.156-5.881C334.977,275.033,329.775,272.008,327.642,275.423z"></path>

<path fill="#1A1A1A" d="M383.34,465.125c-27.6-0.998-55.169-0.076-82.732,1.443c-13.216,0.729-26.644,1.488-39.752,3.338
	c-12.703,1.793-27.857,3.424-38.799,10.609c-0.472,0.309-0.285,1.021,0.284,1.047c12.646,0.574,25.742-3.863,38.178-5.848
	c14.006-2.236,27.766-4.193,41.947-4.93c26.947-1.398,53.944,1.117,80.875,2.09C388.34,473.057,388.322,465.305,383.34,465.125z"></path>
<path fill="#1A1A1A" d="M247.391,344.303c-2.02-2.976-5.388-2.43-8.662-2.596c-4.071-0.207-8.396-0.74-12.423-1.395
	c-1.942-0.314-3.057,2.046-1.349,3.199c3.709,2.504,7.154,3.896,11.541,4.736c3.713,0.711,8.4,1.947,10.894-1.549
	C247.848,346.059,247.827,344.945,247.391,344.303z"></path>
<path fill="#1A1A1A" d="M376.775,333.451c-2.569,1.012-4.633,2.807-7.314,3.742c-3.085,1.076-6.382,1.604-9.621,1.932
	c-3.012,0.307-3.057,5.039,0,4.75c3.698-0.35,7.346-0.941,10.903-2.031c2.892-0.887,7.03-2.391,8.432-5.271
	C379.897,335.088,378.681,332.701,376.775,333.451z"></path>
<path fill="#1A1A1A" d="M341.249,310.286c-4.305,18.076-23.061,34.3-41.669,35.462c-17.568,1.096-32.018-18.902-38.027-33.041
	c-1.132-2.662-5.722-0.729-4.684,1.975c7.395,19.254,20.283,36.225,42.711,35.701c20.677-0.482,41.954-18.881,46.852-38.668
	C347.265,308.348,342.051,306.918,341.249,310.286z"></path>
</svg>