<!DOCTYPE svg PUBLIC "-//W3C//DTD SVG 1.1//EN" "http://www.w3.org/Graphics/SVG/1.1/DTD/svg11.dtd"><svg version="1.1" id="Layer_1" xmlns="http://www.w3.org/2000/svg" xmlns:xlink="http://www.w3.org/1999/xlink" x="0px" y="0px" width="600px" height="600px" viewBox="0 0 600 600" enable-background="new 0 0 600 600" xml:space="preserve">
<path fill="#e0b87b" d="M423.801,420.873c-3.123-7.451-7.406-14.242-11.883-20.92c-0.45-5.402-4.109-10.451-6.722-15.02
	c-3.103-5.428-6.061-10.932-9.16-16.355c-2.008-3.512-4.122-7.002-6.369-10.406c-0.726-1.404-1.466-2.801-2.231-4.188
	c-0.639-1.156-1.3-2.305-1.977-3.447c-1.476-7.727-4.284-15.164-7.242-22.449c-3.982-9.816-7.964-19.648-12.066-29.413
	c-0.281-0.67-0.655-1.23-1.091-1.694c8.987-5.386,17.46-11.864,24.782-19.078c1.072-1.056,2.045-2.162,2.967-3.292
	c0.111-0.267,0.226-0.531,0.325-0.807c1.227-3.325,2.337-6.708,3.101-10.173c1.571-7.154,2.25-14.434,2.172-21.758
	c-0.084-7.896-0.628-15.782-1.226-23.665c-1.823-4.474-4.151-8.715-7.062-12.489c-0.062-0.276-0.123-0.554-0.186-0.827
	c-1.564-7.039-4.754-13.344-9.145-19.003c-0.056-0.071-0.117-0.137-0.172-0.208c-2.382-8.318-10.63-14.582-16.632-20.457
	c-7.003-6.855-13.012-12.084-22.597-14.933c-4.52-1.344-9.216-2.105-13.947-2.625c-6.475-2.355-13.062-4.392-19.86-5.283
	c-6.486-2.721-13.351-4.15-20.609-2.809c-5.467,1.01-9.317,4.636-13.401,7.917c-0.292,0.096-0.584,0.192-0.875,0.289
	c-17.29,3.257-32.859,9.624-46.644,21.301c-6.962,5.897-12.92,13.156-17.393,21.1c-3.657,6.496-5.297,12.704-4.642,19.477
	c-1.574,4.415-2.755,9.008-3.465,13.748c-0.814,5.435-1.266,10.739-0.802,16.22c0.108,1.279,0.242,2.556,0.386,3.832
	c-1.83,1.036-3.233,2.718-3.632,5.045c-0.43,2.508-0.475,5.374,0.213,7.876c0.152,0.553,0.367,1.036,0.607,1.492
	c1.43,9.652,4.692,18.406,11.236,26.507c7.347,9.096,18.076,14.842,28.69,19.21c0.029,0.012,0.059,0.021,0.088,0.034
	c-1.368,0.86-2.382,2.319-2.494,4.378c-1.26,23.15-11.254,45.09-21.069,65.748c-3.721,7.83-7.92,15.43-11.858,23.164
	c-4.726,5.562-9.113,12.045-11.521,18.898c-0.37,1.057-0.744,2.119-1.105,3.189c-1.89,2.854-3.418,5.809-4.408,8.906
	c-4.625,10.516-7.223,23.104,0.622,31.096c5.346,5.445,14.127,4.84,20.079,0.922c6.616-4.354,10.705-11.771,14.03-18.732
	c3.462-7.25,6.529-14.717,9.364-22.326c-0.266,4.227-0.333,8.461-0.304,12.701c-0.825,0.812-1.383,1.956-1.44,3.434
	c-0.021,0.555-0.054,1.106-0.089,1.66c-1.322,1.071-2.226,2.727-2.209,4.34c0.041,3.852,0.214,7.693,1.275,11.414
	c0.036,0.125,0.092,0.229,0.134,0.346c-1.11,8.152-1.98,16.33-2.131,24.566c-0.069,3.785-0.267,10.729,1.221,16.338
	c-0.004,2.68,0.061,5.361,0.214,8.039c-2.464,23.736,0.102,50.547,17.639,66.23c4.001,2.695,11.005,0.191,11.8-4.799
	c1.661-10.43,1.964-20.826,1.845-31.367c-0.104-9.206-0.607-18.639,0.803-27.771c1.703-11.031,9.644-18.137,17.381-25.342
	c4.017-1.4,8.021-2.859,12.045-4.232c8.378-1.752,16.831-2.855,25.435-2.727c8.824,0.133,17.578,1.938,25.438,5.922
	c2.105,3.946,4.421,7.826,7.822,11.338c4.146,4.283,8.866,7.029,12.71,10.969c2.49,6.656,3.105,13.746,3.396,20.898
	c0.011,0.025,0.021,0.051,0.031,0.076c2.307,6.102,2.979,12.654,3.536,19.111c0.618,7.158,0.756,14.504,2.789,21.449
	c0.697,2.391,1.55,4.764,2.753,6.949c4.089,2.664,10.11,0.869,11.726-4.354c5.771-18.686,7.737-37.979,7.438-57.504
	c-0.301-19.527-4.116-38.236-7.354-57.389c-2.857-16.92-4.251-34.367-7.313-51.297c1.521,3.188,3.157,6.314,4.947,9.377
	c2.388,4.08,4.561,9.1,7.975,12.58l0.041,0.062c0.067,0.867,0.29,1.764,0.712,2.676c0.535,1.156,1.127,2.27,1.745,3.361
	c1.65,3.66,4.318,7.914,7.593,11.631c0.331,0.527,0.67,1.156,0.698,1.443c0.433,4.371,4.512,6.305,7.824,5.709
	c4.146,2.297,8.594,3.025,12.854,0.865c1.464-0.549,2.82-1.479,3.841-2.801C428.681,436.451,426.613,427.584,423.801,420.873z
	 M360.48,346.246c-0.004-0.553,0.016-1.105,0.002-1.658c0.062,0.049,0.134,0.082,0.196,0.127c0.034,0.525,0.095,1.059,0.163,1.596
	C360.725,346.285,360.601,346.27,360.48,346.246z M367.413,367.807c-0.74-1.881-1.55-3.738-2.396-5.586
	c0.257,0.266,0.506,0.533,0.747,0.807c0.543,1.488,1.104,2.973,1.688,4.441C367.436,367.582,367.428,367.695,367.413,367.807z"></path>

<path fill="#4a3310" d="M433.542,231.245c1.461-7.088-3.929-12.855-8.772-17.376c-1.882-1.755-3.916-3.43-6.089-4.844
	c1.68-0.538,3.301-1.25,4.812-2.07c0.117,0.012,0.227,0.037,0.349,0.039c0.777,0.012,1.497-0.189,2.175-0.521
	c2.091-0.841,4.58-2.554,5.358-4.682c0.136-0.121,0.271-0.238,0.408-0.349c1.533-1.265,1.341-3.051,0.356-4.316
	c1.183-2.768,1.821-5.767,1.806-8.704c0.797-1.772,0.844-3.854-0.332-5.872c-0.558-1.233-1.25-2.436-2.068-3.583
	c-0.487-0.954-1.163-1.828-1.83-2.649c-1.014-1.249-2.19-2.14-3.532-2.852c-2.68-2.055-5.754-3.618-8.915-4.454
	c7.688-12.083,7.516-30.648-0.06-41.732c-5.134-7.513-12.906-10.362-21.096-10.459c1.396-3.025,2.328-6.154,2.736-8.694
	c0.419-2.599,0.549-5.183,0.446-7.745c4.233-9.155-0.458-22.862-6.192-30.189c-8.208-10.488-20.429-18.026-34.074-17.701
	c-8.381,0.2-18.645,2.455-25.527,7.508c-3.116,1.613-9.405,6.444-12.25,8.25c-7.045,4.472-9.305,7.413-15.5,13
	c-4.902,4.423-7.769,10.474-10.647,16.365c-1.519-4.19-3.411-8.065-5.209-11.143c-7.052-12.072-18.277-19.899-32.368-20.484
	c-20.021-0.831-39.655,22.861-34.038,41.097c-3.856-2.381-8.115-4.095-12.577-4.977c-4.041-0.798-8.119-0.936-12.131-0.511
	c-0.816-0.646-1.916-1.05-2.816-0.98c-8.883,0.687-17.323,3.085-24.164,8.999c-1.207,1.043-2.19,2.165-3.006,3.346
	c-0.271,0.18-0.536,0.401-0.78,0.714c-3.83,4.647-7.081,10.433-8.018,16.491c-1.98,4.652-3.176,9.649-3.443,14.819
	c-0.365,7.065,1.72,14.001,4.898,20.232c1.836,3.599,4.483,7.584,7.809,10.492c-0.789,1.098-1.513,2.267-2.176,3.49
	c-5.619,3.556-11.426,6.001-15.584,11.05c-3.75,1-1.762,2.127-2,2.25c-5.225,2.706-7.809,7.749-6.791,14.038
	c0.206,1.271,0.66,2.473,1.3,3.566c-0.045,2.429,0.362,4.87,1.269,7.278c0.012,0.324,0.047,0.652,0.128,0.983
	c3.867,15.933,19.105,14.726,32.478,14.573c-0.694,1.22-1.401,2.432-2.111,3.64c-0.533,0.093-1.076,0.31-1.613,0.694
	c-0.553,0.396-1.089,0.826-1.608,1.282c-7.065,6.006-11.413,14.792-8.87,23.727c-0.022,0.235-0.038,0.473-0.028,0.723
	c0.007,0.169,0.021,0.34,0.034,0.51c-0.155,0.821-0.297,1.647-0.404,2.49c-0.462,3.614,3.342,6.267,6.697,6.02
	c4.143,3.377,9.601,4.639,15.044,2.532c1.887,0.6,3.994,0.922,6.316,0.893c3.393-0.042,6.384-3.469,5.25-6.892
	c-0.867-2.617-1.313-5.222-1.466-7.818c1.246-4.988,1.617-10.458,1.769-15.079c2.302-9.479,5.898-18.943,5.475-28.588
	c0.002,0.001,0.004,0.003,0.006,0.004c10.684,5.64,21.094,4.669,30.06-0.57c2.963-0.736,5.838-1.777,8.487-3.04
	c6.586-3.141,10.474-9.24,12.889-15.84c1.92-2.573,3.367-6.38,4.409-10.037c0.811-2.029,1.378-4.173,1.738-6.269
	c3.508,6.349,6.932,13.077,12.641,17.634c-1.085,1.874-0.831,4.403,1.519,5.852c6.96,4.29,17.814,1.935,22.447-4.9
	c1.482-0.721,2.881-1.532,4.142-2.41c7.111-4.953,12.702-11.935,17.325-19.253c-0.093,2.091-0.126,4.179,0.045,6.261
	c0.065,0.808,0.298,1.481,0.624,2.051c0.071,2.818,0.207,5.635,0.488,8.449c0.048,0.482,0.137,0.935,0.261,1.358
	c0.237,2.1,0.632,4.169,1.253,6.17c-0.761,0.708-1.229,1.712-1.123,2.972c0.436,5.194,3.522,8.845,8.045,11.237
	c3.323,1.757,10.174,3.975,13.765,1.414c12.668-0.688,22.221-10.862,28.845-22.367c0.266,0.149,0.562,0.225,0.868,0.234
	c0.035,1.601,0.565,3.236,1.646,4.576c3.774,4.685,9.914,5.724,15.593,6.032c1.437,0.078,2.659-0.468,3.598-1.346
	c0.176,2.061,0.498,4.059,0.753,5.754c0.997,6.65,2.396,13.269,4.099,19.773c0.425,1.625,1.218,2.792,2.205,3.579
	c-0.008,2.745,0.116,5.492,0.258,8.248c0.127,2.452,1.229,10.839-1.317,12.54c-5.216,3.484-3.769,10.102,1.612,12.334
	c2.784,1.156,5.805,1.363,8.794,1.5c2.207,0.101,5.138-1.356,6.051-3.471c1.955-4.531,3.053-9.204,1.873-13.817
	c6.214-0.475,12.711-2.016,16.27-7.498c2.464-3.795,2.278-8.191,0.744-12.161C433.388,231.797,433.484,231.527,433.542,231.245z
	 M381.381,185.632c0.598-0.077,1.186-0.219,1.743-0.42c0.74,1.37,1.497,2.716,2.297,4.009
	C383.778,188.394,382.472,187.128,381.381,185.632z"></path>

<path fill="#859e3f" d="M388.715,534.805c0.342,0.025,0.685,0.056,1.024,0.09c-0.138-1.573-0.346-3.157-0.621-4.746
	c0.53-0.687,0.99-1.473,1.345-2.375c1.794-4.563,1.173-11.342,1.234-16.154c0.09-7.094-0.581-14.119-1.555-21.141
	c-1.221-8.812-7.405-28.176-19.445-19.005c-6.449-3.71-14.072-4.479-21.697-5.036c-2.101-0.152-3.658,0.698-4.643,2.01
	c-2.111-0.235-4.231-0.078-6.306,0.618c-0.657,0.221-1.22,0.64-1.652,1.163c-3.165-1.366-6.391-2.506-9.52-3.423
	c-4.173-1.223-5.677,4.902-1.762,6.39c3.698,1.403,7.915,3.104,10.869,5.833c2.931,2.709,5.261,5.98,7.829,9.016
	c3.964,4.683,7.298,9.999,10.861,15c2.117,2.971,4.167,5.993,6.074,9.103c0.062,0.104,0.125,0.211,0.191,0.312
	c1.415,2.322,2.75,4.692,3.961,7.132c1.011,2.038,2.015,5.057,2.229,6.986c0.12,1.084,0.034,2.188,0.032,3.275
	c0,0.003,0.003,0.002,0.006,0c-0.041,0.034-0.149,0.134-0.426,0.397c-1.668,1.599-2.19,3.544-1.918,5.379
	C371.367,534.246,381.361,532.274,388.715,534.805z"></path>
<path fill="#859e3f" d="M291.5,472.25c-4.289-4.81-21.382-0.819-26.765,0.352c-6.08,1.324-11.819,2.132-17.994,2.703
	c-9.893,0.917-26.658,1.318-25.806,15.047c0.399,6.43,2.58,12.563,2.93,18.996c0.467,8.552,0.932,16.379,2.179,24.618
	c0.131,0.87,0.307,1.712,0.51,2.534c0.404-0.182,0.855-0.349,1.377-0.498c3.553-1.015,7.231-1.475,10.895-1.907
	c4.683-0.553,10.48-1.668,15.9-1.627c-2.006-5.894-2.057-13.131-1.566-19.711c2.597-7.53,5.616-14.729,9.964-21.476
	c3.913-6.069,9.718-9.353,15.732-12.961c1.143-0.687,1.484-1.691,1.303-2.614c1.848-0.233,3.668-0.529,5.219-1.559
	C285.796,473.871,291.833,472.624,291.5,472.25z"></path>
<path fill="#859e3f"  d="M254.401,536.338c-0.105-0.716-0.32-1.309-0.49-2.003
	c-0.681-2.782-4.586-2.033-4.882,0.366c-0.946,0.035-1.892,0.056-2.839,0.053c-0.316-0.229-0.709-0.388-1.189-0.428
	c-2.852-0.083-5.662-0.095-8.5,0.243c-0.901,0.106-1.543,0.58-1.927,1.188c-0.332-0.104-0.681-0.182-1.073-0.202
	c-1.568-0.083-2.808,1.627-2.358,3.097c0.31,1.01,0.592,1.938,1.317,2.612c0.151,0.567,0.265,1.141,0.316,1.736
	c0.112,1.3,1.921,2.54,2.944,1.22c0.042-0.054,0.087-0.111,0.131-0.168c5.417,0.932,10.666-1.014,16.021-2.003
	c1.147-0.212,2.051-1.741,1.615-2.845c-0.027-0.069-0.058-0.137-0.087-0.205C254.197,538.445,254.57,537.486,254.401,536.338z"></path>
<path fill="#859e3f"  d="M386.18,537.627c-0.265-0.113-0.53-0.218-0.797-0.327
	c0-0.003,0.001-0.006,0.002-0.009c-0.022-0.007-0.047-0.013-0.069-0.02c-2.146-0.884-4.321-1.646-6.546-2.323
	c-2.795-0.852-5.869-0.559-8.77-0.768c-1.564-0.112-2.341,1.216-2.224,2.491c-2.063,1.312-0.887,5.055,1.824,5.097
	c0.941,0.308,1.993,0.381,2.833-0.131c0.342-0.047,0.686-0.092,1.028-0.137c0.271,0.01,0.543,0.039,0.815,0.06
	c0.531,0.181,1.064,0.344,1.583,0.451c0.024,0.01,0.05,0.021,0.075,0.03l0.005-0.017c0.188,0.036,0.376,0.072,0.559,0.093
	c0.326,0.034,0.615-0.021,0.869-0.129c2.205,0.438,4.371,1.093,6.246,1.719C387.16,544.892,389.656,539.12,386.18,537.627z"></path>
<path fill="#859e3f" d="M247.5,529.523c-0.997,0-1.729,0.405-2.208,1H234.5c-3.839,0-3.839,5.953,0,5.953h11
	c1.009,0,1.745-0.416,2.224-1.022C251.327,535.218,251.259,529.523,247.5,529.523z"></path>
<path fill="#859e3f" d="M386.604,533.396c-4.446-4.034-10.335-3.811-15.896-2.766c-3.771,0.708-2.169,6.445,1.582,5.74
	c3.247-0.609,7.435-1.187,10.104,1.234C385.231,540.177,389.454,535.979,386.604,533.396z"></path>

<path fill="#229fb5" d="M400.01,377.201c0.355-1.664,0.145-3.451-0.912-5.15c-1.506-2.428-3.011-4.854-4.503-7.287
	c-1.387-3.688-3.598-7.162-6.106-10.338c-0.303-0.535-0.615-1.064-0.912-1.604c-3.606-6.537-5.993-13.383-8.566-20.354
	c-2.352-6.369-6.312-12.242-8.393-18.638c-0.885-2.722,0.872-5.728-1.174-8.435c-0.197-0.26-0.401-0.508-0.61-0.746
	c0.281-0.942,0.23-1.938-0.352-2.933c-0.995-1.699-3.622-2.66-5.35-1.402c-0.532,0.388-0.989,0.793-1.399,1.243
	c-1.803-0.35-3.852,0.637-4.757,2.183c-0.15,0.259-0.267,0.528-0.357,0.803c-5.321-0.423-9.326,1.479-14.342,3.438
	c-2.862,1.119-5.304,1.117-8.171,1.906c-2.787,0.768-4.22,2.816-5.868,4.957c-2.345,3.043-0.896,7.41,1.286,9.971
	c1.23,1.443,1.775,3.576,2.106,5.605c-0.597,0.426-1.147,1.002-1.622,1.752c-0.423,0.672-3.505,3.165-3.383,3.076
	c-1.5,1.103-2.309,1.117-3.75,2.5c-2.118,2.031-2.685,4.658-3.875,7.375c-0.747,0.414-1.108,2.239-1.589,3.286
	c-0.226,0.403-2.601,3.813-2.786,4.214c-1.899,3.717-2.311,4.134-4.716,7.611c-1.413-0.782-2.762-1.526-3.871-2.272
	c-5.452-3.67-11.262-6.688-16.81-10.192c-0.6-0.406-1.188-0.604-1.745-0.646c0.374-1.629,0.839-3.223,1.393-4.773
	c0.115-0.289,0.226-0.594,0.329-0.924c1.255-3.238-3.089-5.494-5.505-3.662c-0.085-0.014-0.168-0.026-0.272-0.041
	c-0.994-0.219-2.022-0.971-2.906-1.443c-0.062-0.033-0.124-0.062-0.187-0.096c0.29-0.401,0.555-0.846,0.758-1.375
	c1.42-3.721,2.664-7.879,2.643-11.944c0.14-0.562,0.273-1.121,0.395-1.683c1.192-5.554-5.956-7.433-8.342-2.813
	c-0.602-0.115-1.22-0.136-1.785-0.052c-0.049,0.009-0.092,0.029-0.139,0.039c-2.879-1.057-5.804-1.725-8.689-1.979
	c-0.849-1.8-2.602-3.125-5.334-3.065c-1.439,0.031-4.966,0.865-7.565,0.834c-1.354-2.504-4.028-4.185-8.435-4.129
	c-0.658,0.008-1.302,0.144-1.92,0.361c-0.302-0.332-0.607-0.678-0.922-1.037c-4.436-5.059-12.755,1.512-9.236,7.127
	c1.538,2.452-0.776,7.482-1.578,9.971c-1.476,4.578-3.021,9.14-4.672,13.658c-2.743,7.51-5.795,14.904-8.954,22.252
	c-0.25,0.289-0.477,0.609-0.667,0.967c-2.048,3.83-3.383,7.953-5.008,11.966c-0.984,1.323-2.022,2.586-2.977,3.786
	c-1.497,1.88-1.993,4.06-1.536,5.984c-1.511,1.547-1.416,4.072,0.671,5.523c1.315,0.916,2.301,2.174,3.505,3.217
	c1.887,1.637,4.396,2.65,6.546,3.912c4.449,2.613,8.911,5.035,13.953,6.301c0.761,0.191,1.533,0.219,2.288,0.123
	c-0.801,4.228-1.399,8.541-1.674,12.863c-0.396,2.705-0.813,5.404-1.284,8.092c-0.404,0.682-0.717,1.467-0.884,2.391
	c-1.705,9.453-4.812,18.824-3.973,28.525c0.126,1.455,0.571,2.689,1.232,3.699c-0.305,3.098-0.428,6.654,0.279,9.543
	c-0.611,1.307-1.261,2.592-1.99,3.828c-1.977,3.354,1.917,7.09,5.23,5.229c6.495-3.645,14.487-3.768,21.704-4.795
	c8.219-1.17,16.128-3.592,24.493-3.299c4.013,0.857,8.369,0.812,12.297,1.014c8.595,0.443,17.157-0.459,25.709-1.315
	c8.484-0.851,16.725-2.994,25.191-3.859c6.328-0.647,12.686-0.197,19.031-0.393c4.975-0.152,9.646-0.187,14.294,1.19
	c0.964,0.65,2.021,0.99,3.087,1.066c0.156,0.045,0.307,0.072,0.457,0.102c0.155,0.209,0.322,0.414,0.509,0.623
	c1.19,1.33,2.702,1.541,4.356,1.256c2.066-0.354,2.735-2.95,1.861-4.577c-0.142-0.267-0.305-0.515-0.479-0.753
	c1.161-1.801,1.373-4.112-0.22-6.403c-0.724-1.037-1.21-2.213-1.549-3.457c0.485-3.859,0.128-7.416-1.19-11.262
	c-0.129-0.378-0.276-0.728-0.435-1.062c-0.714-13.883-4.325-27.305-7.769-40.729c0.787-1.14,1.188-2.503,0.988-3.912
	c0.812-0.496,1.604-1.091,2.358-1.742c2.25,1.387,5.468,1.121,7.615-0.75c4.243-3.691,9.146-7.6,14.853-8.455
	C402.61,386.008,402.597,380.451,400.01,377.201z"></path>

<path fill="rgba(26,26,26,0.25)" d="M255.271,534.062c-1.816-1.816-4.094-1.299-6.368-1.142c-1.343,0.093-3.086,0.881-4.761,1.365
	c-0.25-0.154-0.532-0.27-0.851-0.323c-1.859-0.312-3.396-0.375-5.25,0c-1.117,0.226-1.784,1.019-2.026,1.95
	c-0.575-0.083-1.15-0.176-1.724-0.282c-3.613-0.673-5.218,4.609-1.964,5.629c0.052,1.437,0.988,2.739,2.839,2.55
	c1.833-0.188,3.465-0.736,4.973-1.541c2.443,0.159,4.896,0.208,7.361,0.209c0.841,0,1.486-0.295,1.959-0.74
	c0.124,0.025,0.241,0.06,0.374,0.072C253.753,542.176,259.183,537.973,255.271,534.062z"></path>
<path fill="rgba(26,26,26,0.25)" d="M389.703,537.041c-0.409-2.235-2.586-2.573-4.152-1.705c-0.803-0.48-1.825-0.609-2.887-0.074
	c-0.582,0.293-1.275,0.499-2.012,0.651c-0.111-0.088-0.225-0.171-0.342-0.245c-2.309-1.46-4.786-1-7.354-1.372
	c-0.668-0.097-1.266,0.012-1.779,0.248c-1.353-1.796-4.644-1.956-5.215,0.831c-1.36,6.635,6.445,7.635,12.918,6.809
	c1.288,0.927,2.745,1.528,4.348,1.794C387.901,544.754,390.52,541.498,389.703,537.041z"></path>

<path fill="rgba(26,26,26,0.5)"  d="M330.75,451.875c-0.065-0.646,0.342-2.48,0.25-3.125
	c-0.049-1.297-0.928-3.816-1.125-5.125c0.981-2.351-1.122-4.534-1.532-7.678c-0.541-4.154-1.21-8.273-1.855-12.412
	c-0.425-2.707,0.025-5.19-0.361-7.91c-0.1-1.789,0.216-3.719,0.125-5.5c-0.219-4.285,0-8.731-0.125-13
	c0.29-4.643-1.042-9.098-1.096-13.648c0.593-0.898,0.966-2.055,0.998-3.477c0.229-10.193-1.072-20.314-1.132-30.5
	c-0.029-5.373-7.233-5.9-8.949-1.211c-0.68,1.852-1.555,3.602-2.537,5.293c-0.838,0.135-1.631,0.516-2.251,1.236
	c-1.946,2.264-3.377,4.709-4.624,7.344c-1.691-1.098-3.455-2.146-4.989-3.354c-2.35-1.848-6.076-5.012-7.861-8.031
	c-0.251-0.852-0.602-1.658-1.1-2.373c-2.372-3.412-7.059-0.514-5.47,3.193c0.792,1.359,0.509,3.398,0.206,5.105
	c-0.094,0.195-0.189,0.396-0.261,0.613c-0.943,2.91-1.373,5.834-1.096,8.875c-1.116,0.928-1.877,2.352-1.884,4.307
	c-0.053,14.609-1.133,29.229-0.936,43.836c0.194,14.334,2,28.893-0.281,43.154c-0.296,1.852,0.199,3.488,1.122,4.734
	c-1.572,2.568-0.296,6.664,3.328,6.41c0.69-0.049,1.301-0.18,1.851-0.375c3.332,0.344,6.549,0.387,9.634-0.533
	c0.472,0.816,1.444-0.009,2.328,0.273c3.608,1.143,7.375,2.841,10.189-0.026c0.291-0.297,0.518-0.607,0.684-0.926
	c0.36-0.211,2.857,0.872,3.127,0.577c4.294,0.385,6.412-0.562,10.713-0.581c2.703,0.062,5.883,1.159,5.787-0.919
	c0.193-0.586-1.627-4.413-1.709-5.063C330.683,457.48,331.467,455.723,330.75,451.875z"></path>
<path fill="rgba(26,26,26,0.25)"  d="M278.901,315.535c-1.398-0.637-3.116-0.559-4.302,0.725
	c-0.83,0.9-2.064,1.786-2.791,2.709c-0.822,1.045-1.599,2.021-2.552,2.948c-2.453,2.39-1.639,6.179,1.025,7.96
	c2.428,1.623,4.55,3.064,7.324,4.098c2.913,1.086,5.817-1.672,5.874-4.475c0.051-2.479-0.099-5.561,1.191-7.76
	C287.076,317.641,282.322,313.947,278.901,315.535z"></path>
<path fill="rgba(26,26,26,0.25)"  d="M339.75,317.875c-1.058-1.055-4.364-3.053-5.375-2.75
	c-0.276-0.391-6.168,0.631-6.625,0.625c-6.255-0.076,0.736,9.332,2.192,12.825c1.042,2.502,4.575,4.391,6.758,1.784
	C340.103,326.291,343.886,322.004,339.75,317.875z"></path>
<path fill="rgba(26,26,26,0.25)"  d="M396.458,373.986c-7.572,1.465-17.4,5.006-22.347,11.285
	c-0.742,0.941-0.975,1.824-0.872,2.59c-0.557,0.445-1.099,0.914-1.611,1.428c-4.795,4.787,2.646,12.229,7.424,7.424
	c6.655-6.695,18.633-5.775,23.277-15.088C404.438,377.4,401.028,373.104,396.458,373.986z"></path>
<path fill="rgba(26,26,26,0.25)"  d="M235.105,397.5c-0.408-5.781-3.688-10.199-8.327-13.486
	c-4.185-2.965-9.634-6.193-14.938-6.076c-2.974,0.066-4.958,2.076-5.663,4.443c-0.908,0.475-1.632,1.291-1.905,2.498
	c-2.229,9.836,16.451,16.658,23.536,18.182C231.235,403.797,235.383,401.438,235.105,397.5z"></path>

<g>
	<path fill="#1A1A1A" d="M423.163,406.209c-4.354-8.998-9.647-17.508-14.821-26.045c-6.675-11.016-12.323-22.676-18.068-34.195
		c-7.579-15.195-14.788-30.41-18.365-47.083c5.307-3.607,10.229-7.754,14.488-12.512c8.616-9.622,12.323-21.681,13.7-34.318
		c1.584-14.538-0.715-29.608-4.881-43.54c-3.786-12.662-9.725-26.516-19.356-35.847c-2.726-2.64-7.691,0.871-5.398,4.166
		c13.619,19.575,21.781,41.418,22.042,65.493c0.116,10.798-1.616,22.225-7.124,31.662c-5.175,8.865-13.824,15.376-22.499,20.53
		c-18.053,10.727-40.441,17.032-61.447,17.256c-20.624,0.221-41.908-2.006-61.425-8.931c-18.381-6.521-35.912-19.696-38.407-40.287
		c-1.278-10.546,0.13-21.12,1.06-31.621c0.625-7.068,2.922-15.557-0.481-22.065c-0.591-1.13-2.3-0.809-2.627,0.343
		c-2.232,7.844-3.524,16.325-4.705,24.51c-1.56,10.814-2.579,21.583-0.999,32.452c2.96,20.365,20.157,34.565,38.075,42.176
		c-6.567,22.816-13.621,46.576-25.089,67.484c-8.674,15.812-18.322,31.035-25.067,47.836c-5.168,12.873-9.756,29.578,2.661,39.662
		c8.357,6.789,17.976,5.875,25.903-1.01c5.7-4.947,9.731-11.91,13.024-18.959c-2.392,15.482-3.315,31.02-2.899,46.678
		c0.427,16.064,1.99,32.576,6.394,48.08c0.088,0.309,0.186,0.621,0.278,0.934c1.946-0.383,3.894-0.744,5.847-1.092
		c-0.515-2.232-0.962-4.475-1.241-6.73c-0.137-0.668-0.257-1.355-0.367-2.047c-0.128-0.67-0.249-1.346-0.354-2.025
		c-3.084-13.184-3.937-26.875-4.151-40.367c-0.245-15.398,1.384-30.393,3.051-45.684c0.769-7.051,1.672-14.066,2.654-21.068
		c2.686-8.141,4.942-16.432,7.002-24.729c3.243-13.061,5.641-26.098,7.072-39.477c0.92-8.596,2.421-17.584,1.795-26.248
		c-0.233-3.229-4.739-3.211-5,0c-0.851,10.479-2.698,20.814-4.953,31.072c-3.44,15.654-6.532,31.389-10.891,46.826
		c-3.961,14.027-8.635,28.33-16.361,40.789c-4.136,6.672-11.081,15.242-19.383,11.244c-9.81-4.725-9.703-14.648-7.208-23.992
		c3.624-13.572,10.888-26.197,17.817-38.305c6.196-10.826,12.52-21.279,17.458-32.762c7.374-17.148,14.464-35.773,15.913-54.537
		c18.371,7.039,38.378,9.604,57.929,10.332c20.947,0.779,41.149-3.383,60.372-11.703c4.333-1.875,8.605-4.021,12.712-6.454
		c4.708,26.616,17.62,52.239,30.732,75.567c8.06,14.34,18.437,27.264,24.331,42.795c2.127,5.604,4.82,14.037,0.649,19.414
		c-2.971,3.828-9.704,5.881-13.994,3.797c-4.979-2.42-8.774-7.521-11.845-11.947c-4.644-6.691-8.348-14.037-11.753-21.416
		c-6.929-15.02-12.276-30.824-16.742-46.734c-1.86-6.627-3.509-13.32-4.851-20.072c-0.531-2.67-0.986-5.354-1.355-8.051
		c-0.29-2.113-1.438-4.203-1.895-6.328c-0.356-1.662-3.039-1.691-3.375,0c-2.537,12.783,2.379,26.979,5.718,39.299
		c1.858,6.855,3.914,13.68,6.184,20.432c2.729,26.465,8.467,52.533,12.82,78.762c4.628,27.883,9.206,56.408,2.769,84.443
		c-1.034,4.504-5.738,21.914-12.935,12.596c-2.579-3.34-2.64-8.588-2.798-12.59c-0.199-5.041,0.126-10.102,0.363-15.133
		c0.976-20.656-8.709-43.875-24.867-56.836c-20.366-16.336-51.502-15.779-72.273-0.607c-11.505,8.402-17.736,19.145-19.38,33.361
		c-0.845,7.305-0.447,14.984-0.459,22.598c2.242-0.23,4.486-0.436,6.729-0.592c-0.076-2.055-0.188-4.109-0.323-6.158
		c-0.882-13.418-0.973-27.004,8.108-37.893c7.24-8.68,18.27-12.104,28.976-14.236c10.63-2.117,21.176-0.918,31.281,2.738
		c20.622,7.461,34.548,33.715,35.415,54.77c0.384,9.297-1.01,18.672,1.259,27.828c1.666,6.721,8.573,13.586,15.977,10.496
		c8.469-3.535,9.771-16.455,11.369-24.191c3.69-17.863,2.419-36.975,1.12-55.023c-1.938-26.941-8.469-53.164-13.624-79.623
		c0.935,2.117,1.896,4.223,2.887,6.312c5.307,11.189,12.634,26.344,24.966,31.203c5.557,2.189,11.771,0.566,16.828-2.223
		c5.909-3.26,8.457-9.617,8.388-16.096C431.141,423.492,427.124,414.395,423.163,406.209z"></path>
	<path fill="#1A1A1A" d="M259.09,542.25c-0.115-2.881-0.161-5.869-0.5-8.75c-1.932,0.396-4.771,1.654-6.706,1.951
		c0.531,4.338,0.581,8.049,0.831,11.924c0.034,0.531,0.054,1.225,0.056,2.006c0.435,2.518,0.191,5.445,0.009,7.703
		c-0.161,1.986-0.639,4.543-2.324,5.883c-0.469,0.479-1.115,0.82-1.802,0.982c-2.66,1.51-6.459-1.125-8.111-2.979
		c-3.825-4.291-4.924-11.176-6.068-16.531c-0.54-2.527-1.193-5.057-1.756-7.598c-1.612-0.342-4.28,0.416-5.899,0.92
		c1.993,8.107,3.265,16.42,7.205,23.895c3.387,6.426,12.128,11.682,18.86,6.672C260.585,562.598,259.422,550.533,259.09,542.25z"></path>
</g>

<path fill="#1A1A1A" d="M373.573,229.176c-3.676,7.143-15.558,9.681-20.33,2.004c-1.112-1.788-3.757-0.221-2.809,1.641
	c5.354,10.484,22.339,8.768,27.672-0.996C379.734,228.845,375.117,226.175,373.573,229.176z"></path>
<path fill="#1A1A1A" d="M258.897,230.865c-3.672,8.664-13.986,9.291-19.79,2.368c-2.083-2.485-5.545,1.068-3.535,3.535
	c7.958,9.773,23.3,8.181,27.438-4.169C263.812,230.203,259.896,228.51,258.897,230.865z"></path>

<path fill="#1A1A1A" d="M422.524,210.056c10.033-3.75,20.191-11.575,19.45-22.967c-0.866-13.321-11.169-20.564-23.366-21.39
	c0.966-2.557,2.207-4.907,4.038-7.103c2.229-2.674,4.007-5.319,5.334-8.56c2.978-7.272,2.618-14.801-0.078-22.126
	c-3.778-10.265-14.254-16.4-24.872-17.263c5.503-11.595,5.973-25.099,1.087-37.342c-5.974-14.968-19.012-26.048-35.452-26.726
	c-15.799-0.652-33.135,7.658-46.444,15.296c-9.905,5.685-21.061,13.726-27.236,24.121c-3.167-8.11-8.437-15.22-16.119-19.911
	c-9.162-5.595-20.584-6.285-30.827-3.823c-18.776,4.514-32.917,21.087-30.663,39.818c-9.279-5.053-19.652-7.436-30.335-5.138
	c-11.062,2.379-20.196,10.184-26.392,19.358c-12.264,18.163-12.329,44.146,4.003,59.409c-12.503,8.205-27.558,17.01-26.621,33.864
	c0.93,16.729,15.452,26.865,30.708,28.107c-8.98,8.659-12.896,21.42-5.775,33.201c3.248,5.373,9.157,9.275,15.419,9.905
	c8.043,0.809,14.59-3.157,19.549-9.197c1.845-2.247-0.937-5.044-3.182-3.182c-8.718,7.232-20.11,9.221-27.04-1.289
	c-7.408-11.235-0.203-23.661,9.924-29.907c1.995-1.231,1.386-5.09-1.293-4.775c-7.399,0.869-14.593,0.057-21.062-3.842
	c-6.647-4.008-10.403-12.815-10.819-20.291c-0.792-14.229,16.64-22.786,26.319-29.844c1.824-1.33,1.813-3.589,0-4.921
	c-17.336-12.737-16.445-36.874-5.748-53.592c5.238-8.187,13.271-14.505,22.723-16.942c11.805-3.043,23.54,1.877,32.963,8.771
	c2.261,1.654,5.624-1.082,4.724-3.631c-6.602-18.707,6.494-34.674,24.451-39.158c8.519-2.126,17.73-1.136,25.329,3.333
	c9.549,5.615,13.739,16.249,15.511,26.674c0.611,3.598,6.586,3.576,7.218,0c2.455-13.918,15.59-23.269,27.007-29.878
	c11.872-6.874,25.878-12.504,39.668-13.633c13.621-1.115,24.152,7.787,29.521,19.639c5.632,12.432,4.264,27.605-3.879,38.496
	c-2.577,3.447,1.653,7.974,5.327,6.93c10.503-2.987,20.632,3.727,24.053,13.745c3.885,11.378-1.471,22.349-6.357,32.507
	c-0.841,1.749,0.214,3.343,2.051,3.574c9.254,1.163,18.466,7.315,18.063,17.537c-0.162,4.117-1.2,8.105-2.62,11.975
	c-2.027,5.525-8.574,7.729-13.869,8.569c-1.769,0.281-1.258,2.56,0,3.087c4.104,1.719,8.091,6.407,10.708,9.95
	c2.513,3.403,4.096,7.645,4.512,11.854c1.051,10.652-9.386,13-17.794,12.519c-3.789-0.217-5.219,4.566-2.923,7.057
	c3.56,3.863,4.658,8.225,0.637,12.098c-3.315,3.193-9.136,2.452-12.311-0.424c-4.581-4.149-11.363,2.554-6.807,6.806
	c7.065,6.592,17.084,6.629,24.433,0.318c5.913-5.079,6.812-11.936,4.218-18.103c9.627-1.876,16.874-8.562,17.665-19.467
	c0.426-5.862-2.1-11.615-5.562-16.204C430.455,213.662,426.871,211.667,422.524,210.056z"></path>
<path fill="#1A1A1A" d="M388.837,201.498c-6.413,5.154-13.186,2.868-15.388-5.079c-0.52-1.875-2.996-2.1-3.998-0.522
	c-9.022,14.201-22.93,27.622-40.336,17.854c-12.169-6.829-8.784-25.252-9.367-36.75c-0.122-2.409-3.169-3.265-4.487-1.215
	c-7.234,11.25-15.543,26.455-30.382,27.664c-13.811,1.125-16.713-13.312-22.699-22.523c-0.979-1.505-3.403-1.345-3.894,0.509
	c-6.49,24.53-29.694,44.847-55.495,33.084c-3.31-1.509-6.22,3.181-2.902,4.965c13.4,7.205,28.052,7.565,40.711-1.388
	c10.156-7.183,16.82-18.349,20.384-30.148c2.04,4.429,3.777,9.013,6.545,13.047c4.067,5.929,10.356,8.117,17.35,7.813
	c13.98-0.606,22.991-12.398,30.193-23.652c-0.135,13.626-0.986,27.864,13.52,34.763c17.862,8.497,33.102-3.029,42.29-17.756
	c4.364,8.205,14.734,10.874,21.293,1.91C393.715,201.968,390.562,200.112,388.837,201.498z"></path>

<path fill="#1A1A1A" d="M255.532,530.571c-7.79-1.255-17.191,0.287-24.63,2.759c-2.74,0.911-1.565,5.258,1.196,4.34
	c7.773-2.584,15.546-1.894,23.434-3.241C257.44,534.104,257.458,530.882,255.532,530.571z"></path>
<path fill="#1A1A1A" d="M253.885,538.771c-5.093,0.83-10.218,1.138-15.297,2.138c-1.523,0.301-4.265,1.332-5.396,2.464
	c-1.501,1.501,0.833-0.762-0.513,0.584c-0.39,0.391-0.626,1-0.554,1.544c0.137,1.033,1.061,1.713,2.069,1.188
	c0.098-0.054,0.178-0.104,0.267-0.156c2.488,0.387,6.106-0.678,8.268-1.022c4.143-0.661,8.314-1.245,12.387-2.276
	C258.061,542.482,256.764,538.299,253.885,538.771z"></path>
<path fill="#1A1A1A" d="M387.581,542.391c-6.445-1.816-13.458-1.892-20.081-2.703c-2.026-0.245-2.485,3.214-0.481,3.562
	c6.456,1.127,12.936,2.336,19.4,3.361C389.142,547.041,390.356,543.174,387.581,542.391z"></path>
<path fill="#1A1A1A" d="M390.781,535.219c-3.062-2.756-7.895-3.43-11.883-3.871c-4.286-0.474-9.618-1.249-13.277,1.506
	c-0.405,0.308-0.562,1.023,0,1.297c3.403,1.644,7.401,1.208,11.088,1.752c4.155,0.61,8.619,2.851,12.791,2.413
	C390.938,538.162,392.073,536.381,390.781,535.219z"></path>

<path fill="rgba(26,26,26,0.25)" d="M255.271,534.062c-1.816-1.816-4.094-1.299-6.368-1.142c-1.343,0.093-3.086,0.881-4.761,1.365
	c-0.25-0.154-0.532-0.27-0.851-0.323c-1.859-0.312-3.396-0.375-5.25,0c-1.117,0.226-1.784,1.019-2.026,1.95
	c-0.575-0.083-1.15-0.176-1.724-0.282c-3.613-0.673-5.218,4.609-1.964,5.629c0.052,1.437,0.988,2.739,2.839,2.55
	c1.833-0.188,3.465-0.736,4.973-1.541c2.443,0.159,4.896,0.208,7.361,0.209c0.841,0,1.486-0.295,1.959-0.74
	c0.124,0.025,0.241,0.06,0.374,0.072C253.753,542.176,259.183,537.973,255.271,534.062z"></path>
<path fill="rgba(26,26,26,0.25)" d="M389.703,537.041c-0.409-2.235-2.586-2.573-4.152-1.705c-0.803-0.48-1.825-0.609-2.887-0.074
	c-0.582,0.293-1.275,0.499-2.012,0.651c-0.111-0.088-0.225-0.171-0.342-0.245c-2.309-1.46-4.786-1-7.354-1.372
	c-0.668-0.097-1.266,0.012-1.779,0.248c-1.353-1.796-4.644-1.956-5.215,0.831c-1.36,6.635,6.445,7.635,12.918,6.809
	c1.288,0.927,2.745,1.528,4.348,1.794C387.901,544.754,390.52,541.498,389.703,537.041z"></path>

<path fill="#1A1A1A" d="M329.269,284.348c-18.148,3.89-36.808,4.522-55.269,3.027c-2.127-0.172-2.016,2.981,0,3.25
	c1.843,0.246,3.69,0.466,5.539,0.671c0.03,0.151,0.078,0.305,0.166,0.461c2.002,3.553,4.311,6.89,7.737,9.198
	c0.594,0.4,1.451-0.002,1.625-0.661c0.554-2.1,1.569-3.917,2.635-5.79c0.385-0.676,0.851-1.389,1.221-2.133
	c12.662,0.603,25.345-0.048,37.81-2.72C334.198,288.909,332.728,283.607,329.269,284.348z M289.65,294.128
	c-0.861,1.28-1.596,2.622-2.169,4.04c-1.996-1.804-3.351-4.098-4.524-6.519c2.608,0.25,5.22,0.457,7.833,0.61
	C290.416,292.897,290.047,293.538,289.65,294.128z"></path>

<path fill="#1A1A1A" d="M235.309,385.699c-3.042-3.596-8.543-4.711-12.606-6.883c-1.435-0.768-2.893-1.488-4.343-2.225
	c-0.464-0.232-0.927-0.475-1.39-0.711c-0.185-0.24-0.433-0.449-0.764-0.6c-0.538-0.24-1.139-0.607-1.727-0.707
	c-1.917-0.322-3.962,1.588-2.712,3.527c1.36,2.115,5.108,3.346,7.198,4.533c1.667,0.949,3.247,1.852,4.994,2.66
	c2.972,1.375,5.878,3.637,9.1,4.266C235.389,390.02,236.828,387.496,235.309,385.699z"></path>
<path fill="#1A1A1A" d="M231.75,401.924c-3.448-2.824-7.643-4.709-11.566-6.801c-4.951-2.639-9.801-5.443-14.839-7.982
	c-3.789-1.91-7.083,3.594-3.344,5.721c4.013,2.283,8.035,4.947,12.317,6.693c5.048,2.059,9.497,5.361,14.574,7.279
	C231.595,407.854,233.995,403.762,231.75,401.924z"></path>
<path fill="#1A1A1A" d="M394.731,370.582c-8.329,4.002-16.022,8.625-23.404,14.158c-0.634,0.475-0.259,1.385,0.529,1.258
	c9.438-1.529,17.679-5.494,26.092-9.912C401.618,374.16,398.396,368.82,394.731,370.582z"></path>
<path fill="#1A1A1A" d="M402.826,380.744c-9.444,5.338-19.911,8.842-27.454,16.955c-1.722,1.852,0.563,5.189,2.802,3.633
	c8.672-6.043,18.762-9.75,27.68-15.406C409.11,383.859,406.209,378.832,402.826,380.744z"></path>
<path fill="#1A1A1A" d="M343.961,319.701c-3.32-1.938-6.303-4.252-9.094-6.895c-1.579-1.494-3.93,0.844-2.387,2.387
	c2.432,2.433,5.057,4.6,7.851,6.576c-1.812,2.438-4.202,5.656-6.784,7.477c-1.379-4.318-3.273-8.455-4.438-12.859
	c-1.172-4.438-8.096-2.543-6.87,1.895c1.119,4.057,2.656,7.979,4.472,11.77c-2.705,1.619-5.123,3.645-7.459,5.76
	c-1.721,0.377-3.184,2.273-2.114,4.344c0.312,0.602,0.608,1.209,0.896,1.822c-3.924,5.354-7.799,10.746-11.55,16.227
	c-5.123-4.822-10.264-9.781-16.479-13.068c0.725-1.826,1.688-3.393,2.997-4.471c0.688-0.566,0.698-1.393,0.356-2.07
	c0.344-0.922,0.213-1.957-0.744-2.736c-1.252-1.02-2.697-1.428-4.115-2.146c-1.104-0.562-2.151-1.237-3.103-2.03
	c0.921-4.781,2.462-9.453,2.655-14.342c0.104-2.658-4.131-3.271-4.665-0.631c-1.051,5.188-2.373,10.508-3.023,15.827
	c-0.076,0.21-0.132,0.427-0.153,0.647c-3.768-2.522-7.346-5.336-11.318-7.522c1.354-2.198,3.135-4.005,5.412-5.442
	c2.799-1.771,0.132-6.285-2.587-4.426c-3.646,2.496-6.296,5.645-8.091,9.682c-0.487,1.1-0.409,2.654,0.852,3.25
	c6.005,2.838,10.939,7.357,16.667,10.666c1.301,0.754,2.812,0.092,3.354-1.148c0.178,0.125,0.354,0.254,0.533,0.375
	c0.917,0.617,1.99,1.287,3.111,1.715c-3.215,4.412-4.197,11.18-5.157,15.996c-2.099,10.52-2.703,21.344-3.32,32.033
	c-0.551,9.553-1.032,19.135-1.215,28.699c-0.169,8.887-0.692,17.752-0.361,26.643c0.335,8.971-0.041,18.252,1.24,27.137
	c0.02,0.139,0.06,0.264,0.1,0.391c1.941-0.025,3.886-0.014,5.828,0c0.039-0.125,0.079-0.252,0.099-0.391
	c1.073-7.67,0.439-15.639,0.324-23.367c-0.134-8.867-0.702-17.709-1.002-26.571c-0.317-9.399,0.236-18.88,0.601-28.278
	c0.394-10.15,1.141-20.242,2.131-30.352c0.354-3.615,0.464-9.381,1.685-14.258c5.471,4.934,10.787,10.045,16.216,15.027
	c1.069,0.98,2.608,0.752,3.402-0.439c3.612-5.416,7.362-10.729,11.245-15.949c5.946,16.496,4.37,35.568,4.418,52.688
	c0.03,10.978,1.606,21.75,2.891,32.627c1.523,12.906,2.18,25.697,2.449,38.676c0.275-0.016,0.552-0.032,0.826-0.041
	c1.479-0.096,2.96-0.157,4.441-0.203c0.886-12.752-1.162-25.799-2.701-38.432c-1.44-11.824-1.967-23.703-1.812-35.604
	c0.248-18.938,1.827-39.366-6.957-56.731c1.803-1.74,3.629-3.459,5.454-5.174c0.064,0.119,0.127,0.24,0.192,0.357
	c1.099,1.981,3.886,1.787,5.028,0c1.48-2.318,4.043-4.186,5.835-6.301c1.667-1.969,3.159-4.09,4.615-6.216
	C345.222,321.438,344.803,320.193,343.961,319.701z"></path>
<path fill="#1A1A1A" d="M383.34,465.125c-27.6-0.998-55.169-0.076-82.732,1.443c-13.214,0.729-26.644,1.486-39.75,3.338
	c-12.703,1.793-27.857,3.424-38.799,10.607c-0.472,0.311-0.285,1.021,0.284,1.049c12.646,0.572,25.742-3.863,38.178-5.85
	c14.006-2.234,27.766-4.191,41.947-4.93c26.947-1.398,53.944,1.117,80.875,2.09C388.34,473.057,388.322,465.305,383.34,465.125z"></path>

<path fill="rgba(26,26,26,0.5)"  d="M330.75,451.875c-0.065-0.646,0.342-2.48,0.25-3.125
	c-0.049-1.297-0.928-3.816-1.125-5.125c0.981-2.351-1.122-4.534-1.532-7.678c-0.541-4.154-1.21-8.273-1.855-12.412
	c-0.425-2.707,0.025-5.19-0.361-7.91c-0.1-1.789,0.216-3.719,0.125-5.5c-0.219-4.285,0-8.731-0.125-13
	c0.29-4.643-1.042-9.098-1.096-13.648c0.593-0.898,0.966-2.055,0.998-3.477c0.229-10.193-1.072-20.314-1.132-30.5
	c-0.029-5.373-7.233-5.9-8.949-1.211c-0.68,1.852-1.555,3.602-2.537,5.293c-0.838,0.135-1.631,0.516-2.251,1.236
	c-1.946,2.264-3.377,4.709-4.624,7.344c-1.691-1.098-3.455-2.146-4.989-3.354c-2.35-1.848-6.076-5.012-7.861-8.031
	c-0.251-0.852-0.602-1.658-1.1-2.373c-2.372-3.412-7.059-0.514-5.47,3.193c0.792,1.359,0.509,3.398,0.206,5.105
	c-0.094,0.195-0.189,0.396-0.261,0.613c-0.943,2.91-1.373,5.834-1.096,8.875c-1.116,0.928-1.877,2.352-1.884,4.307
	c-0.053,14.609-1.133,29.229-0.936,43.836c0.194,14.334,2,28.893-0.281,43.154c-0.296,1.852,0.199,3.488,1.122,4.734
	c-1.572,2.568-0.296,6.664,3.328,6.41c0.69-0.049,1.301-0.18,1.851-0.375c3.332,0.344,6.549,0.387,9.634-0.533
	c0.472,0.816,1.444-0.009,2.328,0.273c3.608,1.143,7.375,2.841,10.189-0.026c0.291-0.297,0.518-0.607,0.684-0.926
	c0.36-0.211,2.857,0.872,3.127,0.577c4.294,0.385,6.412-0.562,10.713-0.581c2.703,0.062,5.883,1.159,5.787-0.919
	c0.193-0.586-1.627-4.413-1.709-5.063C330.683,457.48,331.467,455.723,330.75,451.875z"></path>
<path fill="rgba(26,26,26,0.25)"  d="M278.901,315.535c-1.398-0.637-3.116-0.559-4.302,0.725
	c-0.83,0.9-2.064,1.786-2.791,2.709c-0.822,1.045-1.599,2.021-2.552,2.948c-2.453,2.39-1.639,6.179,1.025,7.96
	c2.428,1.623,4.55,3.064,7.324,4.098c2.913,1.086,5.817-1.672,5.874-4.475c0.051-2.479-0.099-5.561,1.191-7.76
	C287.076,317.641,282.322,313.947,278.901,315.535z"></path>
<path fill="rgba(26,26,26,0.25)"  d="M339.75,317.875c-1.058-1.055-4.364-3.053-5.375-2.75
	c-0.276-0.391-6.168,0.631-6.625,0.625c-6.255-0.076,0.736,9.332,2.192,12.825c1.042,2.502,4.575,4.391,6.758,1.784
	C340.103,326.291,343.886,322.004,339.75,317.875z"></path>
<path fill="rgba(26,26,26,0.25)"  d="M396.458,373.986c-7.572,1.465-17.4,5.006-22.347,11.285
	c-0.742,0.941-0.975,1.824-0.872,2.59c-0.557,0.445-1.099,0.914-1.611,1.428c-4.795,4.787,2.646,12.229,7.424,7.424
	c6.655-6.695,18.633-5.775,23.277-15.088C404.438,377.4,401.028,373.104,396.458,373.986z"></path>
<path fill="rgba(26,26,26,0.25)"  d="M235.105,397.5c-0.408-5.781-3.688-10.199-8.327-13.486
	c-4.185-2.965-9.634-6.193-14.938-6.076c-2.974,0.066-4.958,2.076-5.663,4.443c-0.908,0.475-1.632,1.291-1.905,2.498
	c-2.229,9.836,16.451,16.658,23.536,18.182C231.235,403.797,235.383,401.438,235.105,397.5z"></path>
</svg>