<!DOCTYPE svg PUBLIC "-//W3C//DTD SVG 1.1//EN" "http://www.w3.org/Graphics/SVG/1.1/DTD/svg11.dtd"><svg version="1.1" id="Layer_1" xmlns="http://www.w3.org/2000/svg" xmlns:xlink="http://www.w3.org/1999/xlink" x="0px" y="0px" width="600px" height="600px" viewBox="0 0 600 600" enable-background="new 0 0 600 600" xml:space="preserve">
<path fill="#8f744b" d="M423.801,420.873c-3.123-7.451-7.406-14.242-11.883-20.92c-0.45-5.402-4.109-10.451-6.722-15.02
	c-3.103-5.428-6.061-10.932-9.16-16.355c-2.008-3.512-4.122-7.002-6.369-10.406c-0.726-1.404-1.466-2.801-2.231-4.188
	c-0.639-1.156-1.3-2.305-1.977-3.447c-1.476-7.727-4.284-15.164-7.242-22.449c-3.982-9.816-7.964-19.648-12.066-29.413
	c-0.281-0.67-0.655-1.23-1.091-1.694c8.987-5.386,17.46-11.864,24.782-19.078c1.072-1.056,2.045-2.162,2.967-3.292
	c0.111-0.267,0.226-0.531,0.325-0.807c1.227-3.325,2.337-6.708,3.101-10.173c1.571-7.154,2.25-14.434,2.172-21.758
	c-0.084-7.896-0.628-15.782-1.226-23.665c-1.823-4.474-4.151-8.715-7.062-12.489c-0.062-0.276-0.123-0.554-0.186-0.827
	c-1.564-7.039-4.754-13.344-9.145-19.003c-0.056-0.071-0.117-0.137-0.172-0.208c-2.382-8.318-10.63-14.582-16.632-20.457
	c-7.003-6.855-13.012-12.084-22.597-14.933c-4.52-1.344-9.216-2.105-13.947-2.625c-6.475-2.355-13.062-4.392-19.86-5.283
	c-6.486-2.721-13.351-4.15-20.609-2.809c-5.467,1.01-9.317,4.636-13.401,7.917c-0.292,0.096-0.584,0.192-0.875,0.289
	c-17.29,3.257-32.859,9.624-46.644,21.301c-6.962,5.897-12.92,13.156-17.393,21.1c-3.657,6.496-5.297,12.704-4.642,19.477
	c-1.574,4.415-2.755,9.008-3.465,13.748c-0.814,5.435-1.266,10.739-0.802,16.22c0.108,1.279,0.242,2.556,0.386,3.832
	c-1.83,1.036-3.233,2.718-3.632,5.045c-0.43,2.508-0.475,5.374,0.213,7.876c0.152,0.553,0.367,1.036,0.607,1.492
	c1.43,9.652,4.692,18.406,11.236,26.507c7.347,9.096,18.076,14.842,28.69,19.21c0.029,0.012,0.059,0.021,0.088,0.034
	c-1.368,0.86-2.382,2.319-2.494,4.378c-1.26,23.15-11.254,45.09-21.069,65.748c-3.721,7.83-7.92,15.43-11.858,23.164
	c-4.726,5.562-9.113,12.045-11.521,18.898c-0.37,1.057-0.744,2.119-1.105,3.189c-1.89,2.854-3.418,5.809-4.408,8.906
	c-4.625,10.516-7.223,23.104,0.622,31.096c5.346,5.445,14.127,4.84,20.079,0.922c6.616-4.354,10.705-11.771,14.03-18.732
	c3.462-7.25,6.529-14.717,9.364-22.326c-0.266,4.227-0.333,8.461-0.304,12.701c-0.825,0.812-1.383,1.956-1.44,3.434
	c-0.021,0.555-0.054,1.106-0.089,1.66c-1.322,1.071-2.226,2.727-2.209,4.34c0.041,3.852,0.214,7.693,1.275,11.414
	c0.036,0.125,0.092,0.229,0.134,0.346c-1.11,8.152-1.98,16.33-2.131,24.566c-0.069,3.785-0.267,10.729,1.221,16.338
	c-0.004,2.68,0.061,5.361,0.214,8.039c-2.464,23.736,0.102,50.547,17.639,66.23c4.001,2.695,11.005,0.191,11.8-4.799
	c1.661-10.43,1.964-20.826,1.845-31.367c-0.104-9.206-0.607-18.639,0.803-27.771c1.703-11.031,9.644-18.137,17.381-25.342
	c4.017-1.4,8.021-2.859,12.045-4.232c8.378-1.752,16.831-2.855,25.435-2.727c8.824,0.133,17.578,1.938,25.438,5.922
	c2.105,3.946,4.421,7.826,7.822,11.338c4.146,4.283,8.866,7.029,12.71,10.969c2.49,6.656,3.105,13.746,3.396,20.898
	c0.011,0.025,0.021,0.051,0.031,0.076c2.307,6.102,2.979,12.654,3.536,19.111c0.618,7.158,0.756,14.504,2.789,21.449
	c0.697,2.391,1.55,4.764,2.753,6.949c4.089,2.664,10.11,0.869,11.726-4.354c5.771-18.686,7.737-37.979,7.438-57.504
	c-0.301-19.527-4.116-38.236-7.354-57.389c-2.857-16.92-4.251-34.367-7.313-51.297c1.521,3.188,3.157,6.314,4.947,9.377
	c2.388,4.08,4.561,9.1,7.975,12.58l0.041,0.062c0.067,0.867,0.29,1.764,0.712,2.676c0.535,1.156,1.127,2.27,1.745,3.361
	c1.65,3.66,4.318,7.914,7.593,11.631c0.331,0.527,0.67,1.156,0.698,1.443c0.433,4.371,4.512,6.305,7.824,5.709
	c4.146,2.297,8.594,3.025,12.854,0.865c1.464-0.549,2.82-1.479,3.841-2.801C428.681,436.451,426.613,427.584,423.801,420.873z
	 M360.48,346.246c-0.004-0.553,0.016-1.105,0.002-1.658c0.062,0.049,0.134,0.082,0.196,0.127c0.034,0.525,0.095,1.059,0.163,1.596
	C360.725,346.285,360.601,346.27,360.48,346.246z M367.413,367.807c-0.74-1.881-1.55-3.738-2.396-5.586
	c0.257,0.266,0.506,0.533,0.747,0.807c0.543,1.488,1.104,2.973,1.688,4.441C367.436,367.582,367.428,367.695,367.413,367.807z"></path>

<path fill="#572d57" d="M432.409,198.123c-7.605-2.018-14.584-5.934-20.893-10.57c-3.558-2.616-6.751-5.762-9.709-9.026
	c-1.959-2.164-4.186-5.102-7.104-5.851c-0.703-0.181-1.521,0.221-1.691,0.96c-0.021,0.091-0.03,0.184-0.05,0.275
	c-0.062,0.003-0.121,0.021-0.183,0.026c-0.062-0.379-0.111-0.759-0.165-1.137c-0.034-0.241-0.092-0.469-0.157-0.692
	c0.266-0.472,0.443-1.001,0.499-1.582c7.375,3.842,16.653,3.291,24.249,0.622c4.13-0.882,2.364-7.103-1.734-6.294
	c-3.062,0.604-6.137,0.721-9.064,0.375c-0.104-0.293-0.271-0.564-0.517-0.779c-0.892-0.783-1.855-1.361-2.921-1.796
	c-0.021-0.51-0.139-1.031-0.393-1.545c-0.947-1.919-1.924-3.823-2.896-5.728c1.126-0.447,2.189-1.063,3.192-1.845
	c0.057-0.044,0.099-0.095,0.147-0.141c2.44-0.522,4.979-0.72,7.315-0.81c0.028-0.001,0.053-0.01,0.081-0.012
	c0.78,0.911,2.091,1.226,3.181,0.587c1.106-0.648,1.678-2.299,0.896-3.42c-0.527-0.76-1.039-1.531-1.58-2.282
	c-0.293-0.407-0.631-0.74-1.001-1.028c-0.58-1.603-1.255-3.103-2.062-4.493c-0.24-0.503-0.533-0.978-0.888-1.411
	c-2.02-3.012-4.658-5.562-8.051-7.867c-1.107-0.753-2.272-1.427-3.464-2.058c0.548-0.404,1.084-0.831,1.608-1.27
	c0.673-0.084,1.35-0.291,1.996-0.674c0.938-0.553,1.748-1.178,2.563-1.899c0.557-0.492,1.605-0.806,1.878-1.426
	c4.959-2.92,8.158-7.441,10.327-13.368c0.981-2.688-1.964-5.097-4.452-4.453c-6.085,1.574-12.246,3.698-18.558,4.106
	c-2.237,0.146-5.469-1.031-7.653-1.549c-2.736-0.647-5.312-1.415-8.028-1.654c-1.281-0.605-2.625-1.132-3.963-1.667
	c-4.58-1.833-9.255-3.441-13.866-5.191c-8.372-3.177-16.704-6.846-24.404-11.437c-5.143-3.064-10.033-6.374-15.414-8.883
	c-1.294-2.135-3.581-3.693-6.148-3.492c-1.95,0.153-3.881,0.271-5.794,0.398c-1.167,0.003-2.326,0.085-3.478,0.251
	c-6.193,0.501-12.208,1.39-18.083,4.161c0.696-5.821,1.097-11.679,1.636-17.554c0.291-3.173-4.798-4.603-6.113-1.656
	c-8.406,18.833-26.565,26.205-44.873,32.057c-7.357,1.365-14.682,2.92-21.835,5.142c-2.612,0.811-5.405,1.824-8.196,3.05
	c-0.684-0.093-1.423,0.059-2.092,0.578c-0.411,0.319-0.808,0.647-1.206,0.976c-6.472,3.28-12.531,7.788-15.832,13.749
	c-0.528-2.993-0.701-6.002-0.354-8.896c0.226-1.886-2.446-2.247-3.317-0.898c-11.046,17.098-26.133,51.265-8.831,67.839
	c-2.558,0.348-5.027,0.887-7.24,1.776c-0.962-0.32-1.924-0.585-2.869-0.795c-0.007-0.002-0.015-0.004-0.022-0.006
	c-1.078-3.681-6.733-3.178-7.188,1.085c-0.834,7.815,5.191,13.299,11.63,16.454c2.907,2.27,6.226,3.995,9.643,4.836
	c-4.304,7.303-9.786,11.387-17.722,14.589c0.064,0.049,0.128,0.098,0.192,0.146c-3.769,1.155-4.884,7.112-0.192,8.097
	c1.269,0.266,2.514,0.37,3.734,0.343c3.606,1.153,7.38,1.605,11.195,1.255c-0.136,0.182-0.274,0.367-0.395,0.532
	c-5.109,7.008-8.938,15.957-8.472,24.748c0.15,2.826,4.314,6.103,5.736,3.165c1.199-2.478,2.031-3.5,3.167-6
	c0.847,0.323,2.116-2.89,3.243-3.236c0.047,0.904,0.1,1.804,0.162,2.696c0.219,3.178,0.583,6.271,1.079,9.311
	c-0.968,5.818-1.438,12.162-0.566,17.961c0.039,0.256,0.119,0.485,0.216,0.7c-0.725,1.113-1.195,2.5-1.462,3.531
	c-0.244,1.006-0.905,2.751-0.338,3.538c-0.623,1.071-0.342,1.446-0.955,2.542c-0.171,1.329-0.547,2.632-0.972,3.729
	c-0.65,1.676-1.643,3.814-3.004,5.479c0.588,0.906,1.702,1.383,2.956,0.616c4.279-2.616,9.945-7.039,13.844-12.244
	c0.764-0.122,1.517-0.591,2.028-1.253c0.414,1.012,0.872,2.009,1.351,2.999c-0.429,0.687-0.658,1.498-0.543,2.332
	c1.229,8.907,9.567,22.396,19.671,22.977c1.402,1.478,3.027,2.762,5.196,2.562c1.081-0.1,2.019-0.664,2.323-1.77
	c0.286-1.041-0.204-2.205-1.127-2.731c0.167-0.392,0.229-0.841,0.167-1.255c0.614-0.469,1.161-1.032,1.613-1.637
	c1.119-1.5,0.818-3.604,0.1-5.192c-1.453-3.216-4.837-5.161-7.981-4.988c-1.675-2.076-4.466-2.292-5.967-4.501
	c-0.931-1.369-2.761-4.15-4.033-3.832c-3.133-4.435-5.464-6.862-7.332-12.014c0.192-0.136,0.396-0.26,0.57-0.417
	c3.942-3.534,3.854-8.62,3.833-13.534c-0.023-5.129-0.161-10.298-0.691-15.401c-0.153-1.473-0.323-2.943-0.503-4.412
	c0.538-0.295,1.076-0.59,1.617-0.885c0.515,0.12,1.073,0.175,1.679,0.145c3.222-0.162,6.308-0.683,9.286-1.542
	c0.261,0.347,0.635,0.602,1.133,0.672c4.764,0.668,8.707,1.219,13.55,0.635c4.518-0.544,8.906-1.973,13.146-3.574
	c4.917-1.857,8.671-1.81,13.382-5.006c5.5,0.333,13.445-3.485,13.5-3.5c7.899-2.163,12.85-5.083,20-8.667
	c9.897-3.587,10.978-4.732,19.333-11.333c1.005-0.794,7.166-6.673,8.166-7.5c10.746-6.927,15.336-12.885,24.331-22.115
	c-2.254,16.013-8.124,31.055-13.917,46.099c-1.16,3.015,3.285,5.426,5.354,3.118c3.191-3.557,4.337-7.149,5.153-11.507
	c0.315-0.012,0.641-0.106,0.958-0.309c2.195-1.407,2.924-4.243,3.728-6.621c0.079-0.237,0.142-0.48,0.215-0.719
	c0.925,0.716,2.149,0.882,3.447-0.087c4.146-6.276,7.608-14.363,6.61-22.207c1.193-3.79,2.152-7.653,3.035-11.559
	c0.162-0.719,0.312-1.439,0.466-2.16c0.689,2.471,1.431,4.886,1.872,7.105c0.701,3.527,0.474,14.99,6.965,13.39
	c1.519-0.374,2.519-1.187,3.172-2.25c0.809,0.867,1.666,1.685,2.575,2.458c0.175,0.237,0.342,0.48,0.521,0.715
	c5.506,7.285,15.636,16.424,23.925,12.516c0.412,0.001,0.813-0.043,1.209-0.126c0.375,1.404,0.835,2.794,1.376,4.133
	c0.354,2.717,0.773,5.425,1.158,8.15c0.52,3.698,0.585,7.872,2.264,11.214c0.167,2.252,0.294,4.507,0.304,6.77
	c0.036,8.212-0.888,16.394-2.446,24.447c-1.559,8.031-4.93,15.188-8.148,22.63c-0.544,1.258-1.42,0.861-1.959,2.08
	c-1.438-0.749-2.908,1.251-4.021,2.4c-0.841,0.867-2.099,1.601-2.312,2.767c-0.037,0.205-1.637,1.613-1.667,1.833
	c-2.202,1.272-2.592,1.901-4.5,3.833c-1.666,0.5-3.139,2.327-2.638,4.458c-0.574,1.477-0.116,3.208,0.595,4.833
	c-0.738,1.433,0.107,3.558,0.993,4.771c0.204,0.278,0.427,0.521,0.657,0.746c0.006,0.78,0.66,1.569,1.566,1.254
	c0.08-0.025,0.156-0.064,0.236-0.097c0.739,0.286,1.551,0.433,2.427,0.441c0.821,0.009,1.867-0.479,2.217-1.271
	c0.301-0.686,1.319-0.438,1.444-1.137c0.942,0.084,1.146-1.133,2.029-1.977c0.791-0.082,1.562-0.404,2.17-0.992
	c1.057-1.022,2.045-2.074,2.953-3.178c2.046-1.834,4.144-3.646,3.991-6.66c1.721-2.432,3.276-4.936,4.561-7.44
	c1.091-2.134,1.989-4.34,2.769-6.589c1.362,3.838,3.349,7.397,6.243,10.294c1.604,1.603,4.504-0.006,3.837-2.233
	c-2.104-7.021,0.564-15.527,2.079-22.447c1.658-7.569,3.921-14.67,4.485-22.456c0.155-2.166,0.166-4.333,0.082-6.498
	c0.747,1.536,1.547,3.066,2.398,4.612c1.514,2.732,6.018,1.552,5.909-1.601c-0.21-6.272-0.792-12.448-2.621-18.475
	c-1.095-3.605-2.882-8.775-6.196-11.162c-0.026-0.05-0.054-0.101-0.08-0.151c-0.994-1.722-2.385-3.076-3.737-4.48
	c0.438-1.509,0.314-2.89-0.142-4.21c6.412,1.69,13.4,2.277,19.605,2.5C435.921,206.186,436.762,199.277,432.409,198.123z"></path>

<path fill="#1A1A1A" d="M282.84,470.354c-2.979-0.143-6.059,0.515-9.068,1.736c-2.522,0.256-5.071,0.346-7.707,0.394
	c-4.866,0.088-9.838,1.229-14.631,2.008c-5.414,0.879-11.441,1.371-15.609,5.045c-1.807-0.01-3.608,0.021-5.412,0.178
	c-0.652-0.233-1.368-0.262-2.105,0.043c-0.478,0.232-0.981,0.387-1.511,0.461c-3.232,0.773-3.698,5.248-1.299,6.982
	c-0.534,2.108-0.552,4.387-0.217,6.562c-0.532,0.947-1.023,1.939-1.461,2.992c-1.129,2.717,1.714,6.162,4.52,5.935
	c9.498-0.771,18.474-4.437,28-4.902c1.558-0.076,3.365-1.084,3.649-2.779c0.396-2.358,1.758-4.545,3.418-6.516
	c0.478-0.193,0.947-0.392,1.396-0.584c1.171-0.506,2.128-1.312,3.021-2.211c0.922-0.931,1.331-1.904,1.546-3.041
	c1.609-1.363,3.339-2.609,5.185-3.607c2.993-0.967,6.008-1.881,9.122-2.512C287.303,475.799,286.244,470.516,282.84,470.354z"></path>
<path fill="#1A1A1A" d="M384.902,483.518c-0.207-0.87-0.527,0.67-0.277-4.205c-0.347-2.41,0-0.938-0.125-2.125
	c0.562-2.562-1.095-7.02-3.66-7c-14.504,0.115-28.975-5.334-43.504-2.327c-0.414,0.086-0.782,0.262-1.11,0.487
	c-1.117-0.229-2.328-0.28-3.341-0.422c-0.307-0.043-0.606-0.059-0.91-0.09c-0.023-0.004-0.047-0.01-0.069-0.014
	c-0.025-0.004-0.047-0.011-0.072-0.013c-2.181-0.209-4.305,0.189-6.487,0.189c-0.002,0-0.345,0-0.345,0v0.012
	c0,0.017-0.033,0.029-0.136,0.045c-0.988,0.164-0.936,1.519-0.298,2.041c-0.81,0.785-0.849,2.439,0.315,2.968
	c9.705,4.395,21.246,8.303,26.521,18.161c5.604,10.478,18.776,10.582,29.427,10.021c1.042-0.057,1.913-0.404,2.597-0.953
	c1.681,0.512,3.715-0.533,3.916-2.793C387.77,492.691,385.997,488.137,384.902,483.518z"></path>

<path fill="#808080" d="M382.632,457.322c-0.164-0.25-0.313-0.502-0.469-0.752c1.394-1.848,1.932-4.223,0.854-6.824
	c-0.919-2.221-1.898-4.43-2.894-6.637c-0.085-6.662-1.612-14.125-4.146-20.684c-0.168-0.643-0.326-1.287-0.522-1.924
	c-0.216-0.701-0.572-1.234-1-1.648c-0.443-0.941-0.91-1.854-1.396-2.73c-0.009-0.084-0.021-0.168-0.026-0.252
	c-0.188-1.908-0.424-3.816-0.676-5.723c0.022-4.271-0.899-9.076-1.878-13.08c-1.51-10.771-4.306-21.627-7.834-31.941
	c-0.007-0.162-0.016-0.322-0.021-0.484c-0.11-2.99-0.057-6.037,0.024-9.104c1.312-0.105,2.607-0.719,3.696-2.029
	c2.969-3.574,9.188-5.455,13.116-8.02c3.418-2.229,3.299-7.424-0.323-9.152c0.239-3.994-1.795-8.771-2.769-12.304
	c-1.119-4.062-2.996-8.304-5.523-11.847c-0.478-3.338-1.163-6.625-2.622-9.459c-1.522-2.958-4.769-2.733-6.729-0.979
	c-3.157-0.936-5.496-0.249-9.371,3.251c-0.093,0.308-0.125-0.625-1.5,1.25c-2.75,2-6.454,3.129-7.875,4.375
	c-5.375,2.125-6.232,1.653-11.792,3.979c-0.356,0.147-8.891,0.838-9.208,1.021c-6.522-1.062-4.305-0.062-7.124,6.999
	c-1.737,4.352-3.443,10.043-4.875,14.5c-0.668,2.08-1.372,2.769-2.25,4.625c-0.052,0.072-0.2,2.299-0.25,2.375
	c-2.021,3.104-3.337,4.751-4.629,8.468c-1.176,0.004-2.438,0.39-3.597,0.423c-0.12,0.004-0.241,0-0.361,0.002
	c-3.539-8.141-7.337-16.72-12.306-24.199c-1.9-4.049-3.987-8.086-7.146-11.186c-0.952-0.934-1.985-1.279-2.954-1.23
	c-1.699-0.729-3.564-1.146-5.416-1.562c-6.125-1.379-12.588-1.376-18.768-2.531c-1.669-0.574-3.422-0.968-5.29-1.354
	c-0.424-0.146-0.832-0.244-1.23-0.318c-1.502-2.104-3.479-3.834-6.12-4.913c-2.628-1.074-5.321,0.764-6.777,2.758
	c-2.897,3.969-2.465,8.274-1.534,12.61c-1.426,6.25-2.699,12.541-4.019,18.813c-0.652,0.752-1.059,1.779-1.022,3.104
	c-0.135,1.076-0.246,2.141-0.32,3.213c-1.348,1.355-2.045,3.482-1.049,5.408c1.623,3.139,5.153,5.229,9.055,6.729
	c2.236,2.75,6.031,4.023,9.249,3.277c-0.028,0.24-0.056,0.48-0.085,0.719c-1.596,8.604-3.799,17.104-4.156,25.898
	c-1.291,4.893-2.709,9.742-3.599,14.699c-1.566,8.719-3.367,17.395-4.897,26.119c-1.636,9.324-2.3,18.803-3.633,28.164
	c-1.612,2.307-2.036,5.408-1.37,8.113c-0.547,2.729-1.193,5.439-1.982,8.129c-1.797,6.131,7.927,10.514,10.509,4.432
	c0.147-0.35,0.275-0.699,0.416-1.047c4.439-1.193,9.32-0.826,13.786-2.312c0.808-0.268,1.502-0.676,2.085-1.18
	c14.479-1.438,28.886-3.402,43.399-4.727c1.829-0.166,3.656-0.324,5.482-0.486c8.479-0.037,17.03-1.197,25.701-1.379
	c8.201-0.176,16.354,1.209,24.54,1.49c9.041,0.312,18.083-0.012,27.125,0.021C381.661,468.307,385.694,462.01,382.632,457.322z"></path>

<path fill="rgba(26,26,26,0.5)"  d="M380.666,439c-1.588-12.568-3.653-25.121-6.02-37.568
	c-2.431-12.787-5.257-26.231-11.288-37.865c-0.544-1.049-1.229-1.791-1.989-2.274c-0.492-3.226-0.991-6.449-1.487-9.674
	c-1.99-12.95-1.543-26.207-4.479-39.013c-0.689-3.006-3.735-4.106-6.457-3.666c-6.27,1.017-17.9,1.61-19.73,9.604
	c-0.938,4.094-0.316,8.704-0.432,12.87c-0.068,2.524,0.461,5.144,0.518,7.685c0.041,1.81-0.063,3.613-0.167,5.42
	c-2.774,2.174-5.791,3.86-8.859,5.592c-2.412,1.359-3.21,4.598-1.825,6.961c0.146,0.248,0.313,0.457,0.482,0.666
	c0.628,1.281,1.828,2.246,3.598,2.334c-0.748,0.992-1.163,2.254-0.929,3.602c0.265,1.51,0.488,2.992,0.616,4.475
	c-0.024,0.556-0.05,1.109-0.072,1.664c-0.323,0.621-0.521,1.345-0.503,2.191c0.263,11.611,1.669,22.857,3.132,34.375
	c0.744,5.875,1.3,11.752,1.334,17.676c0.031,5.4-0.828,10.57-1.17,15.869c-0.904,2.75,0.154,6.353,3.475,7.267
	c0.155,0.043,0.311,0.086,0.465,0.129c1.774,0.487,3.523,0.03,4.867-1.041c12.15-4.097,24.747-2.498,37.284-4.164
	c0.186,0.217,0.353,0.448,0.548,0.655C374.448,446.055,381.249,443.619,380.666,439z"></path>
<path fill="rgba(26,26,26,0.5)"  d="M282.775,356.775c0.743-4.58-1.814-7.965-6.436-8.449
	c-4.867-0.51-5.414-1.637-6.27-6.393c-0.788-4.388-0.643-8.996-0.778-13.435c-0.04-1.291-0.452-2.415-1.103-3.347
	c1.08-0.866,1.802-2.112,1.65-3.653c-0.091-0.931-0.209-1.856-0.359-2.778c-0.334-2.052-2.679-3.574-4.641-3.533
	c-1.6,0.033-4.018-1.701-5.633-2.197c-2.306-0.707-4.852-0.338-6.863,0.896c-2.12-0.507-4.457,0.424-5.085,2.891
	c-0.007,0.031-0.015,0.062-0.023,0.093c-0.352,1.383-0.023,2.685,0.779,3.713c-0.271,1.158-0.471,2.368-0.72,3.608
	c-4.813,8.037-3.797,18.752-2.371,27.716c0.097,0.61,0.266,1.155,0.481,1.651c-0.474,3-0.982,5.992-1.45,8.972
	c-0.906,5.774-1.658,11.577-2.042,17.413c-4.051,4.812-6.446,10.343-8.295,16.65c-1.051,3.584-1.776,7.156-2.367,10.84
	c-0.725,4.517-2.341,9.128-0.884,13.628c0.142,0.438,0.325,0.846,0.525,1.237c-0.512,2.597-0.999,5.199-1.509,7.799
	c-1.662,8.472-4.405,16.431-3.761,24.994c-0.396,0.938-0.735,1.886-0.502,1.525c-1.874,2.881,1.191,6.188,4.212,5.479
	c5.596-1.311,11.009-3.258,16.455-5.084c0.465,0.201,0.979,0.354,1.554,0.425c4.296,0.534,8.472,0.35,12.777-0.048
	c4.132-0.381,8.98-0.7,12.499-3.141c0.28-0.195,0.527-0.404,0.758-0.619c1.761,0.74,3.829,0.588,5.223-0.873
	c2.586-2.711,1.643-5.194,0.646-8.481c-0.287-0.945-0.581-1.89-0.876-2.832c0.038-0.088,0.086-0.16,0.121-0.248
	c2.65-6.621,1.521-15.185,0.419-22.051c-1.142-7.117-2.929-14.14-4.529-21.164c0.298-1.474,0.603-2.941,0.905-4.408
	C277.81,381.318,280.771,369.129,282.775,356.775z"></path>

<g>
	<path fill="#1A1A1A" d="M423.163,406.209c-4.354-8.998-9.647-17.508-14.821-26.045c-6.675-11.016-12.323-22.676-18.068-34.195
		c-7.579-15.195-14.788-30.41-18.365-47.083c5.307-3.607,10.229-7.754,14.488-12.512c8.616-9.622,12.323-21.681,13.7-34.318
		c1.584-14.538-0.715-29.608-4.881-43.54c-3.786-12.662-9.725-26.516-19.356-35.847c-2.726-2.64-7.691,0.871-5.398,4.166
		c13.619,19.575,21.781,41.418,22.042,65.493c0.116,10.798-1.616,22.225-7.124,31.662c-5.175,8.865-13.824,15.376-22.499,20.53
		c-18.053,10.727-40.441,17.032-61.447,17.256c-20.624,0.221-41.908-2.006-61.425-8.931c-18.381-6.521-35.912-19.696-38.407-40.287
		c-1.278-10.546,0.13-21.12,1.06-31.621c0.625-7.068,2.922-15.557-0.481-22.065c-0.591-1.13-2.3-0.809-2.627,0.343
		c-2.232,7.844-3.524,16.325-4.705,24.51c-1.56,10.814-2.579,21.583-0.999,32.452c2.96,20.365,20.157,34.565,38.075,42.176
		c-6.567,22.816-13.621,46.576-25.089,67.484c-8.674,15.812-18.322,31.035-25.067,47.836c-5.168,12.873-9.756,29.578,2.661,39.662
		c8.357,6.789,17.976,5.875,25.903-1.01c5.7-4.947,9.731-11.91,13.024-18.959c-2.392,15.482-3.315,31.02-2.899,46.678
		c0.427,16.064,1.99,32.576,6.394,48.08c0.088,0.309,0.186,0.621,0.278,0.934c1.946-0.383,3.894-0.744,5.847-1.092
		c-0.515-2.232-0.962-4.475-1.241-6.73c-0.137-0.668-0.257-1.355-0.367-2.047c-0.128-0.67-0.249-1.346-0.354-2.025
		c-3.084-13.184-3.937-26.875-4.151-40.367c-0.245-15.398,1.384-30.393,3.051-45.684c0.769-7.051,1.672-14.066,2.654-21.068
		c2.686-8.141,4.942-16.432,7.002-24.729c3.243-13.061,5.641-26.098,7.072-39.477c0.92-8.596,2.421-17.584,1.795-26.248
		c-0.233-3.229-4.739-3.211-5,0c-0.851,10.479-2.698,20.814-4.953,31.072c-3.44,15.654-6.532,31.389-10.891,46.826
		c-3.961,14.027-8.635,28.33-16.361,40.789c-4.136,6.672-11.081,15.242-19.383,11.244c-9.81-4.725-9.703-14.648-7.208-23.992
		c3.624-13.572,10.888-26.197,17.817-38.305c6.196-10.826,12.52-21.279,17.458-32.762c7.374-17.148,14.464-35.773,15.913-54.537
		c18.371,7.039,38.378,9.604,57.929,10.332c20.947,0.779,41.149-3.383,60.372-11.703c4.333-1.875,8.605-4.021,12.712-6.454
		c4.708,26.616,17.62,52.239,30.732,75.567c8.06,14.34,18.437,27.264,24.331,42.795c2.127,5.604,4.82,14.037,0.649,19.414
		c-2.971,3.828-9.704,5.881-13.994,3.797c-4.979-2.42-8.774-7.521-11.845-11.947c-4.644-6.691-8.348-14.037-11.753-21.416
		c-6.929-15.02-12.276-30.824-16.742-46.734c-1.86-6.627-3.509-13.32-4.851-20.072c-0.531-2.67-0.986-5.354-1.355-8.051
		c-0.29-2.113-1.438-4.203-1.895-6.328c-0.356-1.662-3.039-1.691-3.375,0c-2.537,12.783,2.379,26.979,5.718,39.299
		c1.858,6.855,3.914,13.68,6.184,20.432c2.729,26.465,8.467,52.533,12.82,78.762c4.628,27.883,9.206,56.408,2.769,84.443
		c-1.034,4.504-5.738,21.914-12.935,12.596c-2.579-3.34-2.64-8.588-2.798-12.59c-0.199-5.041,0.126-10.102,0.363-15.133
		c0.976-20.656-8.709-43.875-24.867-56.836c-20.366-16.336-51.502-15.779-72.273-0.607c-11.505,8.402-17.736,19.145-19.38,33.361
		c-0.845,7.305-0.447,14.984-0.459,22.598c2.242-0.23,4.486-0.436,6.729-0.592c-0.076-2.055-0.188-4.109-0.323-6.158
		c-0.882-13.418-0.973-27.004,8.108-37.893c7.24-8.68,18.27-12.104,28.976-14.236c10.63-2.117,21.176-0.918,31.281,2.738
		c20.622,7.461,34.548,33.715,35.415,54.77c0.384,9.297-1.01,18.672,1.259,27.828c1.666,6.721,8.573,13.586,15.977,10.496
		c8.469-3.535,9.771-16.455,11.369-24.191c3.69-17.863,2.419-36.975,1.12-55.023c-1.938-26.941-8.469-53.164-13.624-79.623
		c0.935,2.117,1.896,4.223,2.887,6.312c5.307,11.189,12.634,26.344,24.966,31.203c5.557,2.189,11.771,0.566,16.828-2.223
		c5.909-3.26,8.457-9.617,8.388-16.096C431.141,423.492,427.124,414.395,423.163,406.209z"></path>
	<path fill="#1A1A1A" d="M259.09,542.25c-0.115-2.881-0.161-5.869-0.5-8.75c-1.932,0.396-4.771,1.654-6.706,1.951
		c0.531,4.338,0.581,8.049,0.831,11.924c0.034,0.531,0.054,1.225,0.056,2.006c0.435,2.518,0.191,5.445,0.009,7.703
		c-0.161,1.986-0.639,4.543-2.324,5.883c-0.469,0.479-1.115,0.82-1.802,0.982c-2.66,1.51-6.459-1.125-8.111-2.979
		c-3.825-4.291-4.924-11.176-6.068-16.531c-0.54-2.527-1.193-5.057-1.756-7.598c-1.612-0.342-4.28,0.416-5.899,0.92
		c1.993,8.107,3.265,16.42,7.205,23.895c3.387,6.426,12.128,11.682,18.86,6.672C260.585,562.598,259.422,550.533,259.09,542.25z"></path>
</g>

<path fill="#1A1A1A" d="M373.573,229.176c-3.676,7.143-15.558,9.681-20.33,2.004c-1.112-1.788-3.757-0.221-2.809,1.641
	c5.354,10.484,22.339,8.768,27.672-0.996C379.734,228.845,375.117,226.175,373.573,229.176z"></path>
<path fill="#1A1A1A" d="M258.897,230.865c-3.672,8.664-13.986,9.291-19.79,2.368c-2.083-2.485-5.545,1.068-3.535,3.535
	c7.958,9.773,23.3,8.181,27.438-4.169C263.812,230.203,259.896,228.51,258.897,230.865z"></path>

<path fill="#1A1A1A" d="M391.34,204.688c-12.855,0.367-17.716-10.064-24.014-19.433c-1.332-1.981-4.768-2.499-5.973,0
	c-0.683,1.415-1.276,2.858-1.823,4.315c-0.828-5.588-1.863-11.127-3.876-16.483c-1.152-3.066-5.642-3.474-6.629,0
	c-4.889,17.196-9.556,39.941-24.466,51.702c7.533-17.273,16.693-34.357,19.548-53.025c0.458-2.995-3.605-5.315-5.245-2.211
	c-12.474,23.609-37.679,36.375-61.014,46.989c-13.078,5.949-26.166,12.469-40.227,15.679c-7.15,1.632-14.439,2.698-21.7,3.689
	c-7.383,1.007-15.533,1.654-22.118,5.174c-0.758,0.405-0.671,1.798,0.254,1.942c7.344,1.144,15.292-0.027,22.727-0.743
	c7.625-0.733,15.235-1.571,22.718-3.242c14.598-3.26,28.21-10.472,41.666-16.821c19.116-9.02,39.313-19.879,53.293-36.189
	c-5.416,15.373-13.972,29.57-19,45.176c-0.849,2.633,2.186,4.516,4.386,3.372c18.927-9.839,26.504-28.253,32.264-47.371
	c1.054,6.553,1.509,13.233,2.685,19.77c0.687,3.812,6.057,3.196,7.09,0c1.333-4.124,2.164-8.395,3.389-12.543
	c6.551,9.505,14.105,19.197,26.947,16.761C395.93,210.491,395.027,204.583,391.34,204.688z"></path>
<path fill="#1A1A1A" d="M443.148,199.068c-14.662-2.668-26.355-12.98-38.168-21.981c9.198-0.342,18.154-3.841,23.46-11.858
	c1.459-2.204-1.299-4.297-3.329-3.329c-7.604,3.627-16.104-0.135-22.728-4.731c5.283-1.027,10.417-1.891,15.956-1.218
	c1.938,0.235,3.314-2.056,2.845-3.734c-2.489-8.896-9.501-15.973-17.5-20.402c9.206-5.923,16.379-14.693,14.778-26.399
	c-0.162-1.189-1.669-1.827-2.708-1.538c-14.166,3.938-27.511,5.124-41.566,0.158c-12.447-4.397-22.938-12.802-33.991-19.751
	c-14.834-9.326-35.18-16.803-49.618-7.145c1.128-6.282,1.264-12.742,0.698-19.138c-0.256-2.901-3.803-4.021-5.474-1.482
	c-7.688,11.677-17.127,21.848-29.273,28.944c-10.471,6.117-22.051,8.178-33.756,10.481c-12.938,2.545-27.731,6.984-33.919,17.646
	c-0.181-4.508-0.127-9.031,0.071-13.589c0.116-2.66-3.522-3.413-4.821-1.306c-8.353,13.554-15.991,28.361-19.885,43.872
	c-1.851,7.372-2.554,15.286-0.369,22.658c1.232,4.16,3.523,7.392,6.46,10.028c-4.735-1.021-9.465-2.068-14.226-2.961
	c-1.743-0.327-3.597,0.764-3.557,2.709c0.276,13.276,9.612,27.753,23.546,25.772c-5.082,8.998-18.229,13.447-27.484,15.517
	c-2.764,0.618-2.612,4.716,0,5.422c8.939,2.415,18.164,4.187,26.81,2.535c-2.017,2.801-3.663,5.937-5.106,9.091
	c-3.793,8.289-5.935,18.189-3.872,27.192c0.485,2.12,3.149,1.651,3.832,0c2.002-4.841,4.923-9.048,8.125-13.089
	c-0.717,6.132-0.59,12.333-0.508,18.536c0.125,9.476,0.526,21.805-6.253,29.304c-0.575,0.635-0.209,1.759,0.721,1.74
	c6.74-0.137,13.168-4.093,18.06-9.04c0.48,14.977,14.73,23.256,29.392,27.009c1.463,0.374,3.033-1,2.537-2.537
	c-1.458-4.52-0.111-8.86,0.074-13.452c0.107-2.661-4.018-2.65-4.125,0c-0.156,3.875-0.964,7.413-0.623,11.085
	c-13.338-4.146-25.903-12.533-22.208-28.505c0.565-2.445-2.632-3.766-3.992-1.683c-2.46,3.769-5.521,6.915-9.089,9.648
	c-2.418,1.853-5.148,2.952-7.831,4.204c3.26-6.91,5.909-13.208,6.394-21.247c0.63-10.455-0.327-20.726,2.154-31.023
	c0.394-1.632-1.8-3.234-3.02-1.758c-3.649,4.415-7.245,8.886-10.292,13.722c-0.156-10.689,3.117-23.796,11.052-30.744
	c2.682-1.037,5.285-2.481,7.781-4.437c1.424-1.116-0.113-3.53-1.738-2.986c-2.405,0.806-4.496,2.013-6.349,3.491
	c-6.485,2.541-13.445,2.079-20.33,0.485c10.596-3.519,20.844-10.232,22.685-21.556c0.529-3.255-4.262-4.731-5.047-1.444
	c-10.726,1.048-17.852-8.255-19.378-18.071c6.971,0.843,13.912,1.923,20.894,2.678c2.275,0.246,2.252-2.931,0.495-3.655
	c-15.687-6.465-14.003-24.48-9.761-37.765c3.376-10.574,8.843-20.096,14.091-29.757c0.315,6.667,0.794,13.307,2.056,19.901
	c0.462,2.417,4.64,1.874,4.317-0.584c-3.088-23.54,24.767-26.56,41.816-29.55c11.824-2.073,22.936-6.002,32.955-12.698
	c7.961-5.32,14.624-12.285,20.381-19.904c-0.187,6.967-1.424,13.819-4.182,20.371c-1.332,3.164,3.693,4.994,5.369,2.263
	c12.658-20.634,42.191-3.136,56.705,6.289c10.779,7,22.839,12.932,35.563,15.246c11.556,2.101,23.739,0.532,35.112-2.225
	c-0.287,9.965-8.607,16.687-17.196,21.021c-1.58,0.798-1.73,3.625,0,4.374c4.471,1.934,8.266,4.417,11.572,8.019
	c2.37,2.581,3.799,5.596,5.278,8.629c-5.515,1.083-10.959,2.361-16.572,3.052c-1.666,0.205-3.005,2.227-1.494,3.606
	c4.175,3.81,8.787,7.585,14.176,9.522c2.524,0.908,4.816,1.298,7.064,1.307c-6.557,3.417-14.372,3.752-21.932,1.724
	c-0.292-0.078-0.566-0.104-0.832-0.105c-0.098-0.003-0.192,0.001-0.284,0.016c-2.985,0.28-3.945,5.182-0.513,5.996
	c1.098,0.26,2.219,0.464,3.348,0.641c6.589,5.525,12.645,11.673,19.346,17.076c5.245,4.229,10.488,7.192,16.365,9.139
	c-7.075,1.931-15.286,1.856-20.165-2.888c-2.72-2.646-6.821,1.452-4.158,4.159c9.524,9.684,17.423,26.363,13.662,40.358
	c-3.099-5.798-6.101-11.411-10.243-16.604c-0.003-0.005-0.006,0.166-0.009,0.166c-0.001,0-0.001,0-0.002,0
	c-0.144-1-0.274-0.549-0.421-0.728c-1.962-2.392-5.855,0.621-4.239,3.181c6.852,10.846,5.866,22.993,3.648,35.092
	c-1.443,7.877-4.206,16.764-4.355,25.217c-2.768-4.038-4.89-8.597-6.813-13.006c-1.226-2.812-4.925-0.619-4.548,1.912
	c2.008,13.477-8.401,29.994-22.601,31.273c-2.654,0.238-2.606,4.445,0,4.123c7.762-0.961,14.876-5.688,18.852-12.421
	c2.174-3.682,4.949-6.768,6.604-10.771c0.541-1.308,0.968-2.666,1.302-4.047c2.472,4.174,5.327,8.055,8.583,11.835
	c1.464,1.699,3.844,0.185,4.008-1.66c0.558-6.292,0.703-12.423,1.825-18.68c1.112-6.198,2.507-12.335,3.437-18.565
	c0.629-4.213,0.94-8.419,0.779-12.553c0.72,1.408,1.445,2.814,2.203,4.206c0.989,1.818,3.825,1.811,4.816,0
	c7.014-12.807,3.625-30.518-4.565-43.268c8.123,1.195,17.175-0.797,23.692-4.514C446.025,203.4,445.81,199.552,443.148,199.068z"></path>

<path fill="#1A1A1A" d="M256.84,496.562c-10.521,0.652-20.943,1.164-31.38,2.744c-4.239,0.641-2.392,6.951,1.761,6.389
	c9.842-1.336,19.767-1.961,29.62-3.258C260.477,501.959,260.708,496.324,256.84,496.562z"></path>
<path fill="#1A1A1A" d="M387.009,496.486c-9.776,2.291-20.21,0.604-30.169,1.326c-3.479,0.252-3.443,5.072,0,5.375
	c10.78,0.951,21.175,1.879,31.831-0.674C392.592,501.574,390.928,495.568,387.009,496.486z"></path>

<path fill="#1A1A1A" d="M329.269,284.348c-18.148,3.89-36.808,4.522-55.269,3.027c-2.127-0.172-2.016,2.981,0,3.25
	c1.843,0.246,3.69,0.466,5.539,0.671c0.03,0.151,0.078,0.305,0.166,0.461c2.002,3.553,4.311,6.89,7.737,9.198
	c0.594,0.4,1.451-0.002,1.625-0.661c0.554-2.1,1.569-3.917,2.635-5.79c0.385-0.676,0.851-1.389,1.221-2.133
	c12.662,0.603,25.345-0.048,37.81-2.72C334.198,288.909,332.728,283.607,329.269,284.348z M289.65,294.128
	c-0.861,1.28-1.596,2.622-2.169,4.04c-1.996-1.804-3.351-4.098-4.524-6.519c2.608,0.25,5.22,0.457,7.833,0.61
	C290.416,292.897,290.047,293.538,289.65,294.128z"></path>

<path fill="#1A1A1A" d="M383.34,465.125c-27.6-0.998-55.169-0.076-82.732,1.443c-13.215,0.729-26.644,1.487-39.751,3.338
	c-12.703,1.793-27.857,3.424-38.799,10.608c-0.472,0.31-0.285,1.021,0.284,1.048c12.646,0.573,25.742-3.863,38.178-5.849
	c14.006-2.235,27.766-4.192,41.947-4.93c26.947-1.398,53.944,1.117,80.875,2.09C388.34,473.057,388.322,465.305,383.34,465.125z"></path>
<path fill="#1A1A1A" d="M284.741,372.885c1.181-7.098,4.098-13.594,4.349-20.885c0.06-1.717-1.198-3.109-2.753-3.615
	c-6.393-2.084-10.714-5.281-13.212-11.576c-2.4-6.047-2.043-12.513-1.223-18.809c0.231-1.771-2.651-2.09-3.069-0.415
	c-1.86,7.472-4.191,15.478-2.146,23.13c1.843,6.898,8.324,11.254,14.701,13.824c-0.666,5.568-2.721,10.855-3.904,16.346
	c-1.52,7.049-2.076,14.457-2.999,21.609c-1.063,8.234-1.165,15.781-0.301,23.955c0.832,7.858,1.802,15.705,2.606,23.567
	c0.335,3.273,0.652,6.552,0.857,9.837c0.035,0.561-0.019,1.268-0.006,1.94c-17.785,1.896-35.848,4.644-52.883,10.096
	c-2.675,0.857-1.538,5.068,1.163,4.22c17.895-5.621,36.168-6.853,54.567-9.759c1.375-0.219,1.886-1.522,1.701-2.717
	c1.012-2.653,0.194-7.471,0.118-9.024c-0.418-8.439-1.078-16.867-1.57-25.304c-0.486-8.338-0.25-15.616,0.976-23.938
	C282.814,387.887,283.501,380.344,284.741,372.885z"></path>
<path fill="#1A1A1A" d="M378.46,443.678c-8.356-2.787-17.731-2.248-26.37-1.489c-7.858,0.688-15.65,1.979-23.126,4.469
	c-1.354-2.474-1.129-6.498-1.391-9.238c-0.479-5-0.823-10.004-1.193-15.014c-0.886-12.011-1.884-24.008-2.396-36.041
	c-0.48-11.316-0.104-23.529-2.891-34.554c-0.057-0.223-0.148-0.412-0.258-0.584c5.949-3.438,10.879-6.627,13.252-13.643
	c2.561-7.564,0.136-16.139-1.935-23.498c-1.198-4.261-7.869-2.438-6.629,1.828c3.349,11.518,6.554,27.227-7.685,32.779
	c-1.587,0.617-1.549,2.281-0.744,3.154c-0.036,0.159-0.06,0.327-0.055,0.512c0.365,12.563-0.588,25.146-0.073,37.742
	c0.521,12.7,1.595,25.374,2.416,38.059c0.433,6.666-0.264,16.272,3.324,22.17c0.227,0.373,0.492,0.658,0.771,0.904
	c0.334,1.129,1.425,2.024,3.04,1.735c7.989-1.428,16.118-2.539,24.188-3.397c8.384-0.894,17.696-1.613,25.823,1.098
	C380.98,452.154,382.872,445.15,378.46,443.678z"></path>
<path fill="#1A1A1A" d="M249.177,315.725c0.152-2.162,0.323-4.373-0.557-6.266c-0.496-1.066-1.892-1.203-2.822-0.738
	c-0.843,0.42-1.411,1.004-1.806,1.688c-0.168,0.146-0.322,0.318-0.434,0.551c-0.753,1.557-0.833,3.25-0.657,4.986
	c-0.339,3.861-0.381,7.803-0.454,11.671c-0.092,4.935,0.015,9.927-0.366,14.846c-0.361,4.655-3.012,10.2-0.362,14.485
	c0.652,1.055,2.045,1.211,2.945,0.379c3.039-2.812,2.62-7.084,2.552-10.979c-0.041-2.312,0.193-4.617,0.483-6.921
	c0.362-0.321,0.613-0.797,0.64-1.428c0.207-4.897,0.618-9.784,0.753-14.687C249.153,321.133,249.473,318.292,249.177,315.725z"></path>
<path fill="#1A1A1A" d="M359.791,323.088c-0.049-0.293-0.106-0.582-0.156-0.875c-0.724-4.82-1.299-9.641-1.106-14.463
	c0.023-0.624-0.144-1.132-0.426-1.531c-0.005-0.406-0.015-0.812-0.013-1.219c0.014-3.551-5.616-3.541-5.5,0
	c0.018,0.518,0.06,1.029,0.085,1.545c-1.854,3.469,0.243,11.441,0.66,13.975c0.696,4.238,1.391,8.52,2.171,12.781
	c0.046,1.69,0.118,3.336,0.688,5.016c0.073,0.218,0.217,0.394,0.386,0.533c0.406,1.965,0.838,3.92,1.309,5.857
	c0.704,2.898,5.521,2.332,5.268-0.713C362.571,336.994,360.944,330.01,359.791,323.088z"></path>
<path fill="#1A1A1A" d="M243.489,358.852c-2.633-2.449-6.355-3.043-9.638-4.309c-3.844-1.482-7.56-3.309-11.363-4.893
	c-2.546-1.062-4.379,3.313-1.878,4.455c3.756,1.713,7.432,3.592,11.204,5.27c3.422,1.523,7.204,3.43,10.958,2.193
	C243.884,361.201,244.427,359.725,243.489,358.852z"></path>
<path fill="#1A1A1A" d="M382.84,343.25c-3.029-0.244-5.729,2.029-8.318,3.408c-3.778,2.01-7.768,3.645-11.847,4.932
	c-3.06,0.965-1.786,5.709,1.33,4.822c3.709-1.059,7.269-2.453,10.798-3.996c3.294-1.441,8.017-2.629,9.979-5.779
	C385.749,345.086,384.459,343.381,382.84,343.25z"></path>
<path fill="#1A1A1A" d="M311.695,317.955c-2.683,5.502-4.89,11.189-7.045,16.914c-1.743,4.629-3.795,9.105-5.741,13.631
	c-7.254-8.389-11.136-20.4-14.399-30.598c-0.882-2.754-5.24-1.568-4.339,1.195c4.096,12.575,9.404,25.092,17.242,35.819
	c1.273,1.744,3.601,1.856,4.854,0c6.81-10.082,9.408-22.981,14.718-33.871C318.708,317.512,313.427,314.404,311.695,317.955z"></path>

<path fill="rgba(26,26,26,0.5)"  d="M380.666,439c-1.588-12.568-3.653-25.121-6.02-37.568
	c-2.431-12.787-5.257-26.231-11.288-37.865c-0.544-1.049-1.229-1.791-1.989-2.274c-0.492-3.226-0.991-6.449-1.487-9.674
	c-1.99-12.95-1.543-26.207-4.479-39.013c-0.689-3.006-3.735-4.106-6.457-3.666c-6.27,1.017-17.9,1.61-19.73,9.604
	c-0.938,4.094-0.316,8.704-0.432,12.87c-0.068,2.524,0.461,5.144,0.518,7.685c0.041,1.81-0.063,3.613-0.167,5.42
	c-2.774,2.174-5.791,3.86-8.859,5.592c-2.412,1.359-3.21,4.598-1.825,6.961c0.146,0.248,0.313,0.457,0.482,0.666
	c0.628,1.281,1.828,2.246,3.598,2.334c-0.748,0.992-1.163,2.254-0.929,3.602c0.265,1.51,0.488,2.992,0.616,4.475
	c-0.024,0.556-0.05,1.109-0.072,1.664c-0.323,0.621-0.521,1.345-0.503,2.191c0.263,11.611,1.669,22.857,3.132,34.375
	c0.744,5.875,1.3,11.752,1.334,17.676c0.031,5.4-0.828,10.57-1.17,15.869c-0.904,2.75,0.154,6.353,3.475,7.267
	c0.155,0.043,0.311,0.086,0.465,0.129c1.774,0.487,3.523,0.03,4.867-1.041c12.15-4.097,24.747-2.498,37.284-4.164
	c0.186,0.217,0.353,0.448,0.548,0.655C374.448,446.055,381.249,443.619,380.666,439z"></path>
<path fill="rgba(26,26,26,0.5)"  d="M282.775,356.775c0.743-4.58-1.814-7.965-6.436-8.449
	c-4.867-0.51-5.414-1.637-6.27-6.393c-0.788-4.388-0.643-8.996-0.778-13.435c-0.04-1.291-0.452-2.415-1.103-3.347
	c1.08-0.866,1.802-2.112,1.65-3.653c-0.091-0.931-0.209-1.856-0.359-2.778c-0.334-2.052-2.679-3.574-4.641-3.533
	c-1.6,0.033-4.018-1.701-5.633-2.197c-2.306-0.707-4.852-0.338-6.863,0.896c-2.12-0.507-4.457,0.424-5.085,2.891
	c-0.007,0.031-0.015,0.062-0.023,0.093c-0.352,1.383-0.023,2.685,0.779,3.713c-0.271,1.158-0.471,2.368-0.72,3.608
	c-4.813,8.037-3.797,18.752-2.371,27.716c0.097,0.61,0.266,1.155,0.481,1.651c-0.474,3-0.982,5.992-1.45,8.972
	c-0.906,5.774-1.658,11.577-2.042,17.413c-4.051,4.812-6.446,10.343-8.295,16.65c-1.051,3.584-1.776,7.156-2.367,10.84
	c-0.725,4.517-2.341,9.128-0.884,13.628c0.142,0.438,0.325,0.846,0.525,1.237c-0.512,2.597-0.999,5.199-1.509,7.799
	c-1.662,8.472-4.405,16.431-3.761,24.994c-0.396,0.938-0.735,1.886-0.502,1.525c-1.874,2.881,1.191,6.188,4.212,5.479
	c5.596-1.311,11.009-3.258,16.455-5.084c0.465,0.201,0.979,0.354,1.554,0.425c4.296,0.534,8.472,0.35,12.777-0.048
	c4.132-0.381,8.98-0.7,12.499-3.141c0.28-0.195,0.527-0.404,0.758-0.619c1.761,0.74,3.829,0.588,5.223-0.873
	c2.586-2.711,1.643-5.194,0.646-8.481c-0.287-0.945-0.581-1.89-0.876-2.832c0.038-0.088,0.086-0.16,0.121-0.248
	c2.65-6.621,1.521-15.185,0.419-22.051c-1.142-7.117-2.929-14.14-4.529-21.164c0.298-1.474,0.603-2.941,0.905-4.408
	C277.81,381.318,280.771,369.129,282.775,356.775z"></path>
</svg>