<!DOCTYPE svg PUBLIC "-//W3C//DTD SVG 1.1//EN" "http://www.w3.org/Graphics/SVG/1.1/DTD/svg11.dtd"><svg version="1.1" id="Layer_1" xmlns="http://www.w3.org/2000/svg" xmlns:xlink="http://www.w3.org/1999/xlink" x="0px" y="0px" width="600px" height="600px" viewBox="0 0 600 600" enable-background="new 0 0 600 600" xml:space="preserve">
<path fill="#E6E6E6" d="M423.801,420.873c-3.123-7.451-7.406-14.242-11.883-20.92c-0.45-5.402-4.109-10.451-6.722-15.02
	c-3.103-5.428-6.061-10.932-9.16-16.355c-2.008-3.512-4.122-7.002-6.369-10.406c-0.726-1.404-1.466-2.801-2.231-4.188
	c-0.639-1.156-1.3-2.305-1.977-3.447c-1.476-7.727-4.284-15.164-7.242-22.449c-3.982-9.816-7.964-19.648-12.066-29.413
	c-0.281-0.67-0.655-1.23-1.091-1.694c8.987-5.386,17.46-11.864,24.782-19.078c1.072-1.056,2.045-2.162,2.967-3.292
	c0.111-0.267,0.226-0.531,0.325-0.807c1.227-3.325,2.337-6.708,3.101-10.173c1.571-7.154,2.25-14.434,2.172-21.758
	c-0.084-7.896-0.628-15.782-1.226-23.665c-1.823-4.474-4.151-8.715-7.062-12.489c-0.062-0.276-0.123-0.554-0.186-0.827
	c-1.564-7.039-4.754-13.344-9.145-19.003c-0.056-0.071-0.117-0.137-0.172-0.208c-2.382-8.318-10.63-14.582-16.632-20.457
	c-7.003-6.855-13.012-12.084-22.597-14.933c-4.52-1.344-9.216-2.105-13.947-2.625c-6.475-2.355-13.062-4.392-19.86-5.283
	c-6.486-2.721-13.351-4.15-20.609-2.809c-5.467,1.01-9.317,4.636-13.401,7.917c-0.292,0.096-0.584,0.192-0.875,0.289
	c-17.29,3.257-32.859,9.624-46.644,21.301c-6.962,5.897-12.92,13.156-17.393,21.1c-3.657,6.496-5.297,12.704-4.642,19.477
	c-1.574,4.415-2.755,9.008-3.465,13.748c-0.814,5.435-1.266,10.739-0.802,16.22c0.108,1.279,0.242,2.556,0.386,3.832
	c-1.83,1.036-3.233,2.718-3.632,5.045c-0.43,2.508-0.475,5.374,0.213,7.876c0.152,0.553,0.367,1.036,0.607,1.492
	c1.43,9.652,4.692,18.406,11.236,26.507c7.347,9.096,18.076,14.842,28.69,19.21c0.029,0.012,0.059,0.021,0.088,0.034
	c-1.368,0.86-2.382,2.319-2.494,4.378c-1.26,23.15-11.254,45.09-21.069,65.748c-3.721,7.83-7.92,15.43-11.858,23.164
	c-4.726,5.562-9.113,12.045-11.521,18.898c-0.37,1.057-0.744,2.119-1.105,3.189c-1.89,2.854-3.418,5.809-4.408,8.906
	c-4.625,10.516-7.223,23.104,0.622,31.096c5.346,5.445,14.127,4.84,20.079,0.922c6.616-4.354,10.705-11.771,14.03-18.732
	c3.462-7.25,6.529-14.717,9.364-22.326c-0.266,4.227-0.333,8.461-0.304,12.701c-0.825,0.812-1.383,1.956-1.44,3.434
	c-0.021,0.555-0.054,1.106-0.089,1.66c-1.322,1.071-2.226,2.727-2.209,4.34c0.041,3.852,0.214,7.693,1.275,11.414
	c0.036,0.125,0.092,0.229,0.134,0.346c-1.11,8.152-1.98,16.33-2.131,24.566c-0.069,3.785-0.267,10.729,1.221,16.338
	c-0.004,2.68,0.061,5.361,0.214,8.039c-2.464,23.736,0.102,50.547,17.639,66.23c4.001,2.695,11.005,0.191,11.8-4.799
	c1.661-10.43,1.964-20.826,1.845-31.367c-0.104-9.206-0.607-18.639,0.803-27.771c1.703-11.031,9.644-18.137,17.381-25.342
	c4.017-1.4,8.021-2.859,12.045-4.232c8.378-1.752,16.831-2.855,25.435-2.727c8.824,0.133,17.578,1.938,25.438,5.922
	c2.105,3.946,4.421,7.826,7.822,11.338c4.146,4.283,8.866,7.029,12.71,10.969c2.49,6.656,3.105,13.746,3.396,20.898
	c0.011,0.025,0.021,0.051,0.031,0.076c2.307,6.102,2.979,12.654,3.536,19.111c0.618,7.158,0.756,14.504,2.789,21.449
	c0.697,2.391,1.55,4.764,2.753,6.949c4.089,2.664,10.11,0.869,11.726-4.354c5.771-18.686,7.737-37.979,7.438-57.504
	c-0.301-19.527-4.116-38.236-7.354-57.389c-2.857-16.92-4.251-34.367-7.313-51.297c1.521,3.188,3.157,6.314,4.947,9.377
	c2.388,4.08,4.561,9.1,7.975,12.58l0.041,0.062c0.067,0.867,0.29,1.764,0.712,2.676c0.535,1.156,1.127,2.27,1.745,3.361
	c1.65,3.66,4.318,7.914,7.593,11.631c0.331,0.527,0.67,1.156,0.698,1.443c0.433,4.371,4.512,6.305,7.824,5.709
	c4.146,2.297,8.594,3.025,12.854,0.865c1.464-0.549,2.82-1.479,3.841-2.801C428.681,436.451,426.613,427.584,423.801,420.873z
	 M360.48,346.246c-0.004-0.553,0.016-1.105,0.002-1.658c0.062,0.049,0.134,0.082,0.196,0.127c0.034,0.525,0.095,1.059,0.163,1.596
	C360.725,346.285,360.601,346.27,360.48,346.246z M367.413,367.807c-0.74-1.881-1.55-3.738-2.396-5.586
	c0.257,0.266,0.506,0.533,0.747,0.807c0.543,1.488,1.104,2.973,1.688,4.441C367.436,367.582,367.428,367.695,367.413,367.807z"></path>

<path fill="#4D4D4D" d="M432.409,198.123c-7.605-2.018-14.584-5.934-20.893-10.57c-3.558-2.616-6.751-5.762-9.709-9.026
	c-1.959-2.164-4.186-5.102-7.104-5.851c-0.703-0.181-1.521,0.221-1.691,0.96c-0.021,0.091-0.03,0.184-0.05,0.275
	c-0.062,0.003-0.121,0.021-0.183,0.026c-0.062-0.379-0.111-0.759-0.165-1.137c-0.034-0.241-0.092-0.469-0.157-0.692
	c0.266-0.472,0.443-1.001,0.499-1.582c7.375,3.842,16.653,3.291,24.249,0.622c4.13-0.882,2.364-7.103-1.734-6.294
	c-3.062,0.604-6.137,0.721-9.064,0.375c-0.104-0.293-0.271-0.564-0.517-0.779c-0.892-0.783-1.855-1.361-2.921-1.796
	c-0.021-0.51-0.139-1.031-0.393-1.545c-0.947-1.919-1.924-3.823-2.896-5.728c1.126-0.447,2.189-1.063,3.192-1.845
	c0.057-0.044,0.099-0.095,0.147-0.141c2.44-0.522,4.979-0.72,7.315-0.81c0.028-0.001,0.053-0.01,0.081-0.012
	c0.78,0.911,2.091,1.226,3.181,0.587c1.106-0.648,1.678-2.299,0.896-3.42c-0.527-0.76-1.039-1.531-1.58-2.282
	c-0.293-0.407-0.631-0.74-1.001-1.028c-0.58-1.603-1.255-3.103-2.062-4.493c-0.24-0.503-0.533-0.978-0.888-1.411
	c-2.02-3.012-4.658-5.562-8.051-7.867c-1.107-0.753-2.272-1.427-3.464-2.058c0.548-0.404,1.084-0.831,1.608-1.27
	c0.673-0.084,1.35-0.291,1.996-0.674c0.938-0.553,1.748-1.178,2.563-1.899c0.557-0.492,1.605-0.806,1.878-1.426
	c4.959-2.92,8.158-7.441,10.327-13.368c0.981-2.688-1.964-5.097-4.452-4.453c-6.085,1.574-12.246,3.698-18.558,4.106
	c-2.237,0.146-5.469-1.031-7.653-1.549c-2.736-0.647-5.312-1.415-8.028-1.654c-1.281-0.605-2.625-1.132-3.963-1.667
	c-4.58-1.833-9.255-3.441-13.866-5.191c-8.372-3.177-16.704-6.846-24.404-11.437c-5.143-3.064-10.033-6.374-15.414-8.883
	c-1.294-2.135-3.581-3.693-6.148-3.492c-1.95,0.153-3.881,0.271-5.794,0.398c-1.167,0.003-2.326,0.085-3.478,0.251
	c-6.193,0.501-12.208,1.39-18.083,4.161c0.696-5.821,1.097-11.679,1.636-17.554c0.291-3.173-4.798-4.603-6.113-1.656
	c-8.406,18.833-26.565,26.205-44.873,32.057c-7.357,1.365-14.682,2.92-21.835,5.142c-2.612,0.811-5.405,1.824-8.196,3.05
	c-0.684-0.093-1.423,0.059-2.092,0.578c-0.411,0.319-0.808,0.647-1.206,0.976c-6.472,3.28-12.531,7.788-15.832,13.749
	c-0.528-2.993-0.701-6.002-0.354-8.896c0.226-1.886-2.446-2.247-3.317-0.898c-11.046,17.098-26.133,51.265-8.831,67.839
	c-2.558,0.348-5.027,0.887-7.24,1.776c-0.962-0.32-1.924-0.585-2.869-0.795c-0.007-0.002-0.015-0.004-0.022-0.006
	c-1.078-3.681-6.733-3.178-7.188,1.085c-0.834,7.815,5.191,13.299,11.63,16.454c2.907,2.27,6.226,3.995,9.643,4.836
	c-4.304,7.303-9.786,11.387-17.722,14.589c0.064,0.049,0.128,0.098,0.192,0.146c-3.769,1.155-4.884,7.112-0.192,8.097
	c1.269,0.266,2.514,0.37,3.734,0.343c3.606,1.153,7.38,1.605,11.195,1.255c-0.136,0.182-0.274,0.367-0.395,0.532
	c-5.109,7.008-8.938,15.957-8.472,24.748c0.15,2.826,4.314,6.103,5.736,3.165c1.199-2.478,2.031-3.5,3.167-6
	c0.847,0.323,2.116-2.89,3.243-3.236c0.047,0.904,0.1,1.804,0.162,2.696c0.219,3.178,0.583,6.271,1.079,9.311
	c-0.968,5.818-1.438,12.162-0.566,17.961c0.039,0.256,0.119,0.485,0.216,0.7c-0.725,1.113-1.195,2.5-1.462,3.531
	c-0.244,1.006-0.905,2.751-0.338,3.538c-0.623,1.071-0.342,1.446-0.955,2.542c-0.171,1.329-0.547,2.632-0.972,3.729
	c-0.65,1.676-1.643,3.814-3.004,5.479c0.588,0.906,1.702,1.383,2.956,0.616c4.279-2.616,9.945-7.039,13.844-12.244
	c0.764-0.122,1.517-0.591,2.028-1.253c0.414,1.012,0.872,2.009,1.351,2.999c-0.429,0.687-0.658,1.498-0.543,2.332
	c1.229,8.907,9.567,22.396,19.671,22.977c1.402,1.478,3.027,2.762,5.196,2.562c1.081-0.1,2.019-0.664,2.323-1.77
	c0.286-1.041-0.204-2.205-1.127-2.731c0.167-0.392,0.229-0.841,0.167-1.255c0.614-0.469,1.161-1.032,1.613-1.637
	c1.119-1.5,0.818-3.604,0.1-5.192c-1.453-3.216-4.837-5.161-7.981-4.988c-1.675-2.076-4.466-2.292-5.967-4.501
	c-0.931-1.369-2.761-4.15-4.033-3.832c-3.133-4.435-5.464-6.862-7.332-12.014c0.192-0.136,0.396-0.26,0.57-0.417
	c3.942-3.534,3.854-8.62,3.833-13.534c-0.023-5.129-0.161-10.298-0.691-15.401c-0.153-1.473-0.323-2.943-0.503-4.412
	c0.538-0.295,1.076-0.59,1.617-0.885c0.515,0.12,1.073,0.175,1.679,0.145c3.222-0.162,6.308-0.683,9.286-1.542
	c0.261,0.347,0.635,0.602,1.133,0.672c4.764,0.668,8.707,1.219,13.55,0.635c4.518-0.544,8.906-1.973,13.146-3.574
	c4.917-1.857,8.671-1.81,13.382-5.006c5.5,0.333,13.445-3.485,13.5-3.5c7.899-2.163,12.85-5.083,20-8.667
	c9.897-3.587,10.978-4.732,19.333-11.333c1.005-0.794,7.166-6.673,8.166-7.5c10.746-6.927,15.336-12.885,24.331-22.115
	c-2.254,16.013-8.124,31.055-13.917,46.099c-1.16,3.015,3.285,5.426,5.354,3.118c3.191-3.557,4.337-7.149,5.153-11.507
	c0.315-0.012,0.641-0.106,0.958-0.309c2.195-1.407,2.924-4.243,3.728-6.621c0.079-0.237,0.142-0.48,0.215-0.719
	c0.925,0.716,2.149,0.882,3.447-0.087c4.146-6.276,7.608-14.363,6.61-22.207c1.193-3.79,2.152-7.653,3.035-11.559
	c0.162-0.719,0.312-1.439,0.466-2.16c0.689,2.471,1.431,4.886,1.872,7.105c0.701,3.527,0.474,14.99,6.965,13.39
	c1.519-0.374,2.519-1.187,3.172-2.25c0.809,0.867,1.666,1.685,2.575,2.458c0.175,0.237,0.342,0.48,0.521,0.715
	c5.506,7.285,15.636,16.424,23.925,12.516c0.412,0.001,0.813-0.043,1.209-0.126c0.375,1.404,0.835,2.794,1.376,4.133
	c0.354,2.717,0.773,5.425,1.158,8.15c0.52,3.698,0.585,7.872,2.264,11.214c0.167,2.252,0.294,4.507,0.304,6.77
	c0.036,8.212-0.888,16.394-2.446,24.447c-1.559,8.031-4.93,15.188-8.148,22.63c-0.544,1.258-1.42,0.861-1.959,2.08
	c-1.438-0.749-2.908,1.251-4.021,2.4c-0.841,0.867-2.099,1.601-2.312,2.767c-0.037,0.205-1.637,1.613-1.667,1.833
	c-2.202,1.272-2.592,1.901-4.5,3.833c-1.666,0.5-3.139,2.327-2.638,4.458c-0.574,1.477-0.116,3.208,0.595,4.833
	c-0.738,1.433,0.107,3.558,0.993,4.771c0.204,0.278,0.427,0.521,0.657,0.746c0.006,0.78,0.66,1.569,1.566,1.254
	c0.08-0.025,0.156-0.064,0.236-0.097c0.739,0.286,1.551,0.433,2.427,0.441c0.821,0.009,1.867-0.479,2.217-1.271
	c0.301-0.686,1.319-0.438,1.444-1.137c0.942,0.084,1.146-1.133,2.029-1.977c0.791-0.082,1.562-0.404,2.17-0.992
	c1.057-1.022,2.045-2.074,2.953-3.178c2.046-1.834,4.144-3.646,3.991-6.66c1.721-2.432,3.276-4.936,4.561-7.44
	c1.091-2.134,1.989-4.34,2.769-6.589c1.362,3.838,3.349,7.397,6.243,10.294c1.604,1.603,4.504-0.006,3.837-2.233
	c-2.104-7.021,0.564-15.527,2.079-22.447c1.658-7.569,3.921-14.67,4.485-22.456c0.155-2.166,0.166-4.333,0.082-6.498
	c0.747,1.536,1.547,3.066,2.398,4.612c1.514,2.732,6.018,1.552,5.909-1.601c-0.21-6.272-0.792-12.448-2.621-18.475
	c-1.095-3.605-2.882-8.775-6.196-11.162c-0.026-0.05-0.054-0.101-0.08-0.151c-0.994-1.722-2.385-3.076-3.737-4.48
	c0.438-1.509,0.314-2.89-0.142-4.21c6.412,1.69,13.4,2.277,19.605,2.5C435.921,206.186,436.762,199.277,432.409,198.123z"></path>

<path fill="#1A1A1A" d="M286.286,471.381c-2.606-1.455-5.865,0.146-8.506,0.977c-0.499,0.156-0.994,0.328-1.489,0.502
	c-3.551-0.23-6.896,0.334-9.979,1.514c-0.974-1.105-2.465-1.756-4.051-1.281c-6.581,1.965-13.235,3.758-19.976,5.092
	c-0.628-0.168-1.303-0.182-1.995,0.018c-0.812,0.23-1.663,0.484-2.495,0.795c-2.306,0.381-4.622,0.699-6.949,0.947
	c-0.676-0.305-1.265-0.369-1.92-0.654c-1.743-0.762-4.154-0.293-4.621,1.879c-0.455,2.113-0.728,4.568-0.438,6.791
	c-0.792,1.018-1.237,2.365-1.107,4.045c0.735,9.52,3.006,18.601,5.814,27.693c0.666,2.152,1.279,4.453,1.913,6.797
	c0.109,2.502,0.19,5.004,0.195,7.51c0.005,2.365,0.979,4.058,2.385,5.113c-0.089,0.736-0.034,1.535,0.194,2.381
	c0.017,0.371,0.057,0.75,0.138,1.143c0.301,1.464,0.629,2.918,0.951,4.375c0.296,1.555,0.589,3.105,1.003,4.641
	c0.147,0.547,0.347,1.03,0.58,1.471c-0.066,0.781,0.039,1.633,0.367,2.543c0.338,0.939,0.724,1.818,1.133,2.676
	c0.25,0.846,0.626,1.545,1.096,2.113c0.709,1.258,1.481,2.488,2.323,3.754c2.843,4.275,10.373,4.203,11.61-1.518
	c1.632-7.547,1.183-15.023,0.314-22.514c2.017-0.256,3.875-1.805,3.875-4.178h0.028c0.202-6.381-1.162-12.932-1.254-19.358
	c-0.09-6.173,0.286-12.343,1.927-18.312c2.521-9.17,9.325-14.438,16.683-19.244c1.99-0.814,4.025-1.51,6.088-2.141
	c2.531-0.771,5.149-0.808,6.832-2.998C287.574,473.146,287.096,471.834,286.286,471.381z"></path>
<path fill="#1A1A1A" d="M389.338,523.592c0.132-3.531-0.217-6.961-0.852-10.334c0.312-3.537-0.732-7.725-1.461-10.975
	c3.739-3.197,2.726-10.15,2.252-14.502c-0.644-5.896-2.18-11.795-4.094-17.395c-1.71-5.002-7.568-5.195-10.407-2.407
	c-4.7-1.519-9.983-1.896-14.54-2.06c-6.325-0.229-15.104-0.238-20.549,3.557c-0.396,0.275-0.721,0.582-0.984,0.908
	c-3.03-0.525-6.15-0.877-9.37-1.15c-0.652-0.07-4.485-0.525-5.164-0.568c-2.172-0.142-3.959,2.389-1.833,2.834
	c9.489,1.996,21.907,9.826,28.53,16.681c3.29,3.406,5.976,7.139,8.28,11.27c2.437,4.367,2.297,9.012,4.688,13.385
	c0.229,0.42,0.53,3.334,0.834,3.666c0.106,0.816,0.707,2.521,0.833,3.334c0.326,3.973,0.643,5.376,1.167,9.333
	c-0.447,3.498,0.529,6.36,0.436,9.909c-0.34,1.574-0.727,3.133-0.984,4.762c-0.168,1.051,0.064,2.053,0.535,2.92
	c-0.011,0.082-0.015,0.162-0.022,0.242c-0.206,1.762-0.956,3.093,0.201,3.833c-0.036,0.748,0.652,0.587,0.666,1.333
	c-2.459-0.167-0.335,1.624-0.333,1.667c-0.44,3.144,0.201,5.569-0.218,8.681c-0.526,3.906,2.355,8.32,6.876,6.877
	c9.115-2.911,13.024-11.93,14.746-20.663C390.038,541.281,391.04,531.57,389.338,523.592z"></path>

<path fill="#18c22b" d="M400.01,377.201c0.355-1.664,0.145-3.451-0.912-5.15c-1.506-2.428-3.011-4.854-4.503-7.287
	c-1.387-3.688-3.598-7.162-6.106-10.338c-0.303-0.535-0.615-1.064-0.912-1.604c-3.606-6.537-5.993-13.383-8.566-20.354
	c-2.352-6.369-6.312-12.242-8.393-18.638c-0.885-2.722,0.872-5.728-1.174-8.435c-0.197-0.26-0.401-0.508-0.61-0.746
	c0.281-0.942,0.23-1.938-0.352-2.933c-0.995-1.699-3.622-2.66-5.35-1.402c-0.532,0.388-0.989,0.793-1.399,1.243
	c-1.803-0.35-3.852,0.637-4.757,2.183c-0.15,0.259-0.267,0.528-0.357,0.803c-5.321-0.423-9.326,1.479-14.342,3.438
	c-2.862,1.119-5.304,1.117-8.171,1.906c-2.787,0.768-4.22,2.816-5.868,4.957c-2.345,3.043-0.896,7.41,1.286,9.971
	c1.23,1.443,1.775,3.576,2.106,5.605c-0.597,0.426-1.147,1.002-1.622,1.752c-0.423,0.672-3.505,3.165-3.383,3.076
	c-1.5,1.103-2.309,1.117-3.75,2.5c-2.118,2.031-2.685,4.658-3.875,7.375c-0.747,0.414-1.108,2.239-1.589,3.286
	c-0.226,0.403-2.601,3.813-2.786,4.214c-1.899,3.717-2.311,4.134-4.716,7.611c-1.413-0.782-2.762-1.526-3.871-2.272
	c-5.452-3.67-11.262-6.688-16.81-10.192c-0.6-0.406-1.188-0.604-1.745-0.646c0.374-1.629,0.839-3.223,1.393-4.773
	c0.115-0.289,0.226-0.594,0.329-0.924c1.255-3.238-3.089-5.494-5.505-3.662c-0.085-0.014-0.168-0.026-0.272-0.041
	c-0.994-0.219-2.022-0.971-2.906-1.443c-0.062-0.033-0.124-0.062-0.187-0.096c0.29-0.401,0.555-0.846,0.758-1.375
	c1.42-3.721,2.664-7.879,2.643-11.944c0.14-0.562,0.273-1.121,0.395-1.683c1.192-5.554-5.956-7.433-8.342-2.813
	c-0.602-0.115-1.22-0.136-1.785-0.052c-0.049,0.009-0.092,0.029-0.139,0.039c-2.879-1.057-5.804-1.725-8.689-1.979
	c-0.849-1.8-2.602-3.125-5.334-3.065c-1.439,0.031-4.966,0.865-7.565,0.834c-1.354-2.504-4.028-4.185-8.435-4.129
	c-0.658,0.008-1.302,0.144-1.92,0.361c-0.302-0.332-0.607-0.678-0.922-1.037c-4.436-5.059-12.755,1.512-9.236,7.127
	c1.538,2.452-0.776,7.482-1.578,9.971c-1.476,4.578-3.021,9.14-4.672,13.658c-2.743,7.51-5.795,14.904-8.954,22.252
	c-0.25,0.289-0.477,0.609-0.667,0.967c-2.048,3.83-3.383,7.953-5.008,11.966c-0.984,1.323-2.022,2.586-2.977,3.786
	c-1.497,1.88-1.993,4.06-1.536,5.984c-1.511,1.547-1.416,4.072,0.671,5.523c1.315,0.916,2.301,2.174,3.505,3.217
	c1.887,1.637,4.396,2.65,6.546,3.912c4.449,2.613,8.911,5.035,13.953,6.301c0.761,0.191,1.533,0.219,2.288,0.123
	c-0.801,4.228-1.399,8.541-1.674,12.863c-0.396,2.705-0.813,5.404-1.284,8.092c-0.404,0.682-0.717,1.467-0.884,2.391
	c-1.705,9.453-4.812,18.824-3.973,28.525c0.126,1.455,0.571,2.689,1.232,3.699c-0.305,3.098-0.428,6.654,0.279,9.543
	c-0.611,1.307-1.261,2.592-1.99,3.828c-1.977,3.354,1.917,7.09,5.23,5.229c6.495-3.645,14.487-3.768,21.704-4.795
	c8.219-1.17,16.128-3.592,24.493-3.299c4.013,0.857,8.369,0.812,12.297,1.014c8.595,0.443,17.157-0.459,25.709-1.315
	c8.484-0.851,16.725-2.994,25.191-3.859c6.328-0.647,12.686-0.197,19.031-0.393c4.975-0.152,9.646-0.187,14.294,1.19
	c0.964,0.65,2.021,0.99,3.087,1.066c0.156,0.045,0.307,0.072,0.457,0.102c0.155,0.209,0.322,0.414,0.509,0.623
	c1.19,1.33,2.702,1.541,4.356,1.256c2.066-0.354,2.735-2.95,1.861-4.577c-0.142-0.267-0.305-0.515-0.479-0.753
	c1.161-1.801,1.373-4.112-0.22-6.403c-0.724-1.037-1.21-2.213-1.549-3.457c0.485-3.859,0.128-7.416-1.19-11.262
	c-0.129-0.378-0.276-0.728-0.435-1.062c-0.714-13.883-4.325-27.305-7.769-40.729c0.787-1.14,1.188-2.503,0.988-3.912
	c0.812-0.496,1.604-1.091,2.358-1.742c2.25,1.387,5.468,1.121,7.615-0.75c4.243-3.691,9.146-7.6,14.853-8.455
	C402.61,386.008,402.597,380.451,400.01,377.201z"></path>

<path opacity="0.75" fill="#1A1A1A"  d="M330.75,451.875c-0.065-0.646,0.342-2.48,0.25-3.125
	c-0.049-1.297-0.928-3.816-1.125-5.125c0.981-2.351-1.122-4.534-1.532-7.678c-0.541-4.154-1.21-8.273-1.855-12.412
	c-0.425-2.707,0.025-5.19-0.361-7.91c-0.1-1.789,0.216-3.719,0.125-5.5c-0.219-4.285,0-8.731-0.125-13
	c0.29-4.643-1.042-9.098-1.096-13.648c0.593-0.898,0.966-2.055,0.998-3.477c0.229-10.193-1.072-20.314-1.132-30.5
	c-0.029-5.373-7.233-5.9-8.949-1.211c-0.68,1.852-1.555,3.602-2.537,5.293c-0.838,0.135-1.631,0.516-2.251,1.236
	c-1.946,2.264-3.377,4.709-4.624,7.344c-1.691-1.098-3.455-2.146-4.989-3.354c-2.35-1.848-6.076-5.012-7.861-8.031
	c-0.251-0.852-0.602-1.658-1.1-2.373c-2.372-3.412-7.059-0.514-5.47,3.193c0.792,1.359,0.509,3.398,0.206,5.105
	c-0.094,0.195-0.189,0.396-0.261,0.613c-0.943,2.91-1.373,5.834-1.096,8.875c-1.116,0.928-1.877,2.352-1.884,4.307
	c-0.053,14.609-1.133,29.229-0.936,43.836c0.194,14.334,2,28.893-0.281,43.154c-0.296,1.852,0.199,3.488,1.122,4.734
	c-1.572,2.568-0.296,6.664,3.328,6.41c0.69-0.049,1.301-0.18,1.851-0.375c3.332,0.344,6.549,0.387,9.634-0.533
	c0.472,0.816,1.444-0.009,2.328,0.273c3.608,1.143,7.375,2.841,10.189-0.026c0.291-0.297,0.518-0.607,0.684-0.926
	c0.36-0.211,2.857,0.872,3.127,0.577c4.294,0.385,6.412-0.562,10.713-0.581c2.703,0.062,5.883,1.159,5.787-0.919
	c0.193-0.586-1.627-4.413-1.709-5.063C330.683,457.48,331.467,455.723,330.75,451.875z"></path>
<path opacity="0.5" fill="#1A1A1A"  d="M278.901,315.535c-1.398-0.637-3.116-0.559-4.302,0.725
	c-0.83,0.9-2.064,1.786-2.791,2.709c-0.822,1.045-1.599,2.021-2.552,2.948c-2.453,2.39-1.639,6.179,1.025,7.96
	c2.428,1.623,4.55,3.064,7.324,4.098c2.913,1.086,5.817-1.672,5.874-4.475c0.051-2.479-0.099-5.561,1.191-7.76
	C287.076,317.641,282.322,313.947,278.901,315.535z"></path>
<path opacity="0.5" fill="#1A1A1A"  d="M339.75,317.875c-1.058-1.055-4.364-3.053-5.375-2.75
	c-0.276-0.391-6.168,0.631-6.625,0.625c-6.255-0.076,0.736,9.332,2.192,12.825c1.042,2.502,4.575,4.391,6.758,1.784
	C340.103,326.291,343.886,322.004,339.75,317.875z"></path>
<path opacity="0.5" fill="#1A1A1A"  d="M396.458,373.986c-7.572,1.465-17.4,5.006-22.347,11.285
	c-0.742,0.941-0.975,1.824-0.872,2.59c-0.557,0.445-1.099,0.914-1.611,1.428c-4.795,4.787,2.646,12.229,7.424,7.424
	c6.655-6.695,18.633-5.775,23.277-15.088C404.438,377.4,401.028,373.104,396.458,373.986z"></path>
<path opacity="0.5" fill="#1A1A1A"  d="M235.105,397.5c-0.408-5.781-3.688-10.199-8.327-13.486
	c-4.185-2.965-9.634-6.193-14.938-6.076c-2.974,0.066-4.958,2.076-5.663,4.443c-0.908,0.475-1.632,1.291-1.905,2.498
	c-2.229,9.836,16.451,16.658,23.536,18.182C231.235,403.797,235.383,401.438,235.105,397.5z"></path>

<g>
	<path fill="#1A1A1A" d="M423.163,406.209c-4.354-8.998-9.647-17.508-14.821-26.045c-6.675-11.016-12.323-22.676-18.068-34.195
		c-7.579-15.195-14.788-30.41-18.365-47.083c5.307-3.607,10.229-7.754,14.488-12.512c8.616-9.622,12.323-21.681,13.7-34.318
		c1.584-14.538-0.715-29.608-4.881-43.54c-3.786-12.662-9.725-26.516-19.356-35.847c-2.726-2.64-7.691,0.871-5.398,4.166
		c13.619,19.575,21.781,41.418,22.042,65.493c0.116,10.798-1.616,22.225-7.124,31.662c-5.175,8.865-13.824,15.376-22.499,20.53
		c-18.053,10.727-40.441,17.032-61.447,17.256c-20.624,0.221-41.908-2.006-61.425-8.931c-18.381-6.521-35.912-19.696-38.407-40.287
		c-1.278-10.546,0.13-21.12,1.06-31.621c0.625-7.068,2.922-15.557-0.481-22.065c-0.591-1.13-2.3-0.809-2.627,0.343
		c-2.232,7.844-3.524,16.325-4.705,24.51c-1.56,10.814-2.579,21.583-0.999,32.452c2.96,20.365,20.157,34.565,38.075,42.176
		c-6.567,22.816-13.621,46.576-25.089,67.484c-8.674,15.812-18.322,31.035-25.067,47.836c-5.168,12.873-9.756,29.578,2.661,39.662
		c8.357,6.789,17.976,5.875,25.903-1.01c5.7-4.947,9.731-11.91,13.024-18.959c-2.392,15.482-3.315,31.02-2.899,46.678
		c0.427,16.064,1.99,32.576,6.394,48.08c0.088,0.309,0.186,0.621,0.278,0.934c1.946-0.383,3.894-0.744,5.847-1.092
		c-0.515-2.232-0.962-4.475-1.241-6.73c-0.137-0.668-0.257-1.355-0.367-2.047c-0.128-0.67-0.249-1.346-0.354-2.025
		c-3.084-13.184-3.937-26.875-4.151-40.367c-0.245-15.398,1.384-30.393,3.051-45.684c0.769-7.051,1.672-14.066,2.654-21.068
		c2.686-8.141,4.942-16.432,7.002-24.729c3.243-13.061,5.641-26.098,7.072-39.477c0.92-8.596,2.421-17.584,1.795-26.248
		c-0.233-3.229-4.739-3.211-5,0c-0.851,10.479-2.698,20.814-4.953,31.072c-3.44,15.654-6.532,31.389-10.891,46.826
		c-3.961,14.027-8.635,28.33-16.361,40.789c-4.136,6.672-11.081,15.242-19.383,11.244c-9.81-4.725-9.703-14.648-7.208-23.992
		c3.624-13.572,10.888-26.197,17.817-38.305c6.196-10.826,12.52-21.279,17.458-32.762c7.374-17.148,14.464-35.773,15.913-54.537
		c18.371,7.039,38.378,9.604,57.929,10.332c20.947,0.779,41.149-3.383,60.372-11.703c4.333-1.875,8.605-4.021,12.712-6.454
		c4.708,26.616,17.62,52.239,30.732,75.567c8.06,14.34,18.437,27.264,24.331,42.795c2.127,5.604,4.82,14.037,0.649,19.414
		c-2.971,3.828-9.704,5.881-13.994,3.797c-4.979-2.42-8.774-7.521-11.845-11.947c-4.644-6.691-8.348-14.037-11.753-21.416
		c-6.929-15.02-12.276-30.824-16.742-46.734c-1.86-6.627-3.509-13.32-4.851-20.072c-0.531-2.67-0.986-5.354-1.355-8.051
		c-0.29-2.113-1.438-4.203-1.895-6.328c-0.356-1.662-3.039-1.691-3.375,0c-2.537,12.783,2.379,26.979,5.718,39.299
		c1.858,6.855,3.914,13.68,6.184,20.432c2.729,26.465,8.467,52.533,12.82,78.762c4.628,27.883,9.206,56.408,2.769,84.443
		c-1.034,4.504-5.738,21.914-12.935,12.596c-2.579-3.34-2.64-8.588-2.798-12.59c-0.199-5.041,0.126-10.102,0.363-15.133
		c0.976-20.656-8.709-43.875-24.867-56.836c-20.366-16.336-51.502-15.779-72.273-0.607c-11.505,8.402-17.736,19.145-19.38,33.361
		c-0.845,7.305-0.447,14.984-0.459,22.598c2.242-0.23,4.486-0.436,6.729-0.592c-0.076-2.055-0.188-4.109-0.323-6.158
		c-0.882-13.418-0.973-27.004,8.108-37.893c7.24-8.68,18.27-12.104,28.976-14.236c10.63-2.117,21.176-0.918,31.281,2.738
		c20.622,7.461,34.548,33.715,35.415,54.77c0.384,9.297-1.01,18.672,1.259,27.828c1.666,6.721,8.573,13.586,15.977,10.496
		c8.469-3.535,9.771-16.455,11.369-24.191c3.69-17.863,2.419-36.975,1.12-55.023c-1.938-26.941-8.469-53.164-13.624-79.623
		c0.935,2.117,1.896,4.223,2.887,6.312c5.307,11.189,12.634,26.344,24.966,31.203c5.557,2.189,11.771,0.566,16.828-2.223
		c5.909-3.26,8.457-9.617,8.388-16.096C431.141,423.492,427.124,414.395,423.163,406.209z"></path>
	<path fill="#1A1A1A" d="M259.09,542.25c-0.115-2.881-0.161-5.869-0.5-8.75c-1.932,0.396-4.771,1.654-6.706,1.951
		c0.531,4.338,0.581,8.049,0.831,11.924c0.034,0.531,0.054,1.225,0.056,2.006c0.435,2.518,0.191,5.445,0.009,7.703
		c-0.161,1.986-0.639,4.543-2.324,5.883c-0.469,0.479-1.115,0.82-1.802,0.982c-2.66,1.51-6.459-1.125-8.111-2.979
		c-3.825-4.291-4.924-11.176-6.068-16.531c-0.54-2.527-1.193-5.057-1.756-7.598c-1.612-0.342-4.28,0.416-5.899,0.92
		c1.993,8.107,3.265,16.42,7.205,23.895c3.387,6.426,12.128,11.682,18.86,6.672C260.585,562.598,259.422,550.533,259.09,542.25z"></path>
</g>

<path fill="#1A1A1A" d="M368.34,231.438c-3.034,0-5.561,2.53-5.562,5.562c0,0.102-0.003,0.203-0.004,0.305
	c-0.068,0.314-0.129,0.639-0.158,1.169c-0.08,1.42,0.576,3.067,1.641,4.021c-0.006-0.008-0.013-0.016-0.019-0.024
	c0.288,0.369,0.693,0.664,1.108,0.864c0.861,0.5,1.791,0.751,2.788,0.754c1.519,0,2.801-0.616,3.905-1.618
	c1.539-1.395,1.862-3.516,1.863-5.472C373.904,233.968,371.37,231.438,368.34,231.438z"></path>
<path fill="#1A1A1A" d="M250.533,240.125c-0.079-1.503-0.512-2.865-1.472-4.001c-0.371-0.564-0.827-1.081-1.258-1.586
	c-1.038-1.222-2.91-1.849-4.463-1.849c-1.667,0-3.285,0.67-4.463,1.849c-2.366,2.365-2.521,6.584,0,8.927
	c0.012,0.011,0.021,0.024,0.032,0.035c1.14,1.926,3.167,3.081,5.411,3.125c1.121-0.003,2.166-0.286,3.135-0.848
	c0.933-0.552,1.676-1.295,2.228-2.229c0.739-1.722,0.669-1.26,0.855-3.151C250.546,240.306,250.538,240.215,250.533,240.125z"></path>

<path fill="#1A1A1A" d="M391.34,204.688c-12.855,0.367-17.716-10.064-24.014-19.433c-1.332-1.981-4.768-2.499-5.973,0
	c-0.683,1.415-1.276,2.858-1.823,4.315c-0.828-5.588-1.863-11.127-3.876-16.483c-1.152-3.066-5.642-3.474-6.629,0
	c-4.889,17.196-9.556,39.941-24.466,51.702c7.533-17.273,16.693-34.357,19.548-53.025c0.458-2.995-3.605-5.315-5.245-2.211
	c-12.474,23.609-37.679,36.375-61.014,46.989c-13.078,5.949-26.166,12.469-40.227,15.679c-7.15,1.632-14.439,2.698-21.7,3.689
	c-7.383,1.007-15.533,1.654-22.118,5.174c-0.758,0.405-0.671,1.798,0.254,1.942c7.344,1.144,15.292-0.027,22.727-0.743
	c7.625-0.733,15.235-1.571,22.718-3.242c14.598-3.26,28.21-10.472,41.666-16.821c19.116-9.02,39.313-19.879,53.293-36.189
	c-5.416,15.373-13.972,29.57-19,45.176c-0.849,2.633,2.186,4.516,4.386,3.372c18.927-9.839,26.504-28.253,32.264-47.371
	c1.054,6.553,1.509,13.233,2.685,19.77c0.687,3.812,6.057,3.196,7.09,0c1.333-4.124,2.164-8.395,3.389-12.543
	c6.551,9.505,14.105,19.197,26.947,16.761C395.93,210.491,395.027,204.583,391.34,204.688z"></path>
<path fill="#1A1A1A" d="M443.148,199.068c-14.662-2.668-26.355-12.98-38.168-21.981c9.198-0.342,18.154-3.841,23.46-11.858
	c1.459-2.204-1.299-4.297-3.329-3.329c-7.604,3.627-16.104-0.135-22.728-4.731c5.283-1.027,10.417-1.891,15.956-1.218
	c1.938,0.235,3.314-2.056,2.845-3.734c-2.489-8.896-9.501-15.973-17.5-20.402c9.206-5.923,16.379-14.693,14.778-26.399
	c-0.162-1.189-1.669-1.827-2.708-1.538c-14.166,3.938-27.511,5.124-41.566,0.158c-12.447-4.397-22.938-12.802-33.991-19.751
	c-14.834-9.326-35.18-16.803-49.618-7.145c1.128-6.282,1.264-12.742,0.698-19.138c-0.256-2.901-3.803-4.021-5.474-1.482
	c-7.688,11.677-17.127,21.848-29.273,28.944c-10.471,6.117-22.051,8.178-33.756,10.481c-12.938,2.545-27.731,6.984-33.919,17.646
	c-0.181-4.508-0.127-9.031,0.071-13.589c0.116-2.66-3.522-3.413-4.821-1.306c-8.353,13.554-15.991,28.361-19.885,43.872
	c-1.851,7.372-2.554,15.286-0.369,22.658c1.232,4.16,3.523,7.392,6.46,10.028c-4.735-1.021-9.465-2.068-14.226-2.961
	c-1.743-0.327-3.597,0.764-3.557,2.709c0.276,13.276,9.612,27.753,23.546,25.772c-5.082,8.998-18.229,13.447-27.484,15.517
	c-2.764,0.618-2.612,4.716,0,5.422c8.939,2.415,18.164,4.187,26.81,2.535c-2.017,2.801-3.663,5.937-5.106,9.091
	c-3.793,8.289-5.935,18.189-3.872,27.192c0.485,2.12,3.149,1.651,3.832,0c2.002-4.841,4.923-9.048,8.125-13.089
	c-0.717,6.132-0.59,12.333-0.508,18.536c0.125,9.476,0.526,21.805-6.253,29.304c-0.575,0.635-0.209,1.759,0.721,1.74
	c6.74-0.137,13.168-4.093,18.06-9.04c0.48,14.977,14.73,23.256,29.392,27.009c1.463,0.374,3.033-1,2.537-2.537
	c-1.458-4.52-0.111-8.86,0.074-13.452c0.107-2.661-4.018-2.65-4.125,0c-0.156,3.875-0.964,7.413-0.623,11.085
	c-13.338-4.146-25.903-12.533-22.208-28.505c0.565-2.445-2.632-3.766-3.992-1.683c-2.46,3.769-5.521,6.915-9.089,9.648
	c-2.418,1.853-5.148,2.952-7.831,4.204c3.26-6.91,5.909-13.208,6.394-21.247c0.63-10.455-0.327-20.726,2.154-31.023
	c0.394-1.632-1.8-3.234-3.02-1.758c-3.649,4.415-7.245,8.886-10.292,13.722c-0.156-10.689,3.117-23.796,11.052-30.744
	c2.682-1.037,5.285-2.481,7.781-4.437c1.424-1.116-0.113-3.53-1.738-2.986c-2.405,0.806-4.496,2.013-6.349,3.491
	c-6.485,2.541-13.445,2.079-20.33,0.485c10.596-3.519,20.844-10.232,22.685-21.556c0.529-3.255-4.262-4.731-5.047-1.444
	c-10.726,1.048-17.852-8.255-19.378-18.071c6.971,0.843,13.912,1.923,20.894,2.678c2.275,0.246,2.252-2.931,0.495-3.655
	c-15.687-6.465-14.003-24.48-9.761-37.765c3.376-10.574,8.843-20.096,14.091-29.757c0.315,6.667,0.794,13.307,2.056,19.901
	c0.462,2.417,4.64,1.874,4.317-0.584c-3.088-23.54,24.767-26.56,41.816-29.55c11.824-2.073,22.936-6.002,32.955-12.698
	c7.961-5.32,14.624-12.285,20.381-19.904c-0.187,6.967-1.424,13.819-4.182,20.371c-1.332,3.164,3.693,4.994,5.369,2.263
	c12.658-20.634,42.191-3.136,56.705,6.289c10.779,7,22.839,12.932,35.563,15.246c11.556,2.101,23.739,0.532,35.112-2.225
	c-0.287,9.965-8.607,16.687-17.196,21.021c-1.58,0.798-1.73,3.625,0,4.374c4.471,1.934,8.266,4.417,11.572,8.019
	c2.37,2.581,3.799,5.596,5.278,8.629c-5.515,1.083-10.959,2.361-16.572,3.052c-1.666,0.205-3.005,2.227-1.494,3.606
	c4.175,3.81,8.787,7.585,14.176,9.522c2.524,0.908,4.816,1.298,7.064,1.307c-6.557,3.417-14.372,3.752-21.932,1.724
	c-0.292-0.078-0.566-0.104-0.832-0.105c-0.098-0.003-0.192,0.001-0.284,0.016c-2.985,0.28-3.945,5.182-0.513,5.996
	c1.098,0.26,2.219,0.464,3.348,0.641c6.589,5.525,12.645,11.673,19.346,17.076c5.245,4.229,10.488,7.192,16.365,9.139
	c-7.075,1.931-15.286,1.856-20.165-2.888c-2.72-2.646-6.821,1.452-4.158,4.159c9.524,9.684,17.423,26.363,13.662,40.358
	c-3.099-5.798-6.101-11.411-10.243-16.604c-0.003-0.005-0.006,0.166-0.009,0.166c-0.001,0-0.001,0-0.002,0
	c-0.144-1-0.274-0.549-0.421-0.728c-1.962-2.392-5.855,0.621-4.239,3.181c6.852,10.846,5.866,22.993,3.648,35.092
	c-1.443,7.877-4.206,16.764-4.355,25.217c-2.768-4.038-4.89-8.597-6.813-13.006c-1.226-2.812-4.925-0.619-4.548,1.912
	c2.008,13.477-8.401,29.994-22.601,31.273c-2.654,0.238-2.606,4.445,0,4.123c7.762-0.961,14.876-5.688,18.852-12.421
	c2.174-3.682,4.949-6.768,6.604-10.771c0.541-1.308,0.968-2.666,1.302-4.047c2.472,4.174,5.327,8.055,8.583,11.835
	c1.464,1.699,3.844,0.185,4.008-1.66c0.558-6.292,0.703-12.423,1.825-18.68c1.112-6.198,2.507-12.335,3.437-18.565
	c0.629-4.213,0.94-8.419,0.779-12.553c0.72,1.408,1.445,2.814,2.203,4.206c0.989,1.818,3.825,1.811,4.816,0
	c7.014-12.807,3.625-30.518-4.565-43.268c8.123,1.195,17.175-0.797,23.692-4.514C446.025,203.4,445.81,199.552,443.148,199.068z"></path>

<path fill="#1A1A1A" d="M327.642,275.423c-9.846,15.755-33.91,16.953-47.843,6.119c-2.041-1.587-4.82,0.949-2.917,2.917
	c15.838,16.375,44.78,14.921,56.156-5.881C334.977,275.033,329.775,272.008,327.642,275.423z"></path>

<path fill="#1A1A1A" d="M235.309,385.699c-3.042-3.596-8.543-4.711-12.606-6.883c-1.435-0.768-2.893-1.488-4.343-2.225
	c-0.464-0.232-0.927-0.475-1.39-0.711c-0.185-0.24-0.433-0.449-0.764-0.6c-0.538-0.24-1.139-0.607-1.727-0.707
	c-1.917-0.322-3.962,1.588-2.712,3.527c1.36,2.115,5.108,3.346,7.198,4.533c1.667,0.949,3.247,1.852,4.994,2.66
	c2.972,1.375,5.878,3.637,9.1,4.266C235.389,390.02,236.828,387.496,235.309,385.699z"></path>
<path fill="#1A1A1A" d="M231.75,401.924c-3.448-2.824-7.643-4.709-11.566-6.801c-4.951-2.639-9.801-5.443-14.839-7.982
	c-3.789-1.91-7.083,3.594-3.344,5.721c4.013,2.283,8.035,4.947,12.317,6.693c5.048,2.059,9.497,5.361,14.574,7.279
	C231.595,407.854,233.995,403.762,231.75,401.924z"></path>
<path fill="#1A1A1A" d="M394.731,370.582c-8.329,4.002-16.022,8.625-23.404,14.158c-0.634,0.475-0.259,1.385,0.529,1.258
	c9.438-1.529,17.679-5.494,26.092-9.912C401.618,374.16,398.396,368.82,394.731,370.582z"></path>
<path fill="#1A1A1A" d="M402.826,380.744c-9.444,5.338-19.911,8.842-27.454,16.955c-1.722,1.852,0.563,5.189,2.802,3.633
	c8.672-6.043,18.762-9.75,27.68-15.406C409.11,383.859,406.209,378.832,402.826,380.744z"></path>
<path fill="#1A1A1A" d="M343.961,319.701c-3.32-1.938-6.303-4.252-9.094-6.895c-1.579-1.494-3.93,0.844-2.387,2.387
	c2.432,2.433,5.057,4.6,7.851,6.576c-1.812,2.438-4.202,5.656-6.784,7.477c-1.379-4.318-3.273-8.455-4.438-12.859
	c-1.172-4.438-8.096-2.543-6.87,1.895c1.119,4.057,2.656,7.979,4.472,11.77c-2.705,1.619-5.123,3.645-7.459,5.76
	c-1.721,0.377-3.184,2.273-2.114,4.344c0.312,0.602,0.608,1.209,0.896,1.822c-3.924,5.354-7.799,10.746-11.55,16.227
	c-5.123-4.822-10.264-9.781-16.479-13.068c0.725-1.826,1.688-3.393,2.997-4.471c0.688-0.566,0.698-1.393,0.356-2.07
	c0.344-0.922,0.213-1.957-0.744-2.736c-1.252-1.02-2.697-1.428-4.115-2.146c-1.104-0.562-2.151-1.237-3.103-2.03
	c0.921-4.781,2.462-9.453,2.655-14.342c0.104-2.658-4.131-3.271-4.665-0.631c-1.051,5.188-2.373,10.508-3.023,15.827
	c-0.076,0.21-0.132,0.427-0.153,0.647c-3.768-2.522-7.346-5.336-11.318-7.522c1.354-2.198,3.135-4.005,5.412-5.442
	c2.799-1.771,0.132-6.285-2.587-4.426c-3.646,2.496-6.296,5.645-8.091,9.682c-0.487,1.1-0.409,2.654,0.852,3.25
	c6.005,2.838,10.939,7.357,16.667,10.666c1.301,0.754,2.812,0.092,3.354-1.148c0.178,0.125,0.354,0.254,0.533,0.375
	c0.917,0.617,1.99,1.287,3.111,1.715c-3.215,4.412-4.197,11.18-5.157,15.996c-2.099,10.52-2.703,21.344-3.32,32.033
	c-0.551,9.553-1.032,19.135-1.215,28.699c-0.169,8.887-0.692,17.752-0.361,26.643c0.335,8.971-0.041,18.252,1.24,27.137
	c0.02,0.139,0.06,0.264,0.1,0.391c1.941-0.025,3.886-0.014,5.828,0c0.039-0.125,0.079-0.252,0.099-0.391
	c1.073-7.67,0.439-15.639,0.324-23.367c-0.134-8.867-0.702-17.709-1.002-26.571c-0.317-9.399,0.236-18.88,0.601-28.278
	c0.394-10.15,1.141-20.242,2.131-30.352c0.354-3.615,0.464-9.381,1.685-14.258c5.471,4.934,10.787,10.045,16.216,15.027
	c1.069,0.98,2.608,0.752,3.402-0.439c3.612-5.416,7.362-10.729,11.245-15.949c5.946,16.496,4.37,35.568,4.418,52.688
	c0.03,10.978,1.606,21.75,2.891,32.627c1.523,12.906,2.18,25.697,2.449,38.676c0.275-0.016,0.552-0.032,0.826-0.041
	c1.479-0.096,2.96-0.157,4.441-0.203c0.886-12.752-1.162-25.799-2.701-38.432c-1.44-11.824-1.967-23.703-1.812-35.604
	c0.248-18.938,1.827-39.366-6.957-56.731c1.803-1.74,3.629-3.459,5.454-5.174c0.064,0.119,0.127,0.24,0.192,0.357
	c1.099,1.981,3.886,1.787,5.028,0c1.48-2.318,4.043-4.186,5.835-6.301c1.667-1.969,3.159-4.09,4.615-6.216
	C345.222,321.438,344.803,320.193,343.961,319.701z"></path>
<path fill="#1A1A1A" d="M383.34,465.125c-27.6-0.998-55.169-0.076-82.732,1.443c-13.214,0.729-26.644,1.486-39.75,3.338
	c-12.703,1.793-27.857,3.424-38.799,10.607c-0.472,0.311-0.285,1.021,0.284,1.049c12.646,0.572,25.742-3.863,38.178-5.85
	c14.006-2.234,27.766-4.191,41.947-4.93c26.947-1.398,53.944,1.117,80.875,2.09C388.34,473.057,388.322,465.305,383.34,465.125z"></path>

<path opacity="0.75" fill="#1A1A1A"  d="M330.75,451.875c-0.065-0.646,0.342-2.48,0.25-3.125
	c-0.049-1.297-0.928-3.816-1.125-5.125c0.981-2.351-1.122-4.534-1.532-7.678c-0.541-4.154-1.21-8.273-1.855-12.412
	c-0.425-2.707,0.025-5.19-0.361-7.91c-0.1-1.789,0.216-3.719,0.125-5.5c-0.219-4.285,0-8.731-0.125-13
	c0.29-4.643-1.042-9.098-1.096-13.648c0.593-0.898,0.966-2.055,0.998-3.477c0.229-10.193-1.072-20.314-1.132-30.5
	c-0.029-5.373-7.233-5.9-8.949-1.211c-0.68,1.852-1.555,3.602-2.537,5.293c-0.838,0.135-1.631,0.516-2.251,1.236
	c-1.946,2.264-3.377,4.709-4.624,7.344c-1.691-1.098-3.455-2.146-4.989-3.354c-2.35-1.848-6.076-5.012-7.861-8.031
	c-0.251-0.852-0.602-1.658-1.1-2.373c-2.372-3.412-7.059-0.514-5.47,3.193c0.792,1.359,0.509,3.398,0.206,5.105
	c-0.094,0.195-0.189,0.396-0.261,0.613c-0.943,2.91-1.373,5.834-1.096,8.875c-1.116,0.928-1.877,2.352-1.884,4.307
	c-0.053,14.609-1.133,29.229-0.936,43.836c0.194,14.334,2,28.893-0.281,43.154c-0.296,1.852,0.199,3.488,1.122,4.734
	c-1.572,2.568-0.296,6.664,3.328,6.41c0.69-0.049,1.301-0.18,1.851-0.375c3.332,0.344,6.549,0.387,9.634-0.533
	c0.472,0.816,1.444-0.009,2.328,0.273c3.608,1.143,7.375,2.841,10.189-0.026c0.291-0.297,0.518-0.607,0.684-0.926
	c0.36-0.211,2.857,0.872,3.127,0.577c4.294,0.385,6.412-0.562,10.713-0.581c2.703,0.062,5.883,1.159,5.787-0.919
	c0.193-0.586-1.627-4.413-1.709-5.063C330.683,457.48,331.467,455.723,330.75,451.875z"></path>
<path opacity="0.5" fill="#1A1A1A"  d="M278.901,315.535c-1.398-0.637-3.116-0.559-4.302,0.725
	c-0.83,0.9-2.064,1.786-2.791,2.709c-0.822,1.045-1.599,2.021-2.552,2.948c-2.453,2.39-1.639,6.179,1.025,7.96
	c2.428,1.623,4.55,3.064,7.324,4.098c2.913,1.086,5.817-1.672,5.874-4.475c0.051-2.479-0.099-5.561,1.191-7.76
	C287.076,317.641,282.322,313.947,278.901,315.535z"></path>
<path opacity="0.5" fill="#1A1A1A"  d="M339.75,317.875c-1.058-1.055-4.364-3.053-5.375-2.75
	c-0.276-0.391-6.168,0.631-6.625,0.625c-6.255-0.076,0.736,9.332,2.192,12.825c1.042,2.502,4.575,4.391,6.758,1.784
	C340.103,326.291,343.886,322.004,339.75,317.875z"></path>
<path opacity="0.5" fill="#1A1A1A"  d="M396.458,373.986c-7.572,1.465-17.4,5.006-22.347,11.285
	c-0.742,0.941-0.975,1.824-0.872,2.59c-0.557,0.445-1.099,0.914-1.611,1.428c-4.795,4.787,2.646,12.229,7.424,7.424
	c6.655-6.695,18.633-5.775,23.277-15.088C404.438,377.4,401.028,373.104,396.458,373.986z"></path>
<path opacity="0.5" fill="#1A1A1A"  d="M235.105,397.5c-0.408-5.781-3.688-10.199-8.327-13.486
	c-4.185-2.965-9.634-6.193-14.938-6.076c-2.974,0.066-4.958,2.076-5.663,4.443c-0.908,0.475-1.632,1.291-1.905,2.498
	c-2.229,9.836,16.451,16.658,23.536,18.182C231.235,403.797,235.383,401.438,235.105,397.5z"></path>
</svg>