<?xml version="1.0" encoding="utf-8"?>
<!-- Generator: Adobe Illustrator 15.0.2, SVG Export Plug-In . SVG Version: 6.00 Build 0)  -->
<!DOCTYPE svg PUBLIC "-//W3C//DTD SVG 1.1//EN" "http://www.w3.org/Graphics/SVG/1.1/DTD/svg11.dtd">
<svg version="1.1" id="Layer_1" xmlns="http://www.w3.org/2000/svg" xmlns:xlink="http://www.w3.org/1999/xlink" x="0px" y="0px"
	 width="600px" height="600px" viewBox="0 0 600 600" enable-background="new 0 0 600 600" xml:space="preserve">
<path fill="#4D4D4D" d="M420.107,290.805c-0.123-0.101-0.243-0.204-0.362-0.305c-0.197-0.563-0.509-1.104-0.984-1.585
	c-1.596-1.611-3.033-3.291-4.087-5.152c-0.012-0.071-0.029-0.139-0.04-0.21c-0.068-0.474-0.282-0.791-0.562-0.985
	c-0.678-1.492-1.104-3.103-1.158-4.892c-0.035-1.13-0.523-2.057-1.241-2.739c-0.171-1.477-0.338-3.604-1.338-6.604
	c0.916-4.898,0.086-6.459,0.084-11.221c-0.001-1.45-0.077-2.874-0.196-4.284c1.019-0.351,1.964-0.908,2.716-1.563
	c5.277-4.598,3.109-13.791,2.291-19.816c-0.988-7.288-2.431-14.483-4.383-21.574c-1.115-4.053-2.494-8.011-4.163-11.806
	c0.224-0.836,0.24-1.718-0.044-2.511c-3.071-8.572-6.854-16.872-10.854-25.053c3.34,1.357,7.324,1.053,10.165,2.811
	c0.546,0.482,1.089,0.965,1.645,1.435c1.624,2.01,4.422-0.839,2.828-2.828c-2.604-3.252-4.958-6.456-8.048-9.285
	c-0.439-0.402-0.913-0.616-1.387-0.708c-0.452-0.752-0.908-1.421-1.385-1.924c-3.213-3.405-6.005-7.21-8.768-10.981
	c-6.01-8.207-8.064-17.887-16.086-24.275c-8.462-6.738-21.745-9.631-32.589-10.664c-2.175-0.207-4.311-0.132-6.404,0.194
	c4.067-3.188,8.191-7.276,7.789-13.276h-0.053c-0.133-3-4.528-6.208-7.695-3.043c-2.1,2.098-2.959,5.096-4.979,7.293
	c-1.902,2.068-6.741,2.667-9.319,3.746c-6.837,2.859-11.204,3.255-18.5,4c-7.556,0.771-15.882,2.21-23.455,1.728
	c-6.401-0.407-12.76-1.153-19.182-0.864c-20.854,0.939-39.44,8.609-53.529,24.274c-10.274,11.423-23.032,30.688-18.823,47.015
	c-2.848,7.327-3.104,16.23-3.523,23.82c-0.449,8.111-0.362,16.231-1.576,24.279c-0.627,4.159-1.465,8.399-2.606,12.541
	c-2.708,4.575-4.983,9.375-5.936,14.513c-1.338,2.261-2.832,4.434-4.472,6.474c-2.361,2.939-5.265,6.018-6.34,9.676
	c-0.144,0.491,0.259,1.052,0.784,1.028c5.887-0.268,10.861-2.431,14.826-7.318c0.314-0.009,0.361,0.389,0.667,0.333
	c-0.252,3.239,0.122,3.376,0.035,6.62c-0.116,4.35-1.648,11.516,0.63,15.381c0.464,6.688,3.566,14.063,6.5,20
	c2.551,5.162,4.921,6.893,7.755,11.906c2.551,4.512,6.063,8.949,7.729,13.814c1.264,3.689,6.415,2.641,6.483-0.797
	c0.44,0.105,0.892,0.188,1.351,0.25c0.146,1.895,0.798,3.562,2.289,4.688c-0.129,1.887-0.291,3.771-0.45,5.643
	c-0.103,1.215,0.341,2.098,1.047,2.652c-0.031,2.004-0.008,4.023,0.606,5.861c0.412,1.23,2.272,2.088,3.238,0.855
	c4.728-6.035,7.638-12.613,9.652-19.994c1.771-6.484,6.99-14.068,5.187-21.121c0.668-1.003,1.348-2,2.045-2.988
	c2.682-3.807-0.847-10.244-5.587-9.736c-4.498,0.479-8.841-2.282-12.248-4.986c-3.946-3.132-7.685-6.316-10.229-10.714
	c-0.82-1.682-2.015-2.555-3.303-2.826c-1.209-2.95-2.025-6.07-2.75-9.166c-2.273-9.706-2.63-19.449-6.242-28.719
	c0.855-4.095,0.42-3.802,1.096-7.289c0.366-1.89,0.168-2.3,0.667-4.167c1.821,1.44,8.223-3.192,10.833-4
	c5.432-1.68,9.589-2.798,15-4.5c3.472-0.585,7.186-1.463,10.667-2c3.559-0.401,5.81-1.716,9.319-2.42
	c3.003-0.514,6.003-1.047,8.994-1.631c3.986-0.778,8.311-1.445,12.161-3.001c0.729,0.087,1.514,0.045,2.343-0.159
	c18.146-4.481,35.059-12.854,50.065-23.935c3.048-2.25,5.994-4.626,8.858-7.096c-3.394,5.029-6.712,10.061-5.826,16.576
	c0.014,0.087-0.519,1.167-0.5,1.25c-0.295,0.693-0.717,1.8-1,2.5c-1.022,2.534-0.753,4.024-0.426,6.755
	c0.304,2.546,3.347,4.496,5.44,2.254c2.081-2.227,5.028-3.722,7.4-5.652c2.895-2.355,5.616-4.916,8.267-7.539
	c5.309-5.253,9.554-12.172,13.374-18.536c1.07-1.782,2.075-3.599,3.036-5.44c1.19,2.552,2.771,4.921,4.594,6.915
	c3.997,4.371,9.355,7.707,14.689,10.176c4.887,2.262,12.088,5.37,17.431,3.117c2.271,5.914,3.917,12.154,5.417,17.744
	c1.572,5.861,2.794,11.88,3.583,17.898c0.394,2.987,0.521,6.1,1.132,8.994c-0.49,4.417-1.732,8.829-2.909,13.012
	c-1.276,4.534-3.255,9.178-4.276,13.902c-0.446,1.057-0.909,2.103-1.396,3.13c-2.106,4.457-4.146,8.553-7.239,12.428
	c-1.249,1.564-2.649,3.189-4.271,4.378c-0.935,0.685-1.951,1.256-2.905,1.913c-1.306,0.896-2.095,2.504-3.525,3.073
	c-2.785,1.105-4.048,3.276-3.55,6.25c1.466,8.742,4.377,16.18,8.686,23.914c1.991,3.576,3.938,7.177,5.875,10.778
	c2.05,3.81,5.454,10.341,6.163,14.618c0.72,4.344,7.171,2.807,7-1.5c-0.409-10.275,6.128-21.04,8.79-30.638
	c2.937-10.582,0.218-19.907-6.371-28.12c0.101-0.153,0.19-0.312,0.288-0.467c1.354,1.43,3.577,1.975,5.491,1.338
	c2.297,2.161,5.567,3.42,8.482,4.267c0.973,0.282,1.874,0.202,2.661-0.108C419.951,296.681,422.663,292.903,420.107,290.805z"/>
</svg>
