<?xml version="1.0" encoding="utf-8"?>
<!-- Generator: Adobe Illustrator 15.0.2, SVG Export Plug-In . SVG Version: 6.00 Build 0)  -->
<!DOCTYPE svg PUBLIC "-//W3C//DTD SVG 1.1//EN" "http://www.w3.org/Graphics/SVG/1.1/DTD/svg11.dtd">
<svg version="1.1" id="Layer_1" xmlns="http://www.w3.org/2000/svg" xmlns:xlink="http://www.w3.org/1999/xlink" x="0px" y="0px"
	 width="600px" height="600px" viewBox="0 0 600 600" enable-background="new 0 0 600 600" xml:space="preserve">
<path fill="#1A1A1A" d="M422.524,210.056c10.033-3.75,20.191-11.575,19.45-22.967c-0.866-13.321-11.169-20.564-23.366-21.39
	c0.966-2.557,2.207-4.907,4.038-7.103c2.229-2.674,4.007-5.319,5.334-8.56c2.978-7.272,2.618-14.801-0.078-22.126
	c-3.778-10.265-14.254-16.4-24.872-17.263c5.503-11.595,5.973-25.099,1.087-37.342c-5.974-14.968-19.012-26.048-35.452-26.726
	c-15.799-0.652-33.135,7.658-46.444,15.296c-9.905,5.685-21.061,13.726-27.236,24.121c-3.167-8.11-8.437-15.22-16.119-19.911
	c-9.162-5.595-20.584-6.285-30.827-3.823c-18.776,4.514-32.917,21.087-30.663,39.818c-9.279-5.053-19.652-7.436-30.335-5.138
	c-11.062,2.379-20.196,10.184-26.392,19.358c-12.264,18.163-12.329,44.146,4.003,59.409c-12.503,8.205-27.558,17.01-26.621,33.864
	c0.93,16.729,15.452,26.865,30.708,28.107c-8.98,8.659-12.896,21.42-5.775,33.201c3.248,5.373,9.157,9.275,15.419,9.905
	c8.043,0.809,14.59-3.157,19.549-9.197c1.845-2.247-0.937-5.044-3.182-3.182c-8.718,7.232-20.11,9.221-27.04-1.289
	c-7.408-11.235-0.203-23.661,9.924-29.907c1.995-1.231,1.386-5.09-1.293-4.775c-7.399,0.869-14.593,0.057-21.062-3.842
	c-6.647-4.008-10.403-12.815-10.819-20.291c-0.792-14.229,16.64-22.786,26.319-29.844c1.824-1.33,1.813-3.589,0-4.921
	c-17.336-12.737-16.445-36.874-5.748-53.592c5.238-8.187,13.271-14.505,22.723-16.942c11.805-3.043,23.54,1.877,32.963,8.771
	c2.261,1.654,5.624-1.082,4.724-3.631c-6.602-18.707,6.494-34.674,24.451-39.158c8.519-2.126,17.73-1.136,25.329,3.333
	c9.549,5.615,13.739,16.249,15.511,26.674c0.611,3.598,6.586,3.576,7.218,0c2.455-13.918,15.59-23.269,27.007-29.878
	c11.872-6.874,25.878-12.504,39.668-13.633c13.621-1.115,24.152,7.787,29.521,19.639c5.632,12.432,4.264,27.605-3.879,38.496
	c-2.577,3.447,1.653,7.974,5.327,6.93c10.503-2.987,20.632,3.727,24.053,13.745c3.885,11.378-1.471,22.349-6.357,32.507
	c-0.841,1.749,0.214,3.343,2.051,3.574c9.254,1.163,18.466,7.315,18.063,17.537c-0.162,4.117-1.2,8.105-2.62,11.975
	c-2.027,5.525-8.574,7.729-13.869,8.569c-1.769,0.281-1.258,2.56,0,3.087c4.104,1.719,8.091,6.407,10.708,9.95
	c2.513,3.403,4.096,7.645,4.512,11.854c1.051,10.652-9.386,13-17.794,12.519c-3.789-0.217-5.219,4.566-2.923,7.057
	c3.56,3.863,4.658,8.225,0.637,12.098c-3.315,3.193-9.136,2.452-12.311-0.424c-4.581-4.149-11.363,2.554-6.807,6.806
	c7.065,6.592,17.084,6.629,24.433,0.318c5.913-5.079,6.812-11.936,4.218-18.103c9.627-1.876,16.874-8.562,17.665-19.467
	c0.426-5.862-2.1-11.615-5.562-16.204C430.455,213.662,426.871,211.667,422.524,210.056z"/>
<path fill="#1A1A1A" d="M388.837,201.498c-6.413,5.154-13.186,2.868-15.388-5.079c-0.52-1.875-2.996-2.1-3.998-0.522
	c-9.022,14.201-22.93,27.622-40.336,17.854c-12.169-6.829-8.784-25.252-9.367-36.75c-0.122-2.409-3.169-3.265-4.487-1.215
	c-7.234,11.25-15.543,26.455-30.382,27.664c-13.811,1.125-16.713-13.312-22.699-22.523c-0.979-1.505-3.403-1.345-3.894,0.509
	c-6.49,24.53-29.694,44.847-55.495,33.084c-3.31-1.509-6.22,3.181-2.902,4.965c13.4,7.205,28.052,7.565,40.711-1.388
	c10.156-7.183,16.82-18.349,20.384-30.148c2.04,4.429,3.777,9.013,6.545,13.047c4.067,5.929,10.356,8.117,17.35,7.813
	c13.98-0.606,22.991-12.398,30.193-23.652c-0.135,13.626-0.986,27.864,13.52,34.763c17.862,8.497,33.102-3.029,42.29-17.756
	c4.364,8.205,14.734,10.874,21.293,1.91C393.715,201.968,390.562,200.112,388.837,201.498z"/>
</svg>
