<?xml version="1.0" encoding="utf-8"?>
<!-- Generator: Adobe Illustrator 15.0.2, SVG Export Plug-In . SVG Version: 6.00 Build 0)  -->
<!DOCTYPE svg PUBLIC "-//W3C//DTD SVG 1.1//EN" "http://www.w3.org/Graphics/SVG/1.1/DTD/svg11.dtd">
<svg version="1.1" id="Layer_1" xmlns="http://www.w3.org/2000/svg" xmlns:xlink="http://www.w3.org/1999/xlink" x="0px" y="0px"
	 width="600px" height="600px" viewBox="0 0 600 600" enable-background="new 0 0 600 600" xml:space="preserve">
<path fill="#1A1A1A" d="M376.087,173.634c-3.665-6.552-10.222-11.868-16.225-16.166c-4.609-3.3-9.479-6.335-14.862-7.933
	c-0.252-0.503-0.707-0.906-1.39-1.058c-8.842-1.963-13.627-6.955-18.876-13.944c-3.96-5.272-8.264-10.171-14.234-13.159
	c-6.083-3.043-14.66-4.476-20.348-1.519c0.3-5.286,0.588-10.572,0.2-15.855c-0.134-1.819-2.25-3.607-4.031-2.313
	c-6.917,5.026-15.023,16.075-11.651,24.955c-8.818-2.699-21.91,0.508-24.041,9.853c-0.454,1.99,0.923,3.995,3.044,3.997
	c5.708,0.004,12.087-0.492,17.417,1.895c-36.623,8.547-72.007,38.289-73.688,76.948c-0.165,3.788,5.719,3.775,5.875,0
	c1.758-42.635,45.676-68.868,84.396-71.333c5.112-0.326,5.17-8.265,0-8c-3.771,0.193-7.581,0.639-11.395,1.317
	c-2.138-3.092-4.212-4.952-8.075-6.307c-2.884-1.01-6.013-1.112-9.118-1.028c4.353-4.21,13.245-4.901,18.255-3.443
	c0.908,0.264,1.807-0.629,1.539-1.539c-2.223-7.553,0.771-14.639,6.22-19.674c-0.064,6.672-0.79,13.324-0.828,20.006
	c-0.021,3.574,5.182,3.464,5.471,0c0.959-11.521,19.095-3.014,24.031,1.041c8.021,6.588,12.611,15.677,21.42,20.149
	c-5.323,0.972-11.11,0.886-15.889-1.019c-1.462-0.96-3.028-1.768-4.646-2.411c-4.058-1.613-6.242,4.616-2.854,6.772
	c1.192,0.759,2.382,1.369,3.567,1.862c3.231,1.913,5.685,4.272,6.82,8.443c1.456,5.343,0.332,10.94-1.049,16.15
	c-1.76,6.645-4.491,13.501-4.896,20.437c-1.729-4.212-3.482-8.412-5.121-12.658c-1.33-3.449-2.251-7.061-2.589-10.743
	c-0.376-4.098,0.888-8.278-0.275-12.253c-0.667-2.279-3.935-3.49-5.641-1.49c-5.364,6.291-2.79,16.68-0.186,23.709
	c3.177,8.571,8.729,15.374,13.62,22.957c1.1,1.706,4.222,0.624,3.427-1.445c-0.365-0.952-0.748-1.896-1.125-2.844
	c0.311-4.325,2.071-8.606,3.487-12.624c2.095-5.943,4-12.126,5.243-18.305c1.111-5.523,1.998-10.687,0.003-16.145
	c-0.21-0.573-0.455-1.125-0.721-1.664c4.882-0.45,9.777-2.083,14.77-3.641c5.027,2.241,9.878,5.765,14.186,8.958
	c5.564,4.124,11.045,8.721,15.114,14.365C372.862,180.296,378.186,177.386,376.087,173.634z"/>
</svg>
