<?xml version="1.0" encoding="utf-8"?>
<!-- Generator: Adobe Illustrator 15.0.2, SVG Export Plug-In . SVG Version: 6.00 Build 0)  -->
<!DOCTYPE svg PUBLIC "-//W3C//DTD SVG 1.1//EN" "http://www.w3.org/Graphics/SVG/1.1/DTD/svg11.dtd">
<svg version="1.1" id="Layer_1" xmlns="http://www.w3.org/2000/svg" xmlns:xlink="http://www.w3.org/1999/xlink" x="0px" y="0px"
	 width="600px" height="600px" viewBox="0 0 600 600" enable-background="new 0 0 600 600" xml:space="preserve">
<path fill="#1A1A1A" d="M388.349,199.734c-4.211-0.59-8.13-1.161-11.837-3.396c-4.349-2.622-7.234-7.429-9.154-11.988
	c-0.891-2.117-3.973-2.524-4.715,0c-2.204,7.495-6.158,13.951-10.996,19.831c0.96-4.526,1.783-9.083,2.437-13.654
	c1.024-7.166,0.8-14.359,1.586-21.526c0.189-1.729-2.315-2.166-3.109-0.842c-3.377,5.631-6.222,11.12-10.716,16.006
	c-4.544,4.94-9.97,8.956-15.69,12.42c-12.83,7.768-27.62,12.27-42.136,15.668c-15.199,3.558-30.625,4.977-46.181,5.714
	c-12.954,0.613-25.913,0.9-38.836-0.466c-1.69-0.179-2.037,2.595-0.399,2.946c29.054,6.236,59.527,4.564,88.382-1.945
	c15.142-3.416,29.933-9.034,42.931-17.61c8.616-5.686,18.24-14.11,23.093-24.032c-0.186,4.911-1.352,9.855-2.416,14.596
	c-1.589,7.08-3.897,13.947-6,20.881c-0.731,2.413,2.442,4.191,4.176,2.431c6.907-7.015,12.948-14.698,16.682-23.719
	c4.967,7.706,13.451,13.745,22.9,11.218C389.517,201.954,389.688,199.922,388.349,199.734z"/>
<path fill="#1A1A1A" d="M438.153,315.928c-34.021,6.512-21.896-45.863-17.976-63.772c2.794-12.766,6.412-25.164,6.771-38.323
	c0.524-19.167-3.714-40.861-15.756-56.247c-3.729-4.765-8.522-8.861-14.06-11.095c2.006-0.866,3.969-1.835,5.884-3.125
	c4.186-2.819,7.589-6.799,10.35-10.982c1.686-2.554-1.48-4.721-3.751-3.751c-11.142,4.763-23.355,1.034-34.104-3.148
	c-14.729-5.729-28.511-13.823-42.437-21.218c-12.444-6.608-38.674-22.675-54.376-15.137c1.314-4.039,2.715-8.051,3.469-12.256
	c0.536-2.992-2.118-4.901-4.828-3.711c-13.919,6.113-22.993,16.651-25.926,30.931c-4.536-4.829-12.02-5.001-19.136-4.229
	c-10.247,1.112-19.789,5.237-29.903,6.875c-1.517,0.246-2.109,2.247-1.401,3.445c3.054,5.169,7.489,8.836,12.515,11.718
	c-9.187,2.192-17.377,6.731-23.414,14.56c-7.706,9.993-11.036,22.471-12.892,34.757c-2.041,13.516-1.65,27.249-4.066,40.732
	c-2.588,14.449-10.933,25.052-22.417,33.829c-2.104,1.608-1.326,4.466,1.298,4.792c5.891,0.733,11.702,0.318,17.274-1.358
	c-2.574,12.883-1.625,25.549,2.49,38.259c4.241,13.102,11.007,25.254,15.196,38.372c3.32,10.398,4.668,21.472,2.782,32.269
	c-2.077,11.887-9.716,19.679-21.472,22.235c-2.783,0.604-2.467,4.531,0,5.303c4.802,1.503,9.996,2.546,15.037,2.063
	c-1.932,4.215-3.607,8.621-3.993,13.16c-0.544,6.401,2.4,12.082,5.96,17.135c1.485,2.106,4.985,0.034,3.454-2.02
	c-2.986-4.003-6.238-8.712-6.555-13.836c-0.403-6.517,3.571-11.75,7.693-16.289c1.809-1.992,0.038-4.969-2.566-4.408
	c-2.661,0.573-5.194,0.772-7.699,0.684c6.302-3.361,11.312-8.616,14.306-15.6c4.399-10.262,3.759-21.877,1.693-32.615
	c-2.536-13.184-8.895-25.326-14.154-37.56c-7.126-16.577-10.466-32.857-5.865-50.655c0.625-2.418-1.858-3.993-3.931-3.021
	c-4.106,1.925-8.467,2.824-12.902,2.996c7.632-6.875,13.713-14.886,17.574-24.675c4.707-11.936,4.802-25.388,5.708-38.011
	c0.876-12.223,2.62-24.907,7.944-36.069c5.984-12.545,17.261-20.12,31.026-21.556c2.054-0.214,3.609-3.368,1.199-4.426
	c-5.902-2.59-11.256-5.656-15.28-10.546c12.679-3.815,38.008-15.463,42.61,0.278c0.47,1.606,1.995,2.036,3.254,1.668
	c1.079,0.05,2.215-0.493,2.568-1.702c1.925-6.607,3.958-13.123,7.957-18.801c2.813-3.995,6.688-7.092,10.886-9.613
	c-1.565,5.543-3.542,10.97-4.268,16.766c-0.384,3.067,4.403,4.157,5.729,1.552c4.89-9.616,15.548-7.701,24.22-4.928
	c13.737,4.392,26.471,12.05,39.066,18.924c13.191,7.199,26.489,14.571,40.744,19.474c7.469,2.568,16.612,4.732,24.645,2.938
	c-3.732,4.133-9.159,7.165-14.329,7.804c-2.113,0.261-3.171,2.904-1.129,4.167c8.254,5.101,14.99,10.592,20.133,18.994
	c5.322,8.697,8.13,18.816,9.706,28.813c2.382,15.102,0.253,29.358-3.166,44.007c-3.39,14.521-6.538,29.229-7.317,44.159
	c-0.627,12.009,0.247,26.854,10.773,34.629c1.867,1.379,3.95,2.282,6.142,2.83c-4.823,1.389-9.849,2.355-14.375,4.526
	c-2.038,0.978-1.262,3.858,0.584,4.467c14.096,4.653,10.628,20.222,8.5,31.389c-2.271,11.919-8.212,24.956-6.851,37.255
	c0.14,1.26,1.94,1.313,2,0c0.882-19.415,28.591-58.13,4.539-70.811c2.76-0.541,5.547-0.838,8.448-1.426
	c5.062-1.024,9.287-3.257,13.266-6.511C443.951,319.045,440.965,315.39,438.153,315.928z"/>
<path fill="#1A1A1A" d="M220.276,496.276c-3.992,3.256-7.298,7.764-12.158,8.89c2.557-5.152,3.015-10.646,1.8-16.694
	c-1.707-8.501-5.477-16.093-2.809-24.891c0.708-2.336-2.962-3.969-3.998-1.686c-3.091,6.815-2.856,13.119-0.971,20.228
	c2.279,8.591,4.889,16.067-1.156,23.861c-1.181,1.523-1.085,4.312,1.258,4.765c9.066,1.753,17.425-3.716,21.862-11.519
	C225.55,496.688,222.344,494.59,220.276,496.276z"/>
<path fill="#1A1A1A" d="M420.776,466.224c-5.519-6.089-13.042-11.306-13.464-20.224c-0.141-2.965-4.724-2.99-4.625,0
	c0.289,8.754,5.698,14.227,11.166,20.061c-5.099,0.018-9.922-1.792-14.35-4.633c-2.489-1.597-5.697,1.582-4.076,4.076
	c3.634,5.589,2.016,10.002-1.842,14.896c-2.464,3.126-6.27,6.23-5.898,10.6c0.12,1.409,1.399,2.745,2.928,2.229
	c5.118-1.727,8.748-8.401,11.133-12.925c1.813-3.438,2.385-6.983,1.836-10.426c5.155,1.692,10.64,2.006,16.084,0.544
	C421.564,469.913,422.021,467.597,420.776,466.224z"/>
</svg>
