<?xml version="1.0" encoding="utf-8"?>
<!-- Generator: Adobe Illustrator 15.0.2, SVG Export Plug-In . SVG Version: 6.00 Build 0)  -->
<!DOCTYPE svg PUBLIC "-//W3C//DTD SVG 1.1//EN" "http://www.w3.org/Graphics/SVG/1.1/DTD/svg11.dtd">
<svg version="1.1" id="Layer_1" xmlns="http://www.w3.org/2000/svg" xmlns:xlink="http://www.w3.org/1999/xlink" x="0px" y="0px"
	 width="600px" height="600px" viewBox="0 0 600 600" enable-background="new 0 0 600 600" xml:space="preserve">
<path fill="#4D4D4D" d="M413.708,464.292c-3.141-3.694-6.352-7.384-9.028-11.42c0.266-0.886,0.196-1.864-0.388-2.796
	c-1.461-2.331-2.215-4.354-5.254-4.843c-0.128-0.021-0.256-0.026-0.383-0.036c-0.202-1.07-0.357-2.144-0.468-3.197
	c-0.348-3.305-3.261-4.586-5.562-3.819c-3.258-7.314-6.845-14.552-9.512-21.983c0.033-0.728,0.046-1.454-0.006-2.194
	c-0.162-2.301-1.75-4.022-4.111-4.111c-0.333-0.013-0.667-0.021-1-0.034c-2.786-0.104-4.598,2.717-4,5.251
	c2.297,9.741,6.573,19.222,10.038,28.843c-1.533,1.031-2.509,2.912-1.997,5.422c1.474,7.227,2.797,14.381,5.498,21.163
	c0.186,2.44,0.259,4.888,0.241,7.299c-0.036,1.391-0.088,2.78-0.114,4.171c-0.133,7.016,9.954,6.681,10.668,0
	c0.174-1.633,0.267-3.244,0.293-4.838c1.161-1.021,1.99-2.469,2.123-4.162c0.199-2.535,0.178-5.019-0.012-7.464
	c2.562,2.271,5.61,4.069,9.241,5.156C413.902,471.866,416.055,467.054,413.708,464.292z"/>
<path fill="#4D4D4D" d="M422.718,326.131c0.294-0.093,0.528-0.244,0.732-0.418c0.255,0.059,0.501,0.13,0.759,0.182
	c3.225,0.645,5.394-3.733,2.305-5.483c-4.975-2.818-10.194-6.253-13.314-11.163c-2.634-4.146-2.691-9.75-2.479-14.507
	c0.256-5.677,1.765-11.291,3.194-16.761c1.421-5.428,4.561-12.759,3.183-18.305c-0.252-1.014-0.855-1.893-1.648-2.58
	c1.027-2.847,1.717-5.856,2.383-8.708c1.554-6.658,2.492-13.422,3.294-20.208c1.378-11.66,3.756-18.859,1.625-30.429
	c-1.82-9.889-3.824-20.941-10-28.75c-2.498-4.424-10.2-11.956-12.5-14.25c-2.116-2.111-5.003-3.306-7.413-4.948
	c5.528-2.864,10.53-6.552,15.389-10.581c2.499-2.072,1.268-7.091-2.009-7.61c-6.977-1.107-13.776-1.556-20.854-1.582
	c-1.974-0.007-4.826,0.103-7.409,0.751c-0.545-0.69-1.2-1.317-1.967-1.845c-5.497-3.788-12.229-6.105-18.361-8.676
	c-6.762-2.835-13.639-5.4-20.362-8.321c-9.457-4.109-18.265-9.391-27.604-13.722c-7.549-3.499-15.731-7.036-24.243-6.345
	c-5.666,0.46-10.078,2.997-13.376,6.765c0.096-4.891,0.858-9.765,2.329-14.433c1.527-4.851-5.99-8.11-8.263-3.483
	c-3.556,7.238-10.298,12.322-13.302,19.896c-0.759,1.914-1.299,3.83-1.549,5.782c-0.261-0.19-0.522-0.38-0.783-0.567
	c-0.421-0.559-0.989-1.07-1.73-1.501c-1.685-0.98-3.263-2.109-4.948-3.089c-2.04-1.188-3.926-1.032-5.357-0.148
	c-1.001-0.667-2.27-1.017-3.728-0.809c-4.718,0.671-9.405,1.751-14.038,2.861c-1.216,0.292-2.087,0.93-2.679,1.735
	c-2.402,0.278-4.771,0.451-6.982,0.525c-1.893,0.063-3.147,1.587-3.464,3.209c-2.57-0.382-4.475,3.08-1.813,4.574
	c2.162,1.172,4.369,2.189,6.529,3.287c1.333,0.949,2.562,1.927,3.938,2.75c0.522,1.083,1.052,2.162,1.589,3.238
	c-0.419,0.185-0.839,0.368-1.257,0.555c-3.055,1.368-5.902,3.106-8.587,5.074c-3.604,1.193-6.872,3.29-9.764,5.718
	c-7.265,6.1-11.154,15.838-13.755,24.685c-2.991,10.175-5.251,20.952-6.225,31.518c-0.369,4.009-0.56,7.92-0.278,11.883
	c-0.496,2.478-0.824,5.018-1.457,7.447c-0.916,3.513-2.218,6.927-3.5,10.318c-2.016,5.333-3.842,10.429-4.776,15.907
	c-3.104,2.726-6.902,5.253-10.428,5.862c-1.503,0.259-2.051,1.416-1.906,2.572c-0.146,1.156,0.403,2.312,1.906,2.572
	c3.067,0.529,5.945,0.087,8.628-1.028c1.274,1.56,3.002,2.111,4.878,2.086c-0.476,2.273-0.792,4.626-0.876,7.122
	c-0.296,8.78,1.616,17.625,3.984,26.03c3.991,14.165,9.612,28.157,15.165,41.92c-0.987,1.244-1.583,2.854-1.528,4.799
	c0.248,8.693,6.001,16.161,6.854,24.818c0.379,3.85-1.75,8.39-3.273,11.834c-1.875,4.241-4.025,8.354-7.042,11.887
	c-0.554,0.647-0.873,1.345-1.004,2.038c-1.916,1.388-4.781,3.865-6.5,4.234c-2.021,0.435-1.421,3.322,0.465,3.438
	c1.882,0.113,3.438,1.283,5.367,1.283c1.578,0,3.347-0.489,4.759-1.166c1.229-0.588,0.414,0.368,1.53-0.368
	c-0.72,0.87,0.576,0.132-0.064,1.055c-3.573,3.03-7.329,7.609-7.413,12.398c-0.287,0.837-0.496,1.704-0.599,2.613
	c-0.598,5.256,0.946,10.385,5.743,13.155c2.541,1.472,6.938-0.344,6.489-3.724c-0.336-2.529-0.678-5.158-0.906-7.808
	c0.207-0.384,0.377-0.78,0.457-1.217c0.079-0.426,0.12-0.815,0.149-1.196c0.101-0.227,0.2-0.456,0.302-0.682
	c0.631-0.271,1.231-0.682,1.757-1.272c4.237-4.786,8.226-10.081,11.994-15.248c3.681-5.048,6.452-11.179,6.034-17.509
	c1.53-2.873,2.516-6.062,2.938-9.396c2.449-3.479,4.612-7.23,6.735-10.544c4.222-6.584,6.578-13.592,7.115-21.287
	c0.018-0.041,0.033-0.077,0.049-0.118c0.044-0.053,0.085-0.104,0.13-0.154l-0.025-0.021c0.023-0.031,0.048-0.064,0.071-0.102
	c-0.017,0.044-0.028,0.072-0.046,0.119c0.613-0.688,1.032-1.506,1.282-2.377c1.029-2.369,1.316-4.901,0.59-7.232
	c2.21-2.38,2.978-6.604,0.568-9.464c-7.479-8.876-19.062-12.292-26.856-20.602c-5.698-6.074-7.69-14.819-10.062-23.092
	c3.298-6.242,1.831-15.044,1.625-21.842c-0.019-0.633-0.05-1.265-0.076-1.897c0.711-5.716,1.333-11.403,1.503-17.166
	c0.209-0.53,0.423-1.058,0.622-1.592c14.686,4.104,31.701,1.118,46.645-0.017c19.254-1.463,39.48-4.084,57.521-11.279
	c1.522-0.607,3.024-1.256,4.518-1.928c0.645,2.34,3.296,3.938,6.229,2.643c4.491-1.985,8.64-5.556,12.645-8.396
	c4.177-2.963,8.146-6.156,11.858-9.681c3.632-3.445,6.523-6.646,8.993-11.077c1.146-2.055,2.48-4.559,3.465-7.172
	c0.791-1.02,1.561-2.057,2.312-3.104c0.286,2.594,0.605,5.195,0.752,7.767c0.022,0.982,0.051,1.965,0.077,2.944
	c-0.006,0.421,0.062,0.791,0.16,1.138c-0.296,2.149-0.646,4.256-0.968,6.233c-0.612,3.759-1.396,7.349-2.429,10.915
	c-0.613,2.001-1.267,3.977-1.945,5.915c-1.299,3.699,4.45,5.175,5.809,1.601c0.701-1.847,1.377-3.733,2.01-5.643
	c2.163-5.909,4.608-8.462,6.909-14.326c4.402,8.974,12.557,13.185,22.146,15.908c1.7,0.483,3.179-0.238,4.045-1.421
	c0.587,17.317,3.585,34.418,4.735,51.682c0.111,1.676,0.853,2.936,1.887,3.779c0.263,1.074,0.562,2.135,0.897,3.184
	c-2.452,3.855-4.146,8.849-5.818,12.535c-1.012,2.228-2.099,4.443-3.194,6.659c-4.431,5.128-9.247,10.035-12.744,15.787
	c-4.216-1.334-9.582,3.544-6.406,7.764c1.382,1.836,2.469,3.784,3.412,5.796c0.102,0.388,0.235,0.772,0.369,1.159
	c-0.279,0.58-0.384,1.304-0.197,2.179c3.402,15.938,12.367,30.2,16.772,45.892c0.804,2.863,2.748,4.254,4.883,4.555
	c2.215,5.326,4.371,10.682,6.182,16.152c0.751,2.269,2.479,3.422,4.332,3.688c0.647,1.979,1.24,3.98,1.786,6.003
	c1.34,4.964,7.79,3.363,8.337-1.128c1.097-8.99,7.308-14.688,9.082-23.502c1.609-7.988,2.695-16.596-1.334-23.666
	c-1.198-2.104-6.91-6.258-8.504-8.086c0.625-0.041,0.914-1.953,1.5-2C419.51,328.465,422.271,328.68,422.718,326.131z"/>
<path fill="#4D4D4D" d="M220.132,441.209c-1.226,3.933-2.879,7.612-4.909,11.194c-1.08,1.901-2.287,3.771-3.898,5.261
	c-1.342,1.239-3.161,1.632-4.637,2.669c-2.779,1.953-3.432,4.904-2.726,7.428c-0.125,0.643-0.207,1.312-0.195,2.048
	c0.058,3.843,0.678,7.569,1.673,11.271c0.984,3.662,2.057,7.277,2.639,11.031c0.187,1.203,1.794,2.23,1.811,3.232
	c0.039,2.325-1.496,3.974-3.085,5.458c-3.261,3.058,0.889,7.975,4.62,5.988c3.163-1.681,5.31-3.908,6.793-6.477
	c0.534,0.258,1.129,0.411,1.783,0.411c1.01,0,1.993-0.412,2.764-1.066c1.936-1.188,2.705-3.843,1.558-6.055
	c-0.006-0.015-0.01-0.021-0.016-0.03c-0.003-0.047-0.015-0.123-0.042-0.244c-0.051-0.229-0.146-0.46-0.191-0.69
	c-0.01-0.049-0.073-0.085-0.073-0.122c0-0.008,0-0.012,0-0.019c0-1.786-1.138-3.325-2.762-3.868
	c0.145-1.959,0.221-3.954,0.245-5.945c0.071-5.837,0.694-11.339,1.689-17.093c0.619-3.577,1.459-7.091,1.718-10.718
	c0.236-3.31,0.199-6.403,0.59-9.619c0.138-0.823,0.27-1.646,0.386-2.466C226.614,439.051,221.282,437.521,220.132,441.209z"/>
</svg>
