<?xml version="1.0" encoding="utf-8"?>
<!-- Generator: Adobe Illustrator 15.0.2, SVG Export Plug-In . SVG Version: 6.00 Build 0)  -->
<!DOCTYPE svg PUBLIC "-//W3C//DTD SVG 1.1//EN" "http://www.w3.org/Graphics/SVG/1.1/DTD/svg11.dtd">
<svg version="1.1" id="Layer_1" xmlns="http://www.w3.org/2000/svg" xmlns:xlink="http://www.w3.org/1999/xlink" x="0px" y="0px"
	 width="600px" height="600px" viewBox="0 0 600 600" enable-background="new 0 0 600 600" xml:space="preserve">
<path fill="#1A1A1A" d="M390.34,201.625c-13.679,1.427-23.848-5.861-28.534-18.581c-1.031-2.798-4.919-3.741-6.569-0.858
	c-1.05,1.833-2.062,3.729-3.115,5.605c0.827-8.213,0.568-16.511-0.443-24.791c-0.67-5.489-8.217-5.672-8.676,0
	c-1.737,21.461-20.901,29.704-38.028,37.93c-13.47,6.47-26.981,13.306-35.176,25.206c0.158-17.649,5.986-36.286,15.792-50.236
	c2.828-4.022-3.649-7.601-6.5-3.8c-20.558,27.411-48.341,47.997-82.298,54.911c-2.258,0.46-1.762,4.359,0.548,4.051
	c17.566-2.341,34.823-7.681,49.801-17.303c7.022-4.511,13.459-9.729,19.391-15.472c-4.138,13.472-5.291,27.846-2.462,41.614
	c0.681,3.315,5.77,3.176,6.54,0c4.821-19.876,28.763-26.894,45.146-34.227c11.426-5.114,22.313-12.029,29.051-21.781
	c-0.061,5.431-0.583,10.854-1.676,16.222c-0.679,3.33,3.003,5.454,5.561,3.237c3.789-3.284,6.586-7.381,9.183-11.616
	c6.496,11.596,18.303,18.369,32.465,16.638C394.579,207.857,394.695,201.171,390.34,201.625z"/>
<path fill="#1A1A1A" d="M417.974,203.206c-9.81-7.362-17.255-18.247-20.439-30.086c-0.064-0.24-0.15-0.456-0.248-0.656
	c5.245-0.056,10.218-2.431,14.33-6.187c1.918-1.751,0.723-4.604-1.421-5.381c-8.387-3.04-14.971-12.362-20.221-19.082
	c-7.814-10.001-15.138-20.294-23.602-29.779c-7.352-8.239-15.498-16.193-25.942-20.265c-5.347-2.084-10.36-2.078-15.098-0.676
	c1.532-3.555,2.318-7.229,2.504-11.094c0.189-3.944-5.028-5.923-7.677-3.18c-17.797,18.432-45.86,19.681-69.674,23.749
	c-13.362,2.282-30.954,5.729-40.99,16.07c0.179-0.964,0.364-1.927,0.56-2.89c0.571-2.818-2.541-4.618-4.708-2.74
	c-10.22,8.859-17.315,21.502-21.882,34.073c-3.341,9.197-4.911,19.556-1.465,28.507c-0.865-0.473-1.722-0.958-2.555-1.482
	c-1.281-0.807-2.75,0.033-3.221,1.311c-2.709,7.355,0.404,14.747,6.287,19.273c-3.534,4.328-8.45,7.167-12.791,10.691
	c-1.974,1.602-1.045,4.597,0.75,5.816c2.44,1.658,4.985,2.449,7.943,2.217c1.084-0.085,2.12-0.386,3.158-0.689
	c1.108-0.324,2.85-0.487,2.394-1.337c0.307,0.573,0.749,0.934,1.242,1.136c-4.055,10.693-6.827,21.509-16.106,29.237
	c-1.754,1.461-0.864,4.896,1.397,5.292c3.446,0.604,6.303,0.766,9.204,0.401c-1.679,4.797-1.381,9.734,1.766,14.628
	c4.055,6.306,10.101,10.478,13.443,17.337c1.465,3.007,5.765,0.805,5.141-2.167c-1.196-5.696-5.937-10.521-9.831-14.582
	c-5.687-5.93-7.063-10.95-2.33-18.18c1.35-2.062-0.905-5.28-3.336-4.34c-2.071,0.801-4.217,1.132-6.386,1.191
	c7.107-8.938,9.516-19.672,14.004-30.562c1.022-2.479-2.26-4.415-4.244-3.465c-1.666-1.851-4.475-1.599-7.306-1.447
	c3.253-3.025,6.122-6.41,8.05-10.505c0.807-1.712,0.088-3.271-1.614-3.969c-5.227-2.141-7.945-6.884-7.263-12.073
	c2.436,1.263,4.968,2.431,7.026,4.197c2.094,1.797,4.904-0.962,3.038-3.038c-8.294-9.228-4.18-24.085-0.106-34.304
	c3.159-7.923,7.731-16.021,13.415-22.797c-0.304,2.527-0.508,5.065-0.542,7.62c-0.041,3.081,4.533,3.676,5.332,0.722
	c5.315-19.661,32.68-21.863,49.383-23.2c20.18-1.616,41.606-3.812,58.695-14.822c-1.329,2.692-3.651,5.192-3.401,8.301
	c0.243,3.028,3.956,5.158,6.327,2.621c15.525-16.611,37.01,9.894,46.33,20.915c7.606,8.994,14.959,18.205,22.872,26.937
	c4.492,4.957,9.236,10.504,15.067,14.096c-3.111,1.727-6.607,2.275-10.219,0.572c-1.217-0.574-2.539-0.466-3.518,0.165
	c-0.311,0.458-0.559,0.942-0.765,1.443c1.894,8.892,5.464,16.847,9.777,24.823c2.617,4.153,5.714,8.008,9.221,11.414
	c-1.536-0.083-3.075-0.283-4.635-0.713c-2.339-0.645-4.54,2.025-3.197,4.158c7.212,11.458,7.635,25.667,3.889,38.44
	c-1.769-3.237-4.405-5.856-7.979-6.556c-1.181-0.231-2.664,0.801-2.152,2.153c0.83,2.193,2.177,3.359,3.56,5.285
	c1.788,2.491,2.785,6.235,2.929,9.25c0.147,3.081,4.331,4.494,5.961,1.615c8.058-14.227,9.642-32.747,2.156-47.407
	c2.628,0.185,5.291,0.04,8.082,0.029C419.82,209.224,420.41,205.035,417.974,203.206z"/>
</svg>
