<?xml version="1.0" encoding="utf-8"?>
<!-- Generator: Adobe Illustrator 15.0.2, SVG Export Plug-In . SVG Version: 6.00 Build 0)  -->
<!DOCTYPE svg PUBLIC "-//W3C//DTD SVG 1.1//EN" "http://www.w3.org/Graphics/SVG/1.1/DTD/svg11.dtd">
<svg version="1.1" id="Layer_1" xmlns="http://www.w3.org/2000/svg" xmlns:xlink="http://www.w3.org/1999/xlink" x="0px" y="0px"
	 width="600px" height="600px" viewBox="0 0 600 600" enable-background="new 0 0 600 600" xml:space="preserve">
<path fill="#4D4D4D" d="M426.322,210.317c-1.777-0.546-3.607-0.834-5.462-0.992c-0.25-0.241-0.508-0.471-0.781-0.665
	c-2.279-1.609-3.961-2.79-5.84-4.834c-1.214-1.32-2.529-2.557-3.867-3.775c-0.782-3.301-3.555-5.759-5.347-8.646
	c-2.396-3.861-3.911-8.265-5.411-12.529c-1.605-4.565-3.153-9.151-4.786-13.706c2.501,1.991,5.292,3.241,9.479,2.506
	c4.697-0.824,4.896-7.474,1.262-9.646c-4.624-2.763-7.194-7.548-11.675-10.785c-2.473-1.787-5.19-3.147-7.966-4.413
	c2.343-1.054,4.609-2.481,6.798-4.447c4.783-4.297-1.264-10.561-6.305-8.143c-0.022-0.039-0.046-0.078-0.068-0.117
	c-0.229,0.173-0.47,0.321-0.706,0.476c-4.427-1.457-10.191-0.05-15.01,1.084c-2.782-1.421-6.053-2.113-8.945-3.149
	c-5.099-1.826-9.715-4.566-13.894-7.995c-8.093-6.638-17.043-11.421-26.747-15.239c-10.896-4.287-22.433-6.879-34.156-7.104
	c-12.564-0.241-23.972,4.518-35.632,8.56c-0.056,0.02-0.1,0.048-0.154,0.068c1.518-2.331,2.622-4.906,3.676-7.547
	c0.516-1.073,0.954-2.175,1.304-3.281c0.983-3.113-3.748-4.327-4.829-1.331c-1.238,3.455-3.811,5.706-5.982,8.359
	c-1.19,1.12-2.449,2.151-3.702,3.143c-3.679-0.959-7.47,1.323-10.771,2.795c-4.193,1.869-7.688,4.845-10.83,8.155
	c-7.003,3.43-14.05,6.905-20.058,11.929c-4.752,3.974-10.028,9.062-10.948,15.325c-4.07,5.116-7.295,10.952-8.473,17.428
	c-0.826,4.541-0.494,8.753,0.709,12.741c-2.835-0.959-5.249,0.983-5.778,3.344c-4.235,3.625,2.532,9.212,8.371,12.435
	c-0.171,0.414-0.357,0.827-0.521,1.242c-0.577,1.458-1.009,3.083-1.243,4.758c-0.607,1.095-1.126,2.237-1.598,3.276
	c-0.532,1.173-1.104,2.368-1.288,3.647c-0.061,0.425-1.128,0.171-1.15,0.588c-0.805,0.341-1.002,0.78-2,0.833
	c-3.68,0.196-3.379,6.32,0.344,6.208c3.174-0.096,5.999-1.28,8.331-3.139c0.202,0.26,0.409,0.513,0.624,0.754
	c-2.317,9.693-4.549,19.232-8.942,28.399c-0.833,1.737-0.895,3.383-0.455,4.79c-1.704,2.716-3.519,5.373-5.328,8.032
	c-0.259,0.133-0.519,0.265-0.789,0.385c-4.413,1.959-0.594,8.42,3.785,6.476c0.349-0.155,0.69-0.324,1.028-0.497
	c0.377,0.231,0.817,0.403,1.343,0.476c2.224,0.309,4.309,0.406,6.408,0.351c0.034,0.107,0.069,0.211,0.107,0.317
	c-0.205,1.916-0.562,3.808-1.009,5.684c-0.197,0.584-0.369,1.169-0.52,1.755c-6.291,0.96-9.762,18.267-4.911,22.46
	c0.075,0.064,0.152,0.119,0.229,0.18c0.09,2.285,0.466,4.603,1.26,6.97c2.077,6.194,6.924,10.976,11.799,15.083
	c3.854,3.246,9.327,6.687,11.174,11.603c1.191,3.882,4.838,4.909,7.795,3.94c3.104,4.154,7.318,7.059,14.071,7.342
	c2.037,0.084,4.477-1.217,5.382-3.088c3.365-6.953,5.714-14.01,5.714-21.812c0-3.038-2-5.207-4.72-6.199
	c-17.517-6.395-32.797-19.192-33.104-39.134c-0.019-1.221-0.361-2.309-0.921-3.233c0.724-1.134,1.156-2.485,1.3-3.937
	c0.632-6.368,0.612-12.855,0.992-19.275c0.431,0.088,0.914,0.066,1.45-0.132c1.718-0.633,3.38-1.348,5.013-2.11
	c1.136,0.48,2.482,0.559,3.87-0.03c6.765-2.872,14.681-2.899,21.875-3.452c8.367-0.642,16.796-0.607,25.18-0.906
	c16.884-0.602,33.747-2.583,49.67-8.506c13.999-5.207,24.789-13.804,34.59-24.868c0.792-0.894,1.664-1.892,2.571-2.96
	c-0.886,3.391-1.849,7.919-1,10.847c-2.187,4.104-4.406,8.188-6.765,12.198c-1.931,3.283,2.609,6.845,5.278,4.073
	c6.503-6.756,12.134-14.618,16.589-22.852c0.595-1.099,1.275-2.348,1.974-3.697c1.561,3.155,3.688,5.93,6.361,8.5
	c5.099,4.899,20.382,18.652,27.543,10.744c1.059-1.168,1.664-2.985,1.416-4.615c0.869,0.957,1.767,1.827,2.679,2.576
	c0.216,0.957,0.347,1.928,0.481,2.774c0.707,4.415,1.363,8.879,1.899,13.327c0.854,7.071,0.347,15.545,2.251,22.785
	c-0.345,1.738-0.567,3.494-0.739,5.262c-0.944,0.51-1.701,1.444-2.019,2.908c-1.488,6.902-3.749,13.565-7.598,19.514
	c-3.96,6.121-8.99,11.511-13.158,17.49c-2.225-1.454-5.548-1.012-7.034,1.526c-0.717,1.222-0.842,2.747-0.384,4.079l-0.029-0.072
	c0.348,0.845,0.613,1.724,0.941,2.578c0.299,0.778,0.602,1.565,0.991,2.305c0.361,0.681,0.945,1.38,1.63,1.914
	c0.078,2.373,0.604,4.74,1.614,6.987c2.509,5.572,10.277,11.393,16.213,11.861c3.713,0.293,6.187-4.422,4.264-7.43
	c-0.444-0.695-0.997-1.312-1.604-1.884c0.034-0.104,0.073-0.203,0.103-0.312c1.057-3.951-0.906-7.533-0.688-11.58
	c0.21-3.92,1.276-7.772,1.529-11.706c5.225-6.108,9.306-12.633,11.3-19.882c0.899-0.253,1.753-0.695,2.439-1.309
	c0.037,0.011,0.075,0.028,0.112,0.038c0.339,0.416,0.74,0.78,1.178,1.101c-0.115,0.304-0.229,0.608-0.348,0.912
	c-0.92,2.39,1.403,4.899,3.731,4.899c2.551,0,4.315-2.438,3.74-4.859c1.673-0.663,3.104-2.018,3.805-4.203
	c5.682-17.711,2.751-38.758-8.586-53.571c-0.37-0.897-0.768-1.806-1.217-2.722c1.071,0.263,2.146,0.509,3.22,0.768
	c0.458,0.149,0.927,0.268,1.402,0.363c0.445,0.116,0.892,0.224,1.334,0.352c1.141,0.332,2.121,0.351,3.055,0.252
	c2.201,0.27,4.438,0.463,6.565,0.271C428.357,214.862,429.062,211.159,426.322,210.317z M197.412,229.378
	c0.019-0.298,0.038-0.596,0.056-0.895c0.173,0.168,0.353,0.331,0.56,0.467C197.823,229.093,197.616,229.235,197.412,229.378z
	 M202.153,224.348c-0.676-1.099-2.237-1.73-3.315-0.516c-0.324,0.365-0.773,0.66-1.189,0.976c0.045-1.27,0.063-2.539,0.065-3.808
	c1.582,1.292,3.561,2.227,5.744,2.886C203.025,224.047,202.59,224.2,202.153,224.348z"/>
</svg>
