<?xml version="1.0" encoding="utf-8"?>
<!-- Generator: Adobe Illustrator 15.0.2, SVG Export Plug-In . SVG Version: 6.00 Build 0)  -->
<!DOCTYPE svg PUBLIC "-//W3C//DTD SVG 1.1//EN" "http://www.w3.org/Graphics/SVG/1.1/DTD/svg11.dtd">
<svg version="1.1" id="Layer_1" xmlns="http://www.w3.org/2000/svg" xmlns:xlink="http://www.w3.org/1999/xlink" x="0px" y="0px"
	 width="600px" height="600px" viewBox="0 0 600 600" enable-background="new 0 0 600 600" xml:space="preserve">
<path fill="#4D4D4D" d="M433.542,231.245c1.461-7.088-3.929-12.855-8.772-17.376c-1.882-1.755-3.916-3.43-6.089-4.844
	c1.68-0.538,3.301-1.25,4.812-2.07c0.117,0.012,0.227,0.037,0.349,0.039c0.777,0.012,1.497-0.189,2.175-0.521
	c2.091-0.841,4.58-2.554,5.358-4.682c0.136-0.121,0.271-0.238,0.408-0.349c1.533-1.265,1.341-3.051,0.356-4.316
	c1.183-2.768,1.821-5.767,1.806-8.704c0.797-1.772,0.844-3.854-0.332-5.872c-0.558-1.233-1.25-2.436-2.068-3.583
	c-0.487-0.954-1.163-1.828-1.83-2.649c-1.014-1.249-2.19-2.14-3.532-2.852c-2.68-2.055-5.754-3.618-8.915-4.454
	c7.688-12.083,7.516-30.648-0.06-41.732c-5.134-7.513-12.906-10.362-21.096-10.459c1.396-3.025,2.328-6.154,2.736-8.694
	c0.419-2.599,0.549-5.183,0.446-7.745c4.233-9.155-0.458-22.862-6.192-30.189c-8.208-10.488-20.429-18.026-34.074-17.701
	c-8.381,0.2-18.645,2.455-25.527,7.508c-3.116,1.613-9.405,6.444-12.25,8.25c-7.045,4.472-9.305,7.413-15.5,13
	c-4.902,4.423-7.769,10.474-10.647,16.365c-1.519-4.19-3.411-8.065-5.209-11.143c-7.052-12.072-18.277-19.899-32.368-20.484
	c-20.021-0.831-39.655,22.861-34.038,41.097c-3.856-2.381-8.115-4.095-12.577-4.977c-4.041-0.798-8.119-0.936-12.131-0.511
	c-0.816-0.646-1.916-1.05-2.816-0.98c-8.883,0.687-17.323,3.085-24.164,8.999c-1.207,1.043-2.19,2.165-3.006,3.346
	c-0.271,0.18-0.536,0.401-0.78,0.714c-3.83,4.647-7.081,10.433-8.018,16.491c-1.98,4.652-3.176,9.649-3.443,14.819
	c-0.365,7.065,1.72,14.001,4.898,20.232c1.836,3.599,4.483,7.584,7.809,10.492c-0.789,1.098-1.513,2.267-2.176,3.49
	c-5.619,3.556-11.426,6.001-15.584,11.05c-3.75,1-1.762,2.127-2,2.25c-5.225,2.706-7.809,7.749-6.791,14.038
	c0.206,1.271,0.66,2.473,1.3,3.566c-0.045,2.429,0.362,4.87,1.269,7.278c0.012,0.324,0.047,0.652,0.128,0.983
	c3.867,15.933,19.105,14.726,32.478,14.573c-0.694,1.22-1.401,2.432-2.111,3.64c-0.533,0.093-1.076,0.31-1.613,0.694
	c-0.553,0.396-1.089,0.826-1.608,1.282c-7.065,6.006-11.413,14.792-8.87,23.727c-0.022,0.235-0.038,0.473-0.028,0.723
	c0.007,0.169,0.021,0.34,0.034,0.51c-0.155,0.821-0.297,1.647-0.404,2.49c-0.462,3.614,3.342,6.267,6.697,6.02
	c4.143,3.377,9.601,4.639,15.044,2.532c1.887,0.6,3.994,0.922,6.316,0.893c3.393-0.042,6.384-3.469,5.25-6.892
	c-0.867-2.617-1.313-5.222-1.466-7.818c1.246-4.988,1.617-10.458,1.769-15.079c2.302-9.479,5.898-18.943,5.475-28.588
	c0.002,0.001,0.004,0.003,0.006,0.004c10.684,5.64,21.094,4.669,30.06-0.57c2.963-0.736,5.838-1.777,8.487-3.04
	c6.586-3.141,10.474-9.24,12.889-15.84c1.92-2.573,3.367-6.38,4.409-10.037c0.811-2.029,1.378-4.173,1.738-6.269
	c3.508,6.349,6.932,13.077,12.641,17.634c-1.085,1.874-0.831,4.403,1.519,5.852c6.96,4.29,17.814,1.935,22.447-4.9
	c1.482-0.721,2.881-1.532,4.142-2.41c7.111-4.953,12.702-11.935,17.325-19.253c-0.093,2.091-0.126,4.179,0.045,6.261
	c0.065,0.808,0.298,1.481,0.624,2.051c0.071,2.818,0.207,5.635,0.488,8.449c0.048,0.482,0.137,0.935,0.261,1.358
	c0.237,2.1,0.632,4.169,1.253,6.17c-0.761,0.708-1.229,1.712-1.123,2.972c0.436,5.194,3.522,8.845,8.045,11.237
	c3.323,1.757,10.174,3.975,13.765,1.414c12.668-0.688,22.221-10.862,28.845-22.367c0.266,0.149,0.562,0.225,0.868,0.234
	c0.035,1.601,0.565,3.236,1.646,4.576c3.774,4.685,9.914,5.724,15.593,6.032c1.437,0.078,2.659-0.468,3.598-1.346
	c0.176,2.061,0.498,4.059,0.753,5.754c0.997,6.65,2.396,13.269,4.099,19.773c0.425,1.625,1.218,2.792,2.205,3.579
	c-0.008,2.745,0.116,5.492,0.258,8.248c0.127,2.452,1.229,10.839-1.317,12.54c-5.216,3.484-3.769,10.102,1.612,12.334
	c2.784,1.156,5.805,1.363,8.794,1.5c2.207,0.101,5.138-1.356,6.051-3.471c1.955-4.531,3.053-9.204,1.873-13.817
	c6.214-0.475,12.711-2.016,16.27-7.498c2.464-3.795,2.278-8.191,0.744-12.161C433.388,231.797,433.484,231.527,433.542,231.245z
	 M381.381,185.632c0.598-0.077,1.186-0.219,1.743-0.42c0.74,1.37,1.497,2.716,2.297,4.009
	C383.778,188.394,382.472,187.128,381.381,185.632z"/>
</svg>
