<?xml version="1.0" encoding="utf-8"?>
<!-- Generator: Adobe Illustrator 15.0.2, SVG Export Plug-In . SVG Version: 6.00 Build 0)  -->
<!DOCTYPE svg PUBLIC "-//W3C//DTD SVG 1.1//EN" "http://www.w3.org/Graphics/SVG/1.1/DTD/svg11.dtd">
<svg version="1.1" id="Layer_1" xmlns="http://www.w3.org/2000/svg" xmlns:xlink="http://www.w3.org/1999/xlink" x="0px" y="0px"
	 width="600px" height="600px" viewBox="0 0 600 600" enable-background="new 0 0 600 600" xml:space="preserve">
<path fill="#4D4D4D" d="M336.798,148.182c-2.37-3.19-6.803-4.744-9.965-7.349c-4.344-3.574-8.904-9.192-13.333-12.667
	c-7.812-6.127-18.654-9.267-26.37-0.045c-0.659,0.787-0.739-0.156-0.796,0.878c-0.253,0.322-0.251-0.336-0.5,0
	c-0.521-6.82,0.245-10.679,2.305-17.286c1.543-4.946-5.78-6.706-7.594-2.094c-2.7,6.868-4.809,13.437-4.34,20.013
	c-5.91-2.125-12.258-2.431-17.217,2.035c-2.265,2.04-0.463,5.896,2.433,5.874c6.916-0.055,12.91,2.286,18.38,6.41
	c1.473,1.11,4.102,0.979,5.591,0c0.059-0.039,0.104-0.079,0.16-0.118c0.837,0.305-1.155,1.499-0.218,1.166
	c0.487-0.173,2.364,0.576,2.833,0.333c6.183,1.088,11.365,3.754,13.271,9.718c1.229,3.841,0.469,9.946,2.939,13.411
	c-0.175,3.195-0.46,6.401-0.373,9.591c0.194,7.118,4.984,13.901,7.438,20.446c1.972,5.26,9.645,3.266,8.465-2.334
	c-1.279-6.071,2.3-11.378,3.64-17.007c1.285-5.404,1.405-11.19-0.381-16.326c-1.27-3.646-2.138-5.314-4.166-8.667
	c0.114,0.014-0.117-0.843,0-0.833c2.166-1,2.037,1.387,2.833-0.167c7.5,0.167,10.775,2.975,14.4-0.61
	C337.291,151.512,337.748,149.462,336.798,148.182z"/>
</svg>
