<?xml version="1.0" encoding="utf-8"?>
<!-- Generator: Adobe Illustrator 15.0.2, SVG Export Plug-In . SVG Version: 6.00 Build 0)  -->
<!DOCTYPE svg PUBLIC "-//W3C//DTD SVG 1.1//EN" "http://www.w3.org/Graphics/SVG/1.1/DTD/svg11.dtd">
<svg version="1.1" id="Layer_1" xmlns="http://www.w3.org/2000/svg" xmlns:xlink="http://www.w3.org/1999/xlink" x="0px" y="0px"
	 width="600px" height="600px" viewBox="0 0 600 600" enable-background="new 0 0 600 600" xml:space="preserve">
<path fill="#1A1A1A" d="M385.658,198.682c-5.988-4.763-13.582-4.542-20.074-8.349c-6.658-3.904-10.237-12.93-10.315-20.333
	c-0.036-3.457-4.637-3.789-5.753-0.778c-3.535,9.535-7.993,18.879-13.659,27.327c-4.744,7.073-11.688,14.683-19.586,18.834
	c1.782-7.731,3.871-15.897,6.975-23.491c0.022-0.028,0.048-0.056,0.07-0.084c4.449-5.702,7.646-12.004,11.227-18.244
	c1.001-1.745-1.367-3.615-2.792-2.154c-2.785,2.859-5.165,6.125-7.251,9.642c-5.44,5.764-12.178,10.765-18.214,14.988
	c-9.881,6.913-20.517,12.344-31.83,16.499c-12.993,4.772-26.624,7.824-40.155,10.607c-7.696,1.583-15.343,3.103-22.895,5.292
	c-2.004,0.581-10.538,3.477-10.482,4.896c-0.045-1.147-1.774-1.83-2.33-0.631c-1.257,2.713,0.662,4.064,3.298,4.14
	c2.191,0.063,4.604-0.722,6.716-1.215c3.432-0.803,6.884-1.372,10.374-1.904c17.54-2.674,35.226-5.807,52.173-11.139
	c13.039-4.103,25.673-9.822,37.042-17.434c2.861-1.916,5.773-4.083,8.483-6.454c-2.303,6.773-4.129,13.674-5.898,20.024
	c-0.463,1.663,1.146,3.351,2.838,2.838c16.955-5.137,32.693-19.134,38.878-36.237c1.216,3.834,3.056,7.438,6.322,10.755
	c6.037,6.13,16.688,11.126,25.184,8.874C386.509,204.286,387.926,200.485,385.658,198.682z"/>
<path fill="#1A1A1A" d="M429.487,292.161c-2.099-3.931-5.568-6.883-7.552-11.035c-2.096-4.387-2.427-9.665-2.535-14.435
	c-0.222-9.67,1.407-19.274,1.905-28.91c0.587-11.365-0.702-23.466-4.591-34.197c-3.445-9.505-8.89-17.747-14.876-25.743
	c5.306,2.109,11.148,2.746,16.503,0.583c1.797-0.726,2.783-3.538,0.601-4.593c-7.382-3.57-13.059-13.324-17.527-19.807
	c-6.054-8.783-12.12-17.628-18.942-25.838c-6.043-7.272-12.907-14.044-21.909-17.416c-4.164-1.56-8.499-1.774-12.829-0.941
	c-1.014,0.195-1.93,0.46-2.781,0.782c3.182-6.386,5.01-13.711,3.166-20.319c-0.772-2.77-4.508-3.907-6.551-1.729
	c-14.075,15.004-32.807,17.815-52.36,19.234c-19.237,1.396-39.065,1.019-57.213,8.458c-16.677,6.837-31.215,19.564-39.793,35.411
	c-4.106,7.586-6.734,15.927-8.451,24.351c-1.459,7.16-2.38,15.56-1.911,23.248c-0.188,0.407-0.311,0.872-0.333,1.403
	c-1.085,25.02-5.346,57.315-27.78,72.67c-2.705,1.851-2.442,6.073,0.921,7.049c6.167,1.789,14.03,1.586,20.611-0.941
	c-2.124,12.654,1.806,24.566,8.268,36.457c5.613,10.33,22.917,22.949,14.917,35.934c-2.026,3.289,3.017,6.148,5.128,2.998
	c2.486-3.713,4.678-7.363,6.156-11.283c1.943,4.732,3.859,9.51,3.613,14.449c-0.058,1.162,1.64,1.314,1.964,0.266
	c1.38-4.463,1.568-7.141,0.332-11.705c-1.274-4.709-3.272-9.086-4.048-13.938c-0.501-3.138-5.082-2.132-5.259,0.712
	c-0.123,1.969-0.506,3.834-1.067,5.629c-2.068-6.352-6.747-12.324-10.792-17.779c-10.542-14.215-17.252-31.461-9.586-48.64
	c1.599-3.584-2.82-7.907-5.839-4.505c-3.294,3.711-8.595,5.547-13.851,5.838c19.073-18.293,23.003-47.676,23.313-73.209
	c0.007-0.6-0.112-1.114-0.316-1.554c0.172-2.557,0.263-5.128,0.52-7.663c0.461-4.544,1.333-8.989,2.138-13.478
	c1.488-8.297,4.096-16.359,8.023-23.823c8.738-16.609,24.922-28.831,42.814-33.994c32.451-9.365,72.06,3.104,99.221-19.902
	c-0.98,5.331-4.022,10.615-6.976,14.615c-2.667,3.612,3.09,6.993,5.911,3.858c3.29-1.014,7.526-1.431,10.622-1.386
	c3.82,0.054,7.409,0.947,10.804,2.691c8.114,4.17,14.342,11.304,19.953,18.321c6.014,7.519,11.354,15.545,17.383,23.053
	c3.412,4.249,6.938,7.847,10.809,11.2c-0.732-0.2-1.434-0.397-2.064-0.558c-3.048-0.778-5.954-1.998-8.59-3.71
	c-3.09-2.008-6.244,1.827-4.747,4.747c0.391,0.761,0.754,1.444,1.151,2.096c0.04,0.151,0.095,0.306,0.172,0.464
	c5.195,10.634,10.034,21.708,12.975,33.207c2.938,11.494,3.614,22.972,2.504,34.775c-0.965,10.249-2.438,20.468-0.869,30.741
	c0.949,6.211,3.686,14.896,8.965,19.744c-5.466,0.879-12.235-3.083-15.739-6.274c-2.938-2.577-7.17,1.541-4.324,4.324
	c0.565,0.553,1.147,1.07,1.739,1.571c9.344,9.265,5.394,21.521,1.291,32.915c-4.14,11.496-10.195,23.443-8.556,36.02
	c0.601,4.605,7.862,4.779,7.375,0c-1.415-13.873,7.083-26.93,11.435-39.607c2.842-8.279,2.765-16.286-0.226-23.385
	c5.702,1.505,10.104-0.315,15.405-2.16C429.578,296.726,430.647,294.335,429.487,292.161z"/>
</svg>
