<?xml version="1.0" encoding="utf-8"?>
<!-- Generator: Adobe Illustrator 15.0.2, SVG Export Plug-In . SVG Version: 6.00 Build 0)  -->
<!DOCTYPE svg PUBLIC "-//W3C//DTD SVG 1.1//EN" "http://www.w3.org/Graphics/SVG/1.1/DTD/svg11.dtd">
<svg version="1.1" id="Layer_1" xmlns="http://www.w3.org/2000/svg" xmlns:xlink="http://www.w3.org/1999/xlink" x="0px" y="0px"
	 width="600px" height="600px" viewBox="0 0 600 600" enable-background="new 0 0 600 600" xml:space="preserve">
<path fill="#1A1A1A" d="M391.34,204.688c-12.855,0.367-17.716-10.064-24.014-19.433c-1.332-1.981-4.768-2.499-5.973,0
	c-0.683,1.415-1.276,2.858-1.823,4.315c-0.828-5.588-1.863-11.127-3.876-16.483c-1.152-3.066-5.642-3.474-6.629,0
	c-4.889,17.196-9.556,39.941-24.466,51.702c7.533-17.273,16.693-34.357,19.548-53.025c0.458-2.995-3.605-5.315-5.245-2.211
	c-12.474,23.609-37.679,36.375-61.014,46.989c-13.078,5.949-26.166,12.469-40.227,15.679c-7.15,1.632-14.439,2.698-21.7,3.689
	c-7.383,1.007-15.533,1.654-22.118,5.174c-0.758,0.405-0.671,1.798,0.254,1.942c7.344,1.144,15.292-0.027,22.727-0.743
	c7.625-0.733,15.235-1.571,22.718-3.242c14.598-3.26,28.21-10.472,41.666-16.821c19.116-9.02,39.313-19.879,53.293-36.189
	c-5.416,15.373-13.972,29.57-19,45.176c-0.849,2.633,2.186,4.516,4.386,3.372c18.927-9.839,26.504-28.253,32.264-47.371
	c1.054,6.553,1.509,13.233,2.685,19.77c0.687,3.812,6.057,3.196,7.09,0c1.333-4.124,2.164-8.395,3.389-12.543
	c6.551,9.505,14.105,19.197,26.947,16.761C395.93,210.491,395.027,204.583,391.34,204.688z"/>
<path fill="#1A1A1A" d="M443.148,199.068c-14.662-2.668-26.355-12.98-38.168-21.981c9.198-0.342,18.154-3.841,23.46-11.858
	c1.459-2.204-1.299-4.297-3.329-3.329c-7.604,3.627-16.104-0.135-22.728-4.731c5.283-1.027,10.417-1.891,15.956-1.218
	c1.938,0.235,3.314-2.056,2.845-3.734c-2.489-8.896-9.501-15.973-17.5-20.402c9.206-5.923,16.379-14.693,14.778-26.399
	c-0.162-1.189-1.669-1.827-2.708-1.538c-14.166,3.938-27.511,5.124-41.566,0.158c-12.447-4.397-22.938-12.802-33.991-19.751
	c-14.834-9.326-35.18-16.803-49.618-7.145c1.128-6.282,1.264-12.742,0.698-19.138c-0.256-2.901-3.803-4.021-5.474-1.482
	c-7.688,11.677-17.127,21.848-29.273,28.944c-10.471,6.117-22.051,8.178-33.756,10.481c-12.938,2.545-27.731,6.984-33.919,17.646
	c-0.181-4.508-0.127-9.031,0.071-13.589c0.116-2.66-3.522-3.413-4.821-1.306c-8.353,13.554-15.991,28.361-19.885,43.872
	c-1.851,7.372-2.554,15.286-0.369,22.658c1.232,4.16,3.523,7.392,6.46,10.028c-4.735-1.021-9.465-2.068-14.226-2.961
	c-1.743-0.327-3.597,0.764-3.557,2.709c0.276,13.276,9.612,27.753,23.546,25.772c-5.082,8.998-18.229,13.447-27.484,15.517
	c-2.764,0.618-2.612,4.716,0,5.422c8.939,2.415,18.164,4.187,26.81,2.535c-2.017,2.801-3.663,5.937-5.106,9.091
	c-3.793,8.289-5.935,18.189-3.872,27.192c0.485,2.12,3.149,1.651,3.832,0c2.002-4.841,4.923-9.048,8.125-13.089
	c-0.717,6.132-0.59,12.333-0.508,18.536c0.125,9.476,0.526,21.805-6.253,29.304c-0.575,0.635-0.209,1.759,0.721,1.74
	c6.74-0.137,13.168-4.093,18.06-9.04c0.48,14.977,14.73,23.256,29.392,27.009c1.463,0.374,3.033-1,2.537-2.537
	c-1.458-4.52-0.111-8.86,0.074-13.452c0.107-2.661-4.018-2.65-4.125,0c-0.156,3.875-0.964,7.413-0.623,11.085
	c-13.338-4.146-25.903-12.533-22.208-28.505c0.565-2.445-2.632-3.766-3.992-1.683c-2.46,3.769-5.521,6.915-9.089,9.648
	c-2.418,1.853-5.148,2.952-7.831,4.204c3.26-6.91,5.909-13.208,6.394-21.247c0.63-10.455-0.327-20.726,2.154-31.023
	c0.394-1.632-1.8-3.234-3.02-1.758c-3.649,4.415-7.245,8.886-10.292,13.722c-0.156-10.689,3.117-23.796,11.052-30.744
	c2.682-1.037,5.285-2.481,7.781-4.437c1.424-1.116-0.113-3.53-1.738-2.986c-2.405,0.806-4.496,2.013-6.349,3.491
	c-6.485,2.541-13.445,2.079-20.33,0.485c10.596-3.519,20.844-10.232,22.685-21.556c0.529-3.255-4.262-4.731-5.047-1.444
	c-10.726,1.048-17.852-8.255-19.378-18.071c6.971,0.843,13.912,1.923,20.894,2.678c2.275,0.246,2.252-2.931,0.495-3.655
	c-15.687-6.465-14.003-24.48-9.761-37.765c3.376-10.574,8.843-20.096,14.091-29.757c0.315,6.667,0.794,13.307,2.056,19.901
	c0.462,2.417,4.64,1.874,4.317-0.584c-3.088-23.54,24.767-26.56,41.816-29.55c11.824-2.073,22.936-6.002,32.955-12.698
	c7.961-5.32,14.624-12.285,20.381-19.904c-0.187,6.967-1.424,13.819-4.182,20.371c-1.332,3.164,3.693,4.994,5.369,2.263
	c12.658-20.634,42.191-3.136,56.705,6.289c10.779,7,22.839,12.932,35.563,15.246c11.556,2.101,23.739,0.532,35.112-2.225
	c-0.287,9.965-8.607,16.687-17.196,21.021c-1.58,0.798-1.73,3.625,0,4.374c4.471,1.934,8.266,4.417,11.572,8.019
	c2.37,2.581,3.799,5.596,5.278,8.629c-5.515,1.083-10.959,2.361-16.572,3.052c-1.666,0.205-3.005,2.227-1.494,3.606
	c4.175,3.81,8.787,7.585,14.176,9.522c2.524,0.908,4.816,1.298,7.064,1.307c-6.557,3.417-14.372,3.752-21.932,1.724
	c-0.292-0.078-0.566-0.104-0.832-0.105c-0.098-0.003-0.192,0.001-0.284,0.016c-2.985,0.28-3.945,5.182-0.513,5.996
	c1.098,0.26,2.219,0.464,3.348,0.641c6.589,5.525,12.645,11.673,19.346,17.076c5.245,4.229,10.488,7.192,16.365,9.139
	c-7.075,1.931-15.286,1.856-20.165-2.888c-2.72-2.646-6.821,1.452-4.158,4.159c9.524,9.684,17.423,26.363,13.662,40.358
	c-3.099-5.798-6.101-11.411-10.243-16.604c-0.003-0.005-0.006,0.166-0.009,0.166c-0.001,0-0.001,0-0.002,0
	c-0.144-1-0.274-0.549-0.421-0.728c-1.962-2.392-5.855,0.621-4.239,3.181c6.852,10.846,5.866,22.993,3.648,35.092
	c-1.443,7.877-4.206,16.764-4.355,25.217c-2.768-4.038-4.89-8.597-6.813-13.006c-1.226-2.812-4.925-0.619-4.548,1.912
	c2.008,13.477-8.401,29.994-22.601,31.273c-2.654,0.238-2.606,4.445,0,4.123c7.762-0.961,14.876-5.688,18.852-12.421
	c2.174-3.682,4.949-6.768,6.604-10.771c0.541-1.308,0.968-2.666,1.302-4.047c2.472,4.174,5.327,8.055,8.583,11.835
	c1.464,1.699,3.844,0.185,4.008-1.66c0.558-6.292,0.703-12.423,1.825-18.68c1.112-6.198,2.507-12.335,3.437-18.565
	c0.629-4.213,0.94-8.419,0.779-12.553c0.72,1.408,1.445,2.814,2.203,4.206c0.989,1.818,3.825,1.811,4.816,0
	c7.014-12.807,3.625-30.518-4.565-43.268c8.123,1.195,17.175-0.797,23.692-4.514C446.025,203.4,445.81,199.552,443.148,199.068z"/>
</svg>
