<?xml version="1.0" encoding="utf-8"?>
<!-- Generator: Adobe Illustrator 15.0.2, SVG Export Plug-In . SVG Version: 6.00 Build 0)  -->
<!DOCTYPE svg PUBLIC "-//W3C//DTD SVG 1.1//EN" "http://www.w3.org/Graphics/SVG/1.1/DTD/svg11.dtd">
<svg version="1.1" id="Layer_1" xmlns="http://www.w3.org/2000/svg" xmlns:xlink="http://www.w3.org/1999/xlink" x="0px" y="0px"
	 width="600px" height="600px" viewBox="0 0 600 600" enable-background="new 0 0 600 600" xml:space="preserve">
<path fill="#4D4D4D" d="M410.844,233.494c-0.034-4.506-0.615-9.005-1.219-13.462c-0.581-4.289-2.299-8.448-4.548-12.339
	c2.165-0.449,3.624-2.792,3.762-4.878c0.265-4.011-3.869-8.186-6.224-11.089c-0.69-0.852-1.399-1.703-2.105-2.562
	c-0.633-0.864-1.304-1.704-2.006-2.518c-1.188-1.555-2.299-3.162-3.199-4.881c-0.408-0.778-0.908-1.378-1.464-1.829
	c0.479-1.634,0.524-3.417,0.017-4.779c-0.608-1.628-1.319-3.194-2.111-4.71c1.111-0.956,1.341-0.856,1.004-2.697
	c-0.078-0.425-0.55,0.582-0.125-1.5c2.517,1.569,5.565,1.464,8.686,2.154c4.865,1.076,6.938-6.354,2.062-7.474
	c-4.336-0.995-7.719-3.241-10.841-6.075c-0.031-0.217-0.061-0.43-0.094-0.651c-0.489-3.231-2.545-5.908-4.465-8.431
	c-4.389-5.769-10.286-10.28-15.734-15.003c-0.37-0.321-0.754-0.54-1.141-0.701c-4.762-7.161-9.543-14.28-15.103-20.915
	c-6.938-8.278-16.303-17.209-27.972-16.302c-3.127,0.243-6.17,0.903-8.864,2.077c0.017-0.021,0.034-0.039,0.051-0.06
	c3.954-4.92-2.722-11.971-7.071-7.071c-6.338,7.14-15.365,9.981-24.51,11.592c-10.895,1.919-22.119,2.049-33.123,3.003
	c-12.024,1.043-24.209,3.043-34.087,8.512c-0.984,0.096-1.982,0.596-2.866,1.642c-0.056,0.066-0.106,0.134-0.162,0.2
	c-4.364,2.9-8.171,6.611-11.171,11.387c0.592-3.518-4.276-6.187-6.161-2.522c-2.596,5.05-5.122,10.157-7.314,15.396
	c-3.112,4.253-4.772,11.044-5.99,15.176c-2.333,7.917-2.511,16.308-2.014,24.485c0.04,0.657,0.231,1.21,0.511,1.68
	c-1.06-0.492-2.131-1.105-3.24-1.875c-2.831-1.964-6.109,1.797-4.534,4.534c2.195,3.812,4.929,6.812,8.343,9.107
	c-0.764,2.593-1.693,5.157-2.098,7.815c-1.892,1.249-3.698,2.686-4.687,4.531c-1.251,2.337,0.501,4.445,2.665,4.49
	c-0.009,0.035-0.019,0.07-0.028,0.104c0.242-0.032,0.487-0.084,0.731-0.127c0.286-0.004,0.564-0.058,0.827-0.161
	c1.124-0.255,2.26-0.625,3.384-1.055c0.121,1.596,1.012,3.111,2.674,3.71c-0.131,0.836-0.254,1.674-0.411,2.508
	c-1.292,6.863-3.775,17.247-11.168,20.039c-5.77,2.179-3.516,11.275,2.592,9.401c1.853-0.568,3.532-1.357,5.071-2.31
	c-0.287,1.872-0.538,3.75-0.718,5.643c-0.111,1.165-0.154,2.263-0.12,3.321c-4.303,4.188-0.38,13.404,3.711,16.554
	c1.018,0.784,2.082,0.931,3.053,0.681c0.729,1.156,1.489,2.277,2.514,3.271c1.003,0.972,2.971,0.328,2.881-1.193
	c-0.231-3.888-1.241-7.7-1.722-11.589c-0.195-1.578,1.239-3.121,1.186-4.764c-0.068-2.094-0.124-4.185-0.192-6.279
	c-0.214-6.532,0.675-13.087,1.484-19.593c1,0.626,2.205,0.96,3.48,0.783c21.254-2.952,39.095-13.53,55.229-27.188
	c7.511-6.358,14.406-13.413,20.164-21.407c0.238-0.331,0.485-0.685,0.733-1.043c0.187,0.16,0.385,0.305,0.591,0.44
	c-0.581,1.449-1.101,2.924-1.495,4.451c-0.206,0.795-0.235,1.545-0.148,2.249c-2.475,5.307-4.017,10.969-5.26,16.744
	c-0.792,3.684-1.482,7.386-2.327,11.059c-0.99,4.305-0.506,8.293-2.089,12.548c-1.367,3.675,4.738,6.254,6.343,2.674
	c0.376-0.637,0.745-1.275,1.118-1.913c3.412-4.782,10.609-7.892,15.441-10.377c6.364-3.273,12.888-6.226,19.269-9.465
	c7.818-3.969,14.262-9.546,20.776-15.348c7.587-6.757,15.472-14.702,19.734-24.063c0.137-0.3,0.266-0.609,0.39-0.923
	c0.448,3.603,0.871,7.222,0.965,10.844c-0.457,2.779-0.562,5.693-0.565,8.827c-0.004,3.771,3.826,4.583,6.116,2.861
	c0.596,1.418,1.395,2.751,2.467,3.935c5.304,5.859,13.804,9.296,20.78,12.643c2.635,1.264,5.871,0.617,7.827-1.22
	c0.937,1.34,2.022,2.538,3.341,3.502c0.53,0.389,1.086,0.655,1.65,0.819c2.141,5.45,2.267,11.083,2.834,17.136
	c0.653,6.971-1.566,17.013,2.419,23.033c2.854,4.311,8.689,4.292,11.549,0C411.298,242.93,410.877,237.892,410.844,233.494z
	 M200.621,211.615c-0.453,0.537-0.484,1.389-0.133,1.958c-0.24,0.188-0.473,0.389-0.709,0.583c0.296-1.422,0.542-2.855,0.767-4.291
	c0.671-0.079,1.34-0.165,2.005-0.259C201.878,210.236,201.235,210.887,200.621,211.615z"/>
</svg>
