<?xml version="1.0" encoding="utf-8"?>
<!-- Generator: Adobe Illustrator 15.0.2, SVG Export Plug-In . SVG Version: 6.00 Build 0)  -->
<!DOCTYPE svg PUBLIC "-//W3C//DTD SVG 1.1//EN" "http://www.w3.org/Graphics/SVG/1.1/DTD/svg11.dtd">
<svg version="1.1" id="Layer_1" xmlns="http://www.w3.org/2000/svg" xmlns:xlink="http://www.w3.org/1999/xlink" x="0px" y="0px"
	 width="600px" height="600px" viewBox="0 0 600 600" enable-background="new 0 0 600 600" xml:space="preserve">
<path fill="#4D4D4D" d="M432.409,198.123c-7.605-2.018-14.584-5.934-20.893-10.57c-3.558-2.616-6.751-5.762-9.709-9.026
	c-1.959-2.164-4.186-5.102-7.104-5.851c-0.703-0.181-1.521,0.221-1.691,0.96c-0.021,0.091-0.03,0.184-0.05,0.275
	c-0.062,0.003-0.121,0.021-0.183,0.026c-0.062-0.379-0.111-0.759-0.165-1.137c-0.034-0.241-0.092-0.469-0.157-0.692
	c0.266-0.472,0.443-1.001,0.499-1.582c7.375,3.842,16.653,3.291,24.249,0.622c4.13-0.882,2.364-7.103-1.734-6.294
	c-3.062,0.604-6.137,0.721-9.064,0.375c-0.104-0.293-0.271-0.564-0.517-0.779c-0.892-0.783-1.855-1.361-2.921-1.796
	c-0.021-0.51-0.139-1.031-0.393-1.545c-0.947-1.919-1.924-3.823-2.896-5.728c1.126-0.447,2.189-1.063,3.192-1.845
	c0.057-0.044,0.099-0.095,0.147-0.141c2.44-0.522,4.979-0.72,7.315-0.81c0.028-0.001,0.053-0.01,0.081-0.012
	c0.78,0.911,2.091,1.226,3.181,0.587c1.106-0.648,1.678-2.299,0.896-3.42c-0.527-0.76-1.039-1.531-1.58-2.282
	c-0.293-0.407-0.631-0.74-1.001-1.028c-0.58-1.603-1.255-3.103-2.062-4.493c-0.24-0.503-0.533-0.978-0.888-1.411
	c-2.02-3.012-4.658-5.562-8.051-7.867c-1.107-0.753-2.272-1.427-3.464-2.058c0.548-0.404,1.084-0.831,1.608-1.27
	c0.673-0.084,1.35-0.291,1.996-0.674c0.938-0.553,1.748-1.178,2.563-1.899c0.557-0.492,1.605-0.806,1.878-1.426
	c4.959-2.92,8.158-7.441,10.327-13.368c0.981-2.688-1.964-5.097-4.452-4.453c-6.085,1.574-12.246,3.698-18.558,4.106
	c-2.237,0.146-5.469-1.031-7.653-1.549c-2.736-0.647-5.312-1.415-8.028-1.654c-1.281-0.605-2.625-1.132-3.963-1.667
	c-4.58-1.833-9.255-3.441-13.866-5.191c-8.372-3.177-16.704-6.846-24.404-11.437c-5.143-3.064-10.033-6.374-15.414-8.883
	c-1.294-2.135-3.581-3.693-6.148-3.492c-1.95,0.153-3.881,0.271-5.794,0.398c-1.167,0.003-2.326,0.085-3.478,0.251
	c-6.193,0.501-12.208,1.39-18.083,4.161c0.696-5.821,1.097-11.679,1.636-17.554c0.291-3.173-4.798-4.603-6.113-1.656
	c-8.406,18.833-26.565,26.205-44.873,32.057c-7.357,1.365-14.682,2.92-21.835,5.142c-2.612,0.811-5.405,1.824-8.196,3.05
	c-0.684-0.093-1.423,0.059-2.092,0.578c-0.411,0.319-0.808,0.647-1.206,0.976c-6.472,3.28-12.531,7.788-15.832,13.749
	c-0.528-2.993-0.701-6.002-0.354-8.896c0.226-1.886-2.446-2.247-3.317-0.898c-11.046,17.098-26.133,51.265-8.831,67.839
	c-2.558,0.348-5.027,0.887-7.24,1.776c-0.962-0.32-1.924-0.585-2.869-0.795c-0.007-0.002-0.015-0.004-0.022-0.006
	c-1.078-3.681-6.733-3.178-7.188,1.085c-0.834,7.815,5.191,13.299,11.63,16.454c2.907,2.27,6.226,3.995,9.643,4.836
	c-4.304,7.303-9.786,11.387-17.722,14.589c0.064,0.049,0.128,0.098,0.192,0.146c-3.769,1.155-4.884,7.112-0.192,8.097
	c1.269,0.266,2.514,0.37,3.734,0.343c3.606,1.153,7.38,1.605,11.195,1.255c-0.136,0.182-0.274,0.367-0.395,0.532
	c-5.109,7.008-8.938,15.957-8.472,24.748c0.15,2.826,4.314,6.103,5.736,3.165c1.199-2.478,2.031-3.5,3.167-6
	c0.847,0.323,2.116-2.89,3.243-3.236c0.047,0.904,0.1,1.804,0.162,2.696c0.219,3.178,0.583,6.271,1.079,9.311
	c-0.968,5.818-1.438,12.162-0.566,17.961c0.039,0.256,0.119,0.485,0.216,0.7c-0.725,1.113-1.195,2.5-1.462,3.531
	c-0.244,1.006-0.905,2.751-0.338,3.538c-0.623,1.071-0.342,1.446-0.955,2.542c-0.171,1.329-0.547,2.632-0.972,3.729
	c-0.65,1.676-1.643,3.814-3.004,5.479c0.588,0.906,1.702,1.383,2.956,0.616c4.279-2.616,9.945-7.039,13.844-12.244
	c0.764-0.122,1.517-0.591,2.028-1.253c0.414,1.012,0.872,2.009,1.351,2.999c-0.429,0.687-0.658,1.498-0.543,2.332
	c1.229,8.907,9.567,22.396,19.671,22.977c1.402,1.478,3.027,2.762,5.196,2.562c1.081-0.1,2.019-0.664,2.323-1.77
	c0.286-1.041-0.204-2.205-1.127-2.731c0.167-0.392,0.229-0.841,0.167-1.255c0.614-0.469,1.161-1.032,1.613-1.637
	c1.119-1.5,0.818-3.604,0.1-5.192c-1.453-3.216-4.837-5.161-7.981-4.988c-1.675-2.076-4.466-2.292-5.967-4.501
	c-0.931-1.369-2.761-4.15-4.033-3.832c-3.133-4.435-5.464-6.862-7.332-12.014c0.192-0.136,0.396-0.26,0.57-0.417
	c3.942-3.534,3.854-8.62,3.833-13.534c-0.023-5.129-0.161-10.298-0.691-15.401c-0.153-1.473-0.323-2.943-0.503-4.412
	c0.538-0.295,1.076-0.59,1.617-0.885c0.515,0.12,1.073,0.175,1.679,0.145c3.222-0.162,6.308-0.683,9.286-1.542
	c0.261,0.347,0.635,0.602,1.133,0.672c4.764,0.668,8.707,1.219,13.55,0.635c4.518-0.544,8.906-1.973,13.146-3.574
	c4.917-1.857,8.671-1.81,13.382-5.006c5.5,0.333,13.445-3.485,13.5-3.5c7.899-2.163,12.85-5.083,20-8.667
	c9.897-3.587,10.978-4.732,19.333-11.333c1.005-0.794,7.166-6.673,8.166-7.5c10.746-6.927,15.336-12.885,24.331-22.115
	c-2.254,16.013-8.124,31.055-13.917,46.099c-1.16,3.015,3.285,5.426,5.354,3.118c3.191-3.557,4.337-7.149,5.153-11.507
	c0.315-0.012,0.641-0.106,0.958-0.309c2.195-1.407,2.924-4.243,3.728-6.621c0.079-0.237,0.142-0.48,0.215-0.719
	c0.925,0.716,2.149,0.882,3.447-0.087c4.146-6.276,7.608-14.363,6.61-22.207c1.193-3.79,2.152-7.653,3.035-11.559
	c0.162-0.719,0.312-1.439,0.466-2.16c0.689,2.471,1.431,4.886,1.872,7.105c0.701,3.527,0.474,14.99,6.965,13.39
	c1.519-0.374,2.519-1.187,3.172-2.25c0.809,0.867,1.666,1.685,2.575,2.458c0.175,0.237,0.342,0.48,0.521,0.715
	c5.506,7.285,15.636,16.424,23.925,12.516c0.412,0.001,0.813-0.043,1.209-0.126c0.375,1.404,0.835,2.794,1.376,4.133
	c0.354,2.717,0.773,5.425,1.158,8.15c0.52,3.698,0.585,7.872,2.264,11.214c0.167,2.252,0.294,4.507,0.304,6.77
	c0.036,8.212-0.888,16.394-2.446,24.447c-1.559,8.031-4.93,15.188-8.148,22.63c-0.544,1.258-1.42,0.861-1.959,2.08
	c-1.438-0.749-2.908,1.251-4.021,2.4c-0.841,0.867-2.099,1.601-2.312,2.767c-0.037,0.205-1.637,1.613-1.667,1.833
	c-2.202,1.272-2.592,1.901-4.5,3.833c-1.666,0.5-3.139,2.327-2.638,4.458c-0.574,1.477-0.116,3.208,0.595,4.833
	c-0.738,1.433,0.107,3.558,0.993,4.771c0.204,0.278,0.427,0.521,0.657,0.746c0.006,0.78,0.66,1.569,1.566,1.254
	c0.08-0.025,0.156-0.064,0.236-0.097c0.739,0.286,1.551,0.433,2.427,0.441c0.821,0.009,1.867-0.479,2.217-1.271
	c0.301-0.686,1.319-0.438,1.444-1.137c0.942,0.084,1.146-1.133,2.029-1.977c0.791-0.082,1.562-0.404,2.17-0.992
	c1.057-1.022,2.045-2.074,2.953-3.178c2.046-1.834,4.144-3.646,3.991-6.66c1.721-2.432,3.276-4.936,4.561-7.44
	c1.091-2.134,1.989-4.34,2.769-6.589c1.362,3.838,3.349,7.397,6.243,10.294c1.604,1.603,4.504-0.006,3.837-2.233
	c-2.104-7.021,0.564-15.527,2.079-22.447c1.658-7.569,3.921-14.67,4.485-22.456c0.155-2.166,0.166-4.333,0.082-6.498
	c0.747,1.536,1.547,3.066,2.398,4.612c1.514,2.732,6.018,1.552,5.909-1.601c-0.21-6.272-0.792-12.448-2.621-18.475
	c-1.095-3.605-2.882-8.775-6.196-11.162c-0.026-0.05-0.054-0.101-0.08-0.151c-0.994-1.722-2.385-3.076-3.737-4.48
	c0.438-1.509,0.314-2.89-0.142-4.21c6.412,1.69,13.4,2.277,19.605,2.5C435.921,206.186,436.762,199.277,432.409,198.123z"/>
</svg>
