<?xml version="1.0" encoding="utf-8"?>
<!-- Generator: Adobe Illustrator 15.0.2, SVG Export Plug-In . SVG Version: 6.00 Build 0)  -->
<!DOCTYPE svg PUBLIC "-//W3C//DTD SVG 1.1//EN" "http://www.w3.org/Graphics/SVG/1.1/DTD/svg11.dtd">
<svg version="1.1" id="Layer_1" xmlns="http://www.w3.org/2000/svg" xmlns:xlink="http://www.w3.org/1999/xlink" x="0px" y="0px"
	 width="600px" height="600px" viewBox="0 0 600 600" enable-background="new 0 0 600 600" xml:space="preserve">
<path fill="#1A1A1A" d="M388.715,534.805c0.342,0.025,0.685,0.056,1.024,0.09c-0.138-1.573-0.346-3.157-0.621-4.746
	c0.53-0.687,0.99-1.473,1.345-2.375c1.794-4.563,1.173-11.342,1.234-16.154c0.09-7.094-0.581-14.119-1.555-21.141
	c-1.221-8.812-7.405-28.176-19.445-19.005c-6.449-3.71-14.072-4.479-21.697-5.036c-2.101-0.152-3.658,0.698-4.643,2.01
	c-2.111-0.235-4.231-0.078-6.306,0.618c-0.657,0.221-1.22,0.64-1.652,1.163c-3.165-1.366-6.391-2.506-9.52-3.423
	c-4.173-1.223-5.677,4.902-1.762,6.39c3.698,1.403,7.915,3.104,10.869,5.833c2.931,2.709,5.261,5.98,7.829,9.016
	c3.964,4.683,7.298,9.999,10.861,15c2.117,2.971,4.167,5.993,6.074,9.103c0.062,0.104,0.125,0.211,0.191,0.312
	c1.415,2.322,2.75,4.692,3.961,7.132c1.011,2.038,2.015,5.057,2.229,6.986c0.12,1.084,0.034,2.188,0.032,3.275
	c0,0.003,0.003,0.002,0.006,0c-0.041,0.034-0.149,0.134-0.426,0.397c-1.668,1.599-2.19,3.544-1.918,5.379
	C371.367,534.246,381.361,532.274,388.715,534.805z"/>
<path fill="#1A1A1A" d="M291.5,472.25c-4.289-4.81-21.382-0.819-26.765,0.352c-6.08,1.324-11.819,2.132-17.994,2.703
	c-9.893,0.917-26.658,1.318-25.806,15.047c0.399,6.43,2.58,12.563,2.93,18.996c0.467,8.552,0.932,16.379,2.179,24.618
	c0.131,0.87,0.307,1.712,0.51,2.534c0.404-0.182,0.855-0.349,1.377-0.498c3.553-1.015,7.231-1.475,10.895-1.907
	c4.683-0.553,10.48-1.668,15.9-1.627c-2.006-5.894-2.057-13.131-1.566-19.711c2.597-7.53,5.616-14.729,9.964-21.476
	c3.913-6.069,9.718-9.353,15.732-12.961c1.143-0.687,1.484-1.691,1.303-2.614c1.848-0.233,3.668-0.529,5.219-1.559
	C285.796,473.871,291.833,472.624,291.5,472.25z"/>
<path fill="#1A1A1A" enable-background="new    " d="M254.401,536.338c-0.105-0.716-0.32-1.309-0.49-2.003
	c-0.681-2.782-4.586-2.033-4.882,0.366c-0.946,0.035-1.892,0.056-2.839,0.053c-0.316-0.229-0.709-0.388-1.189-0.428
	c-2.852-0.083-5.662-0.095-8.5,0.243c-0.901,0.106-1.543,0.58-1.927,1.188c-0.332-0.104-0.681-0.182-1.073-0.202
	c-1.568-0.083-2.808,1.627-2.358,3.097c0.31,1.01,0.592,1.938,1.317,2.612c0.151,0.567,0.265,1.141,0.316,1.736
	c0.112,1.3,1.921,2.54,2.944,1.22c0.042-0.054,0.087-0.111,0.131-0.168c5.417,0.932,10.666-1.014,16.021-2.003
	c1.147-0.212,2.051-1.741,1.615-2.845c-0.027-0.069-0.058-0.137-0.087-0.205C254.197,538.445,254.57,537.486,254.401,536.338z"/>
<path fill="#1A1A1A" enable-background="new    " d="M386.18,537.627c-0.265-0.113-0.53-0.218-0.797-0.327
	c0-0.003,0.001-0.006,0.002-0.009c-0.022-0.007-0.047-0.013-0.069-0.02c-2.146-0.884-4.321-1.646-6.546-2.323
	c-2.795-0.852-5.869-0.559-8.77-0.768c-1.564-0.112-2.341,1.216-2.224,2.491c-2.063,1.312-0.887,5.055,1.824,5.097
	c0.941,0.308,1.993,0.381,2.833-0.131c0.342-0.047,0.686-0.092,1.028-0.137c0.271,0.01,0.543,0.039,0.815,0.06
	c0.531,0.181,1.064,0.344,1.583,0.451c0.024,0.01,0.05,0.021,0.075,0.03l0.005-0.017c0.188,0.036,0.376,0.072,0.559,0.093
	c0.326,0.034,0.615-0.021,0.869-0.129c2.205,0.438,4.371,1.093,6.246,1.719C387.16,544.892,389.656,539.12,386.18,537.627z"/>
<path fill="#1A1A1A" d="M247.5,529.523c-0.997,0-1.729,0.405-2.208,1H234.5c-3.839,0-3.839,5.953,0,5.953h11
	c1.009,0,1.745-0.416,2.224-1.022C251.327,535.218,251.259,529.523,247.5,529.523z"/>
<path fill="#1A1A1A" d="M386.604,533.396c-4.446-4.034-10.335-3.811-15.896-2.766c-3.771,0.708-2.169,6.445,1.582,5.74
	c3.247-0.609,7.435-1.187,10.104,1.234C385.231,540.177,389.454,535.979,386.604,533.396z"/>
</svg>
