<?xml version="1.0" encoding="utf-8"?>
<!-- Generator: Adobe Illustrator 15.0.2, SVG Export Plug-In . SVG Version: 6.00 Build 0)  -->
<!DOCTYPE svg PUBLIC "-//W3C//DTD SVG 1.1//EN" "http://www.w3.org/Graphics/SVG/1.1/DTD/svg11.dtd">
<svg version="1.1" id="Layer_1" xmlns="http://www.w3.org/2000/svg" xmlns:xlink="http://www.w3.org/1999/xlink" x="0px" y="0px"
	 width="600px" height="600px" viewBox="0 0 600 600" enable-background="new 0 0 600 600" xml:space="preserve">
<path fill="#1A1A1A" d="M282.84,470.354c-2.979-0.143-6.059,0.515-9.068,1.736c-2.522,0.256-5.071,0.346-7.707,0.394
	c-4.866,0.088-9.838,1.229-14.631,2.008c-5.414,0.879-11.441,1.371-15.609,5.045c-1.807-0.01-3.608,0.021-5.412,0.178
	c-0.652-0.233-1.368-0.262-2.105,0.043c-0.478,0.232-0.981,0.387-1.511,0.461c-3.232,0.773-3.698,5.248-1.299,6.982
	c-0.534,2.108-0.552,4.387-0.217,6.562c-0.532,0.947-1.023,1.939-1.461,2.992c-1.129,2.717,1.714,6.162,4.52,5.935
	c9.498-0.771,18.474-4.437,28-4.902c1.558-0.076,3.365-1.084,3.649-2.779c0.396-2.358,1.758-4.545,3.418-6.516
	c0.478-0.193,0.947-0.392,1.396-0.584c1.171-0.506,2.128-1.312,3.021-2.211c0.922-0.931,1.331-1.904,1.546-3.041
	c1.609-1.363,3.339-2.609,5.185-3.607c2.993-0.967,6.008-1.881,9.122-2.512C287.303,475.799,286.244,470.516,282.84,470.354z"/>
<path fill="#1A1A1A" d="M384.902,483.518c-0.207-0.87-0.527,0.67-0.277-4.205c-0.347-2.41,0-0.938-0.125-2.125
	c0.562-2.562-1.095-7.02-3.66-7c-14.504,0.115-28.975-5.334-43.504-2.327c-0.414,0.086-0.782,0.262-1.11,0.487
	c-1.117-0.229-2.328-0.28-3.341-0.422c-0.307-0.043-0.606-0.059-0.91-0.09c-0.023-0.004-0.047-0.01-0.069-0.014
	c-0.025-0.004-0.047-0.011-0.072-0.013c-2.181-0.209-4.305,0.189-6.487,0.189c-0.002,0-0.345,0-0.345,0v0.012
	c0,0.017-0.033,0.029-0.136,0.045c-0.988,0.164-0.936,1.519-0.298,2.041c-0.81,0.785-0.849,2.439,0.315,2.968
	c9.705,4.395,21.246,8.303,26.521,18.161c5.604,10.478,18.776,10.582,29.427,10.021c1.042-0.057,1.913-0.404,2.597-0.953
	c1.681,0.512,3.715-0.533,3.916-2.793C387.77,492.691,385.997,488.137,384.902,483.518z"/>
</svg>
