<?xml version="1.0" encoding="utf-8"?>
<!-- Generator: Adobe Illustrator 15.0.2, SVG Export Plug-In . SVG Version: 6.00 Build 0)  -->
<!DOCTYPE svg PUBLIC "-//W3C//DTD SVG 1.1//EN" "http://www.w3.org/Graphics/SVG/1.1/DTD/svg11.dtd">
<svg version="1.1" id="Layer_1" xmlns="http://www.w3.org/2000/svg" xmlns:xlink="http://www.w3.org/1999/xlink" x="0px" y="0px"
	 width="600px" height="600px" viewBox="0 0 600 600" enable-background="new 0 0 600 600" xml:space="preserve">
<path fill="#1A1A1A" d="M287.539,470.449c-4.374-2.693-10.197,0.828-15.034,0.875c-5.924,0.057-12.027,1.521-17.88,2.598
	c-0.412,0.021-0.833,0.072-1.267,0.203c-5.154,1.225-10.521,3.777-15.271,4.029c-1.806,0.096-3.191,0.899-4.125,2.026
	c-1.596,0.004-3.148,0.011-4.622,0.066c-3.163,0.119-5.714,2.527-5.753,5.752c-0.148,12.307,4.203,24.109,4.259,36.357
	c-0.151,0.497-0.234,1.043-0.216,1.643c0.025,0.834,0.05,1.668,0.075,2.5c0.149,5.006,5.864,6.229,8.704,3.656
	c2.69-0.006,5.265-0.929,8.015-2.215c1.64-0.076,3.279-0.154,4.918-0.228c2.572-0.113,4.707-2.059,4.714-4.715
	c0.006-2.152-0.28-5.027-0.481-8.1c0.785-0.81,1.302-1.939,1.33-3.4c0.029-1.523-0.006-2.992-0.012-4.416
	c0.251-3.426,1.15-6.617,2.682-9.949c0.548-0.641,0.834-1.328,0.902-2.018c0.129-0.144,0.246-0.285,0.385-0.426
	c3.856-3.91,8.261-6.72,11.084-11.584c0.446-0.771,0.628-1.517,0.62-2.209c0.059-0.062,0.13-0.117,0.184-0.181
	c0.993-0.196,1.977-0.422,2.932-0.721c4.592-1.432,12.541-1.301,14.712-6.299C288.916,472.49,288.739,471.189,287.539,470.449z"/>
<path fill="#1A1A1A" d="M390.257,517.369c-1.928-8.935-3.561-17.555-4.018-26.697c-0.182-3.625-0.306-7.266-1.61-10.496
	c-0.025-1.385-0.084-2.772-0.216-4.176c-0.181-1.93-1.135-3.277-2.99-3.928c-4.057-1.422-8.279-1.457-12.511-1.248
	c-2.054-0.32-4.062-0.57-5.857-0.892c-5.481-0.979-14.785-3.102-19.882,0.482c-0.101-0.061-0.192-0.125-0.295-0.184
	c-3.152-1.826-7.156-2.88-10.782-2.834c-1.312,0.016-7.803,1.117-8.971,1.728c-1.663,0.869-0.744,1.695-2.25,2.625
	c-0.851,0.524,3.229,1.833,4.198,1.593c1.123-0.276,2.604,0.834,3.699,1.133c1.559,0.429,3.087,0.878,4.624,1.39
	c3.315,1.102,6.442,3.896,8.962,6.213c5.066,4.66,10.095,12.041,12.521,18.438c2.698,7.117,4.131,16.824,10.851,21.478
	c5.15,3.565,10.596-0.262,15.516,2.305C386.136,526.852,391.409,522.709,390.257,517.369z"/>
</svg>
