<?xml version="1.0" encoding="utf-8"?>
<!-- Generator: Adobe Illustrator 15.0.2, SVG Export Plug-In . SVG Version: 6.00 Build 0)  -->
<!DOCTYPE svg PUBLIC "-//W3C//DTD SVG 1.1//EN" "http://www.w3.org/Graphics/SVG/1.1/DTD/svg11.dtd">
<svg version="1.1" id="Layer_1" xmlns="http://www.w3.org/2000/svg" xmlns:xlink="http://www.w3.org/1999/xlink" x="0px" y="0px"
	 width="600px" height="600px" viewBox="0 0 600 600" enable-background="new 0 0 600 600" xml:space="preserve">
<path fill="#1A1A1A" d="M255.532,530.571c-7.79-1.255-17.191,0.287-24.63,2.759c-2.74,0.911-1.565,5.258,1.196,4.34
	c7.773-2.584,15.546-1.894,23.434-3.241C257.44,534.104,257.458,530.882,255.532,530.571z"/>
<path fill="#1A1A1A" d="M253.885,538.771c-5.093,0.83-10.218,1.138-15.297,2.138c-1.523,0.301-4.265,1.332-5.396,2.464
	c-1.501,1.501,0.833-0.762-0.513,0.584c-0.39,0.391-0.626,1-0.554,1.544c0.137,1.033,1.061,1.713,2.069,1.188
	c0.098-0.054,0.178-0.104,0.267-0.156c2.488,0.387,6.106-0.678,8.268-1.022c4.143-0.661,8.314-1.245,12.387-2.276
	C258.061,542.482,256.764,538.299,253.885,538.771z"/>
<path fill="#1A1A1A" d="M387.581,542.391c-6.445-1.816-13.458-1.892-20.081-2.703c-2.026-0.245-2.485,3.214-0.481,3.562
	c6.456,1.127,12.936,2.336,19.4,3.361C389.142,547.041,390.356,543.174,387.581,542.391z"/>
<path fill="#1A1A1A" d="M390.781,535.219c-3.062-2.756-7.895-3.43-11.883-3.871c-4.286-0.474-9.618-1.249-13.277,1.506
	c-0.405,0.308-0.562,1.023,0,1.297c3.403,1.644,7.401,1.208,11.088,1.752c4.155,0.61,8.619,2.851,12.791,2.413
	C390.938,538.162,392.073,536.381,390.781,535.219z"/>
</svg>
