<?xml version="1.0" encoding="utf-8"?>
<!-- Generator: Adobe Illustrator 15.0.2, SVG Export Plug-In . SVG Version: 6.00 Build 0)  -->
<!DOCTYPE svg PUBLIC "-//W3C//DTD SVG 1.1//EN" "http://www.w3.org/Graphics/SVG/1.1/DTD/svg11.dtd">
<svg version="1.1" id="Layer_1" xmlns="http://www.w3.org/2000/svg" xmlns:xlink="http://www.w3.org/1999/xlink" x="0px" y="0px"
	 width="600px" height="600px" viewBox="0 0 600 600" enable-background="new 0 0 600 600" xml:space="preserve">
<path fill="#1A1A1A" d="M286.286,471.381c-2.606-1.455-5.865,0.146-8.506,0.977c-0.499,0.156-0.994,0.328-1.489,0.502
	c-3.551-0.23-6.896,0.334-9.979,1.514c-0.974-1.105-2.465-1.756-4.051-1.281c-6.581,1.965-13.235,3.758-19.976,5.092
	c-0.628-0.168-1.303-0.182-1.995,0.018c-0.812,0.23-1.663,0.484-2.495,0.795c-2.306,0.381-4.622,0.699-6.949,0.947
	c-0.676-0.305-1.265-0.369-1.92-0.654c-1.743-0.762-4.154-0.293-4.621,1.879c-0.455,2.113-0.728,4.568-0.438,6.791
	c-0.792,1.018-1.237,2.365-1.107,4.045c0.735,9.52,3.006,18.601,5.814,27.693c0.666,2.152,1.279,4.453,1.913,6.797
	c0.109,2.502,0.19,5.004,0.195,7.51c0.005,2.365,0.979,4.058,2.385,5.113c-0.089,0.736-0.034,1.535,0.194,2.381
	c0.017,0.371,0.057,0.75,0.138,1.143c0.301,1.464,0.629,2.918,0.951,4.375c0.296,1.555,0.589,3.105,1.003,4.641
	c0.147,0.547,0.347,1.03,0.58,1.471c-0.066,0.781,0.039,1.633,0.367,2.543c0.338,0.939,0.724,1.818,1.133,2.676
	c0.25,0.846,0.626,1.545,1.096,2.113c0.709,1.258,1.481,2.488,2.323,3.754c2.843,4.275,10.373,4.203,11.61-1.518
	c1.632-7.547,1.183-15.023,0.314-22.514c2.017-0.256,3.875-1.805,3.875-4.178h0.028c0.202-6.381-1.162-12.932-1.254-19.358
	c-0.09-6.173,0.286-12.343,1.927-18.312c2.521-9.17,9.325-14.438,16.683-19.244c1.99-0.814,4.025-1.51,6.088-2.141
	c2.531-0.771,5.149-0.808,6.832-2.998C287.574,473.146,287.096,471.834,286.286,471.381z"/>
<path fill="#1A1A1A" d="M389.338,523.592c0.132-3.531-0.217-6.961-0.852-10.334c0.312-3.537-0.732-7.725-1.461-10.975
	c3.739-3.197,2.726-10.15,2.252-14.502c-0.644-5.896-2.18-11.795-4.094-17.395c-1.71-5.002-7.568-5.195-10.407-2.407
	c-4.7-1.519-9.983-1.896-14.54-2.06c-6.325-0.229-15.104-0.238-20.549,3.557c-0.396,0.275-0.721,0.582-0.984,0.908
	c-3.03-0.525-6.15-0.877-9.37-1.15c-0.652-0.07-4.485-0.525-5.164-0.568c-2.172-0.142-3.959,2.389-1.833,2.834
	c9.489,1.996,21.907,9.826,28.53,16.681c3.29,3.406,5.976,7.139,8.28,11.27c2.437,4.367,2.297,9.012,4.688,13.385
	c0.229,0.42,0.53,3.334,0.834,3.666c0.106,0.816,0.707,2.521,0.833,3.334c0.326,3.973,0.643,5.376,1.167,9.333
	c-0.447,3.498,0.529,6.36,0.436,9.909c-0.34,1.574-0.727,3.133-0.984,4.762c-0.168,1.051,0.064,2.053,0.535,2.92
	c-0.011,0.082-0.015,0.162-0.022,0.242c-0.206,1.762-0.956,3.093,0.201,3.833c-0.036,0.748,0.652,0.587,0.666,1.333
	c-2.459-0.167-0.335,1.624-0.333,1.667c-0.44,3.144,0.201,5.569-0.218,8.681c-0.526,3.906,2.355,8.32,6.876,6.877
	c9.115-2.911,13.024-11.93,14.746-20.663C390.038,541.281,391.04,531.57,389.338,523.592z"/>
</svg>
