<?xml version="1.0" encoding="utf-8"?>
<!-- Generator: Adobe Illustrator 15.0.2, SVG Export Plug-In . SVG Version: 6.00 Build 0)  -->
<!DOCTYPE svg PUBLIC "-//W3C//DTD SVG 1.1//EN" "http://www.w3.org/Graphics/SVG/1.1/DTD/svg11.dtd">
<svg version="1.1" id="Layer_1" xmlns="http://www.w3.org/2000/svg" xmlns:xlink="http://www.w3.org/1999/xlink" x="0px" y="0px"
	 width="600px" height="600px" viewBox="0 0 600 600" enable-background="new 0 0 600 600" xml:space="preserve">
<path fill="#C1272D" d="M371.857,488.777c-0.799-2.223-3.643-1.064-5.317,0.188c-0.909-2.188-2.703-5.344-4.823-3.197
	c-3.08,3.119,1.586,6.887,2.96,9.619c0.206,0.408,0.596,0.453,0.911,0.307c0.351,0.109,0.758,0.008,1.045-0.396
	C368.04,493.332,372.985,491.918,371.857,488.777z"/>
<path fill="#C1272D" d="M355.19,480.945c-0.799-2.223-3.643-1.064-5.317,0.188c-0.909-2.189-2.703-5.344-4.823-3.197
	c-3.08,3.117,1.586,6.885,2.96,9.617c0.206,0.41,0.594,0.455,0.911,0.309c0.349,0.109,0.758,0.006,1.045-0.396
	C351.373,485.5,356.318,484.086,355.19,480.945z"/>
<path fill="#C1272D" d="M368.524,472.445c-0.799-2.223-3.643-1.064-5.317,0.188c-0.909-2.189-2.703-5.344-4.823-3.197
	c-3.08,3.117,1.586,6.885,2.96,9.617c0.206,0.41,0.594,0.455,0.911,0.309c0.349,0.109,0.758,0.006,1.045-0.396
	C364.707,477,369.652,475.586,368.524,472.445z"/>
<path fill="#C1272D" d="M385.857,479.945c-0.799-2.223-3.643-1.064-5.317,0.188c-0.909-2.189-2.703-5.344-4.823-3.197
	c-3.08,3.117,1.586,6.885,2.96,9.617c0.206,0.41,0.596,0.455,0.911,0.309c0.351,0.109,0.758,0.006,1.045-0.396
	C382.04,484.5,386.985,483.086,385.857,479.945z"/>
<path fill="#C1272D" d="M387.357,494.611c-0.799-2.223-3.643-1.064-5.317,0.188c-0.909-2.188-2.703-5.344-4.823-3.197
	c-3.08,3.119,1.586,6.887,2.96,9.619c0.206,0.408,0.596,0.453,0.911,0.307c0.351,0.109,0.758,0.008,1.045-0.396
	C383.54,499.166,388.485,497.752,387.357,494.611z"/>
<path fill="#C1272D" d="M347.69,467.945c-0.799-2.223-3.643-1.064-5.317,0.188c-0.355-0.855-0.848-1.855-1.44-2.633
	c-1.282,0-2.565,0-3.85,0c-2.064,2.998,2.135,6.482,3.427,9.053c0.206,0.41,0.594,0.455,0.911,0.309
	c0.349,0.109,0.758,0.006,1.045-0.396C343.873,472.5,348.818,471.086,347.69,467.945z"/>
<path fill="#C1272D" d="M279.357,473.945c-0.797-2.223-3.641-1.064-5.317,0.188c-0.909-2.189-2.703-5.344-4.823-3.197
	c-3.08,3.117,1.586,6.885,2.96,9.617c0.206,0.41,0.594,0.455,0.911,0.309c0.349,0.109,0.758,0.006,1.045-0.396
	C275.54,478.5,280.485,477.086,279.357,473.945z"/>
<path fill="#C1272D" d="M268.357,481.943c-0.797-2.223-3.641-1.064-5.317,0.188c-0.909-2.188-2.703-5.344-4.823-3.197
	c-3.08,3.119,1.586,6.887,2.96,9.619c0.206,0.408,0.594,0.453,0.911,0.307c0.349,0.109,0.758,0.008,1.045-0.396
	C264.54,486.498,269.485,485.084,268.357,481.943z"/>
<path fill="#C1272D" d="M254.857,476.945c-0.797-2.223-3.641-1.064-5.317,0.188c-0.909-2.189-2.703-5.344-4.823-3.197
	c-3.08,3.117,1.586,6.885,2.96,9.617c0.206,0.41,0.594,0.455,0.911,0.309c0.349,0.109,0.758,0.006,1.045-0.396
	C251.04,481.5,255.985,480.086,254.857,476.945z"/>
<path fill="#C1272D" d="M235.857,478.777c-0.797-2.223-3.641-1.064-5.317,0.188c-0.278-0.67-0.646-1.421-1.075-2.091
	c-1.608,0.763-3.057,1.685-4.507,2.605c0.739,2.1,2.863,4.204,3.719,5.907c0.206,0.408,0.594,0.453,0.911,0.307
	c0.349,0.109,0.758,0.008,1.045-0.396C232.04,483.332,236.985,481.918,235.857,478.777z"/>
<path fill="#C1272D" d="M247.357,487.445c-0.797-2.223-3.641-1.064-5.317,0.188c-0.909-2.189-2.703-5.344-4.823-3.197
	c-3.08,3.117,1.586,6.885,2.96,9.617c0.206,0.41,0.594,0.455,0.911,0.309c0.349,0.109,0.758,0.006,1.045-0.396
	C243.54,492,248.485,490.586,247.357,487.445z"/>
<path fill="#C1272D" d="M261.023,494.111c-0.797-2.223-3.641-1.064-5.317,0.188c-0.909-2.189-2.703-5.344-4.823-3.197
	c-3.08,3.117,1.586,6.885,2.96,9.617c0.206,0.41,0.594,0.455,0.911,0.309c0.349,0.109,0.758,0.006,1.045-0.396
	C257.206,498.666,262.151,497.252,261.023,494.111z"/>
<path fill="#C1272D" d="M235.691,495.611c-0.797-2.223-3.641-1.064-5.317,0.188c-0.909-2.189-2.703-5.344-4.823-3.197
	c-3.08,3.117,1.586,6.885,2.96,9.617c0.206,0.41,0.594,0.455,0.911,0.309c0.349,0.109,0.758,0.006,1.045-0.396
	C231.874,500.166,236.819,498.752,235.691,495.611z"/>
</svg>
