<?xml version="1.0" encoding="utf-8"?>
<!-- Generator: Adobe Illustrator 15.0.2, SVG Export Plug-In . SVG Version: 6.00 Build 0)  -->
<!DOCTYPE svg PUBLIC "-//W3C//DTD SVG 1.1//EN" "http://www.w3.org/Graphics/SVG/1.1/DTD/svg11.dtd">
<svg version="1.1" id="Layer_1" xmlns="http://www.w3.org/2000/svg" xmlns:xlink="http://www.w3.org/1999/xlink" x="0px" y="0px"
	 width="600px" height="600px" viewBox="0 0 600 600" enable-background="new 0 0 600 600" xml:space="preserve">
<path opacity="0.5" fill="#1A1A1A" d="M255.271,534.062c-1.816-1.816-4.094-1.299-6.368-1.142c-1.343,0.093-3.086,0.881-4.761,1.365
	c-0.25-0.154-0.532-0.27-0.851-0.323c-1.859-0.312-3.396-0.375-5.25,0c-1.117,0.226-1.784,1.019-2.026,1.95
	c-0.575-0.083-1.15-0.176-1.724-0.282c-3.613-0.673-5.218,4.609-1.964,5.629c0.052,1.437,0.988,2.739,2.839,2.55
	c1.833-0.188,3.465-0.736,4.973-1.541c2.443,0.159,4.896,0.208,7.361,0.209c0.841,0,1.486-0.295,1.959-0.74
	c0.124,0.025,0.241,0.06,0.374,0.072C253.753,542.176,259.183,537.973,255.271,534.062z"/>
<path opacity="0.5" fill="#1A1A1A" d="M389.703,537.041c-0.409-2.235-2.586-2.573-4.152-1.705c-0.803-0.48-1.825-0.609-2.887-0.074
	c-0.582,0.293-1.275,0.499-2.012,0.651c-0.111-0.088-0.225-0.171-0.342-0.245c-2.309-1.46-4.786-1-7.354-1.372
	c-0.668-0.097-1.266,0.012-1.779,0.248c-1.353-1.796-4.644-1.956-5.215,0.831c-1.36,6.635,6.445,7.635,12.918,6.809
	c1.288,0.927,2.745,1.528,4.348,1.794C387.901,544.754,390.52,541.498,389.703,537.041z"/>
</svg>
