<?xml version="1.0" encoding="utf-8"?>
<!-- Generator: Adobe Illustrator 15.0.2, SVG Export Plug-In . SVG Version: 6.00 Build 0)  -->
<!DOCTYPE svg PUBLIC "-//W3C//DTD SVG 1.1//EN" "http://www.w3.org/Graphics/SVG/1.1/DTD/svg11.dtd">
<svg version="1.1" id="Layer_1" xmlns="http://www.w3.org/2000/svg" xmlns:xlink="http://www.w3.org/1999/xlink" x="0px" y="0px"
	 width="600px" height="600px" viewBox="0 0 600 600" enable-background="new 0 0 600 600" xml:space="preserve">
<path fill="#1A1A1A" d="M329.269,284.348c-18.148,3.89-36.808,4.522-55.269,3.027c-2.127-0.172-2.016,2.981,0,3.25
	c1.843,0.246,3.69,0.466,5.539,0.671c0.03,0.151,0.078,0.305,0.166,0.461c2.002,3.553,4.311,6.89,7.737,9.198
	c0.594,0.4,1.451-0.002,1.625-0.661c0.554-2.1,1.569-3.917,2.635-5.79c0.385-0.676,0.851-1.389,1.221-2.133
	c12.662,0.603,25.345-0.048,37.81-2.72C334.198,288.909,332.728,283.607,329.269,284.348z M289.65,294.128
	c-0.861,1.28-1.596,2.622-2.169,4.04c-1.996-1.804-3.351-4.098-4.524-6.519c2.608,0.25,5.22,0.457,7.833,0.61
	C290.416,292.897,290.047,293.538,289.65,294.128z"/>
</svg>
