<?xml version="1.0" encoding="utf-8"?>
<!-- Generator: Adobe Illustrator 15.0.2, SVG Export Plug-In . SVG Version: 6.00 Build 0)  -->
<!DOCTYPE svg PUBLIC "-//W3C//DTD SVG 1.1//EN" "http://www.w3.org/Graphics/SVG/1.1/DTD/svg11.dtd">
<svg version="1.1" id="Layer_1" xmlns="http://www.w3.org/2000/svg" xmlns:xlink="http://www.w3.org/1999/xlink" x="0px" y="0px"
	 width="600px" height="600px" viewBox="0 0 600 600" enable-background="new 0 0 600 600" xml:space="preserve">
<path fill="#808080" d="M381.558,455.496c-0.349-0.16-0.697-0.305-1.053-0.451c3.846-17.123-2.827-36.088-7.454-52.328
	c-4.338-15.227-7.406-30.855-11.158-46.252c7.241-1.461,13.553-5.098,20.062-8.99c2.229-1.336,3.543-4.793,1.858-7.088
	c-7.933-10.804-8.521-24.35-12.701-36.701c-0.931-2.742-4.555-4.979-7.271-2.957c-12.346,9.179-29.803,6.726-41.932,16.405
	c-0.153,0.021-0.303,0.054-0.451,0.093l0.084-0.107c-0.595,0.109-1.075,0.463-1.454,0.908c-0.146,0.154-0.273,0.33-0.384,0.525
	c8.13-4.219-1.155-1.049-1.204-1.053c-1.072-0.101-1.085,0.93-2.161,0.893c-1.966-0.065-3.604,1.69-3.604,3.605
	c0,1.619,1.042,2.867,2.448,3.367c-3.214,5.75-5.106,12.488-7.563,18.52c-1.736-0.143-3.506-0.379-5.242-0.445
	c-0.247-0.22-0.495-0.438-0.749-0.664c-2.303-2.064-4.142-4.559-5.803-7.147c-3.166-4.938-5.221-10.782-5.733-16.627
	c-0.545-6.214-5.256-4.167-10.09-2.334c-0.867-0.159-0.688-0.255-1.333-0.333c-1.734-0.207-1.642-1.527-3.167-0.5
	c-0.081,0.055-1.259-0.062-1.333,0c-0.04-0.053-2.955,0.549-3,0.5c-2.742-3.001-6.747-0.523-10.501-1.32
	c-1.042-0.221-2.098-0.457-3.163-0.689c-0.08-0.078-0.153-0.172-0.235-0.247c-2.247-2.125-5.785-2.565-8.402-1.146
	c-0.301-0.021-0.602-0.046-0.901-0.056c-0.625-0.021-1.161,0.213-1.569,0.584c-0.023-0.006-0.046-0.013-0.069-0.021
	c-0.025-0.047-0.046-0.094-0.072-0.143c-0.964-1.742-2.806-1.975-4.249-1.297c-0.456-0.188-0.915-0.375-1.342-0.602
	c-0.325-0.273-0.691-0.488-1.085-0.64c-0.082-0.055-0.172-0.102-0.252-0.157c-2.123-1.498-4.173-2.222-4.826,0.062
	c-1.213,4.242-2.811,10.922-2.852,15.334c-0.003,0.354,0.055,0.675,0.139,0.979c-0.839,1.979-1.752,3.926-2.6,5.844
	c-2.055,4.652-3.809,9.424-4.653,14.412c-0.851,0.276-1.506,1.047-1.804,1.934c-3.006,1.359-3.576,6.664,0.511,7.816
	c6.062,1.717,12.174,3.145,18.186,4.969c-1.455,6.979-2.665,14.611-2.077,21.664c-1.752,6.949-3.085,14.047-4.019,21.199
	c-1.268,0.856-2.215,2.26-2.388,4.184c-0.257,2.865-0.526,5.736-0.791,8.605c-1.457,3.112-2.11,7.062-2.693,9.709
	c-1.178,5.346-1.663,10.729-1.862,16.186c-0.053,1.465-1.381,2.562-0.349,3.001c-0.152,1.407,0.039,1.352,0,2.75
	c-0.256,0.379-0.893,1.716-1,2.25c-0.82,4.054-0.843,8.905-1.25,13c-0.809,3.582,0.105,6.812-0.058,10.499
	c-0.162,3.656,5.045,6.078,7.511,3.111c0.997-1.199,2.092-2.23,3.253-3.142c0.759,0.433,1.646,0.646,2.635,0.548
	c13.806-1.396,27.636-2.261,41.488-3.037c13.902-0.777,27.714-2.25,41.588-3.345c9.675-0.762,19.271-2.446,28.924-3.428
	c0.424-0.043,0.858-0.09,1.299-0.139c1.339,2.279,5.27,2.492,7.563,2.783c4.783,0.604,10.511,0.612,14.805-1.812
	c0.154-0.088,0.285-0.205,0.402-0.334c0.238,0.098,0.479,0.187,0.713,0.293C382.534,469.947,389.012,458.932,381.558,455.496z"/>
</svg>
