<?xml version="1.0" encoding="utf-8"?>
<!-- Generator: Adobe Illustrator 15.0.2, SVG Export Plug-In . SVG Version: 6.00 Build 0)  -->
<!DOCTYPE svg PUBLIC "-//W3C//DTD SVG 1.1//EN" "http://www.w3.org/Graphics/SVG/1.1/DTD/svg11.dtd">
<svg version="1.1" id="Layer_1" xmlns="http://www.w3.org/2000/svg" xmlns:xlink="http://www.w3.org/1999/xlink" x="0px" y="0px"
	 width="600px" height="600px" viewBox="0 0 600 600" enable-background="new 0 0 600 600" xml:space="preserve">
<path fill="#1A1A1A" d="M209.854,450.41c-8.889-4.602-17.175-10.867-26.966-13.398c-2.198-0.566-3.765,2.754-1.589,3.771
	c9.192,4.289,16.86,11.219,26.244,15.109C210.702,457.205,212.837,451.953,209.854,450.41z"/>
<path fill="#1A1A1A" d="M216.413,442.166c-9.755-5.771-19.205-12.133-28.172-19.066c-2.706-2.092-6.54,1.686-3.801,3.803
	c9.382,7.254,18.907,14.188,29.828,18.936C216.716,446.9,218.832,443.598,216.413,442.166z"/>
<path fill="#1A1A1A" d="M425.34,427c-4.396,0.141-9.064,2.303-13.124,3.926c-3.917,1.568-7.468,3.562-10.774,6.174
	c-2.722,2.148,1.11,5.926,3.801,3.803c3.323-2.623,7.14-4.336,11.071-5.832c3.53-1.346,7.463-2.285,10.44-4.654
	C428.148,429.305,426.967,426.949,425.34,427z"/>
<path fill="#1A1A1A" d="M425.104,417.229c-5.992-1.402-14.001,0.873-19.773,2.514c-5.578,1.582-11.906,4.262-14.102,10.049
	c-0.629,1.658,1.591,2.494,2.697,1.568c4.038-3.371,9.155-5.148,14.188-6.414c5.58-1.402,11.521-0.775,16.987-2.17
	C427.819,422.08,427.889,417.881,425.104,417.229z"/>
<path fill="#1A1A1A" d="M313.373,344.764c10.801-4.936,29.409-23.426,13.724-34.059c-1.229-0.833-2.893,0.822-2.052,2.053
	c1.904,2.787,4.05,4.912,4.465,8.445c0.435,3.688-1.659,7.1-3.944,9.75c-3.134,3.633-7.124,6.441-11.322,8.751
	c0.067-7.339,2.621-14.558,4.762-21.521c0.228-0.735-0.928-1.246-1.257-0.531c-3.837,8.336-7.896,15.744-7.452,25.209
	c-1.413,1.541-2.826,3.076-4.257,4.602c-4.146-2.855-7.095-6.838-8.19-11.878c-0.052-0.237-0.14-0.431-0.252-0.59
	c1.449-5.127,1.783-10.237,1.245-15.995c-0.217-2.324-2.429-2.861-3.824-2.002c-6.52-1.873-12.901-1.135-18.167,3.511
	c-0.873,0.771-0.762,2.196,0,2.983c5.77,5.961,11.494,11.799,16.809,18.191c0.377,0.453,1.269,0.342,1.517-0.195
	c0.221-0.479,0.431-0.952,0.631-1.426c1.568,4.303,4.48,7.898,8.202,10.674c-2.307,18.387-0.08,37.397,1.191,55.795
	c1.46,21.117,3.22,42.291,3.392,63.469c0.029,3.547,5.488,3.549,5.5,0c0.07-20.66-1.604-41.209-3.345-61.779
	c-1.587-18.756-2.548-37.562-4.01-56.314c0.368-0.084,0.719-0.264,0.986-0.521C309.745,349.447,312.071,347.291,313.373,344.764z
	 M293.928,338.921c-4.252-5.463-7.866-11.528-12.487-16.679c3.531-2.33,8.243-3.111,12.453-3.314
	c-0.014,0.23-0.009,0.475,0.036,0.737C294.967,325.809,295.473,332.764,293.928,338.921z"/>
<path fill="#1A1A1A" d="M383.34,465.125c-27.6-0.998-55.169-0.076-82.732,1.443c-13.214,0.729-26.644,1.486-39.75,3.338
	c-12.703,1.793-27.857,3.424-38.799,10.607c-0.472,0.311-0.285,1.021,0.284,1.049c12.646,0.572,25.742-3.863,38.178-5.85
	c14.006-2.234,27.766-4.191,41.947-4.93c26.947-1.398,53.944,1.117,80.875,2.09C388.34,473.057,388.322,465.305,383.34,465.125z"/>
</svg>
