<?xml version="1.0" encoding="utf-8"?>
<!-- Generator: Adobe Illustrator 15.0.2, SVG Export Plug-In . SVG Version: 6.00 Build 0)  -->
<!DOCTYPE svg PUBLIC "-//W3C//DTD SVG 1.1//EN" "http://www.w3.org/Graphics/SVG/1.1/DTD/svg11.dtd">
<svg version="1.1" id="Layer_1" xmlns="http://www.w3.org/2000/svg" xmlns:xlink="http://www.w3.org/1999/xlink" x="0px" y="0px"
	 width="600px" height="600px" viewBox="0 0 600 600" enable-background="new 0 0 600 600" xml:space="preserve">
<path fill="#1A1A1A" d="M243.34,358.5c-7.79-0.117-15.169-1.898-22.352-4.85c-2.914-1.197-4.148,3.512-1.296,4.701
	c7.57,3.156,15.437,4.982,23.648,5.148C246.565,363.566,246.562,358.549,243.34,358.5z"/>
<path fill="#1A1A1A" d="M383.425,345.436c-6.791,4.109-12.86,8.402-20.633,10.576c-2.562,0.717-1.483,4.631,1.096,3.979
	c7.941-2.014,16.099-5.623,21.733-11.709C386.995,346.799,385.234,344.34,383.425,345.436z"/>
<path fill="#1A1A1A" d="M317.905,316.086c-0.417-0.836-1.706-1.188-2.48-0.65c-3.535,2.453-4.127,7.822-5.391,11.68
	c-1.448,4.422-3.214,8.756-5.524,12.793c-6.681-5.652-8.546-15.903-13.281-23.012c-1.55-2.327-5.249-0.229-3.777,2.208
	c5.562,9.21,6.731,21.187,16.456,27.349c1.391,0.881,3.019,0.207,3.885-1.02c3.306-4.678,5.618-9.892,7.71-15.2
	C317.107,326.162,320.037,320.354,317.905,316.086z"/>
<path fill="#1A1A1A" d="M383.34,465.125c-27.6-0.998-55.169-0.076-82.732,1.443c-13.216,0.729-26.644,1.488-39.752,3.338
	c-12.703,1.793-27.857,3.424-38.799,10.609c-0.472,0.309-0.285,1.021,0.284,1.047c12.646,0.574,25.742-3.863,38.178-5.848
	c14.006-2.236,27.766-4.193,41.947-4.93c26.947-1.398,53.944,1.117,80.875,2.09C388.34,473.057,388.322,465.305,383.34,465.125z"/>
</svg>
