<?xml version="1.0" encoding="utf-8"?>
<!-- Generator: Adobe Illustrator 15.0.2, SVG Export Plug-In . SVG Version: 6.00 Build 0)  -->
<!DOCTYPE svg PUBLIC "-//W3C//DTD SVG 1.1//EN" "http://www.w3.org/Graphics/SVG/1.1/DTD/svg11.dtd">
<svg version="1.1" id="Layer_1" xmlns="http://www.w3.org/2000/svg" xmlns:xlink="http://www.w3.org/1999/xlink" x="0px" y="0px"
	 width="600px" height="600px" viewBox="0 0 600 600" enable-background="new 0 0 600 600" xml:space="preserve">
<path fill="#808080" d="M383.49,463.127c0.975-2.258,0.304-5.324-2.039-6.443c0.497-2.443-0.124-4.906-1.053-7.34
	c0.355-0.865,0.544-1.842,0.518-2.922c-0.216-8.67-3.27-17.391-7.074-25.598c-0.567-4.754-1.56-9.492-2.335-13.928
	c-0.43-2.461-0.988-4.877-1.631-7.262c0.39-0.865,0.644-1.855,0.713-2.965c0.6-9.648-3.232-20.484-5.845-29.691
	c-1.956-6.893-4.052-13.746-6.169-20.59c-0.985-6.107-1.806-12.24-2.485-18.389c-0.124-1.118-0.543-1.996-1.122-2.658
	c-0.003-3.193-0.066-6.372-0.318-9.502c-0.443-5.52-6.382-11.914-11.8-6.693c-4.314,4.158-4.574,9.771-4.876,15.423
	c-0.328,6.157-2.721,10.97-6.341,14.589c-1.849,0.847-3.709,1.661-5.62,2.332c-4.437,1.556-8.981,2.721-13.306,4.586
	c-0.878,0.379-1.512,0.967-1.941,1.666c-2.082,0.172-4.171,0.203-6.221,0.092c-8.083-0.438-17.602-2.137-25.019-5.396
	c-0.19-0.084-0.394-0.189-0.589-0.283c0.053-0.708-0.158-1.445-0.714-2.037c-0.884-0.94-1.994-1.627-3.082-2.304
	c-1.099-0.683-1.978-1.344-3.302-1.501c-0.062-0.007-0.118,0.009-0.18,0.007c-0.727-1.185-1.456-2.354-2.175-3.495
	c-0.63-0.999-1.355-1.781-2.136-2.389c-0.2-3.211-1.567-6.277-2.192-9.525c0.052-0.853-0.062-1.742-0.387-2.631
	c-1.116-3.05-3.853-3.771-6.006-2.893c-0.127-0.072-0.254-0.142-0.381-0.213c-1.701-0.951-3.473-1.77-5.154-2.762
	c-4.705-2.775-9.434,3.576-5.738,7.437c0.439,0.458,0.691,1.087,0.846,1.776c0.034,1.234,0.095,2.487,0.197,3.744
	c-0.003,0.147-0.007,0.299-0.008,0.434c-0.005,0.856-0.046,1.712-0.093,2.566c-0.413,0.494-0.72,1.131-0.833,1.963
	c-1.506,11.027-4.115,22.062-4.855,33.168c-0.004,0.064-0.001,0.125-0.003,0.188c-0.751,0.57-1.339,1.393-1.596,2.52
	c-3.451,15.148-7.361,30.25-11.097,45.336c-0.472,1.904-0.003,3.504,0.956,4.674c-1.454,6.076-3.025,12.17-2.634,18.283
	c0.042,0.652,0.188,1.236,0.408,1.756c-0.859,4.562-1.601,9.127-1.296,13.773c-0.805,4.898-0.985,9.705-1.036,14.971
	c-0.008,0.867,0.201,1.639,0.543,2.322c-0.699,1.018-1.423,2.025-2.19,3.025c-3.131,4.078,2.011,8.434,5.936,7.721
	c24.885-4.52,49.986-6.256,75.142-8.533c5.745-0.52,11.497-0.953,17.252-1.35c5.572-0.385,12.993,0.496,18.107-1.99
	c2.326-1.131,6.344-0.635,8.879-0.648c3.233-0.016,6.467-0.012,9.699-0.004c4.609,0.014,9.218,0.064,13.825,0.127
	c-0.187,1.57,0.109,3.043,1.298,4.23c1.117,1.117,3.126,1.842,4.679,1.238c0.932-0.363,1.591-0.598,2.312-1.32
	c0.628-0.627,1.133-1.482,1.381-2.33c0.229-0.783,0.272-1.613,0.376-2.422l-0.091,0.678
	C383.705,464.865,383.752,463.961,383.49,463.127z"/>
</svg>
