<?xml version="1.0" encoding="utf-8"?>
<!-- Generator: Adobe Illustrator 15.0.2, SVG Export Plug-In . SVG Version: 6.00 Build 0)  -->
<!DOCTYPE svg PUBLIC "-//W3C//DTD SVG 1.1//EN" "http://www.w3.org/Graphics/SVG/1.1/DTD/svg11.dtd">
<svg version="1.1" id="Layer_1" xmlns="http://www.w3.org/2000/svg" xmlns:xlink="http://www.w3.org/1999/xlink" x="0px" y="0px"
	 width="600px" height="600px" viewBox="0 0 600 600" enable-background="new 0 0 600 600" xml:space="preserve">
<path fill="#1A1A1A" d="M383.34,465.125c-27.6-0.998-55.169-0.076-82.732,1.443c-13.215,0.729-26.644,1.487-39.751,3.338
	c-12.703,1.793-27.857,3.424-38.799,10.608c-0.472,0.31-0.285,1.021,0.284,1.048c12.646,0.573,25.742-3.863,38.178-5.849
	c14.006-2.235,27.766-4.192,41.947-4.93c26.947-1.398,53.944,1.117,80.875,2.09C388.34,473.057,388.322,465.305,383.34,465.125z"/>
<path fill="#1A1A1A" d="M284.741,372.885c1.181-7.098,4.098-13.594,4.349-20.885c0.06-1.717-1.198-3.109-2.753-3.615
	c-6.393-2.084-10.714-5.281-13.212-11.576c-2.4-6.047-2.043-12.513-1.223-18.809c0.231-1.771-2.651-2.09-3.069-0.415
	c-1.86,7.472-4.191,15.478-2.146,23.13c1.843,6.898,8.324,11.254,14.701,13.824c-0.666,5.568-2.721,10.855-3.904,16.346
	c-1.52,7.049-2.076,14.457-2.999,21.609c-1.063,8.234-1.165,15.781-0.301,23.955c0.832,7.858,1.802,15.705,2.606,23.567
	c0.335,3.273,0.652,6.552,0.857,9.837c0.035,0.561-0.019,1.268-0.006,1.94c-17.785,1.896-35.848,4.644-52.883,10.096
	c-2.675,0.857-1.538,5.068,1.163,4.22c17.895-5.621,36.168-6.853,54.567-9.759c1.375-0.219,1.886-1.522,1.701-2.717
	c1.012-2.653,0.194-7.471,0.118-9.024c-0.418-8.439-1.078-16.867-1.57-25.304c-0.486-8.338-0.25-15.616,0.976-23.938
	C282.814,387.887,283.501,380.344,284.741,372.885z"/>
<path fill="#1A1A1A" d="M378.46,443.678c-8.356-2.787-17.731-2.248-26.37-1.489c-7.858,0.688-15.65,1.979-23.126,4.469
	c-1.354-2.474-1.129-6.498-1.391-9.238c-0.479-5-0.823-10.004-1.193-15.014c-0.886-12.011-1.884-24.008-2.396-36.041
	c-0.48-11.316-0.104-23.529-2.891-34.554c-0.057-0.223-0.148-0.412-0.258-0.584c5.949-3.438,10.879-6.627,13.252-13.643
	c2.561-7.564,0.136-16.139-1.935-23.498c-1.198-4.261-7.869-2.438-6.629,1.828c3.349,11.518,6.554,27.227-7.685,32.779
	c-1.587,0.617-1.549,2.281-0.744,3.154c-0.036,0.159-0.06,0.327-0.055,0.512c0.365,12.563-0.588,25.146-0.073,37.742
	c0.521,12.7,1.595,25.374,2.416,38.059c0.433,6.666-0.264,16.272,3.324,22.17c0.227,0.373,0.492,0.658,0.771,0.904
	c0.334,1.129,1.425,2.024,3.04,1.735c7.989-1.428,16.118-2.539,24.188-3.397c8.384-0.894,17.696-1.613,25.823,1.098
	C380.98,452.154,382.872,445.15,378.46,443.678z"/>
<path fill="#1A1A1A" d="M249.177,315.725c0.152-2.162,0.323-4.373-0.557-6.266c-0.496-1.066-1.892-1.203-2.822-0.738
	c-0.843,0.42-1.411,1.004-1.806,1.688c-0.168,0.146-0.322,0.318-0.434,0.551c-0.753,1.557-0.833,3.25-0.657,4.986
	c-0.339,3.861-0.381,7.803-0.454,11.671c-0.092,4.935,0.015,9.927-0.366,14.846c-0.361,4.655-3.012,10.2-0.362,14.485
	c0.652,1.055,2.045,1.211,2.945,0.379c3.039-2.812,2.62-7.084,2.552-10.979c-0.041-2.312,0.193-4.617,0.483-6.921
	c0.362-0.321,0.613-0.797,0.64-1.428c0.207-4.897,0.618-9.784,0.753-14.687C249.153,321.133,249.473,318.292,249.177,315.725z"/>
<path fill="#1A1A1A" d="M359.791,323.088c-0.049-0.293-0.106-0.582-0.156-0.875c-0.724-4.82-1.299-9.641-1.106-14.463
	c0.023-0.624-0.144-1.132-0.426-1.531c-0.005-0.406-0.015-0.812-0.013-1.219c0.014-3.551-5.616-3.541-5.5,0
	c0.018,0.518,0.06,1.029,0.085,1.545c-1.854,3.469,0.243,11.441,0.66,13.975c0.696,4.238,1.391,8.52,2.171,12.781
	c0.046,1.69,0.118,3.336,0.688,5.016c0.073,0.218,0.217,0.394,0.386,0.533c0.406,1.965,0.838,3.92,1.309,5.857
	c0.704,2.898,5.521,2.332,5.268-0.713C362.571,336.994,360.944,330.01,359.791,323.088z"/>
<path fill="#1A1A1A" d="M243.489,358.852c-2.633-2.449-6.355-3.043-9.638-4.309c-3.844-1.482-7.56-3.309-11.363-4.893
	c-2.546-1.062-4.379,3.313-1.878,4.455c3.756,1.713,7.432,3.592,11.204,5.27c3.422,1.523,7.204,3.43,10.958,2.193
	C243.884,361.201,244.427,359.725,243.489,358.852z"/>
<path fill="#1A1A1A" d="M382.84,343.25c-3.029-0.244-5.729,2.029-8.318,3.408c-3.778,2.01-7.768,3.645-11.847,4.932
	c-3.06,0.965-1.786,5.709,1.33,4.822c3.709-1.059,7.269-2.453,10.798-3.996c3.294-1.441,8.017-2.629,9.979-5.779
	C385.749,345.086,384.459,343.381,382.84,343.25z"/>
<path fill="#1A1A1A" d="M311.695,317.955c-2.683,5.502-4.89,11.189-7.045,16.914c-1.743,4.629-3.795,9.105-5.741,13.631
	c-7.254-8.389-11.136-20.4-14.399-30.598c-0.882-2.754-5.24-1.568-4.339,1.195c4.096,12.575,9.404,25.092,17.242,35.819
	c1.273,1.744,3.601,1.856,4.854,0c6.81-10.082,9.408-22.981,14.718-33.871C318.708,317.512,313.427,314.404,311.695,317.955z"/>
</svg>
