<?xml version="1.0" encoding="utf-8"?>
<!-- Generator: Adobe Illustrator 15.0.2, SVG Export Plug-In . SVG Version: 6.00 Build 0)  -->
<!DOCTYPE svg PUBLIC "-//W3C//DTD SVG 1.1//EN" "http://www.w3.org/Graphics/SVG/1.1/DTD/svg11.dtd">
<svg version="1.1" id="Layer_1" xmlns="http://www.w3.org/2000/svg" xmlns:xlink="http://www.w3.org/1999/xlink" x="0px" y="0px"
	 width="600px" height="600px" viewBox="0 0 600 600" enable-background="new 0 0 600 600" xml:space="preserve">
<path fill="#808080" d="M384.214,461.52c0.03-0.008,0.061-0.018,0.089-0.024c-0.524-1.418-1.158-2.775-1.82-4.107
	c-1.764-4.09-3.185-8.34-4.399-12.67c1.132-4.533,0.657-10.321,0.548-13.375c-0.319-8.928-1.636-17.86-3.119-26.66
	c-1.146-6.805-3.956-13.647-6.504-20.251c0.016-0.541-0.011-1.089-0.092-1.64c-0.554-3.787-2.327-7.194-3.626-10.767
	c-1.526-4.196-2.723-8.561-3.825-12.885c-1.332-5.229-1.89-10.604-2.609-15.938c1.789,0.479,3.771,0.368,5.361-0.425
	c3.812-1.901,7.996-2.887,11.794-4.854c2.777-1.438,4.256-5.959,2.254-8.594c-5.687-7.48-4.557-17.268-7.135-25.926
	c-0.96-3.227-4.147-4.95-7.385-4.193c-6.06,1.417-10.6,4.867-14.187,9.294c-3.128,0.373-4.858,2.974-5.263,5.994
	c-0.03,0.229-0.083,0.44-0.12,0.664c-1.473,0.541-2.762,1.762-3.438,3.792c-0.633,1.895-0.979,3.779-1.072,5.699
	c-3.238,3.927-7.617,7.076-11.569,10.601c-1.014,0.904-1.538,1.995-1.694,3.125c-6.062,0.847-12.225,5.073-17.617,7.308
	c-7.305,3.022-14.816,2.94-22.25,0.442c-11.883-3.993-19.105-14.625-26.003-24.667c0.021-0.716-0.034-1.425-0.233-2.21
	c-0.304-1.2-1.075-2.524-1.149-3.754c-0.082-1.347-1.681-1.722-2.437-0.659c-0.146,0.206-0.269,0.415-0.391,0.624
	c-0.05-0.067-0.099-0.137-0.148-0.204c-0.482-0.656-1.059-1.113-1.676-1.427c-2.231-3.479-8.395-3.206-12.156-3.103
	c-0.584,0.017-1.15,0.131-1.686,0.324c-0.289-0.203-0.575-0.408-0.858-0.613c-4.555-3.285-9.499,2.103-8.603,6.613
	c0.006,0.029,0.01,0.06,0.016,0.088c-1.017,0.789-1.845,1.821-2.286,3.088c-1.375,3.942-2.123,8.088-1.829,12.269
	c0.005,0.076,0.019,0.146,0.026,0.222c-2.887,0.664-4.659,3.627-3.079,6.5c2.066,3.758,6.741,5.062,10.649,5.973
	c2.266,0.527,4.822,0.91,7.228,0.717c-0.001,11.16-1.714,22.5-1.192,33.59c0.051,1.094,0.328,2.07,0.76,2.928
	c-4.13,8.861-6.095,19.146-7.123,28.795c-0.125,0.394-0.238,0.789-0.354,1.185c-0.325,0.406-0.583,0.895-0.748,1.471
	c-3.222,11.312-5.787,23.865-5.097,35.623c-0.448,2.49-1.648,5.842-2,8.334c-0.388,2.082-0.045,3.249-0.333,5.333
	c-0.456,0.494,0.414,0.536,0.496,1.333c-0.032,0.672,0.016,1.34,0.143,2c0.013,0.096,0.039,0.18,0.057,0.271
	c0.057,0.743,0.111,1.485,0.17,2.229c0.008,0.105,0.036,0.189,0.052,0.287c-1.676,1.969-2.402,4.295-1.566,7.084
	c0.607,2.027,3.56,3.34,5.224,1.711c1.597,1.687,4.13,2.438,6.867,0.938c17.557-7.187,38.763-7.993,56.891-9.187
	c7.692-0.508,11.898-2.901,19.589-3.427c1.839,0.358,3.667,0.563,5.301,0.699c6.853,0.565,13.8,0.705,20.627-0.158
	c5.235-0.662,10.4-1.623,15.664-2.06c5.993,2.896,12.329,3.656,19.011,3.101c0.483-0.039,0.936-0.129,1.356-0.254
	C379.636,470.428,385.386,466.555,384.214,461.52z"/>
</svg>
