<?xml version="1.0" encoding="utf-8"?>
<!-- Generator: Adobe Illustrator 15.0.2, SVG Export Plug-In . SVG Version: 6.00 Build 0)  -->
<!DOCTYPE svg PUBLIC "-//W3C//DTD SVG 1.1//EN" "http://www.w3.org/Graphics/SVG/1.1/DTD/svg11.dtd">
<svg version="1.1" id="Layer_1" xmlns="http://www.w3.org/2000/svg" xmlns:xlink="http://www.w3.org/1999/xlink" x="0px" y="0px"
	 width="600px" height="600px" viewBox="0 0 600 600" enable-background="new 0 0 600 600" xml:space="preserve">
<path fill="#808080" d="M382.632,457.322c-0.164-0.25-0.313-0.502-0.469-0.752c1.394-1.848,1.932-4.223,0.854-6.824
	c-0.919-2.221-1.898-4.43-2.894-6.637c-0.085-6.662-1.612-14.125-4.146-20.684c-0.168-0.643-0.326-1.287-0.522-1.924
	c-0.216-0.701-0.572-1.234-1-1.648c-0.443-0.941-0.91-1.854-1.396-2.73c-0.009-0.084-0.021-0.168-0.026-0.252
	c-0.188-1.908-0.424-3.816-0.676-5.723c0.022-4.271-0.899-9.076-1.878-13.08c-1.51-10.771-4.306-21.627-7.834-31.941
	c-0.007-0.162-0.016-0.322-0.021-0.484c-0.11-2.99-0.057-6.037,0.024-9.104c1.312-0.105,2.607-0.719,3.696-2.029
	c2.969-3.574,9.188-5.455,13.116-8.02c3.418-2.229,3.299-7.424-0.323-9.152c0.239-3.994-1.795-8.771-2.769-12.304
	c-1.119-4.062-2.996-8.304-5.523-11.847c-0.478-3.338-1.163-6.625-2.622-9.459c-1.522-2.958-4.769-2.733-6.729-0.979
	c-3.157-0.936-5.496-0.249-9.371,3.251c-0.093,0.308-0.125-0.625-1.5,1.25c-2.75,2-6.454,3.129-7.875,4.375
	c-5.375,2.125-6.232,1.653-11.792,3.979c-0.356,0.147-8.891,0.838-9.208,1.021c-6.522-1.062-4.305-0.062-7.124,6.999
	c-1.737,4.352-3.443,10.043-4.875,14.5c-0.668,2.08-1.372,2.769-2.25,4.625c-0.052,0.072-0.2,2.299-0.25,2.375
	c-2.021,3.104-3.337,4.751-4.629,8.468c-1.176,0.004-2.438,0.39-3.597,0.423c-0.12,0.004-0.241,0-0.361,0.002
	c-3.539-8.141-7.337-16.72-12.306-24.199c-1.9-4.049-3.987-8.086-7.146-11.186c-0.952-0.934-1.985-1.279-2.954-1.23
	c-1.699-0.729-3.564-1.146-5.416-1.562c-6.125-1.379-12.588-1.376-18.768-2.531c-1.669-0.574-3.422-0.968-5.29-1.354
	c-0.424-0.146-0.832-0.244-1.23-0.318c-1.502-2.104-3.479-3.834-6.12-4.913c-2.628-1.074-5.321,0.764-6.777,2.758
	c-2.897,3.969-2.465,8.274-1.534,12.61c-1.426,6.25-2.699,12.541-4.019,18.813c-0.652,0.752-1.059,1.779-1.022,3.104
	c-0.135,1.076-0.246,2.141-0.32,3.213c-1.348,1.355-2.045,3.482-1.049,5.408c1.623,3.139,5.153,5.229,9.055,6.729
	c2.236,2.75,6.031,4.023,9.249,3.277c-0.028,0.24-0.056,0.48-0.085,0.719c-1.596,8.604-3.799,17.104-4.156,25.898
	c-1.291,4.893-2.709,9.742-3.599,14.699c-1.566,8.719-3.367,17.395-4.897,26.119c-1.636,9.324-2.3,18.803-3.633,28.164
	c-1.612,2.307-2.036,5.408-1.37,8.113c-0.547,2.729-1.193,5.439-1.982,8.129c-1.797,6.131,7.927,10.514,10.509,4.432
	c0.147-0.35,0.275-0.699,0.416-1.047c4.439-1.193,9.32-0.826,13.786-2.312c0.808-0.268,1.502-0.676,2.085-1.18
	c14.479-1.438,28.886-3.402,43.399-4.727c1.829-0.166,3.656-0.324,5.482-0.486c8.479-0.037,17.03-1.197,25.701-1.379
	c8.201-0.176,16.354,1.209,24.54,1.49c9.041,0.312,18.083-0.012,27.125,0.021C381.661,468.307,385.694,462.01,382.632,457.322z"/>
</svg>
