<?xml version="1.0" encoding="utf-8"?>
<!-- Generator: Adobe Illustrator 15.0.2, SVG Export Plug-In . SVG Version: 6.00 Build 0)  -->
<!DOCTYPE svg PUBLIC "-//W3C//DTD SVG 1.1//EN" "http://www.w3.org/Graphics/SVG/1.1/DTD/svg11.dtd">
<svg version="1.1" id="Layer_1" xmlns="http://www.w3.org/2000/svg" xmlns:xlink="http://www.w3.org/1999/xlink" x="0px" y="0px"
	 width="600px" height="600px" viewBox="0 0 600 600" enable-background="new 0 0 600 600" xml:space="preserve">
<path fill="#808080" d="M425.04,423.418c0.497-1.344,0.608-2.832,0.208-4.322c-3.169-11.791-8.132-26.104-18.135-33.869
	c-1.451-1.125-3.062-1.875-4.729-1.943c-3.366-7.529-7.078-14.951-10.467-22.312c-2.473-5.371-5.018-10.687-7.67-15.941
	c-0.947-3.598-1.847-7.209-2.783-10.807c-3.009-11.559-6.507-23.658-13.513-33.502c-3.296-4.63-9.989-4.021-11.882,1.553
	c-0.364,1.074-0.653,2.141-0.896,3.201c-4.888,1.625-9.812,3.144-14.687,4.812c-2.293,0.783-3.75,2.329-4.446,4.104
	c-4.155,0.512-8.315,1.648-11.744,3.16c-0.114,0.051-0.217,0.114-0.329,0.168c-1.709-1.785-5.392-1.607-6.004,1.352
	c-0.35,1.691-0.63,3.391-0.867,5.092c-2.506,4.051-3.898,9.021-5.102,13.365c-0.514,1.856-0.087,3.467,0.844,4.662
	c-0.006,0.006-0.011,0.012-0.016,0.018c-2.726,2.635-5.646,5.025-8.75,7.176c-0.229-0.164-0.459-0.324-0.684-0.482
	c-0.752-1.268-1.765-2.449-2.917-3.459c-0.231-0.354-0.477-0.693-0.744-1.023c-0.985-1.209-1.79-2.463-2.928-3.541
	c-0.133-0.127-0.27-0.225-0.407-0.311c0.646-6.373,0.047-13.437,0.519-17.562c0.369-3.227-2.83-5.309-5.575-5.574
	c-13.773-1.336-27.173-4.207-41-5.205c-1.022-0.074-1.926,0.061-2.713,0.348c-2.3-1.225-4.541-2.562-6.728-3.944
	c-3.566-2.253-7.221,0.8-7.63,4.378c-0.475,4.146-0.66,8.309-0.623,12.473c-0.155,0.504-0.229,1.021-0.228,1.561
	c-0.079,0.123-0.169,0.24-0.238,0.369c-0.824,1.529-1.614,3.078-2.382,4.639c-0.463-0.406-0.992-0.719-1.643-0.715
	c-1.35,0.01-2.076,1.229-1.853,2.453c0.122,0.664,0.555,1.316,0.902,1.886c0.151,0.247,0.376,0.409,0.627,0.507
	c-4.096,8.934-7.476,18.238-10.881,27.514c-0.802,0.482-1.499,1.193-2.009,2.162c-1.266,2.408-2.431,4.869-3.521,7.363
	c-2.87,5.041-6.409,9.74-9.292,14.746c-1.24,2.154-1.125,4.15-0.249,5.695c-1.935,3.979-4.223,7.768-5.716,11.959
	c-0.271,0.762-0.297,1.461-0.145,2.078c-0.363,0.654-0.718,1.329-1.03,2.014c-2.595,3.592-5.442,7.045-8.645,10.305
	c-2.071,2.109-2.554,5.447-1.396,8.057c-2.226,1.609-2.913,4.984-1.716,7.609c0.001,0.004,0.001,0.008,0.002,0.013
	c1.1,3.985,3.914,5.362,6.991,7.644c1.806,1.338,3.719,1.328,5.332,0.543c5.041,3.131,9.748,6.879,15.941,7.805
	c5.221,0.781,9.776-2.953,8.513-8.514c-0.943-4.152-0.687-8.504,0.145-12.805c0.817-0.369,1.571-1.002,2.164-1.961
	c2.979-4.816,5.587-10.236,7.74-15.898c-2.714,18.61-4.854,37.333-4.079,56.137c-0.724,1.675-0.877,3.581-0.493,5.35
	c-0.333,0.528-0.609,1.076-0.864,1.737c-0.124,0.322-0.202,0.642-0.256,0.958c0.709-0.037,0.805,1.996,1.511,1.938
	c1.249,2.062,4.057,1.421,7.123,1.318c5.498-0.185,9.798-1.852,14.482-4.607c3.139-1.848,6.649-3.056,10.2-4.126
	c1.146-0.282,2.296-0.548,3.452-0.788c12.432-2.58,25.758-2.51,38.401-3.51c2.703-0.213,5.4-0.471,8.098-0.736
	c0.374,0.828,1.022,1.539,1.874,1.848c1.67,0.605,3.303,1.048,5.048,1.373c2.063,0.389,4.354,0.998,6.449,0.857
	c2.828-0.189,3.979-2.332,3.713-4.314c4.62,0.412,9.245,0.98,13.834,1.281c4.549,0.297,10.174,0.859,15.098-0.143
	c3.144,5.469,10.943,4.342,13.618-0.957c1.693,0.57,3.545,0.57,5.271,0.059c1.805,0.279,3.604,0.572,5.401,0.896
	c4.633,0.835,7.372-3.881,6.386-7.185c0.555-3.173-1.114-6.196-3.82-8.238c0.467,0.357,0.662,0.485,0.589,0.384
	c0.387,0.366-0.475-0.673-0.646-0.973c-0.506-0.885-0.902-1.837-1.303-2.774c-0.639-10.856-3.578-21.443-6.22-32.06
	c0.105-0.375,0.17-0.771,0.144-1.217c-0.271-4.229-0.404-8.44-0.539-12.646c3.722,9.133,1.472,4.508,6.347,11.883
	c0.626,0.812,8.29,15.041,9.051,15.578c0.415,1.014,0.856,2.045,1.31,3.143c1.388,3.373,5.008,6.76,9.058,5.146
	c0.243-0.1,0.488-0.195,0.731-0.291c0.147,0.602,0.461,1.168,0.88,1.584c0.197,0.195,0.426,0.366,0.664,0.514
	c0.944,0.576,1.988,0.549,2.918,0.146c2.181-0.545,2.95-3.14,3.646-5.007c0.069-0.186,0.101-0.375,0.13-0.562
	c3.893-1.623,7.74-3.357,11.411-5.385c0.108,0.127,0.215,0.258,0.333,0.381c1.15,1.203,2.736,1.484,4.327,1.518
	c2.181,0.043,4-1.852,4-4C427.34,425.404,426.386,424.062,425.04,423.418z"/>
</svg>
