<?xml version="1.0" encoding="utf-8"?>
<!-- Generator: Adobe Illustrator 15.0.2, SVG Export Plug-In . SVG Version: 6.00 Build 0)  -->
<!DOCTYPE svg PUBLIC "-//W3C//DTD SVG 1.1//EN" "http://www.w3.org/Graphics/SVG/1.1/DTD/svg11.dtd">
<svg version="1.1" id="Layer_1" xmlns="http://www.w3.org/2000/svg" xmlns:xlink="http://www.w3.org/1999/xlink" x="0px" y="0px"
	 width="600px" height="600px" viewBox="0 0 600 600" enable-background="new 0 0 600 600" xml:space="preserve">
<path fill="#1A1A1A" d="M383.34,465.125c-27.6-0.998-55.169-0.076-82.732,1.443c-13.216,0.729-26.644,1.488-39.752,3.338
	c-12.703,1.793-27.857,3.424-38.799,10.609c-0.472,0.309-0.285,1.021,0.284,1.047c12.646,0.574,25.742-3.863,38.178-5.848
	c14.006-2.236,27.766-4.193,41.947-4.93c26.947-1.398,53.944,1.117,80.875,2.09C388.34,473.057,388.322,465.305,383.34,465.125z"/>
<path fill="#1A1A1A" d="M247.391,344.303c-2.02-2.976-5.388-2.43-8.662-2.596c-4.071-0.207-8.396-0.74-12.423-1.395
	c-1.942-0.314-3.057,2.046-1.349,3.199c3.709,2.504,7.154,3.896,11.541,4.736c3.713,0.711,8.4,1.947,10.894-1.549
	C247.848,346.059,247.827,344.945,247.391,344.303z"/>
<path fill="#1A1A1A" d="M376.775,333.451c-2.569,1.012-4.633,2.807-7.314,3.742c-3.085,1.076-6.382,1.604-9.621,1.932
	c-3.012,0.307-3.057,5.039,0,4.75c3.698-0.35,7.346-0.941,10.903-2.031c2.892-0.887,7.03-2.391,8.432-5.271
	C379.897,335.088,378.681,332.701,376.775,333.451z"/>
<path fill="#1A1A1A" d="M341.249,310.286c-4.305,18.076-23.061,34.3-41.669,35.462c-17.568,1.096-32.018-18.902-38.027-33.041
	c-1.132-2.662-5.722-0.729-4.684,1.975c7.395,19.254,20.283,36.225,42.711,35.701c20.677-0.482,41.954-18.881,46.852-38.668
	C347.265,308.348,342.051,306.918,341.249,310.286z"/>
</svg>
