<?xml version="1.0" encoding="utf-8"?>
<!-- Generator: Adobe Illustrator 15.0.2, SVG Export Plug-In . SVG Version: 6.00 Build 0)  -->
<!DOCTYPE svg PUBLIC "-//W3C//DTD SVG 1.1//EN" "http://www.w3.org/Graphics/SVG/1.1/DTD/svg11.dtd">
<svg version="1.1" id="Layer_1" xmlns="http://www.w3.org/2000/svg" xmlns:xlink="http://www.w3.org/1999/xlink" x="0px" y="0px"
	 width="600px" height="600px" viewBox="0 0 600 600" enable-background="new 0 0 600 600" xml:space="preserve">
<path fill="#1A1A1A" d="M249.177,315.725c0.152-2.162,0.323-4.373-0.557-6.266c-0.496-1.066-1.892-1.203-2.822-0.739
	c-0.843,0.421-1.411,1.005-1.806,1.688c-0.168,0.146-0.322,0.318-0.434,0.551c-0.753,1.557-0.833,3.25-0.657,4.986
	c-0.339,3.862-0.381,7.803-0.454,11.671c-0.092,4.935,0.015,9.927-0.366,14.846c-0.361,4.655-3.012,10.2-0.362,14.485
	c0.652,1.055,2.045,1.211,2.945,0.379c3.039-2.812,2.62-7.084,2.552-10.979c-0.041-2.312,0.193-4.617,0.483-6.92
	c0.362-0.322,0.613-0.797,0.64-1.428c0.207-4.898,0.618-9.784,0.753-14.686C249.153,321.133,249.473,318.292,249.177,315.725z"/>
<path fill="#1A1A1A" d="M359.791,323.088c-0.049-0.293-0.106-0.582-0.156-0.875c-0.724-4.82-1.299-9.641-1.107-14.463
	c0.024-0.624-0.143-1.132-0.425-1.531c-0.005-0.406-0.015-0.812-0.013-1.219c0.014-3.551-5.616-3.541-5.5,0
	c0.017,0.517,0.059,1.029,0.085,1.545c-1.855,3.469,0.243,11.442,0.66,13.975c0.696,4.238,1.391,8.519,2.171,12.781
	c0.046,1.69,0.118,3.336,0.688,5.016c0.074,0.217,0.217,0.393,0.386,0.533c0.406,1.965,0.838,3.92,1.309,5.857
	c0.704,2.898,5.521,2.332,5.267-0.713C362.571,336.994,360.944,330.01,359.791,323.088z"/>
<path fill="#1A1A1A" d="M344.277,309c-0.647-4.857-7.993-5.23-7.875,0c0.205,9.029-1.189,16.916-7.606,23.66
	c-5.748,6.04-13.839,9.251-21.945,10.506c-19.066,2.951-36.43-7.393-40.221-26.797c-0.588-3.012-5.136-1.725-4.58,1.263
	c3.917,21.071,23.838,33.925,44.79,31.95C327.104,347.674,347.215,331.039,344.277,309z"/>
<path fill="#1A1A1A" d="M383.34,465.125c-27.6-0.998-55.169-0.076-82.732,1.443c-13.216,0.729-26.644,1.488-39.752,3.338
	c-12.703,1.793-27.857,3.424-38.799,10.609c-0.472,0.309-0.285,1.021,0.284,1.047c12.646,0.574,25.742-3.863,38.178-5.848
	c14.006-2.236,27.766-4.193,41.947-4.93c26.947-1.398,53.944,1.117,80.875,2.09C388.34,473.057,388.322,465.305,383.34,465.125z"/>
</svg>
