<?xml version="1.0" encoding="utf-8"?>
<!-- Generator: Adobe Illustrator 15.0.2, SVG Export Plug-In . SVG Version: 6.00 Build 0)  -->
<!DOCTYPE svg PUBLIC "-//W3C//DTD SVG 1.1//EN" "http://www.w3.org/Graphics/SVG/1.1/DTD/svg11.dtd">
<svg version="1.1" id="Layer_1" xmlns="http://www.w3.org/2000/svg" xmlns:xlink="http://www.w3.org/1999/xlink" x="0px" y="0px"
	 width="600px" height="600px" viewBox="0 0 600 600" enable-background="new 0 0 600 600" xml:space="preserve">
<path opacity="0.75" fill="#1A1A1A" enable-background="new    " d="M380.666,439c-1.588-12.568-3.653-25.121-6.02-37.568
	c-2.431-12.787-5.257-26.231-11.288-37.865c-0.544-1.049-1.229-1.791-1.989-2.274c-0.492-3.226-0.991-6.449-1.487-9.674
	c-1.99-12.95-1.543-26.207-4.479-39.013c-0.689-3.006-3.735-4.106-6.457-3.666c-6.27,1.017-17.9,1.61-19.73,9.604
	c-0.938,4.094-0.316,8.704-0.432,12.87c-0.068,2.524,0.461,5.144,0.518,7.685c0.041,1.81-0.063,3.613-0.167,5.42
	c-2.774,2.174-5.791,3.86-8.859,5.592c-2.412,1.359-3.21,4.598-1.825,6.961c0.146,0.248,0.313,0.457,0.482,0.666
	c0.628,1.281,1.828,2.246,3.598,2.334c-0.748,0.992-1.163,2.254-0.929,3.602c0.265,1.51,0.488,2.992,0.616,4.475
	c-0.024,0.556-0.05,1.109-0.072,1.664c-0.323,0.621-0.521,1.345-0.503,2.191c0.263,11.611,1.669,22.857,3.132,34.375
	c0.744,5.875,1.3,11.752,1.334,17.676c0.031,5.4-0.828,10.57-1.17,15.869c-0.904,2.75,0.154,6.353,3.475,7.267
	c0.155,0.043,0.311,0.086,0.465,0.129c1.774,0.487,3.523,0.03,4.867-1.041c12.15-4.097,24.747-2.498,37.284-4.164
	c0.186,0.217,0.353,0.448,0.548,0.655C374.448,446.055,381.249,443.619,380.666,439z"/>
<path opacity="0.75" fill="#1A1A1A" enable-background="new    " d="M282.775,356.775c0.743-4.58-1.814-7.965-6.436-8.449
	c-4.867-0.51-5.414-1.637-6.27-6.393c-0.788-4.388-0.643-8.996-0.778-13.435c-0.04-1.291-0.452-2.415-1.103-3.347
	c1.08-0.866,1.802-2.112,1.65-3.653c-0.091-0.931-0.209-1.856-0.359-2.778c-0.334-2.052-2.679-3.574-4.641-3.533
	c-1.6,0.033-4.018-1.701-5.633-2.197c-2.306-0.707-4.852-0.338-6.863,0.896c-2.12-0.507-4.457,0.424-5.085,2.891
	c-0.007,0.031-0.015,0.062-0.023,0.093c-0.352,1.383-0.023,2.685,0.779,3.713c-0.271,1.158-0.471,2.368-0.72,3.608
	c-4.813,8.037-3.797,18.752-2.371,27.716c0.097,0.61,0.266,1.155,0.481,1.651c-0.474,3-0.982,5.992-1.45,8.972
	c-0.906,5.774-1.658,11.577-2.042,17.413c-4.051,4.812-6.446,10.343-8.295,16.65c-1.051,3.584-1.776,7.156-2.367,10.84
	c-0.725,4.517-2.341,9.128-0.884,13.628c0.142,0.438,0.325,0.846,0.525,1.237c-0.512,2.597-0.999,5.199-1.509,7.799
	c-1.662,8.472-4.405,16.431-3.761,24.994c-0.396,0.938-0.735,1.886-0.502,1.525c-1.874,2.881,1.191,6.188,4.212,5.479
	c5.596-1.311,11.009-3.258,16.455-5.084c0.465,0.201,0.979,0.354,1.554,0.425c4.296,0.534,8.472,0.35,12.777-0.048
	c4.132-0.381,8.98-0.7,12.499-3.141c0.28-0.195,0.527-0.404,0.758-0.619c1.761,0.74,3.829,0.588,5.223-0.873
	c2.586-2.711,1.643-5.194,0.646-8.481c-0.287-0.945-0.581-1.89-0.876-2.832c0.038-0.088,0.086-0.16,0.121-0.248
	c2.65-6.621,1.521-15.185,0.419-22.051c-1.142-7.117-2.929-14.14-4.529-21.164c0.298-1.474,0.603-2.941,0.905-4.408
	C277.81,381.318,280.771,369.129,282.775,356.775z"/>
</svg>
