<?xml version="1.0" encoding="utf-8"?>
<!-- Generator: Adobe Illustrator 15.0.2, SVG Export Plug-In . SVG Version: 6.00 Build 0)  -->
<!DOCTYPE svg PUBLIC "-//W3C//DTD SVG 1.1//EN" "http://www.w3.org/Graphics/SVG/1.1/DTD/svg11.dtd">
<svg version="1.1" id="Layer_1" xmlns="http://www.w3.org/2000/svg" xmlns:xlink="http://www.w3.org/1999/xlink" x="0px" y="0px"
	 width="600px" height="600px" viewBox="0 0 600 600" enable-background="new 0 0 600 600" xml:space="preserve">
<path fill="#1A1A1A" d="M209.739,449.555c-4.671-1.42-9.197-2.52-13.455-5.025c-4.177-2.457-7.706-5.977-10.867-9.605
	c-2.488-2.855-6.666,1.328-4.154,4.154c6.542,7.359,18.219,17.752,28.834,13.217C211.37,451.752,210.855,449.893,209.739,449.555z"
	/>
<path fill="#1A1A1A" d="M424.958,422.615c-4.14,0.602-7.622,5.176-11.158,7.398c-4.292,2.695-9.148,4.629-13.958,6.18
	c-2.344,0.754-1.354,3.998,0.996,3.615c5.575-0.906,10.468-2.908,15.356-5.699c3.576-2.043,9.769-5.381,10.531-9.727
	C426.929,423.227,426.086,422.449,424.958,422.615z"/>
<path fill="#1A1A1A" d="M318.786,317.602c-0.238-1.086-1.764-1.471-2.507-0.662c-2.743,2.988-3.512,7.664-5.121,11.359
	c-1.268,2.912-2.584,5.791-3.797,8.721c-6.741-6.34-11.096-14.828-17.607-21.434c-1.816-1.843-4.589,0.951-2.828,2.828
	c6.613,7.049,10.827,16.071,17.905,22.676c-0.099,0.273-0.169,0.57-0.179,0.91c-0.123,4.314-0.246,8.629-0.368,12.943
	c-0.112,3.943,6.225,3.943,6.112,0c-0.117-4.123-0.235-8.246-0.353-12.369c0.238-0.257,0.448-0.562,0.599-0.939
	c1.767-4.404,3.708-8.736,5.546-13.111C317.646,325.051,319.618,321.387,318.786,317.602z"/>
<path fill="#1A1A1A" d="M383.34,465.125c-27.6-0.998-55.169-0.076-82.732,1.443c-13.216,0.729-26.644,1.488-39.752,3.338
	c-12.703,1.793-27.857,3.424-38.799,10.609c-0.472,0.309-0.285,1.021,0.284,1.047c12.646,0.574,25.742-3.863,38.178-5.848
	c14.006-2.236,27.766-4.193,41.947-4.93c26.947-1.398,53.944,1.117,80.875,2.09C388.34,473.057,388.322,465.305,383.34,465.125z"/>
</svg>
