<?xml version="1.0" encoding="utf-8"?>
<!-- Generator: Adobe Illustrator 15.0.2, SVG Export Plug-In . SVG Version: 6.00 Build 0)  -->
<!DOCTYPE svg PUBLIC "-//W3C//DTD SVG 1.1//EN" "http://www.w3.org/Graphics/SVG/1.1/DTD/svg11.dtd">
<svg version="1.1" id="Layer_1" xmlns="http://www.w3.org/2000/svg" xmlns:xlink="http://www.w3.org/1999/xlink" x="0px" y="0px"
	 width="600px" height="600px" viewBox="0 0 600 600" enable-background="new 0 0 600 600" xml:space="preserve">
<path fill="#808080" d="M423.327,420.625c-3.116-10.477-8.493-19.711-14.48-28.635c-3.349-6.086-7.075-12.072-10.836-18.068
	c-0.075-0.287-0.18-0.58-0.325-0.877c-3.757-7.654-7.983-15.148-12.393-22.553c-4.304-9.607-7.924-19.549-11.807-29.359
	c-0.436-1.1-1.195-1.76-2.039-2.064c-0.582-4.291-0.813-8.643-0.569-13.067c0.195-3.545-3.692-6.367-7.011-5.34
	c-7.025,2.175-13.309,6.19-19.927,9.308c-3.592,1.691-7.434,2.739-11.399,2.874c-4.162,0.142-6.632-1.196-10.576,0.72
	c-9.034,4.388-11.973,16.599-13.293,26.637c-1.426,0.182-1.809,0.28-3.297,0.426c-0.042,0.004-0.583,0.121-0.625,0.125
	c-5.925-6.358-11.056-13.397-13.625-21.5c-0.933-2.939-3.79-4.473-6.785-4.723c-13.16-1.1-28.68-1.146-40.749-7.088
	c-3.982-1.959-7.917-0.203-9.463,3.852c-7.304,19.148-9.798,39.516-19.492,57.771c-9.205,17.332-19.707,33.821-27.523,51.887
	c-0.404,0.932-0.581,1.846-0.583,2.717c-1.861,0.887-3.173,2.969-2.852,5.129c-0.87,1.342-0.988,3.053,0.315,4.75
	c0.264,0.344,0.537,0.67,0.808,1l-0.021,0.021c0.033,0.026,0.068,0.053,0.102,0.079c2.887,3.5,6.163,6.285,9.746,9.064
	c0.001,0.002,0.002,0.004,0.004,0.004c0.224,0.197,0.45,0.367,0.677,0.523c0.129,0.1,0.255,0.196,0.385,0.297
	c0.007-0.013,0.013-0.021,0.02-0.033l0.023,0.012c3.832,2.793,9.943,5.726,14.763,6.363c3.059,0.403,3.719-3.265,4.063-5.843
	c0.709-0.535,1.401-1.146,2.011-1.818c2.597-0.111,5.06-1.998,5.109-5.209c0.036-2.32,0.065-4.69-0.032-7.055
	c5.121-7.816,8.726-17.209,12.526-25.334c0.162-0.347,0.327-0.697,0.49-1.047c-1.696,6.149-2.693,12.414-3.412,18.727
	c-0.741,4.988-1.401,9.996-2.158,14.988c-0.201,1.321-0.038,2.522,0.375,3.574c-0.483,3.188-0.912,6.387-1.296,9.592
	c-1.238,6.287-2.236,12.615-2.902,18.981c-0.634,0.941-0.993,2.101-1.047,3.572c-0.151,4.078,4.401,6.102,7.695,4.416
	c9.611-4.918,20.39-2.732,30.828-4.545c0.518-0.039,1.607-0.709,2.125-0.75c3.125-0.5,1.108-0.629,3.466-0.418
	c8.437,0.754,17.328-0.766,25.646-2.049c6.315-0.974,12.593-2.267,18.685-4.166c22.237,0.541,44.416,2.711,66.669,2.824
	c5.854,0.03,7.498-6.509,4.937-10.187c0.543-1.883,0.424-3.938-0.54-5.775c-2.924-7.618-5.567-15.297-7.97-23.062
	c1.301-5.902-1.315-13.348-2.557-18.764c-0.223-0.972-0.464-1.937-0.691-2.906c1.062-8.963,2.036-27.475-6.809-31.725
	c-0.382-2.396-0.777-4.791-1.204-7.185c-1.34-7.502-2.755-15.01-4.661-22.392c0.644-0.934,1.223-1.891,1.762-2.872
	c6.589,29.696,13.371,59.401,32.036,84.299c0.274,0.367,0.584,0.682,0.917,0.961c-0.796,2.893,1.025,6.049,4.78,6.402
	c6.499,0.608,13.118-1.29,15.784-5.737c2.223-0.877,3.738-2.784,5.827-3.905C422.951,425.393,423.968,422.781,423.327,420.625z"/>
</svg>
