<?xml version="1.0" encoding="utf-8"?>
<!-- Generator: Adobe Illustrator 15.0.2, SVG Export Plug-In . SVG Version: 6.00 Build 0)  -->
<!DOCTYPE svg PUBLIC "-//W3C//DTD SVG 1.1//EN" "http://www.w3.org/Graphics/SVG/1.1/DTD/svg11.dtd">
<svg version="1.1" id="Layer_1" xmlns="http://www.w3.org/2000/svg" xmlns:xlink="http://www.w3.org/1999/xlink" x="0px" y="0px"
	 width="600px" height="600px" viewBox="0 0 600 600" enable-background="new 0 0 600 600" xml:space="preserve">
<path fill="#1A1A1A" d="M235.309,385.699c-3.042-3.596-8.543-4.711-12.606-6.883c-1.435-0.768-2.893-1.488-4.343-2.225
	c-0.464-0.232-0.927-0.475-1.39-0.711c-0.185-0.24-0.433-0.449-0.764-0.6c-0.538-0.24-1.139-0.607-1.727-0.707
	c-1.917-0.322-3.962,1.588-2.712,3.527c1.36,2.115,5.108,3.346,7.198,4.533c1.667,0.949,3.247,1.852,4.994,2.66
	c2.972,1.375,5.878,3.637,9.1,4.266C235.389,390.02,236.828,387.496,235.309,385.699z"/>
<path fill="#1A1A1A" d="M231.75,401.924c-3.448-2.824-7.643-4.709-11.566-6.801c-4.951-2.639-9.801-5.443-14.839-7.982
	c-3.789-1.91-7.083,3.594-3.344,5.721c4.013,2.283,8.035,4.947,12.317,6.693c5.048,2.059,9.497,5.361,14.574,7.279
	C231.595,407.854,233.995,403.762,231.75,401.924z"/>
<path fill="#1A1A1A" d="M394.731,370.582c-8.329,4.002-16.022,8.625-23.404,14.158c-0.634,0.475-0.259,1.385,0.529,1.258
	c9.438-1.529,17.679-5.494,26.092-9.912C401.618,374.16,398.396,368.82,394.731,370.582z"/>
<path fill="#1A1A1A" d="M402.826,380.744c-9.444,5.338-19.911,8.842-27.454,16.955c-1.722,1.852,0.563,5.189,2.802,3.633
	c8.672-6.043,18.762-9.75,27.68-15.406C409.11,383.859,406.209,378.832,402.826,380.744z"/>
<path fill="#1A1A1A" d="M343.961,319.701c-3.32-1.938-6.303-4.252-9.094-6.895c-1.579-1.494-3.93,0.844-2.387,2.387
	c2.432,2.433,5.057,4.6,7.851,6.576c-1.812,2.438-4.202,5.656-6.784,7.477c-1.379-4.318-3.273-8.455-4.438-12.859
	c-1.172-4.438-8.096-2.543-6.87,1.895c1.119,4.057,2.656,7.979,4.472,11.77c-2.705,1.619-5.123,3.645-7.459,5.76
	c-1.721,0.377-3.184,2.273-2.114,4.344c0.312,0.602,0.608,1.209,0.896,1.822c-3.924,5.354-7.799,10.746-11.55,16.227
	c-5.123-4.822-10.264-9.781-16.479-13.068c0.725-1.826,1.688-3.393,2.997-4.471c0.688-0.566,0.698-1.393,0.356-2.07
	c0.344-0.922,0.213-1.957-0.744-2.736c-1.252-1.02-2.697-1.428-4.115-2.146c-1.104-0.562-2.151-1.237-3.103-2.03
	c0.921-4.781,2.462-9.453,2.655-14.342c0.104-2.658-4.131-3.271-4.665-0.631c-1.051,5.188-2.373,10.508-3.023,15.827
	c-0.076,0.21-0.132,0.427-0.153,0.647c-3.768-2.522-7.346-5.336-11.318-7.522c1.354-2.198,3.135-4.005,5.412-5.442
	c2.799-1.771,0.132-6.285-2.587-4.426c-3.646,2.496-6.296,5.645-8.091,9.682c-0.487,1.1-0.409,2.654,0.852,3.25
	c6.005,2.838,10.939,7.357,16.667,10.666c1.301,0.754,2.812,0.092,3.354-1.148c0.178,0.125,0.354,0.254,0.533,0.375
	c0.917,0.617,1.99,1.287,3.111,1.715c-3.215,4.412-4.197,11.18-5.157,15.996c-2.099,10.52-2.703,21.344-3.32,32.033
	c-0.551,9.553-1.032,19.135-1.215,28.699c-0.169,8.887-0.692,17.752-0.361,26.643c0.335,8.971-0.041,18.252,1.24,27.137
	c0.02,0.139,0.06,0.264,0.1,0.391c1.941-0.025,3.886-0.014,5.828,0c0.039-0.125,0.079-0.252,0.099-0.391
	c1.073-7.67,0.439-15.639,0.324-23.367c-0.134-8.867-0.702-17.709-1.002-26.571c-0.317-9.399,0.236-18.88,0.601-28.278
	c0.394-10.15,1.141-20.242,2.131-30.352c0.354-3.615,0.464-9.381,1.685-14.258c5.471,4.934,10.787,10.045,16.216,15.027
	c1.069,0.98,2.608,0.752,3.402-0.439c3.612-5.416,7.362-10.729,11.245-15.949c5.946,16.496,4.37,35.568,4.418,52.688
	c0.03,10.978,1.606,21.75,2.891,32.627c1.523,12.906,2.18,25.697,2.449,38.676c0.275-0.016,0.552-0.032,0.826-0.041
	c1.479-0.096,2.96-0.157,4.441-0.203c0.886-12.752-1.162-25.799-2.701-38.432c-1.44-11.824-1.967-23.703-1.812-35.604
	c0.248-18.938,1.827-39.366-6.957-56.731c1.803-1.74,3.629-3.459,5.454-5.174c0.064,0.119,0.127,0.24,0.192,0.357
	c1.099,1.981,3.886,1.787,5.028,0c1.48-2.318,4.043-4.186,5.835-6.301c1.667-1.969,3.159-4.09,4.615-6.216
	C345.222,321.438,344.803,320.193,343.961,319.701z"/>
<path fill="#1A1A1A" d="M383.34,465.125c-27.6-0.998-55.169-0.076-82.732,1.443c-13.214,0.729-26.644,1.486-39.75,3.338
	c-12.703,1.793-27.857,3.424-38.799,10.607c-0.472,0.311-0.285,1.021,0.284,1.049c12.646,0.572,25.742-3.863,38.178-5.85
	c14.006-2.234,27.766-4.191,41.947-4.93c26.947-1.398,53.944,1.117,80.875,2.09C388.34,473.057,388.322,465.305,383.34,465.125z"/>
</svg>
