<?xml version="1.0" encoding="utf-8"?>
<!-- Generator: Adobe Illustrator 15.0.2, SVG Export Plug-In . SVG Version: 6.00 Build 0)  -->
<!DOCTYPE svg PUBLIC "-//W3C//DTD SVG 1.1//EN" "http://www.w3.org/Graphics/SVG/1.1/DTD/svg11.dtd">
<svg version="1.1" id="Layer_1" xmlns="http://www.w3.org/2000/svg" xmlns:xlink="http://www.w3.org/1999/xlink" x="0px" y="0px"
	 width="600px" height="600px" viewBox="0 0 600 600" enable-background="new 0 0 600 600" xml:space="preserve">
<path opacity="0.5" fill="#1A1A1A" enable-background="new    " d="M295.709,329.7c0.427-0.729,0.751-2.017,0.429-2.835
	c-0.43-1.094-0.86-2.186-1.29-3.279c-0.061-0.154-0.143-0.281-0.228-0.404c-0.052-0.605-0.093-1.221-0.094-1.848
	c-0.002-1.096,0.647-3.053-0.358-3.166c-3.503-0.396-8.022,1.871-11.495,1.768c-2.354-0.069-3.658,3.049-1.932,4.664
	c0.469,0.438,0.966,0.82,1.477,1.211c0.702,0.537,1.104,1.802,1.95,1.357c-0.095,2.744,1.978,4.639,3.698,6.309
	c0.553,0.537,1.167,0.836,1.784,0.951c0.177,0.389,0.362,0.776,0.521,1.172c0.307,0.762,1,1.244,1.749,1.437
	c0.118,2.233,3.403,2.216,3.513-0.033c0.022-0.473,0.023-0.932,0.015-1.387c-0.014-1.667-0.22-3.429-0.524-5.082
	C295.237,330.301,295.519,330.025,295.709,329.7z"/>
<path opacity="0.5" fill="#1A1A1A" enable-background="new    " d="M330.903,317.668c-0.398-3.211-4.132-4.188-6.034-2.75
	c-1.655-0.805-3.903-0.492-5.315,1.398c-1.789,2.395-2.525,5.123-3.19,7.939c-0.013,0.025-0.021,0.053-0.033,0.076
	c-0.022,0.049-0.044,0.098-0.066,0.146c0.001,0,0.002,0,0.003,0.002c-0.148,0.346-0.298,0.689-0.438,1.033
	c-0.271,0.65-0.325,1.27-0.245,1.848c-0.971,3.133-2.586,5.863-3.888,8.896c-1.258,2.929,1.48,6.733,4.727,4.728
	C325.05,335.643,332.265,328.645,330.903,317.668z"/>
<path opacity="0.5" fill="#1A1A1A" enable-background="new    " d="M210.674,441.084c-1.276-0.07-2.516-0.031-3.777,0.215
	c-0.281,0.059-2.822-1.697-3.203-1.904c-0.855-0.463-1.685-0.93-2.524-1.371c0.112-0.471,0.135-0.977,0.057-1.479
	c-0.375-2.412-3.548-4.244-5.573-5.203c-1.13-0.535-2.228-1.028-3.349-1.436c-0.265-1.555-1.413-2.896-3.298-2.705
	c-1.588,0.158-3.039,0.393-4.564,0.881c-2.307,0.736-3.166,3.412-1.771,5.301c-0.216,2.842,1.95,5.73,5.8,7.541
	c2.953,1.387,6.303,1.83,9.003,3.664c4.071,2.764,8.234,6.426,13.199,6.998C217.29,452.348,217.504,441.461,210.674,441.084z"/>
<path opacity="0.5" fill="#1A1A1A" enable-background="new    " d="M423.674,421.666c-8.224,0.645-16.266,1.588-24.331,3.381
	c0.007,0.025,0.017,0.053,0.021,0.078c-1.411,0.471-2.264,1.629-2.535,2.895c-0.166,0.07-0.331,0.141-0.498,0.213
	c-2.802,1.211-2.368,4.656-0.502,6.4c-1.179,2.492,0.861,4.65,3.168,4.896c0.104,0.613,0.368,1.207,0.823,1.662
	c1.484,1.484,3.744,1.002,4.856-0.629c0.608-0.889,0.865-1.902,0.985-2.953c0.077-0.678-0.275-1.602-0.508-2.238
	c-0.012-0.027-0.022-0.051-0.032-0.076c2.032-1.578,4.522-2.654,7.172-3.465c4.165-0.439,8.249-1.271,12.321-2.947
	c0.01-0.002,0.021-0.006,0.032-0.008c0.279-0.08,0.529-0.193,0.766-0.324c0.036-0.016,0.073-0.027,0.11-0.047l-0.011-0.02
	C428.391,426.736,427.547,421.361,423.674,421.666z"/>
</svg>
